/* XPM */
static char *result[] = {
/* columns rows colors chars-per-pixel */
"64 64 223 2 ",
"   c black",
".  c #000001",
"X  c #010101",
"o  c #010102",
"O  c #020202",
"+  c #020203",
"@  c gray1",
"#  c #030304",
"$  c #030305",
"%  c #040405",
"&  c #060506",
"*  c #060607",
"=  c #060608",
"-  c #070D0A",
";  c #090809",
":  c #0C0B0C",
">  c #0E0D0F",
",  c #0C1A0F",
"<  c #0C1B0F",
"1  c #110F11",
"2  c #0D1E11",
"3  c #0F1E12",
"4  c #131113",
"5  c #141315",
"6  c #161517",
"7  c #181619",
"8  c #0E2112",
"9  c #0F2212",
"0  c #0F2313",
"q  c #0F2413",
"w  c #102614",
"e  c #112915",
"r  c #132C17",
"t  c #152B19",
"y  c #193A1E",
"u  c #211F22",
"i  c #1B3F20",
"p  c #222023",
"a  c #232124",
"s  c #252226",
"d  c #262327",
"f  c #282529",
"g  c #29262A",
"h  c #2A282C",
"j  c #2B292C",
"k  c #38353A",
"l  c #3B383C",
"z  c #3C393D",
"x  c #1C4021",
"c  c #1C4221",
"v  c #1E4323",
"b  c #214A26",
"n  c #224C27",
"m  c #234628",
"M  c #234E28",
"N  c #234E29",
"B  c #235029",
"V  c #245029",
"C  c #24512A",
"Z  c #24522A",
"A  c #25522B",
"S  c #25532B",
"D  c #26542C",
"F  c #27562D",
"G  c #27572D",
"H  c #27582E",
"J  c #285A2F",
"K  c #285B2F",
"L  c #295B30",
"P  c #295C30",
"I  c #2B5E31",
"U  c #2C6132",
"Y  c #2C6133",
"T  c #2C6233",
"R  c #2D6233",
"E  c #2C6333",
"W  c #2D6333",
"Q  c #2D6234",
"!  c #2D6334",
"~  c #2D6434",
"^  c #2E6435",
"/  c #2E6535",
"(  c #2E6635",
")  c #2E6736",
"_  c #2F6736",
"`  c #306837",
"'  c #306937",
"]  c #306A37",
"[  c #306A38",
"{  c #316B38",
"}  c #316C38",
"|  c #316C39",
" . c #326C39",
".. c #326D39",
"X. c #326D3A",
"o. c #326E3A",
"O. c #336E3A",
"+. c #336F3A",
"@. c #336F3B",
"#. c #33703B",
"$. c #34703B",
"%. c #34713B",
"&. c #34713C",
"*. c #34723C",
"=. c #35723C",
"-. c #35733C",
";. c #35733D",
":. c #35743D",
">. c #36743D",
",. c #36753E",
"<. c #36763E",
"1. c #37763F",
"2. c #37773F",
"3. c #3B763F",
"4. c #586F3D",
"5. c #596F3D",
"6. c #5B6E3D",
"7. c #5A6F3D",
"8. c #5E6D3D",
"9. c #5D6E3D",
"0. c #45743E",
"q. c #4D723E",
"w. c #52713E",
"e. c #54703D",
"r. c #57703D",
"t. c #666B3C",
"y. c #616C3C",
"u. c #616D3C",
"i. c #606D3D",
"p. c #6C683B",
"a. c #6D683B",
"s. c #6B693C",
"d. c #77633A",
"f. c #71663B",
"g. c #7B613A",
"h. c #423F44",
"j. c #387740",
"k. c #397740",
"l. c #3A7742",
"z. c #3F7145",
"x. c #3E7745",
"c. c #49464B",
"v. c #4A464B",
"b. c #4F5D52",
"n. c #4D575C",
"m. c #525955",
"M. c #565259",
"N. c #59555B",
"B. c #49654D",
"V. c #4A644E",
"C. c #4A654E",
"Z. c #47684B",
"A. c #436D48",
"S. c #446C49",
"D. c #407046",
"F. c #427848",
"G. c #657C44",
"H. c #6D7842",
"J. c #6D7843",
"K. c #777241",
"L. c #747441",
"P. c #666269",
"I. c #6A656D",
"U. c #657A69",
"Y. c #667A6A",
"T. c #677B6B",
"R. c #736E76",
"E. c #746F77",
"W. c #797D7D",
"Q. c #AC3232",
"!. c #AB3432",
"~. c #AA3633",
"^. c #A93A33",
"/. c #A83B33",
"(. c #AB3A34",
"). c #A83C34",
"_. c #9D4F37",
"`. c #865A38",
"'. c #825D39",
"]. c #A14234",
"[. c #A94137",
"{. c #8B633C",
"}. c #89653D",
"|. c #DF7126",
" X c #A15F42",
".X c #9A724A",
"XX c #3E8948",
"oX c #478747",
"OX c #4D8547",
"+X c #43804B",
"@X c #5DAE67",
"#X c #6EAE68",
"$X c #77A564",
"%X c #75A765",
"&X c #77A664",
"*X c #7BA161",
"=X c #7CA061",
"-X c #70AC67",
";X c #62B76D",
":X c #8E8955",
">X c #8B8E58",
",X c #938051",
"<X c #918453",
"1X c #908553",
"2X c #908554",
"3X c #819B5E",
"4X c #809B5F",
"5X c #7D7880",
"6X c #7E7881",
"7X c #817B84",
"8X c #827C85",
"9X c #837D86",
"0X c #837E86",
"qX c #847E87",
"wX c #78868E",
"eX c #96A7B1",
"rX c #96AAB1",
"tX c #99ABB5",
"yX c #9AACB5",
"uX c #9AACB6",
"iX c #9BADB7",
"pX c white",
"aX c None",
/* pixels */
"aXaXaXaXaXaXaXaXaXaXaXaXaXaXaXaXaXaXaXaXaXaXaXaXaXaX= = = = aXaXaXaXaXaXaXaXaXaXaXaXaXaXaXaXaXaXaXaXaXaXaXaXaXaXaXaXaXaXaXaXaXaX",
"aXaXaXaXaXaXaXaXaXaXaXaXaXaXaXaXaXaXaXaXaXaXaXaXaXaX= = = = aXaXaXaXaXaXaXaXaXaXaXaXaXaXaXaXaXaXaXaXaXaXaXaXaXaXaXaXaXaXaXaXaXaX",
"aXaXaXaXaXaXaXaXaXaXaXaXaXaXaXaXaXaXaXaXaXaXaXaXaXaX= = = = aXaXaXaXaXaXaXaXaXaXaXaXaXaXaXaXaXaXaXaXaXaXaXaXaXaXaXaXaXaXaXaXaXaX",
"aXaXaXaXaXaXaXaXaXaXaXaXaXaXaXaXaXaX= = = = = = = = Q.Q.Q.Q.= = = = aXaXaXaXaXaXaXaXaXaXaXaXaXaXaXaXaXaXaXaXaXaXaXaXaXaXaXaXaXaX",
"aXaXaXaXaXaXaXaXaXaXaXaXaXaXaXaXaXaX= = = = = = = = Q.Q.Q.Q.= = = = aXaXaXaXaXaXaXaXaXaXaXaXaXaXaXaXaXaXaXaXaXaXaXaXaXaXaXaXaXaX",
"aXaXaXaXaXaXaXaXaXaXaXaXaXaXaXaXaXaX= = = = = = = = Q.Q.Q.Q.= = = = aXaXaXaXaXaXaXaXaXaXaXaXaXaXaXaXaXaXaXaXaXaXaXaXaXaXaXaXaXaX",
"aXaXaXaXaXaXaXaXaXaXaXaXaXaXaXaXaXaX= = = = = = = = Q.Q.Q.Q.= = = = aXaXaXaXaXaXaXaXaXaXaXaXaXaXaXaXaXaXaXaXaXaXaXaXaXaXaXaXaXaX",
"aXaXaXaXaXaXaXaXaXaXaXaXaXaXaXaXaXaX= = = = Q.Q.Q.Q.qXqXqXqX= = = = = = = = = = = = = = = = aXaXaXaXaXaXaXaXaXaXaXaXaXaXaXaXaXaX",
"aXaXaXaXaXaXaXaXaXaXaXaXaXaXaXaXaXaX= = = = Q.Q.Q.Q.qXqXqXqX= = = = = = = = = = = = = = = = aXaXaXaXaXaXaXaXaXaXaXaXaXaXaXaXaXaX",
"aXaXaXaXaXaXaXaXaXaXaXaXaXaXaXaXaXaX= = = = Q.Q.Q.Q.qXqXqXqX= = = = = = = = = = = = = = = = aXaXaXaXaXaXaXaXaXaXaXaXaXaXaXaXaXaX",
"aXaXaXaXaXaXaXaXaXaXaXaXaXaXaXaXaXaX= = = = Q.Q.Q.Q.qXqXqXqX= = = = = = = = = = = = = = = = aXaXaXaXaXaXaXaXaXaXaXaXaXaXaXaXaXaX",
"aXaXaXaXaXaXaXaXaXaXaXaXaXaXaXaXaXaX= = = = qXqXqXqXqXqXqXqXiXiXiXiXiXiXiXiXiXiXiXiXiXiXiXiX= = = = aXaXaXaXaXaXaXaXaXaXaXaXaXaX",
"aXaXaXaXaXaXaXaXaXaXaXaXaXaXaXaXaXaX= = = = qXqXqXqXqXqXqXqXiXiXiXiXiXiXiXiXiXiXiXiXiXiXiXiX= = = = aXaXaXaXaXaXaXaXaXaXaXaXaXaX",
"aXaXaXaXaXaXaXaXaXaXaXaXaXaXaXaXaXaX= = = = qXqXqXqXqXqXqXqXiXiXiXiXiXiXiXiXiXiXiXiXiXiXiXiX= = = = aXaXaXaXaXaXaXaXaXaXaXaXaXaX",
"aXaXaXaXaXaXaXaXaXaXaXaXaXaXaXaXaXaX= = = = qXqXqXqXqXqXqXqXiXiXiXiXiXiXiXiXiXiXiXiXiXiXiXiX= = = = aXaXaXaXaXaXaXaXaXaXaXaXaXaX",
"aXaXaXaXaXaXaXaXaXaXaXaXaXaX= = = = qXqXqXqXiXiXiXiXpXpXpXpXpXpXpXpXpXpXpXpXpXpXpXpXpXpXpXpX= = = = aXaXaXaXaXaXaXaXaXaXaXaXaXaX",
"aXaXaXaXaXaXaXaXaXaXaXaXaXaX= = = = qXqXqXqXiXiXiXiXpXpXpXpXpXpXpXpXpXpXpXpXpXpXpXpXpXpXpXpX= = = =     aXaXaXaXaXaXaXaXaXaXaXaX",
"aXaXaXaXaXaXaXaXaXaXaXaXaXaX= = = = qXqXqXqXiXiXiXiXpXpXpXpXpXpXpXpXpXpXpXpXpXpXpXpXpXpXpXpX= = = =     aXaXaXaXaXaXaXaXaXaXaXaX",
"aXaXaXaXaXaXaXaXaXaXaXaXaXaX= = = = qXqXqXqXiXiXiXiXpXpXpXpXpXpXpXpXpXpXpXpXpXpXpXpXpXpXpXpX= = = =     aXaXaXaXaXaXaXaXaXaXaXaX",
"aXaXaXaXaXaXaXaXaXaXaXaXaXaX= = = = iXiXiXiXiXiXiXiXpXpXpXpX= = = = = = = = = = = = = = = = = = = =     aXaXaXaXaXaXaXaXaXaXaXaX",
"aXaXaXaXaXaXaXaXaXaXaXaX    = = = = iXiXiXiXiXiXiXiXpXpXpXpX= = = = = = = = = = = = = = = = = = = = #.#.        aXaXaXaXaXaXaXaX",
"aXaXaXaXaXaXaXaXaXaXaXaX    = = = = iXiXiXiXiXiXiXiXpXpXpXpX= = = = = = = = = = = = = = = = = = = = #.#.        aXaXaXaXaXaXaXaX",
"aXaXaXaXaXaXaXaXaXaXaXaX    = = = = iXiXiXiXiXiXiXiXpXpXpXpX= = = = = = = = = = = = = = = = = = = = #.#.        aXaXaXaXaXaXaXaX",
"aXaXaXaXaXaXaXaXaXaXaXaX    = = = = iXiXiXiXiXiXiXiXpXpXpXpXpXpXpXpXpXpXpXpX= = = = pXpXpXpX= = = = #.#.        aXaXaXaXaXaXaXaX",
"aXaXaXaXaXaXaXaX        #.#.= = = = iXiXiXiXiXiXiXiXpXpXpXpXpXpXpXpXpXpXpXpX= = = = pXpXpXpX= = = = XXXX#.#.#.#.        aXaXaXaX",
"aXaXaXaXaXaXaXaX        #.#.= = = = iXiXiXiXiXiXiXiXpXpXpXpXpXpXpXpXpXpXpXpX= = = = pXpXpXpX= = = = XXXX#.#.#.#.        aXaXaXaX",
"aXaXaXaXaXaXaXaX        #.#.= = = = iXiXiXiXiXiXiXiXpXpXpXpXpXpXpXpXpXpXpXpX= = = = pXpXpXpX= = = = XXXX#.#.#.#.        aXaXaXaX",
"aXaXaXaXaXaXaXaX        #.#.= = = = qXqXqXqXiXiXiXiXiXiXiXiXiXiXiXiXpXpXpXpXpXpXpXpXpXpXpXpX= = = = XXXX#.#.#.#.        aXaXaXaX",
"aXaXaXaX        #.#.#.#.XXXX= = = = qXqXqXqXiXiXiXiXiXiXiXiXiXiXiXiXpXpXpXpXpXpXpXpXpXpXpXpX= = = = XXXXXXXXXXXX#.#.#.#.        ",
"aXaXaXaX        #.#.#.#.XXXX= = = = qXqXqXqXiXiXiXiXiXiXiXiXiXiXiXiXpXpXpXpXpXpXpXpXpXpXpXpX= = = = XXXXXXXXXXXX#.#.#.#.        ",
"aXaXaXaX        #.#.#.#.XXXX= = = = qXqXqXqXiXiXiXiXiXiXiXiXiXiXiXiXpXpXpXpXpXpXpXpXpXpXpXpX= = = = XXXXXXXXXXXX#.#.#.#.        ",
"aXaXaXaX        #.#.#.#.XXXXXXXXXXXX= = = = qXqXqXqXqXqXqXqXQ.Q.Q.Q.Q.Q.Q.Q.|.|.|.|.Q.Q.Q.Q.= = = = XXXXXXXXXXXX#.#.#.#.        ",
"        #.#.#.#.XXXXXXXXXXXXXXXX;X;X= = = = qXqXqXqXqXqXqXqXQ.Q.Q.Q.Q.Q.Q.Q.|.|.|.|.Q.Q.Q.Q.= = = = XXXXXXXXXXXXXXXXXXXX        ",
"        #.#.#.#.XXXXXXXXXXXXXXXX;X;X= = = = qXqXqXqXqXqXqXqXQ.Q.Q.Q.Q.Q.Q.Q.|.|.|.|.Q.Q.Q.Q.= = = = XXXXXXXXXXXXXXXXXXXX        ",
"        #.#.#.#.XXXXXXXXXXXXXXXX;X;X= = = = qXqXqXqXqXqXqXqXQ.Q.Q.Q.Q.Q.Q.Q.|.|.|.|.Q.Q.Q.Q.= = = = XXXXXXXXXXXXXXXXXXXX        ",
"        #.#.#.#.XXXXQ.Q.Q.Q.Q.Q.Q.Q.= = = = Q.Q.Q.Q.Q.Q.Q.Q.qXqXqXqXqXqXqXqXqXqXqXqXqXqXqXqX= = = = XXXXXXXXXXXXXXXXXXXX        ",
"        XXXXXXXXXXXX/.^.[.[.(.(.(.(.= = = = Q.Q.Q.Q.Q.Q.Q.Q.qXqXqXqXqXqXqXqXqXqXqXqXqXqXqXqX= = = =     XXXXXXXXXXXXXXXX        ",
"        XXXXXXXXXXXXJ.L.4X3X2X1X<X,Xt = = = Q.Q.Q.Q.Q.Q.Q.Q.qXqXqXqXqXqXqXqXqXqXqXqXqXqXqXqX= = = =     XXXXXXXXXXXXXXXX        ",
"        XXXXXXXXXXXXOXoX=X*X%X-X&X:X+X3 = = Q.Q.Q.Q.Q.Q.Q.Q.qXqXqXqXqXqXqXqXqXqXqXqXqXqXqXqX= = = =     XXXXXXXXXXXXXXXX        ",
"        XXXXQ.).H.G.H.K.%X>X$X X.X#X@Xm - = qXqXqXqXqXqXqXqXqXqXqXqXiXiXiXiXiXiXiXiXiXiXiXiX= = = *     XXXXXXXXXXXXXXXX        ",
"        XXXX!._.f.i.9.r.0.q.6.8.9.3.&.Y y < 0XqXqX9X9X9X9XqXqXqXqXqXiXiXiXiXiXiXiXiXiXiXiXiX= = % o     2.2.2.2.XXXXXXXX        ",
"        XXXX~.{.`.].g.5.t.d.7.4.'.s.F v Q ! T.W.5XE.R.I.P.9XqXqXqXqXiXiXiXiXiXiXiXiXiXiXtXeX$ + O .     2.2.2.2.XXXXXXXX        ",
"        XXXX~.}.e.y.u.i.u.i.w.9.a.p.| #.*.;.l.j.d p a h N.6X7X8X0X0XyXyXiXiXiXiXiXiXuXrXwXn.# + X       2.2.2.2.XXXXXXXX        ",
"        XXXXXXXX2.2.T T T T ! _ >.;.#...;.<.,.1.    g f k l v.M.U.Y.G S r q 2 8 q 0 x / # o             1.*.2.2.XXXXXXXX        ",
"        #.#.#.#.2.2.U U U U U U ! } #.#.$.$.L O.X . 6 @ 5 7 > ; j.k.1.>.:.%.{ o.$.X.R n q ! >.2.,.2.2.2.-.-.2.2.#.#.#.#.        ",
"        #.#.#.#.2.2.U U U U U U U T ) [ o.O.O.,.X X j u 4 : ; & k.j.2.2.2.2.,.=.' {  .w 9 I ,.,.<.<.#.;.{ W 2.2.#.#.#.#.        ",
"        #.#.#.#.2.2.U U U U U U U T #.>.;.;._ ^ O O h.p : : 1 s x.F.=.;.*.:.;.;.O.N w , R O.,.;. .~ T T Y U 2.2.#.#.#.#.        ",
"        #.#.K K U U U U U U U U U U T W E E T !     . X O o z c.m.m.c C U | ;.%.$.' Y Y { #.~ W Y U U U U U U U K K #.#.        ",
"aXaXaXaX        K K K K K K K K U U U U U U U U T ! e e i x b.C.S.D.T T Y | ..#.! Y U U Y T U U K K K K K K K K         aXaXaXaX",
"aXaXaXaX        K K K K K K K K U U U U U U U U U E V S { { z.A.Z.C.Z A S H *.| Y U U U U U U U K K K K K K K K         aXaXaXaX",
"aXaXaXaX        K K K K K K K K U U U U U U U U T #.! ! L D B.C.C.V.Z J ~ ;.<.} Y U U U U U U U K K K K K K K K         aXaXaXaX",
"aXaXaXaX        K K K K K K K K U U U U U U U U U ( { } #.$.P B F G ~ ~ F { +.T U U U U U U U U K K K K K K K K         aXaXaXaX",
"aXaXaXaXaXaXaXaX                K K K K U U U U U U Y E #.,.;.,.<.,.,.:.` b _ U U U U U K K K K                 aXaXaXaXaXaXaXaX",
"aXaXaXaXaXaXaXaX                K K K K U U U U U U U U _ ,.<.,.,.<.,.<.,.;.@.T U U U U K K K K                 aXaXaXaXaXaXaXaX",
"aXaXaXaXaXaXaXaX                K K K K U U U U U U U U T ] M B X.,.1.,.<.<.;.T U U U U K K K K                 aXaXaXaXaXaXaXaX",
"aXaXaXaXaXaXaXaX                K K K K U U U U U U U U U Y Y Y E ! ( $.o./ T U U U U U K K K K                 aXaXaXaXaXaXaXaX",
"aXaXaXaXaXaXaXaXaXaXaXaXaXaXaXaX                                                                aXaXaXaXaXaXaXaXaXaXaXaXaXaXaXaX",
"aXaXaXaXaXaXaXaXaXaXaXaXaXaXaXaX                                                                aXaXaXaXaXaXaXaXaXaXaXaXaXaXaXaX",
"aXaXaXaXaXaXaXaXaXaXaXaXaXaXaXaX                                                                aXaXaXaXaXaXaXaXaXaXaXaXaXaXaXaX",
"aXaXaXaXaXaXaXaXaXaXaXaXaXaXaXaX                                                                aXaXaXaXaXaXaXaXaXaXaXaXaXaXaXaX",
"aXaXaXaXaXaXaXaXaXaXaXaXaXaXaXaXaXaXaXaXaXaXaXaXaXaXaXaXaXaXaXaXaXaXaXaXaXaXaXaXaXaXaXaXaXaXaXaXaXaXaXaXaXaXaXaXaXaXaXaXaXaXaXaX",
"aXaXaXaXaXaXaXaXaXaXaXaXaXaXaXaXaXaXaXaXaXaXaXaXaXaXaXaXaXaXaXaXaXaXaXaXaXaXaXaXaXaXaXaXaXaXaXaXaXaXaXaXaXaXaXaXaXaXaXaXaXaXaXaX",
"aXaXaXaXaXaXaXaXaXaXaXaXaXaXaXaXaXaXaXaXaXaXaXaXaXaXaXaXaXaXaXaXaXaXaXaXaXaXaXaXaXaXaXaXaXaXaXaXaXaXaXaXaXaXaXaXaXaXaXaXaXaXaXaX",
"aXaXaXaXaXaXaXaXaXaXaXaXaXaXaXaXaXaXaXaXaXaXaXaXaXaXaXaXaXaXaXaXaXaXaXaXaXaXaXaXaXaXaXaXaXaXaXaXaXaXaXaXaXaXaXaXaXaXaXaXaXaXaXaX"
};
