/* XPM */
static char *result[] = {
/* columns rows colors chars-per-pixel */
"64 64 77 1 ",
"  c black",
". c #060608",
"X c #050B08",
"o c #070B09",
"O c #070D0A",
"+ c #07110A",
"@ c #09120C",
"# c #0B180E",
"$ c #0B1B0E",
"% c #0C1A0F",
"& c #0C1B0F",
"* c #0E1F11",
"= c #16331A",
"- c #18391D",
"; c #19391D",
": c #1B3D20",
"> c #1D4423",
", c #1E4423",
"< c #204926",
"1 c #214A26",
"2 c #214B27",
"3 c #234E28",
"4 c #235029",
"5 c #245029",
"6 c #24502A",
"7 c #24512A",
"8 c #24522A",
"9 c #25522B",
"0 c #27562D",
"q c #27572D",
"w c #27582E",
"e c #28582E",
"r c #285A2F",
"t c #285B2F",
"y c #295C30",
"u c #2C6132",
"i c #2C6133",
"p c #2C6233",
"a c #2C6333",
"s c #2D6334",
"d c #2D6434",
"f c #2E6535",
"g c #2E6635",
"h c #2F6736",
"j c #306837",
"k c #306937",
"l c #306A37",
"z c #306A38",
"x c #316B38",
"c c #316C38",
"v c #316C39",
"b c #326D3A",
"n c #326E3A",
"m c #336F3A",
"M c #336F3B",
"N c #33703B",
"B c #34703B",
"V c #34723C",
"C c #35733D",
"Z c #35743D",
"A c #36753E",
"S c #36763E",
"D c #37763F",
"F c #37773F",
"G c #555358",
"H c #565258",
"J c #4A644E",
"K c #4B644E",
"L c #4A654E",
"P c #AC3232",
"I c #DF7126",
"U c #3E8948",
"Y c #62B76D",
"T c #847E87",
"R c #9BADB7",
"E c white",
"W c None",
/* pixels */
"WWWWWWWWWWWWWWWWWWWWWWWWWW....WWWWWWWWWWWWWWWWWWWWWWWWWWWWWWWWWW",
"WWWWWWWWWWWWWWWWWWWWWWWWWW....WWWWWWWWWWWWWWWWWWWWWWWWWWWWWWWWWW",
"WWWWWWWWWWWWWWWWWWWWWWWWWW....WWWWWWWWWWWWWWWWWWWWWWWWWWWWWWWWWW",
"WWWWWWWWWWWWWWWWWW........PPPP....WWWWWWWWWWWWWWWWWWWWWWWWWWWWWW",
"WWWWWWWWWWWWWWWWWW........PPPP....WWWWWWWWWWWWWWWWWWWWWWWWWWWWWW",
"WWWWWWWWWWWWWWWWWW........PPPP....WWWWWWWWWWWWWWWWWWWWWWWWWWWWWW",
"WWWWWWWWWWWWWWWWWW........PPPP....WWWWWWWWWWWWWWWWWWWWWWWWWWWWWW",
"WWWWWWWWWWWWWWWWWW....PPPPTTTT................WWWWWWWWWWWWWWWWWW",
"WWWWWWWWWWWWWWWWWW....PPPPTTTT................WWWWWWWWWWWWWWWWWW",
"WWWWWWWWWWWWWWWWWW....PPPPTTTT................WWWWWWWWWWWWWWWWWW",
"WWWWWWWWWWWWWWWWWW....PPPPTTTT................WWWWWWWWWWWWWWWWWW",
"WWWWWWWWWWWWWWWWWW....TTTTTTTTRRRRRRRRRRRRRRRR....WWWWWWWWWWWWWW",
"WWWWWWWWWWWWWWWWWW....TTTTTTTTRRRRRRRRRRRRRRRR....WWWWWWWWWWWWWW",
"WWWWWWWWWWWWWWWWWW....TTTTTTTTRRRRRRRRRRRRRRRR....WWWWWWWWWWWWWW",
"WWWWWWWWWWWWWWWWWW....TTTTTTTTRRRRRRRRRRRRRRRR....WWWWWWWWWWWWWW",
"WWWWWWWWWWWWWW....TTTTRRRREEEEEEEEEEEEEEEEEEEE....WWWWWWWWWWWWWW",
"WWWWWWWWWWWWWW....TTTTRRRREEEEEEEEEEEEEEEEEEEE....  WWWWWWWWWWWW",
"WWWWWWWWWWWWWW....TTTTRRRREEEEEEEEEEEEEEEEEEEE....  WWWWWWWWWWWW",
"WWWWWWWWWWWWWW....TTTTRRRREEEEEEEEEEEEEEEEEEEE....  WWWWWWWWWWWW",
"WWWWWWWWWWWWWW....RRRRRRRREEEE....................  WWWWWWWWWWWW",
"WWWWWWWWWWWW  ....RRRRRRRREEEE....................NN    WWWWWWWW",
"WWWWWWWWWWWW  ....RRRRRRRREEEE....................NN    WWWWWWWW",
"WWWWWWWWWWWW  ....RRRRRRRREEEE....................NN    WWWWWWWW",
"WWWWWWWWWWWW  ....RRRRRRRREEEEEEEEEEEE....EEEE....NN    WWWWWWWW",
"WWWWWWWW    NN....RRRRRRRREEEEEEEEEEEE....EEEE....UUNNNN    WWWW",
"WWWWWWWW    NN....RRRRRRRREEEEEEEEEEEE....EEEE....UUNNNN    WWWW",
"WWWWWWWW    NN....RRRRRRRREEEEEEEEEEEE....EEEE....UUNNNN    WWWW",
"WWWWWWWW    NN....TTTTRRRRRRRRRRRREEEEEEEEEEEE....UUNNNN    WWWW",
"WWWW    NNNNUU....TTTTRRRRRRRRRRRREEEEEEEEEEEE....UUUUUUNNNN    ",
"WWWW    NNNNUU....TTTTRRRRRRRRRRRREEEEEEEEEEEE....UUUUUUNNNN    ",
"WWWW    NNNNUU....TTTTRRRRRRRRRRRREEEEEEEEEEEE....UUUUUUNNNN    ",
"WWWW    NNNNUUUUUU....TTTTTTTTPPPPPPPPIIIIPPPP....UUUUUUNNNN    ",
"    NNNNUUUUUUUUYY....TTTTTTTTPPPPPPPPIIIIPPPP....UUUUUUUUUU    ",
"    NNNNUUUUUUUUYY....TTTTTTTTPPPPPPPPIIIIPPPP....UUUUUUUUUU    ",
"    NNNNUUUUUUUUYY....TTTTTTTTPPPPPPPPIIIIPPPP....UUUUUUUUUU    ",
"    NNNNUUPPPPPPPP....PPPPPPPPTTTTTTTTTTTTTTTT....UUUUUUUUUU    ",
"    UUUUUUPPPPPPPP....PPPPPPPPTTTTTTTTTTTTTTTT....  UUUUUUUU    ",
"    UUUUUUPPPPPPPP....PPPPPPPPTTTTTTTTTTTTTTTT....  UUUUUUUU    ",
"    UUUUUUPPPPPPPP....PPPPPPPPTTTTTTTTTTTTTTTT....  UUUUUUUU    ",
"    UUPPPPPPPPPPPP....TTTTTTTTTTTTRRRRRRRRRRRR....  UUUUUUUU    ",
"    UUPPPPPPPPPPPP....TTTTTTTTTTTTRRRRRRRRRRRR....  FFFFUUUU    ",
"    UUPPPPPPPPPPPP....TTTTTTTTTTTTRRRRRRRRRRRR....  FFFFUUUU    ",
"    UUPPPPPPPPPPPP....TTTTTTTTTTTTRRRRRRRRRRRR....  FFFFUUUU    ",
"    UUUUFFuuuuuuuuuuuu....TTTTTTTT.......oO...      uuFFUUUU    ",
"    NNNNFFuuuuuuuuuuuu....TTTTTTTT......o=;O.OuuuuuuuuFFNNNN    ",
"    NNNNFFuuuuuuuuuuuu....TTTTTTTT.OO#&&%es%O;guuuuuuuFFNNNN    ",
"    NNNNFFuuuuuuuuuuuu....TTTTTTTTO;:izz,<*.O;guuuuuuuFFNNNN    ",
"    NNttuuuuuuuuuuuuuuuu  ....HHHHX->3dvNkiuuuuuuuuuuuuuttNN    ",
"WWWW    ttttttttuuuuuuuuuu@@@@GGGG+$2jvNsiuuuuuutttttttt    WWWW",
"WWWW    ttttttttuuuuuuuuua5775KKKK468wVviuuuuuuutttttttt    WWWW",
"WWWW    ttttttttuuuuuuuupNssr9LJJJ8rdCSciuuuuuuutttttttt    WWWW",
"WWWW    ttttttttuuuuuuuuugxcNBy40qdd0xmpuuuuuuuutttttttt    WWWW",
"WWWWWWWW        ttttuuuuuuiaNACASAAZj1huuuuutttt        WWWWWWWW",
"WWWWWWWW        ttttuuuuuuuuhASAASASACMpuuuutttt        WWWWWWWW",
"WWWWWWWW        ttttuuuuuuuupl34bADASSCpuuuutttt        WWWWWWWW",
"WWWWWWWW        ttttuuuuuuuuuiiiasgBnfpuuuuutttt        WWWWWWWW",
"WWWWWWWWWWWWWWWW                                WWWWWWWWWWWWWWWW",
"WWWWWWWWWWWWWWWW                                WWWWWWWWWWWWWWWW",
"WWWWWWWWWWWWWWWW                                WWWWWWWWWWWWWWWW",
"WWWWWWWWWWWWWWWW                                WWWWWWWWWWWWWWWW",
"WWWWWWWWWWWWWWWWWWWWWWWWWWWWWWWWWWWWWWWWWWWWWWWWWWWWWWWWWWWWWWWW",
"WWWWWWWWWWWWWWWWWWWWWWWWWWWWWWWWWWWWWWWWWWWWWWWWWWWWWWWWWWWWWWWW",
"WWWWWWWWWWWWWWWWWWWWWWWWWWWWWWWWWWWWWWWWWWWWWWWWWWWWWWWWWWWWWWWW",
"WWWWWWWWWWWWWWWWWWWWWWWWWWWWWWWWWWWWWWWWWWWWWWWWWWWWWWWWWWWWWWWW"
};
