/* XPM */
static char *result[] = {
/* columns rows colors chars-per-pixel */
"64 64 154 2 ",
"   c #000000",
".  c #0E0101",
"X  c #020C03",
"o  c #060608",
"O  c #070A09",
"+  c #080D0A",
"@  c #140202",
"#  c #041206",
"$  c #09140C",
"%  c #061808",
"&  c #0B1B0E",
"*  c #0D1E10",
"=  c #19181A",
"-  c #131914",
";  c #220404",
":  c #0B220E",
">  c #0E2212",
",  c #0F2A13",
"<  c #102514",
"1  c #122B16",
"2  c #142E18",
"3  c #123116",
"4  c #16341A",
"5  c #18371C",
"6  c #173A1C",
"7  c #193B1E",
"8  c #201F21",
"9  c #1B3E20",
"0  c #312F32",
"q  c #353737",
"w  c #39373A",
"e  c #470F0F",
"r  c #541614",
"t  c #601B19",
"y  c #1B411F",
"u  c #1D4422",
"i  c #1F4924",
"p  c #204725",
"a  c #214B26",
"s  c #234E28",
"d  c #25532B",
"f  c #27582D",
"g  c #285A2F",
"h  c #2A5E31",
"j  c #35583A",
"k  c #2D6334",
"l  c #2F6836",
"z  c #306937",
"x  c #316C39",
"c  c #3B6F3B",
"v  c #36753E",
"b  c #39773F",
"n  c #436D3B",
"m  c #516A3A",
"M  c #43753E",
"N  c #4B743E",
"B  c #6C683B",
"V  c #74653B",
"C  c #65763C",
"Z  c #7E763A",
"A  c #397741",
"S  c #3A7B43",
"D  c #3F7A49",
"F  c #525555",
"G  c #407847",
"H  c #427A4C",
"J  c #48784E",
"K  c #497B52",
"L  c #467D52",
"P  c #507856",
"I  c #557559",
"U  c #6B6B6E",
"Y  c #656567",
"T  c #667B6A",
"R  c #6B7B6E",
"E  c #637A67",
"W  c #6E7B72",
"Q  c #727B76",
"!  c #767C7A",
"~  c #7A7D7D",
"^  c #94362D",
"/  c #AB3332",
"(  c #A53D34",
")  c #A83933",
"_  c #9D4735",
"`  c #954E36",
"'  c #9C4935",
"]  c #8E5537",
"[  c #935037",
"{  c #A14234",
"}  c #3C8546",
"|  c #3E8847",
" . c #3E8948",
".. c #478950",
"X. c #58855C",
"o. c #4C9355",
"O. c #4E9857",
"+. c #4F9A58",
"@. c #539E5D",
"#. c #53A05D",
"$. c #528261",
"%. c #5D876E",
"&. c #5F8870",
"*. c #628973",
"=. c #678D79",
"-. c #6A8E7D",
";. c #758879",
":. c #6E9374",
">. c #79987C",
",. c #58A762",
"<. c #5AAB65",
"1. c #7E7D81",
"2. c #847E87",
"3. c #6F9183",
"4. c #729286",
"5. c #75948B",
"6. c #79968E",
"7. c #7B9790",
"8. c #7D9994",
"9. c #809B97",
"0. c #849D9C",
"q. c #87A09F",
"w. c #95A497",
"e. c #9DB19E",
"r. c #87A0A0",
"t. c #8BA2A3",
"y. c #8FA5A9",
"u. c #91A6AB",
"i. c #94A8AE",
"p. c #97AAB2",
"a. c #99ACB5",
"s. c #A2B0A2",
"d. c #BAC7BC",
"f. c #BDC9BE",
"g. c #B2C0B2",
"h. c #C3CEC4",
"j. c #C6D0C7",
"k. c #C7D1C8",
"l. c #CBD4CC",
"z. c #CFD8D0",
"x. c #D4DBD5",
"c. c #D7DED8",
"v. c #D8DFD9",
"b. c #DCE2DD",
"n. c #DFE5E0",
"m. c #E1E6E2",
"M. c #E5E9E5",
"N. c #E7EBE8",
"B. c #EAEEEB",
"V. c #EEF1EE",
"C. c #F2F4F3",
"Z. c #F7F8F7",
"A. c #FBFCFB",
"S. c None",
/* pixels */
"S.S.S.S.S.S.S.S.S.S.S.S.S.S.S.S.S.S.S.S.S.S.S.S.S.S.S.S.S.S.S.S.S.S.S.S.S.S.S.S.S.S.S.S.S.S.S.S.S.S.S.S.S.S.S.S.S.S.S.S.S.S.S.S.",
"S.S.S.S.S.S.S.S.S.S.S.S.S.S.S.S.S.S.S.S.S.S.S.S.S.S.S.S.S.S.S.S.S.S.S.S.S.S.S.S.S.S.S.S.S.S.S.S.S.S.S.S.S.S.S.S.S.S.S.S.S.S.S.S.",
"S.S.S.S.S.S.S.S.S.S.S.S.S.S.S.S.S.S.S.S.S.S.S.S.S.S.S.S.S.S.S.S.S.S.S.S.S.S.S.S.S.S.S.S.S.S.S.S.S.S.S.S.S.S.S.S.S.S.S.S.S.S.S.S.",
"S.S.S.S.S.S.S.S.S.S.S.S.S.S.S.S.S.S.S.S.S.S.S.S.S.S.S.S.S.S.S.S.S.S.S.S.S.S.S.S.S.S.S.S.S.S.S.S.S.S.S.S.S.S.S.S.S.S.S.S.S.S.S.S.",
"S.S.S.S.S.S.S.S.S.S.S.S.S.S.S.S.S.S.S.S.S.S.S.S.S.S.S.S.S.S.S.S.S.S.S.S.S.S.S.S.S.S.S.S.S.S.S.S.S.S.S.S.S.S.S.S.S.S.S.S.S.S.S.S.",
"S.S.S.S.S.S.S.S.S.S.S.S.S.S.S.S.S.S.S.S.S.S.S.S.S.S.S.S.S.S.S.S.S.S.S.S.S.S.S.S.S.S.S.S.S.S.S.S.S.S.S.S.S.S.S.S.S.S.S.S.S.S.S.S.",
"S.S.S.S.S.S.S.S.S.S.S.S.S.S.S.S.S.S.S.S.S.S.S.S.S.S.S.S.S.S.S.S.S.S.S.S.S.S.S.S.S.S.S.S.S.S.S.S.S.S.S.S.S.S.S.S.S.S.S.S.S.S.S.S.",
"S.S.S.S.S.S.S.S.S.S.S.S.S.S.S.S.S.S.S.S.S.S.S.S.S.S.S.S.S.S.S.S.S.S.S.S.S.S.S.S.S.S.S.S.S.S.S.S.S.S.S.S.S.S.S.S.S.S.S.S.S.S.S.S.",
"S.S.S.S.S.S.S.S.S.S.S.S.S.S.S.S.S.S.S.S.S.S.S.S.S.S.S.S.S.S.S.S.S.S.S.S.S.S.S.S.S.S.S.S.S.S.S.S.S.S.S.S.S.S.S.S.S.S.S.S.S.S.S.S.",
"S.S.S.S.S.S.S.S.S.S.S.S.S.S.S.S.S.S.S.S.S.S.S.S.S.S.S.S.S.S.S.S.S.S.S.S.S.S.S.S.S.S.S.S.S.S.S.S.S.S.S.S.S.S.S.S.S.S.S.S.S.S.S.S.",
"S.S.S.S.S.S.S.S.S.S.S.S.S.S.S.S.S.S.S.S.S.S.S.S.S.S.S.S.S.S.S.S.S.S.S.S.S.S.S.S.S.S.S.S.S.S.S.S.S.S.S.S.S.S.S.S.S.S.S.S.S.S.S.S.",
"S.S.S.S.S.S.S.S.S.S.S.S.S.S.S.S.S.S.S.S.S.S.S.S.S.S.2 2 1 1 S.S.S.S.S.S.S.S.S.S.S.S.S.S.S.S.S.S.S.S.S.S.S.S.S.S.S.S.S.S.S.S.S.S.",
"S.S.S.S.S.S.S.S.S.S.S.S.S.S.S.S.S.S.S.S.S.S.S.S.S.S.9 9 7 7 S.S.S.S.S.S.S.S.S.S.S.S.S.S.S.S.S.S.S.S.S.S.S.S.S.S.S.S.S.S.S.S.S.S.",
"S.S.S.S.S.S.S.S.S.S.S.S.S.S.S.S.S.S.S.S.S.S.S.S.S.S.p p p p S.S.S.S.S.S.S.S.S.S.S.S.S.S.S.S.S.S.S.S.S.S.S.S.S.S.S.S.S.S.S.S.S.S.",
"S.S.S.S.S.S.S.S.S.S.S.S.S.S.S.S.S.S.S.S.S.S.S.S.S.S.p p a a S.S.S.S.S.S.S.S.S.S.S.S.S.S.S.S.S.S.S.S.S.S.S.S.S.S.S.S.S.S.S.S.S.S.",
"S.S.S.S.S.S.S.S.S.S.S.S.S.S.S.S.S.S.5 5 7 7 9 7 u 9 ` ` ` ` p p a p S.S.S.S.b b b S.S.S.S.S.S.S.S.S.S.S.S.S.S.S.S.S.S.S.S.S.S.S.",
"S.S.S.S.S.b b v v v S.S.S.S.S.S.S.S.1 < 1 1 2 4 4 4 { _ _ _ 9 9 u u i i d g h h h f f i i i i i a a i 7 S.S.S.S.S.S.S.S.S.S.S.S.",
"S.S.S.S.b b v A v v b b S.S.S.S.S.S.> & $ & * * * * ( ( ( { 2 2 4 4 9 u i g h h h g f s f s f s d s i i S.S.S.S.S.S.S.S.S.S.S.S.",
"S.S.S.S.v v v A v } v v b S.S.S.S.S.1 $ o O O + + $ / / / / $ * > > , 4 u d f g f f f f f f f f f s s s } v b v S.S.S.S.S.S.S.S.",
"S.S.S.S.S v S v v v S v b b S.S.S.S., $ o o / / / / 2.2.9.2.o O $ $ * < 9 u d d f g f g h h h g f d d f v v b v v S.S.S.S.S.S.S.",
"S.S.S.S.v v b v b b b S g f f i u 4 < $ o o / / / / 2.2.2.2.o o o O O & , 9 u s s f g h h h } } v v v v h k k k S S.S.S.S.S.S.S.",
"S.S.S.S.S.b v S v v b v g f s i 7 1 * + O o / / / / 2.2.2.2.o o o o o + * 2 9 i s g g g h h S S v x v v f h h h S.S.S.S.S.S.S.S.",
"S.S.S.S.S.S.v S v S v S f i i 7 3 : $ $ $ & ) ) / / 2.2.2.2.o o o O o o $ < 9 i i f g h g h S D v v v x i d d s S.S.S.S.S.S.S.S.",
"S.S.S.S.S.S.S.S.S.S.S.S.i i u 3 1 & & < 2 4 ~ 1.1.~ ~ 2.2.2.a.a.a.a.a.a.a.p.y.t.8.6.4.4.4.5.f d a i x v 6 y y y S.S.S.S.S.S.S.S.",
"S.S.S.S.S.S.S.S.u u y u v x v v v x 3 6 u u ! ! ! ! ~ ~ ~ 2.i.a.a.a.a.p.p.p.y.r.8.7.6.5.5.6.s i u 6 | | v v x v : #     S.S.S.S.",
"S.S.S.S.S.S.S.S.4 3 4 7 v v v x x v u a s p ! ~ ~ ~ ! ~ ! ! y.u.u.u.y.y.y.y.t.0.8.6.5.5.5.7.i 9 4 , | | x x v x X       S.S.S.S.",
"S.S.S.S.S.S.S.S., , 3 6 v x v v x v d d d p ~ ~ 1.1.~ ! Q Q 0.t.r.r.r.r.t.t.0.8.7.6.5.5.7.7.u 9 , & | | x v x v         S.S.S.S.",
"S.S.S.S.S.S.S.S.: : 3 y v x , 3 u d E T R ! i.a.a.p.C.n.z.z.x.v.x.l.l.b.n.n.c.z.h.f.f.h.l.c.9 1 * + | | v x v x         S.S.S.S.",
"S.S.S.S.X # % % x v v x } } 2 3 p d E T W ! i.a.a.a.C.n.l.l.x.v.z.j.l.n.B.B.m.x.j.f.f.j.x.n.4 > $ o  . . . . . .v x v x         ",
"S.S.S.S.      X x x v x } } y y p d T R Q ! u.a.a.a.V.v.k.k.x.v.x.k.l.v.B.C.C.M.x.l.j.l.c.N., $ O o  . . . . . .l v x v         ",
"S.S.S.S.        v x v v } b d d s s R W W Q y.i.a.p.M.l.f.h.x.b.v.z.l.x.B.Z.Z.C.B.n.x.x.b.M.2 * + $  . . . .| | v x v x         ",
"S.S.S.S.        x v v x } } h h d d 8.8.6.7.9.y.i.u.v.j.f.k.p 4 9 u s i 9 < $ $ > < 2 9 9 9 4 , * * | | |  . .| x v x v         ",
"        v x x v | } } } } b k k k d 5.5.4.3.5.9.r.t.v.l.l.v.4 * * 9 p s u < $ + $ $ * < 1 4 5 4 1 < | | | |  . . . . . .        ",
"      # x x v x | } } } } } x l k k -.-.=.-.3.6.0.0.n.n.M.B.* + $ 2 u s i 9 * O o + + + * < 2 4 9 9 } } } | }  . . . . .        ",
"      # v x v v | | } } v } x x x z *.&.*.-.4.6.9.0.M.N.B.C.* o + < 9 s i 9 * O o o o o + $ 1 9 9 u } } } } |  . . . . .        ",
"      # x v x v } } } } } v l x x x %.&.*.3.6.8.0.0.b.m.M.V.C.A.A.A.B.v.c.B.> O o + A.A.A.A.1 9 p s S } } } | |  . . . .        ",
"         . .| | } } } } O.o.k l k k *.=.-.4.7.9.0.t.b.v.b.m.B.C.A.A.C.N.M.V.* O + $ A.Z.C.B.9 u s s i i } } | |  . . . .        ",
"         . .| | } } b } O.O.k h k h 4.4.6.8.0.0.t.t.m.m.b.m.M.C.A.A.Z.C.V.Z.$ + & * C.N.n.c.a s s s a u } } | |  . . . .        ",
"         . .| | } S } } #.#.v v h g 8.0.0.r.t.y.y.t.m.m.m.b.m.B.A.A.Z.C.V.V.< * < 1 M.c.k.k.d s s a p u } | | |  . . . .        ",
"         . .| | } } } } ,.<.,.#.o...:.;.! 1.p.i.y.t.r.9.0.0.t.u.a.a.V.M.v.v.M.V.B.M.c.h.f.f.d s s p u 6 | | | |  . . .|         ",
"        |  . . .v v v v v S v v A b H K T ;.p.i.t.0.8.5.5.8.0.u.p.i.M.c.l.k.x.b.m.v.k.g.s.w.i i i u 6 3 v b v v  . . . .        ",
"        |  . . .v } v S v v v S b b v v G I 8.t.r.9.5.3.3.5.9.t.t.t.b.c.l.l.z.c.z.d.e.>.P j u y 6 3 3 : S v v }  . . . .        ",
"         . . . .b v v v S S v v b S v S A A P 5.9.0.6.5.5.7.0.r.t.t.m.m.b.l.l.d.e.>.X.G s y 6 3 , : % # v v v v  . . . .        ",
"         . . . .v v S v v v v S v v v v b A A H F U ! ! ! ! _ _ _ _ { _ ] V Z C N b b b 3 , : : % # #   } v v S  . . . .        ",
"        v v x v v v v v v v v b v v v v b S v v - w F Y U U ^ ^ _ { ( ` V M b b b b v v } v v v b v S v v S v v x v x v         ",
"        v x v x S v } v v } v v } S v S v v S v     O 8 q w r r V V V B N b v b v b v S v v v v b b v v v v v b v x v x         ",
"        x v x x v b b b v b b b v v v v b v v v           o . @ b b b b b b b b b b b v v v b } v v S v v S v v x v v x         ",
"        v x x v b b M N N M M v b v v S v v S v               X b b b b b b b b v b b b S v v v v } v v v v S S x x x v         ",
"S.S.S.S.        v x x x v x v c b b b b v b v v b v v S b b S v S v v b v v v A S v S v v b b A v v x v v l v x         S.S.S.S.",
"S.S.S.S.        x v v x x v v x v v b v } v S v v S v v v v v v b S v A v S v v v v v v S A v A x l v x x v x v         S.S.S.S.",
"S.S.S.S.        x v x v c v c x } v v v v v b v v S S v v v v v A J D A S v A A v v v A v b x h h k x v v x x v         S.S.S.S.",
"S.S.S.S.        v x v x n m x v v v v v v v b S v v v S v } v v A J $.D S D D S b S A v v S l l x x v x x v x v         S.S.S.S.",
"S.S.S.S.S.S.S.S.        @ ; @   x v x v v S b v S v v b v b } v b S D L L L H A v v v S x A x x                 S.S.S.S.S.S.S.S.",
"S.S.S.S.S.S.S.S.        ; e @   x v v x v v v S S v v v S v v b b v A S S S S A S v v S v x x v                 S.S.S.S.S.S.S.S.",
"S.S.S.S.S.S.S.S.          ; .   v x v x v S b v v v v } v } v v A A A A S S S v v v v b x v v x                 S.S.S.S.S.S.S.S.",
"S.S.S.S.S.S.S.S.                x v x v v v b b v S v v v b v v A A v A v v v S v v } v v x x v                 S.S.S.S.S.S.S.S.",
"S.S.S.S.S.S.S.S.S.S.S.S.S.S.S.S.                                                                S.S.S.S.S.S.S.S.S.S.S.S.S.S.S.S.",
"S.S.S.S.S.S.S.S.S.S.S.S.S.S.S.S.                                                                S.S.S.S.S.S.S.S.S.S.S.S.S.S.S.S.",
"S.S.S.S.S.S.S.S.S.S.S.S.S.S.S.S.                                                                S.S.S.S.S.S.S.S.S.S.S.S.S.S.S.S.",
"S.S.S.S.S.S.S.S.S.S.S.S.S.S.S.S.                              o = =                             S.S.S.S.S.S.S.S.S.S.S.S.S.S.S.S.",
"S.S.S.S.S.S.S.S.S.S.S.S.S.S.S.S.S.S.S.S.S.S.S.S.S.S.S.S.S.S.S.S.S.S.S.S.S.S.S.S.S.S.S.S.S.S.S.S.S.S.S.S.S.S.S.S.S.S.S.S.S.S.S.S.",
"S.S.S.S.S.S.S.S.S.S.S.S.S.S.S.S.S.S.S.S.S.S.S.S.S.S.S.S.S.S.S.S.S.S.S.S.S.S.S.S.S.S.S.S.S.S.S.S.S.S.S.S.S.S.S.S.S.S.S.S.S.S.S.S.",
"S.S.S.S.S.S.S.S.S.S.S.S.S.S.S.S.S.S.S.S.S.S.S.S.S.S.S.S.S.S.S.S.S.S.S.S.S.S.S.S.S.S.S.S.S.S.S.S.S.S.S.S.S.S.S.S.S.S.S.S.S.S.S.S.",
"S.S.S.S.S.S.S.S.S.S.S.S.S.S.S.S.S.S.S.S.S.S.S.S.S.S.S.S.S.S.S.S.S.S.S.S.S.S.S.S.S.S.S.S.S.S.S.S.S.S.S.S.S.S.S.S.S.S.S.S.S.S.S.S."
};
