/* XPM */
static char *result[] = {
/* columns rows colors chars-per-pixel */
"64 64 153 2 ",
"   c black",
".  c #000001",
"X  c #010101",
"o  c #010102",
"O  c #020202",
"+  c #020203",
"@  c gray1",
"#  c #030304",
"$  c #030305",
"%  c #040405",
"&  c #060506",
"*  c #060607",
"=  c #060608",
"-  c #070D0A",
";  c #0A090A",
":  c #09110C",
">  c #0D1E11",
",  c #131113",
"<  c #141315",
"1  c #181619",
"2  c #0E2011",
"3  c #0E2112",
"4  c #0F2313",
"5  c #0F2413",
"6  c #102013",
"7  c #112815",
"8  c #132C17",
"9  c #17341B",
"0  c #1B3D20",
"q  c #282529",
"w  c #312E32",
"e  c #1C4021",
"r  c #224427",
"t  c #224C28",
"y  c #25532B",
"u  c #26552C",
"i  c #27562D",
"p  c #27572D",
"a  c #2C6032",
"s  c #2D6234",
"d  c #2D6334",
"f  c #2D6434",
"g  c #2D6535",
"h  c #2E6535",
"j  c #2F6636",
"k  c #2F6837",
"l  c #306937",
"z  c #326239",
"x  c #306A38",
"c  c #316B38",
"v  c #326C39",
"b  c #326D39",
"n  c #326D3A",
"m  c #326E3A",
"M  c #336E3A",
"N  c #326F3A",
"B  c #336F3A",
"V  c #336F3B",
"C  c #33703B",
"Z  c #34703B",
"A  c #34713B",
"S  c #34723C",
"D  c #35733C",
"F  c #35733D",
"G  c #35743D",
"H  c #36743D",
"J  c #36753E",
"K  c #36763E",
"L  c #37763E",
"P  c #37763F",
"I  c #37773F",
"U  c #38773F",
"Y  c #3A763F",
"T  c #3B763F",
"R  c #3C763F",
"E  c #586F3D",
"W  c #43753E",
"Q  c #46743E",
"!  c #403C41",
"~  c #3A7541",
"^  c #387640",
"/  c #387740",
"(  c #397740",
")  c #3A7742",
"_  c #3D7745",
"`  c #48454A",
"'  c #4D494E",
"]  c #534F55",
"[  c #4D575C",
"{  c #545056",
"}  c #5C575E",
"|  c #426E47",
" . c #407847",
".. c #4C6250",
"X. c #4A7850",
"o. c #6B7943",
"O. c #717642",
"+. c #635E65",
"@. c #637A67",
"#. c #657A69",
"$. c #667A6A",
"%. c #6D6870",
"&. c #717C75",
"*. c #79737B",
"=. c #7C767E",
"-. c #7B7D7F",
";. c #AB3332",
":. c #AC3232",
">. c #A93633",
",. c #A53E33",
"<. c #905E3B",
"1. c #A94137",
"2. c #88653D",
"3. c #DF7126",
"4. c #A25F42",
"5. c #967A4E",
"6. c #3E8948",
"7. c #3F8948",
"8. c #4A8647",
"9. c #4D8547",
"0. c #408948",
"q. c #438848",
"w. c #528346",
"e. c #548346",
"r. c #568246",
"t. c #508446",
"y. c #4C9155",
"u. c #57A461",
"i. c #6EAE68",
"p. c #70AC67",
"a. c #61B56C",
"s. c #63B66D",
"d. c #62B76D",
"f. c #64B56C",
"g. c #65B56C",
"h. c #6BB069",
"j. c #68B26B",
"k. c #82995D",
"l. c #807A83",
"z. c #817B84",
"x. c #827C85",
"c. c #827E85",
"v. c #837E86",
"b. c #847E87",
"n. c #78868E",
"m. c #96A7B1",
"M. c #96AAB1",
"N. c #99ABB5",
"B. c #9AACB5",
"V. c #9AACB6",
"C. c #9BADB7",
"Z. c white",
"A. c None",
/* pixels */
"A.A.A.A.A.A.A.A.A.A.A.A.A.A.A.A.A.A.A.A.A.A.A.A.A.A.= = = = A.A.A.A.A.A.A.A.A.A.A.A.A.A.A.A.A.A.A.A.A.A.A.A.A.A.A.A.A.A.A.A.A.A.",
"A.A.A.A.A.A.A.A.A.A.A.A.A.A.A.A.A.A.A.A.A.A.A.A.A.A.= = = = A.A.A.A.A.A.A.A.A.A.A.A.A.A.A.A.A.A.A.A.A.A.A.A.A.A.A.A.A.A.A.A.A.A.",
"A.A.A.A.A.A.A.A.A.A.A.A.A.A.A.A.A.A.A.A.A.A.A.A.A.A.= = = = A.A.A.A.A.A.A.A.A.A.A.A.A.A.A.A.A.A.A.A.A.A.A.A.A.A.A.A.A.A.A.A.A.A.",
"A.A.A.A.A.A.A.A.A.A.A.A.A.A.A.A.A.A.= = = = = = = = :.:.:.:.= = = = A.A.A.A.A.A.A.A.A.A.A.A.A.A.A.A.A.A.A.A.A.A.A.A.A.A.A.A.A.A.",
"A.A.A.A.A.A.A.A.A.A.A.A.A.A.A.A.A.A.= = = = = = = = :.:.:.:.= = = = A.A.A.A.A.A.A.A.A.A.A.A.A.A.A.A.A.A.A.A.A.A.A.A.A.A.A.A.A.A.",
"A.A.A.A.A.A.A.A.A.A.A.A.A.A.A.A.A.A.= = = = = = = = :.:.:.:.= = = = A.A.A.A.A.A.A.A.A.A.A.A.A.A.A.A.A.A.A.A.A.A.A.A.A.A.A.A.A.A.",
"A.A.A.A.A.A.A.A.A.A.A.A.A.A.A.A.A.A.= = = = = = = = :.:.:.:.= = = = A.A.A.A.A.A.A.A.A.A.A.A.A.A.A.A.A.A.A.A.A.A.A.A.A.A.A.A.A.A.",
"A.A.A.A.A.A.A.A.A.A.A.A.A.A.A.A.A.A.= = = = :.:.:.:.b.b.b.b.= = = = = = = = = = = = = = = = A.A.A.A.A.A.A.A.A.A.A.A.A.A.A.A.A.A.",
"A.A.A.A.A.A.A.A.A.A.A.A.A.A.A.A.A.A.= = = = :.:.:.:.b.b.b.b.= = = = = = = = = = = = = = = = A.A.A.A.A.A.A.A.A.A.A.A.A.A.A.A.A.A.",
"A.A.A.A.A.A.A.A.A.A.A.A.A.A.A.A.A.A.= = = = :.:.:.:.b.b.b.b.= = = = = = = = = = = = = = = = A.A.A.A.A.A.A.A.A.A.A.A.A.A.A.A.A.A.",
"A.A.A.A.A.A.A.A.A.A.A.A.A.A.A.A.A.A.= = = = :.:.:.:.b.b.b.b.= = = = = = = = = = = = = = = = A.A.A.A.A.A.A.A.A.A.A.A.A.A.A.A.A.A.",
"A.A.A.A.A.A.A.A.A.A.A.A.A.A.A.A.A.A.= = = = b.b.b.b.b.b.b.b.C.C.C.C.C.C.C.C.C.C.C.C.C.C.C.C.= = = = A.A.A.A.A.A.A.A.A.A.A.A.A.A.",
"A.A.A.A.A.A.A.A.A.A.A.A.A.A.A.A.A.A.= = = = b.b.b.b.b.b.b.b.C.C.C.C.C.C.C.C.C.C.C.C.C.C.C.C.= = = = A.A.A.A.A.A.A.A.A.A.A.A.A.A.",
"A.A.A.A.A.A.A.A.A.A.A.A.A.A.A.A.A.A.= = = = b.b.b.b.b.b.b.b.C.C.C.C.C.C.C.C.C.C.C.C.C.C.C.C.= = = = A.A.A.A.A.A.A.A.A.A.A.A.A.A.",
"A.A.A.A.A.A.A.A.A.A.A.A.A.A.A.A.A.A.= = = = b.b.b.b.b.b.b.b.C.C.C.C.C.C.C.C.C.C.C.C.C.C.C.C.= = = = A.A.A.A.A.A.A.A.A.A.A.A.A.A.",
"A.A.A.A.A.A.A.A.A.A.A.A.A.A.= = = = b.b.b.b.C.C.C.C.Z.Z.Z.Z.Z.Z.Z.Z.Z.Z.Z.Z.Z.Z.Z.Z.Z.Z.Z.Z.= = = = A.A.A.A.A.A.A.A.A.A.A.A.A.A.",
"A.A.A.A.A.A.A.A.A.A.A.A.A.A.= = = = b.b.b.b.C.C.C.C.Z.Z.Z.Z.Z.Z.Z.Z.Z.Z.Z.Z.Z.Z.Z.Z.Z.Z.Z.Z.= = = =     A.A.A.A.A.A.A.A.A.A.A.A.",
"A.A.A.A.A.A.A.A.A.A.A.A.A.A.= = = = b.b.b.b.C.C.C.C.Z.Z.Z.Z.Z.Z.Z.Z.Z.Z.Z.Z.Z.Z.Z.Z.Z.Z.Z.Z.= = = =     A.A.A.A.A.A.A.A.A.A.A.A.",
"A.A.A.A.A.A.A.A.A.A.A.A.A.A.= = = = b.b.b.b.C.C.C.C.Z.Z.Z.Z.Z.Z.Z.Z.Z.Z.Z.Z.Z.Z.Z.Z.Z.Z.Z.Z.= = = =     A.A.A.A.A.A.A.A.A.A.A.A.",
"A.A.A.A.A.A.A.A.A.A.A.A.A.A.= = = = C.C.C.C.C.C.C.C.Z.Z.Z.Z.= = = = = = = = = = = = = = = = = = = =     A.A.A.A.A.A.A.A.A.A.A.A.",
"A.A.A.A.A.A.A.A.A.A.A.A.    = = = = C.C.C.C.C.C.C.C.Z.Z.Z.Z.= = = = = = = = = = = = = = = = = = = = C C         A.A.A.A.A.A.A.A.",
"A.A.A.A.A.A.A.A.A.A.A.A.    = = = = C.C.C.C.C.C.C.C.Z.Z.Z.Z.= = = = = = = = = = = = = = = = = = = = C C         A.A.A.A.A.A.A.A.",
"A.A.A.A.A.A.A.A.A.A.A.A.    = = = = C.C.C.C.C.C.C.C.Z.Z.Z.Z.= = = = = = = = = = = = = = = = = = = = C C         A.A.A.A.A.A.A.A.",
"A.A.A.A.A.A.A.A.A.A.A.A.    = = = = C.C.C.C.C.C.C.C.Z.Z.Z.Z.Z.Z.Z.Z.Z.Z.Z.Z.= = = = Z.Z.Z.Z.= = = = C C         A.A.A.A.A.A.A.A.",
"A.A.A.A.A.A.A.A.        C C = = = = C.C.C.C.C.C.C.C.Z.Z.Z.Z.Z.Z.Z.Z.Z.Z.Z.Z.= = = = Z.Z.Z.Z.= = = = 6.6.C C C C         A.A.A.A.",
"A.A.A.A.A.A.A.A.        C C = = = = C.C.C.C.C.C.C.C.Z.Z.Z.Z.Z.Z.Z.Z.Z.Z.Z.Z.= = = = Z.Z.Z.Z.= = = = 6.6.C C C C         A.A.A.A.",
"A.A.A.A.A.A.A.A.        C C = = = = C.C.C.C.C.C.C.C.Z.Z.Z.Z.Z.Z.Z.Z.Z.Z.Z.Z.= = = = Z.Z.Z.Z.= = = = 6.6.C C C C         A.A.A.A.",
"A.A.A.A.A.A.A.A.        C C = = = = b.b.b.b.C.C.C.C.C.C.C.C.C.C.C.C.Z.Z.Z.Z.Z.Z.Z.Z.Z.Z.Z.Z.= = = = 6.6.C C C C         A.A.A.A.",
"A.A.A.A.        C C C C 6.6.= = = = b.b.b.b.C.C.C.C.C.C.C.C.C.C.C.C.Z.Z.Z.Z.Z.Z.Z.Z.Z.Z.Z.Z.= = = = 6.6.6.6.6.6.C C C C         ",
"A.A.A.A.        C C C C 6.6.= = = = b.b.b.b.C.C.C.C.C.C.C.C.C.C.C.C.Z.Z.Z.Z.Z.Z.Z.Z.Z.Z.Z.Z.= = = = 6.6.6.6.6.6.C C C C         ",
"A.A.A.A.        C C C C 6.6.= = = = b.b.b.b.C.C.C.C.C.C.C.C.C.C.C.C.Z.Z.Z.Z.Z.Z.Z.Z.Z.Z.Z.Z.= = = = 6.6.6.6.6.6.C C C C         ",
"A.A.A.A.        C C C C 6.6.6.6.6.6.= = = = b.b.b.b.b.b.b.b.:.:.:.:.:.:.:.:.3.3.3.3.:.:.:.:.= = = = 6.6.6.6.6.6.C C C C         ",
"        C C C C 6.6.6.6.6.6.6.6.d.d.= = = = b.b.b.b.b.b.b.b.:.:.:.:.:.:.:.:.3.3.3.3.:.:.:.:.= = = = 6.6.6.6.6.6.6.6.6.6.        ",
"        C C C C 6.6.6.6.6.6.6.6.d.d.= = = = b.b.b.b.b.b.b.b.:.:.:.:.:.:.:.:.3.3.3.3.:.:.:.:.= = = = 6.6.6.6.6.6.6.6.6.6.        ",
"        C C C C 6.6.6.6.6.6.6.6.d.d.= = = = b.b.b.b.b.b.b.b.:.:.:.:.:.:.:.:.3.3.3.3.:.:.:.:.= = = = 6.6.6.6.6.6.6.6.6.6.        ",
"        C C C C 6.6.8.t.e.r.o.2.4.1.: = = = :.:.:.:.:.:.:.:.b.b.b.b.b.b.b.b.b.b.b.b.b.b.b.b.= = = = 6.6.6.6.6.6.6.6.6.6.        ",
"        6.6.6.6.6.6.6.7.d.d.g.i.k.5.r 6 = = :.:.:.:.:.:.:.:.b.b.b.b.b.b.b.b.b.b.b.b.b.b.b.b.= = = =     6.6.6.6.6.6.6.6.        ",
"        6.6.6.6.6.6.7.0.d.d.d.d.f.h.y.z 2 - :.:.:.:.:.:.:.:.b.b.b.b.b.b.b.b.b.b.b.b.b.b.b.b.= = = =     6.6.6.6.6.6.6.6.        ",
"        6.6.6.6.6.6.6.7.g.s.d.d.d.d.a.u.i 0 ,.>.;.:.:.:.:.:.b.b.b.b.b.b.b.b.b.b.b.b.b.b.b.b.= = = =     6.6.6.6.6.6.6.6.        ",
"        6.6.7.6.6.6.6.q.j.p.s.d.d.d.d.d.H c @.&.-.c.b.b.b.b.b.b.b.b.C.C.C.C.C.C.C.C.C.C.C.C.= = = *     6.6.6.6.6.6.6.6.        ",
"        6.6.9.6.I I I U R W T I I I I I I I _ X.{ %.=.z.x.b.b.b.b.b.C.C.C.C.C.C.C.C.C.C.C.C.= = % o     I I I I 6.6.6.6.        ",
"        6.6.O.q.I I I I W E Y I I I I I I I I U 1 w ' } +.x.b.b.b.b.C.C.C.C.C.C.C.C.C.C.N.m.$ + O .     I I I I 6.6.6.6.        ",
"        6.6.<.w.I I I I Y Q Y I I I I I I I I I     @ , ` *.l.x.v.v.B.B.C.C.C.C.C.C.V.M.n.[ # + X       I I I I 6.6.6.6.        ",
"        6.6.6.6.I I I I I J J I I I I I I I I I       @ < q ! ] #.$.p y 8 5 > 3 5 4 e h # o             P S I I 6.6.6.6.        ",
"        C C C C I I I I I I K I I I I I I I I I           @ @ & / ( P H G A c m Z n s t 5 d H I J I I I F F I I C C C C         ",
"        C C C C I I J I I I I I I I I I I I I I                 / / I I I I J F v n M 9 7 a K P I I K L D x I I C C C C         ",
"        C C C C I I A H P I I I I I I I I I I I               @ )  .F H F J J K J B j p k S I I I I I I L F I I C C C C         ",
"        C C C C I P J G L I I I I I I I I I I I               ; | ..u l F K I I I I I J G K I I I I I I I I F b g f C C         ",
"A.A.A.A.        C C C C C C C C I I I H K I I I I I I I I I I I ^ ~ S K I I I I I I I I I I I I C C C C C C V N         A.A.A.A.",
"A.A.A.A.        C C C C C C C C I I P H D G L I I I I I I I I I I ^ J I I I I I I I I I I I I I C C C C C C C C         A.A.A.A.",
"A.A.A.A.        C C C C C C C C I I I I I J D F K I I I I I I I I I K I I I I I I I I I I I I I C C C C C C C C         A.A.A.A.",
"A.A.A.A.        C C C C C C C C I I I I I I P J F J L I I I I I I P J P I I I I I I I I I I I I C C C C C C C C         A.A.A.A.",
"A.A.A.A.A.A.A.A.                C C C C I I I I I P I I I I I I I I I I I I I I I I I I C C C C                 A.A.A.A.A.A.A.A.",
"A.A.A.A.A.A.A.A.                C C C C I I I I I I I I I I I I I I I I I I I I I I I I C C C C                 A.A.A.A.A.A.A.A.",
"A.A.A.A.A.A.A.A.                C C C C I I I I I I I I I I I I I I I I I I I I I I I I C C C C                 A.A.A.A.A.A.A.A.",
"A.A.A.A.A.A.A.A.                C C C C I I I I I J J P I I I I I I I I I I I I I I I I C C C C                 A.A.A.A.A.A.A.A.",
"A.A.A.A.A.A.A.A.A.A.A.A.A.A.A.A.                                                                A.A.A.A.A.A.A.A.A.A.A.A.A.A.A.A.",
"A.A.A.A.A.A.A.A.A.A.A.A.A.A.A.A.                                                                A.A.A.A.A.A.A.A.A.A.A.A.A.A.A.A.",
"A.A.A.A.A.A.A.A.A.A.A.A.A.A.A.A.                                                                A.A.A.A.A.A.A.A.A.A.A.A.A.A.A.A.",
"A.A.A.A.A.A.A.A.A.A.A.A.A.A.A.A.                                                                A.A.A.A.A.A.A.A.A.A.A.A.A.A.A.A.",
"A.A.A.A.A.A.A.A.A.A.A.A.A.A.A.A.A.A.A.A.A.A.A.A.A.A.A.A.A.A.A.A.A.A.A.A.A.A.A.A.A.A.A.A.A.A.A.A.A.A.A.A.A.A.A.A.A.A.A.A.A.A.A.A.",
"A.A.A.A.A.A.A.A.A.A.A.A.A.A.A.A.A.A.A.A.A.A.A.A.A.A.A.A.A.A.A.A.A.A.A.A.A.A.A.A.A.A.A.A.A.A.A.A.A.A.A.A.A.A.A.A.A.A.A.A.A.A.A.A.",
"A.A.A.A.A.A.A.A.A.A.A.A.A.A.A.A.A.A.A.A.A.A.A.A.A.A.A.A.A.A.A.A.A.A.A.A.A.A.A.A.A.A.A.A.A.A.A.A.A.A.A.A.A.A.A.A.A.A.A.A.A.A.A.A.",
"A.A.A.A.A.A.A.A.A.A.A.A.A.A.A.A.A.A.A.A.A.A.A.A.A.A.A.A.A.A.A.A.A.A.A.A.A.A.A.A.A.A.A.A.A.A.A.A.A.A.A.A.A.A.A.A.A.A.A.A.A.A.A.A."
};
