/* XPM */
static char *result[] = {
/* columns rows colors chars-per-pixel */
"64 64 139 2 ",
"   c black",
".  c #010101",
"X  c #020202",
"o  c #020203",
"O  c gray1",
"+  c #030304",
"@  c #040405",
"#  c #050507",
"$  c #060607",
"%  c #060608",
"&  c #060809",
"*  c #080C0A",
"=  c #080F0A",
"-  c #0C0B0C",
";  c #0E0D0F",
":  c #0C180F",
">  c #110F11",
",  c #141315",
"<  c #142E18",
"1  c #1B3E20",
"2  c #252226",
"3  c #282529",
"4  c #302E32",
"5  c #353337",
"6  c #3D3A3F",
"7  c #244729",
"8  c #295C30",
"9  c #315F37",
"0  c #316B39",
"q  c #336F3A",
"w  c #3C6F3B",
"e  c #33703B",
"r  c #34703B",
"t  c #35703B",
"y  c #34713B",
"u  c #37703B",
"i  c #34723C",
"p  c #35733D",
"a  c #36743E",
"s  c #36753E",
"d  c #36763E",
"f  c #37763F",
"g  c #37773F",
"h  c #38773F",
"j  c #39773F",
"k  c #3A763F",
"l  c #3B763F",
"z  c #3C763F",
"x  c #3D763F",
"c  c #3E763F",
"v  c #7F5F39",
"b  c #5D6E3D",
"n  c #40753F",
"m  c #43753E",
"M  c #45743E",
"N  c #53713D",
"B  c #57703D",
"V  c #73653B",
"C  c #387640",
"Z  c #397640",
"A  c #387740",
"S  c #3B7442",
"D  c #3C7945",
"F  c #41494E",
"G  c #4D494F",
"H  c #4E4B50",
"J  c #58535A",
"K  c #417848",
"L  c #407A4A",
"P  c #49784F",
"I  c #4A784F",
"U  c #477D53",
"Y  c #5B666C",
"T  c #676269",
"R  c #68636B",
"E  c #6A656C",
"W  c #6E6970",
"Q  c #77727A",
"!  c #79747C",
"~  c #787D7C",
"^  c #797D7D",
"/  c #972B2B",
"(  c #A73030",
")  c #A93131",
"_  c #AB3232",
"`  c #AC3232",
"'  c #AB3432",
"]  c #A53C33",
"[  c #9C4735",
"{  c #935037",
"}  c #DF7126",
"|  c #9B704A",
" . c #99744B",
".. c #3E8948",
"X. c #3F8948",
"o. c #4A8647",
"O. c #508446",
"+. c #488951",
"@. c #4F805C",
"#. c #578466",
"$. c #678C7A",
"%. c #57A361",
"&. c #5EB069",
"*. c #6FAD68",
"=. c #6DAE68",
"-. c #6EAE68",
";. c #7BA161",
":. c #73A966",
">. c #62B66D",
",. c #62B76D",
"<. c #64B56C",
"1. c #69B26A",
"2. c #8D8B56",
"3. c #807B83",
"4. c #817B84",
"5. c #827E85",
"6. c #837D86",
"7. c #837E86",
"8. c #847E87",
"9. c #6C8F80",
"0. c #76958C",
"q. c #79978F",
"w. c #7B9892",
"e. c #86969E",
"r. c #819B98",
"t. c #819C99",
"y. c #869F9E",
"u. c #879F9F",
"i. c #8E9EA7",
"p. c #8CA3A6",
"a. c #8FA5A9",
"s. c #93A7AD",
"d. c #97AAB2",
"f. c #99ABB4",
"g. c #99ACB5",
"h. c #9AACB6",
"j. c #9BADB7",
"k. c white",
"l. c None",
/* pixels */
"l.l.l.l.l.l.l.l.l.l.l.l.l.l.l.l.l.l.l.l.l.l.l.l.l.l.l.l.l.l.l.l.l.l.l.l.l.l.l.l.l.l.l.l.l.l.l.l.l.l.l.l.l.l.l.l.l.l.l.l.l.l.l.l.",
"l.l.l.l.l.l.l.l.l.l.l.l.l.l.l.l.l.l.l.l.l.l.l.l.l.l.l.l.l.l.l.l.l.l.l.l.l.l.l.l.l.l.l.l.l.l.l.l.l.l.l.l.l.l.l.l.l.l.l.l.l.l.l.l.",
"l.l.l.l.l.l.l.l.l.l.l.l.l.l.l.l.l.l.l.l.l.l.l.l.l.l.% % % % l.l.l.l.l.l.l.l.l.l.l.l.l.l.l.l.l.l.l.l.l.l.l.l.l.l.l.l.l.l.l.l.l.l.",
"l.l.l.l.l.l.l.l.l.l.l.l.l.l.l.l.l.l.l.l.l.l.l.l.l.l.% % % % l.l.l.l.l.l.l.l.l.l.l.l.l.l.l.l.l.l.l.l.l.l.l.l.l.l.l.l.l.l.l.l.l.l.",
"l.l.l.l.l.l.l.l.l.l.l.l.l.l.l.l.l.l.l.l.l.l.l.l.l.l.% % % % l.l.l.l.l.l.l.l.l.l.l.l.l.l.l.l.l.l.l.l.l.l.l.l.l.l.l.l.l.l.l.l.l.l.",
"l.l.l.l.l.l.l.l.l.l.l.l.l.l.l.l.l.l.l.l.l.l.l.l.l.l.% % % % l.l.l.l.l.l.l.l.l.l.l.l.l.l.l.l.l.l.l.l.l.l.l.l.l.l.l.l.l.l.l.l.l.l.",
"l.l.l.l.l.l.l.l.l.l.l.l.l.l.l.l.l.l.% % % % % % % % ` ` ` ` % % % % l.l.l.l.l.l.l.l.l.l.l.l.l.l.l.l.l.l.l.l.l.l.l.l.l.l.l.l.l.l.",
"l.l.l.l.l.l.l.l.l.l.l.l.l.l.l.l.l.l.% % % % % % % % ` ` ` ` % % % % l.l.l.l.l.l.l.l.l.l.l.l.l.l.l.l.l.l.l.l.l.l.l.l.l.l.l.l.l.l.",
"l.l.l.l.l.l.l.l.l.l.l.l.l.l.l.l.l.l.% % % % % % % % ` ` ` ` % % % % l.l.l.l.l.l.l.l.l.l.l.l.l.l.l.l.l.l.l.l.l.l.l.l.l.l.l.l.l.l.",
"l.l.l.l.l.l.l.l.l.l.l.l.l.l.l.l.l.l.% % % % % % % % ` ` ` ` % % % % l.l.l.l.l.l.l.l.l.l.l.l.l.l.l.l.l.l.l.l.l.l.l.l.l.l.l.l.l.l.",
"l.l.l.l.l.l.l.l.l.l.l.l.l.l.l.l.l.l.% % % % ` ` ` ` 8.8.8.8.% % % % % % % % % % % % % % % % l.l.l.l.l.l.l.l.l.l.l.l.l.l.l.l.l.l.",
"l.l.l.l.l.l.l.l.l.l.l.l.l.l.l.l.l.l.% % % % ` ` ` ` 8.8.8.8.% % % % % % % % % % % % % % % % l.l.l.l.l.l.l.l.l.l.l.l.l.l.l.l.l.l.",
"l.l.l.l.l.l.l.l.l.l.l.l.l.l.l.l.l.l.% % % % ` ` ` ` 8.8.8.8.% % % % % % % % % % % % % % % % l.l.l.l.l.l.l.l.l.l.l.l.l.l.l.l.l.l.",
"l.l.l.l.l.l.l.l.l.l.l.l.l.l.l.l.l.l.% % % % ` ` ` ` 8.8.8.8.% % % % % % % % % % % % % % % % l.l.l.l.l.l.l.l.l.l.l.l.l.l.l.l.l.l.",
"l.l.l.l.l.l.l.l.l.l.l.l.l.l.l.l.l.l.% % % % 8.8.8.8.8.8.8.8.j.j.j.j.j.j.j.j.j.j.j.j.j.j.j.j.% % % % l.l.l.l.l.l.l.l.l.l.l.l.l.l.",
"l.l.l.l.l.l.l.l.l.l.l.l.l.l.l.l.l.l.% % % % 8.8.8.8.8.8.8.8.j.j.j.j.j.j.j.j.j.j.j.j.j.j.j.j.% % % % l.l.l.l.l.l.l.l.l.l.l.l.l.l.",
"l.l.l.l.l.l.l.l.l.l.l.l.l.l.l.l.l.l.% % % % 8.8.8.8.8.8.8.8.j.j.j.j.j.j.j.j.j.j.j.j.j.j.j.j.% % % %     l.l.l.l.l.l.l.l.l.l.l.l.",
"l.l.l.l.l.l.l.l.l.l.l.l.l.l.l.l.l.l.% % % % 8.8.8.8.8.8.8.8.j.j.j.j.j.j.j.j.j.j.j.j.j.j.j.j.% % % %     l.l.l.l.l.l.l.l.l.l.l.l.",
"l.l.l.l.l.l.l.l.l.l.l.l.l.l.% % % % 8.8.8.8.j.j.j.j.k.k.k.k.k.k.k.k.k.k.k.k.k.k.k.k.k.k.k.k.% % % %     l.l.l.l.l.l.l.l.l.l.l.l.",
"l.l.l.l.l.l.l.l.l.l.l.l.l.l.% % % % 8.8.8.8.j.j.j.j.k.k.k.k.k.k.k.k.k.k.k.k.k.k.k.k.k.k.k.k.% % % %     l.l.l.l.l.l.l.l.l.l.l.l.",
"l.l.l.l.l.l.l.l.l.l.l.l.    % % % % 8.8.8.8.j.j.j.j.k.k.k.k.k.k.k.k.k.k.k.k.k.k.k.k.k.k.k.k.% % % % e e         l.l.l.l.l.l.l.l.",
"l.l.l.l.l.l.l.l.l.l.l.l.    % % % % 8.8.8.8.j.j.j.j.k.k.k.k.k.k.k.k.k.k.k.k.k.k.k.k.k.k.k.k.% % % % e e         l.l.l.l.l.l.l.l.",
"l.l.l.l.l.l.l.l.l.l.l.l.    % % % % j.j.j.j.j.j.j.j.k.k.k.k.% % % % % % % % % % % % % % % % % % % % e e         l.l.l.l.l.l.l.l.",
"l.l.l.l.l.l.l.l.l.l.l.l.    % % % % j.j.j.j.j.j.j.j.k.k.k.k.% % % % % % % % % % % % % % % % % % % % e e         l.l.l.l.l.l.l.l.",
"l.l.l.l.l.l.l.l.        e e % % % % j.j.j.j.j.j.j.j.k.k.k.k.% % % % % % % % % % % % % % % % % % % % ....e e e e         l.l.l.l.",
"l.l.l.l.l.l.l.l.        e e % % % % j.j.j.j.j.j.j.j.k.k.k.k.% % % % % % % % % % % % % % % % % % % % ....e e e e         l.l.l.l.",
"l.l.l.l.l.l.l.l.        e e % % % % j.j.j.j.j.j.j.j.k.k.k.k.k.k.k.k.k.k.k.k.% % % % k.k.k.k.% % % % ....e e e e         l.l.l.l.",
"l.l.l.l.l.l.l.l.        e e % % % % j.j.j.j.j.j.j.j.k.k.k.k.k.k.k.k.k.k.k.k.% % % % k.k.k.k.% % % % ....e e e e         l.l.l.l.",
"l.l.l.l.        e e e e ....% % % % j.j.j.j.j.j.j.j.k.k.k.k.k.k.k.k.k.k.k.k.% % % % k.k.k.k.% % % % ............e e e e         ",
"l.l.l.l.        e e e e ....% % % % j.j.j.j.j.j.j.j.k.k.k.k.k.k.k.k.k.k.k.k.% % % % k.k.k.k.% % % % ............e e e e         ",
"l.l.l.l.        e e e e ....% % % % 8.8.8.8.j.j.j.j.j.j.j.j.j.j.j.j.k.k.k.k.k.k.k.k.k.k.k.k.% % % % ............e e e e         ",
"l.l.l.l.        e e e e ....% % % % 8.8.8.8.j.j.j.j.j.j.j.j.j.j.j.j.k.k.k.k.k.k.k.k.k.k.k.k.% % % % ............e e e e         ",
"        e e e e ............% % % % 8.8.8.8.j.j.j.j.j.j.j.j.j.j.j.j.k.k.k.k.k.k.k.k.k.k.k.k.% % % % ....................        ",
"        e e e e ............% % % % 8.8.8.8.j.j.j.j.j.j.j.j.j.j.j.j.k.k.k.k.k.k.k.k.k.k.k.k.% % % % ....................        ",
"        e e e e ................,.,.% % % % 8.8.8.8.8.8.8.8.` ` ` ` ` ` ` ` } } } } ` ` ` ` % % % % ....................        ",
"        e e e e ................,.,.% % % % 8.8.8.8.8.8.8.8.` ` ` ` ` ` ` ` } } } } ` ` ` ` % % % % ....................        ",
"        ................,.,.,.,.,.,.* : = & 8.8.8.8.8.8.8.8.` ` ` ` ` ` ` ` } } } } ` ` ` ` % % % %     ................        ",
"        ................,.,.,.,.,.,.7 9 1 < 5.8.8.8.8.8.8.8.` ` ` ` ` ` ` ` } } } } ` ` ` ` % % % %     ................        ",
"        ............o.O.=.*.;.2. .| +.%.0 8 [ ' ` ` ` ` ` ` 8.8.8.8.8.8.8.8.8.8.8.8.8.8.8.8.% % % %     ................        ",
"        ..............X.,.,.<.1.-.:.&.>.g p v ] ` ` ` ` ` ` 8.8.8.8.8.8.8.8.8.8.8.8.8.8.8.8.% % % %     ................        ",
"        ........g g h j h g g g g g g g g g b { ( ` ` ` ` ` 8.8.8.8.8.8.8.8.8.8.8.8.8.8.8.8.% % % $     g g g g ........        ",
"        ........g g g h c k h g g g g g g g m V / ) _ ` ` ` 8.8.8.8.8.8.8.8.8.8.8.8.8.8.6.6.% # + o     g g g g ........        ",
"        ........g g g x M N j g g g g g g g h K G E ! 3.8.8.8.8.8.8.j.j.j.j.j.j.j.h.g.d.i.e.@ X         g g g g ........        ",
"        ........g g g h z m l g g g g g g g g h , 4 H T Q 3.8.8.8.8.j.j.j.j.j.h.d.a.y.q.Y F .           g g g g ........        ",
"        e e u e g g g g n B k g g g g g g g g g   O ; 2 6 R ! 4.7.7.h.h.f.f.d.s.t.$.@.U D A g g g g g g g g g g e e e e         ",
"        e e w t g g g g h n j g g g g g g g g g         - 5 J W ~ ^ p.u.r.w.0.9.#.L A A g g g g g g g g g g g g e e e e         ",
"        e e e e g g g g g g g g g g g g g g g g           O > 3 P I q r y i p a d g g g g g g g g g g g g g g g e e e e         ",
"        e e e e g g g g g g g g g g g g g g g g                 g g g g g g g g g g g g g g g g g g g g g g g g e e e e         ",
"l.l.l.l.        e e e e e e e e g g g g g g g g g g g g g g g g g g g g g g g g g g g g g g g g e e e e e e e e         l.l.l.l.",
"l.l.l.l.        e e e e e e e e g g g g g g g g g g g g g g g g g g g g g g g g g g g g g g g g e e e e e e e e         l.l.l.l.",
"l.l.l.l.        e e e e e e e e g g g g g g g g g g g g g g g h S S s g g g g g g g g g g g g g e e e e e e e e         l.l.l.l.",
"l.l.l.l.        e e e e e e e e g g g g g g g g g g g g g g g g C Z a g g g g g g g g g g g g g e e e e e e e e         l.l.l.l.",
"l.l.l.l.l.l.l.l.                e e e e g g g g g g g g g g g g g g f g g g g g g g g g e e e e                 l.l.l.l.l.l.l.l.",
"l.l.l.l.l.l.l.l.                e e e e g g g g g g g g g g g g g g g g g g g g g g g g e e e e                 l.l.l.l.l.l.l.l.",
"l.l.l.l.l.l.l.l.                e e e e g g g g g g g g g g g g g g g g g g g g g g g g e e e e                 l.l.l.l.l.l.l.l.",
"l.l.l.l.l.l.l.l.                e e e e g g g g g g g g g g g g g g g g g g g g g g g g e e e e                 l.l.l.l.l.l.l.l.",
"l.l.l.l.l.l.l.l.l.l.l.l.l.l.l.l.                                                                l.l.l.l.l.l.l.l.l.l.l.l.l.l.l.l.",
"l.l.l.l.l.l.l.l.l.l.l.l.l.l.l.l.                                                                l.l.l.l.l.l.l.l.l.l.l.l.l.l.l.l.",
"l.l.l.l.l.l.l.l.l.l.l.l.l.l.l.l.                                                                l.l.l.l.l.l.l.l.l.l.l.l.l.l.l.l.",
"l.l.l.l.l.l.l.l.l.l.l.l.l.l.l.l.                                                                l.l.l.l.l.l.l.l.l.l.l.l.l.l.l.l.",
"l.l.l.l.l.l.l.l.l.l.l.l.l.l.l.l.l.l.l.l.l.l.l.l.l.l.l.l.l.l.l.l.l.l.l.l.l.l.l.l.l.l.l.l.l.l.l.l.l.l.l.l.l.l.l.l.l.l.l.l.l.l.l.l.",
"l.l.l.l.l.l.l.l.l.l.l.l.l.l.l.l.l.l.l.l.l.l.l.l.l.l.l.l.l.l.l.l.l.l.l.l.l.l.l.l.l.l.l.l.l.l.l.l.l.l.l.l.l.l.l.l.l.l.l.l.l.l.l.l.",
"l.l.l.l.l.l.l.l.l.l.l.l.l.l.l.l.l.l.l.l.l.l.l.l.l.l.l.l.l.l.l.l.l.l.l.l.l.l.l.l.l.l.l.l.l.l.l.l.l.l.l.l.l.l.l.l.l.l.l.l.l.l.l.l.",
"l.l.l.l.l.l.l.l.l.l.l.l.l.l.l.l.l.l.l.l.l.l.l.l.l.l.l.l.l.l.l.l.l.l.l.l.l.l.l.l.l.l.l.l.l.l.l.l.l.l.l.l.l.l.l.l.l.l.l.l.l.l.l.l."
};
