/* XPM */
static char *result[] = {
/* columns rows colors chars-per-pixel */
"64 64 176 2 ",
"   c #000000",
".  c #0C0101",
"X  c #020A03",
"o  c #070D09",
"O  c #0B0D0C",
"+  c #190202",
"@  c #130202",
"#  c #041305",
"$  c #0A140C",
"%  c #071A09",
"&  c #0B1A0E",
"*  c #110F11",
"=  c #0D1D10",
"-  c #121315",
";  c #181619",
":  c #181C1E",
">  c #280606",
",  c #300707",
"<  c #330909",
"1  c #390A0A",
"2  c #0B230E",
"3  c #0E2212",
"4  c #0E2912",
"5  c #102614",
"6  c #122B16",
"7  c #142E18",
"8  c #18261E",
"9  c #16341A",
"0  c #17391B",
"q  c #193B1E",
"w  c #18371C",
"e  c #211F22",
"r  c #1E2225",
"t  c #1B3E20",
"y  c #222629",
"u  c #272D30",
"i  c #302E32",
"p  c #3C3A3D",
"a  c #1B411F",
"s  c #1D4422",
"d  c #1F4924",
"f  c #204725",
"g  c #214A26",
"h  c #27402F",
"j  c #234E28",
"k  c #25542B",
"l  c #27582D",
"z  c #285A2F",
"x  c #2A5E31",
"c  c #2D6334",
"v  c #2F6837",
"b  c #306937",
"n  c #326C39",
"m  c #316638",
"M  c #36763E",
"N  c #3A773F",
"B  c #7F5F3A",
"V  c #755E38",
"C  c #436D3B",
"Z  c #5C6F3D",
"A  c #43753F",
"S  c #4C733E",
"D  c #53713D",
"F  c #5B753D",
"G  c #6E653A",
"H  c #666B3C",
"J  c #68673A",
"K  c #72653B",
"L  c #78623A",
"P  c #67763C",
"I  c #7F763A",
"U  c #377740",
"Y  c #3A7742",
"T  c #3A7C42",
"R  c #40484D",
"E  c #41544D",
"W  c #434C51",
"Q  c #595B59",
"!  c #407747",
"~  c #437A4B",
"^  c #49794E",
"/  c #506C5F",
"(  c #467D51",
")  c #4B7A53",
"_  c #4C7F59",
"`  c #517A56",
"'  c #55795A",
"]  c #59795E",
"[  c #5C686E",
"{  c #5F7A63",
"}  c #6C6C6C",
"|  c #627A67",
" . c #6A7B6E",
".. c #657A69",
"X. c #667E78",
"o. c #8F5337",
"O. c #835C39",
"+. c #895838",
"@. c #875738",
"#. c #915237",
"$. c #8A7539",
"%. c #837539",
"&. c #917538",
"*. c #3B8345",
"=. c #3D8847",
"-. c #3F8148",
";. c #3E8948",
":. c #458A4D",
">. c #43864C",
",. c #4E8058",
"<. c #538358",
"1. c #518859",
"2. c #4D9656",
"3. c #55A25F",
"4. c #558364",
"5. c #588467",
"6. c #5D8861",
"7. c #5B866B",
"8. c #5B8D6A",
"9. c #5F8870",
"0. c #638A74",
"q. c #668C78",
"w. c #6A8E7D",
"e. c #67867A",
"r. c #6F9272",
"t. c #729475",
"y. c #769679",
"u. c #7C997E",
"i. c #5BAD66",
"p. c #5FB36A",
"a. c #60B46B",
"s. c #6D8F81",
"d. c #6F9183",
"f. c #729286",
"g. c #76948B",
"h. c #7C9988",
"j. c #7A9790",
"k. c #7E9A94",
"l. c #829E84",
"z. c #8F908F",
"x. c #829C99",
"c. c #809B97",
"v. c #9F9F9F",
"b. c #85A087",
"n. c #87A189",
"m. c #8AA38C",
"M. c #8EA690",
"N. c #93A995",
"B. c #98AD9A",
"V. c #9DB19E",
"C. c #9EB2A0",
"Z. c #A3A6A3",
"A. c #A4B6A5",
"S. c #A7B8A9",
"D. c #ABBBAC",
"F. c #AFBEB0",
"G. c #B7BEB8",
"H. c #B7C5B8",
"J. c #B9C6BA",
"K. c #BECABF",
"L. c #C2CDC3",
"P. c #CCCDCC",
"I. c #CAD3CB",
"U. c #C7D1C7",
"Y. c #CFD8D0",
"T. c #D4DBD5",
"R. c #D7DED8",
"E. c #D9DFD9",
"W. c #DDE3DE",
"Q. c #E4E4E4",
"!. c #E4E9E5",
"~. c #EAEDEB",
"^. c #EDF0ED",
"/. c #F4F6F4",
"(. c #FDFDFD",
"). c None",
/* pixels */
").).).).).).).).).).).).).).).).).).).).).).).).).).).).).).).).).).).).).).).).).).).).).).).).).).).).).).).).).).).).).).).).",
").).).).).).).).).).).).).).).).).).).).).).).).).).).).).).).).).).).).).).).).).).).).).).).).).).).).).).).).).).).).).).).).",
").).).).).).).).).).).).).).).).).).).).).).).).).).).).).).).).).).).).).).).).).).).).).).).).).).).).).).).).).).).).).).).).",
").).).).).).).).).).).).).).).).).M M M ).).).).).).).).).).).).).).).M M N U M M ).).).).).).).).).).).).).).).).).).).).).).).",
").).).).).).).).).).).).).).).U M M M M M M M M T M M M M M M *.T M M M M M M M M N ).).).).).).).).).).).).).).).).).).).).).).",
").).).).).).).).).).).).).).M N M M T M N M M M M M *.M M M N M M M M T T M T M M M ).).).M M M T ).).).M M M ).).).).).).).).).",
").).).).).).).).M M M M M N M U M M M M M T *.M M T M M M M T M M M M M T M M M T M ).).).T M M M M M M T M M T M ).).).).).).).",
").).).).).).M M M T T M U M U M M M *.M M M M M N M M M M M M M M M M M M N M M M M ).).).M T M M M T M M M N M T M ).).).).).).",
").).).).).M *.M M M M M M M M M *.M M M M M M M M M M M M M M T T M M M M T M M M M M ).M M M M M M *.M M T M M M M ).).).).).).",
").).).).M M M M N M M M T M T M M M M M M N M M M M T M T M M M M M M T M M M M M *.M M M M M M M M M M M M M M M M ).).).).).).",
").).).).M M M M M M M T T M M M M M M M M M M T M T M M M M N M M M M M M M M M M M M N M *.M T M M M M M M T M N M ).).).).).).",
").).).).T M M T T M M M M M M M M T M M T M M M M M T M M M M M M T M M T M M M M M T M M M M M M M M T M N M M M T ).).).).).).",
").).).).T M M M M M M M M N M T M M M M M M T M M M T M M U M M M N M T M M M T M T T M M M M M T M M M M M T M M T ).).).).).).",
").).).M M N M M M M T M M M M M M T M T M M M M M N M M M U T M T M ).M M M M M M M M M M M M M M M M T M M M M M M ).).).).).).",
").).M T M M M M M T M M M M M M M M M M M *.M M M M M M U M M M M ).).).).N M M M M T M T M M T M T M M T M M M M M ).).).).).).",
").).M M M M T M M M T M M M T M N M M M M M M T M M M T M M U M M ).).).).).T M M M M M M M N M M M N M M M M T M N M ).).).).).",
").M M M M M M M M M M T M M M M M M T M v x v v v n M M n n v c l d d d k l z c c c x z l l l l c c v n M M M M T T T ).).).).).",
").M M M T M T M T M M M M M T M T M M M v x x x c c v n n n c c z k k k l c c v c c c x z z l z x v v v M M M M M M T ).).).).).",
"T M M T M T M M M M M T M ).).T M M T M x x j j k z x v v c c x l l k l c c v v n c c c x z l l x v v v T M M M M M M M ).).).).",
").M N M M M M M M M T ).).).).).M M M M k a a a t d k z x c c l l j k l c v v v n v c c x z l k l x x v M M M M M M M M ).).).).",
").M T M M T M M M T M M k j j k z x x z M n M n -.=.t d k l T *.*.*.*.*.T T T T T T *.T T T *.*.M M M M v v n n M M M T M ).).).",
").).M M M M M M M M M M c l l l z x z k n M n M =.=.9 t d j *.*.*.*.T *.T T *.T T T T T *.*.T *.M M n M c x v n T M M M M ).).).",
").).M M N M M T M M M M v c x x x x z j n M M n =.=.w t s f *.*.*.=.*.*.*.*.T *.*.*.*.*.*.M M *.n M M M x x v n M M M N T ).).).",
").).).T M M M M M M M M n n v c z c x z k j d d f f #.#.#.#.g g d d *.T T *.*.*.T T T T T T T T M M M n z x v n M M M M M ).).).",
").).).).).M M M n v M M M M M M M M x c x x x z z z O.O.+.o.g g j l *.T *.*.*.T *.T T T T T M *.M T M *.n M M M M v v c M ).).).",
").).).).).).T M v M n n M M M M M M c v v v v v b v G L O.+.g j j l T *.T T *.T T T T T T M T T *.M *.T M M M M c c x l ).).).).",
").).).).).).M M v n M M M M M M M M v n n n n n M n F H L O.j j k l *.*.T *.M T T U U U M *.T M M T T T M M M n l k g a ).).).).",
").).).).).).).M c v n v M M M M M M v n n M D S S D ^ ^ ' | l k l l l z c c v v n n M U n n T M *.M U T M M M M g a 0 4 ).).).).",
").).).).d d d k M M M M M M M T T T v n n n S S S S ! ^ ' ] x x z l x x z z v n n U n n M n T M M M *.T T T *.*.M n M n # X     ",
").).).).d s s d n M M M M T T T T T v v n M S S S S ^ ^ ) ' c x x c x c c c c n U n U U M n T T *.T M *.T *.*.*.n M n n X       ",
").).).).s s a a M M n n *.M T T T T n n n n S S S D ~ ^ ` ' x x c v c c c v c n U U Y Y M n M *.T T *.*.*.*.*.=.M n n M         ",
").).).).a a 0 9 n M M M *.T T T T M v n n n ~ ~ ! ^ ^ ) ' ' e.q.9.7.9.9.9.q.8.1._ ( Y T T >.n c c c *.M *.*.*.=.n n n M         ",
"4 6 9 0 n M n M ;.*.*.*.*.T T *.:.>.n b n b ^ ^ ^ ^ ) ` ] ] e.0.7.7.5.7.9.0.0.5.,.( T Y ( _ n m c c T *.*.*.=.=.;.;.;.;.        ",
"% % 2 4 M n M n ;.;.;.;.*.*.*.T :.:.b b b b ) ) ) ` ` ' ] ] 0.7.5.4.5.5.7.0.9.7.,.,._ _ _ _ n v c x T *.*.=.=.;.;.;.;.;.        ",
"  X # # n n n M ;.=.;.*.*.*.T T :.:.b m c c ' ' ' ' ] ] ] ' 7.5.4.4.4.5.7.7.9.9.7.5.4.5.4.5.n v x z *.=.=.=.;.;.;.;.;.;.        ",
"        n M n M ;.;.;.;.*.*.k x v n ` ' | ..f.d.w.e.S.A.V.N.l.y.t.y.y.h.n.m.M.N.B.V.A.A.S.A.x c x k *.=.=.;.;.;.;.;.;.;.        ",
"        ;.;.;.;.;.;.;.;.p.i.k c b b ' ] |  .k.k.j.g.J.F.A.N.l.y.r.t.u.h.b.b.m.N.A.F.K.U.L.P.l l k d 0 4 =.=.;.;.;.;.;.;.        ",
"        ;.;.;.;.;.;.;.;.p.i.m n M b ' ] |  .c.x.x.k.L.K.D.A.M.u.t.u.u.b.n.b.m.N.S.H.P.T.W.E.f f t t 4 % ;.;.;.;.;.;.;.;.        ",
"        ;.;.;.;.;.;.;.;.a.i.:.;.>.*.,.' { ..j.c.x.c.I.L.L.H.A.N.m.m.M.N.N.M.N.V.D.J.I.E.!.~.9 7 7 5 & X ;.;.;.;.;.;.;.;.        ",
"        ;.;.;.;.;.;.;.;.a.i.3.3.2.:.1.8.0.w.f.g.g.g.I.Y.T.Y.k z x x x c x c c c x l j f q 7 = = & $ X   ;.;.;.;.;.;.;.;.        ",
"        ;.;.;.;.T M M M T M M M M M T _ 7.0.w.s.f.g.I.R.!.~.t s j j j j k k l l l k j f w 5 = O O X     M M M M ;.;.;.;.        ",
"        ;.;.;.;.M M M M M M T M M M U ~ 4.0.e.q.s.g.Y.W.~./.= 6 9 w 0 q q s f g g j f f 9 5 $ X   X     M M T M ;.;.;.;.        ",
"        ;.;.;.;.M M M M M T M M N M N Y ,.5.7.9.0.f.T.!./.(.o $ & = 5 5 5 6 w t f f t q 7 = $           M T M M ;.;.;.;.        ",
"        ;.;.;.;.M M T M N M M M M M M T T ( ( ,.[ X.P.~./.(.(.(.(.(.(.(.(.(.5 7 9 w ~.^.~.I.            M M T M ;.;.;.;.        ",
"        M M n n M M M M M M M M M U N U Y U Y Y h E Z.I.~.(.(.(.(.(.(.(.(.(.7 9 w q W.R.J.N.M M Y M U M M T M M n n M n         ",
"        n n n M M M T M M M M M M M M U T U U U 3 8 Q z.G.Q.(.(.(.(.(./.~.W.j k z z D.N.t.<.M M Y U N U M U M M M M n n         ",
"        n n M n M T M M M M v M U N U M M U U U X   ; p } v.P.Q././.~.W.K.S.n n n M <.<.~ N M M N M M M M M M M n n n M         ",
"        M n M n N M M T M U M M M M M M U U U U         - u W [ g.k.K.S.h.<.^ >.~ ! ! T N N M N M U M U U M M M M n n M         ",
").).).).        M n n M n M n M U M T M M M M T M M M T U U Y ~ ,.4.b.t.<.T U N N M N U M U U U M n M n n M n M         ).).).).",
").).).).        M n n n n n n n M M M M M T M M M M M M M M U U U ~ <.,.~ M N N M U M U U U U Y n c n n n M n n         ).).).).",
").).).).        n n M M n M M n M M M M M M T M M M M M M U M M U U Y ~ >.! T T T ~ ~ Y Y ^ U n c z M n M n n n         ).).).).",
").).).).        n M n n n n M n M M M M M M M M M M T M N N M Y N T A A D S F F F P D D Z F m n v c M n n n M M         ).).).).",
").).).).).).).).                M n M M U M N M M T N M N M M M N A D H K K $.%.%.&.L O.B V c U                 ).).).).).).).).",
").).).).).).).).                n n v n M M U U M M N M Y Y N A S F K O.#.+.$.F F %.O.#.o.J n n                 ).).).).).).).).",
").).).).).).).).                n M M n M M N M M T U ^ ` _ Z F Z Z H L +.O.P A N ^ D G V C n n                 ).).).).).).).).",
").).).).).).).).    > < 1 , > @ n M n M M M M M N M T D K G ^ ! ! Y Y ! ^ ^ ! N N U Y T Y n M M                 ).).).).).).).).",
").).).).).).).).).).).).).).).).+ +                   . < < *   X       . o             O       ).).).).).).).).).).).).).).).).",
").).).).).).).).).).).).).).).).                          @ * - ; ; O                     O     ).).).).).).).).).).).).).).).).",
").).).).).).).).).).).).).).).).            .                 - i p e                     O     ).).).).).).).).).).).).).).).).",
").).).).).).).).).).).).).).).).              * X               ; p W y : y r -   X       -     ).).).).).).).).).).).).).).).).",
").).).).).).).).).).).).).).).).).).).).).).).).).).).).).).).).).).).).).).).).).).).).).).).).).).).).).).).).).).).).).).).).",
").).).).).).).).).).).).).).).).).).).).).).).).).).).).).).).).).).).).).).).).).).).).).).).).).).).).).).).).).).).).).).).).",
").).).).).).).).).).).).).).).).).).).).).).).).).).).).).).).).).).).).).).).).).).).).).).).).).).).).).).).).).).).).).).).).",
").).).).).).).).).).).).).).).).).).).).).).).).).).).).).).).).).).).).).).).).).).).).).).).).).).).).).).).).).).).).).).).)."
};
