/* XPM */
static char *result[] = {
/* columns rows colors chars-per-pixel */
"64 64 145 2 ",
"   c black",
".  c #010102",
"X  c gray1",
"o  c #040405",
"O  c #060506",
"+  c #060607",
"@  c #060608",
"#  c #070D0A",
"$  c #09110C",
"%  c #0D1E11",
"&  c #131113",
"*  c #141315",
"=  c #181619",
"-  c #0E2011",
";  c #0E2112",
":  c #0F2313",
">  c #0F2413",
",  c #102013",
"<  c #112815",
"1  c #132C17",
"2  c #17341B",
"3  c #1B3D20",
"4  c #1B3E20",
"5  c #282529",
"6  c #312E32",
"7  c #1C4021",
"8  c #224427",
"9  c #224C28",
"0  c #244F29",
"q  c #25532B",
"w  c #26552C",
"e  c #27562D",
"r  c #27572D",
"t  c #2A5D31",
"y  c #2C6032",
"u  c #2C6133",
"i  c #2D6234",
"p  c #2D6334",
"a  c #2D6434",
"s  c #2E6535",
"d  c #2E6635",
"f  c #2F6636",
"g  c #2F6837",
"h  c #306937",
"j  c #306A38",
"k  c #316A38",
"l  c #316B38",
"z  c #316C39",
"x  c #316D39",
"c  c #326C39",
"v  c #326D3A",
"b  c #326E3A",
"n  c #336E3A",
"m  c #326F3A",
"M  c #336F3A",
"N  c #336F3B",
"B  c #3A6F3B",
"V  c #33703B",
"C  c #34703B",
"Z  c #34713B",
"A  c #34723C",
"S  c #35733C",
"D  c #35733D",
"F  c #35743D",
"G  c #36743D",
"H  c #36753E",
"J  c #36763E",
"K  c #37763E",
"L  c #37763F",
"P  c #37773F",
"I  c #38773F",
"U  c #39773F",
"Y  c #3A763F",
"T  c #3B763F",
"R  c #3C763F",
"E  c #3D763F",
"W  c #3E763F",
"Q  c #4C6C3A",
"!  c #586F3D",
"~  c #43753E",
"^  c #45743E",
"/  c #46743E",
"(  c #4C733E",
")  c #54713D",
"_  c #6D6138",
"`  c #403C41",
"'  c #3A7541",
"]  c #387640",
"[  c #387740",
"{  c #397740",
"}  c #3A7742",
"|  c #3D7745",
" . c #48454A",
".. c #4D494E",
"X. c #534F55",
"o. c #545056",
"O. c #5C575E",
"+. c #426E47",
"@. c #407847",
"#. c #4C6250",
"$. c #4A7850",
"%. c #635E65",
"&. c #637A67",
"*. c #657A69",
"=. c #667A6A",
"-. c #6D6870",
";. c #717C75",
":. c #79737B",
">. c #79747C",
",. c #7C767E",
"<. c #AB3232",
"1. c #AC3232",
"2. c #A93633",
"3. c #A53E33",
"4. c #8F5035",
"5. c #A94137",
"6. c #DF7126",
"7. c #A25F42",
"8. c #967A4E",
"9. c #3E8948",
"0. c #3F8948",
"q. c #4A8647",
"w. c #4D8547",
"e. c #508446",
"r. c #5B866B",
"t. c #6FAD68",
"y. c #6DAE68",
"u. c #6EAE68",
"i. c #7CA061",
"p. c #62B76D",
"a. c #65B56C",
"s. c #908553",
"d. c #82995D",
"f. c #807A83",
"g. c #817B84",
"h. c #827C85",
"j. c #837E86",
"k. c #847E87",
"l. c #7C9993",
"z. c #96AAB1",
"x. c #9AACB5",
"c. c #9AACB6",
"v. c #9BADB7",
"b. c white",
"n. c None",
/* pixels */
"n.n.n.n.n.n.n.n.n.n.n.n.n.n.n.n.n.n.n.n.n.n.n.n.n.n.n.n.n.n.n.n.n.n.n.n.n.n.n.n.n.n.n.n.n.n.n.n.n.n.n.n.n.n.n.n.n.n.n.n.n.n.n.n.",
"n.n.n.n.n.n.n.n.n.n.n.n.n.n.n.n.n.n.n.n.n.n.n.n.n.n.n.n.n.n.n.n.n.n.n.n.n.n.n.n.n.n.n.n.n.n.n.n.n.n.n.n.n.n.n.n.n.n.n.n.n.n.n.n.",
"n.n.n.n.n.n.n.n.n.n.n.n.n.n.n.n.n.n.n.n.n.n.n.n.n.n.@ @ @ @ n.n.n.n.n.n.n.n.n.n.n.n.n.n.n.n.n.n.n.n.n.n.n.n.n.n.n.n.n.n.n.n.n.n.",
"n.n.n.n.n.n.n.n.n.n.n.n.n.n.n.n.n.n.n.n.n.n.n.n.n.n.@ @ @ @ n.n.n.n.n.n.n.n.n.n.n.n.n.n.n.n.n.n.n.n.n.n.n.n.n.n.n.n.n.n.n.n.n.n.",
"n.n.n.n.n.n.n.n.n.n.n.n.n.n.n.n.n.n.n.n.n.n.n.n.n.n.@ @ @ @ n.n.n.n.n.n.n.n.n.n.n.n.n.n.n.n.n.n.n.n.n.n.n.n.n.n.n.n.n.n.n.n.n.n.",
"n.n.n.n.n.n.n.n.n.n.n.n.n.n.n.n.n.n.n.n.n.n.n.n.n.n.@ @ @ @ n.n.n.n.n.n.n.n.n.n.n.n.n.n.n.n.n.n.n.n.n.n.n.n.n.n.n.n.n.n.n.n.n.n.",
"n.n.n.n.n.n.n.n.n.n.n.n.n.n.n.n.n.n.@ @ @ @ @ @ @ @ 1.1.1.1.@ @ @ @ n.n.n.n.n.n.n.n.n.n.n.n.n.n.n.n.n.n.n.n.n.n.n.n.n.n.n.n.n.n.",
"n.n.n.n.n.n.n.n.n.n.n.n.n.n.n.n.n.n.@ @ @ @ @ @ @ @ 1.1.1.1.@ @ @ @ n.n.n.n.n.n.n.n.n.n.n.n.n.n.n.n.n.n.n.n.n.n.n.n.n.n.n.n.n.n.",
"n.n.n.n.n.n.n.n.n.n.n.n.n.n.n.n.n.n.@ @ @ @ @ @ @ @ 1.1.1.1.@ @ @ @ n.n.n.n.n.n.n.n.n.n.n.n.n.n.n.n.n.n.n.n.n.n.n.n.n.n.n.n.n.n.",
"n.n.n.n.n.n.n.n.n.n.n.n.n.n.n.n.n.n.@ @ @ @ @ @ @ @ 1.1.1.1.@ @ @ @ n.n.n.n.n.n.n.n.n.n.n.n.n.n.n.n.n.n.n.n.n.n.n.n.n.n.n.n.n.n.",
"n.n.n.n.n.n.n.n.n.n.n.n.n.n.n.n.n.n.@ @ @ @ 1.1.1.1.k.k.k.k.@ @ @ @ @ @ @ @ @ @ @ @ @ @ @ @ n.n.n.n.n.n.n.n.n.n.n.n.n.n.n.n.n.n.",
"n.n.n.n.n.n.n.n.n.n.n.n.n.n.n.n.n.n.@ @ @ @ 1.1.1.1.k.k.k.k.@ @ @ @ @ @ @ @ @ @ @ @ @ @ @ @ n.n.n.n.n.n.n.n.n.n.n.n.n.n.n.n.n.n.",
"n.n.n.n.n.n.n.n.n.n.n.n.n.n.n.n.n.n.@ @ @ @ 1.1.1.1.k.k.k.k.@ @ @ @ @ @ @ @ @ @ @ @ @ @ @ @ n.n.n.n.n.n.n.n.n.n.n.n.n.n.n.n.n.n.",
"n.n.n.n.n.n.n.n.n.n.n.n.n.n.n.n.n.n.@ @ @ @ 1.1.1.1.k.k.k.k.@ @ @ @ @ @ @ @ @ @ @ @ @ @ @ @ n.n.n.n.n.n.n.n.n.n.n.n.n.n.n.n.n.n.",
"n.n.n.n.n.n.n.n.n.n.n.n.n.n.n.n.n.n.@ @ @ @ k.k.k.k.k.k.k.k.v.v.v.v.v.v.v.v.v.v.v.v.v.v.v.v.@ @ @ @ n.n.n.n.n.n.n.n.n.n.n.n.n.n.",
"n.n.n.n.n.n.n.n.n.n.n.n.n.n.n.n.n.n.@ @ @ @ k.k.k.k.k.k.k.k.v.v.v.v.v.v.v.v.v.v.v.v.v.v.v.v.@ @ @ @ n.n.n.n.n.n.n.n.n.n.n.n.n.n.",
"n.n.n.n.n.n.n.n.n.n.n.n.n.n.n.n.n.n.@ @ @ @ k.k.k.k.k.k.k.k.v.v.v.v.v.v.v.v.v.v.v.v.v.v.v.v.@ @ @ @     n.n.n.n.n.n.n.n.n.n.n.n.",
"n.n.n.n.n.n.n.n.n.n.n.n.n.n.n.n.n.n.@ @ @ @ k.k.k.k.k.k.k.k.v.v.v.v.v.v.v.v.v.v.v.v.v.v.v.v.@ @ @ @     n.n.n.n.n.n.n.n.n.n.n.n.",
"n.n.n.n.n.n.n.n.n.n.n.n.n.n.@ @ @ @ k.k.k.k.v.v.v.v.b.b.b.b.b.b.b.b.b.b.b.b.b.b.b.b.b.b.b.b.@ @ @ @     n.n.n.n.n.n.n.n.n.n.n.n.",
"n.n.n.n.n.n.n.n.n.n.n.n.n.n.@ @ @ @ k.k.k.k.v.v.v.v.b.b.b.b.b.b.b.b.b.b.b.b.b.b.b.b.b.b.b.b.@ @ @ @     n.n.n.n.n.n.n.n.n.n.n.n.",
"n.n.n.n.n.n.n.n.n.n.n.n.    @ @ @ @ k.k.k.k.v.v.v.v.b.b.b.b.b.b.b.b.b.b.b.b.b.b.b.b.b.b.b.b.@ @ @ @ V V         n.n.n.n.n.n.n.n.",
"n.n.n.n.n.n.n.n.n.n.n.n.    @ @ @ @ k.k.k.k.v.v.v.v.b.b.b.b.b.b.b.b.b.b.b.b.b.b.b.b.b.b.b.b.@ @ @ @ V V         n.n.n.n.n.n.n.n.",
"n.n.n.n.n.n.n.n.n.n.n.n.    @ @ @ @ v.v.v.v.v.v.v.v.b.b.b.b.@ @ @ @ @ @ @ @ @ @ @ @ @ @ @ @ @ @ @ @ V V         n.n.n.n.n.n.n.n.",
"n.n.n.n.n.n.n.n.n.n.n.n.    @ @ @ @ v.v.v.v.v.v.v.v.b.b.b.b.@ @ @ @ @ @ @ @ @ @ @ @ @ @ @ @ @ @ @ @ V V         n.n.n.n.n.n.n.n.",
"n.n.n.n.n.n.n.n.        V V @ @ @ @ v.v.v.v.v.v.v.v.b.b.b.b.@ @ @ @ @ @ @ @ @ @ @ @ @ @ @ @ @ @ @ @ 9.9.V V V V         n.n.n.n.",
"n.n.n.n.n.n.n.n.        V V @ @ @ @ v.v.v.v.v.v.v.v.b.b.b.b.@ @ @ @ @ @ @ @ @ @ @ @ @ @ @ @ @ @ @ @ 9.9.V V V V         n.n.n.n.",
"n.n.n.n.n.n.n.n.        V V @ @ @ @ v.v.v.v.v.v.v.v.b.b.b.b.b.b.b.b.b.b.b.b.@ @ @ @ b.b.b.b.@ @ @ @ 9.9.V V V V         n.n.n.n.",
"n.n.n.n.n.n.n.n.        V V @ @ @ @ v.v.v.v.v.v.v.v.b.b.b.b.b.b.b.b.b.b.b.b.@ @ @ @ b.b.b.b.@ @ @ @ 9.9.V V V V         n.n.n.n.",
"n.n.n.n.        V V V V 9.9.@ @ @ @ v.v.v.v.v.v.v.v.b.b.b.b.b.b.b.b.b.b.b.b.@ @ @ @ b.b.b.b.@ @ @ @ 9.9.9.9.9.9.V V V V         ",
"n.n.n.n.        V V V V 9.9.@ @ @ @ v.v.v.v.v.v.v.v.b.b.b.b.b.b.b.b.b.b.b.b.@ @ @ @ b.b.b.b.@ @ @ @ 9.9.9.9.9.9.V V V V         ",
"n.n.n.n.        V V V V 9.9.@ @ @ @ k.k.k.k.v.v.v.v.v.v.v.v.v.v.v.v.b.b.b.b.b.b.b.b.b.b.b.b.@ @ @ @ 9.9.9.9.9.9.V V V V         ",
"n.n.n.n.        V V V V 9.9.@ @ @ @ k.k.k.k.v.v.v.v.v.v.v.v.v.v.v.v.b.b.b.b.b.b.b.b.b.b.b.b.@ @ @ @ 9.9.9.9.9.9.V V V V         ",
"        V V V V 9.9.9.9.9.9.@ @ @ @ k.k.k.k.v.v.v.v.v.v.v.v.v.v.v.v.b.b.b.b.b.b.b.b.b.b.b.b.@ @ @ @ 9.9.9.9.9.9.9.9.9.9.        ",
"        V V V V 9.9.9.9.9.9.@ @ @ @ k.k.k.k.v.v.v.v.v.v.v.v.v.v.v.v.b.b.b.b.b.b.b.b.b.b.b.b.@ @ @ @ 9.9.9.9.9.9.9.9.9.9.        ",
"        V V V V 9.9.9.9.9.9.9.9.p.p.@ @ @ @ k.k.k.k.k.k.k.k.1.1.1.1.1.1.1.1.6.6.6.6.1.1.1.1.@ @ @ @ 9.9.9.9.9.9.9.9.9.9.        ",
"        V V V V 9.9.9.9.9.9.9.9.p.p.@ @ @ @ k.k.k.k.k.k.k.k.1.1.1.1.1.1.1.1.6.6.6.6.1.1.1.1.@ @ @ @ 9.9.9.9.9.9.9.9.9.9.        ",
"        9.9.9.9.9.9.9.9.p.p.p.p.p.p.@ @ @ @ k.k.k.k.k.k.k.k.1.1.1.1.1.1.1.1.6.6.6.6.1.1.1.1.@ @ @ @     9.9.9.9.9.9.9.9.        ",
"        9.9.9.9.9.9.9.9.p.p.p.p.p.p.@ @ @ @ k.k.k.k.k.k.k.k.1.1.1.1.1.1.1.1.6.6.6.6.1.1.1.1.@ @ @ @     9.9.9.9.9.9.9.9.        ",
"        9.9.9.9.9.9.q.e.y.t.i.s.7.5.$ @ @ @ 1.1.1.1.1.1.1.1.k.k.k.k.k.k.k.k.k.k.k.k.k.k.k.k.@ @ @ @     9.9.9.9.9.9.9.9.        ",
"        9.9.9.9.9.9.9.0.p.p.a.u.d.8.8 , @ @ 1.1.1.1.1.1.1.1.k.k.k.k.k.k.k.k.k.k.k.k.k.k.k.k.@ @ @ @     9.9.9.9.9.9.9.9.        ",
"        9.9.9.9.P P I U I P P I R ( t 4 - # 1.1.1.1.1.1.1.1.k.k.k.k.k.k.k.k.k.k.k.k.k.k.k.k.@ @ @ @     P P P P 9.9.9.9.        ",
"        9.9.9.9.P P P I W Y I P P I H k e 3 3.2.<.1.1.1.1.1.k.k.k.k.k.k.k.k.k.k.k.k.k.k.k.k.@ @ @ @     P P P P 9.9.9.9.        ",
"        9.9.0.9.P P P E ^ ) Y P P P P P G l &.;.>.g.k.k.k.k.k.k.k.k.v.v.v.v.v.v.v.v.v.v.v.v.@ @ @ +     P P P P 9.9.9.9.        ",
"        9.9.w.9.P P P I R ~ T P P P P P P P | $.o.-.,.g.h.k.k.k.k.k.v.v.v.v.v.v.v.v.v.v.v.v.@ @ o .     P P P P 9.9.9.9.        ",
"        V V _ B P P P P ~ ! Y P P P P P P P P I = 6 ..O.%.h.k.k.k.k.v.v.v.v.v.v.v.v.v.v.x.z.0 u s D P P P P P P V V V V         ",
"        V V 4.Q P P P P Y / Y P P P P P P P P P     X &  .:.f.h.j.j.x.x.v.v.v.v.v.v.c.z.l.r.q t Z H P P P P P P V V V V         ",
"        V V V V P P P P P H H P P P P P P P P P       X * 5 ` X.*.=.r q 1 > % ; > : 7 s q k h H P F P P L A P P V V V V         ",
"        V V V V P P P P P P J P P P P P P P P P           X X O [ { L G F Z l b C v i 9 > p G P H P P P D D P P V V V V         ",
"n.n.n.n.        V V b V V V V V P P P P P P P P P P P P P P P P [ [ P P P P H D c v n 2 < y J L V V m N z a V V         n.n.n.n.",
"n.n.n.n.        V V j v N V V V P P P P P P P P P P P P P P P I } @.D G D H H J H M f r g A P P V V V V N z V V         n.n.n.n.",
"n.n.n.n.        V N b x N V V V P P P P P P P P P P P P P P P ] +.#.w h D J P P P P P H F J P P V V V V V V z d         n.n.n.n.",
"n.n.n.n.        V V V V V V V V P P P G J P P P P P P P P P P P ] ' A J P P P P P P P P P P P P V V V V V V N m         n.n.n.n.",
"n.n.n.n.n.n.n.n.                V V N v S F K P P P P P P P P P P ] H P P P P P P P P P V V V V                 n.n.n.n.n.n.n.n.",
"n.n.n.n.n.n.n.n.                V V V V P H S D J P P P P P P P P P J P P P P P P P P P V V V V                 n.n.n.n.n.n.n.n.",
"n.n.n.n.n.n.n.n.                V V V V P P L H D H K P P P P P P L H L P P P P P P P P V V V V                 n.n.n.n.n.n.n.n.",
"n.n.n.n.n.n.n.n.                V V V V P P P P P L P P P P P P P P P P P P P P P P P P V V V V                 n.n.n.n.n.n.n.n.",
"n.n.n.n.n.n.n.n.n.n.n.n.n.n.n.n.                                                                n.n.n.n.n.n.n.n.n.n.n.n.n.n.n.n.",
"n.n.n.n.n.n.n.n.n.n.n.n.n.n.n.n.                                                                n.n.n.n.n.n.n.n.n.n.n.n.n.n.n.n.",
"n.n.n.n.n.n.n.n.n.n.n.n.n.n.n.n.                                                                n.n.n.n.n.n.n.n.n.n.n.n.n.n.n.n.",
"n.n.n.n.n.n.n.n.n.n.n.n.n.n.n.n.                                                                n.n.n.n.n.n.n.n.n.n.n.n.n.n.n.n.",
"n.n.n.n.n.n.n.n.n.n.n.n.n.n.n.n.n.n.n.n.n.n.n.n.n.n.n.n.n.n.n.n.n.n.n.n.n.n.n.n.n.n.n.n.n.n.n.n.n.n.n.n.n.n.n.n.n.n.n.n.n.n.n.n.",
"n.n.n.n.n.n.n.n.n.n.n.n.n.n.n.n.n.n.n.n.n.n.n.n.n.n.n.n.n.n.n.n.n.n.n.n.n.n.n.n.n.n.n.n.n.n.n.n.n.n.n.n.n.n.n.n.n.n.n.n.n.n.n.n.",
"n.n.n.n.n.n.n.n.n.n.n.n.n.n.n.n.n.n.n.n.n.n.n.n.n.n.n.n.n.n.n.n.n.n.n.n.n.n.n.n.n.n.n.n.n.n.n.n.n.n.n.n.n.n.n.n.n.n.n.n.n.n.n.n.",
"n.n.n.n.n.n.n.n.n.n.n.n.n.n.n.n.n.n.n.n.n.n.n.n.n.n.n.n.n.n.n.n.n.n.n.n.n.n.n.n.n.n.n.n.n.n.n.n.n.n.n.n.n.n.n.n.n.n.n.n.n.n.n.n."
};
