/* XPM */
static char *result[] = {
/* columns rows colors chars-per-pixel */
"64 64 135 2 ",
"   c #000000",
".  c #0B0101",
"X  c #020A03",
"o  c #0C0B0C",
"O  c #140402",
"+  c #1B0303",
"@  c #041306",
"#  c #061708",
"$  c #071A09",
"%  c #091E0B",
"&  c #110F11",
"*  c #151416",
"=  c #181619",
"-  c #19181A",
";  c #220404",
":  c #2B0606",
">  c #320808",
",  c #341603",
"<  c #0C240F",
"1  c #0D2711",
"2  c #0F2912",
"3  c #122F15",
"4  c #133217",
"5  c #153519",
"6  c #17391C",
"7  c #193E1E",
"8  c #1F1D20",
"9  c #211F22",
"0  c #242125",
"q  c #2F2C30",
"w  c #312E32",
"e  c #343135",
"r  c #3E3B3F",
"t  c #430E0E",
"y  c #4C1111",
"u  c #5A1616",
"i  c #651A1A",
"p  c #681B1B",
"a  c #711E1E",
"s  c #4D2207",
"d  c #602D0A",
"f  c #76390F",
"g  c #7C2121",
"h  c #1D4421",
"j  c #1F4924",
"k  c #214725",
"l  c #204B26",
"z  c #224F28",
"x  c #2A4E2E",
"c  c #25542B",
"v  c #28522D",
"b  c #27582D",
"n  c #285B2F",
"m  c #2C4C30",
"M  c #2A5E31",
"N  c #365439",
"B  c #365A3A",
"V  c #2D6434",
"C  c #2F6836",
"Z  c #306937",
"A  c #326D39",
"S  c #36763E",
"D  c #3A773F",
"F  c #37783F",
"G  c #755E38",
"H  c #7E5F3A",
"J  c #546A3A",
"K  c #5A6839",
"L  c #43763F",
"P  c #4C733E",
"I  c #53713E",
"U  c #5C763D",
"Y  c #646B3C",
"T  c #71663B",
"R  c #63763C",
"E  c #7F763A",
"W  c #3F3C41",
"Q  c #3A6144",
"!  c #3F6944",
"~  c #3A7742",
"^  c #377840",
"/  c #397B41",
"(  c #3F7A49",
")  c #406544",
"_  c #4A6A4D",
"`  c #417944",
"'  c #42754A",
"]  c #44794B",
"[  c #487C4E",
"{  c #467C51",
"}  c #4A7D53",
"|  c #4D755B",
" . c #4D7F5A",
".. c #5C785F",
"X. c #842424",
"o. c #8C2727",
"O. c #8E2828",
"+. c #834012",
"@. c #835737",
"#. c #837539",
"$. c #8A7539",
"%. c #917538",
"&. c #3C8345",
"*. c #3D8847",
"=. c #3E8948",
"-. c #41854A",
";. c #448A4D",
":. c #4F8054",
">. c #478E50",
",. c #488F51",
"<. c #4E805C",
"1. c #518256",
"2. c #54835B",
"3. c #5A865E",
"4. c #4A9354",
"5. c #519E5B",
"6. c #54A15E",
"7. c #558363",
"8. c #5D8761",
"9. c #5A846A",
"0. c #628265",
"q. c #618965",
"w. c #68816B",
"e. c #678D6B",
"r. c #6A8E6D",
"t. c #6F9272",
"y. c #719375",
"u. c #79967C",
"i. c #7A997D",
"p. c #57A661",
"a. c #5BAD66",
"s. c #5FB36A",
"d. c #60B46B",
"f. c #849D86",
"g. c None",
/* pixels */
"g.g.g.g.g.g.g.g.g.g.g.g.g.g.g.g.g.g.g.g.g.g.g.g.g.g.g.g.g.g.g.g.g.g.g.g.g.g.g.g.g.g.g.g.g.g.g.g.g.g.g.g.g.g.g.g.g.g.g.g.g.g.g.g.",
"g.g.g.g.g.g.g.g.g.g.g.g.g.g.g.g.g.g.g.g.g.g.g.g.g.g.g.g.g.g.g.g.g.g.g.g.g.g.g.g.g.g.g.g.g.g.g.g.g.g.g.g.g.g.g.g.g.g.g.g.g.g.g.g.",
"g.g.g.g.g.g.g.g.g.g.g.g.g.g.g.g.g.g.g.g.g.g.g.g.g.g.g.g.g.g.g.g.g.g.g.g.g.g.g.g.g.g.g.g.g.g.g.g.g.g.g.g.g.g.g.g.g.g.g.g.g.g.g.g.",
"g.g.g.g.g.g.g.g.g.g.g.g.g.g.g.g.g.S ^ S g.g.g.g.g.g.g.g.g.g.g.g.g.g.g.S ^ S S ^ S g.g.g.g.g.g.g.g.g.g.g.g.g.g.g.g.g.g.g.g.g.g.g.",
"g.g.g.g.g.g.g.g.g.g.g.g.g.g.g.F S ^ S S F F D D S ^ F F F F ^ S ^ S S S S D D D F S g.g.g.g.g.g.g.g.g.g.g.g.g.g.g.g.g.g.g.g.g.g.",
"g.g.g.g.g.g.g.g.g.g.g.g.g.g.F F ^ S S ^ F F F D ^ S F F F F S S S S ^ ^ ^ S F F F F g.g.g.F F F ^ g.g.g.F F ^ g.g.g.g.g.g.g.g.g.",
"g.g.g.g.g.g.g.g.S ^ ^ S S F F F ^ S F S F F S S S S D F F S S ^ ^ S S S F F F F F F g.g.g.F F F S S D F F F F S S g.g.g.g.g.g.g.",
"g.g.g.g.g.g.F F ^ S S S ^ S F F S F S F F F S ~ S ^ D D S ^ ^ S ^ S ^ S F F F F F F g.g.g.F F F S ^ F F F F S ^ F D g.g.g.g.g.g.",
"g.g.g.g.g.F D S S S F S ^ ^ S S ^ S S S ^ S ^ S F F F F F S F S S S S ^ S ^ S S S S ~ g.~ D D F F F F F ^ S ^ S F F g.g.g.g.g.g.",
"g.g.g.g.F D D S S ^ F F S S S ^ S F ^ S S ^ S S F F F F S F S F S ^ ^ S S ^ S ^ ^ S S S S S F F F F F F S D S ^ F F g.g.g.g.g.g.",
"g.g.g.g.F F ~ S D F F F ^ S ^ S F F F F S S ^ ^ S S F F F S F S ^ S S D ^ S S S F F D D S ^ D S S S D F S ^ S S F F g.g.g.g.g.g.",
"g.g.g.g.F F S S D F F F S S ^ S F F F F ^ S S S S S D D S F S F S S ^ S S S ^ ^ F F F D S ^ S ^ S S D ~ S S ^ S F F g.g.g.g.g.g.",
"g.g.g.g.S S ^ ^ F S F F S ^ S S ^ S D F S ^ ^ S S S S D F F F F S ~ F F F F S S F F S S ^ S ^ S S S ^ S S ^ S S F F g.g.g.g.g.g.",
"g.g.g.F ^ S S S S F S F ^ S S ~ S ^ D D S S S S S S F D F S F F D D g.F F F F F F F ^ S ^ S S S ^ S ^ S S ^ S ^ F F g.g.g.g.g.g.",
"g.g.F F S ^ S ^ ^ S F F F F S S D S S ^ ^ S S S F F F F S F S F F g.g.g.g.F F F F S ^ S S S ^ ^ S S S ^ ^ S S S F F g.g.g.g.g.g.",
"g.g.F F S ^ S S S ^ F F F D D D S ^ S S S ^ S F F F F F F S F S F g.g.g.g.g.F F S F S ^ ^ S S S ^ ^ S S S S ^ ^ S F F g.g.g.g.g.",
"g.F S ^ S S S ^ S ^ S ^ S S S S ^ S D F A A C Z C A S S A A C V b z j j z b M V V V M n b b b n M V Z A F F F F S F S g.g.g.g.g.",
"g.F F S S ^ ^ S F F F S S ^ ^ S S ^ D D Z Z C V V C Z A A Z C V b b c b n V V C C V V M n n n n V V C A F F F S F S S g.g.g.g.g.",
"F F F F S ^ S S F F F F S ^ S S S S ~ S C V V V V V V V C C V M n b b n V C C A C C V V V M n n M V C Z F F D D S S ^ ^ g.g.g.g.",
"g.F F F S S S ^ F F F F ^ S S ^ ^ S S S V n b b c c b b V V V M n n M V C C C C A C V V V V V M V V C C F F D D S S S S g.g.g.g.",
"g.F S F ^ ^ S ~ S ^ S D C C V V V V V n S S A S &.&.&.&.&./ / / &./ F &./ F &.&.F F &.F / &.F &.S S S S C C A A F D D S ^ g.g.g.",
"g.S F F S S S S S S D D A C V V V V n c S A A S / &.&.&.&.&./ &./ &.&.F / S F F &.F &./ / / / / S S S S C C A A F D D ^ S g.g.g.",
"g.F F F F F S D S S S F A A V V n n b c A S S S &.&.&.F S S S F / / F / F &./ F &./ F F / / / / S S S S V Z A A F F S S ^ g.g.g.",
"g.g.F F F F D D S S S F S A Z M V M n c S S A S &./ &.&./ F F / / / / &.&.F &.&./ &.F / F F F / S S S A C C A S F F ^ S S g.g.g.",
"g.g.F F S ^ S S A A S S S S S S S S S S &.F &.&.F &.F / &.D F / / / F &./ F &./ &./ F / F F / F F / &./ S S S S S A A V F g.g.g.",
"g.g.F F ^ S S ^ S S S S F S S S S S S S F &.D F / / / / F &.F / F &.F &./ &.&./ / / / F F / ^ ^ F F F / S S S S A C V b g.g.g.g.",
"g.g.F F S F F F A S A S F S F F S S S A / F F / F / F F D D L S C C C F F F F F / / F / / / F F / F F / S S S A V M c j g.g.g.g.",
"g.g.S F F F F F A A A S F F F F S S S S F F / F F F / F D D P S C C C / &.&./ / F / F F F F / F / F F S S S S S n c h 4 g.g.g.g.",
"g.g.g.^ n M V V S S S S S S D / F F / / F F / D / F F D L L U A C C C F F / &.F S F S F / F F F F F F &.&./ &.&.S A S A @ X     ",
"g.g.g.g.b n V V S S S S ^ S / ^ / F / / / F ^ ^ ^ F F L P I _ A A C A / F / F F S S F F F / F S / &./ / / / &.&.A S A A         ",
"g.g.g.g.c b b b S A S S / ^ ^ / ^ / / F / F ^ ^ D L L ] ] ] ] A S A A A A C S C S S S S S S A &.F &.&./ &.&.&.*.S A A S         ",
"g.g.g.g.k l z z S S S S / &./ / / ^ / S F F F L P P P [ [ ] ] A S S A S S S A S A S S S S S A S &.F / &.&.&.&.*.A A A S         ",
"2 2 5 6 A S A S *.&.&.&.&./ &.F -.-.-.D ~ D D ` I I J [ ] ] ] S A S S S A S A A S S S S S A S ^ / / &.&.&.*.&.=.=.=.=.=.        ",
"# % < 2 S A S A *.*.*.&.&.&./ / -.-.-./ ` ~ A K I I _ ' ' ` ' S S S S S S A A S S ^ A ^ ^ A A / / &.&./ &.&.=.=.=.=.=.=.        ",
"X X @ @ A A A S =.*.*.&.&.&.&./ ;.-.-.-.-.( S } [ [ ] ] ] ] ` ( ^ ( ( ( ] { }  .} { { { }  .7.A ^ / &.&.&.=.=.=.=.=.=.=.        ",
"        A S A S =.=.*.*.*.&.&.( ;.-.-.;.;.;.-.} } [ ' ] ` ' ~ ( ~ ~ ~ ( ( { { { {  .} <.7.7.7.^ / &.&.&.=.=.=.=.=.=.=.=.        ",
"        =.=.=.=.=.=.=.=.s.p.5.4.;.-.;.;.F S S ' [ _ [ ` ( ~ ~ ~ / ~ ~ ( ( ( {  . .<.<.7.9.9.| n c j 6 2 =.=.=.=.=.=.=.=.        ",
"        =.=.=.=.=.=.=.=.d.a.5.4.;.;.;.,.S F S ( ' [ [ ` ` ( ~ ( ~ ~ / / ( ( { { :.<.7.7.9.| Q k h 6 2 % =.=.=.=.=.=.=.=.        ",
"        =.=.=.=.=.=.=.=.d.a.6.4.,.;.;.,.F S F ~ ( { } q.3.3.1.} ] ] ] [ :.2.8.q.r.t.t.y.0._ x 6 2 1 # X =.=.=.=.=.=.=.=.        ",
"        =.=.=.=.=.=.=.=.d.s.p.5.4.4.,.,.S F S F S ( [ e.r.e.q.3.:.[ -.] :.2.8.8.q.3.3.1.) b 7 2 % @     =.=.=.=.=.=.=.=.        ",
"        =.=.=.=.D D F F F F S ^ D F S F S S S S V A ' t.u.i.y.q.:.-.] ] ] [ :.1.[ -.] D n l 4 % X       ^ S F S =.=.=.=.        ",
"        =.=.=.=.D S F F F F S ^ F F F F F S S S V V Z ..u.f.u.0.:.] ( / ^ ^ ^ ~ ~ D D S z 7 < X         S F S F =.=.=.=.        ",
"        =.=.=.=.S S ^ S F F S S F F F F ^ S ^ S b b n ! ....w.C S F F F F F S S F F D F h 3 #           ^ S F S =.=.=.=.        ",
"        =.=.=.=.~ S S S F S ^ S F F F F S S ^ S j j j k m N Q M S F F F D D ~ ^ F F F F 3 <             ^ S S F =.=.=.=.        ",
"        S S A A ^ S S ^ F F F F ~ S S ^ ^ ^ S D 5 5 4 3 3 4 h k F S S S ^ S ^ S F F S S ^ S S S F S A F F F F F A S S A         ",
"        A A A S S S ^ S F F F F S ^ S S S S D D % % # @ X $ 2 5 S F ^ S S ^ S S S F ^ S ^ S S F S A A F F F F F A A A A         ",
"        A A A S S ^ ^ S S F F F S S ^ S ^ ^ ^ D X X         @ % F S F S S S ~ ^ F S ^ S S ~ ] S S S S F S F S S S A A S         ",
"        S S A A S ^ S S ^ S D D D S S ^ ^ ^ ^ F               X S ^ S ^ ^ S S S S S S ^ ^ S D S S F S F S S S S S A A S         ",
"g.g.g.g.        S A A S A S A A ^ ^ ^ ^ S S D D F F F F ^ S S S ^ S S ^ F F F D F F F D ^ S S ^ A S A A A A S S         g.g.g.g.",
"g.g.g.g.        S A A S A A A V A F S S S ^ D S F F F F S S ^ S S ^ S S F F F D F F F D S S ^ ^ A A A S S A A A         g.g.g.g.",
"g.g.g.g.        A A A A A S A A A F S F ^ ^ S S S F F F S F F F S ^ S F F F S D F F S ~ ~ S ^ ^ A A A S S A A A         g.g.g.g.",
"g.g.g.g.        A S S A A A A S F S F F S S S ~ ^ S F S F F F F S S F S F F S S F F S S S S ^ ^ S S Z A A A S S         g.g.g.g.",
"g.g.g.g.g.g.g.g.                A A S S ^ S S S S S S S ^ S F F ^ S ^ ~ ^ ^ S S S F F S A A A A                 g.g.g.g.g.g.g.g.",
"g.g.g.g.g.g.g.g.                S A A A S S ^ S S ^ ^ S ^ S F F S ^ ^ ~ ( ` ( ~ ( ` ( ] ~ ~ ] A                 g.g.g.g.g.g.g.g.",
"g.g.g.g.g.g.g.g.                S A A S S ^ S S S S ^ S S S S D D S D L L P P U U R R J J J K V                 g.g.g.g.g.g.g.g.",
"g.g.g.g.g.g.g.g.                A S A A S S ~ ^ ^ S S ^ S ~ D D D ~ L J Y T T $.#.$.%.T @.@.G A                 g.g.g.g.g.g.g.g.",
"g.g.g.g.g.g.g.g.g.g.g.g.g.g.g.g.              X         o = = + ; > y p X.O.X.+.s s f g O.o.u   g.g.g.g.g.g.g.g.g.g.g.g.g.g.g.g.",
"g.g.g.g.g.g.g.g.g.g.g.g.g.g.g.g.                    o * w W W y y y y u a X.X.d + O , t i i :   g.g.g.g.g.g.g.g.g.g.g.g.g.g.g.g.",
"g.g.g.g.g.g.g.g.g.g.g.g.g.g.g.g.O                     O t p p e 0 - * = 0 w e 9 o   X o - 9 X   g.g.g.g.g.g.g.g.g.g.g.g.g.g.g.g.",
"g.g.g.g.g.g.g.g.g.g.g.g.g.g.g.g.+ + +                   . > > & X o         o             o     g.g.g.g.g.g.g.g.g.g.g.g.g.g.g.g.",
"g.g.g.g.g.g.g.g.g.g.g.g.g.g.g.g.g.g.g.g.g.g.g.g.g.g.g.g.g.g.g.g.g.g.g.g.g.g.g.g.g.g.g.g.g.g.g.g.g.g.g.g.g.g.g.g.g.g.g.g.g.g.g.g.",
"g.g.g.g.g.g.g.g.g.g.g.g.g.g.g.g.g.g.g.g.g.g.g.g.g.g.g.g.g.g.g.g.g.g.g.g.g.g.g.g.g.g.g.g.g.g.g.g.g.g.g.g.g.g.g.g.g.g.g.g.g.g.g.g.",
"g.g.g.g.g.g.g.g.g.g.g.g.g.g.g.g.g.g.g.g.g.g.g.g.g.g.g.g.g.g.g.g.g.g.g.g.g.g.g.g.g.g.g.g.g.g.g.g.g.g.g.g.g.g.g.g.g.g.g.g.g.g.g.g.",
"g.g.g.g.g.g.g.g.g.g.g.g.g.g.g.g.g.g.g.g.g.g.g.g.g.g.g.g.g.g.g.g.g.g.g.g.g.g.g.g.g.g.g.g.g.g.g.g.g.g.g.g.g.g.g.g.g.g.g.g.g.g.g.g."
};
