/* XPM */
static char *result[] = {
/* columns rows colors chars-per-pixel */
"64 64 10 1 ",
"  c black",
". c #050000",
"X c #130202",
"o c #190202",
"O c #1C0303",
"+ c #33703B",
"@ c #37773F",
"# c #3E8948",
"$ c #62B76D",
"% c None",
/* pixels */
"%%%%%%%%%%%%%%%%%%%%%%%%%%%%%%%%%%%%%%%%%%%%%%%%%%%%%%%%%%%%%%%%",
"%%%%%%%%%%%%%%%%%%%%%%%%%%%%%%%%%%%%%%%%%%%%%%%%%%%%%%%%%%%%%%%%",
"%%%%%%%%%%%%%%%%%%%%%%%%%%%%%%%%%%%%%%%%%%%%%%%%%%%%%%%%%%%%%%%%",
"%%%%%%%%%%%%%%%%%%%%%%%%%%%%%%%%%%%%%%%%%%%%%%%%%%%%%%%%%%%%%%%%",
"%%%%%%%%%%%%%%%%%%%%%%%%%%%%%%%%%%%%%%%%%%%%%%%%%%%%%%%%%%%%%%%%",
"%%%%%%%%%%%%%%%%%%%%%%%%%%%%%%%%%%%%%%%%%%%%%%%%%%%%%%%%%%%%%%%%",
"%%%%%%%%%%%%%%%%%%%%%%%%%%%%%%%%%%%%%%%%%%%%%%%%%%%%%%%%%%%%%%%%",
"%%%%%%%%%%%%%%%%%%%%%%%%%%%%%%%%%%%%%%%%%%%%%%%%%%%%%%%%%%%%%%%%",
"%%%%%%%%%%%%%%%%%%%%%%%%%%%%%%%%%%%%%%%%%%%%%%%%%%%%%%%%%%%%%%%%",
"%%%%%%%%%%%%%%%%%%%%%%%%%%%%%%%%%%%%%%%%%%%%%%%%%%%%%%%%%%%%%%%%",
"%%%%%%%%%%%%%%%%%%%%%%%%%%%%%%%%%%%%%%%%%%%%%%%%%%%%%%%%%%%%%%%%",
"%%%%%%%%%%%%%%%%%%%%%%%%%%%%%%%%%%%%%%%%%%%%%%%%%%%%%%%%%%%%%%%%",
"%%%%%%%%%%%%%%%%%%%%%%%%%%%%%%%%%%%%%%%%%%%%%%%%%%%%%%%%%%%%%%%%",
"%%%%%%%%%%%%%%%%%%%%%%%%%%%%%%%%%%%%%%%%%%%%%%%%%%%%%%%%%%%%%%%%",
"%%%%%%%%%%%%%%%%%%%%%%%%%%%%%%%%%%%%%%%%%%%%%%%%%%%%%%%%%%%%%%%%",
"%%%%%%%%%%%%%%%%%%%%%%%%%%%%%%%%%%%%%%%%%%%%%%%%%%%%%%%%%%%%%%%%",
"%%%%%%%%%%%%%%%%%%%%                                %%%%%%%%%%%%",
"%%%%%%%%%%%%%%%%%%%%                                %%%%%%%%%%%%",
"%%%%%%%%%%%%%%%%%%%%                                %%%%%%%%%%%%",
"%%%%%%%%%%%%%%%%%%%%                                %%%%%%%%%%%%",
"%%%%%%%%%%%%        ++++########################++++    %%%%%%%%",
"%%%%%%%%%%%%        ++++########################++++    %%%%%%%%",
"%%%%%%%%%%%%        ++++########################++++    %%%%%%%%",
"%%%%%%%%%%%%        ++++########################++++    %%%%%%%%",
"%%%%%%%%    ++++++++################################++++    %%%%",
"%%%%%%%%    ++++++++################################++++    %%%%",
"%%%%%%%%    ++++++++################################++++    %%%%",
"%%%%%%%%    ++++++++################################++++    %%%%",
"%%%%    ++++############################################++++    ",
"%%%%    ++++############################################++++    ",
"%%%%    ++++############################################++++    ",
"%%%%    ++++############################################++++    ",
"    ++++########$$$$$$$$####################################    ",
"    ++++########$$$$$$$$####################################    ",
"    ++++########$$$$$$$$####################################    ",
"    ++++########$$$$$$$$####################################    ",
"    ########$$$$$$$$@@@@@@@@@@@@@@@@@@@@@@@@        ########    ",
"    ########$$$$$$$$@@@@@@@@@@@@@@@@@@@@@@@@        ########    ",
"    ########$$$$$$$$@@@@@@@@@@@@@@@@@@@@@@@@        ########    ",
"    ########$$$$$$$$@@@@@@@@@@@@@@@@@@@@@@@@        ########    ",
"    ####@@@@@@@@@@@@@@@@        @@@@@@@@@@@@        @@@@####    ",
"    ####@@@@@@@@@@@@@@@@        @@@@@@@@@@@@        @@@@####    ",
"    ####@@@@@@@@@@@@@@@@        @@@@@@@@@@@@        @@@@####    ",
"    ####@@@@@@@@@@@@@@@@        @@@@@@@@@@@@        @@@@####    ",
"    ++++@@@@@@@@@@@@@@@@        @@@@@@@@@@@@@@@@@@@@@@@@++++    ",
"    ++++@@@@@@@@@@@@@@@@        @@@@@@@@@@@@@@@@@@@@@@@@++++    ",
"    ++++@@@@@@@@@@@@@@@@        @@@@@@@@@@@@@@@  @@  @@@++++    ",
"    ++++@@@@@@@@@@@@@@@@        @@@@@@@@@@@ @@      @@@@++++    ",
"%%%%    ++++++++@@@@@@@@@@@@@@@@@@@@@@  @@@       ++++++    %%%%",
"%%%%    ++++++++@@@@@@@@@@@@@@@   @@@   @      @   +++++    %%%%",
"%%%%    ++++++++@@@@@@@@@@@@@@@     @  @    @  @++ +++++    %%%%",
"%%%%    ++++++++@@@@@@@@@@@@    @       @  @@  @++++++++    %%%%",
"%%%%%%%%        ++++@@@@@@@@@     @   @  @ @++++        %%%%%%%%",
"%%%%%%%%        ++++@@@@@@@@@    @@@@ @@@@@@++++        %%%%%%%%",
"%%%%%%%%        ++++@@@@@@@@@@@@@@@@@@@@@@@@++++        %%%%%%%%",
"%%%%%%%%        ++++@@@@@@@@@@@@@@@@@@@@@@@@++++        %%%%%%%%",
"%%%%%%%%%%%%%%%%                                %%%%%%%%%%%%%%%%",
"%%%%%%%%%%%%%%%%                                %%%%%%%%%%%%%%%%",
"%%%%%%%%%%%%%%%%X.                              %%%%%%%%%%%%%%%%",
"%%%%%%%%%%%%%%%%Ooo                             %%%%%%%%%%%%%%%%",
"%%%%%%%%%%%%%%%%%%%%%%%%%%%%%%%%%%%%%%%%%%%%%%%%%%%%%%%%%%%%%%%%",
"%%%%%%%%%%%%%%%%%%%%%%%%%%%%%%%%%%%%%%%%%%%%%%%%%%%%%%%%%%%%%%%%",
"%%%%%%%%%%%%%%%%%%%%%%%%%%%%%%%%%%%%%%%%%%%%%%%%%%%%%%%%%%%%%%%%",
"%%%%%%%%%%%%%%%%%%%%%%%%%%%%%%%%%%%%%%%%%%%%%%%%%%%%%%%%%%%%%%%%"
};
