/* XPM */
static char *result[] = {
/* columns rows colors chars-per-pixel */
"64 64 166 2 ",
"   c #000000",
".  c #0E0101",
"X  c #060608",
"o  c #070C0A",
"O  c #080D0B",
"+  c #030C04",
"@  c #180202",
"#  c #051306",
"$  c #09130C",
"%  c #071A09",
"&  c #0B1A0E",
"*  c #0D0F11",
"=  c #110F11",
"-  c #0D1E11",
";  c #161719",
":  c #260505",
">  c #0B230E",
",  c #0E2312",
"<  c #0E2811",
"1  c #112615",
"2  c #112B15",
"3  c #142E18",
"4  c #133117",
"5  c #16341A",
"6  c #17391B",
"7  c #193C1E",
"8  c #1A1E21",
"9  c #1B3E20",
"0  c #440E0E",
"q  c #1B411F",
"w  c #1D4422",
"e  c #1F4824",
"r  c #204725",
"t  c #214B26",
"y  c #234E28",
"u  c #25542B",
"i  c #27592D",
"p  c #285A2F",
"a  c #2A5D31",
"s  c #2D6334",
"d  c #2F6836",
"f  c #306937",
"g  c #326D39",
"h  c #3A6F3B",
"j  c #36753E",
"k  c #39773F",
"l  c #426E3B",
"z  c #4A6C3A",
"x  c #5B6F3D",
"c  c #4B743E",
"v  c #45743E",
"b  c #53713D",
"n  c #656B3C",
"m  c #6B693C",
"M  c #72653B",
"N  c #7C613A",
"B  c #65763C",
"V  c #397741",
"C  c #3A7D43",
"Z  c #3F7A49",
"A  c #434045",
"S  c #407747",
"D  c #43794C",
"F  c #49784F",
"G  c #407847",
"H  c #477D53",
"J  c #4B7B54",
"K  c #4C7F59",
"L  c #517957",
"P  c #56795B",
"I  c #59795E",
"U  c #645F66",
"Y  c #5D7A62",
"T  c #607A65",
"R  c #657B6A",
"E  c #6A7B6E",
"W  c #6D7B71",
"Q  c #717C75",
"!  c #767C79",
"~  c #7A7D7D",
"^  c #79737C",
"/  c #AB3232",
"(  c #A53D33",
")  c #A93933",
"_  c #9D4635",
"`  c #984C36",
"'  c #8E5537",
"]  c #855B39",
"[  c #915337",
"{  c #A14234",
"}  c #907538",
"|  c #B47332",
" . c #C7732E",
".. c #DC7127",
"X. c #3C8345",
"o. c #3D8847",
"O. c #3E8948",
"+. c #4E805C",
"@. c #54835A",
"#. c #5A865E",
"$. c #548363",
"%. c #5E8962",
"&. c #5B866B",
"*. c #5B866B",
"=. c #5F8870",
"-. c #698E6C",
";. c #638B67",
":. c #6B906F",
">. c #638A74",
",. c #6A8E7E",
"<. c #6F9272",
"1. c #739476",
"2. c #769779",
"3. c #79987C",
"4. c #62B76D",
"5. c #7E7D81",
"6. c #847E87",
"7. c #6C8F80",
"8. c #6F9183",
"9. c #729386",
"0. c #7F9C81",
"q. c #76958B",
"w. c #78968E",
"e. c #7A9790",
"r. c #7E9A95",
"t. c #839F85",
"y. c #829C9A",
"u. c #809B97",
"i. c #89A28B",
"p. c #85A087",
"a. c #8FA791",
"s. c #9AAE9C",
"d. c #94AA96",
"f. c #9DB19E",
"g. c #8BA2A4",
"h. c #8FA5A9",
"j. c #87A0A0",
"k. c #92A6AC",
"l. c #94A8AF",
"z. c #96AAB1",
"x. c #9AACB6",
"c. c #A2B5A4",
"v. c #ACBCAE",
"b. c #A7B8A8",
"n. c #B0BFB1",
"m. c #B5C3B6",
"M. c #BAC6BB",
"N. c #BBC8BC",
"B. c #B7C5B8",
"V. c #C2CDC3",
"C. c #C6D0C6",
"Z. c #C7D1C8",
"A. c #CCD4CC",
"S. c #CFD8D0",
"D. c #D2DAD3",
"F. c #D7DED8",
"G. c #D8DFD9",
"H. c #DBE1DC",
"J. c #E1E6E2",
"K. c #E5E9E5",
"L. c #EAEDEA",
"P. c #EEF1EE",
"I. c #F3F5F3",
"U. c #F6F8F6",
"Y. c #FEFEFE",
"T. c None",
/* pixels */
"T.T.T.T.T.T.T.T.T.T.T.T.T.T.T.T.T.T.T.T.T.T.T.T.T.T.T.T.T.T.T.T.T.T.T.T.T.T.T.T.T.T.T.T.T.T.T.T.T.T.T.T.T.T.T.T.T.T.T.T.T.T.T.T.",
"T.T.T.T.T.T.T.T.T.T.T.T.T.T.T.T.T.T.T.T.T.T.T.T.T.T.T.T.T.T.T.T.T.T.T.T.T.T.T.T.T.T.T.T.T.T.T.T.T.T.T.T.T.T.T.T.T.T.T.T.T.T.T.T.",
"T.T.T.T.T.T.T.T.T.T.T.T.T.T.T.T.T.T.T.T.T.T.T.T.T.T.T.T.T.T.T.T.T.T.T.T.T.T.T.T.T.T.T.T.T.T.T.T.T.T.T.T.T.T.T.T.T.T.T.T.T.T.T.T.",
"T.T.T.T.T.T.T.T.T.T.T.T.T.T.T.T.T.T.T.T.T.T.T.T.T.T.T.T.T.T.T.T.T.T.T.T.T.T.T.T.T.T.T.T.T.T.T.T.T.T.T.T.T.T.T.T.T.T.T.T.T.T.T.T.",
"T.T.T.T.T.T.T.T.T.T.T.T.T.T.T.T.T.T.T.T.T.T.T.T.T.T.T.T.T.T.T.T.T.T.T.T.T.T.T.T.T.T.T.T.T.T.T.T.T.T.T.T.T.T.T.T.T.T.T.T.T.T.T.T.",
"T.T.T.T.T.T.T.T.T.T.T.T.T.T.T.T.T.T.T.T.T.T.T.T.T.T.T.T.T.T.T.T.T.T.T.T.T.T.T.T.T.T.T.T.T.T.T.T.T.T.T.T.T.T.T.T.T.T.T.T.T.T.T.T.",
"T.T.T.T.T.T.T.T.T.T.T.T.T.T.T.T.T.T.T.T.T.T.T.T.T.T.T.T.T.T.T.T.T.T.T.T.T.T.k T.T.T.T.T.T.T.T.T.T.T.T.T.T.T.T.T.T.T.T.T.T.T.T.T.",
"T.T.T.T.T.T.T.T.T.T.T.T.T.T.T.T.T.T.T.T.T.T.T.T.T.T.T.T.T.T.T.T.T.T.T.T.T.k k k T.T.T.T.T.T.T.T.T.T.T.T.T.T.T.T.T.T.T.T.T.T.T.T.",
"T.T.T.T.T.T.T.T.T.T.T.T.T.T.T.T.T.T.T.T.T.T.T.T.T.T.j j C j j j k k j j C j j j X.T.T.T.T.T.T.T.T.T.T.T.T.T.T.T.T.T.T.T.T.T.T.T.",
"T.T.T.T.T.T.T.T.T.k V T.T.T.T.T.T.T.T.T.T.T.T.T.C j k j j k j C k k j C j j j k j j T.T.T.T.T.T.T.T.T.T.T.T.T.T.T.T.T.T.T.T.T.T.",
"T.T.T.T.T.T.T.k k j j j k T.T.T.T.T.T.T.T.T.T.k j j j C j j k j k j j j j j j j j k j T.T.T.T.k k k T.T.T.T.T.T.T.T.T.T.T.T.T.T.",
"T.T.T.T.T.T.T.k k k V j k j T.T.T.T.T.T.T.T.k k k j j j j C k j j j j C C j k j C k k k k k k k k k k k T.T.T.T.T.T.T.T.T.T.T.T.",
"T.T.T.T.T.T.T.k j j k j k C j j T.T.T.T.T.T.C j k C j j j j j j C j k k k j j C j j C j j j V j j j j C j j T.T.T.T.T.T.T.T.T.T.",
"T.T.T.T.T.T.T.T.j C j j k j C j j V T.T.T.T.j j k j j j j g j j j j j C k j j j C j j j j k j j C j j j j C k k T.T.T.T.T.T.T.T.",
"T.T.T.T.T.T.T.T.C j C j j C j j j j j T.T.T.j j j j j j j j j k j T.T.T.T.k k C j k j j C j C T.T.T.j j k j C j k T.T.T.T.T.T.T.",
"T.T.T.T.T.T.T.T.j j j j j j k j j C j T.T.T.C j j j j j j g k k T.T.T.T.T.T.k j j j C j j j T.T.T.T.j C j j j k k k T.T.T.T.T.T.",
"T.T.T.T.C k k k k j j j j k j k j C j j u i p d g j j j g g f s y q 6 6 7 e i p s s s p i e w 7 q e i a j j j j j j T.T.T.T.T.T.",
"T.T.T.j j j k j k k C j C j k k j j s s p p p s f g c c S b d p u e 6 6 q y u p p p i i e q 6 6 w y i a C j j C C j k T.T.T.T.T.",
"T.T.k k C j j C j k j C j k k k j j s p p i p s s f b c x x d s i y e e y u i p a i u e e 7 6 7 e y i p j j j j j C j T.T.T.T.T.",
"T.T.k k j j j j V j j T.T.T.T.T.C j i i u u u u a s n x x n d s i u y u i p s a a a u y e q 7 w t i p a j C j j j j j T.T.T.T.T.",
"T.T.j k j C j j j T.T.T.6 6 6 e y u u u y e e t u i M m n m s a i u X.X.C C X.C X.X.X.X.X.X.X.X.j j j j a s d d j k k T.T.T.T.T.",
"T.T.C k j j C j j T.T.T.< < 4 q e y t r w 6 _ _ ` [ E R Y Y a a u y u u p a a s p p u u u u X.X.j j j j a a a d C k k T.T.T.T.T.",
"T.T.T.k j C j j V T.T.T.4 4 4 6 e r t w 5 1 ( ( ( _ ! Q W R i u y r y u u a i i i i i u u u X.X.g j j j a a a a j j k T.T.T.T.T.",
"T.T.T.j j j k j j j T.T.e q 6 q w e r 9 5 1 ) ) ( ( ~ ! Q W y y r r y y y u u y u i i i i i C X.j j g j a i i a j j k T.T.T.T.T.",
"T.T.T.T.j j V j s p p p j j g g j j w w 5 2 ) ( ( _ ~ ~ ! W t r y r u y u y r y i i p s s s C C C C C C j g j j d a i y T.T.T.T.",
"T.T.T.T.T.T.T.j i p s s j g j j j g e w 9 5 5.~ ! W Q Q Q W y.y.u.r.w.w.w.r.r.r.e.9.,.>.=.&.d d d s X.C j j j j a a i e T.T.T.T.",
"T.T.T.T.T.T.T.T.i a s s j j j j g j y r r r Q E R R R E E W y.y.r.w.q.q.q.w.w.w.9.7.>.=.&.*.g g d d C X.j j g j a i t q T.T.T.T.",
"T.T.T.T.T.T.T.T.i a s d j j j g j j y u u i Y Y I P Y Y R W y.r.e.w.9.9.q.w.q.9.,.>.*.*.*.$.g g j d j C j g j j i y q 4 T.T.T.T.",
"T.T.T.T.% < 6 w j j j j k X.X.X.X.X.y i a s L J F F J P Y R e.r.e.q.9.q.q.q.q.,.>.$.$.$.$.@.g j g j C C C k X.C j j g j #       ",
"T.T.T.T.# % 4 7 j j j j X.j s i y r E Y P L $.+.J K 1.0.d.v.V.C.C.V.V.C.A.C.M.c.i.1.:.-.<.2.d g d d C C C C X.X.j g j g +       ",
"T.T.T.T.  # > 4 d g j g k j s i u u R Y L F K H H J -.1.i.c.m.V.V.C.A.D.D.A.M.f.0.-.%.%.;.1.g d d s C C C X.X.X.g j g j         ",
"T.T.T.T.  + # > j j j j X.X.a a i p T I L J J J H H -.1.i.s.v.M.V.Z.A.F.F.S.B.s.2.;.@.@.%.<.d d s s C C C C X.X.g g g j         ",
"        g g g V O.o.O.X.X.C i a a i Y Y L J K K J J <.3.t.s.v.M.V.Z.A.D.D.A.m.d.2.%.@.@.#.-.g d s a C C C X.X.X.O.O.O.O.        ",
"        j j g g O.O.o.o.o.X.y i i i ,.>.*.K K K +.@.3.t.d.c.a i u u y y y u a s g g k j j j g s s a C X.X.X.X.o.O.O.O.O.        ",
"        g g g g O.O.O.O.o.X.w e u p 7.>.=.$.K K +.@.t.a.l.v.i u y t r r y u a s f j j V g j f f s a C X.X.o.o.o.O.O.O.O.        ",
"        g j V g O.O.O.O.O.O.3 9 e u q.7.>.=.*.$.$.$.a.s.b.m.i u y e r e e y u s d g g h g g g f s a X.X.X.O.X.O.O.O.O.O.        ",
"        O.O.O.O.O.O.O.O.4.4.- 2 9 w r.w.9.7.=.=.=.>.f.v.n.B.p u y r 9 9 5 9 r u a s f f f f f f s a u q X.o.O.O.O.O.O.O.        ",
"        O.O.O.O.O.O.O.O.4.4.O - 1 5 g.y.r.e.q.7.8.8.B.B.N.M.M.M.V.D.H.L.I.I.5 9 t y N.n.v.b.s a a u e 5 o.O.O.O.O.O.O.O.        ",
"        O.O.O.O.O.O.O.O.4.4.X o & , l.h.g.a.y.u.u.u.D.S.Z.V.M.M.M.Z.F.L.I.U.- 2 3 9 J.G.D.C.u i u t 6 < O.O.O.O.O.O.O.O.        ",
"        O.O.O.O.O.O.O.O.4.4.< & O O x.z.l.l.k.h.h.h.L.J.H.S.V.M.N.V.D.K.I.Y.O $ - - U.U.L.J.w e w 5 < & O.O.O.O.O.O.O.O.        ",
"        O.O.O.O.j C j j C j e 9 - O x.x.x.x.x.z.x.x.Y.U.L.J.D.A.Z.A.F.L.I.Y.X X o o Y.Y.Y.I.2 3 3 < % + j j k j O.O.O.O.        ",
"        O.O.O.O.k j j j j j g d e - 6.6.6.6.x.x.x.x.x.z.l.k.g.j.y.j.J.L.I.Y.Y.Y.Y.Y.Y.Y.Y.Y.& - & $ +   j C j j O.O.O.O.        ",
"        O.O.O.O.j j j j C j k j f w 5.6.6.6.x.x.x.x.x.x.x.x.l.k.h.h.P.U.Y.Y.Y.Y.Y.Y.Y.Y.Y.Y.o O o X     C j C j O.O.O.O.        ",
"        O.O.O.O.C j j C j j j C V s 5.6.6.6.x.x.x.x.x.x.x.x.x.z.z.z.U.Y.Y.Y.Y.Y.Y.Y.Y.Y.Y.Y.X X X X     j j j j O.O.O.O.        ",
"        j j g j j C j j j j j j V g ! 5.6.6.x.x.x.x.x.x.x.x.x.x.x.x.Y.Y.Y.Y.Y.Y.Y.Y.Y.Y.Y.Y., 6 e y V j j j j j g g g j         ",
"        g g g g j j j j j j C j V V s 6 * o 6.6.6.6.6.6.6.6./ / / / / / / / ......../ / / ( u s g f j V j C C j j j g g         ",
"        g j j g j C j C C j j C j j k a 5 5 ! W ^ 6.6.6.6.6./ / / / / / / )  .| | | { ) ) ' g j j j j V k j j j g j g j         ",
"        g g g j k j j j j j j j j C V j s s H D A U ^ 6.6.6./ / ( { { ( ) _ } B B } ] _ ` n k j k j k j k j V j g g g j         ",
"T.T.T.T.        j g g j g g j g k j k j j j k j C Z Y ,.9.^ ` ' N M M ] ' ] B k V c b m m v V j j g g j d j g g         T.T.T.T.",
"T.T.T.T.        j g l z z l l g k k j C j j j j j j v m ] N L D S C C G F F G V k V V V Z V j V g j j g j g g j         T.T.T.T.",
"T.T.T.T.        g g j j j g j h j k X.j j j j j j j V k v c V V V V k j k V j j k j j k k k V V g j g g g j j g         T.T.T.T.",
"T.T.T.T.        j g g g g g j g j j j j C j j C V k j k V j V V V Z C j j j j V j k j k k k g V g d g j g j g j         T.T.T.T.",
"T.T.T.T.T.T.T.T.      . : .     j g j g V j k k j j j k j C k C F L V k V V j V j j k k g g d p                 T.T.T.T.T.T.T.T.",
"T.T.T.T.T.T.T.T.      @ : 0 .   g g g g j j k V V V k j j j j j V L Y D C C Z V V V k k g V a d                 T.T.T.T.T.T.T.T.",
"T.T.T.T.T.T.T.T.        @ : @   g j j g j V k k j C j V j j j j V V Z Z +.H H C C j j C g V f g                 T.T.T.T.T.T.T.T.",
"T.T.T.T.T.T.T.T.        : 0 .   g j g j j j k k j k j j C j j C V V V C V V V j j j j V j g j j                 T.T.T.T.T.T.T.T.",
"T.T.T.T.T.T.T.T.T.T.T.T.T.T.T.T.                          X       * 8 ; * O O X X X   X         T.T.T.T.T.T.T.T.T.T.T.T.T.T.T.T.",
"T.T.T.T.T.T.T.T.T.T.T.T.T.T.T.T.                          X   X = ;                             T.T.T.T.T.T.T.T.T.T.T.T.T.T.T.T.",
"T.T.T.T.T.T.T.T.T.T.T.T.T.T.T.T.                                                                T.T.T.T.T.T.T.T.T.T.T.T.T.T.T.T.",
"T.T.T.T.T.T.T.T.T.T.T.T.T.T.T.T.                                                                T.T.T.T.T.T.T.T.T.T.T.T.T.T.T.T.",
"T.T.T.T.T.T.T.T.T.T.T.T.T.T.T.T.T.T.T.T.T.T.T.T.T.T.T.T.T.T.T.T.T.T.T.T.T.T.T.T.T.T.T.T.T.T.T.T.T.T.T.T.T.T.T.T.T.T.T.T.T.T.T.T.",
"T.T.T.T.T.T.T.T.T.T.T.T.T.T.T.T.T.T.T.T.T.T.T.T.T.T.T.T.T.T.T.T.T.T.T.T.T.T.T.T.T.T.T.T.T.T.T.T.T.T.T.T.T.T.T.T.T.T.T.T.T.T.T.T.",
"T.T.T.T.T.T.T.T.T.T.T.T.T.T.T.T.T.T.T.T.T.T.T.T.T.T.T.T.T.T.T.T.T.T.T.T.T.T.T.T.T.T.T.T.T.T.T.T.T.T.T.T.T.T.T.T.T.T.T.T.T.T.T.T.",
"T.T.T.T.T.T.T.T.T.T.T.T.T.T.T.T.T.T.T.T.T.T.T.T.T.T.T.T.T.T.T.T.T.T.T.T.T.T.T.T.T.T.T.T.T.T.T.T.T.T.T.T.T.T.T.T.T.T.T.T.T.T.T.T."
};
