/* XPM */
static char *result[] = {
/* columns rows colors chars-per-pixel */
"64 64 9 1 ",
"  c #412320",
". c #59302C",
"X c #5C322D",
"o c #6D3B36",
"O c #434F65",
"+ c #9A544C",
"@ c #6F7F9F",
"# c gray55",
"$ c gray68",
/* pixels */
"OO@@@@@@@@@@@@@@@@@...   .............   ....@@@@@@@@@@@@@@@@OOO",
"OO@@@@@@@@@@@@@@@@@...   .............   ....@@@@@@@@@@@@@@@@OOO",
".........   ..........   .............   ..........   ..........",
".........   ..........   .............   ..........   ..........",
".........   ..........   .............   ..........   ..........",
".........   ..........   .............   ..........   ..........",
".........   ooooooooooXXXoooooooooooooXXXoooooooooo   ..........",
".........   ooooooooooXXXoooooooooooooXXXoooooooooo   ..........",
".........   ooooooooooXXXoooooooooooooXXXoooooooooo   ..........",
"oooooooooXXXooooooooooXXXoooooooooooooXXXooooooooooXXXoooooooooo",
"oooooooooXXXooooooooooXXXoooooooooooooXXXooooooooooXXXoooooooooo",
"oooooooooXXXooooooooooXXXoooooooooooooXXXooooooooooXXXoooooooooo",
"######$$$XXXooooooooooXXXoooooooooooooXXXooooooooooXXXoooooooooo",
"######$$$XXXooooooooooXXXoooooooooooooXXXooooooooooXXXoooooooooo",
"######$$$XXXooooooooooXXXoooooooooooooXXXooooooooooXXXoooooooooo",
"##$$$$$$$XXXooooooooooXXXoooooooooooooXXXooooooooooXXXoooooooooo",
"##$$$$$$$XXXooooooooooXXXoooooooooooooXXXooooooooooXXXoooooooooo",
"##$$$$$$$XXXooooooooooXXXoooooooooooooXXXooooooooooXXXoooooooooo",
"##$$$$$$$XXXooooooooooXXXoooooooooooooXXXooooooooooXXXoooooooooo",
"oooooooooXXXooooooooooXXXoooooooooooooXXXooooooooooXXXoooooooooo",
"oooooooooXXXooooooooooXXXoooooooooooooXXXooooooooooXXXoooooooooo",
"oooooooooXXXooooooooooXXXoooooooooooooXXXooooooooooXXXoooooooooo",
"oooooooooXXXooooooooooXXXoooooooooooooXXXooooooooooXXXoooooooooo",
"oooooooooXXXooooooooooXXXoooooooooooooXXXooooooooooXXXoooooooooo",
"oooooooooXXXooooooooooXXXoooooooooooooXXXooooooooooXXXoooooooooo",
"oooooooooXXXooooooooooXXXooo$$$$$$$$$$XXXooooooooooXXXoooo$$$ooo",
"oooooooooXXXooooooooooXXXooo$$$$$$$$$$XXXooooooooooXXXoooo$$$ooo",
"oooooooooXXXooooooooooXXXooo$$$$$$$$$$XXXooooooooooXXXoooo$$$ooo",
"oooooooooXXXooooooooooXXXooo$$$$$$$$$$XXXooooooooooXXXoooo$$$ooo",
"oooooooooXXXooooooooooXXXooo$$$$$$$$$$XXXooooooooooXXXoooo$$$ooo",
"oooooooooXXXooooooooooXXXooo$$$$$$$$$$XXXooooooooooXXXoooo$$$ooo",
"oooooooooXXXooooooooooXXXooo$$$$$$$$$$XXXooooooooooXXXoooo$$$ooo",
"oooooooooXXXooooooooooXXXooo$$$$$$$$$$XXXooooooooooXXXoooo$$$ooo",
"oooooooooXXXooooooooooXXXooo$$$$$$$$$$XXXooooooooooXXXoooo$$$ooo",
"oooooooooXXXooooooooooXXXooo$$$$$$$$$$XXXooooooooooXXXoooo$$$ooo",
"oooooooooXXXooooooooooXXXoooooooooooooXXXooooooooooXXXoooo$$$ooo",
"oooooooooXXXooooooooooXXXoooooooooooooXXXooooooooooXXXoooo$$$ooo",
"oooooooooXXXooooooooooXXXoooooooooooooXXXooooooooooXXXoooo$$$ooo",
"oooooooooXXXooooooooooXXXoooooooooooooXXXooooooooooXXXoooo$$$ooo",
"oooooooooXXXooooooooooXXXoooooooooooooXXXooooooooooXXXoooo$$$ooo",
"oooooooooXXXooooooooooXXXoooooooooooooXXXooooooooooXXXoooo$$$ooo",
"oooooooooXXXooooooooooXXXoooooooooooooXXXooooooooooXXXoooooooooo",
"oooooooooXXXooooooooooXXXoooooooooooooXXXooooooooooXXXoooooooooo",
"oooooooooXXXooooooooooXXXoooooooooooooXXXooooooooooXXXoooooooooo",
"oooooooooXXXooooooooooXXXoooooooooooooXXXooooooooooXXXoooooooooo",
"oooooooooXXXooooooooooXXXoooooooooooooXXXooooooooooXXXoooooooooo",
"oooooooooXXXooooooooooXXXoooooooooooooXXXooooooooooXXXoooooooooo",
"oooooooooXXXooooooooooXXXoooooooooooooXXXooooooooooXXXoooooooooo",
"oooooooooXXXooooooooooXXXoooooooooooooXXXooooooooooXXXoooooooooo",
"oooooooooXXXooooooooooXXXoooooooooooooXXXooooooooooXXXoooooooooo",
"oooooooooXXXooooooooooXXXoooooooooooooXXXooooooooooXXXoooooooooo",
"######$$$XXXooooooooooXXXoooooooooooooXXXooooooooooXXXoooooooooo",
"######$$$XXXooooooooooXXXoooooooooooooXXXooooooooooXXXoooooooooo",
"######$$$XXXooooooooooXXXoooooooooooooXXXooooooooooXXXoooooooooo",
"##$$$$$$$XXXooooooooooXXXoooooooooooooXXXooooooooooXXXoooooooooo",
"##$$$$$$$XXXooooooooooXXXoooooooooooooXXXooooooooooXXXoooooooooo",
"##$$$$$$$XXXooooooooooXXXoooooooooooooXXXooooooooooXXXoooooooooo",
"##$$$$$$$XXXooooooooooXXXoooooooooooooXXXooooooooooXXXoooooooooo",
"oooooooooXXXooooooooooXXXoooooooooooooXXXooooooooooXXXoooooooooo",
"oooooooooXXXooooooooooXXXoooooooooooooXXXooooooooooXXXoooooooooo",
"oooooooooXXXooooooooooXXXoooooooooooooXXXooooooooooXXXoooooooooo",
"+++++++++XXX++++++++++XXX+++++++++++++XXX++++++++++XXX++++++++++",
"+++++++++XXX++++++++++XXX+++++++++++++XXX++++++++++XXX++++++++++",
"+++++++++XXX++++++++++XXX+++++++++++++XXX++++++++++XXX++++++++++"
};
