/* XPM */
static char *result[] = {
/* columns rows colors chars-per-pixel */
"64 64 9 1 ",
"  c #412320",
". c #59302C",
"X c #5C322D",
"o c #6D3B36",
"O c #434F65",
"+ c #6F7F9F",
"@ c gray55",
"# c gray68",
"$ c #060608",
/* pixels */
"OOO++++++++++++++++$$$$$$$$$$$$$$$$$$$$$$$$$$++++++++++++++++OOO",
"OOO++++++++++++++++$$$$$$$$$$$$$$$$$$$$$$$$$$++++++++++++++++OOO",
"OOO++++++++++++++++$$$$$$$$$$$$$$$$$$$$$$$$$$++++++++++++++++OOO",
"$$$$$$$$$$$$$$$$$$$$$$$$$$$$$$$$$$$$$$$$$$$$$$$$$$$$$$$$$$$$$$$$",
"$$$$$$$$$$$$$$$$$$$$$$$$$$$$$$$$$$$$$$$$$$$$$$$$$$$$$$$$$$$$$$$$",
"$$$$$$$$$$$$$$$$$$$$$$$$$$$$$$$$$$$$$$$$$$$$$$$$$$$$$$$$$$$$$$$$",
"$$$$$$$$$$$$$$$$$$$$$$$$$$$$$$$$$$$$$$$$$$$$$$$$$$$$$$$$$$$$$$$$",
"$$$$$$$$$$$$$$$$$$$$$$$$$$$$$$$$$$$$$$$$$$$$$$$$$$$$$$$$$$$$$$$$",
"$$$$$$$$$$$$$$$$$$$$$$$$$$$$$$$$$$$$$$$$$$$$$$$$$$$$$$$$$$$$$$$$",
"$$$$$$$$$$$$$$$$$$$$$$$$$$$$$$$$$$$$$$$$$$$$$$$$$$$$$$$$$$$$$$$$",
"$$$$$$$$$$$$$$$$$$$$$$$$$$$$$$$$$$$$$$$$$$$$$$$$$$$$$$$$$$$$$$$$",
"$$$$$$$$$$$$$$$$$$$$$$$$$$$$$$$$$$$$$$$$$$$$$$$$$$$$$$$$$$$$$$$$",
"$$$$$$$$$$$$$$$$$$$$$$$$$$$$$$$$$$$$$$$$$$$$$$$$$$$$$$$$$$$$$$$$",
"$$$$$$$$$$$$$$$$$$$                          $$$$$$$$$$$$$$$$$$$",
"$$$$$$$$$$$$$$$$$$$                          $$$$$$$$$$$$$$$$$$$",
"$$$$$$$$$$$$$$$$$$$                          $$$$$$$$$$$$$$$$$$$",
"                                                                ",
"                                                                ",
"                                                                ",
"                                                                ",
"                                                                ",
"                                                                ",
"                   ...    ............    ...                   ",
"                   ...    ............    ...                   ",
"                   ...    ............    ...                   ",
"                   ...    ............    ...                   ",
"..........   .........    ............    .........   ..........",
"..........   .........    ............    .........   ..........",
"..........   .........    ............    .........   ..........",
"..........   oooooooooXXXXooooooooooooXXXXooooooooo   ..........",
"..........   oooooooooXXXXooooooooooooXXXXooooooooo   ..........",
"..........   oooooooooXXXXooooooooooooXXXXooooooooo   ..........",
"ooooooooooXXXoooooooooXXXXooooooooooooXXXXoooooooooXXXoooooooooo",
"ooooooooooXXXoooooooooXXXXooooooooooooXXXXoooooooooXXXoooooooooo",
"ooooooooooXXXoooooooooXXXXooooooooooooXXXXoooooooooXXXoooooooooo",
"@@@@@@####XXXoooooooooXXXXooooooooooooXXXXoooooooooXXXoooooooooo",
"@@@@@@####XXXoooooooooXXXXooooooooooooXXXXoooooooooXXXoooooooooo",
"@@@@@@####XXXoooooooooXXXXooooooooooooXXXXoooooooooXXXoooooooooo",
"@@@#######XXXoooooooooXXXXooooooooooooXXXXoooooooooXXXoooooooooo",
"@@@#######XXXoooooooooXXXXooooooooooooXXXXoooooooooXXXoooooooooo",
"@@@#######XXXoooooooooXXXXooooooooooooXXXXoooooooooXXXoooooooooo",
"@@@#######XXXoooooooooXXXXooooooooooooXXXXoooooooooXXXoooooooooo",
"ooooooooooXXXoooooooooXXXXooooooooooooXXXXoooooooooXXXoooooooooo",
"ooooooooooXXXoooooooooXXXXooooooooooooXXXXoooooooooXXXoooooooooo",
"ooooooooooXXXoooooooooXXXXooooooooooooXXXXoooooooooXXXoooooooooo",
"ooooooooooXXXoooooooooXXXXooooooooooooXXXXoooooooooXXXoooo###ooo",
"ooooooooooXXXoooooooooXXXXooooooooooooXXXXoooooooooXXXoooo###ooo",
"ooooooooooXXXoooooooooXXXXooooooooooooXXXXoooooooooXXXoooo###ooo",
"ooooooooooXXXoooooooooXXXXooooooooooooXXXXoooooooooXXXoooo###ooo",
"ooooooooooXXXoooooooooXXXXooooooooooooXXXXoooooooooXXXoooo###ooo",
"ooooooooooXXXoooooooooXXXXooooooooooooXXXXoooooooooXXXoooo###ooo",
"ooooooooooXXXoooooooooXXXXooooooooooooXXXXoooooooooXXXoooo###ooo",
"ooooooooooXXXoooooooooXXXXooooooooooooXXXXoooooooooXXXoooo###ooo",
"ooooooooooXXXoooooooooXXXXooooooooooooXXXXoooooooooXXXoooo###ooo",
"ooooooooooXXXoooooooooXXXXooooooooooooXXXXoooooooooXXXoooo###ooo",
"ooooooooooXXXoooooooooXXXXooooooooooooXXXXoooooooooXXXoooo###ooo",
"ooooooooooXXXoooooooooXXXXooooooooooooXXXXoooooooooXXXoooo###ooo",
"ooooooooooXXXoooooooooXXXXooooooooooooXXXXoooooooooXXXoooo###ooo",
"ooooooooooXXXoooooooooXXXXooooooooooooXXXXoooooooooXXXoooo###ooo",
"ooooooooooXXXoooooooooXXXXooooooooooooXXXXoooooooooXXXoooo###ooo",
"ooooooooooXXXoooooooooXXXXooooooooooooXXXXoooooooooXXXoooo###ooo",
"ooooooooooXXXoooooooooXXXXooooooooooooXXXXoooooooooXXXoooooooooo",
"ooooooooooXXXoooooooooXXXXooooooooooooXXXXoooooooooXXXoooooooooo",
"ooooooooooXXXoooooooooXXXXooooooooooooXXXXoooooooooXXXoooooooooo"
};
