/* XPM */
static char *result[] = {
/* columns rows colors chars-per-pixel */
"64 64 12 1 ",
"  c #060608",
". c #412320",
"X c #59302C",
"o c #5C322D",
"O c #6D3B36",
"+ c gray36",
"@ c #434F65",
"# c #9A544C",
"$ c #6F7F9F",
"% c gray55",
"& c gray68",
"* c white",
/* pixels */
"@@@$$$$$$$$$$$$$$$$XXX....XXXXXXXXXXXX....XXX$$$$$$$$$$$$$$$$@@@",
"@@@$$$$$$$$$$$$$$$$XXX....XXXXXXXXXXXX....XXX$$$$$$$$$$$$$$$$@@@",
"@@@$$$$$$$$$$$$$$$$XXX....XXXXXXXXXXXX....XXX$$$$$$$$$$$$$$$$@@@",
"XXXXXXXXXX...XXXXXXXXX....XXXXXXXXXXXX....XXXXXXXXX...XXXXXXXXXX",
"XXXXXXXXXX...XXXXXXXXX....XXXXXXXXXXXX....XXXXXXXXX...XXXXXXXXXX",
"XXXXXXXXXX...XXXXXXXXX....XXXXXXXXXXXX....XXXXXXXXX...XXXXXXXXXX",
"XXXXXXXXXX...OOOOOOOOOooooOOOOOOOOOOOOooooOOOOOOOOO...XXXXXXXXXX",
"XXXXXXXXXX...OOOOOOOOOooooOOOOOOOOOOOOooooOOOOOOOOO...XXXXXXXXXX",
"XXXXXXXXXX...OOOOOOOOOooooOOOOOOOOOOOOooooOOOOOOOOO...XXXXXXXXXX",
"XXXXXXXXXX...OOOOOOOOOooooOOOOOOOOOOOOooooOOOOOOOOO...XXXXXXXXXX",
"OOOOOOOOOOoooOOOOOOOOOooooOOOOOOOOOOOOooooOOOOOOOOOoooOOOOOOOOOO",
"OOOOOOOOOOoooOOOOOOOOOooooOOOOOOOOOOOOooooOOOOOOOOOoooOOOOOOOOOO",
"OOOOOOOOOOoooOOOOOOOOOooooOOOOOOOOOOOOooooOOOOOOOOOoooOOOOOOOOOO",
"%%%%%%&&&&oooOOOOOOOOOooooOOOOOOOOOOOOooooOOOOOOOOOoooOOOOOOOOOO",
"%%%%%%&&&&oooOOOOOOOOOooooOOOOOOOOOOOOooooOOOOOOOOOoooOOOOOOOOOO",
"%%%%%%&&&&oooOOOOOOOOOooooOOOOOOOOOOOOooooOOOOOOOOOoooOOOOOOOOOO",
"%%%&&&&&&&oooOOOOOOOOOooooOOOOOOOOOOOOooooOOOOOOOOOoooOOOOOOOOOO",
"%%%&&&&&&&oooOOOOOOOOOooooOOOOOOOOOOOOooooOOOOOOOOOoooOOOOOOOOOO",
"%%%&&&&&&&oooOOOOOOOOOooooOOOOOOOOOOOOooooOOOOOOOOOoooOOOOOOOOOO",
"OOOOOOOOOOoooOOOOOOOOOoooo      OOOOOOooooOOOOOOOOOoooOOOOOOOOOO",
"OOOOOOOOOOoooOOOOOOOOOoooo      OOOOOOooooOOOOOOOOOoooOOOOOOOOOO",
"OOOOOOOOOOoooOOOOOOOOOoooo      OOOOOOooooOOOOOOOOOoooOOOOOOOOOO",
"OOOOOOOOOOoooOOOOOOOOO       ******   ooooOOOOOOOOOoooOOOOOOOOOO",
"OOOOOOOOOOoooOOOOOOOOO       ******   ooooOOOOOOOOOoooOOOOOOOOOO",
"OOOOOOOOOOoooOOOOOOOOO       ******   ooooOOOOOOOOOoooOOOOOOOOOO",
"OOOOOOOOOOoooOOOOOOOOO       ******   ooooOOOOOOOOOoooOOOOOOOOOO",
"OOOOOOOOOOoooOOOOOOOOO&&&&   &&&&&&&&&ooooOOOOOOOOOoooOOOO&&&OOO",
"OOOOOOOOOOoooOOOOOOOOO&&&&   &&&&&&&&&ooooOOOOOOOOOoooOOOO&&&OOO",
"OOOOOOOOOOoooOOOOOOOOO&&&&   &&&&&&&&&ooooOOOOOOOOOoooOOOO&&&OOO",
"OOOOOOOOOOoooOOOOOOOOO++++&&&&&&   &&&&&&&OOOOOOOOOoooOOOO&&&OOO",
"OOOOOOOOOOoooOOOOOOOOO++++&&&&&&   &&&&&&&OOOOOOOOOoooOOOO&&&OOO",
"OOOOOOOOOOoooOOOOOOOOO++++&&&&&&   &&&&&&&OOOOOOOOOoooOOOO&&&OOO",
"OOOOOOOOOOoooOOOOOOOOO    &&&&&&&&&&&&    OOOOOOOOOoooOOOO&&&OOO",
"OOOOOOOOOOoooOOOOOOOOO    &&&&&&&&&&&&    OOOOOOOOOoooOOOO&&&OOO",
"OOOOOOOOOOoooOOOOOOOOO    &&&&&&&&&&&&    OOOOOOOOOoooOOOO&&&OOO",
"OOOOOOOOOOoooOOOOOOOOOoooo+++&&&&&&&&&ooooOOOOOOOOOoooOOOO&&&OOO",
"OOOOOOOOOOoooOOOOOOOOOoooo+++&&&&&&&&&ooooOOOOOOOOOoooOOOO&&&OOO",
"OOOOOOOOOOoooOOOOOOOOOoooo+++&&&&&&&&&ooooOOOOOOOOOoooOOOO&&&OOO",
"OOOOOOOOOOoooOOOOOOOOOooooOOO+++   OOOooooOOOOOOOOOoooOOOO&&&OOO",
"OOOOOOOOOOoooOOOOOOOOOooooOOO+++   OOOooooOOOOOOOOOoooOOOO&&&OOO",
"OOOOOOOOOOoooOOOOOOOOOooooOOO+++   OOOooooOOOOOOOOOoooOOOO&&&OOO",
"OOOOOOOOOOoooOOOOOOOOOooooOOO+++   OOOooooOOOOOOOOOoooOOOO&&&OOO",
"OOOOOOOOOOoooOOOOOOOOOooooOOOOOOOOOOOOooooOOOOOOOOOoooOOOOOOOOOO",
"OOOOOOOOOOoooOOOOOOOOOooooOOOOOOOOOOOOooooOOOOOOOOOoooOOOOOOOOOO",
"OOOOOOOOOOoooOOOOOOOOOooooOOOOOOOOOOOOooooOOOOOOOOOoooOOOOOOOOOO",
"OOOOOOOOOOoooOOOOOOOOOooooOOOOOOOOOOOOooooOOOOOOOOOoooOOOOOOOOOO",
"OOOOOOOOOOoooOOOOOOOOOooooOOOOOOOOOOOOooooOOOOOOOOOoooOOOOOOOOOO",
"OOOOOOOOOOoooOOOOOOOOOooooOOOOOOOOOOOOooooOOOOOOOOOoooOOOOOOOOOO",
"OOOOOOOOOOoooOOOOOOOOOooooOOOOOOOOOOOOooooOOOOOOOOOoooOOOOOOOOOO",
"OOOOOOOOOOoooOOOOOOOOOooooOOOOOOOOOOOOooooOOOOOOOOOoooOOOOOOOOOO",
"OOOOOOOOOOoooOOOOOOOOOooooOOOOOOOOOOOOooooOOOOOOOOOoooOOOOOOOOOO",
"%%%%%%&&&&oooOOOOOOOOOooooOOOOOOOOOOOOooooOOOOOOOOOoooOOOOOOOOOO",
"%%%%%%&&&&oooOOOOOOOOOooooOOOOOOOOOOOOooooOOOOOOOOOoooOOOOOOOOOO",
"%%%%%%&&&&oooOOOOOOOOOooooOOOOOOOOOOOOooooOOOOOOOOOoooOOOOOOOOOO",
"%%%&&&&&&&oooOOOOOOOOOooooOOOOOOOOOOOOooooOOOOOOOOOoooOOOOOOOOOO",
"%%%&&&&&&&oooOOOOOOOOOooooOOOOOOOOOOOOooooOOOOOOOOOoooOOOOOOOOOO",
"%%%&&&&&&&oooOOOOOOOOOooooOOOOOOOOOOOOooooOOOOOOOOOoooOOOOOOOOOO",
"%%%&&&&&&&oooOOOOOOOOOooooOOOOOOOOOOOOooooOOOOOOOOOoooOOOOOOOOOO",
"OOOOOOOOOOoooOOOOOOOOOooooOOOOOOOOOOOOooooOOOOOOOOOoooOOOOOOOOOO",
"OOOOOOOOOOoooOOOOOOOOOooooOOOOOOOOOOOOooooOOOOOOOOOoooOOOOOOOOOO",
"OOOOOOOOOOoooOOOOOOOOOooooOOOOOOOOOOOOooooOOOOOOOOOoooOOOOOOOOOO",
"##########ooo#########oooo############oooo#########ooo##########",
"##########ooo#########oooo############oooo#########ooo##########",
"##########ooo#########oooo############oooo#########ooo##########"
};
