/* XPM */
static char *result[] = {
/* columns rows colors chars-per-pixel */
"64 64 9 1 ",
"  c #412320",
". c #59302C",
"X c #5C322D",
"o c #6D3B36",
"O c #434F65",
"+ c #9A544C",
"@ c #6F7F9F",
"# c gray55",
"$ c gray68",
/* pixels */
"OOO@@@@@@@@@@@@@@@@...    ............    ...@@@@@@@@@@@@@@@@OOO",
"OOO@@@@@@@@@@@@@@@@...    ............    ...@@@@@@@@@@@@@@@@OOO",
"OOO@@@@@@@@@@@@@@@@...    ............    ...@@@@@@@@@@@@@@@@OOO",
"..........   .........    ............    .........   ..........",
"..........   .........    ............    .........   ..........",
"..........   .........    ............    .........   ..........",
"..........   oooooooooXXXXooooooooooooXXXXooooooooo   ..........",
"..........   oooooooooXXXXooooooooooooXXXXooooooooo   ..........",
"..........   oooooooooXXXXooooooooooooXXXXooooooooo   ..........",
"..........   oooooooooXXXXooooooooooooXXXXooooooooo   ..........",
"ooooooooooXXXoooooooooXXXXooooooooooooXXXXoooooooooXXXoooooooooo",
"ooooooooooXXXoooooooooXXXXooooooooooooXXXXoooooooooXXXoooooooooo",
"ooooooooooXXXoooooooooXXXXooooooooooooXXXXoooooooooXXXoooooooooo",
"######$$$$XXXoooooooooXXXXooooooooooooXXXXoooooooooXXXoooooooooo",
"######$$$$XXXoooooooooXXXXooooooooooooXXXXoooooooooXXXoooooooooo",
"######$$$$XXXoooooooooXXXXooooooooooooXXXXoooooooooXXXoooooooooo",
"###$$$$$$$XXXoooooooooXXXXooooooooooooXXXXoooooooooXXXoooooooooo",
"###$$$$$$$XXXoooooooooXXXXooooooooooooXXXXoooooooooXXXoooooooooo",
"###$$$$$$$XXXoooooooooXXXXooooooooooooXXXXoooooooooXXXoooooooooo",
"ooooooooooXXXoooooo$$$XXXXooooooooooooXXXX$$$ooooooXXXoooooooooo",
"ooooooooooXXXoooooo$$$XXXXooooooooooooXXXX$$$ooooooXXXoooooooooo",
"ooooooooooXXXoooooo$$$XXXXooooooooooooXXXX$$$ooooooXXXoooooooooo",
"ooooooooooXXXooooooooo$$$$oooooooooooo$$$$oooooooooXXXoooooooooo",
"ooooooooooXXXooooooooo$$$$oooooooooooo$$$$oooooooooXXXoooooooooo",
"ooooooooooXXXooooooooo$$$$oooooooooooo$$$$oooooooooXXXoooooooooo",
"ooooooooooXXXooooooooo$$$$oooooooooooo$$$$oooooooooXXXoooooooooo",
"ooooooooooXXXoooooooooXXXXooooooooooooXXXXoooooooooXXXoooo$$$ooo",
"ooooooooooXXXoooooooooXXXXooooooooooooXXXXoooooooooXXXoooo$$$ooo",
"ooooooooooXXXoooooooooXXXXooooooooooooXXXXoooooooooXXXoooo$$$ooo",
"ooooooooooXXXoooooooooXXXXooo$$$ooooooXXXXoooooooooXXXoooo$$$ooo",
"ooooooooooXXXoooooooooXXXXooo$$$ooooooXXXXoooooooooXXXoooo$$$ooo",
"ooooooooooXXXoooooooooXXXXooo$$$ooooooXXXXoooooooooXXXoooo$$$ooo",
"ooooooooooXXXoooooooooXXXXoooooo$$$oooXXXXoooooooooXXXoooo$$$ooo",
"ooooooooooXXXoooooooooXXXXoooooo$$$oooXXXXoooooooooXXXoooo$$$ooo",
"ooooooooooXXXoooooooooXXXXoooooo$$$oooXXXXoooooooooXXXoooo$$$ooo",
"ooooooooooXXXoooooooooXXXXooooooooooooXXXXoooooooooXXXoooo$$$ooo",
"ooooooooooXXXoooooooooXXXXooooooooooooXXXXoooooooooXXXoooo$$$ooo",
"ooooooooooXXXoooooooooXXXXooooooooooooXXXXoooooooooXXXoooo$$$ooo",
"ooooooooooXXXooooooooo$$$$ooooooooooooXXXX$$$ooooooXXXoooo$$$ooo",
"ooooooooooXXXooooooooo$$$$ooooooooooooXXXX$$$ooooooXXXoooo$$$ooo",
"ooooooooooXXXooooooooo$$$$ooooooooooooXXXX$$$ooooooXXXoooo$$$ooo",
"ooooooooooXXXooooooooo$$$$ooooooooooooXXXX$$$ooooooXXXoooo$$$ooo",
"ooooooooooXXXoooooo$$$XXXXooooooooooooXXXXooo$$$oooXXXoooooooooo",
"ooooooooooXXXoooooo$$$XXXXooooooooooooXXXXooo$$$oooXXXoooooooooo",
"ooooooooooXXXoooooo$$$XXXXooooooooooooXXXXooo$$$oooXXXoooooooooo",
"ooooooooooXXXoooooooooXXXXooooooooooooXXXXoooooooooXXXoooooooooo",
"ooooooooooXXXoooooooooXXXXooooooooooooXXXXoooooooooXXXoooooooooo",
"ooooooooooXXXoooooooooXXXXooooooooooooXXXXoooooooooXXXoooooooooo",
"ooooooooooXXXoooooooooXXXXooooooooooooXXXXoooooooooXXXoooooooooo",
"ooooooooooXXXoooooooooXXXXooooooooooooXXXXoooooooooXXXoooooooooo",
"ooooooooooXXXoooooooooXXXXooooooooooooXXXXoooooooooXXXoooooooooo",
"######$$$$XXXoooooooooXXXXooooooooooooXXXXoooooooooXXXoooooooooo",
"######$$$$XXXoooooooooXXXXooooooooooooXXXXoooooooooXXXoooooooooo",
"######$$$$XXXoooooooooXXXXooooooooooooXXXXoooooooooXXXoooooooooo",
"###$$$$$$$XXXoooooooooXXXXooooooooooooXXXXoooooooooXXXoooooooooo",
"###$$$$$$$XXXoooooooooXXXXooooooooooooXXXXoooooooooXXXoooooooooo",
"###$$$$$$$XXXoooooooooXXXXooooooooooooXXXXoooooooooXXXoooooooooo",
"###$$$$$$$XXXoooooooooXXXXooooooooooooXXXXoooooooooXXXoooooooooo",
"ooooooooooXXXoooooooooXXXXooooooooooooXXXXoooooooooXXXoooooooooo",
"ooooooooooXXXoooooooooXXXXooooooooooooXXXXoooooooooXXXoooooooooo",
"ooooooooooXXXoooooooooXXXXooooooooooooXXXXoooooooooXXXoooooooooo",
"++++++++++XXX+++++++++XXXX++++++++++++XXXX+++++++++XXX++++++++++",
"++++++++++XXX+++++++++XXXX++++++++++++XXXX+++++++++XXX++++++++++",
"++++++++++XXX+++++++++XXXX++++++++++++XXXX+++++++++XXX++++++++++"
};
