/* XPM */
static char *result[] = {
/* columns rows colors chars-per-pixel */
"64 64 4 1 ",
"  c black",
". c #434F65",
"X c #6F7F9F",
"o c gray68",
/* pixels */
"...XXXXXXXXXXXXXXXX                          XXXXXXXXXXXXXXXX...",
"...XXXXXXXXXXXXXXXX                          XXXXXXXXXXXXXXXX...",
"...XXXXXXXXXXXXXXXX                          XXXXXXXXXXXXXXXX...",
"                                                                ",
"                                                                ",
"                                                                ",
"                                                                ",
"                                                                ",
"                                                                ",
"                                                                ",
"                                                                ",
"                                                                ",
"                                                                ",
"                                                                ",
"                                                                ",
"                                                                ",
"                                                                ",
"                                                                ",
"                                                                ",
"                                                                ",
"                                                                ",
"                                                                ",
"                                                                ",
"                                                                ",
"                                                                ",
"                                                                ",
"                                                                ",
"                                                                ",
"                                                                ",
"                                                                ",
"                                                                ",
"                                                                ",
"                                                                ",
"                                                                ",
"                                                                ",
"                                                                ",
"                                                                ",
"                                                                ",
"                                                                ",
"                                                                ",
"                                                                ",
"                                                                ",
"                                                                ",
"                                                                ",
"                                                                ",
"                                                                ",
"                                                                ",
"                                                                ",
"             oooooo                             oooooo          ",
"             oooooo                             oooooo          ",
"             oooooo                             oooooo          ",
"                   ooo                       ooo                ",
"                   ooo                       ooo                ",
"                   ooo                       ooo                ",
"                                                                ",
"                                                                ",
"                                                                ",
"                                                                ",
"                                                                ",
"                                                                ",
"                                                                ",
"                                                                ",
"                                                                ",
"                                                                "
};
