/* XPM */
static char *result[] = {
/* columns rows colors chars-per-pixel */
"64 64 99 2 ",
"   c #010101",
".  c #0A0505",
"X  c #0E0806",
"o  c #05060A",
"O  c #0B0709",
"+  c #07090E",
"@  c #0B090C",
"#  c #100907",
"$  c #140C0A",
"%  c #190F0D",
"&  c #1B110E",
"*  c #070A10",
"=  c #0A0D13",
"-  c #130E12",
";  c #1A0F11",
":  c #0D1017",
">  c #0E1219",
",  c #151013",
"<  c #1D1313",
"1  c #12151D",
"2  c #1B171A",
"3  c #1C1A1F",
"4  c #211613",
"5  c #241815",
"6  c #221619",
"7  c #251A1A",
"8  c #2C1D1C",
"9  c #301F1E",
"0  c #2F201E",
"q  c #131720",
"w  c #151A23",
"e  c #191D26",
"r  c #191E29",
"t  c #1C212C",
"y  c #1F2531",
"u  c #2D2221",
"i  c #342423",
"p  c #382624",
"a  c #3D2926",
"s  c #372A28",
"d  c #3E2D2A",
"f  c #212733",
"g  c #232936",
"h  c #262D3A",
"j  c #282F3D",
"k  c #2A313F",
"l  c #402B27",
"z  c #432E2B",
"x  c #45312E",
"c  c #48312F",
"v  c #463431",
"b  c #4D3532",
"n  c #4C3934",
"m  c #503734",
"M  c #523A35",
"N  c #543D39",
"B  c #5B3E3B",
"V  c #574037",
"C  c #56413B",
"Z  c #5A423B",
"A  c #61433F",
"S  c #2C3443",
"D  c #2F3847",
"F  c #303847",
"G  c #303749",
"H  c #323A4B",
"J  c #353F50",
"K  c #384154",
"L  c #3B4559",
"P  c #5E4540",
"I  c #5E4842",
"U  c #404B5F",
"Y  c #644541",
"T  c #654C45",
"R  c #6A4A45",
"E  c #6E4D49",
"W  c #704D49",
"Q  c #6C524B",
"!  c #72554D",
"~  c #73584F",
"^  c #7B5C53",
"/  c #7F6156",
"(  c #434F65",
")  c #455166",
"_  c #6D6475",
"`  c #6C697D",
"'  c #7F737E",
"]  c #876558",
"[  c #81747D",
"{  c #6C6D85",
"}  c #6D728D",
"|  c #757386",
" . c #7B7483",
".. c #72758C",
"X. c #78778C",
"o. c #7A788C",
"O. c #6D7691",
"+. c #6D7995",
"@. c #6E7D9C",
/* pixels */
"( ( ( @.@.@.@.@.+.+.O.O...X...X.o.o.o.Z Z Z C C V V C V n v v x x x x x x x x c c z c z z ` { | } } } O.O.+.@.@.@.@.@.@.@.) ) ) ",
"( ( ) @.@.@.@.+.+.O.O.} ....X.| o. . .A T ~ Q Z T Z C C Z V V n M n m m m m m m m m m m M _ ` ` { { } } O.+.+.@.@.@.@.@.@.) ) ) ",
"( ) ) @.@.@.@.+.+.O.} } } | ' '  .[ [ ~ ~ ~ ~ ~ ~ Q Q T A A Z A Z P B C B B B B B B B A B _ _ _ ` { { } } O.+.+.@.@.@.@.@.U ) ( ",
"h g f e 1 , < 7 i s x n C I T Q ~ ~ ~ / / / ~ / ~ ~ ~ ~ Q Q T Q Y Y Y Y Y Y Y Y A Y Y A A A B M b b z a p 9 7 < ; @ * q r S G J ",
"H H F j f 2 2 7 0 s d V C I Q Q ~ / / / ] / ] / / / ^ ~ ~ ~ ! A W R W R E R R R W A W A R A A B N m c z p 9 7 < ; = > r S G J L ",
"J L L H j t w 7 0 s s v C I Q ~ ~ ~ / / ] ] ] ] / / / ^ ^ ~ ! ! W R W W W R Y W W W W W W A A A B m c z p 9 7 ; ; q r S G J U ( ",
"D H H S g e < , : , < 0 u s d d v V V V C V C V V V V V V V V v z z z z z l z A A A A A A A A B N m c l 9 8 5 6 1 r y G J ( ) ( ",
"D G F S h f 1 - @ @ $ , & < < < 4 4 4 4 0 5 5 5 5 5 5 4 & & $ & < % % ; ; % 5 z c l c l l c l a p 9 8 5 4 ; % $ , w t S G J J J ",
"k S K k k y w 1 : # # @ % % & & & < 4 5 4 4 4 4 4 4 4 4 & 4 & & % % % % & & & & & & & & & & & % % $ # X . . . + = > q w f f g g ",
"S K k K k g t q > = + # @ $ $ % & & & & < 4 4 4 4 4 4 & & & & & % % ; % & & & & & & & & % & & % $ # # X . o O @ > q e r f g h g ",
"S K K k k h t r w : @ # X @ @ # $ $ $ & & & & & & 4 & & & & % % % $ % % & & & & & & $ & % % $ # # # O O . o = = 1 w r t f f g g ",
"k S k K h h t t t 1 : - + X X X # $ $ $ % $ & & & & % % % % & $ $ $ $ $ & $ & $ & & $ $ # $ $ X # X O   . = = > 1 q w r r f f f ",
"j K h j h g t t t w 1 : + @ X . X X # $ $ $ $ % $ $ $ $ # $ $ $ $ # # $ $ & $ & $ $ % # # # X X . . . . O = = 1 q w w r r f r t ",
"h k k h g y t t t w 1 > = + . o . X X X # # X # $ $ $ $ # X # # # # # # # # # $ % % # X X # X . . . .   = = 1 1 w w w w r r f r ",
"h j k h y t t t w w q 1 : = + .   o . . X X X X X X # X X X X X X X X X # # # # # # # X X X . . . o   + = > > q w w w w e t r r ",
"h h h g y t r w t w 1 1 1 : = + o .   . X o . . X . X . . . . . . . . . X X X X # # X X . .   . .   O @ = > 1 1 q w q w e r r r ",
"h j h g y t r w e q q q > > : * o o .   . .   . . .     .   . . . . . . . . . O . . . X   .         + = : > > q q q q q w e e e ",
"h j h y y r r w w q q > > > : * * o o                 .                   .       .         .     o O = = > > > q > > q q q w q ",
"h h g g t w w q q 6 6 4 2 2 = * * o o   .                 .                                   o o o o ; ; 2 6 < < > > > > q q q ",
"y g f t r q 0 2 6 < ; ; ; ; ; $ $ o o o                                             .         o o # $ ; ; < < ; < < < > q q q q ",
"w 1 1 : = $ X o . .   . . . . .   .                                                             .   O O O X . . . . O O o o o o ",
": : : + + o . . . .   .                                                                                     . .     .   o o o o ",
": : : + o .   .                                                                                                       .   o   o ",
": : : + @ X .   .   . . .                                                                                 .                   o ",
": = = + O O . .   . . . .                                                                                         .   .         ",
": = = + # O .   .   . .                                                                                 .   . .           .   o ",
": : : + X O . . .       .                                                                                   .           .     o ",
": : : + X O . .   .                                                                                                   .   o     ",
"= : = = + . .   .   .                                         . .                                                         .   o ",
"= : = = + O .     .           .                                                                                                 ",
"= = = * + . . o .                                               .                                                             o ",
"= = = = + o .       .                                                                                                   o       ",
"* * * + o o   o                                                                                                                 ",
"o * o o o   o     o                                                                                                             ",
"* + o o o     o o                                                                                                               ",
"* * + o o o o   .                                                                                                         o     ",
"* = * + o o   o     o                                                                                                         o ",
"* * * + o o                                                                                                                     ",
"* = = + o   o                                                                                                               o   ",
"* = = o o o                                                                                                                 o   ",
"= = * + o                                                                                                                     o ",
"* * * * o   o                                                                                                             o   o ",
"= = = o o o                                                                                                               o   o ",
"= = = o                                                                                                                       o ",
"= = = * o o                                                                                                                 o o ",
"= : = * o                                                                                                             o   o   o ",
"= : = * o o                                                                                                             o   o o ",
"= : = + o o   o                                                                                                           o o o ",
"= : : = o o                                                                                                           o   o + * ",
": > : = o o o                                                                                                           o o o * ",
": > : = + o   o                                                                                                     o o o o * * ",
": > > = + o o                                                                                               o           o + * = ",
": > > > * + o                                                                                                         o o * = = ",
"> q > > = + o                                                                                                       o o o * : > ",
"1 q q > : * o o o                                                                                               o     o + = : > ",
"q q w q : * + o o                                                                                                 o o o * = > > ",
"w w w q : = + o   o   o                                                                                           o o + = 1 1 1 ",
"q w w q > = + o o o o     o o                                                                           o   o     o = = = q q 1 ",
"w e e q 1 = * o o o o o   o o                           o                     o                   o   o   o o o o o = = 1 q q 1 ",
"w e w q 1 : = = * + + o o o o o o o   o o o       o   o o   o       o   o                             o   o o + o + = > 1 q w q ",
"w e w w 1 q q q q > > : : : : = = * * * * * * * + * * * * + o o o + o + o o o o o o   o o o o o o o o + + = = = = = - 1 1 w w w ",
"w w w w e r r r r r r e e w w w w q > q 1 1 > > > > > > = = + + + * = = = = * + + + * * + * * = = = = : > > q 1 1 q q q 1 w w 1 ",
"w w w r y y y y y t y r r r r r e e w e w w 1 > 1 1 1 > > = = * + = = = : = = > : > : > : > > > > > > w w w w e e e e e w w w 3 ",
"w w w w w w q q w q q q q 1 q q 1 1 > > > > > > = = > = = = * + = = = = = = = = = = = > = = > > > > > > > 1 q q 1 q w w w w w q "
};
