/* XPM */
static char *result[] = {
/* columns rows colors chars-per-pixel */
"64 64 114 2 ",
"   c #010101",
".  c #0A0504",
"X  c #0E0806",
"o  c #04060A",
"O  c #0C0709",
"+  c #06090E",
"@  c #0C090B",
"#  c #120602",
"$  c #110906",
"%  c #190A04",
"&  c #100708",
"*  c #140C0B",
"=  c #190F0D",
"-  c #1B110E",
";  c #070A10",
":  c #0A0D13",
">  c #160E11",
",  c #190F11",
"<  c #0C1017",
"1  c #0E121A",
"2  c #151013",
"3  c #1D1313",
"4  c #11151D",
"5  c #1B171A",
"6  c #1C1A1F",
"7  c #250E01",
"8  c #291002",
"9  c #251C06",
"0  c #311402",
"q  c #211614",
"w  c #241815",
"e  c #231619",
"r  c #261A1B",
"t  c #2A1B1D",
"y  c #301F1E",
"u  c #2A2007",
"i  c #2F201E",
"p  c #33211E",
"a  c #131720",
"s  c #151A23",
"d  c #191D27",
"f  c #171D28",
"g  c #191E29",
"h  c #2A1C20",
"j  c #1C222D",
"k  c #1F2531",
"l  c #2D2221",
"z  c #20232E",
"x  c #342423",
"c  c #382624",
"v  c #372A28",
"b  c #3E2D2A",
"n  c #212633",
"m  c #232936",
"M  c #262C3A",
"N  c #292F3D",
"B  c #2A303F",
"V  c #402B27",
"C  c #432E2B",
"Z  c #45312E",
"A  c #48312F",
"S  c #463431",
"D  c #4D3532",
"F  c #4C3934",
"G  c #503734",
"H  c #523A35",
"J  c #543D39",
"K  c #5B3E3B",
"L  c #574037",
"P  c #56413B",
"I  c #5A423B",
"U  c #61433F",
"Y  c #2C3443",
"T  c #2F3847",
"R  c #2F3749",
"E  c #2F3848",
"W  c #303646",
"Q  c #313847",
"!  c #303749",
"~  c #323A4B",
"^  c #363F51",
"/  c #374052",
"(  c #394253",
")  c #3C4659",
"_  c #3E485C",
"`  c #5E4842",
"'  c #404A5E",
"]  c #644541",
"[  c #654C45",
"{  c #6A4A45",
"}  c #6E4D49",
"|  c #704D49",
" . c #6C524B",
".. c #72554D",
"X. c #73584F",
"o. c #765A52",
"O. c #7B5C53",
"+. c #7F6156",
"@. c #434F65",
"#. c #455166",
"$. c #6D6475",
"%. c #6C697D",
"&. c #7F737E",
"*. c #826256",
"=. c #876558",
"-. c #6C6D85",
";. c #6D728D",
":. c #757386",
">. c #7B7483",
",. c #72758C",
"<. c #7A788C",
"1. c #6D7691",
"2. c #6D7995",
"3. c #6E7D9C",
/* pixels */
"@.@.@.3.3.3.3.3.2.2.1.1.,.,.,.<.<.<.<.I I I P P P P L L F S S b S C S Z Z Z A A C C A C C %.-.;.;.;.;.;.2.2.2.3.3.3.3.3.3.#.#.#.",
"@.@.#.3.3.3.3.2.2.2.1.1.,.,.:.<.<.&.&.[ [  .[ U U [ P P L L J J F F G G G G G G G G G G H %.%.%.-.-.;.;.1.2.2.3.3.3.3.3.3.#.#.#.",
"@.#.#.3.3.2.3.2.2.1.,.,.:.:.>.&.&.&.&.X.X.X.X.X.X. . .[ [ U U I K K K K K K K K U K U U L $.$.$.%.-.-.;.,.1.2.3.3.3.3.3.3.@.#.@.",
"M m n d 4 2 3 r i v b F P ` [  .X.X.O.O.+.+.o.O.X.X.X. . . .[ U [ ] ] ] ] ] ] ] U U U U U U K H G D C b x y r , > * ; 4 f M R ^ ",
"~ ~ Q M z 6 5 r l v b F P `  . .O.O.+.*.*.*.*.*.+.+.O.X.X.X...} } } { { { { { | { U | U } U U L J G A C c y r q > 1 1 k M R / ) ",
"^ _ ) ~ N j 6 6 l v b F P ` [ X.X.O.+.*.=.=.=.=.=.+.+.+.O.X.X...| | | | { { { | | | | | { U U U K G A V c y r 3 > a f M ^ ) ' ' ",
"Y ~ ~ Y m d 5 2 < 5 5 u p v b b S F L P P I P P L P P L L H D D C C C C C V C K U { { U U U U U H G A V p t w 3 5 g k R ( @.#.@.",
"Y ~ ~ Y M z 4 2 @ X * 2 - 3 3 6 3 w 5 w w w w u 9 w w - - q - - , = = , = , e C V C C V V A C p c p t w q q % > 4 s k M R ^ ^ ^ ",
"B / / B B n d < < @ @ * * = 2 - - q q 9 5 5 5 5 w w u 3 5 3 - - - = = 3 - - - - - - - - - - - = * * $ $ . . . o ; 1 4 d j m m m ",
"B T T / B n j 4 4 : @ X * * * * = - - - 5 9 9 w - 5 3 - - - - - = = = = - = - - - - - - - - - * * * $ $ o . + : > 4 s j n m M m ",
"B / / B B M j j 5 < : X @ @ * * * = = - * - - - - 9 - - - - = * = = * = = - = - - - - = = = * * * $ . . . o + 2 4 s d j j M M n ",
"B T / B N M j j j 1 < : X X . . @ * $ - - * - - - - - - % = = = * * * * = = = = - = = % * $ * X . . . . + + : 1 a s s g j k n j ",
"B B / N M n j j j a 1 < ; X o . . X * $ * = * * - * * * * * * * $ * * * * = * = * = = * X X X X . . . . X ; < 4 4 s s s j j j j ",
"M B B M m k j j d j a 1 : ; . o . X . X $ $ $ X * * * $ $ $ $ $ $ $ $ @ * $ * * * $ $ X X X X . . . . o + < 1 4 s s s j j j j j ",
"N N N M n k j j j 4 a 4 < : ; .   . . X X X X X X X X X X . $ $ X X X X X X X X $ * X X X . X .   . o o < < 4 4 s s 4 s s j j s ",
"M N M m k j s s j s 4 4 1 < : ; o o o o . o . . X . X . . . . . . . . . X X X X X X X X X .   . . o . + < 1 1 4 s 4 s s s s j j ",
"M N M m k j f s f a a a 1 1 < ; o o .   . .   . . .   .   . .     . . . . . . . . . . .   .       o o + < < 1 a a a 4 a s f f f ",
"M M M m j j s s s a a 1 1 1 < ; + o o                                       .   .   .         o   o o : < < 1 1 4 1 1 4 a a s a ",
"m M M n j f s s a e q e 3 3 < ; + + o                                                           o o o - , e 3 e 3 1 1 1 4 a a a ",
"m m m j f s i w e e , , , 3 > > & ; o                                                     . o . o * * 3 , 5 3 3 3 5 e < 4 a a a ",
"m m n k f i 5 q q , , = , > > * & $ o o                                                     o   $ & > , , 3 3 3 e 3 , e 4 4 a 4 ",
"m m n g s 6 q 3 , 0 q 0 = > & & * . o                                                       o . * * & , , , 0 , , 3 3 , 5 4 4 4 ",
"n m n j s t w 3 q = = = 8 * & O . & o                                                     o   O & & > > 3 = = = , , , , , 1 4 1 ",
"n m n g t r e w q = 8 8 8 * * & & . .                                                     o O . & O & * = 8 = * * * , , , , 1 < ",
"n n k g r e 3 q 3 8 8 8 9 = & . O . .                                                       . . O O * * = 7 8 8 , > * > > , < < ",
"k k k f h e 3 q 3 = 9 9 * * * . . . .                           .                         o . . O & # * 7 7 8 u * , , > , , < : ",
"k n k g h e 3 q q # % % % * & . . . .                     .   .   . .                       . . . . # * * 9 9 % * , * > > , : : ",
"n m n j h h e e q 3 # # * * * O . . . o                     . . # . .                         . . O . $ . . # % * & & & * , : : ",
"k n k j s r e 3 3 = # % * * O O . .                       . . . # # . . . .                 . . . o & $ & # . * > > & > > > : ; ",
"k k j j s e 3 3 , - > & * O . O o .   o                 .   . # # .                         o   . . . & & # # * & & & & > : : : ",
"j k j g s r 3 , 3 > * > & & & O . &                       . . . # .   . .                   o . . o   O & & & > & & & > > < : ; ",
"j j j d s 4 q , 3 > * * * O O . .   o                   .     . . . . .                         .   . . + O @ & & @ & & ; ; ; ; ",
"f j f s 4 1 : 1 1 > * * @ X o o o   o                   . . . . . . .                       o   o   .   . O O & & O . + + + + + ",
"s s s 1 1 1 1 1 : : ; + + + o o o o                           . .   .   .                         o o .   . O O O + o o + + + + ",
"s j s s 4 1 1 1 1 : : + + + o o o o                       .       .   .                           o o     o o o o o o o o + + o ",
"s j j s a a 1 1 1 1 < : + + + + o   o                                                                 o   o o o o   o + + + + + ",
"j n j j s a 4 1 1 < : : ; ; + + + o                                                         o           o   o o + o + + ; ; : ; ",
"k n j j s a 4 1 1 1 < : : ; : ; o o o                                                           o   o o o o + + + + ; : < 4 < : ",
"n m n j g s a 1 1 1 1 : : : : + o o                                                                 o     o o + + + ; : < 1 2 < ",
"n M m j f s a a a 1 1 : : ; : : o o o                                                             o   o o o o + ; + ; : < 1 1 < ",
"n m n j g s s 1 4 1 1 : : ; ; ; o o                                                             o     o o + ; ; + ; : : 1 1 1 1 ",
"m m m k j s s s s 4 1 < < : : : o o o                                                     o   o   o o o o + ; : : : : 1 1 s s 1 ",
"M M m k j s s 4 4 4 1 1 : : : ; + o o                                                         o o o o o + + : : : : 1 1 1 s s 1 ",
"M B M m j s s s a 4 1 1 < < : ; ; +                                                               o o o o + : : < : : 1 1 s s 4 ",
"M M Y k k g f s 4 4 1 1 1 1 1 : ; + o                                                         o o o   o o + ; < : : 1 1 s s 4 1 ",
"M Y Y M k j s s f s s 1 1 1 : : ; o                                                           o o o o o o + ; : : : 1 1 s s s s ",
"M Y M M k k f f s s s s 1 1 1 1 : o o                                                       o   o o o o + + ; ; : : 1 1 s s s s ",
"M Y Y Y m k k j j j s s s 4 1 : ; o                                                       o   o o + + + + ; 1 < 1 1 1 s j j j s ",
"Y Y Y Y k k k k k k f f 4 1 < : o o                                                       o   o + + + ; : : 4 1 1 1 a a g j j g ",
"Y Y Y Y Y k k k k k g f a < : ; + o   o       o                                               o + + + ; ; : 4 4 4 4 a d g j j g ",
"Y E E Y Y k M k M k k f a < < : : : : ; ; + o o o o o o o     o   o           o   o         o o o + ; ; : 1 4 4 4 4 4 s g k j g ",
"Y E R E Y M M M M k k f 4 < < a a s 1 1 1 : : 1 : ; + + + + o o o o o o o o o o o o o o o o   o o + ; ; : : 4 4 4 a a d j k k k ",
"Y E ~ R Y M M m M M k a 4 a s f s s 1 1 1 1 < 1 : ; ; ; + + o o o o o o o o o o o o o o o o   o o o ; ; : 4 4 d a s s j k m m k ",
"E R ~ ~ Y Y M M M k j f f g j g j s s a s 1 1 1 < < < : ; + + + + + + o + + o o o o ; + ; + ; + o o @ ; : 4 a s s s g k m M M m ",
"R ^ ^ ~ E Y Y M M m k j j j k j f s s s s 1 1 1 1 : < : ; ; + ; ; + o o + + + + o + ; ; + ; ; ; + + + ; : 1 a d g s g k m M Y n ",
"R ^ ^ ^ R Y Y M M Y Y k k k k k j f s 1 4 s a 1 1 < 1 : : : : ; ; ; + + + + o o o + + ; ; ; ; : : : ; : : 4 a d s g j n M M Y m ",
"W ^ ( ( ~ W B N Y Y Y Y M M M Y M k s f s j f s s 1 s 1 1 1 < < : 1 : < : : : : ; ; : : < < < 1 1 4 1 4 4 5 s d g j z M Y Y Y N ",
"~ ( ( ^ ~ B N N Y Y W R Y Y Y Y M k f s j j j j s s s 4 s s 1 4 1 1 1 1 4 4 1 1 : : : 1 1 1 1 4 a a a s g g d g g j n M Y W W Y ",
"^ ( ( ( W B M M Y Y Y N m Y m m k k f f j j f s s s s s 4 4 4 4 a 1 4 1 4 4 4 1 1 < : 1 1 1 4 a s s d s g j z j h j m Y W ~ W Y ",
"^ ( ( ^ W B Y Y Y Y M N Y k Y m m k k k j k j s s f s s s s 4 1 1 a 4 a 4 4 1 1 1 1 1 1 1 1 4 a a a a a d j j j j k M Y W ~ W Y ",
"W ^ ~ ~ ~ ^ ^ ^ ^ ^ ^ ~ Y R R Y Y M Y M M M M k k k k k j g s s s d g j g f s s d s d g f g g j j j j k n N B N M M M W ! ~ ~ W ",
"W ^ W ^ ^ ) @.' _ ) ) ^ ^ ^ ^ ^ ~ ~ Y E T T M M M M M M m j s s d j j n k m k k j n k n n n m m M M M M Y ~ ~ ~ W W W W ! ~ ~ W ",
"W W ~ ( ) _ _ _ _ ) ) ) ^ ^ ^ ^ ~ ~ ~ T T T Y M B M M Y m k j d g j j m m m m m m m m M m M N B Y Y Y Y ~ ~ ^ ~ ^ ^ ^ ^ ~ W W W ",
"W W B W ~ ~ ~ R R R R Y Y Y Y Y B N M M M M M n k k k k j j s g g j j g j j j k j n n n n n n m m M m M N N Y W N W W W ! W W W "
};
