/* XPM */
static char *result[] = {
/* columns rows colors chars-per-pixel */
"64 64 106 2 ",
"   c #010101",
".  c #0B0505",
"X  c #0E0806",
"o  c #04060A",
"O  c #0B0709",
"+  c #06090E",
"@  c #0C090B",
"#  c #150601",
"$  c #190701",
"%  c #110907",
"&  c #1C0901",
"*  c #140C0B",
"=  c #180F0D",
"-  c #1A1303",
";  c #1B110E",
":  c #070A10",
">  c #0A0D13",
",  c #140E11",
"<  c #190F11",
"1  c #0D1017",
"2  c #0E1219",
"3  c #151013",
"4  c #1D1313",
"5  c #11151D",
"6  c #1B171A",
"7  c #1C1A1F",
"8  c #220C01",
"9  c #211613",
"0  c #241815",
"q  c #231619",
"w  c #251A1A",
"e  c #301F1E",
"r  c #2F201E",
"t  c #131720",
"y  c #151A23",
"u  c #181D26",
"i  c #191E29",
"p  c #1C222D",
"a  c #1F2430",
"s  c #2D2221",
"d  c #20242F",
"f  c #382624",
"g  c #3D2926",
"h  c #372A28",
"j  c #3E2D2A",
"k  c #212632",
"l  c #232936",
"z  c #262D3A",
"x  c #282F3C",
"c  c #29303E",
"v  c #402B27",
"b  c #432E2B",
"n  c #45312E",
"m  c #48312F",
"M  c #463431",
"N  c #4D3532",
"B  c #4C3934",
"V  c #503734",
"C  c #523A35",
"Z  c #543D39",
"A  c #5B3E3B",
"S  c #574037",
"D  c #56413B",
"F  c #5A423B",
"G  c #61433F",
"H  c #2C3443",
"J  c #2F3847",
"K  c #2F3848",
"L  c #303847",
"P  c #303749",
"I  c #323A4B",
"U  c #353F50",
"Y  c #384154",
"T  c #3B4559",
"R  c #5E4540",
"E  c #5E4842",
"W  c #404B5F",
"Q  c #644541",
"!  c #654C45",
"~  c #6A4A45",
"^  c #6E4D49",
"/  c #704D49",
"(  c #6C524B",
")  c #72554D",
"_  c #73584F",
"`  c #765A52",
"'  c #7B5C53",
"]  c #7F6156",
"[  c #434F65",
"{  c #455166",
"}  c #6D6475",
"|  c #6C6679",
" . c #6C697D",
".. c #7F737E",
"X. c #826256",
"o. c #876558",
"O. c #6C6D85",
"+. c #6D728D",
"@. c #757386",
"#. c #7B7483",
"$. c #72758C",
"%. c #78778C",
"&. c #7A788C",
"*. c #6D7691",
"=. c #6D7995",
"-. c #6E7D9C",
/* pixels */
"[ [ [ -.-.-.-.-.=.=.*.*.$.*.%.%.&.&.&.F F F D D D D D S B M m M b n n n n m n n b m m b b  .O.+.+.+.+.*.*.=.-.-.-.-.-.-.-.{ { { ",
"[ [ { -.-.-.-.=.=.=.*.+.$.@.@.#.#...#.! ! ( ( G G F F D D D Z B V V V V V V V V V V V V V |  . .O.O.+.+.*.=.=.-.-.-.-.-.-.{ [ { ",
"[ { { -.-.-.-.=.=.*.$.+.@.@.#.#......._ _ _ _ _ ( ( ( ! ! F F F R D A A A A A A G G A G Z } } }  .O.O.+.+.*.=.=.-.-.-.-.-.W [ [ ",
"z l k u 5 3 3 w s h n B D E ! ( _ _ ' ] ] ] ` ` ` _ _ _ ( ^ ~ ! Q Q Q Q Q Q Q Q G G G G G F A Z V N b g f e w 4 < @ > t i H P U ",
"I U L x d 7 6 w r h j S R E ( _ ` ] ] ] X.o.X.X.] ] ' ' _ _ ) ^ ^ ^ ~ ~ ^ ~ ~ ~ ~ ~ G G Q G G A Z V m v f e w 4 , 1 2 i H P U T ",
"I T T I x d 7 w r h h M B E ( ( _ _ ] ] o.o.o.o.o.] ] ] ' _ _ ) / / / / ^ ~ ~ / / / / / ~ ~ G G A V m v f e w 4 < t i H P T W W ",
"J I I H l u 6 3 1 ; 6 r r h j j M S S S S S S S S S S S S S M M b b b b b v b G G ~ ~ G G ~ G F C V m v f e q 4 6 i a P T W { [ ",
"J P P H z d 5 , @ @ % 3 4 4 4 6 9 9 4 0 4 r 0 0 0 0 0 - - 4 4 ; 4 = = < = < q v b b v v v b g g f e e 0 4 8 , , 5 y a z K U U U ",
"c Y Y c c a p 1 1 @ @ - * 3 - 3 4 4 4 6 0 0 0 0 0 0 9 9 ; 9 ; ; = = = ; ; ; ; ; ; ; ; ; ; ; ; ; * * * X . . . + : 2 t u p l l l ",
"c c Y J c a p 5 5 @ @ @ @ * * 3 = - ; ; 6 - 4 6 9 ; 9 ; ; 4 ; ; = = = = ; ; ; ; 4 ; ; ; ; ; ; * * * X O O . o @ , 5 y p k l z l ",
"c Y Y c c z p p y 1 @ @ X % % % * 3 3 - - ; ; ; ; 9 ; ; ; ; = * * = = = = ; = ; ; ; = = = = * * % % . . . o > 1 5 y u p a l l l ",
"c J Y c c l p p u y 2 @ + o X X X % * 3 ; ; ; ; ; - ; = = = - * * * * * 3 - * = ; ; * * % $ * X X X . . O + > 1 t y y i p a a a ",
"c c Y x z a a p p 5 5 > : X . . X X X * * * * - = - = * * * * * * * % = * = = = * = = % % % X X X . . . o > 1 5 t y y y p p p p ",
"x c c z l a p p p p 5 5 1 : . o . . X X * X X * % * * X % % * % % % % % % % % = * $ % X X X X X .     . + 1 2 5 t y y i p p p u ",
"z c x z a p p p y y 5 5 1 > + o . . . X X . X X X X X X . . % % X X X . X % X % % % % X X X X . .   o + > 1 2 t y y y y y p p u ",
"z x z l p p p y p y 5 5 5 1 > + o o     . . . . . . . . . . . . . . . . X . X X X X X X .     .   . . + 1 2 t t t t t y y u p p ",
"z x z l a p y y y y t t 2 2 1 : o o   .   . .   .   . .     .   . . .     . . . . . . . .     . . o o : 1 2 2 t t t t t y i i y ",
"z z z l a p y y y t t 2 2 2 1 : + o o                   .             .   .           .           o o : > 2 2 2 2 2 2 t t t y y ",
"z z l a p y y t t q q 4 4 4 1 : + o o .                                           .           o   o + = < q 4 q 6 2 2 2 t t t t ",
"l l l a p p r 7 q q 4 4 4 3 , , , o o .                                                         o * = < < 4 4 4 4 q < 2 2 t t 2 ",
"a a a p 5 r 4 4 4 < < < , * * * * * o                                                         o O X % O < , < * * , , < 1 > 2 2 ",
"i u u 5 2 3 = * X 8 % & . . . .                                                               . . O O % O % 8 O * * * * , > > > ",
"u u u 5 1 4 = * * % X X # . .     .                                                           . . . o . % % % % O * * * @ > > : ",
"y i y 2 4 4 , = = X & $ # .   .                                                               . . . . . % $ % % % O O @ @ @ : : ",
"y y t 5 4 < , * * 8 $ $ $ .                                                                 .   . . . . X & & & % O . % O @ : : ",
"t y t 5 4 < * * * % - & . . .   .   .                                                               . X $ & & - % % O % % O : o ",
"t y y 5 4 < * = * . . # . . .     .                                 .                         . .   . . . $ & . . % . % O O : o ",
"y i y 5 < < < = * % . . . . .                                   .                               .   . .     . . . O o . O * o o ",
"y y y 5 2 3 < @ * % . . .   .   .                             . .   .                               . .     . . % . . . O * o o ",
"t y y 5 1 , * @ O % . . .     . .                             . . .                               .     .   . . . . o O O : + o ",
"t y t 5 1 , * O X . . . .   .                                 . . . .                                   . . . . . . O . O o o o ",
"5 t 5 2 2 > * * @ O . .                                       . .                               .     .         . . . O o o o o ",
"2 5 2 1 > : + + + o . o .                                           .                                   .   . o . . . o     o o ",
"2 2 1 1 > + + + + o                                             .                                               .   o   o o o o ",
"2 5 2 1 > + : + + o o   o                                                                           .               o     o   o ",
"5 5 5 1 > > : : + o o o       o                                                                             o     o   o o   o o ",
"5 y t 5 1 > : : o o o                                                                                         o       o o o o o ",
"t y y 5 1 > : o o o o                                                                                         o o o o o o : + + ",
"y i y t 1 > : + o o o                                                                                             o o o + : : + ",
"y i y 5 1 > + o o o                                                                                           o o   o o + : : + ",
"y y y t 1 > : : o o                                                                                     o         o o o o > > : ",
"y i y t 1 : o o o                                                                                                 o o o + > > > ",
"i i i t 1 : : o o                                                                                             o   o o o > > > > ",
"i a i y 1 + o o   o                                                                                               o o o > > 1 > ",
"i i i y 2 > : o                                                                                               o   o o o : > 2 > ",
"i a a y 5 > o o o o o                                                                                             o o o > > 2 > ",
"p a p i 5 > : o o                                                                                                 o : : > 2 5 > ",
"i a p i 5 1 > : o o o                                                                                     o   o   o : > > 5 5 5 ",
"a a a i t 2 > : : o                                                                                       o     o o : > 1 5 t 5 ",
"a a a i y 2 1 > : o o o o                                                                                   o o o o : > 1 5 5 5 ",
"a a a a y t 2 > : : o o                                                                                   o o o o o > > 2 t t 5 ",
"a z a a y t 2 > : : o o                                                                             o       o o o o : > 5 t t 5 ",
"a z z a i t 1 1 : : o o       o                                                                         o   o o : : > 1 5 y y y ",
"a a a a i t 2 1 : : o   o       o                                                         o               o o + : > > 2 t i i y ",
"z z z a i y 5 1 > : o o o   o                                                                           o o o o : : 1 5 t i p i ",
"a H H a a y t 1 > > : o o o o o o       o                                                             o   o o o : : 1 5 y p i i ",
"l x c l d u 5 5 5 5 > > : > + + o o                     o     o           o                         o o . o + @ : > 5 5 u k d i ",
"l x x l i u 5 5 5 5 5 5 > > > : : o o o o o o o o o o o o   o     o o   o             o o   o   o o o o o : : : : 1 y y i k k k ",
"z x x l d u y 5 5 t 5 5 5 1 5 > > : o o o o o o o o o o o o o o o o o o o o o     o o       o o o o o + : > > > > 2 t i k k k d ",
"x x x l d i i y y t t 5 5 5 1 1 1 > > > : : : o o o : : : o o o o o o o o o o o   o o o o o o o o o + : > 1 2 2 1 5 y d d k k k ",
"l x l k k k l k a a a i i p i u u y t t t 5 2 2 2 5 5 5 2 2 > : > 2 2 2 1 1 1 > > > > > > 1 1 1 2 2 2 2 t y y i y u p d k l l k ",
"k l k z z H H H H H H z z l z l l a a a a a i u u i i u i 5 2 1 2 2 t y y t 5 5 t 5 5 y t t t u u u u i i k k k d k d k k l l k ",
"k l l x H H J H H H H H x x z z l l z a a l a p p p a i u y 5 2 5 t y y u u u y u u u u i i i p a a a a k k z l z z x z z l k d ",
"d k k k l l k k k a k k a a a a p p p i p i u y y y y t t 5 5 2 5 t 5 5 5 t t t t t y y y y y u u u i u d d d d d d k k k l k k "
};
