/* XPM */
static char *result[] = {
/* columns rows colors chars-per-pixel */
"64 64 10 1 ",
"  c #412320",
". c #59302C",
"X c #5C322D",
"o c #6D3B36",
"O c #434F65",
"+ c #9A544C",
"@ c #6F7F9F",
"# c gray55",
"$ c gray68",
"% c #A6B0C4",
/* pixels */
"@OOO@@@@@@@@@@@@@@@@                          @@@@@@@@@@@@@@@@OO",
"@OOO@@@@@@@@@@@@@@@@                          @@@@@@@@@@@@@@@@OO",
"@                                                               ",
"@                                                               ",
"@                                                               ",
"@                                                               ",
"@                                                               ",
"@                                                               ",
"@                                                               ",
"O                   ...    .............   ...                  ",
"O                   ...    .............   ...                  ",
"O                   ...    .............   ...                  ",
"%..........   .........    .............   ..........   ........",
"%..........   .........    .............   ..........   ........",
"%..........   .........    .............   ..........   ........",
"@..........   oooooooooXXXXoooooooooooooXXXoooooooooo   ........",
"@..........   oooooooooXXXXoooooooooooooXXXoooooooooo   ........",
"@..........   oooooooooXXXXoooooooooooooXXXoooooooooo   ........",
"@..........   oooooooooXXXXoooooooooooooXXXoooooooooo   ........",
"@ooooooooooXXXoooooooooXXXXoooooooooooooXXXooooooooooXXXoooooooo",
"@ooooooooooXXXoooooooooXXXXoooooooooooooXXXooooooooooXXXoooooooo",
"@ooooooooooXXXoooooooooXXXXoooooooooooooXXXooooooooooXXXoooooooo",
"@######$$$$XXXoooooooooXXXXoooooooooooooXXXooooooooooXXXoooooooo",
"@######$$$$XXXoooooooooXXXXoooooooooooooXXXooooooooooXXXoooooooo",
"@######$$$$XXXoooooooooXXXXoooooooooooooXXXooooooooooXXXoooooooo",
"@###$$$$$$$XXXoooooooooXXXXoooooooooooooXXXooooooooooXXXoooooooo",
"@###$$$$$$$XXXoooooooooXXXXoooooooooooooXXXooooooooooXXXoooooooo",
"@###$$$$$$$XXXoooooooooXXXXoooooooooooooXXXooooooooooXXXoooooooo",
"OooooooooooXXXoooooooooXXXXoooooooooooooXXXooooooooooXXXoooooooo",
"OooooooooooXXXoooooooooXXXXoooooooooooooXXXooooooooooXXXoooooooo",
"OooooooooooXXXoooooooooXXXXoooooooooooooXXXooooooooooXXXoooooooo",
"OooooooooooXXXoooooooooXXXXoooooooooooooXXXooooooooooXXXoooooooo",
"%ooooooooooXXXoooooooooXXXXoooooooooooooXXXooooooooooXXXooo$$$oo",
"%ooooooooooXXXoooooooooXXXXoooooooooooooXXXooooooooooXXXooo$$$oo",
"%ooooooooooXXXoooooooooXXXXoooooooooooooXXXooooooooooXXXooo$$$oo",
"@ooooooooooXXXoooooooooXXXXoooooooooooooXXXooooooooooXXXooo$$$oo",
"@ooooooooooXXXoooooooooXXXXoooooooooooooXXXooooooooooXXXooo$$$oo",
"@ooooooooooXXXoooooooooXXXXoooooooooooooXXXooooooooooXXXooo$$$oo",
"@ooooooooooXXXoooooooooXXXXoooooooooooooXXXooooooooooXXXooo$$$oo",
"@ooooooooooXXXoooooooooXXXXoooooooooooooXXXooooooooooXXXooo$$$oo",
"@ooooooooooXXXoooooooooXXXXoooooooooooooXXXooooooooooXXXooo$$$oo",
"@ooooooooooXXXoooooooooXXXXoooooooooooooXXXooooooooooXXXooo$$$oo",
"@ooooooooooXXXoooooooooXXXXoooooooooooooXXXooooooooooXXXooo$$$oo",
"@ooooooooooXXXoooooooooXXXXoooooooooooooXXXooooooooooXXXooo$$$oo",
"@ooooooooooXXXoooooooooXXXXoooooooooooooXXXooooooooooXXXooo$$$oo",
"@ooooooooooXXXoooooooooXXXXoooooooooooooXXXooooooooooXXXooo$$$oo",
"@ooooooooooXXXoooooooooXXXXoooooooooooooXXXooooooooooXXXooo$$$oo",
"@ooooooooooXXXoooooooooXXXXoooooooooooooXXXooooooooooXXXooo$$$oo",
"OooooooooooXXXoooooooooXXXXoooooooooooooXXXooooooooooXXXoooooooo",
"OooooooooooXXXoooooooooXXXXoooooooooooooXXXooooooooooXXXoooooooo",
"OooooooooooXXXoooooooooXXXXoooooooooooooXXXooooooooooXXXoooooooo",
"%######$$$$XXXoooooooooXXXXoooooooooooooXXXooooooooooXXXoooooooo",
"%######$$$$XXXoooooooooXXXXoooooooooooooXXXooooooooooXXXoooooooo",
"%######$$$$XXXoooooooooXXXXoooooooooooooXXXooooooooooXXXoooooooo",
"@###$$$$$$$XXXoooooooooXXXXoooooooooooooXXXooooooooooXXXoooooooo",
"@###$$$$$$$XXXoooooooooXXXXoooooooooooooXXXooooooooooXXXoooooooo",
"@###$$$$$$$XXXoooooooooXXXXoooooooooooooXXXooooooooooXXXoooooooo",
"@###$$$$$$$XXXoooooooooXXXXoooooooooooooXXXooooooooooXXXoooooooo",
"@ooooooooooXXXoooooooooXXXXoooooooooooooXXXooooooooooXXXoooooooo",
"@ooooooooooXXXoooooooooXXXXoooooooooooooXXXooooooooooXXXoooooooo",
"@ooooooooooXXXoooooooooXXXXoooooooooooooXXXooooooooooXXXoooooooo",
"@++++++++++XXX+++++++++XXXX+++++++++++++XXX++++++++++XXX++++++++",
"@++++++++++XXX+++++++++XXXX+++++++++++++XXX++++++++++XXX++++++++",
"@++++++++++XXX+++++++++XXXX+++++++++++++XXX++++++++++XXX++++++++"
};
