/* XPM */
static char *result[] = {
/* columns rows colors chars-per-pixel */
"64 64 6 1 ",
"  c black",
". c #33703B",
"X c #37773F",
"o c #3E8948",
"O c #62B76D",
"+ c None",
/* pixels */
"++++++++++++++++++++++++++++++++++++++++++++++++++++++++++++++++",
"++++++++++++++++++++++++++++++++++++++++++++++++++++++++++++++++",
"++++++++++++++++++++++++++++++++++++++++++++++++++++++++++++++++",
"++++++++++++++++++++++++++++++++++++++++++++++++++++++++++++++++",
"++++++++++++++++++++++++++++++++++++++++++++++++++++++++++++++++",
"++++++++++++++++++++++++++++++++++++++++++++++++++++++++++++++++",
"++++++++++++++++++++++++++++++++++++++++++++++++++++++++++++++++",
"++++++++++++++++++++++++++++++++++++++++++++++++++++++++++++++++",
"++++++++++++++++++++++++++++++++++++++++++++++++++++++++++++++++",
"++++++++++++++++++++++++++++++++++++++++++++++++++++++++++++++++",
"++++++++++++++++++++++++++++++++++++++++++++++++++++++++++++++++",
"++++++++++++++++++++++++++++++++++++++++++++++++++++++++++++++++",
"++++++++++++++++++++++++++++++++++++++++++++++++++++++++++++++++",
"++++++++++++++++++++++++++++++++++++++++++++++++++++++++++++++++",
"++++++++++++++++++++++++++++++++++++++++++++++++++++++++++++++++",
"++++++++++++++++++++++++++++++++++++++++++++++++++++++++++++++++",
"++++++++++++++++++++                        ++++++++++++++++++++",
"++++++++++++++++++++                        ++++++++++++++++++++",
"++++++++++++++++++++                        ++++++++++++++++++++",
"++++++++++++++++++++                        ++++++++++++++++++++",
"++++++++++++        ....oooooooooooooooo....        ++++++++++++",
"++++++++++++        ....oooooooooooooooo....        ++++++++++++",
"++++++++++++        ....oooooooooooooooo....        ++++++++++++",
"++++++++++++        ....oooooooooooooooo....        ++++++++++++",
"++++++++    ........oooooooooooooooooooooooo........    ++++++++",
"++++++++    ........oooooooooooooooooooooooo........    ++++++++",
"++++++++    ........oooooooooooooooooooooooo........    ++++++++",
"++++++++    ........oooooooooooooooooooooooo........    ++++++++",
"++++    ....oooooooooooooooooooooooooooooooooooooooo....    ++++",
"++++    ....oooooooooooooooooooooooooooooooooooooooo....    ++++",
"++++    ....oooooooooooooooooooooooooooooooooooooooo....    ++++",
"++++    ....oooooooooooooooooooooooooooooooooooooooo....    ++++",
"    ....ooooooooOOOOOOOOoooooooooooooooooooooooooooooooo....    ",
"    ....ooooooooOOOOOOOOoooooooooooooooooooooooooooooooo....    ",
"    ....ooooooooOOOOOOOOoooooooooooooooooooooooooooooooo....    ",
"    ....ooooooooOOOOOOOOoooooooooooooooooooooooooooooooo....    ",
"    ooooooooOOOOOOOOoooooooooooooooooooooooo        oooooooo    ",
"    ooooooooOOOOOOOOoooooooooooooooooooooooo        oooooooo    ",
"    ooooooooOOOOOOOOoooooooooooooooooooooooo        oooooooo    ",
"    ooooooooOOOOOOOOoooooooooooooooooooooooo        oooooooo    ",
"    ooooXXXXXXXXXXXXXXXX        XXXXXXXXXXXX        XXXXoooo    ",
"    ooooXXXXXXXXXXXXXXXX        XXXXXXXXXXXX        XXXXoooo    ",
"    ooooXXXXXXXXXXXXXXXX        XXXXXXXXXXXX        XXXXoooo    ",
"    ooooXXXXXXXXXXXXXXXX        XXXXXXXXXXXX        XXXXoooo    ",
"    ....XXXXXXXXXXXXXXXX        XXXXXXXXXXXXXXXXXXXXXXXX....    ",
"    ....XXXXXXXXXXXXXXXX        XXXXXXXXXXXXXXXXXXXXXXXX....    ",
"    ....XXXXXXXXXXXXXXXX        XXXXXXXXXXXXXXXXXXXXXXXX....    ",
"    ....XXXXXXXXXXXXXXXX        XXXXXXXXXXXXXXXXXXXXXXXX....    ",
"++++    ........XXXXXXXXXXXXXXXXXXXXXXXXXXXXXXXX........    ++++",
"++++    ........XXXXXXXXXXXXXXXXXXXXXXXXXXXXXXXX........    ++++",
"++++    ........XXXXXXXXXXXXXXXXXXXXXXXXXXXXXXXX........    ++++",
"++++    ........XXXXXXXXXXXXXXXXXXXXXXXXXXXXXXXX........    ++++",
"++++++++        ....XXXXXXXXXXXXXXXXXXXXXXXX....        ++++++++",
"++++++++        ....XXXXXXXXXXXXXXXXXXXXXXXX....        ++++++++",
"++++++++        ....XXXXXXXXXXXXXXXXXXXXXXXX....        ++++++++",
"++++++++        ....XXXXXXXXXXXXXXXXXXXXXXXX....        ++++++++",
"++++++++++++++++++++++++++++++++++++++++++++++++++++++++++++++++",
"++++++++++++++++++++++++++++++++++++++++++++++++++++++++++++++++",
"++++++++++++++++++++++++++++++++++++++++++++++++++++++++++++++++",
"++++++++++++++++++++++++++++++++++++++++++++++++++++++++++++++++",
"++++++++++++++++++++++++++++++++++++++++++++++++++++++++++++++++",
"++++++++++++++++++++++++++++++++++++++++++++++++++++++++++++++++",
"++++++++++++++++++++++++++++++++++++++++++++++++++++++++++++++++",
"++++++++++++++++++++++++++++++++++++++++++++++++++++++++++++++++"
};
