/* XPM */
static char *result[] = {
/* columns rows colors chars-per-pixel */
"128 64 14 1 ",
"  c #060608",
". c #483431",
"X c #413339",
"o c #59413E",
"O c #61413D",
"+ c #514047",
"@ c #734B46",
"# c #77514C",
"$ c #AC3232",
"% c #DF7126",
"& c #8D5D57",
"* c #847E87",
"= c #9BADB7",
"- c white",
/* pixels */
"++++++++++++++++++++++++++++++++++++++++++++++++++++++++    ++++++++++++++++++++++++++++++++++++++++++++++++++++++++++++++++++++",
"++++++++++++++++++++++++++++++++++++++++++++++++++++++++    ++++++++++++++++++++++++++++++++++++++++++++++++++++++++++++++++++++",
"++++++++++++++++++++++++++++++++++++++++++++++++++++++++    ++++++++++++++++++++++++++++++++++++++++++++++++++++++++++++++++++++",
"++++++++++++++++++++++++++++++++++++++++++++++++++++++++    ++++++++++++++++++++++++++++++++++++++++++++++++++++++++++++++++++++",
"++++++++++++++++++++++++++++++++++++++++++++++++++++    $$$$        ++++++++++++++++++++++++++++++++++++++++++++++++++++++++++++",
"++++++++++++++++++++++++++++++++++++++++++++++++++++    $$$$        ++++++++++++++++++++++++++++++++++++++++++++++++++++++++++++",
"++++++++++++++++++++++++++++++++++++++++++++++++++++    $$$$        ++++++++++++++++++++++++++++++++++++++++++++++++++++++++++++",
"++++++++++++++++++++++++++++++++++++++++++++++++++++    $$$$        ++++++++++++++++++++++++++++++++++++++++++++++++++++++++++++",
"++++++++########++++++++++++++++++++++++                ****$$$$    ++++########++++++++++++++++++++++++++++++++++++++++++++++++",
"++++++++########++++++++++++++++++++++++                ****$$$$    ++++########++++++++++++++++++++++++++++++++++++++++++++++++",
"++++++++########++++++++++++++++++++++++                ****$$$$    ++++########++++++++++++++++++++++++++++++++++++++++++++++++",
"++++++++########++++++++++++++++++++++++                ****$$$$    ++++########++++++++++++++++++++++++++++++++++++++++++++++++",
"++++++++########++++++++####++++++++    ================********    ++++########++++++++####++++++++++++++++########++++++++++++",
"++++++++########++++++++####++++++++    ================********    ++++########++++++++####++++++++++++++++########++++++++++++",
"++++++++########++++++++####++++++++    ================********    ++++########++++++++####++++++++++++++++########++++++++++++",
"++++++++########++++++++####++++++++    ================********    ++++########++++++++####++++++++++++++++########++++++++++++",
"++++++++++++++++++++++++++++++++++++    --------------------====****    ++++++++++++++++++++++++++++++++################++++++++",
"++++++++++++++++++++++++++++++++++++    --------------------====****    ++++++++++++++++++++++++++++++++################++++++++",
"++++++++++++++++++++++++++++++++++++    --------------------====****    ++++++++++++++++++++++++++++++++################++++++++",
"++++++++++++++++++++++++++++++++++++    --------------------====****    ++++++++++++++++++++++++++++++++################++++++++",
"++++++++++++++++++++++++++++++++++++                    ----========    ++++++++++++++++++++++++++++++++################++++++++",
"++++++++++++++++++++++++++++++++++++                    ----========    ++++++++++++++++++++++++++++++++################++++++++",
"++++++++++++++++++++++++++++++++++++                    ----========    ++++++++++++++++++++++++++++++++################++++++++",
"++++++++++++++++++++++++++++++++++++                    ----========    ++++++++++++++++++++++++++++++++################++++++++",
"++++++++++++++++########++++++++++++    ----    ------------========    ++++++++########++++++++++++++++############++++++++++++",
"++++++++++++++++########++++++++++++    ----    ------------========    ++++++++########++++++++++++++++############++++++++++++",
"++++++++++++++++########++++++++++++    ----    ------------========    ++++++++########++++++++++++++++############++++++++++++",
"++++++++++++++++########++++++++++++    ----    ------------========    ++++++++########++++++++++++++++############++++++++++++",
"++++++++++++++++########++++++++++++    ------------============****    ++++++++########++++++++++++++++++++++++++++++++++++++++",
"++++++++++++++++########++++++++++++    ------------============****    ++++++++########++++++++++++++++++++++++++++++++++++++++",
"++++++++++++++++########++++++++++++    ------------============****    ++++++++########++++++++++++++++++++++++++++++++++++++++",
"++++++++++++++++########++++++++++++    ------------============****    ++++++++########++++++++++++++++++++++++++++++++++++++++",
"++++++++++++++++++++++++++++++++++++    $$$$%%%%$$$$$$$$********    ++++++++++++++++++++++++++++++++++++++++++++++++++++++++++++",
"++++++++++++++++++++++++++++++++++++    $$$$%%%%$$$$$$$$********    ++++++++++++++++++++++++++++++++++++++++++++++++++++++++++++",
"++++++++++++++++++++++++++++++++++++    $$$$%%%%$$$$$$$$********    ++++++++++++++++++++++++++++++++++++++++++++++++++++++++++++",
"++++++++++++++++++++++++++++++++++++    $$$$%%%%$$$$$$$$********    ++++++++++++++++++++++++++++++++++++++++++++++++++++++++++++",
"++++++++########++++++++++++++++++++    ****************$$$$$$$$    ++++########++++++++++++++++++++++++++++++++############++++",
"++++++++########++++++++++++++++++++    ****************$$$$$$$$    ++++########++++++++++++++++++++++++++++++++############++++",
"++++++++########++++++++++++++++++++    ****************$$$$$$$$    ++++########++++++++++++++++++++++++++++++++############++++",
"++++++++########++++++++++++++++++++    ****************$$$$$$$$    ++++########++++++++++++++++++++++++++++++++############++++",
"++++&&&&################++++++++++++    ************************    $$$$################++++++++++++++++########################",
"++++&&&&################++++++++++++    ************************    $$$$################++++++++++++++++########################",
"++++&&&&################++++++++++++    ************************    $$$$################++++++++++++++++########################",
"++++&&&&################++++++++++++    ************************    $$$$################++++++++++++++++########################",
"++++&&&&####################++++++++    ================********    $$$$$$$$################++++++++&&&&########################",
"++++&&&&####################++++++++    ================********    $$$$$$$$################++++++++&&&&########################",
"++++&&&&####################++++++++    ================********    $$$$$$$$################++++++++&&&&########################",
"++++&&&&####################++++++++    ================********    $$$$$$$$################++++++++&&&&########################",
"++++&&&&####################++++XXXX@@@@                        $$$$$$$$$$$$$$$$############++++++++&&&&########################",
"++++&&&&####################++++XXXX@@@@                        $$$$$$$$$$$$$$$$############++++++++&&&&########################",
"++++&&&&####################++++XXXX@@@@                        $$$$$$$$$$$$$$$$############++++++++&&&&########################",
"++++&&&&####################++++XXXX@@@@                        $$$$$$$$$$$$$$$$############++++++++&&&&########################",
"++++&&&&&&&&################XXXXXXXX@@@@@@@@OOOOOOOOOOOOOOOOOOOOXXXX@@@@@@@@OOOO############++++++++&&&&&&&&####################",
"++++&&&&&&&&################XXXXXXXX@@@@@@@@OOOOOOOOOOOOOOOOOOOOXXXX@@@@@@@@OOOO############++++++++&&&&&&&&####################",
"++++&&&&&&&&################XXXXXXXX@@@@@@@@OOOOOOOOOOOOOOOOOOOOXXXX@@@@@@@@OOOO############++++++++&&&&&&&&####################",
"++++&&&&&&&&################XXXXXXXX@@@@@@@@OOOOOOOOOOOOOOOOOOOOXXXX@@@@@@@@OOOO############++++++++&&&&&&&&####################",
"++++oooo&&&&&&&&&&&&&&&&ooooXXXXXXXX....@@@@@@@@@@@@@@@@@@@@....XXXX....@@@@@@@@&&&&&&&&oooo++++++++oooo&&&&&&&&&&&&&&&&&&&&oooo",
"++++oooo&&&&&&&&&&&&&&&&ooooXXXXXXXX....@@@@@@@@@@@@@@@@@@@@....XXXX....@@@@@@@@&&&&&&&&oooo++++++++oooo&&&&&&&&&&&&&&&&&&&&oooo",
"++++oooo&&&&&&&&&&&&&&&&ooooXXXXXXXX....@@@@@@@@@@@@@@@@@@@@....XXXX....@@@@@@@@&&&&&&&&oooo++++++++oooo&&&&&&&&&&&&&&&&&&&&oooo",
"++++oooo&&&&&&&&&&&&&&&&ooooXXXXXXXX....@@@@@@@@@@@@@@@@@@@@....XXXX....@@@@@@@@&&&&&&&&oooo++++++++oooo&&&&&&&&&&&&&&&&&&&&oooo",
"++++++++oooooooooooooooo++++++++XXXXXXXX....................XXXXXXXXXXXX....oooooooooooo++++++++++++++++oooooooooooooooooooo++++",
"++++++++oooooooooooooooo++++++++XXXXXXXX....................XXXXXXXXXXXX....oooooooooooo++++++++++++++++oooooooooooooooooooo++++",
"++++++++oooooooooooooooo++++++++XXXXXXXX....................XXXXXXXXXXXX....oooooooooooo++++++++++++++++oooooooooooooooooooo++++",
"++++++++oooooooooooooooo++++++++XXXXXXXX....................XXXXXXXXXXXX....oooooooooooo++++++++++++++++oooooooooooooooooooo++++"
};
