/* XPM */
static char *result[] = {
/* columns rows colors chars-per-pixel */
"64 64 7 1 ",
"  c #060608",
". c #AC3232",
"X c #DF7126",
"o c #847E87",
"O c #9BADB7",
"+ c white",
"@ c None",
/* pixels */
"@@@@@@@@@@@@@@@@@@@@@@@@@@@@    @@@@@@@@@@@@@@@@@@@@@@@@@@@@@@@@",
"@@@@@@@@@@@@@@@@@@@@@@@@@@@@    @@@@@@@@@@@@@@@@@@@@@@@@@@@@@@@@",
"@@@@@@@@@@@@@@@@@@@@@@@@@@@@    @@@@@@@@@@@@@@@@@@@@@@@@@@@@@@@@",
"@@@@@@@@@@@@@@@@@@@@@@@@@@@@    @@@@@@@@@@@@@@@@@@@@@@@@@@@@@@@@",
"@@@@@@@@@@@@@@@@@@@@        ....    @@@@@@@@@@@@@@@@@@@@@@@@@@@@",
"@@@@@@@@@@@@@@@@@@@@        ....    @@@@@@@@@@@@@@@@@@@@@@@@@@@@",
"@@@@@@@@@@@@@@@@@@@@        ....    @@@@@@@@@@@@@@@@@@@@@@@@@@@@",
"@@@@@@@@@@@@@@@@@@@@        ....    @@@@@@@@@@@@@@@@@@@@@@@@@@@@",
"@@@@@@@@@@@@@@@@@@@@    ....oooo                @@@@@@@@@@@@@@@@",
"@@@@@@@@@@@@@@@@@@@@    ....oooo                @@@@@@@@@@@@@@@@",
"@@@@@@@@@@@@@@@@@@@@    ....oooo                @@@@@@@@@@@@@@@@",
"@@@@@@@@@@@@@@@@@@@@    ....oooo                @@@@@@@@@@@@@@@@",
"@@@@@@@@@@@@@@@@@@@@    ooooooooOOOOOOOOOOOOOOOO    @@@@@@@@@@@@",
"@@@@@@@@@@@@@@@@@@@@    ooooooooOOOOOOOOOOOOOOOO    @@@@@@@@@@@@",
"@@@@@@@@@@@@@@@@@@@@    ooooooooOOOOOOOOOOOOOOOO    @@@@@@@@@@@@",
"@@@@@@@@@@@@@@@@@@@@    ooooooooOOOOOOOOOOOOOOOO    @@@@@@@@@@@@",
"@@@@@@@@@@@@@@@@    ooooOOOO++++++++++++++++++++    @@@@@@@@@@@@",
"@@@@@@@@@@@@@@@@    ooooOOOO++++++++++++++++++++    @@@@@@@@@@@@",
"@@@@@@@@@@@@@@@@    ooooOOOO++++++++++++++++++++    @@@@@@@@@@@@",
"@@@@@@@@@@@@@@@@    ooooOOOO++++++++++++++++++++    @@@@@@@@@@@@",
"@@@@@@@@@@@@@@@@    OOOOOOOO++++                    @@@@@@@@@@@@",
"@@@@@@@@@@@@@@@@    OOOOOOOO++++                    @@@@@@@@@@@@",
"@@@@@@@@@@@@@@@@    OOOOOOOO++++                    @@@@@@@@@@@@",
"@@@@@@@@@@@@@@@@    OOOOOOOO++++                    @@@@@@@@@@@@",
"@@@@@@@@@@@@@@@@    OOOOOOOO++++++++++++    ++++    @@@@@@@@@@@@",
"@@@@@@@@@@@@@@@@    OOOOOOOO++++++++++++    ++++    @@@@@@@@@@@@",
"@@@@@@@@@@@@@@@@    OOOOOOOO++++++++++++    ++++    @@@@@@@@@@@@",
"@@@@@@@@@@@@@@@@    OOOOOOOO++++++++++++    ++++    @@@@@@@@@@@@",
"@@@@@@@@@@@@@@@@    ooooOOOOOOOOOOOO++++++++++++    @@@@@@@@@@@@",
"@@@@@@@@@@@@@@@@    ooooOOOOOOOOOOOO++++++++++++    @@@@@@@@@@@@",
"@@@@@@@@@@@@@@@@    ooooOOOOOOOOOOOO++++++++++++    @@@@@@@@@@@@",
"@@@@@@@@@@@@@@@@    ooooOOOOOOOOOOOO++++++++++++    @@@@@@@@@@@@",
"@@@@@@@@@@@@@@@@@@@@    oooooooo........XXXX....    @@@@@@@@@@@@",
"@@@@@@@@@@@@@@@@@@@@    oooooooo........XXXX....    @@@@@@@@@@@@",
"@@@@@@@@@@@@@@@@@@@@    oooooooo........XXXX....    @@@@@@@@@@@@",
"@@@@@@@@@@@@@@@@@@@@    oooooooo........XXXX....    @@@@@@@@@@@@",
"@@@@@@@@@@@@@@@@@@@@    ........oooooooooooooooo    @@@@@@@@@@@@",
"@@@@@@@@@@@@@@@@@@@@    ........oooooooooooooooo    @@@@@@@@@@@@",
"@@@@@@@@@@@@@@@@@@@@    ........oooooooooooooooo    @@@@@@@@@@@@",
"@@@@@@@@@@@@@@@@@@@@    ........oooooooooooooooo    @@@@@@@@@@@@",
"@@@@@@@@@@@@@@@@....    oooooooooooooooooooooooo    @@@@@@@@@@@@",
"@@@@@@@@@@@@@@@@....    oooooooooooooooooooooooo    @@@@@@@@@@@@",
"@@@@@@@@@@@@@@@@....    oooooooooooooooooooooooo    @@@@@@@@@@@@",
"@@@@@@@@@@@@@@@@....    oooooooooooooooooooooooo    @@@@@@@@@@@@",
"@@@@@@@@@@@@........    ooooooooOOOOOOOOOOOOOOOO    @@@@@@@@@@@@",
"@@@@@@@@@@@@........    ooooooooOOOOOOOOOOOOOOOO    @@@@@@@@@@@@",
"@@@@@@@@@@@@........    ooooooooOOOOOOOOOOOOOOOO    @@@@@@@@@@@@",
"@@@@@@@@@@@@........    ooooooooOOOOOOOOOOOOOOOO    @@@@@@@@@@@@",
"@@@@@@@@................                        @@@@@@@@@@@@@@@@",
"@@@@@@@@................                        @@@@@@@@@@@@@@@@",
"@@@@@@@@................                        @@@@@@@@@@@@@@@@",
"@@@@@@@@................                        @@@@@@@@@@@@@@@@",
"@@@@@@@@@@@@@@@@@@@@@@@@@@@@@@@@@@@@@@@@@@@@@@@@@@@@@@@@@@@@@@@@",
"@@@@@@@@@@@@@@@@@@@@@@@@@@@@@@@@@@@@@@@@@@@@@@@@@@@@@@@@@@@@@@@@",
"@@@@@@@@@@@@@@@@@@@@@@@@@@@@@@@@@@@@@@@@@@@@@@@@@@@@@@@@@@@@@@@@",
"@@@@@@@@@@@@@@@@@@@@@@@@@@@@@@@@@@@@@@@@@@@@@@@@@@@@@@@@@@@@@@@@",
"@@@@@@@@@@@@@@@@@@@@@@@@@@@@@@@@@@@@@@@@@@@@@@@@@@@@@@@@@@@@@@@@",
"@@@@@@@@@@@@@@@@@@@@@@@@@@@@@@@@@@@@@@@@@@@@@@@@@@@@@@@@@@@@@@@@",
"@@@@@@@@@@@@@@@@@@@@@@@@@@@@@@@@@@@@@@@@@@@@@@@@@@@@@@@@@@@@@@@@",
"@@@@@@@@@@@@@@@@@@@@@@@@@@@@@@@@@@@@@@@@@@@@@@@@@@@@@@@@@@@@@@@@",
"@@@@@@@@@@@@@@@@@@@@@@@@@@@@@@@@@@@@@@@@@@@@@@@@@@@@@@@@@@@@@@@@",
"@@@@@@@@@@@@@@@@@@@@@@@@@@@@@@@@@@@@@@@@@@@@@@@@@@@@@@@@@@@@@@@@",
"@@@@@@@@@@@@@@@@@@@@@@@@@@@@@@@@@@@@@@@@@@@@@@@@@@@@@@@@@@@@@@@@",
"@@@@@@@@@@@@@@@@@@@@@@@@@@@@@@@@@@@@@@@@@@@@@@@@@@@@@@@@@@@@@@@@"
};
