/* XPM */
static char *result[] = {
/* columns rows colors chars-per-pixel */
"64 64 7 1 ",
"  c #060608",
". c #AC3232",
"X c #DF7126",
"o c #847E87",
"O c #9BADB7",
"+ c white",
"@ c None",
/* pixels */
"@@@@@@@@@@@@@@@@@@@@@@@@@@@@@@@@            @@@@@@@@@@@@@@@@@@@@",
"@@@@@@@@@@@@@@@@@@@@@@@@@@@@@@@@            @@@@@@@@@@@@@@@@@@@@",
"@@@@@@@@@@@@@@@@@@@@@@@@@@@@@@@@            @@@@@@@@@@@@@@@@@@@@",
"@@@@@@@@@@@@@@@@@@@@@@@@@@@@@@@@            @@@@@@@@@@@@@@@@@@@@",
"@@@@@@@@@@@@@@@@@@@@@@@@@@@@    ........    @@@@@@@@@@@@@@@@@@@@",
"@@@@@@@@@@@@@@@@@@@@@@@@@@@@    ........    @@@@@@@@@@@@@@@@@@@@",
"@@@@@@@@@@@@@@@@@@@@@@@@@@@@    ........    @@@@@@@@@@@@@@@@@@@@",
"@@@@@@@@@@@@@@@@@@@@@@@@@@@@    ........    @@@@@@@@@@@@@@@@@@@@",
"@@@@@@@@@@@@@@@@                oooo    @@@@@@@@@@@@@@@@@@@@@@@@",
"@@@@@@@@@@@@@@@@                oooo    @@@@@@@@@@@@@@@@@@@@@@@@",
"@@@@@@@@@@@@@@@@                oooo    @@@@@@@@@@@@@@@@@@@@@@@@",
"@@@@@@@@@@@@@@@@                oooo    @@@@@@@@@@@@@@@@@@@@@@@@",
"@@@@@@@@@@@@    OOOOOOOOOOOOOOOOoooooooo    @@@@@@@@@@@@@@@@@@@@",
"@@@@@@@@@@@@    OOOOOOOOOOOOOOOOoooooooo    @@@@@@@@@@@@@@@@@@@@",
"@@@@@@@@@@@@    OOOOOOOOOOOOOOOOoooooooo    @@@@@@@@@@@@@@@@@@@@",
"@@@@@@@@@@@@    OOOOOOOOOOOOOOOOoooooooo    @@@@@@@@@@@@@@@@@@@@",
"@@@@@@@@@@@@    OOOOOOOOOOOOOOOOOOOOOOOOoooo    @@@@@@@@@@@@@@@@",
"@@@@@@@@@@@@    OOOOOOOOOOOOOOOOOOOOOOOOoooo    @@@@@@@@@@@@@@@@",
"@@@@@@@@@@@@    OOOOOOOOOOOOOOOOOOOOOOOOoooo    @@@@@@@@@@@@@@@@",
"@@@@@@@@@@@@    OOOOOOOOOOOOOOOOOOOOOOOOoooo    @@@@@@@@@@@@@@@@",
"@@@@@@@@@@@@    ++++++++++++++++++++OOOOOOOO    @@@@@@@@@@@@@@@@",
"@@@@@@@@@@@@    ++++++++++++++++++++OOOOOOOO    @@@@@@@@@@@@@@@@",
"@@@@@@@@@@@@    ++++++++++++++++++++OOOOOOOO    @@@@@@@@@@@@@@@@",
"@@@@@@@@@@@@    ++++++++++++++++++++OOOOOOOO    @@@@@@@@@@@@@@@@",
"@@@@@@@@@@@@                    ++++OOOOOOOO    @@@@@@@@@@@@@@@@",
"@@@@@@@@@@@@                    ++++OOOOOOOO    @@@@@@@@@@@@@@@@",
"@@@@@@@@@@@@                    ++++OOOOOOOO    @@@@@@@@@@@@@@@@",
"@@@@@@@@@@@@                    ++++OOOOOOOO    @@@@@@@@@@@@@@@@",
"@@@@@@@@@@@@    ++++    ++++++++++++OOOOoooo    @@@@@@@@@@@@@@@@",
"@@@@@@@@@@@@    ++++    ++++++++++++OOOOoooo    @@@@@@@@@@@@@@@@",
"@@@@@@@@@@@@    ++++    ++++++++++++OOOOoooo    @@@@@@@@@@@@@@@@",
"@@@@@@@@@@@@    ++++    ++++++++++++OOOOoooo    @@@@@@@@@@@@@@@@",
"@@@@@@@@@@@@    ....XXXX........oooooooo        @@@@@@@@@@@@@@@@",
"@@@@@@@@@@@@    ....XXXX........oooooooo        @@@@@@@@@@@@@@@@",
"@@@@@@@@@@@@    ....XXXX........oooooooo        @@@@@@@@@@@@@@@@",
"@@@@@@@@@@@@    ....XXXX........oooooooo        @@@@@@@@@@@@@@@@",
"@@@@@@@@@@@@    oooooooooooooooo........    @@@@@@@@@@@@@@@@@@@@",
"@@@@@@@@@@@@    oooooooooooooooo........    @@@@@@@@@@@@@@@@@@@@",
"@@@@@@@@@@@@    oooooooooooooooo........    @@@@@@@@@@@@@@@@@@@@",
"@@@@@@@@@@@@    oooooooooooooooo........    @@@@@@@@@@@@@@@@@@@@",
"@@@@@@@@@@@@    OOOOOOOOOOOOOOOOoooooooo    ....@@@@@@@@@@@@@@@@",
"@@@@@@@@@@@@    OOOOOOOOOOOOOOOOoooooooo    ....@@@@@@@@@@@@@@@@",
"@@@@@@@@@@@@    OOOOOOOOOOOOOOOOoooooooo    ....@@@@@@@@@@@@@@@@",
"@@@@@@@@@@@@    OOOOOOOOOOOOOOOOoooooooo    ....@@@@@@@@@@@@@@@@",
"@@@@@@@@@@@@    oooo            oooooooo    ........@@@@@@@@@@@@",
"@@@@@@@@@@@@    oooo            oooooooo    ........@@@@@@@@@@@@",
"@@@@@@@@@@@@    oooo            oooooooo    ........@@@@@@@@@@@@",
"@@@@@@@@@@@@    oooo            oooooooo    ........@@@@@@@@@@@@",
"@@@@@@@@@@@@@@@@    oooo    ....    oooo    ........@@@@@@@@@@@@",
"@@@@@@@@@@@@@@@@    oooo    ....    oooo    ........@@@@@@@@@@@@",
"@@@@@@@@@@@@@@@@    oooo    ....    oooo    ........@@@@@@@@@@@@",
"@@@@@@@@@@@@@@@@    oooo    ....    oooo    ........@@@@@@@@@@@@",
"@@@@@@@@@@@@@@@@@@@@        @@@@@@@@        @@@@@@@@@@@@@@@@@@@@",
"@@@@@@@@@@@@@@@@@@@@        @@@@@@@@        @@@@@@@@@@@@@@@@@@@@",
"@@@@@@@@@@@@@@@@@@@@        @@@@@@@@        @@@@@@@@@@@@@@@@@@@@",
"@@@@@@@@@@@@@@@@@@@@        @@@@@@@@        @@@@@@@@@@@@@@@@@@@@",
"@@@@@@@@@@@@@@@@@@@@@@@@@@@@@@@@@@@@@@@@@@@@@@@@@@@@@@@@@@@@@@@@",
"@@@@@@@@@@@@@@@@@@@@@@@@@@@@@@@@@@@@@@@@@@@@@@@@@@@@@@@@@@@@@@@@",
"@@@@@@@@@@@@@@@@@@@@@@@@@@@@@@@@@@@@@@@@@@@@@@@@@@@@@@@@@@@@@@@@",
"@@@@@@@@@@@@@@@@@@@@@@@@@@@@@@@@@@@@@@@@@@@@@@@@@@@@@@@@@@@@@@@@",
"@@@@@@@@@@@@@@@@@@@@@@@@@@@@@@@@@@@@@@@@@@@@@@@@@@@@@@@@@@@@@@@@",
"@@@@@@@@@@@@@@@@@@@@@@@@@@@@@@@@@@@@@@@@@@@@@@@@@@@@@@@@@@@@@@@@",
"@@@@@@@@@@@@@@@@@@@@@@@@@@@@@@@@@@@@@@@@@@@@@@@@@@@@@@@@@@@@@@@@",
"@@@@@@@@@@@@@@@@@@@@@@@@@@@@@@@@@@@@@@@@@@@@@@@@@@@@@@@@@@@@@@@@"
};
