/* XPM */
static char *result[] = {
/* columns rows colors chars-per-pixel */
"128 64 15 1 ",
"  c #040406",
". c #060608",
"X c #483431",
"o c #413339",
"O c #59413E",
"+ c #61413D",
"@ c #514047",
"# c #734B46",
"$ c #77514C",
"% c #AC3232",
"& c #DF7126",
"* c #8D5D57",
"= c #847E87",
"- c #9BADB7",
"; c white",
/* pixels */
"@@@@@@@@@@@@@@@@@@@@@@@@@@@@@@@@@@@@@@@@@@@@@@@@@@@@@@@@@@@@@@@@@@@@@@@@@@@@@@@@@@@@@@@@@@@@@@@@@@@@@@@@@@@@@@@@@@@@@@@@@@@@@@@@",
"@@@@@@@@@@@@@@@@@@@@@@@@@@@@@@@@@@@@@@@@@@@@@@@@@@@@@@@@@@@@@@@@@@@@@@@@@@@@@@@@@@@@@@@@@@@@@@@@@@@@@@@@@@@@@@@@@@@@@@@@@@@@@@@@",
"@@@@@@@@@@@@@@@@@@@@@@@@@@@@@@@@@@@@@@@@@@@@@@@@@@@@@@@@@@@@@@@@@@@@@@@@@@@@@@@@@@@@@@@@@@@@@@@@@@@@@@@@@@@@@@@@@@@@@@@@@@@@@@@@",
"@@@@@@@@@@@@@@@@@@@@@@@@@@@@@@@@@@@@@@@@@@@@@@@@@@@@@@@@@@@@@@@@@@@@@@@@@@@@@@@@@@@@@@@@@@@@@@@@@@@@@@@@@@@@@@@@@@@@@@@@@@@@@@@@",
"@@@@@@@@@@@@@@@@@@@@@@@@@@@@@@@@@@@@@@@@@@@@@@@@@@@@@@@@@@@@@@@@@@@@............@@@@@@@@@@@@@@@@@@@@@@@@@@@@@@@@@@@@@@@@@@@@@@@@",
"@@@@@@@@@@@@@@@@@@@@@@@@@@@@@@@@@@@@@@@@@@@@@@@@@@@@@@@@@@@@@@@@@@@@............@@@@@@@@@@@@@@@@@@@@@@@@@@@@@@@@@@@@@@@@@@@@@@@@",
"@@@@@@@@@@@@@@@@@@@@@@@@@@@@@@@@@@@@@@@@@@@@@@@@@@@@@@@@@@@@@@@@@@@@............@@@@@@@@@@@@@@@@@@@@@@@@@@@@@@@@@@@@@@@@@@@@@@@@",
"@@@@@@@@@@@@@@@@@@@@@@@@@@@@@@@@@@@@@@@@@@@@@@@@@@@@@@@@@@@@@@@@@@@@............@@@@@@@@@@@@@@@@@@@@@@@@@@@@@@@@@@@@@@@@@@@@@@@@",
"@@@@@@@@@@@@@@@@@@@@@@@@@@@@@@@@@@@@@@@@@@@@@@@@$$$$$$$$@@@@@@@@@@@@....%%%%%%%%....@@@@@@@@@@@@@@@@@@@@@@@@@@@@$$$$$$$$@@@@@@@@",
"@@@@@@@@@@@@@@@@@@@@@@@@@@@@@@@@@@@@@@@@@@@@@@@@$$$$$$$$@@@@@@@@@@@@....%%%%%%%%....@@@@@@@@@@@@@@@@@@@@@@@@@@@@$$$$$$$$@@@@@@@@",
"@@@@@@@@@@@@@@@@@@@@@@@@@@@@@@@@@@@@@@@@@@@@@@@@$$$$$$$$@@@@@@@@@@@@....%%%%%%%%....@@@@@@@@@@@@@@@@@@@@@@@@@@@@$$$$$$$$@@@@@@@@",
"@@@@@@@@@@@@@@@@@@@@@@@@@@@@@@@@@@@@@@@@@@@@@@@@$$$$$$$$@@@@@@@@@@@@....%%%%%%%%....@@@@@@@@@@@@@@@@@@@@@@@@@@@@$$$$$$$$@@@@@@@@",
"@@@@@@@@@@@@$$$$$$$$@@@@@@@@@@@@@@@@$$$$@@@@@@@@$$$$$$$$@@@@@@@@@@@@@@@@....====................@@@@$$$$@@@@@@@@$$$$$$$$@@@@@@@@",
"@@@@@@@@@@@@$$$$$$$$@@@@@@@@@@@@@@@@$$$$@@@@@@@@$$$$$$$$@@@@@@@@@@@@@@@@....====................@@@@$$$$@@@@@@@@$$$$$$$$@@@@@@@@",
"@@@@@@@@@@@@$$$$$$$$@@@@@@@@@@@@@@@@$$$$@@@@@@@@$$$$$$$$@@@@@@@@@@@@@@@@....====................@@@@$$$$@@@@@@@@$$$$$$$$@@@@@@@@",
"@@@@@@@@@@@@$$$$$$$$@@@@@@@@@@@@@@@@$$$$@@@@@@@@$$$$$$$$@@@@@@@@@@@@@@@@....====................@@@@$$$$@@@@@@@@$$$$$$$$@@@@@@@@",
"@@@@@@@@$$$$$$$$$$$$$$$$@@@@@@@@@@@@@@@@@@@@@@@@@@@@@@@@@@@@@@@@@@@@....========----------------....@@@@@@@@@@@@@@@@@@@@@@@@@@@@",
"@@@@@@@@$$$$$$$$$$$$$$$$@@@@@@@@@@@@@@@@@@@@@@@@@@@@@@@@@@@@@@@@@@@@....========----------------....@@@@@@@@@@@@@@@@@@@@@@@@@@@@",
"@@@@@@@@$$$$$$$$$$$$$$$$@@@@@@@@@@@@@@@@@@@@@@@@@@@@@@@@@@@@@@@@@@@@....========----------------....@@@@@@@@@@@@@@@@@@@@@@@@@@@@",
"@@@@@@@@$$$$$$$$$$$$$$$$@@@@@@@@@@@@@@@@@@@@@@@@@@@@@@@@@@@@@@@@@@@@....========----------------....@@@@@@@@@@@@@@@@@@@@@@@@@@@@",
"@@@@@@@@$$$$$$$$$$$$$$$$@@@@@@@@@@@@@@@@@@@@@@@@@@@@@@@@@@@@@@@@....====------------------------....@@@@@@@@@@@@@@@@@@@@@@@@@@@@",
"@@@@@@@@$$$$$$$$$$$$$$$$@@@@@@@@@@@@@@@@@@@@@@@@@@@@@@@@@@@@@@@@....====------------------------....@@@@@@@@@@@@@@@@@@@@@@@@@@@@",
"@@@@@@@@$$$$$$$$$$$$$$$$@@@@@@@@@@@@@@@@@@@@@@@@@@@@@@@@@@@@@@@@....====------------------------....@@@@@@@@@@@@@@@@@@@@@@@@@@@@",
"@@@@@@@@$$$$$$$$$$$$$$$$@@@@@@@@@@@@@@@@@@@@@@@@@@@@@@@@@@@@@@@@....====------------------------....@@@@@@@@@@@@@@@@@@@@@@@@@@@@",
"@@@@@@@@@@@@$$$$$$$$$$$$@@@@@@@@@@@@@@@@$$$$$$$$@@@@@@@@@@@@@@@@....--------;;;;;;;;;;;;;;;;;;;;....@@@@$$$$$$$$@@@@@@@@@@@@@@@@",
"@@@@@@@@@@@@$$$$$$$$$$$$@@@@@@@@@@@@@@@@$$$$$$$$@@@@@@@@@@@@@@@@....--------;;;;;;;;;;;;;;;;;;;;....@@@@$$$$$$$$@@@@@@@@@@@@@@@@",
"@@@@@@@@@@@@$$$$$$$$$$$$@@@@@@@@@@@@@@@@$$$$$$$$@@@@@@@@@@@@@@@@....--------;;;;;;;;;;;;;;;;;;;;....@@@@$$$$$$$$@@@@@@@@@@@@@@@@",
"@@@@@@@@@@@@$$$$$$$$$$$$@@@@@@@@@@@@@@@@$$$$$$$$@@@@@@@@@@@@@@@@....--------;;;;;;;;;;;;;;;;;;;;....@@@@$$$$$$$$@@@@@@@@@@@@@@@@",
"@@@@@@@@@@@@@@@@@@@@@@@@@@@@@@@@@@@@@@@@$$$$$$$$@@@@@@@@@@@@@@@@....--------;;;;....................@@@@$$$$$$$$@@@@@@@@@@@@@@@@",
"@@@@@@@@@@@@@@@@@@@@@@@@@@@@@@@@@@@@@@@@$$$$$$$$@@@@@@@@@@@@@@@@....--------;;;;....................@@@@$$$$$$$$@@@@@@@@@@@@@@@@",
"@@@@@@@@@@@@@@@@@@@@@@@@@@@@@@@@@@@@@@@@$$$$$$$$@@@@@@@@@@@@@@@@....--------;;;;....................@@@@$$$$$$$$@@@@@@@@@@@@@@@@",
"@@@@@@@@@@@@@@@@@@@@@@@@@@@@@@@@@@@@@@@@$$$$$$$$@@@@@@@@@@@@@@@@....--------;;;;....................@@@@$$$$$$$$@@@@@@@@@@@@@@@@",
"@@@@@@@@@@@@@@@@@@@@@@@@@@@@@@@@@@@@@@@@@@@@@@@@@@@@@@@@@@@@@@@@....====----;;;;;;;;;;;;....;;;;....@@@@@@@@@@@@@@@@@@@@@@@@@@@@",
"@@@@@@@@@@@@@@@@@@@@@@@@@@@@@@@@@@@@@@@@@@@@@@@@@@@@@@@@@@@@@@@@....====----;;;;;;;;;;;;....;;;;....@@@@@@@@@@@@@@@@@@@@@@@@@@@@",
"@@@@@@@@@@@@@@@@@@@@@@@@@@@@@@@@@@@@@@@@@@@@@@@@@@@@@@@@@@@@@@@@....====----;;;;;;;;;;;;....;;;;....@@@@@@@@@@@@@@@@@@@@@@@@@@@@",
"@@@@@@@@@@@@@@@@@@@@@@@@@@@@@@@@@@@@@@@@@@@@@@@@@@@@@@@@@@@@@@@@....====----;;;;;;;;;;;;....;;;;....@@@@@@@@@@@@@@@@@@@@@@@@@@@@",
"@@@@$$$$$$$$$$$$@@@@@@@@@@@@@@@@@@@@@@@@@@@@@@@@$$$$$$$$@@@@@@@@@@@@....========%%%%%%%%&&&&%%%%....@@@@@@@@@@@@$$$$$$$$@@@@@@@@",
"@@@@$$$$$$$$$$$$@@@@@@@@@@@@@@@@@@@@@@@@@@@@@@@@$$$$$$$$@@@@@@@@@@@@....========%%%%%%%%&&&&%%%%....@@@@@@@@@@@@$$$$$$$$@@@@@@@@",
"@@@@$$$$$$$$$$$$@@@@@@@@@@@@@@@@@@@@@@@@@@@@@@@@$$$$$$$$@@@@@@@@@@@@....========%%%%%%%%&&&&%%%%....@@@@@@@@@@@@$$$$$$$$@@@@@@@@",
"@@@@$$$$$$$$$$$$@@@@@@@@@@@@@@@@@@@@@@@@@@@@@@@@$$$$$$$$@@@@@@@@@@@@....========%%%%%%%%&&&&%%%%....@@@@@@@@@@@@$$$$$$$$@@@@@@@@",
"$$$$$$$$$$$$$$$$$$$$$$$$@@@@@@@@@@@@@@@@$$$$$$$$$$$$$$$$****@@@@%%%%....%%%%%%%%================....@@@@$$$$$$$$$$$$$$$$****@@@@",
"$$$$$$$$$$$$$$$$$$$$$$$$@@@@@@@@@@@@@@@@$$$$$$$$$$$$$$$$****@@@@%%%%....%%%%%%%%================....@@@@$$$$$$$$$$$$$$$$****@@@@",
"$$$$$$$$$$$$$$$$$$$$$$$$@@@@@@@@@@@@@@@@$$$$$$$$$$$$$$$$****@@@@%%%%....%%%%%%%%================....@@@@$$$$$$$$$$$$$$$$****@@@@",
"$$$$$$$$$$$$$$$$$$$$$$$$@@@@@@@@@@@@@@@@$$$$$$$$$$$$$$$$****@@@@%%%%....%%%%%%%%================....@@@@$$$$$$$$$$$$$$$$****@@@@",
"$$$$$$$$$$$$$$$$$$$$$$$$****@@@@@@@@$$$$$$$$$$$$$$$$$$$$%%%%%%%%%%%%....========----------------....$$$$$$$$$$$$$$$$$$$$****@@@@",
"$$$$$$$$$$$$$$$$$$$$$$$$****@@@@@@@@$$$$$$$$$$$$$$$$$$$$%%%%%%%%%%%%....========----------------....$$$$$$$$$$$$$$$$$$$$****@@@@",
"$$$$$$$$$$$$$$$$$$$$$$$$****@@@@@@@@$$$$$$$$$$$$$$$$$$$$%%%%%%%%%%%%....========----------------....$$$$$$$$$$$$$$$$$$$$****@@@@",
"$$$$$$$$$$$$$$$$$$$$$$$$****@@@@@@@@$$$$$$$$$$$$$$$$$$$$%%%%%%%%%%%%....========----------------....$$$$$$$$$$$$$$$$$$$$****@@@@",
"$$$$$$$$$$$$$$$$$$$$$$$$****@@@@@@@@$$$$$$$$$$$$$$$$$$$$****%%%%%%%%....========................oooo++++$$$$$$$$$$$$$$$$****@@@@",
"$$$$$$$$$$$$$$$$$$$$$$$$****@@@@@@@@$$$$$$$$$$$$$$$$$$$$****%%%%%%%%....========................oooo++++$$$$$$$$$$$$$$$$****@@@@",
"$$$$$$$$$$$$$$$$$$$$$$$$****@@@@@@@@$$$$$$$$$$$$$$$$$$$$****%%%%%%%%....========................oooo++++$$$$$$$$$$$$$$$$****@@@@",
"$$$$$$$$$$$$$$$$$$$$$$$$****@@@@@@@@$$$$$$$$$$$$$$$$$$$$****%%%%%%%%....========................oooo++++$$$$$$$$$$$$$$$$****@@@@",
"$$$$$$$$$$$$$$$$$$$$********@@@@@@@@$$$$$$$$$$$$$$$$****####oooo++++....====    ++++########oooooooo++++++++$$$$$$$$********@@@@",
"$$$$$$$$$$$$$$$$$$$$********@@@@@@@@$$$$$$$$$$$$$$$$****####oooo++++....====    ++++########oooooooo++++++++$$$$$$$$********@@@@",
"$$$$$$$$$$$$$$$$$$$$********@@@@@@@@$$$$$$$$$$$$$$$$****####oooo++++....====    ++++########oooooooo++++++++$$$$$$$$********@@@@",
"$$$$$$$$$$$$$$$$$$$$********@@@@@@@@$$$$$$$$$$$$$$$$****####oooo++++....====    ++++########oooooooo++++++++$$$$$$$$********@@@@",
"OOOO********************OOOO@@@@@@@@OOOO****************XXXXooooXXXX        ############XXXXooooooooXXXX####************OOOO@@@@",
"OOOO********************OOOO@@@@@@@@OOOO****************XXXXooooXXXX        ############XXXXooooooooXXXX####************OOOO@@@@",
"OOOO********************OOOO@@@@@@@@OOOO****************XXXXooooXXXX        ############XXXXooooooooXXXX####************OOOO@@@@",
"OOOO********************OOOO@@@@@@@@OOOO****************XXXXooooXXXX        ############XXXXooooooooXXXX####************OOOO@@@@",
"@@@@OOOOOOOOOOOOOOOOOOOO@@@@@@@@@@@@@@@@OOOOOOOOOOOOOOOO@@@@ooooooooXXXXXXXXXXXXXXXXXXXXooooooooooooooooOOOOOOOOOOOOOOOO@@@@@@@@",
"@@@@OOOOOOOOOOOOOOOOOOOO@@@@@@@@@@@@@@@@OOOOOOOOOOOOOOOO@@@@ooooooooXXXXXXXXXXXXXXXXXXXXooooooooooooooooOOOOOOOOOOOOOOOO@@@@@@@@",
"@@@@OOOOOOOOOOOOOOOOOOOO@@@@@@@@@@@@@@@@OOOOOOOOOOOOOOOO@@@@ooooooooXXXXXXXXXXXXXXXXXXXXooooooooooooooooOOOOOOOOOOOOOOOO@@@@@@@@",
"@@@@OOOOOOOOOOOOOOOOOOOO@@@@@@@@@@@@@@@@OOOOOOOOOOOOOOOO@@@@ooooooooXXXXXXXXXXXXXXXXXXXXooooooooooooooooOOOOOOOOOOOOOOOO@@@@@@@@"
};
