/* XPM */
static char *result[] = {
/* columns rows colors chars-per-pixel */
"64 64 5 1 ",
"  c #181425",
". c #514047",
"X c gray47",
"o c gray64",
"O c white",
/* pixels */
"................................................................",
"................................................................",
"................................................................",
"................................................................",
"................................................................",
"................................................................",
"................................................................",
"................................................................",
"............OOOO................................OOOO............",
"............OOOO................................OOOO............",
"............OOOO................................OOOO............",
"............OOOO................................OOOO............",
"............OOOO............XXXX................OOOO............",
"............OOOO............XXXX................OOOO............",
"............OOOO............XXXX................OOOO............",
"............OOOO............XXXX................OOOO............",
"........OOOOooooXXXX........................OOOOooooXXXX........",
"........OOOOooooXXXX........................OOOOooooXXXX........",
"........OOOOooooXXXX........................OOOOooooXXXX........",
"........OOOOooooXXXX........................OOOOooooXXXX........",
"....    ooooooooXXXX    ................    ooooooooXXXX    ....",
"....    ooooooooXXXX    ................    ooooooooXXXX    ....",
"....    ooooooooXXXX    ................    ooooooooXXXX    ....",
"....    ooooooooXXXX    ................    ooooooooXXXX    ....",
"....        XXXX        ................        XXXX        ....",
"....        XXXX        ................        XXXX        ....",
"....        XXXX        ................        XXXX        ....",
"....        XXXX        ................        XXXX        ....",
"........            ........................            ........",
"........            ........................            ........",
"........            ........................            ........",
"........            ........................            ........",
"................................................................",
"................................................................",
"................................................................",
"................................................................",
"................................................................",
"................................................................",
"................................................................",
"................................................................",
"............OOOO................................OOOO............",
"............OOOO................................OOOO............",
"............OOOO................................OOOO............",
"............OOOO................................OOOO............",
"............OOOO................XXXX............OOOO............",
"............OOOO................XXXX............OOOO............",
"............OOOO................XXXX............OOOO............",
"............OOOO................XXXX............OOOO............",
"........OOOOooooXXXX........................OOOOooooXXXX........",
"........OOOOooooXXXX........................OOOOooooXXXX........",
"........OOOOooooXXXX........................OOOOooooXXXX........",
"........OOOOooooXXXX........................OOOOooooXXXX........",
"....    ooooooooXXXX    ................    ooooooooXXXX    ....",
"....    ooooooooXXXX    ................    ooooooooXXXX    ....",
"....    ooooooooXXXX    ................    ooooooooXXXX    ....",
"....    ooooooooXXXX    ................    ooooooooXXXX    ....",
"....        XXXX        ................        XXXX        ....",
"....        XXXX        ................        XXXX        ....",
"....        XXXX        ................        XXXX        ....",
"....        XXXX        ................        XXXX        ....",
"........            ........................            ........",
"........            ........................            ........",
"........            ........................            ........",
"........            ........................            ........"
};
