/* XPM */
static char *result[] = {
/* columns rows colors chars-per-pixel */
"64 64 169 2 ",
"   c #000000",
".  c #0D0101",
"X  c #030C04",
"o  c #060A09",
"O  c #080F0A",
"+  c #060608",
"@  c #180202",
"#  c #041205",
"$  c #09140C",
"%  c #071B0A",
"&  c #0A1C0C",
"*  c #0D1D10",
"=  c #19181A",
"-  c #220404",
";  c #0B220E",
":  c #0E2511",
">  c #0F2A12",
",  c #102614",
"<  c #122D16",
"1  c #142E18",
"2  c #133117",
"3  c #16341A",
"4  c #18361C",
"5  c #173A1C",
"6  c #193B1E",
"7  c #1B3E20",
"8  c #2B282C",
"9  c #3E3B3F",
"0  c #470F0F",
"q  c #581515",
"w  c #741F1F",
"e  c #1B411F",
"r  c #1E4422",
"t  c #1F4824",
"y  c #204725",
"u  c #214A26",
"i  c #224E28",
"p  c #25532B",
"a  c #28592E",
"s  c #2B5E31",
"d  c #2D6334",
"f  c #2F6837",
"g  c #326D39",
"h  c #3B6F3B",
"j  c #306837",
"k  c #35743D",
"l  c #39773F",
"z  c #7F5F39",
"x  c #44743E",
"c  c #4B743E",
"v  c #55703D",
"b  c #4A6C3B",
"n  c #6F673B",
"m  c #646B3C",
"M  c #6C693B",
"N  c #71663B",
"B  c #7C603A",
"V  c #65763C",
"C  c #3A6F41",
"Z  c #397741",
"A  c #3A7843",
"S  c #3F7A49",
"D  c #434045",
"F  c #555157",
"G  c #407747",
"H  c #43794C",
"J  c #45784B",
"K  c #4C7A54",
"L  c #467D52",
"P  c #59795E",
"I  c #645F66",
"U  c #5E7A62",
"Y  c #607A64",
"T  c #667B6A",
"R  c #697B6D",
"E  c #6E7B72",
"W  c #717C75",
"Q  c #77727A",
"!  c #767C79",
"~  c #7B7D7E",
"^  c #7B757E",
"/  c #756F77",
"(  c #852525",
")  c #A42F2F",
"_  c #AB3332",
"`  c #A53D34",
"'  c #A83933",
"]  c #A63431",
"[  c #9D4635",
"{  c #954F36",
"}  c #9A4A36",
"|  c #8E5537",
" . c #845B39",
".. c #8B5738",
"X. c #935037",
"o. c #A14234",
"O. c #907538",
"+. c #B47332",
"@. c #C6732E",
"#. c #DC7127",
"$. c #DB7128",
"%. c #3D8546",
"&. c #3E8847",
"*. c #3E8948",
"=. c #539C5D",
"-. c #548262",
";. c #5B866B",
":. c #588467",
">. c #5F8870",
",. c #628A73",
"<. c #6A8E7D",
"1. c #668C78",
"2. c #7B997D",
"3. c #5DAE68",
"4. c #62B66D",
"5. c #7E7D81",
"6. c #7D7780",
"7. c #827E85",
"8. c #6D8F80",
"9. c #6F9183",
"0. c #729286",
"q. c #75948A",
"w. c #78968E",
"e. c #7F9C81",
"r. c #7A9790",
"t. c #7D9993",
"y. c #829E84",
"u. c #809B97",
"i. c #849D9C",
"p. c #8AA38C",
"a. c #86A188",
"s. c #8EA690",
"d. c #94AA96",
"f. c #98AD9A",
"g. c #9EB19F",
"h. c #8BA2A4",
"j. c #8FA5A9",
"k. c #87A0A0",
"l. c #91A6AB",
"z. c #94A8AF",
"x. c #9EB2A0",
"c. c #96AAB2",
"v. c #9AACB5",
"b. c #A3B5A4",
"n. c #A7B8A9",
"m. c #ACBBAD",
"M. c #AFBEB1",
"N. c #B9C6BA",
"B. c #BDC9BD",
"V. c #B3C2B5",
"C. c #BFCAC0",
"Z. c #C3CDC4",
"A. c #C6D0C7",
"S. c #C7D1C8",
"D. c #CBD4CC",
"F. c #CFD8D0",
"G. c #D3DBD4",
"H. c #D8DED8",
"J. c #D7DED8",
"K. c #DDE2DD",
"L. c #DFE4E0",
"P. c #E5E9E5",
"I. c #EAEEEB",
"U. c #E2E7E3",
"Y. c #EEF1EE",
"T. c #F3F5F3",
"R. c #FCFDFC",
"E. c #F7F8F7",
"W. c None",
/* pixels */
"W.W.W.W.W.W.W.W.W.W.W.W.W.W.W.W.W.W.W.W.W.W.W.W.W.W.W.W.W.W.W.W.W.W.W.W.W.W.W.W.W.W.W.W.W.W.W.W.W.W.W.W.W.W.W.W.W.W.W.W.W.W.W.W.",
"W.W.W.W.W.W.W.W.W.W.W.W.W.W.W.W.W.W.W.W.W.W.W.W.W.W.W.W.W.W.W.W.W.W.W.W.W.W.W.W.W.W.W.W.W.W.W.W.W.W.W.W.W.W.W.W.W.W.W.W.W.W.W.W.",
"W.W.W.W.W.W.W.W.W.W.W.W.W.W.W.W.W.W.W.W.W.W.W.W.W.W.W.W.W.W.W.W.W.W.W.W.W.W.W.W.W.W.W.W.W.W.W.W.W.W.W.W.W.W.W.W.W.W.W.W.W.W.W.W.",
"W.W.W.W.W.W.W.W.W.W.W.W.W.W.W.W.W.W.W.W.W.W.W.W.W.W.W.W.W.W.W.W.W.W.W.W.W.W.W.W.W.W.W.W.W.W.W.W.W.W.W.W.W.W.W.W.W.W.W.W.W.W.W.W.",
"W.W.W.W.W.W.W.W.W.W.W.W.W.W.W.W.W.W.W.W.W.W.W.W.W.W.W.W.W.W.W.W.W.W.W.W.W.W.W.W.W.W.W.W.W.W.W.W.W.W.W.W.W.W.W.W.W.W.W.W.W.W.W.W.",
"W.W.W.W.W.W.W.W.W.W.W.W.W.W.W.W.W.W.W.W.W.W.W.W.W.W.W.W.W.W.W.W.W.W.W.W.W.W.W.W.W.W.W.W.W.W.W.W.W.W.W.W.W.W.W.W.W.W.W.W.W.W.W.W.",
"W.W.W.W.W.W.W.W.W.W.W.W.W.W.W.W.W.W.W.W.W.W.W.W.W.W.W.W.W.W.W.W.W.W.W.W.W.W.W.W.W.W.W.W.W.W.W.W.W.W.W.W.W.W.W.W.W.W.W.W.W.W.W.W.",
"W.W.W.W.W.W.W.W.W.W.W.W.W.W.W.W.W.W.W.W.W.W.W.W.W.W.W.W.W.W.W.W.W.W.W.W.W.W.W.W.W.W.W.W.W.W.W.W.W.W.W.W.W.W.W.W.W.W.W.W.W.W.W.W.",
"W.W.W.W.W.W.W.W.W.W.W.W.W.W.W.W.W.W.W.W.W.W.W.W.W.W.W.W.W.W.W.W.W.W.W.W.W.W.W.W.W.W.W.W.W.W.W.W.W.W.W.W.W.W.W.W.W.W.W.W.W.W.W.W.",
"W.W.W.W.W.W.W.W.W.W.W.W.W.W.W.W.W.W.W.W.W.W.W.W.W.W.W.W.W.W.W.W.W.W.W.W.W.W.W.W.W.W.W.W.W.W.W.W.W.W.W.W.W.W.W.W.W.W.W.W.W.W.W.W.",
"W.W.W.W.W.W.W.W.W.W.W.W.W.W.W.W.W.W.W.W.W.W.W.W.W.W.W.W.l l l W.W.W.W.W.W.W.W.W.W.W.W.W.W.W.W.W.W.W.W.W.W.W.W.W.W.W.W.W.W.W.W.W.",
"W.W.W.W.W.W.W.W.W.W.W.W.W.W.W.W.W.W.W.W.W.W.W.W.W.W.p a d d l l W.W.W.W.W.W.W.W.W.W.W.W.W.W.W.W.W.W.W.W.W.W.W.W.W.W.W.W.W.W.W.W.",
"W.W.W.W.W.W.W.W.W.W.W.W.W.W.W.W.W.W.W.W.W.W.W.W.W.W.a d d d Z W.W.W.W.W.W.W.W.W.W.W.W.W.W.W.W.W.W.W.W.W.W.W.W.W.W.W.W.W.W.W.W.W.",
"W.W.W.W.W.W.W.W.W.W.W.W.W.W.W.W.W.W.W.W.W.W.W.W.W.W.s d f d l W.W.W.W.W.W.W.W.W.W.W.W.W.W.W.W.W.W.W.W.W.W.W.W.W.W.W.W.W.W.W.W.W.",
"W.W.W.W.W.W.W.W.W.W.W.W.W.W.W.W.W.W.W.W.W.W.W.W.W.l d f j d l W.W.W.W.W.W.W.W.W.W.W.W.W.W.W.W.W.W.W.W.W.W.W.W.W.W.W.W.W.W.W.W.W.",
"W.W.W.W.W.W.W.W.W.W.W.W.W.W.W.W.W.W.7 3 1 1 5 r p s M m m M a u 1 & W.W.W.W.W.W.W.W.W.W.W.W.W.W.W.W.W.W.W.W.W.W.W.W.W.W.W.W.W.W.",
"W.W.W.W.W.W.W.W.W.W.W.W.W.W.W.W.W.W.r r 7 7 r u a d m m m M a r 1 &       X # ; 2 6 e t t t t t r t i p W.W.W.W.W.W.W.W.W.W.W.W.",
"W.W.W.W.W.W.W.W.W.W.W.W.W.W.W.W.W.W.u t y y u p a d M m m M a r 1 & X X X # ; < 5 e t t t r r r 6 r t i W.W.W.W.W.W.W.W.W.W.W.W.",
"W.W.W.W.W.W.W.W.W.W.W.W.W.W.W.W.W.W.i i u u i p a a M m m n a u 4 , & & & > 2 6 e t t t r 6 3 1 2 2 e i W.W.W.W.W.W.W.W.W.W.W.W.",
"W.W.W.W.W.W.W.W.W.W.W.W.W.W.W.W.W.W.i i i u | |  . .Y P P P a i 7 4 3 2 5 6 r i p p i t r 6 1 : > < 3 t W.W.W.W.W.W.W.W.W.W.W.W.",
"W.W.W.W.W.W.W.W.W.W.W.W.6 3 2 3 6 r y u u r { { X...T Y Y Y a i u r 7 r u i p p p a p t y 7 %.%.g k k g e e 5 2 W.W.W.W.W.W.W.W.",
"W.W.W.W.W.W.W.W.W.W.W.W.< ; > 2 4 r y y r 7 [ [ [ } W R T T p p u u u i p p s s d a a p i r %.%.k g k k 2 2 2 ; W.W.W.W.W.W.W.W.",
"W.W.W.W.W.W.W.l l W.W.W.; % & > 6 r y r 7 2 ` ` ` o.! ! E E i u u u i i p s s d d d a a i i %.%.k k k g ; % % # W.W.W.W.W.W.W.W.",
"W.W.W.W.W.W.W.l l W.W.W.> % % > 5 r y r 7 < 7.7.7.7.~ ! ! ! k.k.k.k.i.t.w.9.8.<.<.9.0.w.t.t.i t e 3 k g # # X   W.W.W.W.W.W.W.W.",
"W.W.W.W.W.W.W.W.p i t 6 g k k g k k r r 7 1 7.7.7.7.7.5.5.~ l.l.j.h.k.u.r.q.q.0.q.w.w.t.t.t.i t r e %.*.k g g k         W.W.W.W.",
"W.W.W.W.W.W.W.W.p i t t k g g k k k t t 7 1 7.7.7.7.5.7.5.7.c.c.z.j.h.u.t.r.r.t.t.t.t.t.t.i.i t t r %.%.g k g g         W.W.W.W.",
"W.W.W.W.W.W.W.W.e i i i k k g k k k t t r 3 5.7.7.5.5.5.7.7.v.c.z.h.i.u.t.t.u.u.i.t.t.t.t.i.t i t t %.*.g k g k         W.W.W.W.",
"W.W.W.W.W.W.W.W.e t t i k k 4 2 2 7 W E W ! j.l.h.h.K.U.I.T.R.E.Y.U.G.Z.Z.Z.D.F.F.F.F.F.F.F.i i i t *.*.g g k g         W.W.W.W.",
"W.W.W.W.  X ; 2 k k k k %.%.3 1 1 4 W E W W k.i.u.t.Z.D.J.P.T.T.P.H.S.B.B.C.Z.S.D.S.D.S.D.D.i i i t %.%.*.*.*.*.g k g g         ",
"W.W.W.W.  # % 2 k k k k %.%.5 2 1 4 ! E R T q.q.9.<.n.M.B.J.P.I.U.D.Z.V.V.B.Z.Z.A.Z.Z.A.A.S.p i p t %.%.*.*.*.*.k g k k         ",
"W.W.W.W.  # & 2 k k k k %.%.5 3 1 3 ! E T U <.1.,.;.s.d.n.Z.J.K.H.D.Z.N.B.Z.Z.Z.C.C.B.B.C.B.a p p i %.%.*.*.*.*.g k k g         ",
"W.W.W.W.  # % > g k g k l %.e e 4 7 i.t.0.1.;.;.:.-.e.a.d.M.p t y u p p p i i i p a a s s a s a p i %.%.*.*.*.*.g g g k         ",
"        g k g k %.%.%.%.S %.t t r t t.w.8.>.:.-.-.-.2.y.s.b.a u u u u u r u u i p a s d d d d s a u %.%.*.*.*.*.*.*.*.*.        ",
"        g g k g *.*.%.%.%.%.r t t i t.q.<.;.-.-.-.U 2.e.p.x.s i r r r 4 4 4 4 r i a s d d d d s a u %.%.*.*.*.*.*.*.*.*.        ",
"        k g g g *.*.%.%.%.%.7 r t t t.0.<.:.:.-.-.-.y.y.s.x.a u 7 4 4 < , < 2 4 u a s d j d d d a e %.-.*.*.*.*.*.*.*.*.        ",
"        g k Z g *.*.*.*.*.%.3 7 r t t.q.8.>.:.-.-.-.y.p.s.b.B.F.U.I.T.R.R.R.* 1 7 i V.g.f.d.d s i e %.%.*.*.*.*.*.*.*.*.        ",
"        *.*.*.*.*.*.*.*.4.4.> 1 7 7 k.t.q.<.>.;.:.:.p.s.f.n.N.D.U.I.T.R.R.R.$ * 3 u B.n.g.g.s a i e ; # &.&.*.*.*.*.*.*.        ",
"        *.*.*.*.*.*.*.*.4.4.< , , 1 l.t.t.w.8.1.>.>.d.x.b.m.B.A.G.U.T.E.R.R.+ * < 7 D.N.M.M.s p e 2 % X &.&.*.*.*.*.*.*.        ",
"        *.*.*.*.*.*.*.*.4.4.A d 7 * z.l.k.t.t.q.9.8.n.n.M.M.V.C.D.J.P.T.R.R.+ $ , 3 H.F.S.A.i y e 2 ; X *.*.*.*.*.*.*.*.        ",
"        *.*.*.*.*.*.*.*.4.4.3.=.C 7 5.5.5.5.h.k.t.r.w.q.q.q.q.q.w.r.G.U.T.R.R.R.R.T.I.U.L.L.r 4 2 > # X *.*.*.*.*.*.*.*.        ",
"        *.*.*.*.k %.k l k Z l k C 7 5.7.7.7.v.z.l.h.k.i.u.t.r.0.0.q.D.H.I.T.R.R.R.R.R.T.T.Y.< < : & #   k l k %.*.*.*.*.        ",
"        *.*.*.*.k l k k %.k k k C s 5.5.7.7.v.v.c.c.l.j.h.k.u.r.q.q.Z.G.P.T.R.R.R.R.R.R.R.R.$ $ $ $   X k k k k *.*.*.*.        ",
"        *.*.*.*.k k k k k k l k Z g E 5.7.7.v.v.v.v.c.c.z.j.k.u.t.r.D.J.P.T.R.R.R.R.R.R.R.R.o X o +     %.k k Z *.*.*.*.        ",
"        *.*.*.*.k %.k k k k k %.Z Z f 7 O O 7.7.7.7.7.7.7.7.` [ { X.{ } o.` $.$.$.#._ _ _ ) + X         k k k k *.*.*.*.        ",
"        k g k g k l k %.%.k l k Z k k s 7 1 W W Q 7.7.7.7.7.' o.[ [ [ ` ` ` $.+.+.@.o._ ' | g k l k l k l k l k g k g k         ",
"        g k k g l l Z k k Z k l k k Z k s C H H 9 I ^ 7.7.y._ ' ` [ [ [ ' } O.V K O. .} { M k l l l k l l l k %.k g k g         ",
"        g k g k l l l l k k l l %.k k k k Z C Z + 8 F / 7./ ( ( z N N  ... .V l x c v n n x l l l l Z k Z l k l g g g k         ",
"        k g k g l l x c x x l l k k Z k Z Z Z Z     - q ( w 9 8 S A A G J K G l l l l l G l l l k l l l k Z k l g k g k         ",
"W.W.W.W.        k g g k g k h h k l k l l k k %.k k l l x x A l k Z Z Z k Z Z Z l l k l l Z k Z k g k g g k g k         W.W.W.W.",
"W.W.W.W.        k g g k k g k g %.k k l k l Z k k k %.k l Z A A Z Z Z Z Z k Z Z l k Z l l Z k Z g g k g k g k g         W.W.W.W.",
"W.W.W.W.        g k g g h h g k k k l l %.k l l k Z k k l k k %.S K S Z k k Z Z l l l l k Z g s d d g k k g k g         W.W.W.W.",
"W.W.W.W.        k g k h b b k g k %.k k k k l Z %.k l k k Z k k A K -.S A %.S A k %.Z k Z Z j j g k g g g k g k         W.W.W.W.",
"W.W.W.W.W.W.W.W.        . - @   k g k g l Z k Z k k l k %.k k l Z Z S L *.L S A k Z k %.g Z j g                 W.W.W.W.W.W.W.W.",
"W.W.W.W.W.W.W.W.        - 0 .   g k g k l k l k l l l l k k k k Z Z Z Z Z Z S Z k k k k k g k g                 W.W.W.W.W.W.W.W.",
"W.W.W.W.W.W.W.W.          - .   g g g k l l l l k %.k k l Z k k Z A A A %.Z Z Z k %.k Z g k g g                 W.W.W.W.W.W.W.W.",
"W.W.W.W.W.W.W.W.                k g k g Z k l l Z k k k k Z l %.Z A k Z k k k k k l k Z k g k k                 W.W.W.W.W.W.W.W.",
"W.W.W.W.W.W.W.W.W.W.W.W.W.W.W.W.                                                                W.W.W.W.W.W.W.W.W.W.W.W.W.W.W.W.",
"W.W.W.W.W.W.W.W.W.W.W.W.W.W.W.W.                                                                W.W.W.W.W.W.W.W.W.W.W.W.W.W.W.W.",
"W.W.W.W.W.W.W.W.W.W.W.W.W.W.W.W.                                                                W.W.W.W.W.W.W.W.W.W.W.W.W.W.W.W.",
"W.W.W.W.W.W.W.W.W.W.W.W.W.W.W.W.                              + = =                             W.W.W.W.W.W.W.W.W.W.W.W.W.W.W.W.",
"W.W.W.W.W.W.W.W.W.W.W.W.W.W.W.W.W.W.W.W.W.W.W.W.W.W.W.W.W.W.W.W.W.W.W.W.W.W.W.W.W.W.W.W.W.W.W.W.W.W.W.W.W.W.W.W.W.W.W.W.W.W.W.W.",
"W.W.W.W.W.W.W.W.W.W.W.W.W.W.W.W.W.W.W.W.W.W.W.W.W.W.W.W.W.W.W.W.W.W.W.W.W.W.W.W.W.W.W.W.W.W.W.W.W.W.W.W.W.W.W.W.W.W.W.W.W.W.W.W.",
"W.W.W.W.W.W.W.W.W.W.W.W.W.W.W.W.W.W.W.W.W.W.W.W.W.W.W.W.W.W.W.W.W.W.W.W.W.W.W.W.W.W.W.W.W.W.W.W.W.W.W.W.W.W.W.W.W.W.W.W.W.W.W.W.",
"W.W.W.W.W.W.W.W.W.W.W.W.W.W.W.W.W.W.W.W.W.W.W.W.W.W.W.W.W.W.W.W.W.W.W.W.W.W.W.W.W.W.W.W.W.W.W.W.W.W.W.W.W.W.W.W.W.W.W.W.W.W.W.W."
};
