/* XPM */
static char *result[] = {
/* columns rows colors chars-per-pixel */
"64 64 197 2 ",
"   c black",
".  c #000201",
"X  c #050000",
"o  c #010501",
"O  c #010702",
"+  c #020A03",
"@  c #020C03",
"#  c #130202",
"$  c #190202",
"%  c #1C0303",
"&  c #031004",
"*  c #041105",
"=  c #041306",
"-  c #051406",
";  c #051607",
":  c #061708",
">  c #071A09",
",  c #071B0A",
"<  c #081C0A",
"1  c #081D0B",
"2  c #091E0B",
"3  c #091F0C",
"4  c #0B230E",
"5  c #0C240F",
"6  c #0D2610",
"7  c #0D2711",
"8  c #0E2811",
"9  c #0E2912",
"0  c #0F2912",
"q  c #0F2A12",
"w  c #112D14",
"e  c #122F15",
"r  c #122F16",
"t  c #123016",
"y  c #133317",
"u  c #143418",
"i  c #153519",
"p  c #16381B",
"a  c #17391B",
"s  c #173A1C",
"d  c #193C1D",
"f  c #193E1E",
"g  c #1A3F1F",
"h  c #1C4220",
"j  c #1C4321",
"k  c #1D4522",
"l  c #1E4723",
"z  c #1F4824",
"x  c #1F4924",
"c  c #204A25",
"v  c #204B25",
"b  c #204B26",
"n  c #214C26",
"m  c #214D27",
"M  c #224F28",
"N  c #235028",
"B  c #235029",
"V  c #235129",
"C  c #245229",
"Z  c #24522A",
"A  c #24532A",
"S  c #25542B",
"D  c #25552B",
"F  c #26552C",
"G  c #26562C",
"H  c #26572C",
"J  c #26572D",
"K  c #27572D",
"L  c #27582D",
"P  c #27592D",
"I  c #27592E",
"U  c #28592E",
"Y  c #285A2E",
"T  c #285B2F",
"R  c #295B2F",
"E  c #295C2F",
"W  c #295C30",
"Q  c #295D30",
"!  c #2A5D30",
"~  c #2A5E30",
"^  c #2A5E31",
"/  c #2B5F31",
"(  c #2B6031",
")  c #2B6032",
"_  c #2B6132",
"`  c #2C6132",
"'  c #2C6133",
"]  c #2C6233",
"[  c #2C6333",
"{  c #2D6333",
"}  c #2D6334",
"|  c #2D6434",
" . c #2E6534",
".. c #2E6535",
"X. c #2E6635",
"o. c #2E6736",
"O. c #2F6736",
"+. c #2F6836",
"@. c #2F6837",
"#. c #306937",
"$. c #306A37",
"%. c #306A38",
"&. c #316B38",
"*. c #316C38",
"=. c #316C39",
"-. c #326C39",
";. c #326D39",
":. c #326E3A",
">. c #336E3A",
",. c #336F3A",
"<. c #336F3B",
"1. c #33703B",
"2. c #33713B",
"3. c #34703B",
"4. c #34713B",
"5. c #34713C",
"6. c #34723C",
"7. c #35723C",
"8. c #34733C",
"9. c #35733D",
"0. c #35743D",
"q. c #36743D",
"w. c #36753E",
"e. c #36763E",
"r. c #37763E",
"t. c #37763F",
"y. c #37773F",
"u. c #37783F",
"i. c #377840",
"p. c #387840",
"a. c #387940",
"s. c #387A40",
"d. c #387A41",
"f. c #387B41",
"g. c #397B41",
"h. c #397C41",
"j. c #397C42",
"k. c #397D42",
"l. c #397E42",
"z. c #3A7E42",
"x. c #3A7E43",
"c. c #3A7F43",
"v. c #3A8043",
"b. c #3B8044",
"n. c #3B8144",
"m. c #3B8244",
"M. c #3B8245",
"N. c #3C8345",
"B. c #3E8146",
"V. c #3F8247",
"C. c #3C8445",
"Z. c #3C8446",
"A. c #3C8546",
"S. c #3D8646",
"D. c #3D8647",
"F. c #3D8747",
"G. c #3D8847",
"H. c #3E8847",
"J. c #3F8348",
"K. c #3E8848",
"L. c #3E8948",
"P. c #408449",
"I. c #418549",
"U. c #41854A",
"Y. c #41864A",
"T. c #42864A",
"R. c #42864B",
"E. c #42874B",
"W. c #43884B",
"Q. c #43884C",
"!. c #44894C",
"~. c #44894D",
"^. c #448A4D",
"/. c #458B4E",
"(. c #458C4E",
"). c #468C4F",
"_. c #478D50",
"`. c #478E50",
"'. c #488F51",
"]. c #489051",
"[. c #499052",
"{. c #4A9253",
"}. c #4B9455",
"|. c #4D9757",
" X c #509C5A",
".X c #529F5C",
"XX c #53A05D",
"oX c #54A25E",
"OX c #57A661",
"+X c #5AAA64",
"@X c #5BAC65",
"#X c #5BAD66",
"$X c #5DAF67",
"%X c #5FB26A",
"&X c #5FB36A",
"*X c #60B46B",
"=X c None",
/* pixels */
"=X=X=X=X=X=X=X=X=X=X=X=X=X=X=X=X=X=X=X=X=X=X=X=X=X=X=X=X=X=X=X=X=X=X=X=X=X=X=X=X=X=X=X=X=X=X=X=X=X=X=X=X=X=X=X=X=X=X=X=X=X=X=X=X",
"=X=X=X=X=X=X=X=X=X=X=X=X=X=X=X=X=X=X=X=X=X=X=X=X=X=X=X=X=X=X=X=X=X=X=X=X=X=X=X=X=X=X=X=X=X=X=X=X=X=X=X=X=X=X=X=X=X=X=X=X=X=X=X=X",
"=X=X=X=X=X=X=X=X=X=X=X=X=X=X=X=X=X=X=X=X=X=X=X=X=X=X=X=X=X=X=X=X=X=X=X=X=X=X=X=X=X=X=X=X=X=X=X=X=X=X=X=X=X=X=X=X=X=X=X=X=X=X=X=X",
"=X=X=X=X=X=X=X=X=X=X=X=X=X=X=X=X=Xy.y.y.=X=X=X=X=X=X=X=X=X=X=X=X=X=X=Xy.y.y.y.y.y.=X=X=X=X=X=X=X=X=X=X=X=X=X=X=X=X=X=X=X=X=X=X=X",
"=X=X=X=X=X=X=X=X=X=X=X=X=X=X=Xy.y.y.y.y.y.y.y.y.y.y.y.y.y.y.y.y.y.y.y.y.y.y.y.y.y.y.=X=X=X=X=X=X=X=X=X=X=X=X=X=X=X=X=X=X=X=X=X=X",
"=X=X=X=X=X=X=X=X=X=X=X=X=X=Xy.y.y.y.y.y.y.y.y.y.y.y.y.y.y.y.y.y.y.y.y.y.y.y.y.y.y.y.=X=X=Xy.y.y.y.=X=X=Xy.y.y.=X=X=X=X=X=X=X=X=X",
"=X=X=X=X=X=X=X=Xy.y.y.y.y.y.y.y.y.y.y.y.y.y.y.y.y.y.y.y.y.y.y.y.y.y.y.y.y.y.y.y.y.y.=X=X=Xy.y.y.y.y.y.y.y.y.y.y.y.=X=X=X=X=X=X=X",
"=X=X=X=X=X=Xy.y.y.y.y.y.y.y.y.y.y.y.y.y.y.y.y.y.y.y.y.y.y.y.y.y.y.y.y.y.y.y.y.y.y.y.=X=X=Xy.y.y.y.y.y.y.y.y.y.y.y.y.=X=X=X=X=X=X",
"=X=X=X=X=Xy.y.y.y.y.y.y.y.y.y.y.y.y.y.y.y.y.y.y.y.y.y.y.y.y.y.y.y.y.y.y.y.y.y.y.y.y.y.=Xy.y.y.y.y.y.y.y.y.y.y.y.y.y.=X=X=X=X=X=X",
"=X=X=X=Xy.y.y.y.y.y.y.y.y.y.y.y.y.y.y.y.y.y.y.y.y.y.y.y.y.y.y.y.y.y.y.y.y.y.y.y.y.y.y.y.y.y.y.y.y.y.y.y.y.y.y.y.y.y.=X=X=X=X=X=X",
"=X=X=X=Xy.y.y.y.y.y.y.y.y.y.y.y.y.y.y.y.y.y.y.y.y.y.y.y.y.y.y.y.y.y.y.y.y.y.y.y.y.y.y.y.y.y.y.y.y.y.y.y.y.y.y.y.y.y.=X=X=X=X=X=X",
"=X=X=X=Xy.y.y.y.y.y.y.y.y.y.y.y.y.y.y.y.y.y.y.y.y.y.y.y.y.y.y.y.y.y.y.y.y.y.y.y.y.y.y.y.y.y.y.y.y.y.y.y.y.y.y.y.y.y.=X=X=X=X=X=X",
"=X=X=X=Xy.y.y.y.y.y.y.y.y.y.y.y.y.y.y.y.y.y.y.y.y.y.y.y.y.y.y.y.y.y.y.y.y.y.y.y.y.y.y.y.y.y.y.y.y.y.y.y.y.y.y.y.y.y.=X=X=X=X=X=X",
"=X=X=Xy.y.y.y.y.y.y.y.y.y.y.y.y.y.y.y.y.y.y.y.y.y.y.y.y.y.y.y.y.y.y.=Xy.y.y.y.y.y.y.y.y.y.y.y.y.y.y.y.y.y.y.y.y.y.y.=X=X=X=X=X=X",
"=X=Xy.y.y.y.y.y.y.y.y.y.y.y.y.y.y.y.y.y.y.y.y.y.y.y.y.y.y.y.y.y.y.=X=X=X=Xy.y.y.y.y.y.y.y.y.y.y.y.y.y.y.y.y.y.y.y.y.=X=X=X=X=X=X",
"=X=Xy.y.y.y.y.y.y.y.y.y.y.y.y.y.y.y.y.y.y.y.y.y.y.y.y.y.y.y.y.y.y.=X=X=X=X=Xy.y.y.y.y.y.y.y.y.y.y.y.y.y.y.y.y.y.y.y.y.=X=X=X=X=X",
"=Xy.y.y.y.y.y.y.y.y.y.y.y.y.y.y.y.y.y.y.&.&.%.$.*.>.4.6.4.>.#.' L M v n C L ^ ' { ] / E I H H Y / | @.*.y.y.y.y.y.y.y.=X=X=X=X=X",
"=Xy.y.y.y.y.y.y.y.y.y.y.y.y.y.y.y.y.y.y.&.#.O.X.X.#.=.:.;.&.+.' Y S Z F R '  .o.o...] / W T T E )  .+.&.y.y.y.y.y.y.y.=X=X=X=X=X",
"y.y.y.y.y.y.y.y.y.y.y.y.y.y.y.y.y.y.y.y.O. .] ) / ) | X.+.O...) R L L ! { O.$.&.%.@.X.] _ ^ ~ ^ _ | +.$.y.y.y.y.y.y.y.y.=X=X=X=X",
"=Xy.y.y.y.y.y.y.y.y.y.y.y.y.y.y.y.y.y.y./ E Y L G G L R ( ] ] ( Q R ! ] o.%.*.=.&.$.O. .[ ` ) ) ` | o.#.y.y.y.y.y.y.y.y.=X=X=X=X",
"=Xy.y.y.y.y.y.y.y.y.y.y.#.O. .| | | ] W 9.9.9.9.m.M.M.m.v.c.z.z.x.x.z.k.h.g.g.g.g.g.h.j.j.k.k.k.w.w.w.w.#.%.;.<.y.y.y.y.y.=X=X=X",
"=Xy.y.y.y.y.y.y.y.y.y.y.=.@.| ` ) ( E D 9.6.8.9.m.N.N.M.b.c.k.k.k.l.k.k.j.h.h.h.h.h.h.g.g.g.h.j.w.w.w.w.O.#.-.1.y.y.y.y.y.=X=X=X",
"=Xy.y.y.y.y.y.y.y.y.y.y.,.&.X._ ^ Q Y A 9.8.9.9.n.m.m.n.c.l.j.j.j.k.k.k.k.k.k.k.k.k.h.f.d.s.d.f.w.w.w.w.X.#.;.3.y.y.y.y.y.=X=X=X",
"=X=Xy.y.y.y.y.y.y.y.y.y.6.,.#.} / ~ W U 9.9.0.0.c.c.v.c.z.j.h.h.h.j.j.j.k.z.x.x.x.k.h.d.s.a.a.s.e.e.w.w.X.#.:.4.y.y.y.y.y.=X=X=X",
"=X=Xy.y.y.y.y.y.6.9.0.q.y.t.e.w.w.w.w.w.z.z.z.k.k.k.k.k.j.h.g.g.h.h.h.j.k.z.x.x.z.k.g.d.a.a.a.a.a.d.h.j.w.w.e.t.4.1.=.| y.=X=X=X",
"=X=Xy.y.y.y.y.y.5.9.q.q.y.t.r.e.w.w.w.w.h.g.g.f.d.d.f.g.g.g.g.h.j.j.h.h.j.k.k.k.j.g.f.s.a.a.p.p.a.s.g.j.w.w.e.e.;.$.| U =X=X=X=X",
"=X=Xy.y.y.y.y.y.1.7.0.q.y.y.t.e.w.w.w.e.d.d.s.a.a.a.a.s.d.f.g.h.j.j.j.h.h.j.j.h.f.d.s.a.a.a.p.p.a.s.f.h.w.w.w.w.X.) F z =X=X=X=X",
"=X=Xy.y.y.y.y.y.>.3.6.9.y.t.t.e.w.w.w.e.s.a.a.a.a.a.a.a.s.d.g.h.j.k.j.j.h.h.g.f.s.a.a.a.a.a.a.a.a.s.g.j.w.w.w.w.Y N h y =X=X=X=X",
"=X=X=Xy.Y ^ } O.e.e.e.t.a.a.a.d.h.h.h.f.s.a.a.a.p.a.a.a.a.s.d.g.h.j.j.h.h.g.g.d.a.p.u.u.i.a.a.a.s.f.h.k.l.x.c.n.8.6.5.1.* + .   ",
"=X=X=X=XK R / [ w.w.w.e.d.s.s.d.g.g.g.f.d.a.a.a.a.a.a.a.a.a.s.d.f.g.g.g.g.g.f.s.a.u.u.u.u.a.s.d.g.h.k.k.x.v.n.C.5.2.1.1.o .     ",
"=X=X=X=XZ G I T 0.0.0.w.h.g.d.d.d.f.f.f.d.s.a.a.a.a.a.a.a.a.s.s.s.s.s.s.d.d.d.s.a.u.u.u.u.a.s.g.j.k.k.x.c.n.N.S.2.1.1.1.        ",
"=X=X=X=Xv m M M 9.9.9.0.x.k.g.f.d.d.d.d.d.s.a.a.a.a.a.a.a.a.a.a.a.a.a.a.a.s.s.a.p.u.y.u.u.a.s.g.k.z.x.c.n.N.A.F.1.1.1.1.        ",
"9 r u a 6.6.6.6.A.A.C.M.b.c.k.g.Y.P.P.I.I.P.V.B.a.a.a.a.a.a.a.a.i.i.u.i.a.a.a.a.p.u.u.u.u.a.s.h.k.z.c.n.M.A.D.H.L.L.L.L.        ",
"; 1 4 7 5.5.5.5.F.F.S.A.N.n.x.j.E.P.P.I.T.U.P.J.s.a.a.a.a.a.a.i.u.u.u.u.i.a.a.a.a.i.u.u.i.a.d.g.k.x.b.M.Z.D.G.L.L.L.L.L.        ",
"o + & - 1.1.1.1.K.H.F.D.A.N.v.k.Q.I.I.R.Q.!.Q.E.d.s.a.a.a.p.i.u.u.u.u.u.i.p.a.a.a.a.p.a.a.s.f.h.k.c.m.C.D.G.L.L.L.L.L.L.        ",
"    . o 1.1.1.1.L.L.K.G.D.Z.n.l.~.T.R.!.)._.`.(.g.d.a.a.p.i.u.u.y.y.y.u.u.i.a.a.a.a.a.s.d.g.j.k.c.n.N.S.G.L.L.L.L.L.L.L.        ",
"        L.L.L.L.L.L.L.K.%X+X.X{.^.E.W./.y.y.y.y.y.y.y.y.y.y.y.y.y.y.y.y.y.y.y.y.y.y.y.y.#.| / Y Z x s 8 K.L.L.L.L.L.L.L.        ",
"        L.L.L.L.L.L.L.L.&X@XXX}.).Q.^._.y.y.y.y.y.y.y.y.y.y.y.y.y.y.y.y.y.y.y.y.y.y.y.y...! S b j p 0 > L.L.L.L.L.L.L.L.        ",
"        L.L.L.L.L.L.L.L.*X#XoX|.'.(.(.`.y.y.y.y.y.y.y.y.y.y.y.y.y.y.y.y.y.y.y.y.y.y.y.y.[ J z s e 5 > + L.L.L.L.L.L.L.L.        ",
"        L.L.L.L.L.L.L.L.*X$XOX X}.[.'.].y.y.y.y.y.y.y.y.y.y.y.y.y.y.y.y.y.y.y.y.y.y.y.y.( B d 0 > * O   L.L.L.L.L.L.L.L.        ",
"        L.L.L.L.y.y.y.y.y.y.y.y.y.y.y.y.y.y.y.y. .@.*.;.;.;.,.6.y.y.y.y.y.y.y.y.y.y.y.y.T x y > + .     y.y.y.y.L.L.L.L.        ",
"        L.L.L.L.y.y.y.y.y.y.y.y.y.y.y.y.y.y.y.y.` { ..X.X.X.#.:.y.y.y.y.y.y.y.y.y.y.y.y.V f 6 @         y.y.y.y.L.L.L.L.        ",
"        L.L.L.L.y.y.y.y.y.y.y.y.y.y.y.y.y.y.y.y.P I I I L Y ) O.y.y.y.y.y.y.y.y.y.y.y.y.j e : .         y.y.y.y.L.L.L.L.        ",
"        L.L.L.L.y.y.y.y.y.y.y.y.y.y.y.y.y.y.y.y.c x l k k x C E y.y.y.y.y.y.y.y.y.y.y.y.r < O           y.y.y.y.L.L.L.L.        ",
"        1.1.1.1.y.y.y.y.y.y.y.y.y.y.y.y.y.y.y.y.i u t w q y g v y.y.y.y.y.y.y.y.y.y.y.y.y.y.y.y.y.y.y.y.y.y.y.y.1.1.1.1.        ",
"        1.1.1.1.y.y.y.y.y.y.y.y.y.y.y.y.y.y.y.y.2 , > - * > 0 i y.y.y.y.y.y.y.y.y.y.y.y.y.y.y.y.y.y.y.y.y.y.y.y.1.1.1.1.        ",
"        1.1.1.1.y.y.y.y.y.y.y.y.y.y.y.y.y.y.y.y.+ O .   . o = 3 y.y.y.y.y.y.y.y.y.y.y.y.y.y.y.y.y.y.y.y.y.y.y.y.1.1.1.1.        ",
"        1.1.1.1.y.y.y.y.y.y.y.y.y.y.y.y.y.y.y.y.            . + y.y.y.y.y.y.y.y.y.y.y.y.y.y.y.y.y.y.y.y.y.y.y.y.1.1.1.1.        ",
"=X=X=X=X        1.1.1.1.1.1.1.1.y.y.y.y.y.y.y.y.y.y.y.y.y.y.y.y.y.y.y.y.y.y.y.y.y.y.y.y.y.y.y.y.1.1.1.1.1.1.1.1.        =X=X=X=X",
"=X=X=X=X        1.1.1.1.1.1.1.1.y.y.y.y.y.y.y.y.y.y.y.y.y.y.y.y.y.y.y.y.y.y.y.y.y.y.y.y.y.y.y.y.1.1.1.1.1.1.1.1.        =X=X=X=X",
"=X=X=X=X        1.1.1.1.1.1.1.1.y.y.y.y.y.y.y.y.y.y.y.y.y.y.y.y.y.y.y.y.y.y.y.y.y.y.y.y.y.y.y.y.1.1.1.1.1.1.1.1.        =X=X=X=X",
"=X=X=X=X        1.1.1.1.1.1.1.1.y.y.y.y.y.y.y.y.y.y.y.y.y.y.y.y.y.y.y.y.y.y.y.y.y.y.y.y.y.y.y.y.1.1.1.1.1.1.1.1.        =X=X=X=X",
"=X=X=X=X=X=X=X=X                1.1.1.1.y.y.y.y.y.y.y.y.y.y.y.y.y.y.y.y.y.y.y.y.y.y.y.y.1.1.1.1.                =X=X=X=X=X=X=X=X",
"=X=X=X=X=X=X=X=X                1.1.1.1.y.y.y.y.y.y.y.y.y.y.y.y.y.y.y.y.y.y.y.y.y.y.y.y.1.1.1.1.                =X=X=X=X=X=X=X=X",
"=X=X=X=X=X=X=X=X                1.1.1.1.y.y.y.y.y.y.y.y.y.y.y.y.y.y.y.y.y.y.y.y.y.y.y.y.1.1.1.1.                =X=X=X=X=X=X=X=X",
"=X=X=X=X=X=X=X=X                1.1.1.1.y.y.y.y.y.y.y.y.y.y.y.y.y.y.y.y.y.y.y.y.y.y.y.y.1.1.1.1.                =X=X=X=X=X=X=X=X",
"=X=X=X=X=X=X=X=X=X=X=X=X=X=X=X=X                                                                =X=X=X=X=X=X=X=X=X=X=X=X=X=X=X=X",
"=X=X=X=X=X=X=X=X=X=X=X=X=X=X=X=X                                                                =X=X=X=X=X=X=X=X=X=X=X=X=X=X=X=X",
"=X=X=X=X=X=X=X=X=X=X=X=X=X=X=X=X# X                                                             =X=X=X=X=X=X=X=X=X=X=X=X=X=X=X=X",
"=X=X=X=X=X=X=X=X=X=X=X=X=X=X=X=X% $ $                                                           =X=X=X=X=X=X=X=X=X=X=X=X=X=X=X=X",
"=X=X=X=X=X=X=X=X=X=X=X=X=X=X=X=X=X=X=X=X=X=X=X=X=X=X=X=X=X=X=X=X=X=X=X=X=X=X=X=X=X=X=X=X=X=X=X=X=X=X=X=X=X=X=X=X=X=X=X=X=X=X=X=X",
"=X=X=X=X=X=X=X=X=X=X=X=X=X=X=X=X=X=X=X=X=X=X=X=X=X=X=X=X=X=X=X=X=X=X=X=X=X=X=X=X=X=X=X=X=X=X=X=X=X=X=X=X=X=X=X=X=X=X=X=X=X=X=X=X",
"=X=X=X=X=X=X=X=X=X=X=X=X=X=X=X=X=X=X=X=X=X=X=X=X=X=X=X=X=X=X=X=X=X=X=X=X=X=X=X=X=X=X=X=X=X=X=X=X=X=X=X=X=X=X=X=X=X=X=X=X=X=X=X=X",
"=X=X=X=X=X=X=X=X=X=X=X=X=X=X=X=X=X=X=X=X=X=X=X=X=X=X=X=X=X=X=X=X=X=X=X=X=X=X=X=X=X=X=X=X=X=X=X=X=X=X=X=X=X=X=X=X=X=X=X=X=X=X=X=X"
};
