/* XPM */
static char *result[] = {
/* columns rows colors chars-per-pixel */
"64 64 11 1 ",
"  c black",
". c #000201",
"X c #050000",
"o c #130202",
"O c #190202",
"+ c #1C0303",
"@ c #33703B",
"# c #37773F",
"$ c #3E8948",
"% c #62B76D",
"& c None",
/* pixels */
"&&&&&&&&&&&&&&&&&&&&&&&&&&&&&&&&&&&&&&&&&&&&&&&&&&&&&&&&&&&&&&&&",
"&&&&&&&&&&&&&&&&&&&&&&&&&&&&&&&&&&&&&&&&&&&&&&&&&&&&&&&&&&&&&&&&",
"&&&&&&&&&&&&&&&&&&&&&&&&&&&&&&&&&&&&&&&&&&&&&&&&&&&&&&&&&&&&&&&&",
"&&&&&&&&&&&&&&&&&&&&&&&&&&&&&&&&&&&&&&&&&&&&&&&&&&&&&&&&&&&&&&&&",
"&&&&&&&&&&&&&&&&&&&&&&&&&&&&&&&&&&&&&&&&&&&&&&&&&&&&&&&&&&&&&&&&",
"&&&&&&&&&&&&&&&&&&&&&&&&&&&&&&&&&&&&&&&&&&&&&&&&&&&&&&&&&&&&&&&&",
"&&&&&&&&&&&&&&&&&&&&&&&&&&&&&&&&&&&&&&&&&&&&&&&&&&&&&&&&&&&&&&&&",
"&&&&&&&&&&&&&&&&&&&&&&&&&&&&&&&&&&&&&&&&&&&&&&&&&&&&&&&&&&&&&&&&",
"&&&&&&&&&&&&&&&&&&&&&&&&&&&&&&&&&&&&&&&&&&&&&&&&&&&&&&&&&&&&&&&&",
"&&&&&&&&&&&&&&&&&&&&&&&&&&&&&&&&&&&&&&&&&&&&&&&&&&&&&&&&&&&&&&&&",
"&&&&&&&&&&&&&&&&&&&&&&&&&&&&&&&&&&&&&&&&&&&&&&&&&&&&&&&&&&&&&&&&",
"&&&&&&&&&&&&&&&&&&&&&&&&&&&&&&&&&&&&&&&&&&&&&&&&&&&&&&&&&&&&&&&&",
"&&&&&&&&&&&&&&&&&&&&&&&&&&&&&&&&&&&&&&&&&&&&&&&&&&&&&&&&&&&&&&&&",
"&&&&&&&&&&&&&&&&&&&&&&&&&&&&&&&&&&&&&&&&&&&&&&&&&&&&&&&&&&&&&&&&",
"&&&&&&&&&&&&&&&&&&&&&&&&&&&&&&&&&&&&&&&&&&&&&&&&&&&&&&&&&&&&&&&&",
"&&&&&&&&&&&&&&&&&&&&&&&&&&&&&&&&&&&&&&&&&&&&&&&&&&&&&&&&&&&&&&&&",
"&&&&&&&&&&&&&&&&&&&&                                &&&&&&&&&&&&",
"&&&&&&&&&&&&&&&&&&&&                                &&&&&&&&&&&&",
"&&&&&&&&&&&&&&&&&&&&                                &&&&&&&&&&&&",
"&&&&&&&&&&&&&&&&&&&&                                &&&&&&&&&&&&",
"&&&&&&&&&&&&        @@@@$$$$$$$$$$$$$$$$$$$$$$$$@@@@    &&&&&&&&",
"&&&&&&&&&&&&        @@@@$$$$$$$$$$$$$$$$$$$$$$$$@@@@    &&&&&&&&",
"&&&&&&&&&&&&        @@@@$$$$$$$$$$$$$$$$$$$$$$$$@@@@    &&&&&&&&",
"&&&&&&&&&&&&        @@@@$$$$$$$$$$$$$$$$$$$$$$$$@@@@    &&&&&&&&",
"&&&&&&&&    @@@@@@@@$$$$$$$$$$$$$$$$$$$$$$$$$$$$$$$$@@@@    &&&&",
"&&&&&&&&    @@@@@@@@$$$$$$$$$$$$$$$$$$$$$$$$$$$$$$$$@@@@    &&&&",
"&&&&&&&&    @@@@@@@@$$$$$$$$$$$$$$$$$$$$$$$$$$$$$$$$@@@@    &&&&",
"&&&&&&&&    @@@@@@@@$$$$$$$$$$$$$$$$$$$$$$$$$$$$$$$$@@@@    &&&&",
"&&&&    @@@@$$$$$$$$$$$$$$$$$$$$$$$$$$$$$$$$$$$$$$$$$$$$@@@@    ",
"&&&&    @@@@$$$$$$$$$$$$$$$$$$$$$$$$$$$$$$$$$$$$$$$$$$$$@@@@    ",
"&&&&    @@@@$$$$$$$$$$$$$$$$$$$$$$$$$$$$$$$$$$$$$$$$$$$$@@@@    ",
"&&&&    @@@@$$$$$$$$$$$$$$$$$$$$$$$$$$$$$$$$$$$$$$$$$$$$@@@@    ",
"    @@@@$$$$$$$$%%%%%%%%$$$$$$$$$$$$$$$$$$$$$$$$$$$$$$$$$$$$    ",
"    @@@@$$$$$$$$%%%%%%%%$$$$$$$$$$$$$$$$$$$$$$$$$$$$$$$$$$$$    ",
"    @@@@$$$$$$$$%%%%%%%%$$$$$$$$$$$$$$$$$$$$$$$$$$$$$$$$$$$$    ",
"    @@@@$$$$$$$$%%%%%%%%$$$$$$$$$$$$$$$$$$$$$$$$$$$$$$$$$$$$    ",
"    $$$$$$$$%%%%%%%%########################        $$$$$$$$    ",
"    $$$$$$$$%%%%%%%%########################        $$$$$$$$    ",
"    $$$$$$$$%%%%%%%%########################        $$$$$$$$    ",
"    $$$$$$$$%%%%%%%%########################        $$$$$$$$    ",
"    $$$$################        ############        ####$$$$    ",
"    $$$$################        ############        ####$$$$    ",
"    $$$$################        ############        ####$$$$    ",
"    $$$$################        ############        ####$$$$    ",
"    @@@@################        ########################@@@@    ",
"    @@@@################        ########################@@@@    ",
"    @@@@################        ########################@@@@    ",
"    @@@@################        ########################@@@@    ",
"&&&&    @@@@@@@@######################################@@    &&&&",
"&&&&    @@@@@@@@#####################################@@@    &&&&",
"&&&&    @@@@@@@@####################################@@@@    &&&&",
"&&&&    @@@@@@@@#################################@@@@@@@    &&&&",
"&&&&&&&&        @@@@###########################@.       &&&&&&&&",
"&&&&&&&&        @@@@##########################@@        &&&&&&&&",
"&&&&&&&&        @@@@########################@@@@        &&&&&&&&",
"&&&&&&&&        @@@@########################@@@@        &&&&&&&&",
"&&&&&&&&&&&&&&&&                                &&&&&&&&&&&&&&&&",
"&&&&&&&&&&&&&&&&                                &&&&&&&&&&&&&&&&",
"&&&&&&&&&&&&&&&&oX                              &&&&&&&&&&&&&&&&",
"&&&&&&&&&&&&&&&&+OO                             &&&&&&&&&&&&&&&&",
"&&&&&&&&&&&&&&&&&&&&&&&&&&&&&&&&&&&&&&&&&&&&&&&&&&&&&&&&&&&&&&&&",
"&&&&&&&&&&&&&&&&&&&&&&&&&&&&&&&&&&&&&&&&&&&&&&&&&&&&&&&&&&&&&&&&",
"&&&&&&&&&&&&&&&&&&&&&&&&&&&&&&&&&&&&&&&&&&&&&&&&&&&&&&&&&&&&&&&&",
"&&&&&&&&&&&&&&&&&&&&&&&&&&&&&&&&&&&&&&&&&&&&&&&&&&&&&&&&&&&&&&&&"
};
