/* XPM */
static char *result[] = {
/* columns rows colors chars-per-pixel */
"64 64 155 2 ",
"   c black",
".  c #010101",
"X  c #020202",
"o  c #020203",
"O  c gray1",
"+  c #050000",
"@  c #030304",
"#  c #040506",
"$  c #050506",
"%  c #060506",
"&  c #060607",
"*  c #060608",
"=  c #090809",
"-  c #080C0A",
";  c #0C0B0C",
":  c #0E0D0F",
">  c #130202",
",  c #0C180F",
"<  c #0C1A0F",
"1  c #0D0F11",
"2  c #141315",
"3  c #181619",
"4  c #1B191C",
"5  c #1C1A1D",
"6  c #132C17",
"7  c #222023",
"8  c #212629",
"9  c #29272B",
"0  c #333135",
"q  c #410D0D",
"w  c #4A1010",
"e  c #691B1B",
"r  c #204825",
"t  c #244729",
"y  c #27572D",
"u  c #326138",
"i  c #336E3A",
"p  c #3C6F3B",
"a  c #33703B",
"s  c #34703B",
"d  c #35703B",
"f  c #37703B",
"g  c #36743D",
"h  c #36743E",
"j  c #36753E",
"k  c #36763E",
"l  c #37763F",
"z  c #37773F",
"x  c #38773F",
"c  c #39773F",
"v  c #3A763F",
"b  c #3B763F",
"n  c #3C763F",
"m  c #3D763F",
"M  c #3E763F",
"N  c #40753F",
"B  c #43753E",
"V  c #45743E",
"C  c #4C733E",
"Z  c #53713D",
"A  c #57703D",
"S  c #606D3D",
"D  c #71663B",
"F  c #353C40",
"G  c #387640",
"H  c #397640",
"J  c #387740",
"K  c #3B7442",
"L  c #3B7742",
"P  c #3D7745",
"I  c #3E7745",
"U  c #397841",
"Y  c #3A7842",
"T  c #3A7843",
"R  c #3D7946",
"E  c #3D7947",
"W  c #3E7948",
"Q  c #524E54",
"!  c #407747",
"~  c #407847",
"^  c #417848",
"/  c #437849",
"(  c #447C50",
")  c #457C51",
"_  c #4C7F59",
"`  c #507955",
"'  c #55795A",
"]  c #56795B",
"[  c #605B62",
"{  c #5F7A63",
"}  c #666269",
"|  c #6C676E",
" . c #607A64",
".. c #667A6A",
"X. c #6A7B6E",
"o. c #736E76",
"O. c #6C7B70",
"+. c #757C79",
"@. c #777C7A",
"#. c #777C7B",
"$. c #787C7B",
"%. c #787D7C",
"&. c #797D7D",
"*. c #822424",
"=. c #9E2D2D",
"-. c #AB3332",
";. c #AC3232",
":. c #AA3532",
">. c #A63B33",
",. c #A43E34",
"<. c #954F36",
"1. c #8B5738",
"2. c #DF7126",
"3. c #9B704A",
"4. c #99744B",
"5. c #3E8948",
"6. c #3F8948",
"7. c #4A8647",
"8. c #508446",
"9. c #488951",
"0. c #4E805C",
"q. c #548262",
"w. c #548363",
"e. c #5E876F",
"r. c #57A461",
"t. c #5EB069",
"y. c #6FAD68",
"u. c #6DAE68",
"i. c #6EAE68",
"p. c #7BA161",
"a. c #73A966",
"s. c #62B66D",
"d. c #62B76D",
"f. c #64B56C",
"g. c #69B26A",
"h. c #8D8B56",
"j. c #7D7D81",
"k. c #7E7D81",
"l. c #807D83",
"z. c #817B84",
"x. c #827C85",
"c. c #817E84",
"v. c #827E85",
"b. c #837D86",
"n. c #837E86",
"m. c #847E87",
"M. c #847F87",
"N. c #76958C",
"B. c #78968E",
"V. c #7E9A95",
"C. c #839D9A",
"Z. c #849D9B",
"A. c #9BADB7",
"S. c white",
"D. c None",
/* pixels */
"D.D.D.D.D.D.D.D.D.D.D.D.D.D.D.D.D.D.D.D.D.D.D.D.D.D.D.D.D.D.D.D.D.D.D.D.D.D.D.D.D.D.D.D.D.D.D.D.D.D.D.D.D.D.D.D.D.D.D.D.D.D.D.D.",
"D.D.D.D.D.D.D.D.D.D.D.D.D.D.D.D.D.D.D.D.D.D.D.D.D.D.D.D.D.D.D.D.D.D.D.D.D.D.D.D.D.D.D.D.D.D.D.D.D.D.D.D.D.D.D.D.D.D.D.D.D.D.D.D.",
"D.D.D.D.D.D.D.D.D.D.D.D.D.D.D.D.D.D.D.D.D.D.D.D.D.D.* * * * D.D.D.D.D.D.D.D.D.D.D.D.D.D.D.D.D.D.D.D.D.D.D.D.D.D.D.D.D.D.D.D.D.D.",
"D.D.D.D.D.D.D.D.D.D.D.D.D.D.D.D.D.D.D.D.D.D.D.D.D.D.* * * * D.D.D.D.D.D.D.D.D.D.D.D.D.D.D.D.D.D.D.D.D.D.D.D.D.D.D.D.D.D.D.D.D.D.",
"D.D.D.D.D.D.D.D.D.D.D.D.D.D.D.D.D.D.D.D.D.D.D.D.D.D.* * * * D.D.D.D.D.D.D.D.D.D.D.D.D.D.D.D.D.D.D.D.D.D.D.D.D.D.D.D.D.D.D.D.D.D.",
"D.D.D.D.D.D.D.D.D.D.D.D.D.D.D.D.D.D.D.D.D.D.D.D.D.D.* * * * D.D.D.D.D.D.D.D.D.D.D.D.D.D.D.D.D.D.D.D.D.D.D.D.D.D.D.D.D.D.D.D.D.D.",
"D.D.D.D.D.D.D.D.D.D.D.D.D.D.D.D.D.D.* * * * * * * * ;.;.;.;.* * * * D.D.D.D.D.D.D.D.D.D.D.D.D.D.D.D.D.D.D.D.D.D.D.D.D.D.D.D.D.D.",
"D.D.D.D.D.D.D.D.D.D.D.D.D.D.D.D.D.D.* * * * * * * * ;.;.;.;.* * * * D.D.D.D.D.D.D.D.D.D.D.D.D.D.D.D.D.D.D.D.D.D.D.D.D.D.D.D.D.D.",
"D.D.D.D.D.D.D.D.D.D.D.D.D.D.D.D.D.D.* * * * * * * * ;.;.;.;.* * * * D.D.D.D.D.D.D.D.D.D.D.D.D.D.D.D.D.D.D.D.D.D.D.D.D.D.D.D.D.D.",
"D.D.D.D.D.D.D.D.D.D.D.D.D.D.D.D.D.D.* * * * * * * * ;.;.;.;.* * * * D.D.D.D.D.D.D.D.D.D.D.D.D.D.D.D.D.D.D.D.D.D.D.D.D.D.D.D.D.D.",
"D.D.D.D.D.D.D.D.D.D.D.D.D.D.D.D.D.D.* * * * ;.;.;.;.m.m.m.m.* * * * * * * * * * * * * * * * D.D.D.D.D.D.D.D.D.D.D.D.D.D.D.D.D.D.",
"D.D.D.D.D.D.D.D.D.D.D.D.D.D.D.D.D.D.* * * * ;.;.;.;.m.m.m.m.* * * * * * * * * * * * * * * * D.D.D.D.D.D.D.D.D.D.D.D.D.D.D.D.D.D.",
"D.D.D.D.D.D.D.D.D.D.D.D.D.D.D.D.D.D.* * * * ;.;.;.;.m.m.m.m.* * * * * * * * * * * * * * * * D.D.D.D.D.D.D.D.D.D.D.D.D.D.D.D.D.D.",
"D.D.D.D.D.D.D.D.D.D.D.D.D.D.D.D.D.D.* * * * ;.;.;.;.m.m.m.m.* * * * * * * * * * * * * * * * D.D.D.D.D.D.D.D.D.D.D.D.D.D.D.D.D.D.",
"D.D.D.D.D.D.D.D.D.D.D.D.D.D.D.D.D.D.* * * * m.m.m.m.m.m.m.m.A.A.A.A.A.A.A.A.A.A.A.A.A.A.A.A.* * * * D.D.D.D.D.D.D.D.D.D.D.D.D.D.",
"D.D.D.D.D.D.D.D.D.D.D.D.D.D.D.D.D.D.* * * * m.m.m.m.m.m.m.m.A.A.A.A.A.A.A.A.A.A.A.A.A.A.A.A.* * * * D.D.D.D.D.D.D.D.D.D.D.D.D.D.",
"D.D.D.D.D.D.D.D.D.D.D.D.D.D.D.D.D.D.* * * * m.m.m.m.m.m.m.m.A.A.A.A.A.A.A.A.A.A.A.A.A.A.A.A.* * * *     D.D.D.D.D.D.D.D.D.D.D.D.",
"D.D.D.D.D.D.D.D.D.D.D.D.D.D.D.D.D.D.* * * * m.m.m.m.m.m.m.m.A.A.A.A.A.A.A.A.A.A.A.A.A.A.A.A.* * * *     D.D.D.D.D.D.D.D.D.D.D.D.",
"D.D.D.D.D.D.D.D.D.D.D.D.D.D.* * * * m.m.m.m.A.A.A.A.S.S.S.S.S.S.S.S.S.S.S.S.S.S.S.S.S.S.S.S.* * * *     D.D.D.D.D.D.D.D.D.D.D.D.",
"D.D.D.D.D.D.D.D.D.D.D.D.D.D.* * * * m.m.m.m.A.A.A.A.S.S.S.S.S.S.S.S.S.S.S.S.S.S.S.S.S.S.S.S.* * * *     D.D.D.D.D.D.D.D.D.D.D.D.",
"D.D.D.D.D.D.D.D.D.D.D.D.    * * * * m.m.m.m.A.A.A.A.S.S.S.S.S.S.S.S.S.S.S.S.S.S.S.S.S.S.S.S.* * * * a a         D.D.D.D.D.D.D.D.",
"D.D.D.D.D.D.D.D.D.D.D.D.    * * * * m.m.m.m.A.A.A.A.S.S.S.S.S.S.S.S.S.S.S.S.S.S.S.S.S.S.S.S.* * * * a a         D.D.D.D.D.D.D.D.",
"D.D.D.D.D.D.D.D.D.D.D.D.    * * * * A.A.A.A.A.A.A.A.S.S.S.S.* * * * * * * * * * * * * * * * * * * * a a         D.D.D.D.D.D.D.D.",
"D.D.D.D.D.D.D.D.D.D.D.D.    * * * * A.A.A.A.A.A.A.A.S.S.S.S.* * * * * * * * * * * * * * * * * * * * a a         D.D.D.D.D.D.D.D.",
"D.D.D.D.D.D.D.D.        a a * * * * A.A.A.A.A.A.A.A.S.S.S.S.* * * * * * * * * * * * * * * * * * * * 5.5.a a a a         D.D.D.D.",
"D.D.D.D.D.D.D.D.        a a * * * * A.A.A.A.A.A.A.A.S.S.S.S.* * * * * * * * * * * * * * * * * * * * 5.5.a a a a         D.D.D.D.",
"D.D.D.D.D.D.D.D.        a a * * * * A.A.A.A.A.A.A.A.S.S.S.S.S.S.S.S.S.S.S.S.* * * * S.S.S.S.* * * * 5.5.a a a a         D.D.D.D.",
"D.D.D.D.D.D.D.D.        a a * * * * A.A.A.A.A.A.A.A.S.S.S.S.S.S.S.S.S.S.S.S.* * * * S.S.S.S.* * * * 5.5.a a a a         D.D.D.D.",
"D.D.D.D.        a a a a 5.5.* * * * A.A.A.A.A.A.A.A.S.S.S.S.S.S.S.S.S.S.S.S.* * * * S.S.S.S.* * * * 5.5.5.5.5.5.a a a a         ",
"D.D.D.D.        a a a a 5.5.* * * * A.A.A.A.A.A.A.A.S.S.S.S.S.S.S.S.S.S.S.S.* * * * S.S.S.S.* * * * 5.5.5.5.5.5.a a a a         ",
"D.D.D.D.        a a a a 5.5.* * * * m.m.m.m.A.A.A.A.A.A.A.A.A.A.A.A.S.S.S.S.S.S.S.S.S.S.S.S.* * * * 5.5.5.5.5.5.a a a a         ",
"D.D.D.D.        a a a a 5.5.* * * * m.m.m.m.A.A.A.A.A.A.A.A.A.A.A.A.S.S.S.S.S.S.S.S.S.S.S.S.* * * * 5.5.5.5.5.5.a a a a         ",
"        a a a a 5.5.5.5.5.5.* * * * m.m.m.m.A.A.A.A.A.A.A.A.A.A.A.A.S.S.S.S.S.S.S.S.S.S.S.S.* * * * 5.5.5.5.5.5.5.5.5.5.        ",
"        a a a a 5.5.5.5.5.5.* * * * m.m.m.m.A.A.A.A.A.A.A.A.A.A.A.A.S.S.S.S.S.S.S.S.S.S.S.S.* * * * 5.5.5.5.5.5.5.5.5.5.        ",
"        a a a a 5.5.5.5.5.5.5.5.d.d.* * * * m.m.m.m.m.m.m.m.;.;.;.;.;.;.;.;.2.2.2.2.;.;.;.;.* * * * 5.5.5.5.5.5.5.5.5.5.        ",
"        a a a a 5.5.5.5.5.5.5.5.d.d.* * * - M.M.m.m.m.m.m.m.;.;.;.;.;.;.;.;.2.2.2.2.;.;.;.;.* * * * 5.5.5.5.5.5.5.5.5.5.        ",
"        5.5.5.5.5.5.5.5.d.d.d.d.d.d.- , < 6 %.#.j.v.m.m.m.m.;.;.;.;.;.;.;.;.2.2.2.2.;.;.;.;.* * * *     5.5.5.5.5.5.5.5.        ",
"        5.5.5.5.5.5.5.5.d.d.d.d.d.d.t u r y ] ' ..&.n.m.m.m.;.;.;.;.;.;.;.;.2.2.2.2.;.;.;.;.* * * *     5.5.5.5.5.5.5.5.        ",
"        5.5.5.5.5.5.7.8.u.y.p.h.4.3.9.r.i s M b C D <.>.-.;.m.m.m.m.m.m.m.m.m.m.m.m.m.m.m.m.* * * *     5.5.5.5.5.5.5.5.        ",
"        5.5.5.5.5.5.5.6.d.d.f.g.i.a.t.s.z k c z x N S 1.,.:.m.m.m.m.m.m.m.m.m.m.m.m.n.v.z.b.* * * *     5.5.5.5.5.5.5.5.        ",
"        5.5.5.5.z z x c x z z z z z z z z z b x     > w *.=.z.x.m.m.m.m.m.m.m.n.v.k.+.O.} o.& * * &     z z z z 5.5.5.5.        ",
"        5.5.5.5.z z z x M v x z z z z z z z b m +     > q e [ | $.k.c.v.n.n.l.@.X.{ ` / 9 Q $ $ @ o     z z z z 5.5.5.5.        ",
"        5.5.5.5.z z z m V Z c z z z z z z z x L : O     = 3 7 0 '  .N.V.C.Z.B.e.( W T J # F O X         z z z z 5.5.5.5.        ",
"        5.5.5.5.z z z x n B b z z z z z z z z x = = % O     O % L I ) 0.q.w._ R z z z z 1 8 .           z z z z 5.5.5.5.        ",
"        a a f a z z z z N A v z z z z z z z z z   O O % % % O O x x J Y T T Y J z z J U U J z z z z z z z z z z a a a a         ",
"        a a p d z z z z x N c z z z z z z z z z         O 2 4 7 ! P E T Y U U J J J z J z z z z z z z z z z z z a a a a         ",
"        a a a a z z z z z z z z z z z z z z z z           O ; 5 ^ ~ g j k l l z z z z z z z z z z z z z z z z z a a a a         ",
"        a a a a z z z z z z z z z z z z z z z z                 z z z z z z z z z z z z z z z z z z z z z z z z a a a a         ",
"D.D.D.D.        a a a a a a a a z z z z z z z z z z z z z z z z z z z z z z z z z z z z z z z z a a a a a a a a         D.D.D.D.",
"D.D.D.D.        a a a a a a a a z z z z z z z z z z z z z z z z z z z z z z z z z z z z z z z z a a a a a a a a         D.D.D.D.",
"D.D.D.D.        a a a a a a a a z z z z z z z z z z z z z z z x K K j z z z z z z z z z z z z z a a a a a a a a         D.D.D.D.",
"D.D.D.D.        a a a a a a a a z z z z z z z z z z z z z z z z G H h z z z z z z z z z z z z z a a a a a a a a         D.D.D.D.",
"D.D.D.D.D.D.D.D.                a a a a z z z z z z z z z z z z z z l z z z z z z z z z a a a a                 D.D.D.D.D.D.D.D.",
"D.D.D.D.D.D.D.D.                a a a a z z z z z z z z z z z z z z z z z z z z z z z z a a a a                 D.D.D.D.D.D.D.D.",
"D.D.D.D.D.D.D.D.                a a a a z z z z z z z z z z z z z z z z z z z z z z z z a a a a                 D.D.D.D.D.D.D.D.",
"D.D.D.D.D.D.D.D.                a a a a z z z z z z z z z z z z z z z z z z z z z z z z a a a a                 D.D.D.D.D.D.D.D.",
"D.D.D.D.D.D.D.D.D.D.D.D.D.D.D.D.                                                                D.D.D.D.D.D.D.D.D.D.D.D.D.D.D.D.",
"D.D.D.D.D.D.D.D.D.D.D.D.D.D.D.D.                                                                D.D.D.D.D.D.D.D.D.D.D.D.D.D.D.D.",
"D.D.D.D.D.D.D.D.D.D.D.D.D.D.D.D.                                                                D.D.D.D.D.D.D.D.D.D.D.D.D.D.D.D.",
"D.D.D.D.D.D.D.D.D.D.D.D.D.D.D.D.                                                                D.D.D.D.D.D.D.D.D.D.D.D.D.D.D.D.",
"D.D.D.D.D.D.D.D.D.D.D.D.D.D.D.D.D.D.D.D.D.D.D.D.D.D.D.D.D.D.D.D.D.D.D.D.D.D.D.D.D.D.D.D.D.D.D.D.D.D.D.D.D.D.D.D.D.D.D.D.D.D.D.D.",
"D.D.D.D.D.D.D.D.D.D.D.D.D.D.D.D.D.D.D.D.D.D.D.D.D.D.D.D.D.D.D.D.D.D.D.D.D.D.D.D.D.D.D.D.D.D.D.D.D.D.D.D.D.D.D.D.D.D.D.D.D.D.D.D.",
"D.D.D.D.D.D.D.D.D.D.D.D.D.D.D.D.D.D.D.D.D.D.D.D.D.D.D.D.D.D.D.D.D.D.D.D.D.D.D.D.D.D.D.D.D.D.D.D.D.D.D.D.D.D.D.D.D.D.D.D.D.D.D.D.",
"D.D.D.D.D.D.D.D.D.D.D.D.D.D.D.D.D.D.D.D.D.D.D.D.D.D.D.D.D.D.D.D.D.D.D.D.D.D.D.D.D.D.D.D.D.D.D.D.D.D.D.D.D.D.D.D.D.D.D.D.D.D.D.D."
};
