/* XPM */
static char *result[] = {
/* columns rows colors chars-per-pixel */
"64 64 168 2 ",
"   c #000000",
".  c #0D0101",
"X  c #040C06",
"o  c #180202",
"O  c #051406",
"+  c #071509",
"@  c #081C0B",
"#  c #08160A",
"$  c #19181A",
"%  c #220404",
"&  c #0C230F",
"*  c #0E2811",
"=  c #0D2610",
"-  c #112D15",
";  c #112714",
":  c #16351A",
">  c #17391B",
",  c #193D1E",
"<  c #133217",
"1  c #1C3E21",
"2  c #2B282C",
"3  c #3E3B3F",
"4  c #470F0F",
"5  c #581515",
"6  c #741F1F",
"7  c #1A401F",
"8  c #1D4423",
"9  c #1F4924",
"0  c #214A26",
"q  c #234E29",
"w  c #25542B",
"e  c #27592D",
"r  c #285A2F",
"t  c #2A5D31",
"y  c #2D6334",
"u  c #2F6837",
"i  c #306937",
"p  c #326D39",
"a  c #3B6F3B",
"s  c #36753E",
"d  c #39773F",
"f  c #7E5F39",
"g  c #45743E",
"h  c #4A743E",
"j  c #55703D",
"k  c #4A6C3B",
"l  c #6F673B",
"z  c #666B3C",
"x  c #71663B",
"c  c #7A613A",
"v  c #65763C",
"b  c #3A6F41",
"n  c #397741",
"m  c #3A7C42",
"M  c #3F7A49",
"N  c #434045",
"B  c #555157",
"V  c #407747",
"C  c #43794B",
"Z  c #49784F",
"A  c #407847",
"S  c #477D53",
"D  c #4B7C55",
"F  c #4C7F59",
"G  c #54795A",
"H  c #645F66",
"J  c #5E7A62",
"K  c #657A69",
"L  c #6A7B6E",
"P  c #6E7B72",
"I  c #717C75",
"U  c #77727A",
"Y  c #777C7A",
"T  c #7A7D7D",
"R  c #7B757E",
"E  c #756F77",
"W  c #852525",
"Q  c #A53231",
"!  c #AB3332",
"~  c #A53D34",
"^  c #A83933",
"/  c #9D4635",
"(  c #9A4A36",
")  c #964E36",
"_  c #855B39",
"`  c #8C5637",
"'  c #915237",
"]  c #A14234",
"[  c #907538",
"{  c #B47332",
"}  c #C6732E",
"|  c #DC7127",
" . c #DB7128",
".. c #3C8445",
"X. c #3D8847",
"o. c #3E8948",
"O. c #4F805C",
"+. c #52825C",
"@. c #5A865E",
"#. c #539C5C",
"$. c #548363",
"%. c #5B866B",
"&. c #5E8866",
"*. c #5F8870",
"=. c #628A66",
"-. c #698E6C",
";. c #638A75",
":. c #6A8E7D",
">. c #6E9171",
",. c #729475",
"<. c #7A987C",
"1. c #759678",
"2. c #5FB269",
"3. c #5DAE68",
"4. c #62B76D",
"5. c #7E7D81",
"6. c #7D7780",
"7. c #827E85",
"8. c #6C8F80",
"9. c #6F9082",
"0. c #729286",
"q. c #7F9C81",
"w. c #75948A",
"e. c #78968E",
"r. c #7A9790",
"t. c #7D9993",
"y. c #839F85",
"u. c #809B97",
"i. c #829C9A",
"p. c #85A087",
"a. c #8AA38C",
"s. c #8FA791",
"d. c #93A995",
"f. c #97AC99",
"g. c #99AE9B",
"h. c #9CB09E",
"j. c #8AA2A3",
"k. c #8FA5A9",
"l. c #91A6AB",
"z. c #94A8AF",
"x. c #9EB2A0",
"c. c #98ABB3",
"v. c #96AAB1",
"b. c #A7B8A9",
"n. c #ABBBAC",
"m. c #A1B4A3",
"M. c #B0BFB1",
"N. c #B4C2B5",
"B. c #B7C5B8",
"V. c #B9C6BA",
"C. c #BDC9BE",
"Z. c #BFCAC0",
"A. c #C3CEC4",
"S. c #C6D0C6",
"D. c #C7D1C8",
"F. c #CCD5CD",
"G. c #CFD8D0",
"H. c #D2DAD3",
"J. c #D9DFD9",
"K. c #D7DED8",
"L. c #DCE2DD",
"P. c #E1E6E1",
"I. c #E6EAE6",
"U. c #EAEDEA",
"Y. c #F2F4F2",
"T. c #FBFCFB",
"R. c #F6F8F6",
"E. c None",
/* pixels */
"E.E.E.E.E.E.E.E.E.E.E.E.E.E.E.E.E.E.E.E.E.E.E.E.E.E.E.E.E.E.E.E.E.E.E.E.E.E.E.E.E.E.E.E.E.E.E.E.E.E.E.E.E.E.E.E.E.E.E.E.E.E.E.E.",
"E.E.E.E.E.E.E.E.E.E.E.E.E.E.E.E.E.E.E.E.E.E.E.E.E.E.E.E.E.E.E.E.E.E.E.E.E.E.E.E.E.E.E.E.E.E.E.E.E.E.E.E.E.E.E.E.E.E.E.E.E.E.E.E.",
"E.E.E.E.E.E.E.E.E.E.E.E.E.E.E.E.E.E.E.E.E.E.E.E.E.E.E.E.E.E.E.E.E.E.E.E.E.E.E.E.E.E.E.E.E.E.E.E.E.E.E.E.E.E.E.E.E.E.E.E.E.E.E.E.",
"E.E.E.E.E.E.E.E.E.E.E.E.E.E.E.E.E.E.E.E.E.E.E.E.E.E.E.E.E.E.E.E.E.E.E.E.E.E.E.E.E.E.E.E.E.E.E.E.E.E.E.E.E.E.E.E.E.E.E.E.E.E.E.E.",
"E.E.E.E.E.E.E.E.E.E.E.E.E.E.E.E.E.E.E.E.E.E.E.E.E.E.E.E.E.E.E.E.E.E.E.E.E.E.E.E.E.E.E.E.E.E.E.E.E.E.E.E.E.E.E.E.E.E.E.E.E.E.E.E.",
"E.E.E.E.E.E.E.E.E.E.E.E.E.E.E.E.E.E.E.E.E.E.E.E.E.E.E.E.E.E.E.E.E.E.E.E.E.E.E.E.E.E.E.E.E.E.E.E.E.E.E.E.E.E.E.E.E.E.E.E.E.E.E.E.",
"E.E.E.E.E.E.E.E.E.E.E.E.E.E.E.E.E.E.E.E.E.E.E.E.E.E.E.E.E.E.E.E.E.E.E.E.E.E.E.E.E.E.E.E.E.E.E.E.E.E.E.E.E.E.E.E.E.E.E.E.E.E.E.E.",
"E.E.E.E.E.E.E.E.E.E.E.E.E.E.E.E.E.E.E.E.E.E.E.E.E.E.E.E.E.E.E.E.E.E.E.E.E.E.E.E.E.E.E.E.E.E.E.E.E.E.E.E.E.E.E.E.E.E.E.E.E.E.E.E.",
"E.E.E.E.E.E.E.E.E.E.E.E.E.E.E.E.E.E.E.E.E.E.E.E.E.E.E.E.E.E.E.E.E.E.E.E.E.E.E.d E.E.E.E.E.E.E.E.E.E.E.E.E.E.E.E.E.E.E.E.E.E.E.E.",
"E.E.E.E.E.E.E.E.E.E.E.E.E.E.E.E.E.E.E.E.E.E.E.E.E.E.E.E.E.E.E.E.E.E.E.E.E.E.d d d E.E.E.E.E.E.E.E.E.E.E.E.E.E.E.E.E.E.E.E.E.E.E.",
"E.E.E.E.E.E.E.E.E.E.E.E.E.E.E.E.E.E.E.E.E.E.E.E.E.E.E.d s n n s s n d d m s m s d d E.E.E.E.E.E.E.E.E.E.E.E.E.E.E.E.E.E.E.E.E.E.",
"E.E.E.E.E.E.E.E.E.E.d d E.E.E.E.E.E.E.E.E.E.E.E.E.d y u u u s s s s d d s s s s s d d E.E.E.E.E.E.E.E.E.E.E.E.E.E.E.E.E.E.E.E.E.",
"E.E.E.E.E.E.E.E.s s s s d d E.E.E.E.E.E.E.E.E.E.d d u p p p d n s n s s s d m s m s d s E.E.E.E.d d s E.E.E.E.E.E.E.E.E.E.E.E.E.",
"E.E.E.E.E.E.E.E.d s m s d d d E.E.E.E.E.E.E.E.d d d p s s p d s s s m s s d s d d s s s d m m s d d s m s E.E.E.E.E.E.E.E.E.E.E.",
"E.E.E.E.E.E.E.E.s m s m s s d d d E.E.E.E.E.E.d d d s s p s d n m s s s m s m s s s s s d s s s m s d d m s d E.E.E.E.E.E.E.E.E.",
"E.E.E.E.E.E.E.E.E.s d s n s n s d d t w 0 0 w t u p k d g g s p u y s s s s s s s m s m s d m s s d s s s d d d d E.E.E.E.E.E.E.",
"E.E.E.E.E.E.E.E.E.m s d d s s s d s y e w 9 w r i s h g g g s i y e q 9 0 w t t u i i i y y y e w 0 w e s m s m s s E.E.E.E.E.E.",
"E.E.E.E.E.E.E.E.E.s s d s m s m s m y e w w w y i p h g g g s i y w 8 , 1 9 w t y y u y y y e 9 9 9 q w s s s s m s m E.E.E.E.E.",
"E.E.E.E.E.m d d d d s d s s m s s s u y r e e r y i j g g h p i r w , : : , 0 w r y y y t e 9 8 7 7 9 e s m s s s m s E.E.E.E.E.",
"E.E.E.E.s s d d d d d s s d s s s m y y t r c c l z S A M V p i t w 9 1 , 8 0 w r r t r w 9 8 > > 7 9 e s s m s s s s s E.E.E.E.",
"E.E.E.d d s s m m s s s y y r r t y t t t r c f c l D Z C C p i t w q 9 9 q e t y r r w q 9 ....p s s s e y u u s s s m E.E.E.E.",
"E.E.E.d d d s s s s s m q q 0 9 w w t t e w _ _ _ c G G Z D p i y e w w w e t t y r r e w 9 ....s p s s e y u u m d s s E.E.E.E.",
"E.E.E.d s m s m m s E.E.7 > > > 8 q w w q 0 ' ' ' ` K G G G y y t e w w e r t y y t r r w 9 ....s s s p y y y y s s d d E.E.E.E.",
"E.E.E.d s s s s s s E.E.> - = < 1 9 q q 9 8 T T T Y I L K K :.9.w.e.t.r.e.9.8.8.8.9.9.e.e.r.w 9 q q s s y y e y m s d d E.E.E.E.",
"E.E.E.E.s s d s y r w 9 p s p p s s 9 9 1 : 5.7.5.5.T Y P L e.e.r.t.i.t.t.w.w.w.w.w.w.w.w.e.w w w q m ..s p s s y t y r E.E.E.E.",
"E.E.E.E.m s s m y r e q s p s s s p 9 9 1 : 7.7.7.7.5.T Y I t.t.t.i.i.t.t.t.r.t.t.r.w.w.0.0.e e e w ..m s s s s t t t r E.E.E.E.",
"E.E.E.E.E.s s s t t e e s s s s s b 9 9 8 : 7.w.5.5.5.Y Y P i.i.i.i.i.t.t.t.t.u.t.t.w.:.9.:.y y y r m ..s s p s t t t e E.E.E.E.",
"E.E.E.E.E.E.E.E.e e r y s s e q 9 8 I P I U k.z.j.j.J.J.L.K.H.H.K.G.F.A.A.A.F.G.F.S.B.N.h.g.u u u y m ..p s s s t t r e E.E.E.E.",
"E.E.E.E.* > 7 9 s s p s d ..y e 9 9 I P P I t.t.t.e.C.Z.A.F.G.H.H.F.A.C.V.Z.A.S.Z.B.N.h.d.s.p p p p m m ....s s p s s s 7 * O   ",
"E.E.E.E.O & - 7 s s s s ..d y e q 9 I P P L w.9.;.;.f.x.n.C.D.H.F.D.C.V.B.V.Z.Z.B.m.f.s.p.q.p p p p m m s ......s s s p > & X   ",
"E.E.E.E.X O = > p s p s s ..y t w 0 I P K J ;.%.%.$.<.y.d.n.C.F.F.A.Z.V.V.A.Z.V.N.d.p.<.<.<.p p p p s ..s ..d ..s s p s & O     ",
"E.E.E.E.  X @ - s s s s ..s y y e 0 i.r.8.*.%.J F D -.>.q.d.r w w w w w w q q t y p p p s s p p p p m s ..s ..d s p s s O X     ",
"        p p p s ........m ..y t t w r.e.:.%.$.O.D S =.-.1.a.y t w w w q 0 0 q r y p s s p s p p p u m m m m ..m ....X.X.X       ",
"        s s p p X.X.......M t t t e w.9.;.%.O.S D D =.-.1.y.y t r w q q 0 0 0 r y p s s a s p p u y m m m ..m ......X.o.        ",
"        p p p s o.X.X.X.....w r r r 9.:.;.%.O.O.S D -.,.<.y.u t r w q q 0 0 q t y s s s s a p p y y ..m m m ....X.X.X.X.        ",
"        p s p s o.o.o.o.....0 q e r 9.:.*.%.+.O.O.O.,.<.y.d.m.M.Z.A.F.F.G.G.w t y p =.+.+.@.p p u y m m m ......X.X.X.X.        ",
"        o.o.o.o.o.o.o.o.4.2.> 1 0 w w.8.;.*.$.$.O.O.1.p.s.g.n.V.A.F.G.H.H.G.q t u p -.&.@.=.s p u y t e ......X.o.o.o.o.        ",
"        o.o.o.o.o.o.o.o.4.4.: : 1 9 r.w.9.;.*.$.$.$.p.a.g.b.B.C.S.G.H.J.J.J.q w t y y.,.-.>.p i u y t e ....X.X.o.o.o.o.        ",
"        o.o.o.o.o.o.o.o.4.4.n y 1 1 i.t.e.9.:.;.*.*.f.x.b.M.B.V.A.G.K.L.I.I.1 0 w t x.d.a.a.i i u y e w ....X.o.o.o.o.o.        ",
"        o.o.o.o.o.o.o.o.4.4.3.#.b 1 5.T I L e.w.9.9.9.0.0.w.w.w.w.r.H.L.I.Y.Y.U.P.H.S.C.B.M.y y y t e 7 ....o.o.o.o.o.o.        ",
"        o.o.o.o.s s m s d s s s i 9 5.5.5.Y i.i.i.i.i.u.u.r.e.w.0.w.D.J.U.Y.R.R.Y.Y.I.P.L.H.w w e w 9 > s d m s o.o.o.o.        ",
"        o.o.o.o.s m s s s ..m s n y 5.5.5.5.z.z.l.l.k.k.k.i.t.e.w.0.A.H.I.Y.T.T.T.T.R.R.Y.U., 8 8 8 > = m s s s o.o.o.o.        ",
"        o.o.o.o.d s m s s s s s n s P 5.7.7.c.c.c.c.c.c.z.l.j.u.t.r.F.K.U.Y.T.T.T.T.T.T.T.R.* - < * & @ s s s s o.o.o.o.        ",
"        o.o.o.o.s s s s s s m s s s y 1 # X 7.7.7.7.7.7.7.7.~ ( ) ) ) ( ] ^ | |  .| ! ! ! Q O @ @ @ O X s s m s o.o.o.o.        ",
"        s s p s m s s s s m s m m s s r 1 1 U P U 7.7.7.7.7.^ ] / / / ~ ~ ~ } { { } ] ^ ^ ' p s n s s s s d s s p p s p         ",
"        p p p p s d s m s s s s s s n s t u C C N H R 7.7.7.! ^ ~ / / / ^ ( [ v Z [ _ ( ( z s d d s s n s m m s s s p p         ",
"        p s s p d s s n d s s d s s s s s s n n   2 B E 7.U W W f x x f ` _ v n g h j l l g d d s s s n d s s s p s p s         ",
"        p p s p d d g h h g g s s m n s s n s d     % 5 W 6 3 2 M n n C Z Z V n d d d A A d d d m n s s s s n s p p p s         ",
"E.E.E.E.        s p s p s s a a d d d d s s d d s m s d g h n n n n d d s m s m s s d s n s n n p p p s p s p s         E.E.E.E.",
"E.E.E.E.        s p p p p p s p m s d d s d s s d s s s m s n n n n s d s s s s d m s s s n s n p p p p p s p p         E.E.E.E.",
"E.E.E.E.        p p s s a a p p s s s s m s m s m s d s s s s n Z D M d s m n s s s s m s n i t y u s p s u p s         E.E.E.E.",
"E.E.E.E.        p s p p k k p s s m s m s s d m s s s m m s d s M Z $.C m M M n n m s n s n u u u p s p p s p s         E.E.E.E.",
"E.E.E.E.E.E.E.E.      . o % o   s p p p m s n s m s d s d s s m d n M S S S S n s m s s p n p p                 E.E.E.E.E.E.E.E.",
"E.E.E.E.E.E.E.E.        o 4 .   p p s p s s s s d s d s s m s s d d n n n m n n s s s m p s p s                 E.E.E.E.E.E.E.E.",
"E.E.E.E.E.E.E.E.          % .   p s p p s s d d d s s s s s d s d n n n n n m n s m d m s p p p                 E.E.E.E.E.E.E.E.",
"E.E.E.E.E.E.E.E.                p p s s s m d n s m s m s m d m n M s n s s s n s s s s p p s s                 E.E.E.E.E.E.E.E.",
"E.E.E.E.E.E.E.E.E.E.E.E.E.E.E.E.                                                                E.E.E.E.E.E.E.E.E.E.E.E.E.E.E.E.",
"E.E.E.E.E.E.E.E.E.E.E.E.E.E.E.E.                                                                E.E.E.E.E.E.E.E.E.E.E.E.E.E.E.E.",
"E.E.E.E.E.E.E.E.E.E.E.E.E.E.E.E.                                                                E.E.E.E.E.E.E.E.E.E.E.E.E.E.E.E.",
"E.E.E.E.E.E.E.E.E.E.E.E.E.E.E.E.                                $ $                             E.E.E.E.E.E.E.E.E.E.E.E.E.E.E.E.",
"E.E.E.E.E.E.E.E.E.E.E.E.E.E.E.E.E.E.E.E.E.E.E.E.E.E.E.E.E.E.E.E.E.E.E.E.E.E.E.E.E.E.E.E.E.E.E.E.E.E.E.E.E.E.E.E.E.E.E.E.E.E.E.E.",
"E.E.E.E.E.E.E.E.E.E.E.E.E.E.E.E.E.E.E.E.E.E.E.E.E.E.E.E.E.E.E.E.E.E.E.E.E.E.E.E.E.E.E.E.E.E.E.E.E.E.E.E.E.E.E.E.E.E.E.E.E.E.E.E.",
"E.E.E.E.E.E.E.E.E.E.E.E.E.E.E.E.E.E.E.E.E.E.E.E.E.E.E.E.E.E.E.E.E.E.E.E.E.E.E.E.E.E.E.E.E.E.E.E.E.E.E.E.E.E.E.E.E.E.E.E.E.E.E.E.",
"E.E.E.E.E.E.E.E.E.E.E.E.E.E.E.E.E.E.E.E.E.E.E.E.E.E.E.E.E.E.E.E.E.E.E.E.E.E.E.E.E.E.E.E.E.E.E.E.E.E.E.E.E.E.E.E.E.E.E.E.E.E.E.E."
};
