/* XPM */
static char *result[] = {
/* columns rows colors chars-per-pixel */
"64 64 163 2 ",
"   c #000000",
".  c #020A03",
"X  c #0C0B0C",
"o  c #090805",
"O  c #140402",
"+  c #1B0303",
"@  c #041205",
"#  c #061708",
"$  c #071A09",
"%  c #091D0C",
"&  c #110F11",
"*  c #151416",
"=  c #161816",
"-  c #181619",
";  c #19181A",
":  c #270505",
">  c #320808",
",  c #341603",
"<  c #0C240F",
"1  c #0D2711",
"2  c #0F2912",
"3  c #122F15",
"4  c #182019",
"5  c #133217",
"6  c #16351A",
"7  c #18361D",
"8  c #17391C",
"9  c #193D1E",
"0  c #1F1D20",
"q  c #211F22",
"w  c #242125",
"e  c #272C27",
"r  c #203927",
"t  c #2B322C",
"y  c #2F2C30",
"u  c #312E32",
"i  c #343135",
"p  c #3E3B3F",
"a  c #430E0E",
"s  c #4C1111",
"d  c #5A1616",
"f  c #651A1A",
"g  c #681B1B",
"h  c #711E1E",
"j  c #4D2207",
"k  c #602D0A",
"l  c #76390F",
"z  c #7C2121",
"x  c #1D4422",
"c  c #1F4924",
"v  c #214B26",
"b  c #224E28",
"n  c #25542B",
"m  c #27582D",
"M  c #285A2F",
"N  c #2D4F31",
"B  c #2D5333",
"V  c #2A5E31",
"C  c #2D6434",
"Z  c #2F6836",
"A  c #306937",
"S  c #316638",
"D  c #326D39",
"F  c #36763E",
"G  c #39773F",
"H  c #37783F",
"J  c #755E38",
"K  c #7E5F3A",
"L  c #546A3A",
"P  c #5B6D3C",
"I  c #43753E",
"U  c #4E723E",
"Y  c #53713E",
"T  c #5C763D",
"R  c #636C3C",
"E  c #71663B",
"W  c #63763C",
"Q  c #7F763A",
"!  c #3F3C41",
"~  c #3E5C49",
"^  c #3F674A",
"/  c #3B6645",
"(  c #3B7742",
")  c #377840",
"_  c #397B42",
"`  c #3F7A49",
"'  c #4C564D",
"]  c #535754",
"[  c #406043",
"{  c #476A4A",
"}  c #407847",
"|  c #44794B",
" . c #487D4E",
".. c #437649",
"X. c #526F55",
"o. c #4A7757",
"O. c #457C51",
"+. c #4B7C54",
"@. c #4D755A",
"#. c #4C7F59",
"$. c #507955",
"%. c #547A5A",
"&. c #5A7A5E",
"*. c #517660",
"=. c #5D7A62",
"-. c #537F62",
";. c #707671",
":. c #727873",
">. c #842424",
",. c #8E2828",
"<. c #8C2727",
"1. c #834012",
"2. c #835737",
"3. c #877539",
"4. c #917538",
"5. c #3C8345",
"6. c #3D8847",
"7. c #3E8948",
"8. c #41854A",
"9. c #44894D",
"0. c #4F8856",
"q. c #4F805C",
"w. c #4E8053",
"e. c #518256",
"r. c #55835B",
"t. c #5A865E",
"y. c #4B9354",
"u. c #529F5C",
"i. c #54A15E",
"p. c #558364",
"a. c #5C8760",
"s. c #5B856B",
"d. c #5F8963",
"f. c #618A65",
"g. c #668D6A",
"h. c #6A8F6D",
"j. c #6B906F",
"k. c #658B77",
"l. c #758F77",
"z. c #6C9070",
"x. c #739476",
"c. c #78977B",
"v. c #7B997E",
"b. c #769679",
"n. c #57A661",
"m. c #5BAD66",
"M. c #5FB36A",
"N. c #60B46B",
"B. c #7E9B80",
"V. c #869187",
"C. c #829E84",
"Z. c #969C97",
"A. c #8DA58F",
"S. c #93AA95",
"D. c #97AC99",
"F. c #98AC9A",
"G. c #9CB09E",
"H. c #A4ADA4",
"J. c #ABBBAC",
"K. c #B1B8B2",
"L. c #BEC9BF",
"P. c #B7C2B8",
"I. c None",
/* pixels */
"I.I.I.I.I.I.I.I.I.I.I.I.I.I.I.I.I.I.I.I.I.I.I.I.I.I.I.I.I.I.I.I.I.I.I.I.I.I.I.I.I.I.I.I.I.I.I.I.I.I.I.I.I.I.I.I.I.I.I.I.I.I.I.I.",
"I.I.I.I.I.I.I.I.I.I.I.I.I.I.I.I.I.I.I.I.I.I.I.I.I.I.I.I.I.I.I.I.I.I.I.I.I.I.I.I.I.I.I.I.I.I.I.I.I.I.I.I.I.I.I.I.I.I.I.I.I.I.I.I.",
"I.I.I.I.I.I.I.I.I.I.I.I.I.I.I.I.I.I.I.I.I.I.I.I.I.I.I.I.I.I.I.I.I.I.I.I.I.I.I.I.I.I.I.I.I.I.I.I.I.I.I.I.I.I.I.I.I.I.I.I.I.I.I.I.",
"I.I.I.I.I.I.I.I.I.I.I.I.I.I.I.I.I.H H H I.I.I.I.I.I.I.I.I.I.I.I.I.I.I.) G F ) F H I.I.I.I.I.I.I.I.I.I.I.I.I.I.I.I.I.I.I.I.I.I.I.",
"I.I.I.I.I.I.I.I.I.I.I.I.I.I.I.H G G G H F F F F H H F ) F F G F F ) ) F G G H H H H I.I.I.I.I.I.I.I.I.I.I.I.I.I.I.I.I.I.I.I.I.I.",
"I.I.I.I.I.I.I.I.I.I.I.I.I.I.H H G F G H ) ) F H H H ) F F ) F ) F F F ) G G H H G G I.I.I.F ) F H I.I.I.) F H I.I.I.I.I.I.I.I.I.",
"I.I.I.I.I.I.I.I.) F ) F F H H H F ) ) F F ) H F H F ) F F ) F F ) F F F F H H H F G I.I.I.F ) F H H H ) F H H H H I.I.I.I.I.I.I.",
"I.I.I.I.I.I.H H ) F F F ) F H H ) F F ) F F F H H H F ) ) F F ) F ) ) F ) H H H ) F I.I.I.) F F H H H F G G H H H H I.I.I.I.I.I.",
"I.I.I.I.I.G F ) F ) H H F ) F F ) F F G F ) H H F H H H F F H F F ) F G F ) F F ) F G I.H H H F H H H H G F ) F H H I.I.I.I.I.I.",
"I.I.I.I.G G ( F G F H H ) F F ) F ) ) F ( F H H H H H H F F F H ) F ) F F ) ) F F ) ) F H H F H H H H G F ) F F H H I.I.I.I.I.I.",
"I.I.I.I.H H F G G H H H F ) ) F F F F F G H H H F ) H H F F H F G G F ) F F F F H H F ( H H G G H H G G ) F F ) H F I.I.I.I.I.I.",
"I.I.I.I.H H ) F G H H H F F ) F ) F ) ) G G H H ) F H G G G F H G G G F ) F ) ) H G G G H H H G F H G G F ) ) F F ) I.I.I.I.I.I.",
"I.I.I.I.F F ) ) H H H H ) ) F ) F ) F F G G F ) F F ) F H H H H H H H H H H ) F H H F ) F F F ( ) F F ) F ) F F H G I.I.I.I.I.I.",
"I.I.I.H ) F F F H H H H F F G F ) F F ) G F ) F F ) ) F H H H H H H I.H H H F H H H F F F ) F ) F ) ) F ) F F ) H F I.I.I.I.I.I.",
"I.I.H H F ) ) F F ) H H G G F ) H H H H G G F G ) F F ) H F H H H I.I.I.I.H H H H F H H ) ) F F F ) F F ) F H H H H I.I.I.I.I.I.",
"I.I.H H F ) F F ) F G G G F ) F H H H H H H ) F F ) F F F H F H H I.I.I.I.I.H H H H F H F F ) F ) F F ) F ) F H H H ) I.I.I.I.I.",
"I.H F ) F F ) F ) F ) G G G ) F F ) ) F D D A A D F D F D D D C m b v v n m M C C C V V m m m M V C Z D H H H F H F F I.I.I.I.I.",
"I.H H F F ) ) F F F F G H H F ) ) F F F D S Z Z C Z Z F D Z C C m n n m m C C Z C C C V M M M M V Z Z D H H H H F F F I.I.I.I.I.",
"H H H H ) F F ) F ) ) F H H H F F F F ) Z C C M C V C C C C C V M m m M C Z A D Z Z C C C V M V V C Z A H H G G F F F ) I.I.I.I.",
"I.H H H F ) F F ) F F ) H H H H F ) ) F M M M M n m m m V C C C M M M C C A D D D D Z C C V V C C C Z Z H G G F F ) ) F I.I.I.I.",
"I.F F F F ( F G F H F F D C C C C C C M F F D F 5.5._ 5.5._ _ 5.5.H 5.H 5.H H _ H _ _ _ 5._ _ _ F F F F Z A D D H H H H ) I.I.I.",
"I.F ) F ) F G G H F F F D C C C V V M n F F D F 5.5.5.5.5.5._ _ 5.5.5.H H 5.H _ _ _ _ _ H _ H 5.F F D F Z A A F H H H H F I.I.I.",
"I.) F H H H H H F H H H D D C C V V M n D F F F 5.5.5.n m C C _ _ _ H 5._ _ _ _ H 5._ _ _ _ _ _ F F F F C A D D F F G H ) I.I.I.",
"I.I.H H H H H H H H H H F D A V V V M m F F D F _ 5._ M C C D _ _ _ H H _ _ 5._ 5.H 5.H H G H _ F F F F C A D F F ) G G G I.I.I.",
"I.I.F ) F H H F D D F F H F F F H F F F 5.H 5.5._ _ 5.C C D S ) 5.5.5.H 5.5._ 5.5.H _ _ H H ) ) F 5._ _ F D F F D F A C F I.I.I.",
"I.I.G F H F F ) F F F F F F F F F F F F _ _ G H H _ H Z D D A _ H H H H H _ _ H _ _ _ H H _ ) H H H H H F F F F D Z C m I.I.I.I.",
"I.I.G G F H H H D F D F F H H H F F F A D D D D D D F Y P P R Z Z Z Z 5.H _ _ H _ ) _ ) H H _ H H _ _ 5.F F F F C C n v I.I.I.I.",
"I.I.H H H H H H D D D F H H H H F F F A D D F F F F F U Y P P S Z C C H 5.H 5._ _ H H H _ H H _ H H H H F F F F M b x 5 I.I.I.I.",
"I.I.I.H M V C C ) F F F F H G _ G H _ Z F F F D F F F U U L P D Z Z Z _ H _ _ H H H H H H _ H H _ F H 5._ 5._ 5.D F D F @ .     ",
"I.I.I.I.m M C C F F F F ) F _ ) 5.H _ Z D Z D F F D F U Y Y P D D D D _ _ _ 5.H H F H H H H H F _ 5.5.H _ 5.5.5.F F D D         ",
"I.I.I.I.n m m M H F F F _ _ _ _ G _ _ Z D D F U U U U ..|  .| D D D D D D D D D F F F F H F D 5._ _ H 5._ 5.5.6.D D D F         ",
"I.I.I.I.c v b b F D F F _ _ _ _ H _ H F D F D U U U U ..| ..| F D F F D F F D D D F F F F F D F 5._ _ 5.5.5.5.5.F D D F         ",
"2 5 5 8 F D F D 5.5.5.5.5._ 5.H 8.8.8.D D D F Y Y Y Y ..+.....F F F F F D F D D F F F F F D D _ _ _ 5.5.5.5.7.6.7.7.7.7.        ",
"# $ < 1 D F D F 7.6.6.5.5.5._ H 8.5.8.D D D D L Y Y { +.....( H F F ) ) F D D F F F D F H D D H _ 5._ 5.5.6.7.7.7.7.7.7.        ",
"  . @ @ F D F D 7.7.6.5.5.5.H 5.9.8.8.D A A A $. . .......} ..` _ _ ` } | O.#.#.O.O.O.O.#.#.p.F H _ 5.5.5.7.7.7.7.7.7.7.        ",
"        F D D F 7.7.6.6.6.5.5.5.9.8.8.D A C Z &.$. . ..._ ..( ..G _ _ ` ` | | #.+.#.#.#.p.p.p.H _ 5.5.5.6.7.7.7.7.7.7.7.        ",
"        7.7.7.7.7.7.7.7.M.m.u.0.9.8.9.Z C V V =.%.$.......( ( _ _ ( ( ` ` ` w.O.#.#.#.p.s.s.@.m n c 8 2 6.6.7.7.7.7.7.7.        ",
"        7.7.7.7.7.7.7.7.N.m.u.y.0.8.9.Z V V V =.%.$......._ ( _ ( ( ( ( ` ` O.O.#.r.p.s.s.$.~ v x 8 2 $ 7.7.7.7.7.7.7.7.        ",
"        7.7.7.7.7.7.7.7.N.m.i.V D D F $.%.&.&.k.k.p.+.f.t.t.e.+.| `  . .w.r.s.g.z.x.v.C.l.X.N 8 2 < $ . 7.7.7.7.7.7.7.7.        ",
"        7.7.7.7.7.7.7.7.N.M.n.S ) ( _ 0.| | +.p.s.p.q.j.j.g.f.r.w.w.8.w.r.d.j.x.x.c.v.c.&.B 8 3 $ @ .   7.7.7.7.7.7.7.7.        ",
"        7.7.7.7.H H H H H H ) C D F F ( ( ( ( O.#.p.p.c.B.v.x.g.r.r.w.t.f.x.C.A.B.C.C.x.{ v 5 $ .       F H F H 7.7.7.7.        ",
"        7.7.7.7.H H H H ) F ) D F F ) F F F F ) / @.p.S.F.F.A.c.g.d.d.j.c.A.D.F.D.D.S.c./ 9 < .         ) F ) F 7.7.7.7.        ",
"        7.7.7.7.G G F ) F F ) F F F ) ) G G F ) B ^ *.F.J.P.J.C D D F Z C V m m M M C A x 5 #           H F F ) 7.7.7.7.        ",
"        7.7.7.7.G G G F ) F F ) F F F F G F ) F b B ~ V.H.P.L.V C C C V N v v v b m M Z 5 %             F ) H F 7.7.7.7.        ",
"        F F D D F ) F ) F ) H H G F F ( G ) F ) 7 7 r ' :.Z.K.v C C V V M b v b M C D D F F H H H F D H H H H H D F F D         ",
"        D D D F ) F G F F F H H G F F F ) ) ( ) % $ % ; t ] ;.6 D D F F F D D D D F F F F F H H F D D H H H F H F D D D         ",
"        F D D F ) F F ) ) F H H G G F ) ( _ ( ) @ .       = e t ( ) ) H ) _ | F ) F ) ) F ( } F F F F H H H F F D D D F         ",
"        D D F D F F ) F F ) H H H H F ) ) ) ) )               . ) ) ) ) F F F ) ) ) F F ) F ( G F F H H H H F F D F D F         ",
"I.I.I.I.        F D F D D D D D ) H H ) F ) ) F F ) F F F G G H ) F F F H H H H F ) F F F ) F ) D F D D D F D D         I.I.I.I.",
"I.I.I.I.        F D D D D F D C D F H F H F F ) ) F F ) ( F G H F F ) ) H H H G F F ) ) ) F H F D D D F F D D F         I.I.I.I.",
"I.I.I.I.        D D D F D D F D F F H H F ) F F ) F F ) ) F F ) ) F ) F H H G G ) F F F H F F ) D F D F F D D D         I.I.I.I.",
"I.I.I.I.        D F F D F F D D H H H H ) F H H F F ) F F ) F F ) F F F ) F ) F F ) ) F ) F ) ( F D D D D D F F         I.I.I.I.",
"I.I.I.I.I.I.I.I.                D F D D F ) F H ) F H H H H ) F F F F ( ( ) G ( F G G H D D D F                 I.I.I.I.I.I.I.I.",
"I.I.I.I.I.I.I.I.                D F F D H F ) F F G H G H H F ) ) ( G ( _ | _ _ | } } } ( ( ..D                 I.I.I.I.I.I.I.I.",
"I.I.I.I.I.I.I.I.                D D F D F ) H H ) F G G H ) F F G G G I I U U T T T W Y L L P Z                 I.I.I.I.I.I.I.I.",
"I.I.I.I.I.I.I.I.                F D D D ( F H H F ) G G H F ) F G G I Y W E E 3.Q 3.4.2.2.2.J S                 I.I.I.I.I.I.I.I.",
"I.I.I.I.I.I.I.I.I.I.I.I.I.I.I.I.              o       o X ; ; + : > s g >.,.>.1.j j l z <.<.d   I.I.I.I.I.I.I.I.I.I.I.I.I.I.I.I.",
"I.I.I.I.I.I.I.I.I.I.I.I.I.I.I.I.                    o * y ! ! s a s s d h >.>.k O O , a f f :   I.I.I.I.I.I.I.I.I.I.I.I.I.I.I.I.",
"I.I.I.I.I.I.I.I.I.I.I.I.I.I.I.I.O                     O a f f i w 0 * * q i i q o o o X ; w o   I.I.I.I.I.I.I.I.I.I.I.I.I.I.I.I.",
"I.I.I.I.I.I.I.I.I.I.I.I.I.I.I.I.+ + +                   o > > & o o   . o   o             o     I.I.I.I.I.I.I.I.I.I.I.I.I.I.I.I.",
"I.I.I.I.I.I.I.I.I.I.I.I.I.I.I.I.I.I.I.I.I.I.I.I.I.I.I.I.I.I.I.I.I.I.I.I.I.I.I.I.I.I.I.I.I.I.I.I.I.I.I.I.I.I.I.I.I.I.I.I.I.I.I.I.",
"I.I.I.I.I.I.I.I.I.I.I.I.I.I.I.I.I.I.I.I.I.I.I.I.I.I.I.I.I.I.I.I.I.I.I.I.I.I.I.I.I.I.I.I.I.I.I.I.I.I.I.I.I.I.I.I.I.I.I.I.I.I.I.I.",
"I.I.I.I.I.I.I.I.I.I.I.I.I.I.I.I.I.I.I.I.I.I.I.I.I.I.I.I.I.I.I.I.I.I.I.I.I.I.I.I.I.I.I.I.I.I.I.I.I.I.I.I.I.I.I.I.I.I.I.I.I.I.I.I.",
"I.I.I.I.I.I.I.I.I.I.I.I.I.I.I.I.I.I.I.I.I.I.I.I.I.I.I.I.I.I.I.I.I.I.I.I.I.I.I.I.I.I.I.I.I.I.I.I.I.I.I.I.I.I.I.I.I.I.I.I.I.I.I.I."
};
