/* XPM */
static char *result[] = {
/* columns rows colors chars-per-pixel */
"64 64 148 2 ",
"   c black",
".  c #000201",
"X  c #050000",
"o  c #010501",
"O  c #010702",
"+  c #020A03",
"@  c #020C03",
"#  c #130202",
"$  c #190202",
"%  c #1C0303",
"&  c #031004",
"*  c #041105",
"=  c #041306",
"-  c #051406",
";  c #051607",
":  c #061708",
">  c #061808",
",  c #071A09",
"<  c #071B0A",
"1  c #081C0A",
"2  c #081D0B",
"3  c #091E0B",
"4  c #091F0C",
"5  c #0A200D",
"6  c #0B230E",
"7  c #0D2510",
"8  c #0E2811",
"9  c #0E2912",
"0  c #0F2A12",
"q  c #102B13",
"w  c #112D14",
"e  c #122F16",
"r  c #133116",
"t  c #133317",
"y  c #143418",
"u  c #153519",
"i  c #153619",
"p  c #16381A",
"a  c #17391B",
"s  c #183B1C",
"d  c #193E1E",
"f  c #1A3E1E",
"g  c #1A401F",
"h  c #1B4120",
"j  c #1C4220",
"k  c #1C4321",
"l  c #204B25",
"z  c #214C26",
"x  c #224F28",
"c  c #245229",
"v  c #24522A",
"b  c #24532A",
"n  c #25542B",
"m  c #25552B",
"M  c #26552C",
"N  c #26562C",
"B  c #26572C",
"V  c #27582D",
"C  c #27592E",
"Z  c #28592E",
"A  c #285A2E",
"S  c #285B2F",
"D  c #295B2F",
"F  c #295C2F",
"G  c #295C30",
"H  c #295D30",
"J  c #2A5D30",
"K  c #2A5E30",
"L  c #2A5E31",
"P  c #2A5F31",
"I  c #2B5F31",
"U  c #2B6031",
"Y  c #2B6032",
"T  c #2B6132",
"R  c #2C6132",
"E  c #2C6133",
"W  c #2C6233",
"Q  c #2C6333",
"!  c #2D6333",
"~  c #2D6434",
"^  c #2E6534",
"/  c #2E6535",
"(  c #2E6635",
")  c #2E6736",
"_  c #2F6736",
"`  c #2F6836",
"'  c #2F6837",
"]  c #306937",
"[  c #306A37",
"{  c #306A38",
"}  c #316B38",
"|  c #316C38",
" . c #316C39",
".. c #326C39",
"X. c #326D39",
"o. c #326E3A",
"O. c #336E3A",
"+. c #336F3A",
"@. c #336F3B",
"#. c #33703B",
"$. c #33713B",
"%. c #34713B",
"&. c #34713C",
"*. c #34723C",
"=. c #34733C",
"-. c #35733D",
";. c #35743D",
":. c #36743E",
">. c #36753E",
",. c #36763E",
"<. c #37773F",
"1. c #387940",
"2. c #387A40",
"3. c #387A41",
"4. c #387B41",
"5. c #397B41",
"6. c #397C41",
"7. c #397C42",
"8. c #397D42",
"9. c #397E42",
"0. c #3A7E42",
"q. c #3A7E43",
"w. c #3A7F43",
"e. c #3A8043",
"r. c #3A8044",
"t. c #3B8044",
"y. c #3B8144",
"u. c #3B8244",
"i. c #3B8245",
"p. c #3C8345",
"a. c #3C8445",
"s. c #3C8446",
"d. c #3C8546",
"f. c #3D8546",
"g. c #3D8646",
"h. c #3D8647",
"j. c #3D8747",
"k. c #3D8847",
"l. c #3E8847",
"z. c #3E8848",
"x. c #3E8948",
"c. c #60B56B",
"v. c #61B56B",
"b. c #61B56C",
"n. c #61B66C",
"m. c #62B66D",
"M. c #62B76D",
"N. c None",
/* pixels */
"N.N.N.N.N.N.N.N.N.N.N.N.N.N.N.N.N.N.N.N.N.N.N.N.N.N.N.N.N.N.N.N.N.N.N.N.N.N.N.N.N.N.N.N.N.N.N.N.N.N.N.N.N.N.N.N.N.N.N.N.N.N.N.N.",
"N.N.N.N.N.N.N.N.N.N.N.N.N.N.N.N.N.N.N.N.N.N.N.N.N.N.N.N.N.N.N.N.N.N.N.N.N.N.N.N.N.N.N.N.N.N.N.N.N.N.N.N.N.N.N.N.N.N.N.N.N.N.N.N.",
"N.N.N.N.N.N.N.N.N.N.N.N.N.N.N.N.N.N.N.N.N.N.N.N.N.N.N.N.N.N.N.N.N.N.N.N.N.N.N.N.N.N.N.N.N.N.N.N.N.N.N.N.N.N.N.N.N.N.N.N.N.N.N.N.",
"N.N.N.N.N.N.N.N.N.N.N.N.N.N.N.N.N.<.<.<.N.N.N.N.N.N.N.N.N.N.N.N.N.N.N.<.<.<.<.<.<.N.N.N.N.N.N.N.N.N.N.N.N.N.N.N.N.N.N.N.N.N.N.N.",
"N.N.N.N.N.N.N.N.N.N.N.N.N.N.N.<.<.<.<.<.<.<.<.<.<.<.<.<.<.<.<.<.<.<.<.<.<.<.<.<.<.<.N.N.N.N.N.N.N.N.N.N.N.N.N.N.N.N.N.N.N.N.N.N.",
"N.N.N.N.N.N.N.N.N.N.N.N.N.N.<.<.<.<.<.<.<.<.<.<.<.<.<.<.<.<.<.<.<.<.<.<.<.<.<.<.<.<.N.N.N.<.<.<.<.N.N.N.<.<.<.N.N.N.N.N.N.N.N.N.",
"N.N.N.N.N.N.N.N.<.<.<.<.<.<.<.<.<.<.<.<.<.<.<.<.<.<.<.<.<.<.<.<.<.<.<.<.<.<.<.<.<.<.N.N.N.<.<.<.<.<.<.<.<.<.<.<.<.N.N.N.N.N.N.N.",
"N.N.N.N.N.N.<.<.<.<.<.<.<.<.<.<.<.<.<.<.<.<.<.<.<.<.<.<.<.<.<.<.<.<.<.<.<.<.<.<.<.<.N.N.N.<.<.<.<.<.<.<.<.<.<.<.<.<.N.N.N.N.N.N.",
"N.N.N.N.N.<.<.<.<.<.<.<.<.<.<.<.<.<.<.<.<.<.<.<.<.<.<.<.<.<.<.<.<.<.<.<.<.<.<.<.<.<.<.N.<.<.<.<.<.<.<.<.<.<.<.<.<.<.N.N.N.N.N.N.",
"N.N.N.N.<.<.<.<.<.<.<.<.<.<.<.<.<.<.<.<.<.<.<.<.<.<.<.<.<.<.<.<.<.<.<.<.<.<.<.<.<.<.<.<.<.<.<.<.<.<.<.<.<.<.<.<.<.<.N.N.N.N.N.N.",
"N.N.N.N.<.<.<.<.<.<.<.<.<.<.<.<.<.<.<.<.<.<.<.<.<.<.<.<.<.<.<.<.<.<.<.<.<.<.<.<.<.<.<.<.<.<.<.<.<.<.<.<.<.<.<.<.<.<.N.N.N.N.N.N.",
"N.N.N.N.<.<.<.<.<.<.<.<.<.<.<.<.<.<.<.<.<.<.<.<.<.<.<.<.<.<.<.<.<.<.<.<.<.<.<.<.<.<.<.<.<.<.<.<.<.<.<.<.<.<.<.<.<.<.N.N.N.N.N.N.",
"N.N.N.N.<.<.<.<.<.<.<.<.<.<.<.<.<.<.<.<.<.<.<.<.<.<.<.<.<.<.<.<.<.<.<.<.<.<.<.<.<.<.<.<.<.<.<.<.<.<.<.<.<.<.<.<.<.<.N.N.N.N.N.N.",
"N.N.N.<.<.<.<.<.<.<.<.<.<.<.<.<.<.<.<.<.<.<.<.<.<.<.<.<.<.<.<.<.<.<.N.<.<.<.<.<.<.<.<.<.<.<.<.<.<.<.<.<.<.<.<.<.<.<.N.N.N.N.N.N.",
"N.N.<.<.<.<.<.<.<.<.<.<.<.<.<.<.<.<.<.<.<.<.<.<.<.<.<.<.<.<.<.<.<.N.N.N.N.<.<.<.<.<.<.<.<.<.<.<.<.<.<.<.<.<.<.<.<.<.N.N.N.N.N.N.",
"N.N.<.<.<.<.<.<.<.<.<.<.<.<.<.<.<.<.<.<.<.<.<.<.<.<.<.<.<.<.<.<.<.N.N.N.N.N.<.<.<.<.<.<.<.<.<.<.<.<.<.<.<.<.<.<.<.<.<.N.N.N.N.N.",
"N.<.<.<.<.<.<.<.<.<.<.<.<.<.<.<.<.<.<.<.} } { [ | O.%.*.%.O.] E V x l z c V L E ! W I F C B B A I ~ ' | <.<.<.<.<.<.<.N.N.N.N.N.",
"N.<.<.<.<.<.<.<.<.<.<.<.<.<.<.<.<.<.<.<.} ] _ ( ( ]  .o.X.} ` E A n v M D E ^ ) ) / W I G S S F Y ^ ` } <.<.<.<.<.<.<.N.N.N.N.N.",
"<.<.<.<.<.<.<.<.<.<.<.<.<.<.<.<.<.<.<.<._ ^ W Y I Y ~ ( ` _ / Y D V V J ! _ [ } { ' ( W T L K L T ~ ` [ <.<.<.<.<.<.<.<.N.N.N.N.",
"N.<.<.<.<.<.<.<.<.<.<.<.<.<.<.<.<.<.<.<.I F A V N N V D U W W U H D J W ) { |  .} [ _ ^ Q R Y Y R ~ ) ] <.<.<.<.<.<.<.<.N.N.N.N.",
"N.<.<.<.<.<.<.<.<.<.<.<.` _ ^ ~ ~ ~ W G -.-.-.-.u.i.i.u.e.w.0.0.q.q.0.8.6.5.5.5.5.5.6.7.7.8.8.8.>.>.>.>.] { X.@.<.<.<.<.<.N.N.N.",
"N.<.<.<.<.<.<.N.<.<.<.<.` ) ~ R Y U F m -.*.=.-.u.p.p.i.t.w.8.8.8.9.8.8.7.6.6.6.6.6.6.5.5.5.6.7.>.>.>.>._ ] ..#.<.<.<.<.<.N.N.N.",
"N.N.<.N.N.N.N.N.N.N.N.<.W / ~ Y L H A b -.=.-.-.y.u.u.y.w.9.7.7.7.8.8.8.8.8.8.8.8.8.6.4.3.2.3.4.>.>.>.>.( ]  .+.<.<.<.<.<.N.N.N.",
"N.N.N.N.N.N.N.N.N.N.N.N.M U ! R P K G Z -.-.;.;.w.w.e.w.0.7.6.6.6.7.7.7.8.0.q.q.q.8.6.3.2.1.1.2.,.,.>.>.~ ) ] [ <.<.<.<.<.N.N.N.",
"N.N.N.N.N.N.N.N.+ & 2 e *.-.;.>.>.>.>.>.0.q.0.8.8.8.8.8.7.6.6.6.7.7.7.7.8.0.q.q.0.8.5.3.1.1.1.1.2.4.7.8.:.;.;.;.S S S C N.N.N.N.",
"N.N.N.N.N.N.N.N.  . O - $.*.-.;.;.>.>.>.7.7.6.5.5.5.5.6.7.7.8.8.8.8.7.7.8.8.0.0.8.6.5.2.1.1.1.3.5.7.q.t.-.-.*.*.d f g h N.N.N.N.",
"N.N.N.N.N.N.N.N.      o #.$.*.=.-.;.;.>.8.8.8.7.7.6.7.8.0.w.e.e.e.w.w.q.q.q.w.w.0.8.6.6.5.6.7.8.w.t.u.a.*.&.$.$.2 3 4 6 N.N.N.N.",
"N.N.N.N.N.N.N.N.        #.#.$.&.*.*.-.-.y.y.t.e.e.e.e.y.y.i.p.p.p.p.i.y.y.y.u.u.y.t.w.w.w.r.y.u.p.s.g.j.$.#.#.#.o o o + N.N.N.N.",
"N.N.N.N.        #.#.#.#.x.x.x.z.k.j.h.g.f.d.d.s.s.a.s.d.f.g.h.j.h.g.f.d.d.f.g.g.d.d.s.a.a.d.d.h.j.j.z.x.x.x.x.x.#.#.#.#.. .     ",
"N.N.N.N.        #.#.#.#.x.x.x.x.x.z.z.z.z.l.l.k.j.j.j.j.l.z.z.z.z.z.k.k.l.l.z.z.z.l.k.k.j.k.z.z.x.x.x.x.x.x.x.x.#.#.#.#.        ",
"N.N.N.N..       #.#.#.#.x.x.x.x.x.x.x.x.x.x.x.x.x.x.x.x.x.x.x.x.x.x.x.x.x.x.x.x.x.x.x.x.x.x.x.x.x.x.x.x.x.x.x.x.#.#.#.#.        ",
"N.N.N.N..       #.#.#.#.x.x.x.x.x.x.x.x.x.x.x.x.x.x.x.x.x.x.x.x.x.x.x.x.x.x.x.x.x.x.x.x.x.x.x.x.x.x.x.x.x.x.x.x.#.#.#.#.        ",
"7 7 3 * #.#.#.#.x.x.x.x.x.x.x.x.M.M.M.M.M.M.M.M.x.x.x.x.x.x.x.x.x.x.x.x.x.x.x.x.x.x.x.x.x.x.x.x.x.x.x.x.x.x.x.x.x.x.x.x.        ",
"- > : & #.#.#.#.x.x.x.x.x.x.x.x.M.M.M.M.M.M.M.M.x.x.x.x.x.x.x.x.x.x.x.x.x.x.x.x.x.x.x.x.x.x.x.x.x.x.x.x.x.x.x.x.x.x.x.x.        ",
"o O @ + #.#.#.#.x.x.x.x.x.x.x.x.M.M.M.M.M.M.M.M.x.x.x.x.x.x.x.x.x.x.x.x.x.x.x.x.x.x.x.x.x.x.x.x.x.x.x.x.x.x.x.x.x.x.x.x.        ",
"    . . #.#.#.#.x.x.x.x.x.x.x.x.M.M.M.M.M.M.M.M.x.x.x.x.x.x.x.x.x.x.x.x.x.x.x.x.x.x.x.x.x.x.x.x.x.x.x.x.x.x.x.x.x.x.x.x.        ",
"        x.x.x.x.x.x.x.x.M.M.M.M.M.M.M.M.<.<.<.<.<.<.<.<.<.<.<.<.<.<.<.<.<.<.<.<.<.<.<.<.          . . . x.x.x.x.x.x.x.x.        ",
"        x.x.x.x.x.x.x.x.M.M.M.M.M.M.M.M.<.<.<.<.<.<.<.<.<.<.<.<.<.<.<.<.<.<.<.<.<.<.<.<.        . O O o x.x.x.x.x.x.x.x.        ",
"        x.x.x.x.x.x.x.x.M.n.n.m.M.M.M.M.<.<.<.<.<.<.<.<.<.<.<.<.<.<.<.<.<.<.<.<.<.<.<.<.    . . O + O . x.x.x.x.x.x.x.x.        ",
"        x.x.x.x.x.x.x.x.M.b.c.v.b.n.M.M.<.<.<.<.<.<.<.<.<.<.<.<.<.<.<.<.<.<.<.<.<.<.<.<.. . o O O O .   x.x.x.x.x.x.x.x.        ",
"        x.x.x.x.<.<.<.<.<.<.<.<.<.<.<.<.<.<.<.<.O O o o o o o O <.<.<.<.<.<.<.<.<.<.<.<.* * & + o .     <.<.<.<.x.x.x.x.        ",
"        x.x.x.x.<.<.<.<.<.<.<.<.<.<.<.<.<.<.<.<.6 5 5 3 2 1 1 3 <.<.<.<.<.<.<.<.<.<.<.<.7 4 ; O         <.<.<.<.x.x.x.x.        ",
"        x.x.x.x.<.<.<.<.<.<.<.<.<.<.<.<.<.<.<.<.i y t r e e r u <.<.<.<.<.<.<.<.<.<.<.<.e 6 * .         <.<.<.<.x.x.x.x.        ",
"        x.x.x.x.<.<.<.<.<.<.<.<.<.<.<.<.<.<.<.<.s a i y t u s k <.<.<.<.<.<.<.<.<.<.<.<.0 > O           <.<.<.<.x.x.x.x.        ",
"        #.#.#.#.<.<.<.<.<.<.<.<.<.<.<.<.<.<.<.<.r e q 9 7 w p j <.<.<.<.<.<.<.<.<.<.<.<.<.<.<.<.<.<.<.<.<.<.<.<.#.#.#.#.        ",
"        #.#.#.#.<.<.<.<.<.<.<.<.<.<.<.<.<.<.<.<.3 < , - * > 8 y <.<.<.<.<.<.<.<.<.<.<.<.<.<.<.<.<.<.<.<.<.<.<.<.#.#.#.#.        ",
"        #.#.#.#.<.<.<.<.<.<.<.<.<.<.<.<.<.<.<.<.+ O .   . o = 4 <.<.<.<.<.<.<.<.<.<.<.<.<.<.<.    <.<.    <.<.<.#.#.#.#.        ",
"        #.#.#.#.<.<.<.<.<.<.<.<.<.<.<.<.<.<.<.<.            . + <.<.<.<.<.<.<.<.<.<.<.  <.<.            <.<.<.<.#.#.#.#.        ",
"N.N.N.N.        #.#.#.#.#.#.#.#.<.<.<.<.<.<.<.<.<.<.<.<.<.<.<.<.<.<.<.<.<.<.    <.<.<.              #.#.#.#.#.#.        N.N.N.N.",
"N.N.N.N.        #.#.#.#.#.#.#.#.<.<.<.<.<.<.<.<.<.<.<.<.<.<.<.      <.<.<.      <.            <.      #.#.#.#.#.        N.N.N.N.",
"N.N.N.N.        #.#.#.#.#.#.#.#.<.<.<.<.<.<.<.<.<.<.<.<.<.<.<.          <.    <.        <.    <.#.#.  #.#.#.#.#.        N.N.N.N.",
"N.N.N.N.        #.#.#.#.#.#.#.#.<.<.<.<.<.<.<.<.<.<.<.<.        <.              <.    <.<.    <.#.#.#.#.#.#.#.#.        N.N.N.N.",
"N.N.N.N.N.N.N.N.                #.#.#.#.<.<.<.<.<.<.<.<.<.          <.      <.    <.  <.#.#.#.#.                N.N.N.N.N.N.N.N.",
"N.N.N.N.N.N.N.N.                #.#.#.#.<.<.<.<.<.<.<.<.<.        <.<.<.<.  <.<.<.<.<.<.#.#.#.#.                N.N.N.N.N.N.N.N.",
"N.N.N.N.N.N.N.N.                #.#.#.#.<.<.<.<.<.<.<.<.<.<.<.<.<.<.<.<.<.<.<.<.<.<.<.<.#.#.#.#.                N.N.N.N.N.N.N.N.",
"N.N.N.N.N.N.N.N.                #.#.#.#.<.<.<.<.<.<.<.<.<.<.<.<.<.<.<.<.<.<.<.<.<.<.<.<.#.#.#.#.                N.N.N.N.N.N.N.N.",
"N.N.N.N.N.N.N.N.N.N.N.N.N.N.N.N.                                                                N.N.N.N.N.N.N.N.N.N.N.N.N.N.N.N.",
"N.N.N.N.N.N.N.N.N.N.N.N.N.N.N.N.                                                                N.N.N.N.N.N.N.N.N.N.N.N.N.N.N.N.",
"N.N.N.N.N.N.N.N.N.N.N.N.N.N.N.N.# X                                                             N.N.N.N.N.N.N.N.N.N.N.N.N.N.N.N.",
"N.N.N.N.N.N.N.N.N.N.N.N.N.N.N.N.% $ $                                                           N.N.N.N.N.N.N.N.N.N.N.N.N.N.N.N.",
"N.N.N.N.N.N.N.N.N.N.N.N.N.N.N.N.N.N.N.N.N.N.N.N.N.N.N.N.N.N.N.N.N.N.N.N.N.N.N.N.N.N.N.N.N.N.N.N.N.N.N.N.N.N.N.N.N.N.N.N.N.N.N.N.",
"N.N.N.N.N.N.N.N.N.N.N.N.N.N.N.N.N.N.N.N.N.N.N.N.N.N.N.N.N.N.N.N.N.N.N.N.N.N.N.N.N.N.N.N.N.N.N.N.N.N.N.N.N.N.N.N.N.N.N.N.N.N.N.N.",
"N.N.N.N.N.N.N.N.N.N.N.N.N.N.N.N.N.N.N.N.N.N.N.N.N.N.N.N.N.N.N.N.N.N.N.N.N.N.N.N.N.N.N.N.N.N.N.N.N.N.N.N.N.N.N.N.N.N.N.N.N.N.N.N.",
"N.N.N.N.N.N.N.N.N.N.N.N.N.N.N.N.N.N.N.N.N.N.N.N.N.N.N.N.N.N.N.N.N.N.N.N.N.N.N.N.N.N.N.N.N.N.N.N.N.N.N.N.N.N.N.N.N.N.N.N.N.N.N.N."
};
