/* XPM */
static char *result[] = {
/* columns rows colors chars-per-pixel */
"64 64 133 2 ",
"   c #000000",
".  c #0C0101",
"X  c #020A03",
"o  c #0C0B0D",
"O  c #130202",
"+  c #190202",
"@  c #041306",
"#  c #061708",
"$  c #071A09",
"%  c #091E0B",
"&  c #110F11",
"*  c #111214",
"=  c #181619",
"-  c #181C1E",
";  c #260505",
":  c #290606",
">  c #300707",
",  c #330909",
"<  c #390A0A",
"1  c #0C240F",
"2  c #0D2711",
"3  c #0F2912",
"4  c #122F15",
"5  c #133217",
"6  c #153519",
"7  c #18321B",
"8  c #17391C",
"9  c #193E1E",
"0  c #211F22",
"q  c #1E2225",
"w  c #1F2920",
"e  c #202427",
"r  c #23282B",
"t  c #302E32",
"y  c #3C393E",
"u  c #1D4421",
"i  c #1F4924",
"p  c #204B26",
"a  c #234D28",
"s  c #25542B",
"d  c #27582D",
"f  c #285A2F",
"g  c #2D4F31",
"h  c #2F5733",
"j  c #2A5D31",
"k  c #335E38",
"l  c #2D6434",
"z  c #2F6837",
"x  c #306537",
"c  c #306937",
"v  c #32673A",
"b  c #326D39",
"n  c #36763E",
"m  c #3A773F",
"M  c #37783F",
"N  c #755E38",
"B  c #7E5F39",
"V  c #436D3B",
"C  c #5C6F3D",
"Z  c #43753F",
"A  c #4B733E",
"S  c #54703D",
"D  c #5B753D",
"F  c #636539",
"G  c #6E643A",
"H  c #636C3C",
"J  c #6B683B",
"K  c #71663B",
"L  c #7A623A",
"P  c #63763C",
"I  c #6B763C",
"U  c #7F763A",
"Y  c #3D6E44",
"T  c #397741",
"R  c #397B42",
"E  c #3F7A49",
"W  c #40484D",
"Q  c #47694A",
"!  c #407747",
"~  c #407A47",
"^  c #447A4B",
"/  c #487A4E",
"(  c #467C51",
")  c #4B7C54",
"_  c #4D7F5A",
"`  c #507754",
"'  c #517B56",
"]  c #5A765C",
"[  c #567E5A",
"{  c #835737",
"}  c #8F5036",
"|  c #845C39",
" . c #8A5838",
".. c #915237",
"X. c #837539",
"o. c #8A7539",
"O. c #917538",
"+. c #3C8345",
"@. c #3D8847",
"#. c #3E8948",
"$. c #41854A",
"%. c #48824F",
"&. c #458A4E",
"*. c #4D8153",
"=. c #478E50",
"-. c #488E51",
";. c #4E805C",
":. c #528257",
">. c #55845A",
",. c #5A865E",
"<. c #4A9253",
"1. c #4F9959",
"2. c #509C5A",
"3. c #548262",
"4. c #5C8760",
"5. c #5F8963",
"6. c #5B866A",
"7. c #5E886F",
"8. c #618765",
"9. c #628A66",
"0. c #668569",
"q. c #668D6A",
"w. c #698F6D",
"e. c #6B906F",
"r. c #608A71",
"t. c #6C9070",
"y. c #709173",
"u. c #79967B",
"i. c #57A561",
"p. c #5BAD66",
"a. c #5FB36A",
"s. c #60B46B",
"d. c None",
/* pixels */
"d.d.d.d.d.d.d.d.d.d.d.d.d.d.d.d.d.d.d.d.d.d.d.d.d.d.d.d.d.d.d.d.d.d.d.d.d.d.d.d.d.d.d.d.d.d.d.d.d.d.d.d.d.d.d.d.d.d.d.d.d.d.d.d.",
"d.d.d.d.d.d.d.d.d.d.d.d.d.d.d.d.d.d.d.d.d.d.d.d.d.d.d.d.d.d.d.d.d.d.d.d.d.d.d.d.d.d.d.d.d.d.d.d.d.d.d.d.d.d.d.d.d.d.d.d.d.d.d.d.",
"d.d.d.d.d.d.d.d.d.d.d.d.d.d.d.d.d.d.d.d.d.d.d.d.d.d.d.d.d.d.d.d.d.d.d.d.d.d.d.d.d.d.d.d.d.d.d.d.d.d.d.d.d.d.d.d.d.d.d.d.d.d.d.d.",
"d.d.d.d.d.d.d.d.d.d.d.d.d.d.d.d.d.M M n d.d.d.d.d.d.d.d.d.d.d.d.d.d.d.M M M M M T d.d.d.d.d.d.d.d.d.d.d.d.d.d.d.d.d.d.d.d.d.d.d.",
"d.d.d.d.d.d.d.d.d.d.d.d.d.d.d.M M n T M n M n M M M M n M n M n M M n M M M M M M n d.d.d.d.d.d.d.d.d.d.d.d.d.d.d.d.d.d.d.d.d.d.",
"d.d.d.d.d.d.d.d.d.d.d.d.d.d.M M n M M n T n M n M M n M n M T n n n M n M M M n M M d.d.d.M M M M d.d.d.M M M d.d.d.d.d.d.d.d.d.",
"d.d.d.d.d.d.d.d.M M n M n M M M M n T n M n T M M n M M T M n M T M T M M n n T M M d.d.d.M M n M M M M M M M M M d.d.d.d.d.d.d.",
"d.d.d.d.d.d.M M M M M M T n M M n M M M n M n M M M n T M n M n M n n M n M n M M M d.d.d.M n M M M M n M M n T M M d.d.d.d.d.d.",
"d.d.d.d.d.M n M M M M n T M n M n M n T M n M n M n n M M n n M n T M n T M n M n n T d.M M n n M n T n n M M T M M d.d.d.d.d.d.",
"d.d.d.d.M M T n n M n M M n M n M M M n n M M n n M T n n M M T M n n M n M M n M M M M n M T M n M M M M n M n M M d.d.d.d.d.d.",
"d.d.d.d.M M n M M M M n n M n T M n n M M n T M M M n M M n M n M M M n M n M T n M M M M n n M M n M n n M n M M n d.d.d.d.d.d.",
"d.d.d.d.n M M T n T n M M M n M T n M n n M M n M n M n M T n M n T n M n M n n T n M n n M T n n M n M T n M n n M d.d.d.d.d.d.",
"d.d.d.d.M n M n n M n M n n M n M n M M n M n M n n M n T M M n M n M M M M n M M M M n T M n M T M n M M n T M M M d.d.d.d.d.d.",
"d.d.d.M n M n M M n M M T M n M n M n T T n M n T M n M n n n M n M d.T M M M M M n n M M n M n M n M n n M M n M M d.d.d.d.d.d.",
"d.d.M M T M M n n T n T n M M n M n M n M n M M n M T M n M M M M d.d.d.d.M M M n M n n n n M M M n n T M n T n M M d.d.d.d.d.d.",
"d.d.M M n M n M n M M n M n M T M T n M n M T n M n M n M n M M n d.d.d.d.d.M M M n T M M M n T M M n M n M M M n M T d.d.d.d.d.",
"d.M n T M M n M M n M M n M M M n T n M c c c c b b n n n c c l d p p p s d f l l l j f f d s f j l c c M n M M n M M d.d.d.d.d.",
"d.M M n M n M n M n n T M n n M n M M n c c c l l c c b b c z j f s s d d l l z l l l j f f f f j l c c T n M n T n T d.d.d.d.d.",
"M M M M M n n T n M M n n T M n M n T M l l l l j j l l z l l l f d d f l l c b z z l l l f f j l l c c M M M M M n M n d.d.d.d.",
"d.M M M n M n M M T n M M n n M n M M n j j d d s d d j l l l j f f f l c c c b b b z l l l l j l l l c M M M M n M n M d.d.d.d.",
"d.n M n M M n M M n M n z z l l l l j j M n n b +.+.a s f j +.R +.R R +.+.M M M M R R R R +.R +.M n n n l z b b M M M n M d.d.d.",
"d.M n M n T n M n M n M b l l l l j j d n b n n R +.i p d j R R R +.+.M M +.+.M R R R R R R M R n n n n z z c n n T n M M d.d.d.",
"d.M n T n M M n M n M M n z l l j f d a b n n b +.+.a s f l R R M +.M +.R R R R R R R R R M M R n n n b l c b b M n M M M d.d.d.",
"d.d.M n M n M T n M n M n b z j j j j j d s s j d j B B K J c c z c M M R R +.+.R R R R M R M R n n n n l b b n n M M M M d.d.d.",
"d.d.M M n M n M b n n n M n n n M n j l l j l l l l K K F H c c z z R R R R R +.+.R R R R M T M M R +.R b n n n b b c l T d.d.d.",
"d.d.M M M M M n n b b n M n n n M n l l c b c b b b C P H H c c l z R R R +.+.R R R M M R M M T M M M R n n n n b c l d d.d.d.d.",
"d.d.M M M n M M b n n n M M n M n M z c b b b b b n S S C C b c z z R M R R M M R T M T M n M M M R R R n n n n c l d p d.d.d.d.",
"d.d.n M M M M M b b b n M M M M n T z b b n Q A A A ! ! / ) b c z l l z c c c b b b n b n n M M M M M M n n n n f a 9 5 d.d.d.d.",
"d.d.d.T d j l l M M n n M M M R T R z b b n A A A A ! ^ / / b v z z z l c c c b b T n n b n M M R M +.M M +.R +.b n b n @ X     ",
"d.d.d.d.d f l l n n n M T T M R T R z b b b A A A A ! ! ^ / b b b z z z b b b b b n n n n n R R R R M +.R +.+.+.n n b b         ",
"d.d.d.d.s s d d n n n n R R R M R R b b b n A A A S ^ ^ ! ! v b b b T Y b b b b n n n T n n M M M +.+.R R +.+.@.z n n b         ",
"d.d.d.d.i a s a b n b n R R R R M R z b b b ^ ^ ^ ! ^ ^ / / ' _ _ #.( %.%.;.;.=.( E T R E E n M R M R +.+.+.+.@.b b b n         ",
"3 3 6 8 b T n n +.+.+.+.+.R R R $.$.n b b b ( Q Q / / ! ^ ^ _ %.E ( ^ ( ( _ ;._ ( E E E E ( T R +.+.R +.+.+.+.#.#.#.#.#.        ",
"# % 2 2 b b b b #.#.+.+.+.+.+.R $.$.b b b c ( ( ( ! / / ^ ^ ( / E E E E E ( _ ( ( E E E E E T R R R R +.+.@.#.#.#.#.#.#.        ",
"  X @ @ b T b n #.#.+.#.+.+.R R &.$.b b b c ' ` ` ^ ^ ^ ^ ! ^ ~ E E E E E ( ( _ *.( / ^ E R R R R R +.+.@.@.#.#.#.#.#.#.        ",
"      X b b b n #.#.#.#.+.+.s l b b ) ) ' [ r.r.6.[ t.8.4.>.%./ ( E ^ ( :.,.5.q.q.q.q.,.%.R R R +.+.+.+.@.#.#.#.#.#.#.#.        ",
"        #.#.#.#.#.#.#.#.a.p.x T T T *.-.^ ) 6.r.7.3.e.5.>.:.) %.~ ~ ~ %.*.:.4.q.e.t.q.*.b l j f a i 8 3 @.@.#.#.#.#.#.#.        ",
"        #.#.#.#.#.#.#.#.a.p.$.$.&.$.&.-.T T ( [ 6.3.e.4.,.:.) ^ ~ ~ ~ / ) >.4.5.w.e.8.^ c f s p u 8 3 $ #.@.#.#.#.#.#.#.        ",
"        #.#.#.#.#.#.#.#.s.p.1.<.-.&.&.-.n n T ( _ _ w.5.4.,.:./ / ~ ^ / ) :.5.q.w.w.,.~ l d p 8 4 1 $ X #.#.#.#.#.#.#.#.        ",
"        #.#.#.#.#.#.#.#.s.p.i.1.<.-.-.-.T T T R ^ ( 9.q.q.q.n n M M n n M n b n n b n m j a 9 3 $ @ X   #.#.#.#.#.#.#.#.        ",
"        #.#.#.#.n M n n M M M n T T n M n n M T c Y [ 8.y.u.b n M n n b b b b b n b n n f p 5 $ X       n M M T #.#.#.#.        ",
"        #.#.#.#.M M T n M M M M M M M M M M M n l x Y ` 0.u.z n n n n n n b b b n b n n a 9 1 X         M n M n #.#.#.#.        ",
"        #.#.#.#.n M M n n T n M M M M M M T n M d f j k Q ] h z n n n n n b b n M M n n u 5 #           n M n M #.#.#.#.        ",
"        #.#.#.#.n T n M M n n n M M M T T T T T p i u u p g h h M n M n T E n M M m m n 8 e             T n M n #.#.#.#.        ",
"        n n b b M n T M M M M M T n M T T T n M 6 6 5 4 3 5 u i n M n n n n M M M M n n n T M n T M M M M M M M b n n b         ",
"        b b b n n M n M M T b T n M n n M M M n % $ $ @ @ $ 3 6 M n M M M T M M M M M n n n M M M M M M M M M n b b b b         ",
"        b b b n M n n M M M z n M M n M n M n M X X         # % n n T M M n n T n M n M T m M M M M M M M M n n n b b n         ",
"        n b n b M n T n M M b n n n M n M M T n                 n n M M M M n n M n M n n n M M n n T n n M n n n b b n         ",
"d.d.d.d.        n b b n b n b b n T M M n M n M n n M n M M M M M M m m M M M M M M m n n n n T b c n b b b n n         d.d.d.d.",
"d.d.d.d.        n b b n b b b n M n M n T n M T M M M T M M M M M T T T T M M m M M m n n n T T c l b n n b b b         d.d.d.d.",
"d.d.d.d.        b b b b b b b n n M M M M n M n n M n M M M n n m T m T ~ E E T E ~ ! ~ R $.T b l j b n n b b b         d.d.d.d.",
"d.d.d.d.        b n n b n n b b M M M M n M n M T n M n m m m n M n m A A A D D P P S S P Q b b z l b b b b n n         d.d.d.d.",
"d.d.d.d.d.d.d.d.                n b b b M M M T M n n n T n n n m Z S H K K o.X.X.O.B | { N z b                 d.d.d.d.d.d.d.d.",
"d.d.d.d.d.d.d.d.                b n n b n M n n n M n T T E m Z A D K | .. .o.D D U L } } F b T                 d.d.d.d.d.d.d.d.",
"d.d.d.d.d.d.d.d.                b b n b n n m M M T T ^ ` ` C S C H H N  .| I m m A S K G V T b                 d.d.d.d.d.d.d.d.",
"d.d.d.d.d.d.d.d.    : , < > ; O n b b b n M n n n M T S K G / ^ E T T ^ / / ~ T m m T T Y b c T                 d.d.d.d.d.d.d.d.",
"d.d.d.d.d.d.d.d.d.d.d.d.d.d.d.d.+ +                   . , , & o         . o             o       d.d.d.d.d.d.d.d.d.d.d.d.d.d.d.d.",
"d.d.d.d.d.d.d.d.d.d.d.d.d.d.d.d.                          . o * = = X                     o     d.d.d.d.d.d.d.d.d.d.d.d.d.d.d.d.",
"d.d.d.d.d.d.d.d.d.d.d.d.d.d.d.d.            .                 * t y e .                   X     d.d.d.d.d.d.d.d.d.d.d.d.d.d.d.d.",
"d.d.d.d.d.d.d.d.d.d.d.d.d.d.d.d.              & X               = y W r - q q *   X       *   . d.d.d.d.d.d.d.d.d.d.d.d.d.d.d.d.",
"d.d.d.d.d.d.d.d.d.d.d.d.d.d.d.d.d.d.d.d.d.d.d.d.d.d.d.d.d.d.d.d.d.d.d.d.d.d.d.d.d.d.d.d.d.d.d.d.d.d.d.d.d.d.d.d.d.d.d.d.d.d.d.d.",
"d.d.d.d.d.d.d.d.d.d.d.d.d.d.d.d.d.d.d.d.d.d.d.d.d.d.d.d.d.d.d.d.d.d.d.d.d.d.d.d.d.d.d.d.d.d.d.d.d.d.d.d.d.d.d.d.d.d.d.d.d.d.d.d.",
"d.d.d.d.d.d.d.d.d.d.d.d.d.d.d.d.d.d.d.d.d.d.d.d.d.d.d.d.d.d.d.d.d.d.d.d.d.d.d.d.d.d.d.d.d.d.d.d.d.d.d.d.d.d.d.d.d.d.d.d.d.d.d.d.",
"d.d.d.d.d.d.d.d.d.d.d.d.d.d.d.d.d.d.d.d.d.d.d.d.d.d.d.d.d.d.d.d.d.d.d.d.d.d.d.d.d.d.d.d.d.d.d.d.d.d.d.d.d.d.d.d.d.d.d.d.d.d.d.d."
};
