/* XPM */
static char *result[] = {
/* columns rows colors chars-per-pixel */
"64 64 153 2 ",
"   c black",
".  c #020203",
"X  c gray1",
"o  c #050000",
"O  c #040304",
"+  c #0B0101",
"@  c #0F0101",
"#  c #060608",
"$  c #060809",
"%  c #070B09",
"&  c #090809",
"*  c #0A090A",
"=  c #080F0A",
"-  c #0E0D0F",
";  c #130202",
":  c #1E0303",
">  c #0A150D",
",  c #0C1A0F",
"<  c #181619",
"1  c #200404",
"2  c #360909",
"3  c #0E2112",
"4  c #132C17",
"5  c #17351C",
"6  c #1A3B1F",
"7  c #1B3D20",
"8  c #222023",
"9  c #333135",
"0  c #410D0D",
"q  c #4A1010",
"w  c #531414",
"e  c #681B1B",
"r  c #691B1B",
"t  c #204825",
"y  c #25532B",
"u  c #27572D",
"i  c #28582E",
"p  c #295B30",
"a  c #2B5F32",
"s  c #2F6636",
"d  c #316A38",
"f  c #336E3A",
"g  c #386F3B",
"h  c #396F3B",
"j  c #3D6E3B",
"k  c #33703B",
"l  c #34703B",
"z  c #35703B",
"x  c #37703B",
"c  c #34723C",
"v  c #35723C",
"b  c #35743D",
"n  c #36743D",
"m  c #36753E",
"M  c #36763E",
"N  c #37763F",
"B  c #37773F",
"V  c #38773F",
"C  c #39773F",
"Z  c #3A763F",
"A  c #3B763F",
"S  c #3C763F",
"D  c #3D763F",
"F  c #3E763F",
"G  c #406E3B",
"H  c #55693A",
"J  c #5A6F3D",
"K  c #45743E",
"L  c #47743E",
"P  c #4B733E",
"I  c #53713D",
"U  c #51713E",
"Y  c #52713E",
"T  c #50723E",
"R  c #686A3C",
"E  c #387740",
"W  c #397740",
"Q  c #397741",
"!  c #3B7442",
"~  c #3B7742",
"^  c #3B7743",
"/  c #3D7745",
"(  c #3E7745",
")  c #397841",
"_  c #3A7842",
"`  c #3A7843",
"'  c #3D7946",
"]  c #3D7947",
"[  c #3E7948",
"{  c #407747",
"}  c #407847",
"|  c #417848",
" . c #437849",
".. c #407A4B",
"X. c #44784A",
"o. c #447C50",
"O. c #457C51",
"+. c #4B7E57",
"@. c #4C7F59",
"#. c #507955",
"$. c #55795A",
"%. c #56795B",
"&. c #5E5A60",
"*. c #605B62",
"=. c #5D7A61",
"-. c #5F7A63",
";. c #6C676E",
":. c #607A64",
">. c #6A7B6E",
",. c #6C7B70",
"<. c #77727A",
"1. c #7C767F",
"2. c #757C79",
"3. c #767C7A",
"4. c #777C7A",
"5. c #777C7B",
"6. c #787C7B",
"7. c #787D7C",
"8. c #822424",
"9. c #872525",
"0. c #922929",
"q. c #9E2D2D",
"w. c #A32F2F",
"e. c #A63030",
"r. c #AA3131",
"t. c #AB3232",
"y. c #AC3232",
"u. c #954F36",
"i. c #825D39",
"p. c #935037",
"a. c #DF7126",
"s. c #3E8948",
"d. c #4E805C",
"f. c #548262",
"g. c #548363",
"h. c #5E876F",
"j. c #62B76D",
"k. c #7E7D81",
"l. c #807D83",
"z. c #817B84",
"x. c #827C85",
"c. c #817E84",
"v. c #827E85",
"b. c #837E86",
"n. c #847E87",
"m. c #76958C",
"M. c #78968E",
"N. c #7E9A95",
"B. c #839D9A",
"V. c #849D9B",
"C. c #9BADB7",
"Z. c white",
"A. c None",
/* pixels */
"A.A.A.A.A.A.A.A.A.A.A.A.A.A.A.A.A.A.A.A.A.A.A.A.A.A.A.A.A.A.A.A.A.A.A.A.A.A.A.A.A.A.A.A.A.A.A.A.A.A.A.A.A.A.A.A.A.A.A.A.A.A.A.A.",
"A.A.A.A.A.A.A.A.A.A.A.A.A.A.A.A.A.A.A.A.A.A.A.A.A.A.A.A.A.A.A.A.A.A.A.A.A.A.A.A.A.A.A.A.A.A.A.A.A.A.A.A.A.A.A.A.A.A.A.A.A.A.A.A.",
"A.A.A.A.A.A.A.A.A.A.A.A.A.A.A.A.A.A.A.A.A.A.A.A.A.A.A.A.A.A.A.A.A.A.A.A.A.A.A.A.A.A.A.A.A.A.A.A.A.A.A.A.A.A.A.A.A.A.A.A.A.A.A.A.",
"A.A.A.A.A.A.A.A.A.A.A.A.A.A.A.A.A.A.A.A.A.A.A.A.A.A.A.A.A.A.A.A.A.A.A.A.A.A.A.A.A.A.A.A.A.A.A.A.A.A.A.A.A.A.A.A.A.A.A.A.A.A.A.A.",
"A.A.A.A.A.A.A.A.A.A.A.A.A.A.A.A.A.A.A.A.A.A.A.A.A.A.A.A.A.A.A.A.A.A.A.A.A.A.A.A.A.A.A.A.A.A.A.A.A.A.A.A.A.A.A.A.A.A.A.A.A.A.A.A.",
"A.A.A.A.A.A.A.A.A.A.A.A.A.A.A.A.A.A.A.A.A.A.A.A.A.A.A.A.A.A.A.A.A.A.A.A.A.A.A.A.A.A.A.A.A.A.A.A.A.A.A.A.A.A.A.A.A.A.A.A.A.A.A.A.",
"A.A.A.A.A.A.A.A.A.A.A.A.A.A.A.A.A.A.A.A.A.A.A.A.A.A.A.A.A.A.A.A.A.A.A.A.A.A.A.A.A.A.A.A.A.A.A.A.A.A.A.A.A.A.A.A.A.A.A.A.A.A.A.A.",
"A.A.A.A.A.A.A.A.A.A.A.A.A.A.A.A.A.A.A.A.A.A.A.A.A.A.# # # # A.A.A.A.A.A.A.A.A.A.A.A.A.A.A.A.A.A.A.A.A.A.A.A.A.A.A.A.A.A.A.A.A.A.",
"A.A.A.A.A.A.A.A.A.A.A.A.A.A.A.A.A.A.A.A.A.A.A.A.A.A.# # # # A.A.A.A.A.A.A.A.A.A.A.A.A.A.A.A.A.A.A.A.A.A.A.A.A.A.A.A.A.A.A.A.A.A.",
"A.A.A.A.A.A.A.A.A.A.A.A.A.A.A.A.A.A.A.A.A.A.A.A.A.A.# # # # A.A.A.A.A.A.A.A.A.A.A.A.A.A.A.A.A.A.A.A.A.A.A.A.A.A.A.A.A.A.A.A.A.A.",
"A.A.A.A.A.A.A.A.A.A.A.A.A.A.A.A.A.A.A.A.A.A.A.A.A.A.# # # # A.A.A.A.A.A.A.A.A.A.A.A.A.A.A.A.A.A.A.A.A.A.A.A.A.A.A.A.A.A.A.A.A.A.",
"A.A.A.A.A.A.A.A.A.A.A.A.A.A.A.A.A.A.# # # # # # # # y.y.y.y.# # # # A.A.A.A.A.A.A.A.A.A.A.A.A.A.A.A.A.A.A.A.A.A.A.A.A.A.A.A.A.A.",
"A.A.A.A.A.A.A.A.A.A.A.A.A.A.A.A.A.A.# # # # # # # # y.y.y.y.# # # # A.A.A.A.A.A.A.A.A.A.A.A.A.A.A.A.A.A.A.A.A.A.A.A.A.A.A.A.A.A.",
"A.A.A.A.A.A.A.A.A.A.A.A.A.A.A.A.A.A.# # # # # # # # y.y.y.y.# # # # A.A.A.A.A.A.A.A.A.A.A.A.A.A.A.A.A.A.A.A.A.A.A.A.A.A.A.A.A.A.",
"A.A.A.A.A.A.A.A.A.A.A.A.A.A.A.A.A.A.# # # # # # # # y.y.y.y.# # # # A.A.A.A.A.A.A.A.A.A.A.A.A.A.A.A.A.A.A.A.A.A.A.A.A.A.A.A.A.A.",
"A.A.A.A.A.A.A.A.A.A.A.A.A.A.A.A.A.A.# # # # y.y.y.y.n.n.n.n.# # # # # # # # # # # # # # # # A.A.A.A.A.A.A.A.A.A.A.A.A.A.A.A.A.A.",
"A.A.A.A.A.A.A.A.A.A.A.A.A.A.A.A.A.A.# # # # y.y.y.y.n.n.n.n.# # # # # # # # # # # # # # # #             A.A.A.A.A.A.A.A.A.A.A.A.",
"A.A.A.A.A.A.A.A.A.A.A.A.A.A.A.A.A.A.# # # # y.y.y.y.n.n.n.n.# # # # # # # # # # # # # # # #             A.A.A.A.A.A.A.A.A.A.A.A.",
"A.A.A.A.A.A.A.A.A.A.A.A.A.A.A.A.A.A.# # # # y.y.y.y.n.n.n.n.# # # # # # # # # # # # # # # #             A.A.A.A.A.A.A.A.A.A.A.A.",
"A.A.A.A.A.A.A.A.A.A.A.A.A.A.A.A.A.A.# # # # n.n.n.n.n.n.n.n.C.C.C.C.C.C.C.C.C.C.C.C.C.C.C.C.# # # #     A.A.A.A.A.A.A.A.A.A.A.A.",
"A.A.A.A.A.A.A.A.A.A.A.A.            # # # # n.n.n.n.n.n.n.n.C.C.C.C.C.C.C.C.C.C.C.C.C.C.C.C.# # # # k k         A.A.A.A.A.A.A.A.",
"A.A.A.A.A.A.A.A.A.A.A.A.            # # # # n.n.n.n.n.n.n.n.C.C.C.C.C.C.C.C.C.C.C.C.C.C.C.C.# # # # k k         A.A.A.A.A.A.A.A.",
"A.A.A.A.A.A.A.A.A.A.A.A.            # # # # n.n.n.n.n.n.n.n.C.C.C.C.C.C.C.C.C.C.C.C.C.C.C.C.# # # # k k         A.A.A.A.A.A.A.A.",
"A.A.A.A.A.A.A.A.A.A.A.A.    # # # # n.n.n.n.C.C.C.C.Z.Z.Z.Z.Z.Z.Z.Z.Z.Z.Z.Z.Z.Z.Z.Z.Z.Z.Z.Z.# # # # k k         A.A.A.A.A.A.A.A.",
"A.A.A.A.A.A.A.A.        k k # # # # n.n.n.n.C.C.C.C.Z.Z.Z.Z.Z.Z.Z.Z.Z.Z.Z.Z.Z.Z.Z.Z.Z.Z.Z.Z.# # # # s.s.k k k k         A.A.A.A.",
"A.A.A.A.A.A.A.A.        k k # # # # n.n.n.n.C.C.C.C.Z.Z.Z.Z.Z.Z.Z.Z.Z.Z.Z.Z.Z.Z.Z.Z.Z.Z.Z.Z.# # # # s.s.k k k k         A.A.A.A.",
"A.A.A.A.A.A.A.A.        k k # # # # n.n.n.n.C.C.C.C.Z.Z.Z.Z.Z.Z.Z.Z.Z.Z.Z.Z.Z.Z.Z.Z.Z.Z.Z.Z.# # # # s.s.k k k k         A.A.A.A.",
"A.A.A.A.A.A.A.A.        k k # # # # C.C.C.C.C.C.C.C.Z.Z.Z.Z.# # # # # # # # # # # # # # # # # # # # s.s.k k k k         A.A.A.A.",
"A.A.A.A.        k k k k s.s.# # # # C.C.C.C.C.C.C.C.Z.Z.Z.Z.# # # # # # # # # # # # # # # # # # # # s.s.s.s.s.s.k k k k         ",
"A.A.A.A.        k k k k s.s.# # # # C.C.C.C.C.C.C.C.Z.Z.Z.Z.# # # # # # # # # # # # # # # # # # # # s.s.s.s.s.s.k k k k         ",
"A.A.A.A.        k k k k s.s.# # # # C.C.C.C.C.C.C.C.Z.Z.Z.Z.# # # # # # # # # # # # # # # # # # # # s.s.s.s.s.s.k k k k         ",
"A.A.A.A.        k k k k s.s.# # # # C.C.C.C.C.C.C.C.Z.Z.Z.Z.Z.Z.Z.Z.Z.Z.Z.Z.# # # # Z.Z.Z.Z.# # # # s.s.s.s.s.s.k k k k         ",
"        k k k k s.s.s.s.s.s.# # # # C.C.C.C.C.C.C.C.Z.Z.Z.Z.Z.Z.Z.Z.Z.Z.Z.Z.# # # # Z.Z.Z.Z.# # # # s.s.s.s.s.s.s.s.s.s.        ",
"        k k k k s.s.s.s.s.s.# # # # C.C.C.C.C.C.C.C.Z.Z.Z.Z.Z.Z.Z.Z.Z.Z.Z.Z.# # # # Z.Z.Z.Z.# # # # s.s.s.s.s.s.s.s.s.s.        ",
"        k k k k s.s.s.s.s.s.# # # # C.C.C.C.C.C.C.C.Z.Z.Z.Z.Z.Z.Z.Z.Z.Z.Z.Z.# # # # Z.Z.Z.Z.# # # # s.s.s.s.s.s.s.s.s.s.        ",
"        k k k k s.s.s.s.s.s.# # # # n.n.n.n.C.C.C.C.C.C.C.C.C.C.C.C.Z.Z.Z.Z.Z.Z.Z.Z.Z.Z.Z.Z.# # # # s.s.s.s.s.s.s.s.s.s.        ",
"        s.s.s.s.s.s.s.s.j.j.# # # # n.n.n.n.C.C.C.C.C.C.C.C.C.C.C.C.Z.Z.Z.Z.Z.Z.Z.Z.Z.Z.Z.Z.# # # #     s.s.s.s.s.s.s.s.        ",
"        s.s.s.s.s.s.s.s.j.j.# # # # n.n.n.n.C.C.C.C.C.C.C.C.C.C.C.C.Z.Z.Z.Z.Z.Z.Z.Z.Z.Z.Z.Z.# # # #     s.s.s.s.s.s.s.s.        ",
"        s.s.s.s.s.s.s.s.j.j.# # # # n.n.n.n.C.C.C.C.C.C.C.C.C.C.C.C.Z.Z.Z.Z.Z.Z.Z.Z.Z.Z.Z.Z.# # # #     s.s.s.s.s.s.s.s.        ",
"        s.s.s.s.s.s.s.s.j.j.j.j.j.j.# # # # n.n.n.n.n.n.n.n.y.y.y.y.y.y.y.y.a.a.a.a.y.y.y.y.# # # #     s.s.s.s.s.s.s.s.        ",
"        s.s.s.s.B B B B B B B B B B # # # $ b.b.n.n.n.n.n.n.y.y.y.y.y.y.y.y.a.a.a.a.y.y.y.y.# # # #     B B B B s.s.s.s.        ",
"        s.s.s.s.B B B B B B B B B B $ = , 4 7.5.1.x.n.n.n.n.y.y.y.y.y.y.y.y.a.a.a.a.y.y.y.y.# # # #     B B B B s.s.s.s.        ",
"        s.s.s.s.B B B B B B B B B B 4 7 t u %.$.&.<.x.n.n.n.y.y.y.y.y.y.y.y.a.a.a.a.y.y.y.y.# # # #     B B B B s.s.s.s.        ",
"        s.s.s.s.B B K P T Y R i.p.u.i d f l F A 2 e 0.e.t.y.n.n.n.n.n.n.n.n.n.n.n.n.n.n.n.n.# # # #     B B B B s.s.s.s.        ",
"        k k k k B B B V V V S L U J v B B M C B o 1 w 9.w.r.n.n.n.n.n.n.n.n.n.n.n.n.b.v.v.b.$ # # # B B B B B B k k k k         ",
"        k k k k B B V C V B B B B B B B B B A V     ; q 8.q.z.x.n.n.n.n.n.n.n.b.v.k.2.,.,.3.3 % > 3 B B B B B B k k k k         ",
"        k k k k B B B V F Z V B B B B B B B A D o     ; 0 r *.;.6.k.c.v.b.b.l.4.>.-.#. .X.=.6 5 y a B B B B B B k k k k         ",
"        k k k k B B B D K I C B B B B B B B V ~ - X     & < 8 9 $.:.m.N.B.V.M.h.o.[ ` E E +.p s b N B B B B B B k k k k         ",
"A.A.A.A.        k k k l h G g k B B B B B B B V W W E V B B V E ~ ( O.d.f.g.@.' B B B B _ ..c N k k k k k k k k         A.A.A.A.",
"A.A.A.A.    @   k k k k j H x k B B B B B B B B B V V E E E V V V V E _ ` ` _ E B B E ) ) E B B k k k k k k k k         A.A.A.A.",
"A.A.A.A.    : + k k k k l j z k B B B B B B B B B B B B V ^ / } { / ] ` _ ) ) E E E B E B B B B k k k k k k k k         A.A.A.A.",
"A.A.A.A.        k k k k k k k k B B B B B B B B B B B B B V Q ( | } n m M N N B B B B B B B B B k k k k k k k k         A.A.A.A.",
"A.A.A.A.A.A.A.A.                k k k k B B B B B B B B B B B B B B B B B B B B B B B B k k k k                 A.A.A.A.A.A.A.A.",
"A.A.A.A.A.A.A.A.                k k k k B B B B B B B B B B B B B B B B B B B B B B B B k k k k                 A.A.A.A.A.A.A.A.",
"A.A.A.A.A.A.A.A.                k k k k B B B B B B B B B B B B B B B B B B B B B B B B k k k k                 A.A.A.A.A.A.A.A.",
"A.A.A.A.A.A.A.A.                k k k k B B B B B B B B B B B V ! ! m B B B B B B B B B k k k k                 A.A.A.A.A.A.A.A.",
"A.A.A.A.A.A.A.A.A.A.A.A.A.A.A.A.                              . * -                             A.A.A.A.A.A.A.A.A.A.A.A.A.A.A.A.",
"A.A.A.A.A.A.A.A.A.A.A.A.A.A.A.A.                                  O                             A.A.A.A.A.A.A.A.A.A.A.A.A.A.A.A.",
"A.A.A.A.A.A.A.A.A.A.A.A.A.A.A.A.                                                                A.A.A.A.A.A.A.A.A.A.A.A.A.A.A.A.",
"A.A.A.A.A.A.A.A.A.A.A.A.A.A.A.A.                                                                A.A.A.A.A.A.A.A.A.A.A.A.A.A.A.A.",
"A.A.A.A.A.A.A.A.A.A.A.A.A.A.A.A.A.A.A.A.A.A.A.A.A.A.A.A.A.A.A.A.A.A.A.A.A.A.A.A.A.A.A.A.A.A.A.A.A.A.A.A.A.A.A.A.A.A.A.A.A.A.A.A.",
"A.A.A.A.A.A.A.A.A.A.A.A.A.A.A.A.A.A.A.A.A.A.A.A.A.A.A.A.A.A.A.A.A.A.A.A.A.A.A.A.A.A.A.A.A.A.A.A.A.A.A.A.A.A.A.A.A.A.A.A.A.A.A.A.",
"A.A.A.A.A.A.A.A.A.A.A.A.A.A.A.A.A.A.A.A.A.A.A.A.A.A.A.A.A.A.A.A.A.A.A.A.A.A.A.A.A.A.A.A.A.A.A.A.A.A.A.A.A.A.A.A.A.A.A.A.A.A.A.A.",
"A.A.A.A.A.A.A.A.A.A.A.A.A.A.A.A.A.A.A.A.A.A.A.A.A.A.A.A.A.A.A.A.A.A.A.A.A.A.A.A.A.A.A.A.A.A.A.A.A.A.A.A.A.A.A.A.A.A.A.A.A.A.A.A."
};
