/* XPM */
static char *result[] = {
/* columns rows colors chars-per-pixel */
"64 64 189 2 ",
"   c black",
".  c #010101",
"X  c #010102",
"o  c #020202",
"O  c #020203",
"+  c gray1",
"@  c #040304",
"#  c #040405",
"$  c #050506",
"%  c #060506",
"&  c #060607",
"*  c #0B0101",
"=  c #0F0101",
"-  c #060608",
";  c #070B09",
":  c #0A090A",
">  c #080C0A",
",  c #080F0A",
"<  c #0E0D0F",
"1  c #1E0303",
"2  c #09110C",
"3  c #0B1A0F",
"4  c #110F11",
"5  c #131113",
"6  c #2B0606",
"7  c #320808",
"8  c #350909",
"9  c #17351B",
"0  c #18301B",
"q  c #18321C",
"w  c #18381D",
"e  c #222023",
"r  c #272428",
"t  c #2E2B2F",
"y  c #3E3B3F",
"u  c #581515",
"i  c #5C1616",
"p  c #671A1A",
"a  c #741F1F",
"s  c #1D4322",
"d  c #25562C",
"f  c #2A5E31",
"g  c #2F5C35",
"h  c #2B6032",
"j  c #2D6334",
"k  c #2F6636",
"l  c #2F6736",
"z  c #2F6836",
"x  c #306937",
"c  c #316B39",
"v  c #376B3E",
"b  c #386F3B",
"n  c #396F3B",
"m  c #3D6E3B",
"M  c #33703B",
"N  c #34703B",
"B  c #35703B",
"V  c #37703B",
"C  c #34713C",
"Z  c #34723C",
"A  c #35733D",
"S  c #35743D",
"D  c #34753D",
"F  c #36743D",
"G  c #36753E",
"H  c #36763E",
"J  c #37763F",
"K  c #37773F",
"L  c #38773F",
"P  c #39773F",
"I  c #3A763F",
"U  c #3B763F",
"Y  c #3B773F",
"T  c #3D763F",
"R  c #3D773F",
"E  c #3E763F",
"W  c #406E3B",
"Q  c #55693A",
"!  c #43753E",
"~  c #45743E",
"^  c #4B733E",
"/  c #4D723E",
"(  c #48743E",
")  c #4B773E",
"_  c #53713D",
"`  c #55703D",
"'  c #6F673B",
"]  c #72653B",
"[  c #73653B",
"{  c #7D603A",
"}  c #60763D",
"|  c #64763C",
" . c #6C763C",
".. c #3A6F41",
"X. c #387740",
"o. c #397740",
"O. c #397741",
"+. c #3A7741",
"@. c #3B7442",
"#. c #3A7742",
"$. c #3B7742",
"%. c #3C7743",
"&. c #3C7744",
"*. c #3D7744",
"=. c #3E7745",
"-. c #397841",
";. c #3A7842",
":. c #3A7843",
">. c #3D7946",
",. c #3D7947",
"<. c #3F7A49",
"1. c #434045",
"2. c #555157",
"3. c #407747",
"4. c #417848",
"5. c #407A4A",
"6. c #44784B",
"7. c #417B4C",
"8. c #45784C",
"9. c #47784D",
"0. c #47784E",
"q. c #447C4F",
"w. c #4A784F",
"e. c #467D52",
"r. c #4E7853",
"t. c #4F7854",
"y. c #487D54",
"u. c #645F66",
"i. c #756F77",
"p. c #717C75",
"a. c #777179",
"s. c #77727A",
"d. c #7B757E",
"f. c #802323",
"g. c #822424",
"h. c #8A2626",
"j. c #8E2828",
"k. c #942A2A",
"l. c #A42F2F",
"z. c #A73030",
"x. c #A83131",
"c. c #AA3131",
"v. c #AB3332",
"b. c #AC3232",
"n. c #AA3632",
"m. c #A53D33",
"M. c #A53E33",
"N. c #A33F34",
"B. c #A93833",
"V. c #A83933",
"C. c #9C4735",
"Z. c #994B36",
"A. c #8E5537",
"S. c #855B39",
"D. c #865A38",
"F. c #805E39",
"G. c #A14234",
"H. c #857539",
"J. c #9A7536",
"K. c #B37332",
"L. c #B57332",
"P. c #C4732E",
"I. c #C9722D",
"U. c #DB7127",
"Y. c #DD7127",
"T. c #DE7127",
"R. c #3B8244",
"E. c #3E8948",
"W. c #509759",
"Q. c #539C5D",
"!. c #528160",
"~. c #7A947F",
"^. c #58A462",
"/. c #5DAD67",
"(. c #61B66C",
"). c #62B76D",
"_. c #7D7780",
"`. c #807A83",
"'. c #827E85",
"]. c #837D86",
"[. c #837E86",
"{. c #847E87",
"}. c #838086",
"|. c #828286",
" X c #818684",
".X c #9BADB7",
"XX c #FEFEFE",
"oX c white",
"OX c None",
/* pixels */
"OXOXOXOXOXOXOXOXOXOXOXOXOXOXOXOXOXOXOXOXOXOXOXOXOXOXOXOXOXOXOXOXOXOXOXOXOXOXOXOXOXOXOXOXOXOXOXOXOXOXOXOXOXOXOXOXOXOXOXOXOXOXOXOX",
"OXOXOXOXOXOXOXOXOXOXOXOXOXOXOXOXOXOXOXOXOXOXOXOXOXOXOXOXOXOXOXOXOXOXOXOXOXOXOXOXOXOXOXOXOXOXOXOXOXOXOXOXOXOXOXOXOXOXOXOXOXOXOXOX",
"OXOXOXOXOXOXOXOXOXOXOXOXOXOXOXOXOXOXOXOXOXOXOXOXOXOXOXOXOXOXOXOXOXOXOXOXOXOXOXOXOXOXOXOXOXOXOXOXOXOXOXOXOXOXOXOXOXOXOXOXOXOXOXOX",
"OXOXOXOXOXOXOXOXOXOXOXOXOXOXOXOXOXOXOXOXOXOXOXOXOXOXOXOXOXOXOXOXOXOXOXOXOXOXOXOXOXOXOXOXOXOXOXOXOXOXOXOXOXOXOXOXOXOXOXOXOXOXOXOX",
"OXOXOXOXOXOXOXOXOXOXOXOXOXOXOXOXOXOXOXOXOXOXOXOXOXOXOXOXOXOXOXOXOXOXOXOXOXOXOXOXOXOXOXOXOXOXOXOXOXOXOXOXOXOXOXOXOXOXOXOXOXOXOXOX",
"OXOXOXOXOXOXOXOXOXOXOXOXOXOXOXOXOXOXOXOXOXOXOXOXOXOXOXOXOXOXOXOXOXOXOXOXOXOXOXOXOXOXOXOXOXOXOXOXOXOXOXOXOXOXOXOXOXOXOXOXOXOXOXOX",
"OXOXOXOXOXOXOXOXOXOXOXOXOXOXOXOXOXOXOXOXOXOXOXOXOXOXOXOXOXOXOXOXOXOXOXOXOXOXOXOXOXOXOXOXOXOXOXOXOXOXOXOXOXOXOXOXOXOXOXOXOXOXOXOX",
"OXOXOXOXOXOXOXOXOXOXOXOXOXOXOXOXOXOXOXOXOXOXOXOXOXOX- - - - OXOXOXOXOXOXOXOXOXOXOXOXOXOXOXOXOXOXOXOXOXOXOXOXOXOXOXOXOXOXOXOXOXOX",
"OXOXOXOXOXOXOXOXOXOXOXOXOXOXOXOXOXOXOXOXOXOXOXOXOXOX- - - - OXOXOXOXOXOXOXOXOXOXOXOXOXOXOXOXOXOXOXOXOXOXOXOXOXOXOXOXOXOXOXOXOXOX",
"OXOXOXOXOXOXOXOXOXOXOXOXOXOXOXOXOXOXOXOXOXOXOXOXOXOX- - - - OXOXOXOXOXOXOXOXOXOXOXOXOXOXOXOXOXOXOXOXOXOXOXOXOXOXOXOXOXOXOXOXOXOX",
"OXOXOXOXOXOXOXOXOXOXOXOXOXOXOXOXOXOXOXOXOXOXOXOXOXOX- - - - OXOXOXOXOXOXOXOXOXOXOXOXOXOXOXOXOXOXOXOXOXOXOXOXOXOXOXOXOXOXOXOXOXOX",
"OXOXOXOXOXOXOXOXOXOXOXOXOXOXOXOXOXOX- - - - - - - - b.b.b.b.- - - - OXOXOXOXOXOXOXOXOXOXOXOXOXOXOXOXOXOXOXOXOXOXOXOXOXOXOXOXOXOX",
"OXOXOXOXOXOXOXOXOXOXOXOXOXOXOXOXOXOX- - - - - - - - b.b.b.b.- - - - OXOXOXOXOXOXOXOXOXOXOXOXOXOXOXOXOXOXOXOXOXOXOXOXOXOXOXOXOXOX",
"OXOXOXOXOXOXOXOXOXOXOXOXOXOXOXOXOXOX- - - - - - - - b.b.b.b.- - - - OXOXOXOXOXOXOXOXOXOXOXOXOXOXOXOXOXOXOXOXOXOXOXOXOXOXOXOXOXOX",
"OXOXOXOXOXOXOXOXOXOXOXOXOXOXOXOXOXOX- - - - - - - - b.b.b.b.- - - - OXOXOXOXOXOXOXOXOXOXOXOXOXOXOXOXOXOXOXOXOXOXOXOXOXOXOXOXOXOX",
"OXOXOXOXOXOXOXOXOXOXOXOXOXOXOXOXOXOX- - - - b.b.b.b.{.{.{.{.- - - - - - - - - - - - - - - - OXOXOXOXOXOXOXOXOXOXOXOXOXOXOXOXOXOX",
"OXOXOXOXOXOXOXOXOXOXOXOXOXOXOXOXOXOX- - - - b.b.b.b.{.{.{.{.- - - - - - - - - - - - - - - -             OXOXOXOXOXOXOXOXOXOXOXOX",
"OXOXOXOXOXOXOXOXOXOXOXOXOXOXOXOXOXOX- - - - b.b.b.b.{.{.{.{.- - - - - - - - - - - - - - - -             OXOXOXOXOXOXOXOXOXOXOXOX",
"OXOXOXOXOXOXOXOXOXOXOXOXOXOXOXOXOXOX- - - - b.b.b.b.{.{.{.{.- - - - - - - - - - - - - - - -             OXOXOXOXOXOXOXOXOXOXOXOX",
"OXOXOXOXOXOXOXOXOXOXOXOXOXOXOXOXOXOX- - - - {.{.{.{.{.{.{.{..X.X.X.X.X.X.X.X.X.X.X.X.X.X.X.X- - - -     OXOXOXOXOXOXOXOXOXOXOXOX",
"OXOXOXOXOXOXOXOXOXOXOXOX            - - - - {.{.{.{.{.{.{.{..X.X.X.X.X.X.X.X.X.X.X.X.X.X.X.X- - - - M M         OXOXOXOXOXOXOXOX",
"OXOXOXOXOXOXOXOXOXOXOXOX            - - - - {.{.{.{.{.{.{.{..X.X.X.X.X.X.X.X.X.X.X.X.X.X.X.X- - - - M M         OXOXOXOXOXOXOXOX",
"OXOXOXOXOXOXOXOXOXOXOXOX            - - - - {.{.{.{.{.{.{.{..X.X.X.X.X.X.X.X.X.X.X.X.X.X.X.X- - - - M M         OXOXOXOXOXOXOXOX",
"OXOXOXOXOXOXOXOXOXOXOXOX    - - - - {.{.{.{..X.X.X.XoXoXoXoXoXoXoXoXoXoXoXoXoXoXoXoXoXoXoXoX- - - - M M         OXOXOXOXOXOXOXOX",
"OXOXOXOXOXOXOXOX        M M - - - - {.{.{.{..X.X.X.XoXoXoXoXoXoXoXoXoXoXoXoXoXoXoXoXoXoXoXoX- - - - E.E.M M M M         OXOXOXOX",
"OXOXOXOXOXOXOXOX        M M - - - - {.{.{.{..X.X.X.XoXoXoXoXoXoXoXoXoXoXoXoXoXoXoXoXoXoXoXoX- - - - E.E.M M M M         OXOXOXOX",
"OXOXOXOXOXOXOXOX        M M - - - - {.{.{.{..X.X.X.XoXoXoXoXoXoXoXoXoXoXoXoXoXoXoXoXoXoXoXoX- - - - E.E.M M M M         OXOXOXOX",
"OXOXOXOXOXOXOXOX        M M - - - - .X.X.X.X.X.X.X.XoXoXoXoX- - - - - - - - - - - - - - - - - - - - E.E.M M M M         OXOXOXOX",
"OXOXOXOX        M M M M E.E.- - - - .X.X.X.X.X.X.X.XoXoXoXoX- - - - - - - - - - - - - - - - - - - - E.E.E.E.E.E.M M M M         ",
"OXOXOXOX        M M M M E.E.- - - - .X.X.X.X.X.X.X.XoXoXoXoX- - - - - - - - - - - - - - - - - - - - E.E.E.E.E.E.M M M M         ",
"OXOXOXOX        M M M M E.E.- - - - .X.X.X.X.X.X.X.XoXoXoXoX- - - - - - - - - - - - - - - - - - - - E.E.E.E.E.E.M M M M         ",
"OXOXOXOX        M M M M E.E.- - - - .X.X.X.X.X.X.X.XoXoXoXoXoXoXoXoXoXoXoXoX- - - - oXoXoXoX- - - - E.E.E.E.E.E.M M M M         ",
"        M M M M E.E.E.E.E.E.- - - - .X.X.X.X.X.X.X.XoXoXoXoXoXoXoXoXoXoXoXoX- - - - oXoXoXoX- - - - E.E.E.E.E.E.E.E.E.E.        ",
"        M M M M E.E.E.E.E.E.3 , > - .X.X.X.X.X.X.X.XoXoXoXoXoXoXoXoXoXoXoXoX- - - - oXoXoXoX- - - - E.E.E.E.E.E.E.E.E.E.        ",
"        M M M M E.E.E.E.E.E.d s 0 2 .X.X.X.X.X.X.X.XoXoXoXoXoXoXoXoXoXoXoXoX- - - - oXoXoXoX- - - - E.E.E.E.E.E.E.E.E.E.        ",
"        M M M M E.E.E.E.E.E.R.D ..q {.{.{.{..X.X.X.X.X.X.X.X.X.X.X.XoXoXoXoXoXoXoXoXoXoXoXoX- - - - E.E.E.E.E.E.E.E.E.E.        ",
"        E.E.E.E.E.E.E.E.).).).(.^.v }.{.{.{..X.X.X.X.X.X.X.X.X.X.X.XoXoXoXoXoXoXoXoXoXoXoXoX- - - -     E.E.E.E.E.E.E.E.        ",
"        E.E.E.E.E.E.E.E.).).).).(.W. X{.{.{..X.X.X.X.X.X.X.X.X.X.X.XoXoXoXoXoXoXoXoXoXoXoXoX- - - &     E.E.E.E.E.E.E.E.        ",
"        E.E.E.E.E.E.E.E.).).).).)./.~.|.{.{..X.X.X.X.X.X.X.X.X.X.X.XoXoXoXoXoXoXoXoXoXoXoXXX& $ # #     E.E.E.E.E.E.E.E.        ",
"        E.E.E.E.E.E.E.E.).).).).).).Q.g , ; '.[.[.{.{.{.{.{.b.b.b.b.b.b.b.b.T.U.U.Y.b.b.b.l.# o . X     E.E.E.E.E.E.E.E.        ",
"        E.E.E.E.K K K K K K K K K K G f 9 w p.p.a.`.{.{.{.{.b.b.b.v.v.b.b.V.I.L.K.P.N.n.z.h..           K K K K E.E.E.E.        ",
"        E.E.E.E.K K K K K K K K K K K Z j l 8.6.1.u.d.].{.].c.x.M.G.G.m.B.C.J.| } H.D.Z.k.i             K K K K E.E.E.E.        ",
"        E.E.E.E.K K K K K K K K K K K K G H K K % r 2.i._.s.j.g.{ [ ] F.A.S. .R Y ) ` ' p 6             K K K K E.E.E.E.        ",
"        E.E.E.E.K K ~ ^ / ( ! U L K K K K K K K     1 u f.a y t 4.&.%.4.0.w.3.X.L X.O.*.e %             K K K K E.E.E.E.        ",
"        M M M M K K K L L L I E T T K K K K K K       * 7 8 4 % X.L L L L X.L L L K K L X.L K K K K K K K K K K M M M M         ",
"        M M M M K K L P L K K K K K K K K K K K           = < 5 &.&.X.K K K K K K K K K L o.G G F C K K K K K K M M M M         ",
"        M M M M K K K L E I L K K K K K K K P L             + 4 9.t.3.L K K K K K K K K K X.c h k x K K K K K K M M M M         ",
"        M M M M K K K T ~ _ P K K K K K K K L +.%               &.r.!.7.>.5.<.:.X.X.K K K :.z l S J K K K K K K M M M M         ",
"OXOXOXOX        M M M N n W b M K K K K K K K L o.X.L K K K K K L $.7.q.e.y.q.:.K K K K X.>.A J M M M M M M M M         OXOXOXOX",
"OXOXOXOX    =   M M M M m Q V M K K K K K K K K K L L L K K K K K K X.;.:.:.;.X.K K X.-.-.X.K K M M M M M M M M         OXOXOXOX",
"OXOXOXOX    1 * M M M M N m B M K K K K K K K K K K K K L X.K K L #.,.:.;.-.-.X.X.X.K X.K K K K M M M M M M M M         OXOXOXOX",
"OXOXOXOX        M M M M M M M M K K K K K K K K K K K K K L L X.#.=.F G H J J K K K K K K K K K M M M M M M M M         OXOXOXOX",
"OXOXOXOXOXOXOXOX                M M M M K K K K K K K K K K K K K K K K K K K K K K K K M M M M                 OXOXOXOXOXOXOXOX",
"OXOXOXOXOXOXOXOX                M M M M K K K K K K K K K K K K K K K K K K K K K K K K M M M M                 OXOXOXOXOXOXOXOX",
"OXOXOXOXOXOXOXOX                M M M M K K K K K K K K K K K K K K K K K K K K K K K K M M M M                 OXOXOXOXOXOXOXOX",
"OXOXOXOXOXOXOXOX                M M M M K K K K K K K K K K K L @.@.G K K K K K K K K K M M M M                 OXOXOXOXOXOXOXOX",
"OXOXOXOXOXOXOXOXOXOXOXOXOXOXOXOX                              O : <                             OXOXOXOXOXOXOXOXOXOXOXOXOXOXOXOX",
"OXOXOXOXOXOXOXOXOXOXOXOXOXOXOXOX                                  @                             OXOXOXOXOXOXOXOXOXOXOXOXOXOXOXOX",
"OXOXOXOXOXOXOXOXOXOXOXOXOXOXOXOX                                                                OXOXOXOXOXOXOXOXOXOXOXOXOXOXOXOX",
"OXOXOXOXOXOXOXOXOXOXOXOXOXOXOXOX                                                                OXOXOXOXOXOXOXOXOXOXOXOXOXOXOXOX",
"OXOXOXOXOXOXOXOXOXOXOXOXOXOXOXOXOXOXOXOXOXOXOXOXOXOXOXOXOXOXOXOXOXOXOXOXOXOXOXOXOXOXOXOXOXOXOXOXOXOXOXOXOXOXOXOXOXOXOXOXOXOXOXOX",
"OXOXOXOXOXOXOXOXOXOXOXOXOXOXOXOXOXOXOXOXOXOXOXOXOXOXOXOXOXOXOXOXOXOXOXOXOXOXOXOXOXOXOXOXOXOXOXOXOXOXOXOXOXOXOXOXOXOXOXOXOXOXOXOX",
"OXOXOXOXOXOXOXOXOXOXOXOXOXOXOXOXOXOXOXOXOXOXOXOXOXOXOXOXOXOXOXOXOXOXOXOXOXOXOXOXOXOXOXOXOXOXOXOXOXOXOXOXOXOXOXOXOXOXOXOXOXOXOXOX",
"OXOXOXOXOXOXOXOXOXOXOXOXOXOXOXOXOXOXOXOXOXOXOXOXOXOXOXOXOXOXOXOXOXOXOXOXOXOXOXOXOXOXOXOXOXOXOXOXOXOXOXOXOXOXOXOXOXOXOXOXOXOXOXOX"
};
