/* XPM */
static char *result[] = {
/* columns rows colors chars-per-pixel */
"64 64 181 2 ",
"   c #000000",
".  c #0D0101",
"X  c #030B05",
"o  c #090B0C",
"O  c #1B0303",
"+  c #051406",
"@  c #09130C",
"#  c #071A09",
"$  c #081D0B",
"%  c #0D0F11",
"&  c #110F11",
"*  c #0D1E11",
"=  c #111315",
"-  c #15191B",
";  c #1A1B1E",
":  c #2B0606",
">  c #0B230E",
",  c #0F2312",
"<  c #0E2811",
"1  c #112C15",
"2  c #132B16",
"3  c #133117",
"4  c #16351A",
"5  c #17391B",
"6  c #193C1E",
"7  c #18371C",
"8  c #1A1E21",
"9  c #1C3E21",
"0  c #232729",
"q  c #24312C",
"w  c #292E32",
"e  c #272E30",
"r  c #36393B",
"t  c #2E3438",
"y  c #410D0D",
"u  c #1B411F",
"i  c #1D4422",
"p  c #1F4924",
"a  c #204725",
"s  c #214B26",
"d  c #234E29",
"f  c #25542B",
"g  c #27592E",
"h  c #285A2F",
"j  c #2A5E31",
"k  c #2D6334",
"l  c #2F6837",
"z  c #306937",
"x  c #326D39",
"c  c #396F3B",
"v  c #306637",
"b  c #36753E",
"n  c #39773F",
"m  c #7E5F39",
"M  c #426E3B",
"N  c #4A6C3A",
"B  c #5C6F3D",
"V  c #43753E",
"C  c #4B743E",
"Z  c #55703D",
"A  c #5B753D",
"S  c #6F673B",
"D  c #646B3C",
"F  c #6A693C",
"G  c #73653B",
"H  c #78623A",
"J  c #67763C",
"K  c #7F763A",
"L  c #3A7742",
"P  c #3A7D43",
"I  c #3F7A49",
"U  c #414848",
"Y  c #434D50",
"T  c #595A5A",
"R  c #407747",
"E  c #43794B",
"W  c #49794F",
"Q  c #407847",
"!  c #467C52",
"~  c #4B7B54",
"^  c #4C7F59",
"/  c #507956",
"(  c #55795A",
")  c #597A5E",
"_  c #5D7A62",
"`  c #5B696C",
"'  c #696A69",
"]  c #617A65",
"[  c #667B6A",
"{  c #6A7B6E",
"}  c #6D7B71",
"|  c #717C75",
" . c #777C7A",
".. c #7B7D7E",
"X. c #A53C33",
"o. c #A93833",
"O. c #974D36",
"+. c #9D4735",
"@. c #8F5337",
"#. c #845C39",
"$. c #895838",
"%. c #925137",
"&. c #A04334",
"*. c #887539",
"=. c #917538",
"-. c #3B8245",
";. c #3D8847",
":. c #3E8948",
">. c #4F805C",
",. c #4E8053",
"<. c #53835A",
"1. c #5A855E",
"2. c #508155",
"3. c #4F9958",
"4. c #45874D",
"5. c #54A15E",
"6. c #548363",
"7. c #5A8664",
"8. c #5E8962",
"9. c #5B866C",
"0. c #5E886F",
"q. c #5C996A",
"w. c #5F8870",
"e. c #608964",
"r. c #6A8F6D",
"t. c #6B906F",
"y. c #628A74",
"u. c #6A8E7D",
"i. c #678C79",
"p. c #6E9171",
"a. c #609170",
"s. c #739476",
"d. c #769779",
"f. c #79987C",
"g. c #57A461",
"h. c #5BAC65",
"j. c #5EA96A",
"k. c #5EB169",
"l. c #61B66C",
"z. c #6E9082",
"x. c #729286",
"c. c #76958B",
"v. c #79978E",
"b. c #7F9C81",
"n. c #7A9790",
"m. c #7D9993",
"M. c #8B8E8B",
"N. c #839F85",
"B. c #819B98",
"V. c #809B97",
"C. c #9C9E9C",
"Z. c #87A189",
"A. c #8FA791",
"S. c #93AA95",
"D. c #9AAE9B",
"F. c #9CB09E",
"G. c #A2B5A4",
"H. c #ACBCAD",
"J. c #A7B8A8",
"K. c #B2BDB3",
"L. c #B4B6B4",
"P. c #A5A7A5",
"I. c #B4C2B5",
"U. c #BAC5BB",
"Y. c #BCC8BD",
"T. c #C3CEC4",
"R. c #C9CCCA",
"E. c #C6D0C6",
"W. c #C7D1C8",
"Q. c #CCD5CD",
"!. c #CFD8D0",
"~. c #D3DAD4",
"^. c #D7DED8",
"/. c #D9DFD9",
"(. c #DDE2DD",
"). c #E1E6E2",
"_. c #E6EAE7",
"`. c #EFF2EF",
"'. c #F4F6F4",
"]. c #FBFBFB",
"[. c None",
/* pixels */
"[.[.[.[.[.[.[.[.[.[.[.[.[.[.[.[.[.[.[.[.[.[.[.[.[.[.[.[.[.[.[.[.[.[.[.[.[.[.[.[.[.[.[.[.[.[.[.[.[.[.[.[.[.[.[.[.[.[.[.[.[.[.[.[.",
"[.[.[.[.[.[.[.[.[.[.[.[.[.[.[.[.[.[.[.[.[.[.[.[.[.[.[.[.[.[.[.[.[.[.[.[.[.[.[.[.[.[.[.[.[.[.[.[.[.[.[.[.[.[.[.[.[.[.[.[.[.[.[.[.",
"[.[.[.[.[.[.[.[.[.[.[.[.[.[.[.[.[.[.[.[.[.[.[.[.[.[.[.[.[.[.[.[.[.[.[.[.[.[.[.[.[.[.[.[.[.[.[.[.[.[.[.[.[.[.[.[.[.[.[.[.[.[.[.[.",
"[.[.[.[.[.[.[.[.[.[.[.[.[.[.[.[.[.[.[.[.[.[.[.[.[.[.[.[.[.[.[.[.[.[.[.[.[.[.[.[.[.[.[.[.[.[.[.[.[.[.[.[.[.[.[.[.[.[.[.[.[.[.[.[.",
"[.[.[.[.[.[.[.[.[.[.[.[.[.[.[.[.[.[.[.[.[.[.[.[.[.[.[.[.[.[.[.[.[.[.[.[.[.[.[.[.[.[.[.[.[.[.[.[.[.[.[.[.[.[.[.[.[.[.[.[.[.[.[.[.",
"[.[.[.[.[.[.[.[.[.[.[.[.[.[.[.[.[.[.[.[.[.[.[.[.[.[.[.[.[.[.[.[.[.[.[.[.[.[.[.[.[.[.[.[.[.[.[.[.[.[.[.[.[.[.[.[.[.[.[.[.[.[.[.[.",
"[.[.[.[.[.[.[.[.[.[.[.[.[.[.[.[.[.[.[.[.[.[.[.[.[.[.[.[.[.[.[.[.[.[.[.[.[.[.n [.[.[.[.[.[.[.[.[.[.[.[.[.[.[.[.[.[.[.[.[.[.[.[.[.",
"[.[.[.[.[.[.[.[.[.[.[.[.[.[.[.[.[.[.[.[.[.[.[.[.[.[.[.[.[.[.[.[.[.[.[.[.[.n n n [.[.[.[.[.[.[.[.[.[.[.[.[.[.[.[.[.[.[.[.[.[.[.[.",
"[.[.[.[.[.[.[.[.[.[.[.[.[.[.[.[.[.[.[.[.[.[.[.[.[.[.b n P b b P n n b b b -.b b b [.[.[.[.[.[.[.[.[.[.[.[.[.[.[.[.[.[.[.[.[.[.[.",
"[.[.[.[.[.[.[.[.[.n b [.[.[.[.[.[.[.[.[.[.[.[.[.b b P n b b b b n n b P b n b b b P [.[.[.[.[.[.[.[.[.[.[.[.[.[.[.[.[.[.[.[.[.[.",
"[.[.[.[.[.[.[.n n n b b P [.[.[.[.[.[.[.[.[.[.n b P b b b b b b b b b b b b b b b n n [.[.[.[.b n n [.[.[.[.[.[.[.[.[.[.[.[.[.[.",
"[.[.[.[.[.[.[.n n n b L b b [.[.[.[.[.[.[.[.n n b b b b P b b b b P b n b P b b b n n n n b P n n n n n [.[.[.[.[.[.[.[.[.[.[.[.",
"[.[.[.[.[.[.[.n b b b b b P b b [.[.[.[.[.[.P b b n b P b b b n b P n n b P b b P b b n b -.n b b b b b b b [.[.[.[.[.[.[.[.[.[.",
"[.[.[.[.[.[.[.[.b P b b b b b b b P [.[.[.[.b n n n b b b b b P b b n n b b -.b b b b b b b n n b P b n P b n n [.[.[.[.[.[.[.[.",
"[.[.[.[.[.[.[.[.b P b P n n P b b b n [.[.[.b b b b b n b b n n b [.[.[.[.n n b b b b b b b P [.[.[.P b b b b n n [.[.[.[.[.[.[.",
"[.[.[.[.[.[.[.[.b b n n n b b b n n n [.[.[.b b P b b b b b n n [.[.[.[.[.[.n n P b b P b b [.[.[.[.b b b P b n n n [.[.[.[.[.[.",
"[.[.[.[.n n b P P b b P b b b b b b P n f g h l x b b b b x z j d u 5 3 u s g j k k k h g p i 6 u p g j b b P b b P [.[.[.[.[.[.",
"[.[.[.b n n b b b b b b b b n n P b b b h h h k v x x b b x z j d u u u u s d g h h g f p u 5 5 p d g j b b b b b b P [.[.[.[.[.",
"[.[.n n b b b b b b n P P b b P b b P b h g h j k z x b x x l k g s s p s g g j j g f d i u 5 6 u d g g b P b b b b b [.[.[.[.[.",
"[.[.n n -.b b P b n n [.[.[.[.[.b b h g f f f g j k B B B B l j g f d d g g j k j g f d i i i i d g h j b b P b b P b [.[.[.[.[.",
"[.[.b n b b b b b [.[.[.5 5 u p d f f d p p p p f h G F D F v j g g -.P -.n -.n -.n -.-.-.-.-.-.b b b b j k k l b n n [.[.[.[.[.",
"[.[.b n b b b n b [.[.[.< > 3 u p d d p i 6 7 6 9 s $.m H H j h g d -.-.P P P -.-.-.-.-.-.-.-.-.b b b b k j k k b n n [.[.[.[.[.",
"[.[.[.n b -.P b P [.[.[.3 3 3 5 i s s i 7 2 , , 2 7 O.@.#.#.f f d d -.P -.-.-.-.-.-.-.-.-.-.-.-.b b b b j j j j P b n [.[.[.[.[.",
"[.[.[.b b b b b b b [.[.p u 5 5 i p p 9 4 , o.o.X.X... .| } d s p p s d f f p d d f g g g g P -.b x b x g g g j b b n [.[.[.[.[.",
"[.[.[.[.b b P b h h h g b x b b b b i i 4 , o.X.X.+... .| | s s p p d d d d d s d g g j k j P P P P P -.b b b b k k g s [.[.[.[.",
"[.[.[.[.[.[.[.b h k j k b b b x b x s i 9 9 +.+.O.O.| | | | s s p f g g f d d d f g j l v v P P P P P P b b x b j g g p [.[.[.[.",
"[.[.[.[.[.[.[.[.h j k k b b b b b x s s a a @.$.#.m [ { } } a a f f g g g f f g g k k k z x P P b -.-.-.b x x b j g d u [.[.[.[.",
"[.[.[.[.[.[.[.[.g j k l b b x b b L s f f f _ _ _ ( _ _ [ } B.V.n.c.x.x.c.c.c.x.u.y.9.9.6.6.x x x l b P b b b b g d u 3 [.[.[.[.",
"[.[.[.[.# < 5 u b b b b b n -.-.P -.d g j v / / W W / / _ [ m.V.n.c.c.c.c.v.c.u.y.6.6.<.6.6.x x x x P b P P P P b b x b +       ",
"[.[.[.[.X > 3 6 b b b b n -.b -.-.-.f j v z W W E I W / ( ] v.n.n.v.n.n.m.n.x.i.9.>.^ ^ >.4.x x x x P -.P P -.-.b x b x X       ",
"[.[.[.[.X + > 1 x b b b -.b -.-.-.-.g j z x W E E I E W / ) x.v.n.n.m.B.B.m.c.y.6.^ ! 4.4.>.l x l l -.b P P -.-.x x x b         ",
"[.[.[.[.  X + > b x x b -.P j j g g ] _ ~ W ^ ! ! ~ y.s.N.D.H.U.T.W.!.~.^.Q.U.D.f.9.<.<.8.p.x l k j -.-.P -.-.-.x b x b         ",
"        x b b x ;.;.;.;.-.-.g g j j _ ( ~ ~ >.! ! ^ p.f.Z.F.H.U.T.T.Q.~.~.Q.I.S.s.e.<.<.1.r.x l k k n -.P -.-.-.;.;.:.:.        ",
"        x x x x ;.;.;.;.;.;.h k x z _ ( / E >.^ ^ >.f.N.S.G.I.Y.T.W.Q.~.Q.T.I.S.s.e.<.<.1.r.x z k h -.-.-.-.;.;.;.;.:.:.        ",
"        b x b x ;.;.;.;.;.;.b b 4.Q 1.) / / 6.>.>.<.N.A.F.H.U.T.Q.!.!.~.!.T.I.D.b.r.e.1.e.t.x z k j n -.-.;.;.;.;.:.:.:.        ",
"        L x x b :.:.;.;.-.;.:.:.5.3.q.y.y.9.6.6.6.7.A.D.J.I.g f d a i i i s g j z z b c c x x z k j -.-.-.;.;.:.:.:.:.:.        ",
"        :.:.:.:.:.:.:.:.l.l.l.k.h.g.g.q.w.u.y.w.0.w.G.J.K.I.h f d i 9 9 6 9 s f h v v z z z z z k h f u ;.;.:.:.:.:.:.:.        ",
"        :.:.:.:.:.:.:.:.l.l.l.l.k.k.h.j.w.z.z.u.z.z.I.U.U.U.h h g s 9 7 3 2 7 9 s d g h h k k k h g u 5 ;.;.:.:.:.:.:.:.        ",
"        :.:.:.:.:.:.:.:.l.l.l.k.l.k.h.k.6.i.i.u.z.v.Q.!.Q.T.h h h d i 9 2 * * 2 4 7 6 a s f g g f p 6 < ;.:.:.:.:.:.:.:.        ",
"        :.:.:.:.:.:.:.:.l.l.l.k.l.l.l.l.E ! ^ 6.w.z.Q.(.^.Q.R.Y.U.W.~._.'.].o @ * , '.`.(.U.u u u 5 < # :.:.:.:.:.:.:.:.        ",
"        :.:.:.:.b -.b b b b b b L n b L L P L P q Y P.R.(.).~.R.W.Q.^._.'.'.1 1 4 4 _.^.L.M.> 1 < > # X b b n n :.:.:.:.        ",
"        :.:.:.:.b b b b b n b b n n b L b b b b X ; T M.L.~.(./.^.^.)._.).(.d f g f K.S.' U + # # X X   b P b n :.:.:.:.        ",
"        :.:.:.:.P b b b P b x b b b L b P b b b     - r ' C.T.~.(.(.(.Q.Y.G.l x x b 8.2.0 o X X X       b P b b :.:.:.:.        ",
"        :.:.:.:.b n b b b b b b b n b b b b b L         = w Y ` x.v.Y.J.f.7.,.E I Q L P               X b b b b :.:.:.:.        ",
"        b b x b b b b b P b b b n b b b b b P b           X - 0 ^ 7.Z.s.2.L n n n n b b b b b b n b n n P b b P x x b x         ",
"        x x x x b P -.b b n b b b b b -.b b b b               X L E <.~ Q n n n n n b n n n n n b l b b b b b b b b x x         ",
"        x b b x n b b b b b -.b P b b b P b b P                 L L P Q 4.I P I P I Q I P E L x l k n b b b b b x b x b         ",
"        x x b x b b b -.b b b b b b b b b b b b                 L L L C C Z A A A J Z Z A B x b b x b b P b b b x x x b         ",
"[.[.[.[.        b x x x b x x b n n n b P b b b b n b b L L L n n V W D G G *.K *.=.H #.#.H x b x l x b x b x x         [.[.[.[.",
"[.[.[.[.        b x b x x b b x b b n b b b P b b n b P L L n V C B H #.@.$.*.J A K #.%.@.B L b b x x x x b b x         [.[.[.[.",
"[.[.[.[.        x x b x b x x x b b n b b b b b n P P E W / B Z B B F H $.#.J L b C Z S S V L b b x b x b x x x         [.[.[.[.",
"[.[.[.[.        x b c N N M V x b b b n b b b P n b L Z S S W I R n L L W ~ L P n n n I Q b b L x x b x x x b b         [.[.[.[.",
"[.[.[.[.[.[.[.[.            . O b x b b b L n n b n L b V C L n n n n n n L b b n b b P L x x L X               [.[.[.[.[.[.[.[.",
"[.[.[.[.[.[.[.[.      . .       x b x x b b n n b b b b b n P P L L n n b L b b n n b b x x x x                 [.[.[.[.[.[.[.[.",
"[.[.[.[.[.[.[.[.      . O O .   b x x b b L n n b n b b b n n P W ~ R n P b b b b b b n x b l g                 [.[.[.[.[.[.[.[.",
"[.[.[.[.[.[.[.[.      O : : .   x x b x b b n P P b b L n n n b L ~ _ E P I I P P P b b x L j k                 [.[.[.[.[.[.[.[.",
"[.[.[.[.[.[.[.[.[.[.[.[.[.[.[.[.                o o X             = 0 w t t w =         X 8     [.[.[.[.[.[.[.[.[.[.[.[.[.[.[.[.",
"[.[.[.[.[.[.[.[.[.[.[.[.[.[.[.[.                                    X % = = % X     X o o X     [.[.[.[.[.[.[.[.[.[.[.[.[.[.[.[.",
"[.[.[.[.[.[.[.[.[.[.[.[.[.[.[.[.                          o       & 8 = % % o X X     X         [.[.[.[.[.[.[.[.[.[.[.[.[.[.[.[.",
"[.[.[.[.[.[.[.[.[.[.[.[.[.[.[.[.                              X = ;                             [.[.[.[.[.[.[.[.[.[.[.[.[.[.[.[.",
"[.[.[.[.[.[.[.[.[.[.[.[.[.[.[.[.[.[.[.[.[.[.[.[.[.[.[.[.[.[.[.[.[.[.[.[.[.[.[.[.[.[.[.[.[.[.[.[.[.[.[.[.[.[.[.[.[.[.[.[.[.[.[.[.",
"[.[.[.[.[.[.[.[.[.[.[.[.[.[.[.[.[.[.[.[.[.[.[.[.[.[.[.[.[.[.[.[.[.[.[.[.[.[.[.[.[.[.[.[.[.[.[.[.[.[.[.[.[.[.[.[.[.[.[.[.[.[.[.[.",
"[.[.[.[.[.[.[.[.[.[.[.[.[.[.[.[.[.[.[.[.[.[.[.[.[.[.[.[.[.[.[.[.[.[.[.[.[.[.[.[.[.[.[.[.[.[.[.[.[.[.[.[.[.[.[.[.[.[.[.[.[.[.[.[.",
"[.[.[.[.[.[.[.[.[.[.[.[.[.[.[.[.[.[.[.[.[.[.[.[.[.[.[.[.[.[.[.[.[.[.[.[.[.[.[.[.[.[.[.[.[.[.[.[.[.[.[.[.[.[.[.[.[.[.[.[.[.[.[.[."
};
