/* XPM */
static char *result[] = {
/* columns rows colors chars-per-pixel */
"64 64 184 2 ",
"   c black",
".  c #010101",
"X  c #010102",
"o  c #020202",
"O  c #050000",
"+  c #040405",
"@  c #050405",
"#  c #050506",
"$  c #060506",
"%  c #060607",
"&  c #0B0101",
"*  c #0F0101",
"=  c #060608",
"-  c #070B09",
";  c #080C0A",
":  c #080F0A",
">  c #130202",
",  c #160202",
"<  c #1E0303",
"1  c #09110C",
"2  c #0B150D",
"3  c #19181A",
"4  c #200404",
"5  c #260505",
"6  c #122515",
"7  c #17351B",
"8  c #18301B",
"9  c #18321C",
"0  c #18381D",
"q  c #193A1E",
"w  c #272428",
"e  c #2E2B2F",
"r  c #3E3B3F",
"t  c #470F0F",
"y  c #581515",
"u  c #741F1F",
"i  c #1E4423",
"p  c #2A5E31",
"a  c #2F5B35",
"s  c #2B6032",
"d  c #2C6133",
"f  c #2D6334",
"g  c #2E6535",
"h  c #2F6736",
"j  c #2F6836",
"k  c #306B38",
"l  c #316B38",
"z  c #316B39",
"x  c #316C39",
"c  c #326D39",
"v  c #326D3A",
"b  c #336F3B",
"n  c #3A6F3B",
"m  c #3B6F3B",
"M  c #33703B",
"N  c #34703B",
"B  c #35703B",
"V  c #34713B",
"C  c #37703B",
"Z  c #34703C",
"A  c #35713D",
"S  c #34723C",
"D  c #35743D",
"F  c #36743D",
"G  c #36753E",
"H  c #36763E",
"J  c #37763F",
"K  c #37773F",
"L  c #38773F",
"P  c #39773F",
"I  c #3A763F",
"U  c #3B763F",
"Y  c #3B773F",
"T  c #3D763F",
"R  c #3D773F",
"E  c #436D3B",
"W  c #516A3A",
"Q  c #43753E",
"!  c #45743E",
"~  c #4A733E",
"^  c #4B733E",
"/  c #4D723E",
"(  c #48743E",
")  c #4B773E",
"_  c #55703D",
"`  c #6F673B",
"'  c #676A3C",
"]  c #72653B",
"[  c #73653B",
"{  c #70663B",
"}  c #7D603A",
"|  c #60763D",
" . c #64763C",
".. c #6C763C",
"X. c #3A6F41",
"o. c #397243",
"O. c #387740",
"+. c #397740",
"@. c #397741",
"#. c #3A7741",
"$. c #3A7742",
"%. c #3B7742",
"&. c #3C7743",
"*. c #3D7444",
"=. c #3C7744",
"-. c #3D7744",
";. c #3E7745",
":. c #397841",
">. c #3A7842",
",. c #3A7843",
"<. c #3D7946",
"1. c #3D7947",
"2. c #3F7A49",
"3. c #434045",
"4. c #555157",
"5. c #407747",
"6. c #407847",
"7. c #417848",
"8. c #407A4A",
"9. c #44784B",
"0. c #417B4C",
"q. c #45784C",
"w. c #47784D",
"e. c #47784E",
"r. c #447C4F",
"t. c #4A784F",
"y. c #467D52",
"u. c #4E7853",
"i. c #4F7854",
"p. c #487D54",
"a. c #645F66",
"s. c #756F77",
"d. c #717C75",
"f. c #777179",
"g. c #77727A",
"h. c #7B757E",
"j. c #802323",
"k. c #822424",
"l. c #8E2828",
"z. c #A42F2F",
"x. c #A83131",
"c. c #AA3131",
"v. c #AB3332",
"b. c #AC3232",
"n. c #AA3632",
"m. c #A53D33",
"M. c #A53E33",
"N. c #A33F34",
"B. c #A93833",
"V. c #A83933",
"C. c #9C4735",
"Z. c #964E36",
"A. c #994B36",
"S. c #8E5537",
"D. c #855B39",
"F. c #865A38",
"G. c #805E39",
"H. c #A14234",
"J. c #857539",
"K. c #9A7536",
"L. c #B37332",
"P. c #B57332",
"I. c #C4732E",
"U. c #C9722D",
"Y. c #DB7127",
"T. c #DD7127",
"R. c #DE7127",
"E. c #3E8948",
"W. c #539C5D",
"Q. c #528160",
"!. c #5DAE68",
"~. c #62B76D",
"^. c #7D7780",
"/. c #7E7D81",
"(. c #807A83",
"). c #817E84",
"_. c #827E85",
"`. c #837D86",
"'. c #837E86",
"]. c #847E87",
"[. c #9BADB7",
"{. c #FEFEFE",
"}. c white",
"|. c None",
/* pixels */
"|.|.|.|.|.|.|.|.|.|.|.|.|.|.|.|.|.|.|.|.|.|.|.|.|.|.|.|.|.|.|.|.|.|.|.|.|.|.|.|.|.|.|.|.|.|.|.|.|.|.|.|.|.|.|.|.|.|.|.|.|.|.|.|.",
"|.|.|.|.|.|.|.|.|.|.|.|.|.|.|.|.|.|.|.|.|.|.|.|.|.|.|.|.|.|.|.|.|.|.|.|.|.|.|.|.|.|.|.|.|.|.|.|.|.|.|.|.|.|.|.|.|.|.|.|.|.|.|.|.",
"|.|.|.|.|.|.|.|.|.|.|.|.|.|.|.|.|.|.|.|.|.|.|.|.|.|.|.|.|.|.|.|.|.|.|.|.|.|.|.|.|.|.|.|.|.|.|.|.|.|.|.|.|.|.|.|.|.|.|.|.|.|.|.|.",
"|.|.|.|.|.|.|.|.|.|.|.|.|.|.|.|.|.|.|.|.|.|.|.|.|.|.|.|.|.|.|.|.|.|.|.|.|.|.|.|.|.|.|.|.|.|.|.|.|.|.|.|.|.|.|.|.|.|.|.|.|.|.|.|.",
"|.|.|.|.|.|.|.|.|.|.|.|.|.|.|.|.|.|.|.|.|.|.|.|.|.|.|.|.|.|.|.|.|.|.|.|.|.|.|.|.|.|.|.|.|.|.|.|.|.|.|.|.|.|.|.|.|.|.|.|.|.|.|.|.",
"|.|.|.|.|.|.|.|.|.|.|.|.|.|.|.|.|.|.|.|.|.|.|.|.|.|.|.|.|.|.|.|.|.|.|.|.|.|.|.|.|.|.|.|.|.|.|.|.|.|.|.|.|.|.|.|.|.|.|.|.|.|.|.|.",
"|.|.|.|.|.|.|.|.|.|.|.|.|.|.|.|.|.|.|.|.|.|.|.|.|.|.|.|.|.|.|.|.|.|.|.|.|.|.|.|.|.|.|.|.|.|.|.|.|.|.|.|.|.|.|.|.|.|.|.|.|.|.|.|.",
"|.|.|.|.|.|.|.|.|.|.|.|.|.|.|.|.|.|.|.|.|.|.|.|.|.|.|.|.|.|.|.|.|.|.|.|.|.|.|.|.|.|.|.|.|.|.|.|.|.|.|.|.|.|.|.|.|.|.|.|.|.|.|.|.",
"|.|.|.|.|.|.|.|.|.|.|.|.|.|.|.|.|.|.|.|.|.|.|.|.|.|.|.|.|.|.|.|.|.|.|.|.|.|.|.|.|.|.|.|.|.|.|.|.|.|.|.|.|.|.|.|.|.|.|.|.|.|.|.|.",
"|.|.|.|.|.|.|.|.|.|.|.|.|.|.|.|.|.|.|.|.|.|.|.|.|.|.|.|.|.|.|.|.|.|.|.|.|.|.|.|.|.|.|.|.|.|.|.|.|.|.|.|.|.|.|.|.|.|.|.|.|.|.|.|.",
"|.|.|.|.|.|.|.|.|.|.|.|.|.|.|.|.|.|.|.|.|.|.|.|.|.|.|.|.|.|.|.|.|.|.|.|.|.|.|.|.|.|.|.|.|.|.|.|.|.|.|.|.|.|.|.|.|.|.|.|.|.|.|.|.",
"|.|.|.|.|.|.|.|.|.|.|.|.|.|.|.|.|.|.|.|.|.|.|.|.|.|.= = = = |.|.|.|.|.|.|.|.|.|.|.|.|.|.|.|.|.|.|.|.|.|.|.|.|.|.|.|.|.|.|.|.|.|.",
"|.|.|.|.|.|.|.|.|.|.|.|.|.|.|.|.|.|.|.|.|.|.|.|.|.|.= = = = |.|.|.|.|.|.|.|.|.|.|.|.|.|.|.|.|.|.|.|.|.|.|.|.|.|.|.|.|.|.|.|.|.|.",
"|.|.|.|.|.|.|.|.|.|.|.|.|.|.|.|.|.|.|.|.|.|.|.|.|.|.= = = = |.|.|.|.|.|.|.|.|.|.|.|.|.|.|.|.|.|.|.|.|.|.|.|.|.|.|.|.|.|.|.|.|.|.",
"|.|.|.|.|.|.|.|.|.|.|.|.|.|.|.|.|.|.|.|.|.|.|.|.|.|.= = = = |.|.|.|.|.|.|.|.|.|.|.|.|.|.|.|.|.|.|.|.|.|.|.|.|.|.|.|.|.|.|.|.|.|.",
"|.|.|.|.|.|.|.|.|.|.|.|.|.|.|.|.|.|.= = = = = = = = b.b.b.b.= = = = |.|.|.|.|.|.|.|.|.|.|.|.|.|.|.|.|.|.|.|.|.|.|.|.|.|.|.|.|.|.",
"|.|.|.|.|.|.|.|.|.|.|.|.|.|.|.|.|.|.= = = = = = = = b.b.b.b.= = = =                                     |.|.|.|.|.|.|.|.|.|.|.|.",
"|.|.|.|.|.|.|.|.|.|.|.|.|.|.|.|.|.|.= = = = = = = = b.b.b.b.= = = =                                     |.|.|.|.|.|.|.|.|.|.|.|.",
"|.|.|.|.|.|.|.|.|.|.|.|.|.|.|.|.|.|.= = = = = = = = b.b.b.b.= = = =                                     |.|.|.|.|.|.|.|.|.|.|.|.",
"|.|.|.|.|.|.|.|.|.|.|.|.|.|.|.|.|.|.= = = = b.b.b.b.].].].].= = = = = = = = = = = = = = = =             |.|.|.|.|.|.|.|.|.|.|.|.",
"|.|.|.|.|.|.|.|.|.|.|.|.            = = = = b.b.b.b.].].].].= = = = = = = = = = = = = = = = E.E.M M M M         |.|.|.|.|.|.|.|.",
"|.|.|.|.|.|.|.|.|.|.|.|.            = = = = b.b.b.b.].].].].= = = = = = = = = = = = = = = = E.E.M M M M         |.|.|.|.|.|.|.|.",
"|.|.|.|.|.|.|.|.|.|.|.|.            = = = = b.b.b.b.].].].].= = = = = = = = = = = = = = = = E.E.M M M M         |.|.|.|.|.|.|.|.",
"|.|.|.|.|.|.|.|.|.|.|.|.            = = = = ].].].].].].].].[.[.[.[.[.[.[.[.[.[.[.[.[.[.[.[.= = = = M M         |.|.|.|.|.|.|.|.",
"|.|.|.|.|.|.|.|.        M M M M M M = = = = ].].].].].].].].[.[.[.[.[.[.[.[.[.[.[.[.[.[.[.[.= = = = E.E.M M M M         |.|.|.|.",
"|.|.|.|.|.|.|.|.        M M M M M M = = = = ].].].].].].].].[.[.[.[.[.[.[.[.[.[.[.[.[.[.[.[.= = = = E.E.M M M M         |.|.|.|.",
"|.|.|.|.|.|.|.|.        M M M M M M = = = = ].].].].].].].].[.[.[.[.[.[.[.[.[.[.[.[.[.[.[.[.= = = = E.E.M M M M         |.|.|.|.",
"|.|.|.|.|.|.|.|.        M M = = = = ].].].].[.[.[.[.}.}.}.}.}.}.}.}.}.}.}.}.}.}.}.}.}.}.}.}.= = = = E.E.M M M M         |.|.|.|.",
"|.|.|.|.        M M M M E.E.= = = = ].].].].[.[.[.[.}.}.}.}.}.}.}.}.}.}.}.}.}.}.}.}.}.}.}.}.= = = = E.E.E.E.E.E.M M M M         ",
"|.|.|.|.        M M M M E.E.= = = = ].].].].[.[.[.[.}.}.}.}.}.}.}.}.}.}.}.}.}.}.}.}.}.}.}.}.= = = = E.E.E.E.E.E.M M M M         ",
"|.|.|.|.        M M M M E.E.= = = = ].].].].[.[.[.[.}.}.}.}.}.}.}.}.}.}.}.}.}.}.}.}.}.}.}.}.= = = = E.E.E.E.E.E.M M M M         ",
"|.|.|.|.        M M M M E.E.= = = = [.[.[.[.[.[.[.[.}.}.}.}.= = = = = = = = = = = = = = = = = = = = E.E.E.E.E.E.M M M M         ",
"        M M M M E.E.E.E.E.E.= = = = [.[.[.[.[.[.[.[.}.}.}.}.= = = = = = = = = = = = = = = = = = = = E.E.E.E.E.E.E.E.E.E.        ",
"        M M M M E.E.E.E.E.E.= = = = [.[.[.[.[.[.[.[.}.}.}.}.= = = = = = = = = = = = = = = = = = = = E.E.E.E.E.E.E.E.E.E.        ",
"        M M M M E.E.E.E.E.E.= = = = [.[.[.[.[.[.[.[.}.}.}.}.= = = = = = = = = = = = = = = = = = = = E.E.E.E.E.E.E.E.E.E.        ",
"        M M M M E.E.E.E.E.E.= = = = [.[.[.[.[.[.[.[.}.}.}.}.}.}.}.}.}.}.}.}.= = = = }.}.}.}.= = = = E.E.E.E.E.E.E.E.E.E.        ",
"        E.E.E.E.E.E.E.E.~.~.= = = = [.[.[.[.[.[.[.[.}.}.}.}.}.}.}.}.}.}.}.}.= = = = }.}.}.}.= = = =     E.E.E.E.E.E.E.E.        ",
"        E.E.E.E.E.E.E.E.~.~.6 2 ; = [.[.[.[.[.[.[.[.}.}.}.}.}.}.}.}.}.}.}.}.= = = = }.}.}.}.= = = =     E.E.E.E.E.E.E.E.        ",
"        E.E.E.E.E.E.E.E.~.~.*.a 8 1 [.[.[.[.[.[.[.[.}.}.}.}.}.}.}.}.}.}.}.}.= = = = }.}.}.}.= = = =     E.E.E.E.E.E.E.E.        ",
"        E.E.E.E.E.E.E.E.~.~.!.W.X.9 ].].].].[.[.[.[.[.[.[.[.[.[.[.[.}.}.}.}.}.}.}.}.}.}.}.}.= = = =     E.E.E.E.E.E.E.E.        ",
"        E.E.E.E.K K K K K K K J l i '.].].].[.[.[.[.[.[.[.[.[.[.[.[.}.}.}.}.}.}.}.}.}.}.}.}.= = = =     K K K K E.E.E.E.        ",
"        E.E.E.E.K K K K K K K K J d /.].].].[.[.[.[.[.[.[.[.[.[.[.[.}.}.}.}.}.}.}.}.}.}.}.}.= = = %     K K K K E.E.E.E.        ",
"        E.E.E.E.K K K K K K K K K V d.).].].[.[.[.[.[.[.[.[.[.[.[.[.}.}.}.}.}.}.}.}.}.}.}.{.% # + +     K K K K E.E.E.E.        ",
"        E.E.E.E.K K K K K K K K K K g q : - _.'.`.].].].].].b.b.b.b.b.b.b.b.R.Y.Y.T.b.b.b.z.+ o . X     K K K K E.E.E.E.        ",
"        M M M M K K K K K K K K K K G p 7 0 d.d.f.(.].].].].b.b.b.v.v.b.b.V.U.P.L.I.N.n.V.S.c H K D K K K K K K M M M M         ",
"        M M M M K K K K K K K K K K K S f h q.9.3.a.h.`.].`.c.x.M.H.H.m.B.C.K. .| J.F.A.Z.' H K K G K K K K K K M M M M         ",
"        M M M M K K K K K K K K K K K K G H K K $ w 4.s.^.g.l.k.} [ ] G.S.D...R Y ) _ ` { ! K K K J K K K K K K M M M M         ",
"        M M M M K K ! ^ / ( Q U L K K K K K K K     < y j.u r e 7.=.&.7.e.t.5.O.L O.@.-.6.O.K K K K K K K K K K M M M M         ",
"|.|.|.|.        M M M N N N C m T T K K K K K K K K K P ~ ^ $.O.O.L L L L O.L L L K K L O.L K K M M M M M M M M         |.|.|.|.",
"|.|.|.|.        M M N B N M M M K K K K K K K K K K K K K I #.%.=.=.O.K K K K K K K K K L +.G G v k M M M M M M         |.|.|.|.",
"|.|.|.|.        M M M N m C N M K K K K K K P L K K K K K K L $.w.i.5.L K K K K K K K K K O.z s s f M M M M M M         |.|.|.|.",
"|.|.|.|.        M M M n E W B M K K K K K K L #.O.K K K K K K K =.u.Q.0.<.8.2.,.O.O.K K K ,.j h c b M M M M M M         |.|.|.|.",
"|.|.|.|.|.|.|.|.      O , 5 >   M M M M K K K L +.O.L K K K K K L %.0.r.y.p.r.,.K K K K Z o.x b                 |.|.|.|.|.|.|.|.",
"|.|.|.|.|.|.|.|.        4 t *   M M M M K K K K K L L L K K K K K K O.>.,.,.>.O.K K O.:.A Z M M                 |.|.|.|.|.|.|.|.",
"|.|.|.|.|.|.|.|.        O 4 &   M M M M K K K K K K K K L O.K K L $.1.,.>.:.:.O.O.O.K O.M M M M                 |.|.|.|.|.|.|.|.",
"|.|.|.|.|.|.|.|.                M M M M K K K K K K K K K L L O.$.;.F G H J J K K K K K M M M M                 |.|.|.|.|.|.|.|.",
"|.|.|.|.|.|.|.|.|.|.|.|.|.|.|.|.                                                                |.|.|.|.|.|.|.|.|.|.|.|.|.|.|.|.",
"|.|.|.|.|.|.|.|.|.|.|.|.|.|.|.|.                                                                |.|.|.|.|.|.|.|.|.|.|.|.|.|.|.|.",
"|.|.|.|.|.|.|.|.|.|.|.|.|.|.|.|.                                                                |.|.|.|.|.|.|.|.|.|.|.|.|.|.|.|.",
"|.|.|.|.|.|.|.|.|.|.|.|.|.|.|.|.                              @ 3 3                             |.|.|.|.|.|.|.|.|.|.|.|.|.|.|.|.",
"|.|.|.|.|.|.|.|.|.|.|.|.|.|.|.|.|.|.|.|.|.|.|.|.|.|.|.|.|.|.|.|.|.|.|.|.|.|.|.|.|.|.|.|.|.|.|.|.|.|.|.|.|.|.|.|.|.|.|.|.|.|.|.|.",
"|.|.|.|.|.|.|.|.|.|.|.|.|.|.|.|.|.|.|.|.|.|.|.|.|.|.|.|.|.|.|.|.|.|.|.|.|.|.|.|.|.|.|.|.|.|.|.|.|.|.|.|.|.|.|.|.|.|.|.|.|.|.|.|.",
"|.|.|.|.|.|.|.|.|.|.|.|.|.|.|.|.|.|.|.|.|.|.|.|.|.|.|.|.|.|.|.|.|.|.|.|.|.|.|.|.|.|.|.|.|.|.|.|.|.|.|.|.|.|.|.|.|.|.|.|.|.|.|.|.",
"|.|.|.|.|.|.|.|.|.|.|.|.|.|.|.|.|.|.|.|.|.|.|.|.|.|.|.|.|.|.|.|.|.|.|.|.|.|.|.|.|.|.|.|.|.|.|.|.|.|.|.|.|.|.|.|.|.|.|.|.|.|.|.|."
};
