/* XPM */
static char *result[] = {
/* columns rows colors chars-per-pixel */
"64 64 108 2 ",
"   c black",
".  c #000201",
"X  c #050000",
"o  c #010501",
"O  c #010702",
"+  c #020A03",
"@  c #020C03",
"#  c #030E04",
"$  c #130202",
"%  c #190202",
"&  c #1C0303",
"*  c #031004",
"=  c #041105",
"-  c #041306",
";  c #051406",
":  c #051607",
">  c #061708",
",  c #061808",
"<  c #071A09",
"1  c #071B0A",
"2  c #081C0A",
"3  c #081D0B",
"4  c #091E0B",
"5  c #091F0C",
"6  c #0A200D",
"7  c #0B230E",
"8  c #0D2510",
"9  c #0E2811",
"0  c #0E2912",
"q  c #0F2A12",
"w  c #0F2B13",
"e  c #102B13",
"r  c #112D14",
"t  c #122F15",
"y  c #122F16",
"u  c #133116",
"i  c #133317",
"p  c #143418",
"a  c #153519",
"s  c #153619",
"d  c #16371A",
"f  c #16381A",
"g  c #17391B",
"h  c #183B1C",
"j  c #193C1D",
"k  c #1A3E1E",
"l  c #1A401F",
"z  c #1B4120",
"x  c #1B4220",
"c  c #1C4220",
"v  c #1C4321",
"b  c #1D4522",
"n  c #1F4924",
"m  c #1F4925",
"M  c #214E27",
"N  c #224E27",
"B  c #224F28",
"V  c #235129",
"C  c #24532A",
"Z  c #25552B",
"A  c #26572D",
"S  c #27572D",
"D  c #27582D",
"F  c #27592E",
"G  c #28592E",
"H  c #285A2E",
"J  c #285B2F",
"K  c #295B2F",
"L  c #33703B",
"P  c #33713B",
"I  c #34713C",
"U  c #34723C",
"Y  c #34733C",
"T  c #35733D",
"R  c #35743D",
"E  c #36743D",
"W  c #36753E",
"Q  c #37773F",
"!  c #397C42",
"~  c #397D42",
"^  c #3A7E43",
"/  c #3A7F43",
"(  c #3A8043",
")  c #3A8044",
"_  c #3B8044",
"`  c #3B8144",
"'  c #3B8244",
"]  c #3B8245",
"[  c #3B8345",
"{  c #3C8345",
"}  c #3C8445",
"|  c #3C8446",
" . c #3C8546",
".. c #3D8546",
"X. c #3D8646",
"o. c #3D8647",
"O. c #3D8747",
"+. c #3D8847",
"@. c #3E8847",
"#. c #3E8848",
"$. c #3E8948",
"%. c #60B56B",
"&. c #61B56B",
"*. c #61B56C",
"=. c #61B66C",
"-. c #62B66D",
";. c #62B76D",
":. c None",
/* pixels */
":.:.:.:.:.:.:.:.:.:.:.:.:.:.:.:.:.:.:.:.:.:.:.:.:.:.:.:.:.:.:.:.:.:.:.:.:.:.:.:.:.:.:.:.:.:.:.:.:.:.:.:.:.:.:.:.:.:.:.:.:.:.:.:.",
":.:.:.:.:.:.:.:.:.:.:.:.:.:.:.:.:.:.:.:.:.:.:.:.:.:.:.:.:.:.:.:.:.:.:.:.:.:.:.:.:.:.:.:.:.:.:.:.:.:.:.:.:.:.:.:.:.:.:.:.:.:.:.:.",
":.:.:.:.:.:.:.:.:.:.:.:.:.:.:.:.:.:.:.:.:.:.:.:.:.:.:.:.:.:.:.:.:.:.:.:.:.:.:.:.:.:.:.:.:.:.:.:.:.:.:.:.:.:.:.:.:.:.:.:.:.:.:.:.",
":.:.:.:.:.:.:.:.:.:.:.:.:.:.:.:.:.Q Q Q :.:.:.:.:.:.:.:.:.:.:.:.:.:.:.Q Q Q Q Q Q :.:.:.:.:.:.:.:.:.:.:.:.:.:.:.:.:.:.:.:.:.:.:.",
":.:.:.:.:.:.:.:.:.:.:.:.:.:.:.Q Q Q Q Q Q Q Q Q Q Q Q Q Q Q Q Q Q Q Q Q Q Q Q Q Q Q :.:.:.:.:.:.:.:.:.:.:.:.:.:.:.:.:.:.:.:.:.:.",
":.:.:.:.:.:.:.:.:.:.:.:.:.:.Q Q Q Q Q Q Q Q Q Q Q Q Q Q Q Q Q Q Q Q Q Q Q Q Q Q Q Q :.:.:.Q Q Q Q :.:.:.Q Q Q :.:.:.:.:.:.:.:.:.",
":.:.:.:.:.:.:.:.Q Q Q Q Q Q Q Q Q Q Q Q Q Q Q Q Q Q Q Q Q Q Q Q Q Q Q Q Q Q Q Q Q Q :.:.:.Q Q Q Q Q Q Q Q Q Q Q Q :.:.:.:.:.:.:.",
":.:.:.:.:.:.Q Q Q Q Q Q Q Q :.Q Q Q Q Q Q Q Q Q Q Q Q Q Q Q Q Q Q Q Q :.:.:.:.Q Q Q :.:.:.Q Q Q Q Q Q Q Q Q Q Q Q Q :.:.:.:.:.:.",
":.:.:.:.:.Q Q Q Q Q Q Q Q :.:.:.:.:.Q Q Q Q Q Q Q Q Q Q Q Q Q Q Q Q :.:.:.:.:.:.:.:.:.:.:.Q Q Q Q Q Q Q Q Q Q Q Q Q :.:.:.:.:.:.",
":.:.:.:.Q Q Q Q Q Q Q Q :.:.:.:.:.:.:.:.:.:.:.:.:.:.:.:.Q Q Q Q Q :.:.:.:.:.:.:.:.:.:.:.Q Q Q Q Q Q Q Q Q Q Q Q Q Q :.:.:.:.:.:.",
":.:.:.:.Q Q Q Q Q Q Q :.:.:.:.:.:.:.:.:.:.:.:.:.:.:.:.:.:.:.:.:.:.:.:.:.:.:.:.:.:.:.:.:.:.Q Q Q Q Q Q Q Q Q Q Q Q Q :.:.:.:.:.:.",
":.:.:.:.Q Q Q Q Q Q :.:.:.:.:.:.:.:.:.:.:.:.:.:.:.:.:.:.:.:.:.:.:.:.:.:.:.:.:.:.:.:.:.:.:.:.Q Q Q Q Q Q Q Q Q Q Q Q :.:.:.:.:.:.",
":.:.:.:.Q Q Q Q Q :.:.:.:.:.:.:.:.:.:.:.:.:.:.:.:.:.:.:.:.:.:.:.:.:.:.:.:.:.:.:.:.:.:.:.:.:.:.:.Q Q Q Q Q Q Q Q Q Q :.:.:.:.:.:.",
":.:.:.Q Q Q Q Q Q :.:.:.:.:.:.:.:.:.:.:.:.:.:.:.:.:.:.:.:.:.:.:.:.:.:.:.:.:.:.:.:.:.:.:.:.:.:.:.:.:.Q Q Q Q Q Q Q Q :.:.:.:.:.:.",
":.:.Q Q Q Q Q Q Q :.:.:.:.:.:.:.:.:.:.:.:.:.:.:.:.:.:.:.:.:.:.:.:.:.:.:.:.:.:.:.:.:.:.:.:.:.:.:.:.:.:.:.Q Q Q Q Q Q :.:.:.:.:.:.",
":.:.Q Q Q Q Q Q Q :.:.:.:.:.:.:.:.:.:.:.:.:.:.:.:.:.:.:.:.:.:.:.:.:.:.:.:.:.:.:.:.:.:.:.:.:.:.:.:.:.:.:.:.Q Q Q Q Q Q :.:.:.:.:.",
":.Q Q Q Q Q Q Q Q :.:.:.:.:.:.:.:.:.:.:.                                                    . . O = 4 u :.:.Q Q Q Q Q :.:.:.:.:.",
":.Q Q Q Q Q Q Q Q :.:.:.:.:.:.:.:.:.:.:.                                                        . o @ 2 :.:.Q Q Q Q Q :.:.:.:.:.",
"Q Q Q Q Q Q Q Q Q :.:.:.:.:.:.:.:.:.:.:.                                      . .                   . @ :.:.:.Q Q Q Q Q :.:.:.:.",
":.Q Q Q Q Q Q Q Q Q :.:.:.:.:.:.:.:.:.:.                                  . o O O o .                 o :.:.:.Q Q Q Q Q :.:.:.:.",
":.Q Q Q Q Q Q Q Q Q Q :.j w 3 - # + O o L L L L $.$.$.$.$.$.$.$.$.$.$.$.$.$.#.#.#.#.$.$.$.$.$.$.L L L L * 9 v F Q Q Q Q Q :.:.:.",
":.Q Q Q Q Q Q :.:.Q Q Q B v f r 9 7 5 > L L L L $.$.$.$.$.$.$.$.$.$.$.$.$.@.O.o.o.O.#.$.$.$.$.$.L L L L # 9 x G Q Q Q Q Q :.:.:.",
":.:.Q :.:.:.:.:.:.:.:.:.D Z M b l h d t P P L L $.$.$.$.$.$.$.$.$.$.$.#.O.o. .| | X.O.#.$.$.$.$.L L L L = q b J Q Q Q Q Q :.:.:.",
":.:.:.:.:.:.:.:.:.:.:.:.C H K A C V N m U U I I O.+.#.#.#.#.$.#.#.#.O.O...} { ] { | o.@.$.$.$.$.L L L L > u n H Q Q Q Q Q :.:.:.",
":.:.:.:.:.:.:.:.+ * 3 y U T R E R R E R ( _ ` ' { |  .o.o.O.O.O.O.o. .} ] ` ` ` ' } o.@.$.$.$.$.$.$.$.$.P I U T S H J F :.:.:.:.",
":.:.:.:.:.:.:.:.  . O ; P U T R R W W W ! ~ ~ ~ ^ ( ` ] { } | | } { ' ` ( / / / ` { o.#.$.$.$.$.$.$.$.#.P I U U j k l z :.:.:.:.",
":.:.:.:.:.:.:.:.      o L P U Y T R R W ~ ~ ~ ~ ~ ~ / ( ` ] { { { ' ` ( / / / ) ` } o.#.$.$.$.$.$.$.$.#.P P P P 3 4 5 7 :.:.:.:.",
":.:.:.:.:.:.:.:.        L L P I U U T T ` ` _ ( ( ( _ ` ] { } | } { { ' ' ' ' [ {  .O.#.$.$.$.$.$.$.$.#.L L L L o o o + :.:.:.:.",
":.:.:.:.        L L L L $.$.$.#.+.O.o.X... . .| | } |  ...o.o.O.o.X... . ...X.X.o.O.O.#.$.$.$.$.$.$.$.$.$.$.$.$.L L L L . .     ",
":.:.:.:.        L L L L $.$.$.$.$.#.#.#.#.@.@.+.O.O.O.O.@.#.#.#.#.#.+.+.@.@.#.#.#.#.#.$.$.$.$.$.$.$.$.$.$.$.$.$.L L L L         ",
":.:.:.:..       L L L L $.$.$.$.$.$.$.$.$.$.$.$.$.$.$.$.$.$.$.$.$.$.$.$.$.$.$.$.$.$.$.$.$.$.$.$.$.$.$.$.$.$.$.$.L L L L         ",
":.:.:.:..       L L L L $.$.$.$.$.$.$.$.$.$.$.$.$.$.$.$.$.$.$.$.$.$.$.$.$.$.$.$.$.$.$.$.$.$.$.$.$.$.$.$.$.$.$.$.L L L L         ",
"8 8 4 = L L L L $.$.$.$.$.$.$.$.;.;.;.;.;.;.;.;.$.$.$.$.$.$.$.$.$.$.$.$.$.$.$.$.$.$.$.$.$.$.$.$.$.$.$.$.$.$.$.$.$.$.$.$.        ",
"; , > * L L L L $.$.$.$.$.$.$.$.;.;.;.;.;.;.;.;.$.$.$.$.$.$.$.$.$.$.$.$.$.$.$.$.$.$.$.$.$.$.$.$.$.$.$.$.$.$.$.$.$.$.$.$.        ",
"o O @ + L L L L $.$.$.$.$.$.$.$.;.;.;.;.;.;.;.;.$.$.$.$.$.$.$.$.$.$.$.$.$.$.$.$.$.$.$.$.$.$.$.$.$.$.$.$.$.$.$.$.$.$.$.$.        ",
"    . . L L L L $.$.$.$.$.$.$.$.;.;.;.;.;.;.;.;.$.$.$.$.$.$.$.$.$.$.$.$.$.$.$.$.$.$.$.$.$.$.$.$.$.$.$.$.$.$.$.$.$.$.$.$.        ",
"        $.$.$.$.$.$.$.$.;.;.;.;.;.;.;.;.Q Q Q Q Q Q Q Q Q Q Q Q Q Q Q Q Q Q Q Q Q Q Q Q           . . . $.$.$.$.$.$.$.$.        ",
"        $.$.$.$.$.$.$.$.;.;.;.;.;.;.;.;.Q Q Q Q Q Q Q Q Q Q Q Q Q Q Q Q Q Q Q Q Q Q Q Q         . O O o $.$.$.$.$.$.$.$.        ",
"        $.$.$.$.$.$.$.$.;.=.=.-.;.;.;.;.Q Q Q Q Q Q Q Q Q Q Q Q Q Q Q Q Q Q Q Q Q Q Q Q     . . O + O . $.$.$.$.$.$.$.$.        ",
"        $.$.$.$.$.$.$.$.;.*.%.&.*.=.;.;.Q Q Q Q Q Q Q Q Q Q Q Q Q Q Q Q Q Q Q Q Q Q Q Q . . o O O O .   $.$.$.$.$.$.$.$.        ",
"        $.$.$.$.Q Q Q Q Q Q Q Q Q Q Q Q Q Q Q Q O O o o o o o O Q Q Q Q Q Q Q Q Q Q Q Q = = * + o .     Q Q Q Q $.$.$.$.        ",
"        $.$.$.$.Q Q Q Q Q Q Q Q Q Q Q Q Q Q Q Q 7 6 6 4 3 2 2 4 Q Q Q Q Q Q Q Q Q Q Q Q 8 5 : O         Q Q Q Q $.$.$.$.        ",
"        $.$.$.$.Q Q Q Q Q Q Q Q Q Q Q Q Q Q Q Q s p i u y y u a Q Q Q Q Q Q Q Q Q Q Q Q y 7 = .         Q Q Q Q $.$.$.$.        ",
"        $.$.$.$.Q Q Q Q Q Q Q Q Q Q Q Q Q Q Q Q h g s p i a h v Q Q Q Q Q Q Q Q Q Q Q Q q , O           Q Q Q Q $.$.$.$.        ",
"        L L L L Q Q Q Q Q Q Q Q Q Q Q Q Q Q Q Q u y e 0 8 r f c Q Q Q Q Q Q Q Q Q Q Q Q Q Q Q Q Q Q Q Q Q Q Q Q L L L L         ",
"        L L L L Q Q Q Q Q Q Q Q Q Q Q Q Q Q Q Q 4 1 < ; = , 9 p Q Q Q Q Q Q Q Q Q Q Q Q Q Q Q Q Q Q Q Q Q Q Q Q L L L L         ",
"        L L L L Q Q Q Q Q Q Q Q Q Q Q Q Q Q Q Q + O .   . o - 5 Q Q Q Q Q Q Q Q Q Q Q Q Q Q Q     Q Q     Q Q Q L L L L         ",
"        L L L L Q Q Q Q Q Q Q Q Q Q Q Q Q Q Q Q             . + Q Q Q Q Q Q Q Q Q Q Q   Q Q             Q Q Q Q L L L L         ",
":.:.:.:.        L L L L L L L L Q Q Q Q Q Q Q Q Q Q Q Q Q Q Q Q Q Q Q Q Q Q     Q Q Q               L L L L L L         :.:.:.:.",
":.:.:.:.        L L L L L L L L Q Q Q Q Q Q Q Q Q Q Q Q Q Q Q       Q Q Q       Q             Q       L L L L L         :.:.:.:.",
":.:.:.:.        L L L L L L L L Q Q Q Q Q Q Q Q Q Q Q Q Q Q Q           Q     Q         Q     Q L L   L L L L L         :.:.:.:.",
":.:.:.:.        L L L L L L L L Q Q Q Q Q Q Q Q Q Q Q Q         Q               Q     Q Q     Q L L L L L L L L         :.:.:.:.",
":.:.:.:.:.:.:.:.                L L L L Q Q Q Q Q Q Q Q Q           Q       Q     Q   Q L L L L                 :.:.:.:.:.:.:.:.",
":.:.:.:.:.:.:.:.                L L L L Q Q Q Q Q Q Q Q Q         Q Q Q Q   Q Q Q Q Q Q L L L L                 :.:.:.:.:.:.:.:.",
":.:.:.:.:.:.:.:.                L L L L Q Q Q Q Q Q Q Q Q Q Q Q Q Q Q Q Q Q Q Q Q Q Q Q L L L L                 :.:.:.:.:.:.:.:.",
":.:.:.:.:.:.:.:.                L L L L Q Q Q Q Q Q Q Q Q Q Q Q Q Q Q Q Q Q Q Q Q Q Q Q L L L L                 :.:.:.:.:.:.:.:.",
":.:.:.:.:.:.:.:.:.:.:.:.:.:.:.:.                                                                :.:.:.:.:.:.:.:.:.:.:.:.:.:.:.:.",
":.:.:.:.:.:.:.:.:.:.:.:.:.:.:.:.                                                                :.:.:.:.:.:.:.:.:.:.:.:.:.:.:.:.",
":.:.:.:.:.:.:.:.:.:.:.:.:.:.:.:.$ X                                                             :.:.:.:.:.:.:.:.:.:.:.:.:.:.:.:.",
":.:.:.:.:.:.:.:.:.:.:.:.:.:.:.:.& % %                                                           :.:.:.:.:.:.:.:.:.:.:.:.:.:.:.:.",
":.:.:.:.:.:.:.:.:.:.:.:.:.:.:.:.:.:.:.:.:.:.:.:.:.:.:.:.:.:.:.:.:.:.:.:.:.:.:.:.:.:.:.:.:.:.:.:.:.:.:.:.:.:.:.:.:.:.:.:.:.:.:.:.",
":.:.:.:.:.:.:.:.:.:.:.:.:.:.:.:.:.:.:.:.:.:.:.:.:.:.:.:.:.:.:.:.:.:.:.:.:.:.:.:.:.:.:.:.:.:.:.:.:.:.:.:.:.:.:.:.:.:.:.:.:.:.:.:.",
":.:.:.:.:.:.:.:.:.:.:.:.:.:.:.:.:.:.:.:.:.:.:.:.:.:.:.:.:.:.:.:.:.:.:.:.:.:.:.:.:.:.:.:.:.:.:.:.:.:.:.:.:.:.:.:.:.:.:.:.:.:.:.:.",
":.:.:.:.:.:.:.:.:.:.:.:.:.:.:.:.:.:.:.:.:.:.:.:.:.:.:.:.:.:.:.:.:.:.:.:.:.:.:.:.:.:.:.:.:.:.:.:.:.:.:.:.:.:.:.:.:.:.:.:.:.:.:.:."
};
