/* XPM */
static char *result[] = {
/* columns rows colors chars-per-pixel */
"64 64 60 1 ",
"  c black",
". c #000201",
"X c #050000",
"o c #130202",
"O c #190202",
"+ c #1C0303",
"@ c #153519",
"# c #16371A",
"$ c #17391B",
"% c #183B1C",
"& c #183C1D",
"* c #193C1D",
"= c #1A3F1F",
"- c #1B411F",
"; c #1B4120",
": c #1B4220",
"> c #1D4522",
", c #1E4723",
"< c #1F4925",
"1 c #204A25",
"2 c #204B26",
"3 c #204C26",
"4 c #214C26",
"5 c #214D27",
"6 c #224E27",
"7 c #224F28",
"8 c #235029",
"9 c #235129",
"0 c #24522A",
"q c #24532A",
"w c #25542B",
"e c #25552B",
"r c #26562C",
"t c #26572C",
"y c #27572D",
"u c #27582D",
"i c #27592E",
"p c #285A2E",
"a c #285B2F",
"s c #295B2F",
"d c #295C30",
"f c #2A5D30",
"g c #2A5E30",
"h c #2A5E31",
"j c #2B6032",
"k c #2C6132",
"l c #2C6133",
"z c #2D6434",
"x c #33703B",
"c c #33713B",
"v c #34713C",
"b c #34723C",
"n c #34733C",
"m c #35733D",
"M c #35743D",
"N c #36753E",
"B c #37773F",
"V c #3E8948",
"C c #62B76D",
"Z c None",
/* pixels */
"ZZZZZZZZZZZZZZZZZZZZZZZZZZZZZZZZZZZZZZZZZZZZZZZZZZZZZZZZZZZZZZZZ",
"ZZZZZZZZZZZZZZZZZZZZZZZZZZZZZZZZZZZZZZZZZZZZZZZZZZZZZZZZZZZZZZZZ",
"ZZZZZZZZZZZZZZZZZZZZZZZZZZZZZZZZZZZZZZZZZZZZZZZZZZZZZZZZZZZZZZZZ",
"ZZZZZZZZZZZZZZZZZZZZZZZZZZZZZZZZZZZZZZZZZZZZZZZZZZZZZZZZZZZZZZZZ",
"ZZZZZZZZZZZZZZZZZZZZZZZZZZZZZZZZZZZZZZZZZZZZZZZZZZZZZZZZZZZZZZZZ",
"ZZZZZZZZZZZZZZZZZZZZZZZZZZZZZZZZZZZZZZZZZZZZZZZZZZZZZZZZZZZZZZZZ",
"ZZZZZZZZZZZZZZZZZZZZZZZZZZZZZZZZZZZZZZZZZZZZZZZZZZZZZZZZZZZZZZZZ",
"ZZZZZZZZZZZZZZZZZZZZZZZZZZZZZZZZZZZZZZZZZZZZZZZZZZZZZZZZZZZZZZZZ",
"ZZZZZZZZZZZZZZZZZZZZZZZZZZZZZZZZZZZZZZZZZZZZZZZZZZZZZZZZZZZZZZZZ",
"ZZZZZZZZZZZZZZZZZZZZZZZZZZZZZZZZZZZZZZZZZZZZZZZZZZZZZZZZZZZZZZZZ",
"ZZZZZZZZZZZZZZZZZZZZZZZZZZZZZZZZZZZZZZZZZZZZZZZZZZZZZZZZZZZZZZZZ",
"ZZZZZZZZZZZZZZZZZZZZZZZZZZZZZZZZZZZZZZZZZZZZZZZZZZZZZZZZZZZZZZZZ",
"ZZZZZZZZZZZZZZZZZZZZZZZZZZZZZZZZZZZZZZZZZZZZZZZZZZZZZZZZZZZZZZZZ",
"ZZZZZZZZZZZZZZZZZZZZZZZZZZZZZZZZZZZZZZZZZZZZZZZZZZZZZZZZZZZZZZZZ",
"ZZZZZZZZZZZZZZZZZZZZZZZZZZZZZZZZZZZZZZZZZZZZZZZZZZZZZZZZZZZZZZZZ",
"ZZZZZZZZZZZZZZZZZZZZZZZZZZZZZZZZZZZZZZZZZZZZZZZZZZZZZZZZZZZZZZZZ",
"ZZZZZZZZZZZZZZZZZZZZ                                ZZZZZZZZZZZZ",
"ZZZZZZZZZZZZZZZZZZZZ                                ZZZZZZZZZZZZ",
"ZZZZZZZZZZZZZZZZZZZZ                                ZZZZZZZZZZZZ",
"ZZZZZZZZZZZZZZZZZZZZ                                ZZZZZZZZZZZZ",
"ZZZZZZZZZZZZ        xxxxVVVVVVVVVVVVVVVVVVVVVVVVxxxx    ZZZZZZZZ",
"ZZZZZZZZZZZZ        xxxxVVVVVVVVVVVVVVVVVVVVVVVVxxxx    ZZZZZZZZ",
"ZZZZZZZZZZZZ        xxxxVVVVVVVVVVVVVVVVVVVVVVVVxxxx    ZZZZZZZZ",
"ZZZZZZZZZZZZ        xxxxVVVVVVVVVVVVVVVVVVVVVVVVxxxx    ZZZZZZZZ",
"ZZZZZZZZ    xxxxxxxxVVVVVVVVVVVVVVVVVVVVVVVVVVVVVVVVxxxx    ZZZZ",
"ZZZZZZZZ    xxxxxxxxVVVVVVVVVVVVVVVVVVVVVVVVVVVVVVVVxxxx    ZZZZ",
"ZZZZZZZZ    xxxxxxxxVVVVVVVVVVVVVVVVVVVVVVVVVVVVVVVVxxxx    ZZZZ",
"ZZZZZZZZ    xxxxxxxxVVVVVVVVVVVVVVVVVVVVVVVVVVVVVVVVxxxx    ZZZZ",
"ZZZZ    xxxxVVVVVVVVVVVVVVVVVVVVVVVVVVVVVVVVVVVVVVVVVVVVxxxx    ",
"ZZZZ    xxxxVVVVVVVVVVVVVVVVVVVVVVVVVVVVVVVVVVVVVVVVVVVVxxxx    ",
"ZZZZ    xxxxVVVVVVVVVVVVVVVVVVVVVVVVVVVVVVVVVVVVVVVVVVVVxxxx    ",
"ZZZZ    xxxxVVVVVVVVVVVVVVVVVVVVVVVVVVVVVVVVVVVVVVVVVVVVxxxx    ",
"    xxxxVVVVVVVVCCCCCCCCVVVVVVVVVVVVVVVVVVVVVVVVVVVVVVVVVVVV    ",
"    xxxxVVVVVVVVCCCCCCCCVVVVVVVVVVVVVVVVVVVVVVVVVVVVVVVVVVVV    ",
"    xxxxVVVVVVVVCCCCCCCCVVVVVVVVVVVVVVVVVVVVVVVVVVVVVVVVVVVV    ",
"    xxxxVVVVVVVVCCCCCCCCVVVVVVVVVVVVVVVVVVVVVVVVVVVVVVVVVVVV    ",
"    VVVVVVVVCCCCCCCCBBBBBBBBBBBBBBBBBBBBBBBB        VVVVVVVV    ",
"    VVVVVVVVCCCCCCCCBBBBBBBBBBBBBBBBBBBBBBBB        VVVVVVVV    ",
"    VVVVVVVVCCCCCCCCBBBBBBBBBBBBBBBBBBBBBBBB        VVVVVVVV    ",
"    VVVVVVVVCCCCCCCCBBBBBBBBBBBBBBBBBBBBBBBB        VVVVVVVV    ",
"    VVVVBBBBBBBBBBBBBBBB        BBBBBBBBBBBB        BBBBVVVV    ",
"    VVVVBBBBBBBBBBBBBBBB        BBBBBBBBBBBB        BBBBVVVV    ",
"    VVVVBBBBBBBBBBBBBBBB        BBBBBBBBBBBB        BBBBVVVV    ",
"    VVVVBBBBBBBBBBBBBBBB        BBBBBBBBBBBB        BBBBVVVV    ",
"    xxxxBBBBBBBBBBBBBBBB        BBBBBBBBBBBBBBBBBBBBBBBBxxxx    ",
"    xxxxBBBBBBBBBBBBBBBB        BBBBBBBBBBBBBBBBBBBBBBBBxxxx    ",
"    xxxxBBBBBBBBBBBBBBBB        BBBBBBBBBBBBBBB@%BB&$BBBxxxx    ",
"    xxxxBBBBBBBBBBBBBBBB        BBBBBBBBBBB@BB7u96rwBBBBxxxx    ",
"ZZZZ    xxxxxxxxBBBBBBBBBBBBBBBBBBBBBB>1BBB32qdfwuNMbcxx    ZZZZ",
"ZZZZ    xxxxxxxxBBBBBBBBBBBBBBB#=:BBB29wBr78rpiBqrrnvxxx    ZZZZ",
"ZZZZ    xxxxxxxxBBBBBBBBBBBBBBB1qsfsBruBhhsuBt9Bmb#cxxxx    ZZZZ",
"ZZZZ    xxxxxxxxBBBBBBBBBBBB*,0uBjzlgiapBpsBB4;Bcxxxxxxx    ZZZZ",
"ZZZZZZZZ        xxxxBBBBBBBBBykjruBde5B24B6Bbvcx.       ZZZZZZZZ",
"ZZZZZZZZ        xxxxBBBBBBBBB<q5-BBBB#BBBBBBxxxx        ZZZZZZZZ",
"ZZZZZZZZ        xxxxBBBBBBBBBBBBBBBBBBBBBBBBxxxx        ZZZZZZZZ",
"ZZZZZZZZ        xxxxBBBBBBBBBBBBBBBBBBBBBBBBxxxx        ZZZZZZZZ",
"ZZZZZZZZZZZZZZZZ                                ZZZZZZZZZZZZZZZZ",
"ZZZZZZZZZZZZZZZZ                                ZZZZZZZZZZZZZZZZ",
"ZZZZZZZZZZZZZZZZoX                              ZZZZZZZZZZZZZZZZ",
"ZZZZZZZZZZZZZZZZ+OO                             ZZZZZZZZZZZZZZZZ",
"ZZZZZZZZZZZZZZZZZZZZZZZZZZZZZZZZZZZZZZZZZZZZZZZZZZZZZZZZZZZZZZZZ",
"ZZZZZZZZZZZZZZZZZZZZZZZZZZZZZZZZZZZZZZZZZZZZZZZZZZZZZZZZZZZZZZZZ",
"ZZZZZZZZZZZZZZZZZZZZZZZZZZZZZZZZZZZZZZZZZZZZZZZZZZZZZZZZZZZZZZZZ",
"ZZZZZZZZZZZZZZZZZZZZZZZZZZZZZZZZZZZZZZZZZZZZZZZZZZZZZZZZZZZZZZZZ"
};
