/* XPM */
static char *result[] = {
/* columns rows colors chars-per-pixel */
"64 64 191 2 ",
"   c black",
".  c #010101",
"X  c #010102",
"o  c #020202",
"O  c #020203",
"+  c #050000",
"@  c #040304",
"#  c #040405",
"$  c #050405",
"%  c #050506",
"&  c #060506",
"*  c #060607",
"=  c #0B0101",
"-  c #0F0101",
";  c #060608",
":  c #070B09",
">  c #0A090A",
",  c #080C0A",
"<  c #080F0A",
"1  c #0E0D0F",
"2  c #1E0303",
"3  c #09110C",
"4  c #0B1A0F",
"5  c #110F11",
"6  c #131113",
"7  c #19181A",
"8  c #200404",
"9  c #320808",
"0  c #350909",
"q  c #17351B",
"w  c #18301B",
"e  c #18321C",
"r  c #18381D",
"t  c #193A1E",
"y  c #272428",
"u  c #2E2B2F",
"i  c #3E3B3F",
"p  c #581515",
"a  c #5C1616",
"s  c #741F1F",
"d  c #2A5E31",
"f  c #2F5B35",
"g  c #2B6032",
"h  c #2D6334",
"j  c #2E6535",
"k  c #2F6736",
"l  c #2F6836",
"z  c #316B39",
"x  c #326D39",
"c  c #336F3B",
"v  c #376B3E",
"b  c #386F3B",
"n  c #396F3B",
"m  c #3A6F3B",
"M  c #3B6F3B",
"N  c #3D6E3B",
"B  c #33703B",
"V  c #34703B",
"C  c #35703B",
"Z  c #34713B",
"A  c #37703B",
"S  c #34713C",
"D  c #34723C",
"F  c #35733D",
"G  c #36743D",
"H  c #36753E",
"J  c #36763E",
"K  c #37763F",
"L  c #37773F",
"P  c #38773F",
"I  c #39773F",
"U  c #3A763F",
"Y  c #3B763F",
"T  c #3B773F",
"R  c #3D763F",
"E  c #3D773F",
"W  c #3E763F",
"Q  c #436D3B",
"!  c #406E3B",
"~  c #516A3A",
"^  c #55693A",
"/  c #43753E",
"(  c #45743E",
")  c #4B733E",
"_  c #4D723E",
"`  c #48743E",
"'  c #4B773E",
"]  c #55703D",
"[  c #6F673B",
"{  c #72653B",
"}  c #73653B",
"|  c #70663B",
" . c #7D603A",
".. c #60763D",
"X. c #64763C",
"o. c #6C763C",
"O. c #3A6F41",
"+. c #387740",
"@. c #397740",
"#. c #397741",
"$. c #3A7741",
"%. c #3A7742",
"&. c #3B7742",
"*. c #3C7743",
"=. c #3D7444",
"-. c #3C7744",
";. c #3D7744",
":. c #3E7745",
">. c #397841",
",. c #3A7842",
"<. c #3A7843",
"1. c #3D7946",
"2. c #3D7947",
"3. c #3F7A49",
"4. c #434045",
"5. c #555157",
"6. c #407747",
"7. c #407847",
"8. c #417848",
"9. c #407A4A",
"0. c #44784B",
"q. c #417B4C",
"w. c #45784C",
"e. c #47784D",
"r. c #47784E",
"t. c #447C4F",
"y. c #4A784F",
"u. c #467D52",
"i. c #4E7853",
"p. c #4F7854",
"a. c #487D54",
"s. c #645F66",
"d. c #756F77",
"f. c #717C75",
"g. c #777179",
"h. c #77727A",
"j. c #7B757E",
"k. c #802323",
"l. c #822424",
"z. c #8A2626",
"x. c #8E2828",
"c. c #942A2A",
"v. c #A42F2F",
"b. c #A73030",
"n. c #A83131",
"m. c #AA3131",
"M. c #AB3332",
"N. c #AC3232",
"B. c #AA3632",
"V. c #A53D33",
"C. c #A53E33",
"Z. c #A33F34",
"A. c #A93833",
"S. c #A83933",
"D. c #9C4735",
"F. c #994B36",
"G. c #8E5537",
"H. c #855B39",
"J. c #865A38",
"K. c #805E39",
"L. c #A14234",
"P. c #857539",
"I. c #9A7536",
"U. c #B37332",
"Y. c #B57332",
"T. c #C4732E",
"R. c #C9722D",
"E. c #DB7127",
"W. c #DD7127",
"Q. c #DE7127",
"!. c #3E8948",
"~. c #509759",
"^. c #539C5D",
"/. c #528160",
"(. c #58A462",
"). c #5DAE68",
"_. c #61B66C",
"`. c #62B76D",
"'. c #7D7780",
"]. c #807A83",
"[. c #817E84",
"{. c #827E85",
"}. c #837D86",
"|. c #837E86",
" X c #847E87",
".X c #838086",
"XX c #818684",
"oX c #9BADB7",
"OX c #FEFEFE",
"+X c white",
"@X c None",
/* pixels */
"@X@X@X@X@X@X@X@X@X@X@X@X@X@X@X@X@X@X@X@X@X@X@X@X@X@X@X@X@X@X@X@X@X@X@X@X@X@X@X@X@X@X@X@X@X@X@X@X@X@X@X@X@X@X@X@X@X@X@X@X@X@X@X@X",
"@X@X@X@X@X@X@X@X@X@X@X@X@X@X@X@X@X@X@X@X@X@X@X@X@X@X@X@X@X@X@X@X@X@X@X@X@X@X@X@X@X@X@X@X@X@X@X@X@X@X@X@X@X@X@X@X@X@X@X@X@X@X@X@X",
"@X@X@X@X@X@X@X@X@X@X@X@X@X@X@X@X@X@X@X@X@X@X@X@X@X@X@X@X@X@X@X@X@X@X@X@X@X@X@X@X@X@X@X@X@X@X@X@X@X@X@X@X@X@X@X@X@X@X@X@X@X@X@X@X",
"@X@X@X@X@X@X@X@X@X@X@X@X@X@X@X@X@X@X@X@X@X@X@X@X@X@X@X@X@X@X@X@X@X@X@X@X@X@X@X@X@X@X@X@X@X@X@X@X@X@X@X@X@X@X@X@X@X@X@X@X@X@X@X@X",
"@X@X@X@X@X@X@X@X@X@X@X@X@X@X@X@X@X@X@X@X@X@X@X@X@X@X@X@X@X@X@X@X@X@X@X@X@X@X@X@X@X@X@X@X@X@X@X@X@X@X@X@X@X@X@X@X@X@X@X@X@X@X@X@X",
"@X@X@X@X@X@X@X@X@X@X@X@X@X@X@X@X@X@X@X@X@X@X@X@X@X@X@X@X@X@X@X@X@X@X@X@X@X@X@X@X@X@X@X@X@X@X@X@X@X@X@X@X@X@X@X@X@X@X@X@X@X@X@X@X",
"@X@X@X@X@X@X@X@X@X@X@X@X@X@X@X@X@X@X@X@X@X@X@X@X@X@X@X@X@X@X@X@X@X@X@X@X@X@X@X@X@X@X@X@X@X@X@X@X@X@X@X@X@X@X@X@X@X@X@X@X@X@X@X@X",
"@X@X@X@X@X@X@X@X@X@X@X@X@X@X@X@X@X@X@X@X@X@X@X@X@X@X@X@X@X@X@X@X@X@X@X@X@X@X@X@X@X@X@X@X@X@X@X@X@X@X@X@X@X@X@X@X@X@X@X@X@X@X@X@X",
"@X@X@X@X@X@X@X@X@X@X@X@X@X@X@X@X@X@X@X@X@X@X@X@X@X@X@X@X@X@X@X@X@X@X@X@X@X@X@X@X@X@X@X@X@X@X@X@X@X@X@X@X@X@X@X@X@X@X@X@X@X@X@X@X",
"@X@X@X@X@X@X@X@X@X@X@X@X@X@X@X@X@X@X@X@X@X@X@X@X@X@X; ; ; ; @X@X@X@X@X@X@X@X@X@X@X@X@X@X@X@X@X@X@X@X@X@X@X@X@X@X@X@X@X@X@X@X@X@X",
"@X@X@X@X@X@X@X@X@X@X@X@X@X@X@X@X@X@X@X@X@X@X@X@X@X@X; ; ; ; @X@X@X@X@X@X@X@X@X@X@X@X@X@X@X@X@X@X@X@X@X@X@X@X@X@X@X@X@X@X@X@X@X@X",
"@X@X@X@X@X@X@X@X@X@X@X@X@X@X@X@X@X@X@X@X@X@X@X@X@X@X; ; ; ; @X@X@X@X@X@X@X@X@X@X@X@X@X@X@X@X@X@X@X@X@X@X@X@X@X@X@X@X@X@X@X@X@X@X",
"@X@X@X@X@X@X@X@X@X@X@X@X@X@X@X@X@X@X@X@X@X@X@X@X@X@X; ; ; ; @X@X@X@X@X@X@X@X@X@X@X@X@X@X@X@X@X@X@X@X@X@X@X@X@X@X@X@X@X@X@X@X@X@X",
"@X@X@X@X@X@X@X@X@X@X@X@X@X@X@X@X@X@X; ; ; ; ; ; ; ; N.N.N.N.; ; ; ; @X@X@X@X@X@X@X@X@X@X@X@X@X@X@X@X@X@X@X@X@X@X@X@X@X@X@X@X@X@X",
"@X@X@X@X@X@X@X@X@X@X@X@X@X@X@X@X@X@X; ; ; ; ; ; ; ; N.N.N.N.; ; ; ; @X@X@X@X@X@X@X@X@X@X@X@X@X@X@X@X@X@X@X@X@X@X@X@X@X@X@X@X@X@X",
"@X@X@X@X@X@X@X@X@X@X@X@X@X@X@X@X@X@X; ; ; ; ; ; ; ; N.N.N.N.; ; ; ; @X@X@X@X@X@X@X@X@X@X@X@X@X@X@X@X@X@X@X@X@X@X@X@X@X@X@X@X@X@X",
"@X@X@X@X@X@X@X@X@X@X@X@X@X@X@X@X@X@X; ; ; ; ; ; ; ; N.N.N.N.; ; ; ;                                     @X@X@X@X@X@X@X@X@X@X@X@X",
"@X@X@X@X@X@X@X@X@X@X@X@X@X@X@X@X@X@X; ; ; ; N.N.N.N. X X X X; ; ; ; ; ; ; ; ; ; ; ; ; ; ; ;             @X@X@X@X@X@X@X@X@X@X@X@X",
"@X@X@X@X@X@X@X@X@X@X@X@X@X@X@X@X@X@X; ; ; ; N.N.N.N. X X X X; ; ; ; ; ; ; ; ; ; ; ; ; ; ; ;             @X@X@X@X@X@X@X@X@X@X@X@X",
"@X@X@X@X@X@X@X@X@X@X@X@X@X@X@X@X@X@X; ; ; ; N.N.N.N. X X X X; ; ; ; ; ; ; ; ; ; ; ; ; ; ; ;             @X@X@X@X@X@X@X@X@X@X@X@X",
"@X@X@X@X@X@X@X@X@X@X@X@X            ; ; ; ; N.N.N.N. X X X X; ; ; ; ; ; ; ; ; ; ; ; ; ; ; ; !.!.B B B B         @X@X@X@X@X@X@X@X",
"@X@X@X@X@X@X@X@X@X@X@X@X            ; ; ; ;  X X X X X X X XoXoXoXoXoXoXoXoXoXoXoXoXoXoXoXoX; ; ; ; B B         @X@X@X@X@X@X@X@X",
"@X@X@X@X@X@X@X@X@X@X@X@X            ; ; ; ;  X X X X X X X XoXoXoXoXoXoXoXoXoXoXoXoXoXoXoXoX; ; ; ; B B         @X@X@X@X@X@X@X@X",
"@X@X@X@X@X@X@X@X@X@X@X@X            ; ; ; ;  X X X X X X X XoXoXoXoXoXoXoXoXoXoXoXoXoXoXoXoX; ; ; ; B B         @X@X@X@X@X@X@X@X",
"@X@X@X@X@X@X@X@X        B B B B B B ; ; ; ;  X X X X X X X XoXoXoXoXoXoXoXoXoXoXoXoXoXoXoXoX; ; ; ; !.!.B B B B         @X@X@X@X",
"@X@X@X@X@X@X@X@X        B B ; ; ; ;  X X X XoXoXoXoX+X+X+X+X+X+X+X+X+X+X+X+X+X+X+X+X+X+X+X+X; ; ; ; !.!.B B B B         @X@X@X@X",
"@X@X@X@X@X@X@X@X        B B ; ; ; ;  X X X XoXoXoXoX+X+X+X+X+X+X+X+X+X+X+X+X+X+X+X+X+X+X+X+X; ; ; ; !.!.B B B B         @X@X@X@X",
"@X@X@X@X@X@X@X@X        B B ; ; ; ;  X X X XoXoXoXoX+X+X+X+X+X+X+X+X+X+X+X+X+X+X+X+X+X+X+X+X; ; ; ; !.!.B B B B         @X@X@X@X",
"@X@X@X@X        B B B B !.!.; ; ; ;  X X X XoXoXoXoX+X+X+X+X+X+X+X+X+X+X+X+X+X+X+X+X+X+X+X+X; ; ; ; !.!.!.!.!.!.B B B B         ",
"@X@X@X@X        B B B B !.!.; ; ; ; oXoXoXoXoXoXoXoX+X+X+X+X; ; ; ; ; ; ; ; ; ; ; ; ; ; ; ; ; ; ; ; !.!.!.!.!.!.B B B B         ",
"@X@X@X@X        B B B B !.!.; ; ; ; oXoXoXoXoXoXoXoX+X+X+X+X; ; ; ; ; ; ; ; ; ; ; ; ; ; ; ; ; ; ; ; !.!.!.!.!.!.B B B B         ",
"@X@X@X@X        B B B B !.!.; ; ; ; oXoXoXoXoXoXoXoX+X+X+X+X; ; ; ; ; ; ; ; ; ; ; ; ; ; ; ; ; ; ; ; !.!.!.!.!.!.B B B B         ",
"        B B B B !.!.!.!.!.!.; ; ; ; oXoXoXoXoXoXoXoX+X+X+X+X; ; ; ; ; ; ; ; ; ; ; ; ; ; ; ; ; ; ; ; !.!.!.!.!.!.!.!.!.!.        ",
"        B B B B !.!.!.!.!.!.; ; ; ; oXoXoXoXoXoXoXoX+X+X+X+X+X+X+X+X+X+X+X+X; ; ; ; +X+X+X+X; ; ; ; !.!.!.!.!.!.!.!.!.!.        ",
"        B B B B !.!.!.!.!.!.; ; ; ; oXoXoXoXoXoXoXoX+X+X+X+X+X+X+X+X+X+X+X+X; ; ; ; +X+X+X+X; ; ; ; !.!.!.!.!.!.!.!.!.!.        ",
"        B B B B !.!.!.!.!.!.4 < , ; oXoXoXoXoXoXoXoX+X+X+X+X+X+X+X+X+X+X+X+X; ; ; ; +X+X+X+X; ; ; ; !.!.!.!.!.!.!.!.!.!.        ",
"        !.!.!.!.!.!.!.!.`.`.=.f w 3 oXoXoXoXoXoXoXoX+X+X+X+X+X+X+X+X+X+X+X+X; ; ; ; +X+X+X+X; ; ; ;     !.!.!.!.!.!.!.!.        ",
"        !.!.!.!.!.!.!.!.`.`.).^.O.e  X X X XoXoXoXoXoXoXoXoXoXoXoXoX+X+X+X+X+X+X+X+X+X+X+X+X; ; ; ;     !.!.!.!.!.!.!.!.        ",
"        !.!.!.!.!.!.!.!.`.`.`._.(.v .X X X XoXoXoXoXoXoXoXoXoXoXoXoX+X+X+X+X+X+X+X+X+X+X+X+X; ; ; ;     !.!.!.!.!.!.!.!.        ",
"        !.!.!.!.!.!.!.!.`.`.`.`._.~.XX X X XoXoXoXoXoXoXoXoXoXoXoXoX+X+X+X+X+X+X+X+X+X+X+X+X; ; ; *     !.!.!.!.!.!.!.!.        ",
"        !.!.!.!.L L L L L L L L L Z f.[. X XoXoXoXoXoXoXoXoXoXoXoXoX+X+X+X+X+X+X+X+X+X+X+XOX* % # #     L L L L !.!.!.!.        ",
"        !.!.!.!.L L L L L L L L L L j t < : {.|.}. X X X X XN.N.N.N.N.N.N.N.Q.E.E.W.N.N.N.v.# o . X     L L L L !.!.!.!.        ",
"        !.!.!.!.L L L L L L L L L L H d q r f.f.g.]. X X X XN.N.N.M.M.N.N.S.R.Y.U.T.Z.B.b.z..           L L L L !.!.!.!.        ",
"        !.!.!.!.L L L L L L L L L L L D h k w.0.4.s.j.}. X}.m.n.C.L.L.V.A.D.I.X...P.J.F.c.a             L L L L !.!.!.!.        ",
"        B B B B L L L L L L L L L L L L H J L L & y 5.d.'.h.x.l. .} { K.G.H.o.E T ' ] [ | ( L L L K L L L L L L B B B B         ",
"        B B B B L L ( ) _ ` / Y P L L L L L L L     2 p k.s i u 8.-.*.8.r.y.6.+.P +.#.;.7.+.L L L L L L L L L L B B B B         ",
"        B B B B L L L P P P U W R R L L L L L L       = 9 0 5 & +.P P P P +.P P P L L P +.P L L L L L L L L L L B B B B         ",
"        B B B B L L P I P L L L L L L L L L L L           - 1 6 -.-.+.L L L L L L L L L P @.H H G S L L L L L L B B B B         ",
"@X@X@X@X        B B B V M A V B L L L L L L I P L L L L L L P %.e.p.6.P L L L L L L L L L +.z g g h B B B B B B         @X@X@X@X",
"@X@X@X@X        B B B m Q ~ C B L L L L L L P $.+.L L L L L L L -.i./.q.1.9.3.<.+.+.L L L <.l k x c B B B B B B         @X@X@X@X",
"@X@X@X@X        B B B V n ! b B L L L L L L L P @.+.P L L L L L P &.q.t.u.a.t.<.L L L L +.1.F K B B B B B B B B         @X@X@X@X",
"@X@X@X@X    -   B B B B N ^ A B L L L L L L L L L P P P L L L L L L +.,.<.<.,.+.L L +.>.>.+.L L B B B B B B B B         @X@X@X@X",
"@X@X@X@X@X@X@X@X        + 8 =   B B B B L L L L L L L L P +.L L P %.2.<.,.>.>.+.+.+.L +.B B B B                 @X@X@X@X@X@X@X@X",
"@X@X@X@X@X@X@X@X                B B B B L L L L L L L L L P P +.%.:.G H J K K L L L L L B B B B                 @X@X@X@X@X@X@X@X",
"@X@X@X@X@X@X@X@X                B B B B L L L L L L L L L L L L L L L L L L L L L L L L B B B B                 @X@X@X@X@X@X@X@X",
"@X@X@X@X@X@X@X@X                B B B B L L L L L L L L L L L L L L L L L L L L L L L L B B B B                 @X@X@X@X@X@X@X@X",
"@X@X@X@X@X@X@X@X@X@X@X@X@X@X@X@X                                                                @X@X@X@X@X@X@X@X@X@X@X@X@X@X@X@X",
"@X@X@X@X@X@X@X@X@X@X@X@X@X@X@X@X                              $ 7 7                             @X@X@X@X@X@X@X@X@X@X@X@X@X@X@X@X",
"@X@X@X@X@X@X@X@X@X@X@X@X@X@X@X@X                              O > 1                             @X@X@X@X@X@X@X@X@X@X@X@X@X@X@X@X",
"@X@X@X@X@X@X@X@X@X@X@X@X@X@X@X@X                                  @                             @X@X@X@X@X@X@X@X@X@X@X@X@X@X@X@X",
"@X@X@X@X@X@X@X@X@X@X@X@X@X@X@X@X@X@X@X@X@X@X@X@X@X@X@X@X@X@X@X@X@X@X@X@X@X@X@X@X@X@X@X@X@X@X@X@X@X@X@X@X@X@X@X@X@X@X@X@X@X@X@X@X",
"@X@X@X@X@X@X@X@X@X@X@X@X@X@X@X@X@X@X@X@X@X@X@X@X@X@X@X@X@X@X@X@X@X@X@X@X@X@X@X@X@X@X@X@X@X@X@X@X@X@X@X@X@X@X@X@X@X@X@X@X@X@X@X@X",
"@X@X@X@X@X@X@X@X@X@X@X@X@X@X@X@X@X@X@X@X@X@X@X@X@X@X@X@X@X@X@X@X@X@X@X@X@X@X@X@X@X@X@X@X@X@X@X@X@X@X@X@X@X@X@X@X@X@X@X@X@X@X@X@X",
"@X@X@X@X@X@X@X@X@X@X@X@X@X@X@X@X@X@X@X@X@X@X@X@X@X@X@X@X@X@X@X@X@X@X@X@X@X@X@X@X@X@X@X@X@X@X@X@X@X@X@X@X@X@X@X@X@X@X@X@X@X@X@X@X"
};
