/* XPM */
static char *result[] = {
/* columns rows colors chars-per-pixel */
"64 64 172 2 ",
"   c #000000",
".  c #0D0101",
"X  c #020A03",
"o  c #080A0B",
"O  c #1B0303",
"+  c #041306",
"@  c #061708",
"#  c #071A09",
"$  c #081D0B",
"%  c #09170C",
"&  c #0D0F11",
"*  c #110F11",
"=  c #111315",
"-  c #1A1B1E",
";  c #141A19",
":  c #2B0606",
">  c #0B230E",
",  c #0D2610",
"<  c #0F2912",
"1  c #122D16",
"2  c #122B16",
"3  c #153519",
"4  c #16391B",
"5  c #1A3D1F",
"6  c #133117",
"7  c #1A1E21",
"8  c #1A3520",
"9  c #242A2C",
"0  c #292E32",
"q  c #2C3635",
"w  c #30373A",
"e  c #410D0D",
"r  c #1A401F",
"t  c #1D4422",
"y  c #1F4924",
"u  c #214B26",
"i  c #224E28",
"p  c #27412A",
"a  c #25542B",
"s  c #27582D",
"d  c #285A2F",
"f  c #28542F",
"g  c #2A5E31",
"h  c #2C5234",
"j  c #39553C",
"k  c #2D6434",
"l  c #2F6836",
"z  c #306937",
"x  c #326C39",
"c  c #396F3B",
"v  c #36763E",
"b  c #39773F",
"n  c #7E5F39",
"m  c #426E3B",
"M  c #4A6C3A",
"N  c #5B6E3D",
"B  c #43753E",
"V  c #4B743E",
"C  c #55703D",
"Z  c #5B753D",
"A  c #6F673B",
"S  c #656B3C",
"D  c #6A693C",
"F  c #73653B",
"G  c #7C603A",
"H  c #67763D",
"J  c #7F763A",
"K  c #3F4A40",
"L  c #3E604A",
"P  c #3A7741",
"I  c #3A7C42",
"U  c #3F7A49",
"Y  c #425050",
"T  c #407747",
"R  c #407947",
"E  c #43794B",
"W  c #49794F",
"Q  c #4D6850",
"!  c #467D52",
"~  c #4C7B53",
"^  c #4C7F59",
"/  c #507956",
"(  c #547959",
")  c #59795E",
"_  c #5C6B65",
"`  c #5E7A62",
"'  c #626F63",
"]  c #667A6A",
"[  c #6A7B6E",
"{  c #6D7B71",
"}  c #717C75",
"|  c #777C7A",
" . c #7B7D7E",
".. c #A63C33",
"X. c #974D36",
"o. c #8F5437",
"O. c #845B39",
"+. c #8A5838",
"@. c #915237",
"#. c #A14334",
"$. c #8A7539",
"%. c #837539",
"&. c #917538",
"*. c #3C8345",
"=. c #3D8847",
"-. c #3E8948",
";. c #458A4D",
":. c #42864A",
">. c #4E8053",
",. c #4B8B56",
"<. c #4E805C",
"1. c #4E8B5A",
"2. c #528257",
"3. c #52825B",
"4. c #58855D",
"5. c #4A9254",
"6. c #519D5B",
"7. c #53A05D",
"8. c #558363",
"9. c #5A866A",
"0. c #5A8865",
"q. c #5F8870",
"w. c #658D69",
"e. c #6A8F6D",
"r. c #638B67",
"t. c #638A74",
"y. c #678C79",
"u. c #6A8E7D",
"i. c #6E9171",
"p. c #749577",
"a. c #769779",
"s. c #7A997D",
"d. c #778779",
"f. c #5AAB64",
"g. c #5AAA64",
"h. c #5FB36A",
"j. c #6D8F80",
"k. c #6E9082",
"l. c #719285",
"z. c #7E9B81",
"x. c #75948A",
"c. c #79978F",
"v. c #7C9993",
"b. c #838A84",
"n. c #829E84",
"m. c #889789",
"M. c #819B98",
"N. c #929892",
"B. c #85A087",
"V. c #86A188",
"C. c #8BA48D",
"Z. c #8EA690",
"A. c #93AA95",
"S. c #97AC99",
"D. c #9AAE9C",
"F. c #90A792",
"G. c #9EB19F",
"H. c #9EB2A0",
"J. c #A6ACA6",
"K. c #A3B5A5",
"L. c #A7B8A9",
"P. c #ABBBAC",
"I. c #AFBEB0",
"U. c #B4BBB5",
"Y. c #B4C2B6",
"T. c #BAC6BB",
"R. c #B6C4B8",
"E. c #BFCAC0",
"W. c #C3CCC4",
"Q. c #C7D1C8",
"!. c #D2D9D3",
"~. c None",
/* pixels */
"~.~.~.~.~.~.~.~.~.~.~.~.~.~.~.~.~.~.~.~.~.~.~.~.~.~.~.~.~.~.~.~.~.~.~.~.~.~.~.~.~.~.~.~.~.~.~.~.~.~.~.~.~.~.~.~.~.~.~.~.~.~.~.~.",
"~.~.~.~.~.~.~.~.~.~.~.~.~.~.~.~.~.~.~.~.~.~.~.~.~.~.~.~.~.~.~.~.~.~.~.~.~.~.~.~.~.~.~.~.~.~.~.~.~.~.~.~.~.~.~.~.~.~.~.~.~.~.~.~.",
"~.~.~.~.~.~.~.~.~.~.~.~.~.~.~.~.~.~.~.~.~.~.~.~.~.~.~.~.~.~.~.~.~.~.~.~.~.~.~.~.~.~.~.~.~.~.~.~.~.~.~.~.~.~.~.~.~.~.~.~.~.~.~.~.",
"~.~.~.~.~.~.~.~.~.~.~.~.~.~.~.~.~.~.~.~.~.~.~.~.~.~.~.~.~.~.~.~.~.~.~.~.~.~.~.~.~.~.~.~.~.~.~.~.~.~.~.~.~.~.~.~.~.~.~.~.~.~.~.~.",
"~.~.~.~.~.~.~.~.~.~.~.~.~.~.~.~.~.~.~.~.~.~.~.~.~.~.~.~.~.~.~.~.~.~.~.~.~.~.~.~.~.~.~.~.~.~.~.~.~.~.~.~.~.~.~.~.~.~.~.~.~.~.~.~.",
"~.~.~.~.~.~.~.~.~.~.~.~.~.~.~.~.~.I v v ~.~.~.~.~.~.~.~.~.~.~.~.~.~.~.v I v v v I ~.~.~.~.~.~.~.~.~.~.~.~.~.~.~.~.~.~.~.~.~.~.~.",
"~.~.~.~.~.~.~.~.~.~.~.~.~.~.~.v v v I v I v v v I b v v v v v v v I v v v v I b v v ~.~.~.~.~.~.~.~.~.~.~.~.~.~.~.~.~.~.~.~.~.~.",
"~.~.~.~.~.~.~.~.~.~.~.~.~.~.b b v v v v v v v v b b v v I v v v v v v v I v v v b b ~.~.~.b b b b ~.~.~.b b b ~.~.~.~.~.~.~.~.~.",
"~.~.~.~.~.~.~.~.b b v I v v v I v I v v v v I v v v v I v I v v v I v v v b v v v v ~.~.~.v v b v v v v v v v I b ~.~.~.~.~.~.~.",
"~.~.~.~.~.~.v v b b v v v v v v v v v v b *.v v I v v v v v v P v v v v v v v v v I ~.~.~.I v I v v I v I v v v b b ~.~.~.~.~.~.",
"~.~.~.~.~.v I v v v v v v v v v v v v v v b v v v v v v v v v v v b v *.v *.v v b b v ~.v v v v v v v v v v v v b v ~.~.~.~.~.~.",
"~.~.~.~.v I v v P v v P v v I v I v v v v v v v v v v v I v v b v v b b v v v v v b I v v v v v v I I v v v v v b v ~.~.~.~.~.~.",
"~.~.~.~.v v I v I v v v v v v v *.v b v v v v v v v v v v v v v v v v v v v v b v v v v v I v b v v I v v v v I b b ~.~.~.~.~.~.",
"~.~.~.~.v v v v v v v I I v v v v v v v v v I v I v v v v v P b v v I v I v v v v v v v v v *.v v v v v v I v v b I ~.~.~.~.~.~.",
"~.~.~.~.I v v v v v v v I v I v v v v v v I v v v v I v v v v v v v v v v v v b I v v I v I v v v v v v v v I v v v ~.~.~.~.~.~.",
"~.~.~.v v v v I v v v v v v v v v I v v v v I v v v v v v v P v v I ~.v v v *.b v v v v v v v v v v v I v v v v b v ~.~.~.~.~.~.",
"~.~.v v v v I v v I v v v I v v v v v v k k l x x P v v x v x l s a i y i s g k l l l l k d g d l l l l v v I v v v ~.~.~.~.~.~.",
"~.~.I v v b v v v v v v v v v I v I v v k k l l x v v v v x x k s u y y y s s g k k g g d s s d g l l x v v v v v I I ~.~.~.~.~.",
"~.I v v v b v v I v v v v I v v v v I v k k k l l x x v x x x g s i y u a s g k k g g d d a s d g k l x v I v v v I v ~.~.~.~.~.",
"~.v v v v b *.v v v v I v v v v v v l k k g g g k l N N N N l k s s u s s k k l l l k g d d d d g l l l v v v v v v v ~.~.~.~.~.",
"v v v v b v v v v I v v a a a d g k k k g d a u d g F D D D k g s a *.*.I I I v v I I I I *.I v v v v v l x v x v v I v ~.~.~.~.",
"~.v b *.v v v v v v v ~.i i i a g k k g s u r r 8 u O.n F F g d s a *.v I I I I I I I I I I *.*.v v v v l x x x b v v v ~.~.~.~.",
"~.v v v I v I v I v v v a i i a d k g d i 5 3 < 1 3 X.o.+.O.f a a u *.*.I I I I I I *.I *.*.*.I x v x v l l x x v I v v v ~.~.~.",
"~.~.v v v v v v v v v v k s a a d d d i u 3 ........ .| } { i u y y u s g g g g g g k g g d I *.v v v v g k l x v v v I v ~.~.~.",
"~.~.v v v I v v x l x l v v v v b v s a y 8 #.#.#.#. . .} } u u y u a a s s s s f d g k g k *.I v *.v *.x v v v v v v l b ~.~.~.",
"~.~.~.I v v v v x x x v v v v v b v d s a i o.o.@.@.} } } } u u u a s s s s a a f g k k l l I I *.I *.I v v v v x x x l b ~.~.~.",
"~.~.~.~.~.b v v l x v v b v v v v v k g g g n O.G n ] [ { { u u i s s g d d s s g g k l l x P P v *.*.*.v v v v l l l k b ~.~.~.",
"~.~.~.~.~.~.v v x x x x v v v v v v z z l l ( ( ( ( ) ` ] { M.M.c.l.k.k.k.k.u.y.t.9.9.9.8.8.x x x l v v v v v v l k g s ~.~.~.~.",
"~.~.~.~.i i s g v v v v b v *.v P P z z x x W W ~ W / ( ` ] v.v.c.x.l.k.k.y.y.q.9.8.^ 8.<.8.v x x x *.v *.v *.v v v v v 4 , @   ",
"~.~.~.~.y y i d v v v v I v v v I I z x x x E E T E E / ( ` x.c.c.x.l.k.u.y.q.9.^ ^ ! ! >.<.l x x l I *.v *.*.*.x v x x > @ X   ",
"~.~.~.~.t y y a v v v v v I v *.I I l x x v E T E T E W / ` j.x.l.k.k.k.k.u.q.8.^ ! :.U >.<.x l l l I I v *.I *.v x l v + X     ",
"~.~.~.~.y r r u v v v x *.v x l l l / ~ ~ W ~ ! ~ ! e.p.n.S.K.P.P.P.L.P.P.L.D.z.w.2.^ >.3.w.l l l k I I I *.*.*.v x v v         ",
"r t y y x v v x *.*.*.*.v *.l l z z / / W W ^ ! ^ ^ i.s.B.D.K.K.H.G.G.H.K.L.G.z.r.2.W W 2.w.x z k k I I *.*.*.*.=.=.-.-.        ",
"4 5 t t v x v v *.*.*.*.*.*.l l v x / / W W <.^ ^ <.s.n.Z.D.H.H.A.Z.Z.A.G.H.D.z.e.2.>.>.2.r.x l k d I *.*.*.*.=.=.-.-.-.        ",
"< 6 6 4 v x v x =.=.*.*.*.*.v v I P ~ ~ / W 8.<.^ 8.n.Z.D.H.H.D.Z.B.B.Z.A.D.S.B.i.4.2./ 4.w.x z k k I *.*.*.=.-.-.-.-.-.        ",
"+ > > > v x x v =.=.*.*.*.*.v *.;.:.,.8.9.9.8.8.8.8.Z.A.H.H.k l x x x l l l l x x v v v v x x z k d *.*.*.=.=.-.-.-.-.-.        ",
"  X + + -.-.-.-.=.=.=.=.f.7.6.5.;.;.;.1.9.t.t.q.9.q.D.G.G.D.l x x x x x l l l l z x x x x z z k k d i r =.=.-.-.-.-.-.-.        ",
"        -.-.-.-.=.=.=.=.h.f.6.5.;.;.;.,.8.y.u.u.u.u.L.K.H.Z.x x x v x x x z z l z k k g k k k k d a y 4 =.=.-.-.-.-.-.-.        ",
"        -.-.-.-.-.-.=.-.h.f.6.5.;.;.;.5.! q.t.y.k.k.Y.I.K.A.x x x v x x x x z l k d s a i a s s a y 4 < =.-.-.-.-.-.-.-.        ",
"        -.-.-.-.-.-.-.-.h.f.7.5.;.;.;.5.U E ! <.8.t.P.Y.I.K.Z.z.a.a.z.B.B.B.z l k d Q.!.!.U.t r r 4 < @ =.:.-.-.-.-.-.-.        ",
"        -.-.-.-.v v b v v v v v P b v v I P v I h L m.K.Y.Y.K.A.C.m.Z.A.A.C.z z k g T.T.J.b.6 6 < > # X v v v v -.-.-.-.        ",
"        -.-.-.-.v *.v v I v v v b v v v v v v v a f Q d.D.T.W.U.P.L.L.L.D.Z.x z z x C.s._ K > @ @ + X   v I v v -.-.-.-.        ",
"        -.-.-.-.v v v I v v v v b b v P I v v P d a a j ' N.U.W.Q.W.T.P.S.n.v v v v 2.W p 2 @ X X       v v v v -.-.-.-.        ",
"        -.-.-.-.v v v v v v v v v b b v v v v v d a i r 8 q Y _ k.k.Y.S.p.2.E I P I P b 6 > +           v I I v -.-.-.-.        ",
"        v v x v b v v v I v v v v v v v v v v I a i t 4 , % ; 9 <.8.B.i.2.b P b b b v v b b v v v v v v v I v v x x v x         ",
"        x x x x v v v v v v v I v v I v v v v v t t 3 < $ X   X P U 2.>.R b b b b v P P b b P v v l v v v v v v v v x x         ",
"        v x v x *.v v v v v v v v I v v v v v v 6 6 , $ X       P P I R >.T b I I R R I I W v x l k b b P v b v x x x v         ",
"        x x v x v v v I v v v v v v I v v v I v > @ + X         v b T B V V Z Z H Z C C C N x v v x b b v v v v x v x v         ",
"~.~.~.~.        v x x x v v x v v v I v v v v v v v v v v v v v b B C S A F $.%.%.&.n O.O.F x v x x x v x v x x         ~.~.~.~.",
"~.~.~.~.        v x v x x x x x v v v v v v b b I v b I P U B B V C F O.o.+.$.Z Z J n @.o.N P v x x x x x v x v         ~.~.~.~.",
"~.~.~.~.        x x v x x v v x v v v b v v v v b P P E ~ / N C C S S G +.O.H P P V C A A B v v x x v x v x x x         ~.~.~.~.",
"~.~.~.~.        x v c M M m m x b b v b v v v I v b P C F A ~ I I P P T W ~ I P b b P P T b P P v v x x x x v v         ~.~.~.~.",
"~.~.~.~.~.~.~.~.            . O v x v l b v b b v b I b B V P P P v v b v P v b b b v b x v x v                 ~.~.~.~.~.~.~.~.",
"~.~.~.~.~.~.~.~.      . .       x v x v v v b b v v v v b b P P U U b v P v v v b b P v P x x x                 ~.~.~.~.~.~.~.~.",
"~.~.~.~.~.~.~.~.      . O O .   x x v x v P b b v v v v b v b I E ~ U v P P v v v v v v v x k d                 ~.~.~.~.~.~.~.~.",
"~.~.~.~.~.~.~.~.      O : : .   v x x v v v P P I v P v v b v v U ~ ` R I U U I P I v v x c k k                 ~.~.~.~.~.~.~.~.",
"~.~.~.~.~.~.~.~.~.~.~.~.~.~.~.~.                o o X             * 9 0 w w 0 =           7     ~.~.~.~.~.~.~.~.~.~.~.~.~.~.~.~.",
"~.~.~.~.~.~.~.~.~.~.~.~.~.~.~.~.                  .                 X & * * & o     o o o o     ~.~.~.~.~.~.~.~.~.~.~.~.~.~.~.~.",
"~.~.~.~.~.~.~.~.~.~.~.~.~.~.~.~.                          o       * 7 = & & o   X     X         ~.~.~.~.~.~.~.~.~.~.~.~.~.~.~.~.",
"~.~.~.~.~.~.~.~.~.~.~.~.~.~.~.~.                              X = -                             ~.~.~.~.~.~.~.~.~.~.~.~.~.~.~.~.",
"~.~.~.~.~.~.~.~.~.~.~.~.~.~.~.~.~.~.~.~.~.~.~.~.~.~.~.~.~.~.~.~.~.~.~.~.~.~.~.~.~.~.~.~.~.~.~.~.~.~.~.~.~.~.~.~.~.~.~.~.~.~.~.~.",
"~.~.~.~.~.~.~.~.~.~.~.~.~.~.~.~.~.~.~.~.~.~.~.~.~.~.~.~.~.~.~.~.~.~.~.~.~.~.~.~.~.~.~.~.~.~.~.~.~.~.~.~.~.~.~.~.~.~.~.~.~.~.~.~.",
"~.~.~.~.~.~.~.~.~.~.~.~.~.~.~.~.~.~.~.~.~.~.~.~.~.~.~.~.~.~.~.~.~.~.~.~.~.~.~.~.~.~.~.~.~.~.~.~.~.~.~.~.~.~.~.~.~.~.~.~.~.~.~.~.",
"~.~.~.~.~.~.~.~.~.~.~.~.~.~.~.~.~.~.~.~.~.~.~.~.~.~.~.~.~.~.~.~.~.~.~.~.~.~.~.~.~.~.~.~.~.~.~.~.~.~.~.~.~.~.~.~.~.~.~.~.~.~.~.~."
};
