/* XPM */
static char *result[] = {
/* columns rows colors chars-per-pixel */
"64 64 152 2 ",
"   c black",
".  c gray1",
"X  c #050000",
"o  c #060506",
"O  c #060607",
"+  c #0B0101",
"@  c #060608",
"#  c #060809",
"$  c #090809",
"%  c #080C0A",
"&  c #0E0D0F",
"*  c #130202",
"=  c #1E0303",
"-  c #0C180F",
";  c #0C1A0F",
":  c #181619",
">  c #200404",
",  c #360909",
"<  c #132C17",
"1  c #17351C",
"2  c #1A3B1F",
"3  c #1B3D20",
"4  c #222023",
"5  c #333135",
"6  c #410D0D",
"7  c #4A1010",
"8  c #531414",
"9  c #681B1B",
"0  c #691B1B",
"q  c #204825",
"w  c #25532B",
"e  c #27572D",
"r  c #28582E",
"t  c #295B30",
"y  c #2B5F32",
"u  c #2F6636",
"i  c #316A38",
"p  c #336E3A",
"a  c #3D6E3B",
"s  c #33703B",
"d  c #34703B",
"f  c #35703B",
"g  c #37703B",
"h  c #34723C",
"j  c #35723C",
"k  c #35743D",
"l  c #36743D",
"z  c #36743E",
"x  c #36753E",
"c  c #36763E",
"v  c #37763F",
"b  c #37773F",
"n  c #38773F",
"m  c #39773F",
"M  c #3A763F",
"N  c #3B763F",
"B  c #3C763F",
"V  c #3D763F",
"C  c #3E763F",
"Z  c #5A6F3D",
"A  c #40753F",
"S  c #43753E",
"D  c #45743E",
"F  c #47743E",
"G  c #4B733E",
"H  c #53713D",
"J  c #51713E",
"K  c #52713E",
"L  c #50723E",
"P  c #57703D",
"I  c #686A3C",
"U  c #387640",
"Y  c #397640",
"T  c #387740",
"R  c #397741",
"E  c #3B7442",
"W  c #3B7742",
"Q  c #3B7743",
"!  c #3D7745",
"~  c #3E7745",
"^  c #397841",
"/  c #3A7842",
"(  c #3A7843",
")  c #3D7946",
"_  c #3D7947",
"`  c #3E7948",
"'  c #407747",
"]  c #407847",
"[  c #417848",
"{  c #437849",
"}  c #407A4B",
"|  c #44784A",
" . c #447C50",
".. c #457C51",
"X. c #4B7E57",
"o. c #4C7F59",
"O. c #507955",
"+. c #55795A",
"@. c #56795B",
"#. c #5E5A60",
"$. c #605B62",
"%. c #5D7A61",
"&. c #5F7A63",
"*. c #666269",
"=. c #6C676E",
"-. c #607A64",
";. c #6A7B6E",
":. c #736E76",
">. c #6C7B70",
",. c #77727A",
"<. c #757C79",
"1. c #777C7A",
"2. c #777C7B",
"3. c #787C7B",
"4. c #787D7C",
"5. c #822424",
"6. c #872525",
"7. c #922929",
"8. c #9E2D2D",
"9. c #A32F2F",
"0. c #A63030",
"q. c #AA3131",
"w. c #AB3232",
"e. c #AC3232",
"r. c #954F36",
"t. c #825D39",
"y. c #935037",
"u. c #DF7126",
"i. c #3E8948",
"p. c #4E805C",
"a. c #548262",
"s. c #548363",
"d. c #5E876F",
"f. c #62B76D",
"g. c #7D7D81",
"h. c #7E7D81",
"j. c #807D83",
"k. c #817B84",
"l. c #827C85",
"z. c #817E84",
"x. c #827E85",
"c. c #837D86",
"v. c #837E86",
"b. c #847E87",
"n. c #76958C",
"m. c #78968E",
"M. c #7E9A95",
"N. c #839D9A",
"B. c #849D9B",
"V. c #9BADB7",
"C. c white",
"Z. c None",
/* pixels */
"Z.Z.Z.Z.Z.Z.Z.Z.Z.Z.Z.Z.Z.Z.Z.Z.Z.Z.Z.Z.Z.Z.Z.Z.Z.Z.Z.Z.Z.Z.Z.Z.Z.Z.Z.Z.Z.Z.Z.Z.Z.Z.Z.Z.Z.Z.Z.Z.Z.Z.Z.Z.Z.Z.Z.Z.Z.Z.Z.Z.Z.Z.Z.Z.",
"Z.Z.Z.Z.Z.Z.Z.Z.Z.Z.Z.Z.Z.Z.Z.Z.Z.Z.Z.Z.Z.Z.Z.Z.Z.Z.Z.Z.Z.Z.Z.Z.Z.Z.Z.Z.Z.Z.Z.Z.Z.Z.Z.Z.Z.Z.Z.Z.Z.Z.Z.Z.Z.Z.Z.Z.Z.Z.Z.Z.Z.Z.Z.Z.",
"Z.Z.Z.Z.Z.Z.Z.Z.Z.Z.Z.Z.Z.Z.Z.Z.Z.Z.Z.Z.Z.Z.Z.Z.Z.Z.Z.Z.Z.Z.Z.Z.Z.Z.Z.Z.Z.Z.Z.Z.Z.Z.Z.Z.Z.Z.Z.Z.Z.Z.Z.Z.Z.Z.Z.Z.Z.Z.Z.Z.Z.Z.Z.Z.",
"Z.Z.Z.Z.Z.Z.Z.Z.Z.Z.Z.Z.Z.Z.Z.Z.Z.Z.Z.Z.Z.Z.Z.Z.Z.Z.Z.Z.Z.Z.Z.Z.Z.Z.Z.Z.Z.Z.Z.Z.Z.Z.Z.Z.Z.Z.Z.Z.Z.Z.Z.Z.Z.Z.Z.Z.Z.Z.Z.Z.Z.Z.Z.Z.",
"Z.Z.Z.Z.Z.Z.Z.Z.Z.Z.Z.Z.Z.Z.Z.Z.Z.Z.Z.Z.Z.Z.Z.Z.Z.Z.Z.Z.Z.Z.Z.Z.Z.Z.Z.Z.Z.Z.Z.Z.Z.Z.Z.Z.Z.Z.Z.Z.Z.Z.Z.Z.Z.Z.Z.Z.Z.Z.Z.Z.Z.Z.Z.Z.",
"Z.Z.Z.Z.Z.Z.Z.Z.Z.Z.Z.Z.Z.Z.Z.Z.Z.Z.Z.Z.Z.Z.Z.Z.Z.Z.@ @ @ @ Z.Z.Z.Z.Z.Z.Z.Z.Z.Z.Z.Z.Z.Z.Z.Z.Z.Z.Z.Z.Z.Z.Z.Z.Z.Z.Z.Z.Z.Z.Z.Z.Z.Z.",
"Z.Z.Z.Z.Z.Z.Z.Z.Z.Z.Z.Z.Z.Z.Z.Z.Z.Z.Z.Z.Z.Z.Z.Z.Z.Z.@ @ @ @ Z.Z.Z.Z.Z.Z.Z.Z.Z.Z.Z.Z.Z.Z.Z.Z.Z.Z.Z.Z.Z.Z.Z.Z.Z.Z.Z.Z.Z.Z.Z.Z.Z.Z.",
"Z.Z.Z.Z.Z.Z.Z.Z.Z.Z.Z.Z.Z.Z.Z.Z.Z.Z.Z.Z.Z.Z.Z.Z.Z.Z.@ @ @ @ Z.Z.Z.Z.Z.Z.Z.Z.Z.Z.Z.Z.Z.Z.Z.Z.Z.Z.Z.Z.Z.Z.Z.Z.Z.Z.Z.Z.Z.Z.Z.Z.Z.Z.",
"Z.Z.Z.Z.Z.Z.Z.Z.Z.Z.Z.Z.Z.Z.Z.Z.Z.Z.Z.Z.Z.Z.Z.Z.Z.Z.@ @ @ @ Z.Z.Z.Z.Z.Z.Z.Z.Z.Z.Z.Z.Z.Z.Z.Z.Z.Z.Z.Z.Z.Z.Z.Z.Z.Z.Z.Z.Z.Z.Z.Z.Z.Z.",
"Z.Z.Z.Z.Z.Z.Z.Z.Z.Z.Z.Z.Z.Z.Z.Z.Z.Z.@ @ @ @ @ @ @ @ e.e.e.e.@ @ @ @ Z.Z.Z.Z.Z.Z.Z.Z.Z.Z.Z.Z.Z.Z.Z.Z.Z.Z.Z.Z.Z.Z.Z.Z.Z.Z.Z.Z.Z.Z.",
"Z.Z.Z.Z.Z.Z.Z.Z.Z.Z.Z.Z.Z.Z.Z.Z.Z.Z.@ @ @ @ @ @ @ @ e.e.e.e.@ @ @ @ Z.Z.Z.Z.Z.Z.Z.Z.Z.Z.Z.Z.Z.Z.Z.Z.Z.Z.Z.Z.Z.Z.Z.Z.Z.Z.Z.Z.Z.Z.",
"Z.Z.Z.Z.Z.Z.Z.Z.Z.Z.Z.Z.Z.Z.Z.Z.Z.Z.@ @ @ @ @ @ @ @ e.e.e.e.@ @ @ @ Z.Z.Z.Z.Z.Z.Z.Z.Z.Z.Z.Z.Z.Z.Z.Z.Z.Z.Z.Z.Z.Z.Z.Z.Z.Z.Z.Z.Z.Z.",
"Z.Z.Z.Z.Z.Z.Z.Z.Z.Z.Z.Z.Z.Z.Z.Z.Z.Z.@ @ @ @ @ @ @ @ e.e.e.e.@ @ @ @ Z.Z.Z.Z.Z.Z.Z.Z.Z.Z.Z.Z.Z.Z.Z.Z.Z.Z.Z.Z.Z.Z.Z.Z.Z.Z.Z.Z.Z.Z.",
"Z.Z.Z.Z.Z.Z.Z.Z.Z.Z.Z.Z.Z.Z.Z.Z.Z.Z.@ @ @ @ e.e.e.e.b.b.b.b.@ @ @ @ @ @ @ @ @ @ @ @ @ @ @ @ Z.Z.Z.Z.Z.Z.Z.Z.Z.Z.Z.Z.Z.Z.Z.Z.Z.Z.",
"Z.Z.Z.Z.Z.Z.Z.Z.Z.Z.Z.Z.Z.Z.Z.Z.Z.Z.@ @ @ @ e.e.e.e.b.b.b.b.@ @ @ @ @ @ @ @ @ @ @ @ @ @ @ @ Z.Z.Z.Z.Z.Z.Z.Z.Z.Z.Z.Z.Z.Z.Z.Z.Z.Z.",
"Z.Z.Z.Z.Z.Z.Z.Z.Z.Z.Z.Z.Z.Z.Z.Z.Z.Z.@ @ @ @ e.e.e.e.b.b.b.b.@ @ @ @ @ @ @ @ @ @ @ @ @ @ @ @ Z.Z.Z.Z.Z.Z.Z.Z.Z.Z.Z.Z.Z.Z.Z.Z.Z.Z.",
"Z.Z.Z.Z.Z.Z.Z.Z.Z.Z.Z.Z.Z.Z.Z.Z.Z.Z.@ @ @ @ e.e.e.e.b.b.b.b.@ @ @ @ @ @ @ @ @ @ @ @ @ @ @ @             Z.Z.Z.Z.Z.Z.Z.Z.Z.Z.Z.Z.",
"Z.Z.Z.Z.Z.Z.Z.Z.Z.Z.Z.Z.Z.Z.Z.Z.Z.Z.@ @ @ @ b.b.b.b.b.b.b.b.V.V.V.V.V.V.V.V.V.V.V.V.V.V.V.V.@ @ @ @     Z.Z.Z.Z.Z.Z.Z.Z.Z.Z.Z.Z.",
"Z.Z.Z.Z.Z.Z.Z.Z.Z.Z.Z.Z.Z.Z.Z.Z.Z.Z.@ @ @ @ b.b.b.b.b.b.b.b.V.V.V.V.V.V.V.V.V.V.V.V.V.V.V.V.@ @ @ @     Z.Z.Z.Z.Z.Z.Z.Z.Z.Z.Z.Z.",
"Z.Z.Z.Z.Z.Z.Z.Z.Z.Z.Z.Z.Z.Z.Z.Z.Z.Z.@ @ @ @ b.b.b.b.b.b.b.b.V.V.V.V.V.V.V.V.V.V.V.V.V.V.V.V.@ @ @ @     Z.Z.Z.Z.Z.Z.Z.Z.Z.Z.Z.Z.",
"Z.Z.Z.Z.Z.Z.Z.Z.Z.Z.Z.Z.            @ @ @ @ b.b.b.b.b.b.b.b.V.V.V.V.V.V.V.V.V.V.V.V.V.V.V.V.@ @ @ @ s s         Z.Z.Z.Z.Z.Z.Z.Z.",
"Z.Z.Z.Z.Z.Z.Z.Z.Z.Z.Z.Z.    @ @ @ @ b.b.b.b.V.V.V.V.C.C.C.C.C.C.C.C.C.C.C.C.C.C.C.C.C.C.C.C.@ @ @ @ s s         Z.Z.Z.Z.Z.Z.Z.Z.",
"Z.Z.Z.Z.Z.Z.Z.Z.Z.Z.Z.Z.    @ @ @ @ b.b.b.b.V.V.V.V.C.C.C.C.C.C.C.C.C.C.C.C.C.C.C.C.C.C.C.C.@ @ @ @ s s         Z.Z.Z.Z.Z.Z.Z.Z.",
"Z.Z.Z.Z.Z.Z.Z.Z.Z.Z.Z.Z.    @ @ @ @ b.b.b.b.V.V.V.V.C.C.C.C.C.C.C.C.C.C.C.C.C.C.C.C.C.C.C.C.@ @ @ @ s s         Z.Z.Z.Z.Z.Z.Z.Z.",
"Z.Z.Z.Z.Z.Z.Z.Z.        s s @ @ @ @ b.b.b.b.V.V.V.V.C.C.C.C.C.C.C.C.C.C.C.C.C.C.C.C.C.C.C.C.@ @ @ @ i.i.s s s s         Z.Z.Z.Z.",
"Z.Z.Z.Z.Z.Z.Z.Z.        s s @ @ @ @ V.V.V.V.V.V.V.V.C.C.C.C.@ @ @ @ @ @ @ @ @ @ @ @ @ @ @ @ @ @ @ @ i.i.s s s s         Z.Z.Z.Z.",
"Z.Z.Z.Z.Z.Z.Z.Z.        s s @ @ @ @ V.V.V.V.V.V.V.V.C.C.C.C.@ @ @ @ @ @ @ @ @ @ @ @ @ @ @ @ @ @ @ @ i.i.s s s s         Z.Z.Z.Z.",
"Z.Z.Z.Z.Z.Z.Z.Z.        s s @ @ @ @ V.V.V.V.V.V.V.V.C.C.C.C.@ @ @ @ @ @ @ @ @ @ @ @ @ @ @ @ @ @ @ @ i.i.s s s s         Z.Z.Z.Z.",
"Z.Z.Z.Z.        s s s s i.i.@ @ @ @ V.V.V.V.V.V.V.V.C.C.C.C.@ @ @ @ @ @ @ @ @ @ @ @ @ @ @ @ @ @ @ @ i.i.i.i.i.i.s s s s         ",
"Z.Z.Z.Z.        s s s s i.i.@ @ @ @ V.V.V.V.V.V.V.V.C.C.C.C.C.C.C.C.C.C.C.C.@ @ @ @ C.C.C.C.@ @ @ @ i.i.i.i.i.i.s s s s         ",
"Z.Z.Z.Z.        s s s s i.i.@ @ @ @ V.V.V.V.V.V.V.V.C.C.C.C.C.C.C.C.C.C.C.C.@ @ @ @ C.C.C.C.@ @ @ @ i.i.i.i.i.i.s s s s         ",
"Z.Z.Z.Z.        s s s s i.i.@ @ @ @ V.V.V.V.V.V.V.V.C.C.C.C.C.C.C.C.C.C.C.C.@ @ @ @ C.C.C.C.@ @ @ @ i.i.i.i.i.i.s s s s         ",
"        s s s s i.i.i.i.i.i.@ @ @ @ V.V.V.V.V.V.V.V.C.C.C.C.C.C.C.C.C.C.C.C.@ @ @ @ C.C.C.C.@ @ @ @ i.i.i.i.i.i.i.i.i.i.        ",
"        s s s s i.i.i.i.i.i.@ @ @ @ b.b.b.b.V.V.V.V.V.V.V.V.V.V.V.V.C.C.C.C.C.C.C.C.C.C.C.C.@ @ @ @ i.i.i.i.i.i.i.i.i.i.        ",
"        s s s s i.i.i.i.i.i.@ @ @ @ b.b.b.b.V.V.V.V.V.V.V.V.V.V.V.V.C.C.C.C.C.C.C.C.C.C.C.C.@ @ @ @ i.i.i.i.i.i.i.i.i.i.        ",
"        s s s s i.i.i.i.i.i.@ @ @ @ b.b.b.b.V.V.V.V.V.V.V.V.V.V.V.V.C.C.C.C.C.C.C.C.C.C.C.C.@ @ @ @ i.i.i.i.i.i.i.i.i.i.        ",
"        i.i.i.i.i.i.i.i.f.f.@ @ @ @ b.b.b.b.V.V.V.V.V.V.V.V.V.V.V.V.C.C.C.C.C.C.C.C.C.C.C.C.@ @ @ @     i.i.i.i.i.i.i.i.        ",
"        i.i.i.i.i.i.i.i.f.f.f.f.f.f.@ @ @ @ b.b.b.b.b.b.b.b.e.e.e.e.e.e.e.e.u.u.u.u.e.e.e.e.@ @ @ @     i.i.i.i.i.i.i.i.        ",
"        i.i.i.i.i.i.i.i.f.f.f.f.f.f.@ @ @ # v.v.b.b.b.b.b.b.e.e.e.e.e.e.e.e.u.u.u.u.e.e.e.e.@ @ @ @     i.i.i.i.i.i.i.i.        ",
"        i.i.i.i.i.i.i.i.f.f.f.f.f.f.% - ; < 4.2.g.x.b.b.b.b.e.e.e.e.e.e.e.e.u.u.u.u.e.e.e.e.@ @ @ @     i.i.i.i.i.i.i.i.        ",
"        i.i.i.i.b b b b b b b b b b < 3 q e @.+.#.,.l.b.b.b.e.e.e.e.e.e.e.e.u.u.u.u.e.e.e.e.@ @ @ @     b b b b i.i.i.i.        ",
"        i.i.i.i.b b D G L K I t.y.r.r i p d C N , 9 7.0.w.e.b.b.b.b.b.b.b.b.b.b.b.b.b.b.b.b.@ @ @ @     b b b b i.i.i.i.        ",
"        i.i.i.i.b b b n n n B F J Z j b b c m b X > 8 6.9.q.b.b.b.b.b.b.b.b.b.b.b.b.v.x.k.c.@ @ @ @     b b b b i.i.i.i.        ",
"        i.i.i.i.b b n m n b b b b b b b b b N n     * 7 5.8.k.l.b.b.b.b.b.b.b.v.x.h.<.>.*.:.O @ @ O     b b b b i.i.i.i.        ",
"        s s s s b b b n C M n b b b b b b b N V X     * 6 0 $.=.3.h.z.x.v.v.j.1.;.&.O.{ | %.2 1 w y b b b b b b s s s s         ",
"        s s s s b b b V D H m b b b b b b b n W & .     $ : 4 5 +.-.n.M.N.B.m.d. .` ( T T X.t u k v b b b b b b s s s s         ",
"        s s s s b b b n B S N b b b b b b b b n $ $ o .     . o W ~ ..p.a.s.o.) b b b b / } h v b b b b b b b b s s s s         ",
"        s s g s b b b b A P M b b b b b b b b b   . . o o o . . n n T / ( ( / T b b T ^ ^ T b b b b b b b b b b s s s s         ",
"Z.Z.Z.Z.    = + s s s s d a f s b b b b b b b b b b b b n Q ! ] ' ! _ ( / ^ ^ T T T b T b b b b s s s s s s s s         Z.Z.Z.Z.",
"Z.Z.Z.Z.        s s s s s s s s b b b b b b b b b b b b b n R ~ [ ] l x c v v b b b b b b b b b s s s s s s s s         Z.Z.Z.Z.",
"Z.Z.Z.Z.        s s s s s s s s b b b b b b b b b b b b b b b b b b b b b b b b b b b b b b b b s s s s s s s s         Z.Z.Z.Z.",
"Z.Z.Z.Z.        s s s s s s s s b b b b b b b b b b b b b b b b b b b b b b b b b b b b b b b b s s s s s s s s         Z.Z.Z.Z.",
"Z.Z.Z.Z.Z.Z.Z.Z.                s s s s b b b b b b b b b b b b b b b b b b b b b b b b s s s s                 Z.Z.Z.Z.Z.Z.Z.Z.",
"Z.Z.Z.Z.Z.Z.Z.Z.                s s s s b b b b b b b b b b b n E E x b b b b b b b b b s s s s                 Z.Z.Z.Z.Z.Z.Z.Z.",
"Z.Z.Z.Z.Z.Z.Z.Z.                s s s s b b b b b b b b b b b b U Y z b b b b b b b b b s s s s                 Z.Z.Z.Z.Z.Z.Z.Z.",
"Z.Z.Z.Z.Z.Z.Z.Z.                s s s s b b b b b b b b b b b b b b v b b b b b b b b b s s s s                 Z.Z.Z.Z.Z.Z.Z.Z.",
"Z.Z.Z.Z.Z.Z.Z.Z.Z.Z.Z.Z.Z.Z.Z.Z.                                                                Z.Z.Z.Z.Z.Z.Z.Z.Z.Z.Z.Z.Z.Z.Z.Z.",
"Z.Z.Z.Z.Z.Z.Z.Z.Z.Z.Z.Z.Z.Z.Z.Z.                                                                Z.Z.Z.Z.Z.Z.Z.Z.Z.Z.Z.Z.Z.Z.Z.Z.",
"Z.Z.Z.Z.Z.Z.Z.Z.Z.Z.Z.Z.Z.Z.Z.Z.                                                                Z.Z.Z.Z.Z.Z.Z.Z.Z.Z.Z.Z.Z.Z.Z.Z.",
"Z.Z.Z.Z.Z.Z.Z.Z.Z.Z.Z.Z.Z.Z.Z.Z.                                                                Z.Z.Z.Z.Z.Z.Z.Z.Z.Z.Z.Z.Z.Z.Z.Z.",
"Z.Z.Z.Z.Z.Z.Z.Z.Z.Z.Z.Z.Z.Z.Z.Z.Z.Z.Z.Z.Z.Z.Z.Z.Z.Z.Z.Z.Z.Z.Z.Z.Z.Z.Z.Z.Z.Z.Z.Z.Z.Z.Z.Z.Z.Z.Z.Z.Z.Z.Z.Z.Z.Z.Z.Z.Z.Z.Z.Z.Z.Z.Z.Z.",
"Z.Z.Z.Z.Z.Z.Z.Z.Z.Z.Z.Z.Z.Z.Z.Z.Z.Z.Z.Z.Z.Z.Z.Z.Z.Z.Z.Z.Z.Z.Z.Z.Z.Z.Z.Z.Z.Z.Z.Z.Z.Z.Z.Z.Z.Z.Z.Z.Z.Z.Z.Z.Z.Z.Z.Z.Z.Z.Z.Z.Z.Z.Z.Z.",
"Z.Z.Z.Z.Z.Z.Z.Z.Z.Z.Z.Z.Z.Z.Z.Z.Z.Z.Z.Z.Z.Z.Z.Z.Z.Z.Z.Z.Z.Z.Z.Z.Z.Z.Z.Z.Z.Z.Z.Z.Z.Z.Z.Z.Z.Z.Z.Z.Z.Z.Z.Z.Z.Z.Z.Z.Z.Z.Z.Z.Z.Z.Z.Z.",
"Z.Z.Z.Z.Z.Z.Z.Z.Z.Z.Z.Z.Z.Z.Z.Z.Z.Z.Z.Z.Z.Z.Z.Z.Z.Z.Z.Z.Z.Z.Z.Z.Z.Z.Z.Z.Z.Z.Z.Z.Z.Z.Z.Z.Z.Z.Z.Z.Z.Z.Z.Z.Z.Z.Z.Z.Z.Z.Z.Z.Z.Z.Z.Z."
};
