/* XPM */
static char *result[] = {
/* columns rows colors chars-per-pixel */
"64 64 160 2 ",
"   c #000000",
".  c #0C0101",
"X  c #020A03",
"o  c #0C0B0D",
"O  c #190202",
"+  c #130202",
"@  c #041306",
"#  c #061708",
"$  c #071A09",
"%  c #081D0B",
"&  c #110F11",
"*  c #121315",
"=  c #181619",
"-  c #181C1E",
";  c #290606",
":  c #260505",
">  c #300707",
",  c #330909",
"<  c #390A0A",
"1  c #0B230E",
"2  c #0D2510",
"3  c #0F2912",
"4  c #112D15",
"5  c #1B241C",
"6  c #132515",
"7  c #153519",
"8  c #17391B",
"9  c #1A3E1F",
"0  c #133116",
"q  c #211F22",
"w  c #1E2225",
"e  c #1B3D20",
"r  c #232527",
"t  c #272927",
"y  c #23282B",
"u  c #302E32",
"i  c #3C393E",
"p  c #1B411F",
"a  c #1D4322",
"s  c #1F4924",
"d  c #204725",
"f  c #214A26",
"g  c #244728",
"h  c #234E28",
"j  c #25542B",
"k  c #27582D",
"l  c #285A2F",
"z  c #304532",
"x  c #2D5733",
"c  c #2A5E31",
"v  c #2D6334",
"b  c #2F6837",
"n  c #306537",
"m  c #306937",
"M  c #326D39",
"N  c #36763E",
"B  c #3A773F",
"V  c #37783F",
"C  c #755E38",
"Z  c #7F5F3A",
"A  c #436D3B",
"S  c #5C6F3D",
"D  c #43753F",
"F  c #4C733E",
"G  c #53713D",
"H  c #5B753D",
"J  c #6E653A",
"K  c #666B3C",
"L  c #68673A",
"P  c #72653B",
"I  c #78623A",
"U  c #67763C",
"Y  c #7F763A",
"T  c #3C6347",
"R  c #3A7741",
"E  c #3A7C42",
"W  c #3E7D48",
"Q  c #40484D",
"!  c #525953",
"~  c #476149",
"^  c #407747",
"/  c #417B47",
"(  c #44794B",
")  c #49784F",
"_  c #467D52",
"`  c #4C7953",
"'  c #4C7F59",
"]  c #517A56",
"[  c #55795A",
"{  c #59795E",
"}  c #5F7A63",
"|  c #6B786C",
" . c #747674",
".. c #835737",
"X. c #8F5337",
"o. c #8B5738",
"O. c #835C39",
"+. c #895838",
"@. c #915237",
"#. c #8A7539",
"$. c #837539",
"%. c #917538",
"&. c #3B8345",
"*. c #3D8847",
"=. c #3E8948",
"-. c #42854B",
";. c #458A4E",
":. c #4D8354",
">. c #4A8E52",
",. c #4F805C",
"<. c #52855C",
"1. c #58855D",
"2. c #4A9253",
"3. c #4F9959",
"4. c #509C5A",
"5. c #558364",
"6. c #5A8265",
"7. c #5C866C",
"8. c #5F8870",
"9. c #628A74",
"0. c #668C78",
"q. c #6B8F7E",
"w. c #7E8E7F",
"e. c #6E9271",
"r. c #729476",
"t. c #769679",
"y. c #7C9A7E",
"u. c #57A561",
"i. c #5BAD66",
"p. c #5FB36A",
"a. c #60B46B",
"s. c #6E9182",
"d. c #709184",
"f. c #7F9C81",
"g. c #749489",
"h. c #78968D",
"j. c #7B9891",
"k. c #829E84",
"l. c #979D98",
"z. c #85A087",
"x. c #87A189",
"c. c #8AA38C",
"v. c #8EA690",
"b. c #93AA95",
"n. c #99AE9B",
"m. c #9DB19E",
"M. c #9EB2A0",
"N. c #A2ACA3",
"B. c #A3B5A5",
"V. c #A7B8A9",
"C. c #ACBCAD",
"Z. c #AFBEB0",
"A. c #B7C4B8",
"S. c #B9C6BA",
"D. c #C3CDC3",
"F. c #C8CEC9",
"G. c #C3C5C3",
"H. c #D1D9D1",
"J. c #E0E3E0",
"K. c None",
/* pixels */
"K.K.K.K.K.K.K.K.K.K.K.K.K.K.K.K.K.K.K.K.K.K.K.K.K.K.K.K.K.K.K.K.K.K.K.K.K.K.K.K.K.K.K.K.K.K.K.K.K.K.K.K.K.K.K.K.K.K.K.K.K.K.K.K.",
"K.K.K.K.K.K.K.K.K.K.K.K.K.K.K.K.K.K.K.K.K.K.K.K.K.K.K.K.K.K.K.K.K.K.K.K.K.K.K.K.K.K.K.K.K.K.K.K.K.K.K.K.K.K.K.K.K.K.K.K.K.K.K.K.",
"K.K.K.K.K.K.K.K.K.K.K.K.K.K.K.K.K.K.K.K.K.K.K.K.K.K.K.K.K.K.K.K.K.K.K.K.K.K.K.K.K.K.K.K.K.K.K.K.K.K.K.K.K.K.K.K.K.K.K.K.K.K.K.K.",
"K.K.K.K.K.K.K.K.K.K.K.K.K.K.K.K.K.V V N K.K.K.K.K.K.K.K.K.K.K.K.K.K.K.V V V V V V K.K.K.K.K.K.K.K.K.K.K.K.K.K.K.K.K.K.K.K.K.K.K.",
"K.K.K.K.K.K.K.K.K.K.K.K.K.K.K.V V N R V V R N V V V V N V N V N N V N V V V V V V N K.K.K.K.K.K.K.K.K.K.K.K.K.K.K.K.K.K.K.K.K.K.",
"K.K.K.K.K.K.K.K.K.K.K.K.K.K.V V N V V N N N V N V V N V N V R N R N V N V V V N V V K.K.K.V V V V K.K.K.V V R K.K.K.K.K.K.K.K.K.",
"K.K.K.K.K.K.K.K.V V N V N V V V V N N V V N N V V N V V R V N V V V R V V N N R V V K.K.K.V V N V V V R V V V N V K.K.K.K.K.K.K.",
"K.K.K.K.K.K.V V V V V V R N V V N V R V N V V R V V N R V N V N V N N V N V N V V V K.K.K.V N V V V V N V V N V V V K.K.K.K.K.K.",
"K.K.K.K.K.V N V V V V N R V N V N V N N V N V N V V R N N N V V N V N R N V N V N V N K.V N V R V V V N N V V R V V K.K.K.K.K.K.",
"K.K.K.K.V N V N N V N V V N V N V N R V N V N V N V V N N N V V V N N V V R V N R V V V N V V N N R N V V N V N V V K.K.K.K.K.K.",
"K.K.K.K.V V R V V V V N V N N R V V N V V V N V V N V N R V R V R N V N V N V N N V V V V N N V V N V N N V N V V N K.K.K.K.K.K.",
"K.K.K.K.N V N V N R N V V V N V N V R N N R V N N N N V V V N N V V N V N V N V R N V N R N V N N V N V R N V N N V K.K.K.K.K.K.",
"K.K.K.K.V N V N N V R N N R V N V V N V V N V R R V N V N V N N V N V V V V R V V V V N V N N V V V N V V N R V V V K.K.K.K.K.K.",
"K.K.K.R V R N V V N V V V N N V R N V N N V V N V V V N V N V N N V K.V V V N V V N N V V R V R N R V N N V V N V V K.K.K.K.K.K.",
"K.K.V V V N V N N V N V N V V N V N V V V N N N N V N N V V V V V K.K.K.K.V V V N V N N N V V N V N N V V N R N V V K.K.K.K.K.K.",
"K.K.V V N V N V R N V N V R N V N V N V R N V N V V V R V V V V N K.K.K.K.K.V V V N R V V N N V V V R N N V V V N V R K.K.K.K.K.",
"K.V N R V V N V V N V R V V V V V V N R v v v v b M N N M M m v k h s s h k c v v v v k k k k k c v v M N V N V N V V K.K.K.K.K.",
"K.V V N V N V N N V N N N V V V V N V N v c c c v v b M M m v v k j j j k v v b v v v c c k k k c v m m V N V N V N V K.K.K.K.K.",
"V V V V V N N R V N V V V K.K.V N N V V c l j h j l v v m v v l k k j k v v b b b b v v c k k k c v v M V V V V N V N V K.K.K.K.",
"K.V V V N V N V N V V K.K.K.K.K.R V V N j s p 8 9 f j c c v v l j h k l v v b b b b v v c c j j l c v b V V V N V N V N K.K.K.K.",
"K.V N V V V N V V N V N j h j j l v c j V N M N *.&.e g j j E &.&.&.&.&.E E E E E E E E &.V &.E N N N M v b b N V V V N V K.K.K.",
"K.K.V V N R N V V V N V v l j j l l l j N M N M *.*.7 e f h &.&.&.&.&.&.E &.&.E E &.&.E E &.&.&.N N N N v v b b N R N V V K.K.K.",
"K.K.V V N V V N V V N N b v v l l l l j M N M N *.*.7 9 s d &.&.&.&.&.&.&.E &.E E &.E E &.E E &.M N N N k v v N V N V V V K.K.K.",
"K.K.K.N V R N V V V V N N b v c v v c k j h s a d d @.@.@.@.f f s h &.V E &.&.&.&.E &.E E E V E N N N M k v v b N V V V V K.K.K.",
"K.K.K.K.K.V V V m M M N N N N N N N l v v c c c l c O...+.X.f s h k &.E &.E &.&.&.E E E E E E V E E E &.M N N N m m m v V K.K.K.",
"K.K.K.K.K.K.V V m M M N N V N N N N b v m m v m m v J I O.+.h h j k E &.E &.E E E E E V E V E V E N E E N N N N v v c j K.K.K.K.",
"K.K.K.K.K.K.V V m M M N V V N N N N b M M M M M M M S K P O.j h j k &.&.&.&.V E E E E E V E E V N E N E N N N M l j f p K.K.K.K.",
"K.K.K.K.K.K.K.V v m M M V N N N N N b M M M G F G F ) ` ] | j j j k k l l v v b M N M M M M E E V E E E N N N N f a 7 4 K.K.K.K.",
"K.K.K.K.s s s j V N V N V V V E E E b M N M F F F F ) ) ` { x l k k c l c v v b R M R N N N V E &.V E E E E &.&.N M N M @ X     ",
"K.K.K.K.s a s s M N M N E E &.V V E b b b N F F F F ) ) ` [ v c v v v v v v b M M M M R M M E E V &.V &.E &.&.&.M N M M         ",
"K.K.K.K.a a p 9 N N M N E E E E E E b M M N F F F ) ) ) ] [ c c v v b v v v b M R R R R V N N E &.V &.E &.&.&.*.N M M N         ",
"K.K.K.K.a 9 8 7 M N N N E E E V E V b M m M ) ( ( ( ) ` ] { e.0.8.7.7.8.8.0.8.<.' W R R W W N V V &.E &.&.&.&.*.M M M N         ",
"3 0 7 8 R M M N *.*.&.&.&.E E E ;.-.M m m M ) ) ) ` ` ] [ { 0.9.7.5.5.7.8.9.8.7.' _ ( W _ _ V E E E &.&.&.*.*.*.*.*.=.=.        ",
"@ $ 1 3 M N M M *.*.*.*.&.&.&.E ;.;.m M m m ` ` ` ` ] [ { { 9.8.7.5.5.7.8.8.8.7.<.,._ _ _ W V E E E E &.&.*.*.*.*.*.=.=.        ",
"X X @ @ M N N M *.*.*.&.&.&.W E ;.;.M m m v [ [ ] [ { { { [ 7.6.5.5.5.5.7.8.8.8.7.5.5.<._ W R E E &.&.&.*.*.=.=.=.=.=.=.        ",
"        N M M N *.*.*.*.*.&.j v M N ` ] 1.| s.q.q.q.V.B.m.b.z.t.e.t.y.f.x.c.v.b.n.M.n.y.<.W &.E &.&.&.&.*.=.=.=.=.=.=.=.        ",
"        =.=.=.=.*.=.=.=.p.i.v R R E :.>.` ] q.g.h.h.A.Z.B.b.k.t.e.e.f.f.f.x.x.b.B.C.m.e.x j j j h s 8 3 *.*.=.=.=.=.;.*.        ",
"        =.=.=.=.=.=.=.=.p.i.-.-.-.-.;.>.R R ' 9.g.h.D.S.C.B.c.y.t.t.f.k.x.x.x.n.V.Z.b.1.a p p s p 8 3 $ *.*.=.=.=.=.*.*.        ",
"        =.=.=.=.=.=.=.=.p.i.3.2.2.;.>.>.V V R ` 8.d.D.F.G.A.B.b.v.k.v.b.b.v.b.M.C.C.c.` 8 7 0 4 3 1 $ X *.*.*.=.=.=.*.*.        ",
"        =.=.=.=.=.=.=.=.p.p.u.3.2.2.;.>.E R R R _ 7.V.D.H.H.j x c c v c v c v v l v m V 8 4 1 $ # @ X   *.*.;.*.=.=.*.*.        ",
"        *.*.*.*.V N R N N R V V V V V N V N V R c T f.N.F.J.e d h h j j j j l k c v m N 8 1 $ X X       N E N N =.=.=.=.        ",
"        *.*.*.;.V V N N N N V V V V N V N V V N l x ~ | l.G.% 4 k x k k j j l v M N M N 0 1 @           N N N R =.=.=.=.        ",
"        =.=.=.=.V V R N N N N V V V V R V R N V j h g z !  .X X M M R M M M M N N N R V 4 $ X           N N N N =.=.=.=.        ",
"        =.=.=.=.N N N V N E N N V V N V R R R R s a 8 3 - t r = E R R R R W N N V V V V 6 w             V V N N =.=.=.=.        ",
"        N M M N N N N V N N V V V V N R R R N N 0 0 2 $ X       E N N N V N N E V N N V N R N N R V V V V V V R M N N M         ",
"        N M M M R N V V V N N N V V N V V V V N % $ @ X         N R N R N E N N N V V N V V V N V V V V V V V N N M M M         ",
"        N M M N N V V N N V m N N N N V V N V V X X             N R N N N V N N V N V V N R V V N R N V V V N N M M M N         ",
"        M N M M V V V N R N M N N R N R N V N V                 N N N N N N E N N V N R V N V N V N V N V V N N M N M N         ",
"K.K.K.K.        N M N M M M M M N R N N V V R N N V N V N V V N V V B B V V V V N N V V N N N N M M N M M N M M         K.K.K.K.",
"K.K.K.K.        N M M M M N M N V N V V V N N V V V R N V N N V V B R R R V V V N N V V N E N N m v N M N M M N         K.K.K.K.",
"K.K.K.K.        M M M N N M N M N V V V N V V N N V N N R V V V R V N R / R W E / / / / W ( N N b k M M N M M M         K.K.K.K.",
"K.K.K.K.        M N N M M M N M V N V E R N N V V V V V N V N V N N ^ F F F H H H U G G G S M M m v M N M M N N         K.K.K.K.",
"K.K.K.K.K.K.K.K.                N M M M V V V R N R N V N V V V B D G K P P #.$.$.%.Z O.Z C c M                 K.K.K.K.K.K.K.K.",
"K.K.K.K.K.K.K.K.                M M N M N V N N N V V R R R D R F H P ..@.o.#.H H Y Z @.X.L M T                 K.K.K.K.K.K.K.K.",
"K.K.K.K.K.K.K.K.                M N N M N N B V V R R ) ] ] S S L ) K I o.O.U B R F G J J A M M                 K.K.K.K.K.K.K.K.",
"K.K.K.K.K.K.K.K.    ; , < > : + N M M M N V N N N V N G P J ) ^ ^ R R / ) ) / R B R R R R M R R                 K.K.K.K.K.K.K.K.",
"K.K.K.K.K.K.K.K.K.K.K.K.K.K.K.K.O O                   . , , & o .   .   X X .           o       K.K.K.K.K.K.K.K.K.K.K.K.K.K.K.K.",
"K.K.K.K.K.K.K.K.K.K.K.K.K.K.K.K.                          . o * = = X                     o     K.K.K.K.K.K.K.K.K.K.K.K.K.K.K.K.",
"K.K.K.K.K.K.K.K.K.K.K.K.K.K.K.K.            .                 * u i r                     X   . K.K.K.K.K.K.K.K.K.K.K.K.K.K.K.K.",
"K.K.K.K.K.K.K.K.K.K.K.K.K.K.K.K.              & X               = i Q r - w w *   X       *     K.K.K.K.K.K.K.K.K.K.K.K.K.K.K.K.",
"K.K.K.K.K.K.K.K.K.K.K.K.K.K.K.K.K.K.K.K.K.K.K.K.K.K.K.K.K.K.K.K.K.K.K.K.K.K.K.K.K.K.K.K.K.K.K.K.K.K.K.K.K.K.K.K.K.K.K.K.K.K.K.K.",
"K.K.K.K.K.K.K.K.K.K.K.K.K.K.K.K.K.K.K.K.K.K.K.K.K.K.K.K.K.K.K.K.K.K.K.K.K.K.K.K.K.K.K.K.K.K.K.K.K.K.K.K.K.K.K.K.K.K.K.K.K.K.K.K.",
"K.K.K.K.K.K.K.K.K.K.K.K.K.K.K.K.K.K.K.K.K.K.K.K.K.K.K.K.K.K.K.K.K.K.K.K.K.K.K.K.K.K.K.K.K.K.K.K.K.K.K.K.K.K.K.K.K.K.K.K.K.K.K.K.",
"K.K.K.K.K.K.K.K.K.K.K.K.K.K.K.K.K.K.K.K.K.K.K.K.K.K.K.K.K.K.K.K.K.K.K.K.K.K.K.K.K.K.K.K.K.K.K.K.K.K.K.K.K.K.K.K.K.K.K.K.K.K.K.K."
};
