/* XPM */
static char *result[] = {
/* columns rows colors chars-per-pixel */
"64 64 226 2 ",
"   c #060608",
".  c #0A0609",
"X  c #0A0A0D",
"o  c #110709",
"O  c #17080A",
"+  c #1B080A",
"@  c #0D0D13",
"#  c #120E11",
"$  c #120E1D",
"%  c #171417",
"&  c #280B0D",
"*  c #320D0F",
"=  c #250E11",
"-  c #390F10",
";  c #211A1D",
":  c #391316",
">  c #161323",
",  c #181425",
"<  c #1C1F22",
"1  c #271525",
"2  c #331726",
"3  c #3C1826",
"4  c #262629",
"5  c #382225",
"6  c #342D31",
"7  c #3A3437",
"8  c #39393A",
"9  c #4C1415",
"0  c #451819",
"q  c #531617",
"w  c #55191A",
"e  c #5C191A",
"r  c #681C1D",
"t  c #701F1F",
"y  c #673013",
"u  c #451A27",
"i  c #4B1B26",
"p  c #551D28",
"a  c #651E20",
"s  c #711F20",
"d  c #48272B",
"f  c #562325",
"g  c #4B2E33",
"h  c #423339",
"j  c #4B3339",
"k  c #4A353A",
"l  c #533338",
"z  c #5C3338",
"x  c #58363A",
"c  c #662326",
"v  c #6C222A",
"b  c #752122",
"n  c #7A2222",
"m  c #76262A",
"M  c #7C262B",
"N  c #6A3337",
"B  c #623338",
"V  c #67363A",
"C  c #733336",
"Z  c #7C3236",
"A  c #773A3D",
"S  c #3C3D42",
"D  c #4C3B42",
"F  c #533D44",
"G  c #5C3F46",
"H  c #643E44",
"J  c #6C3D43",
"K  c #743C42",
"L  c #7B3C40",
"P  c #3F474C",
"I  c #4E4045",
"U  c #4B4A4C",
"Y  c #514047",
"T  c #58484C",
"R  c #434B50",
"E  c #4C5257",
"W  c #545056",
"Q  c #5C5B5C",
"!  c #6A464A",
"~  c #764448",
"^  c #7E4D51",
"/  c #665959",
"(  c #6D5E5E",
")  c #7B5759",
"_  c #705C63",
"`  c #586269",
"'  c #636262",
"]  c #6B6669",
"[  c #6C6D74",
"{  c #796D75",
"}  c #727272",
"|  c #7B7676",
" . c #78747C",
".. c #797979",
"X. c #81311F",
"o. c #822525",
"O. c #872729",
"+. c #85292C",
"@. c #8B292C",
"#. c #932A2B",
"$. c #9D2E2E",
"%. c #822F32",
"&. c #9E2F30",
"*. c #843335",
"=. c #8B3335",
"-. c #8A3638",
";. c #833A3F",
":. c #8C393C",
">. c #943234",
",. c #9D3435",
"<. c #95373A",
"1. c #9B3638",
"2. c #95393C",
"3. c #A22F2F",
"4. c #A22F30",
"5. c #A43233",
"6. c #AC3232",
"7. c #A13738",
"8. c #AB3738",
"9. c #A43B3B",
"0. c #AB3B3B",
"q. c #B03B33",
"w. c #BB4A2E",
"e. c #C6562D",
"r. c #D56629",
"t. c #D26A2D",
"y. c #A63F41",
"u. c #AB3F41",
"i. c #874245",
"p. c #974749",
"a. c #895256",
"s. c #9B5353",
"d. c #9A575A",
"f. c #935D5E",
"g. c #A64244",
"h. c #AB4243",
"j. c #A64649",
"k. c #AB4C4D",
"l. c #B04B4B",
"z. c #B05148",
"x. c #A44E52",
"c. c #AA4F52",
"v. c #AA5355",
"b. c #A1575A",
"n. c #A95659",
"m. c #AA5A5C",
"M. c #B35757",
"N. c #865E65",
"B. c #9B5D62",
"V. c #A95E63",
"C. c #896769",
"Z. c #976469",
"A. c #886B73",
"S. c #976B72",
"D. c #817171",
"F. c #877476",
"G. c #8D747C",
"H. c #8D7C7C",
"J. c #947779",
"K. c #A76366",
"L. c #A96C6C",
"P. c #B76868",
"I. c #A46A70",
"U. c #A87474",
"Y. c #A77678",
"T. c #A5747A",
"R. c #A67C7E",
"E. c #B77474",
"W. c #BD7A7A",
"Q. c #D07044",
"!. c #C2756C",
"~. c #7E7C83",
"^. c #847D86",
"/. c #897A83",
"(. c #977C83",
"). c #A57D84",
"_. c #79878F",
"`. c #868686",
"'. c #898489",
"]. c #988685",
"[. c #898790",
"{. c #9A8B93",
"}. c #8A939C",
"|. c #9A9699",
" X c #A68384",
".X c #A2858C",
"XX c #A68C8C",
"oX c #B6878A",
"OX c #A28C94",
"+X c #A88E94",
"@X c #A59595",
"#X c #A1939C",
"$X c #AF979C",
"%X c #A49C9C",
"&X c #8C99A2",
"*X c #8F9FA9",
"=X c #979BA4",
"-X c #9F9DA5",
";X c #A19AA1",
":X c #95A3AD",
">X c #9DA3AD",
",X c #97A6B0",
"<X c #9AA6B0",
"1X c #96A8B1",
"2X c #9BACB6",
"3X c #A3A3A3",
"4X c #ABA7AE",
"5X c #B5B2B3",
"6X c #C28888",
"7X c #CA9999",
"8X c #CEA4A4",
"9X c #CDB0B0",
"0X c #D6B7B8",
"qX c #B1BEC5",
"wX c #DCC6C6",
"eX c #CECED2",
"rX c #D8D8D8",
"tX c #E1CACA",
"yX c #E5D4D4",
"uX c #EBE2E2",
"iX c #EBEBEB",
"pX c #F3EBEB",
"aX c #EFF0F1",
"sX c #F2F3F4",
"dX c #F9F6F6",
"fX c #FFFEFE",
/* pixels */
"Y Y Y Y Y Y Y Y Y I Y Y fXrXU   . r #.3.$.$.$.$.3.O.: < % 7 F Y Y Y H K A :.L Y F Y Y I Y Y Y Y fXfXfXfXD F F Y Y Y Y Y Y Y Y Y ",
"Y Y Y Y Y Y Y Y I I Y I fXiX}     9 $.6.6.6.6.6.6.$.9     1 D Y Y Y ;.7.6.6.8.:.G F Y Y Y Y Y Y fXfXfXdXJ J H Y Y Y Y Y Y Y Y Y ",
"Y Y Y Y Y Y Y Y Y Y Y Y fXdX3X# o - @.6.6.6.6.6.6.4.b .   @ h F Y J ,.6.6.6.6.7.K G Y Y Y Y Y Y fXdXuX0X,.7.<.L G Y Y Y Y Y Y Y ",
"Y Y Y Y Y Y Y Y Y Y Y Y fXfXrX..p n $.6.6.3.5.h.j.j.;.=     5 D k J ,.6.6.6.6.6.<.J F F Y Y Y Y dXtXW.l.6.6.6.5.J Y Y Y Y Y Y Y ",
"Y Y Y Y Y Y Y Y Y Y Y Y fXfXdXwX4.6.6.6.6.3.=.A.G.G.{ 5     # % 1 0 #.6.6.6.6.6.6.@.f D Y Y F F pXE.q.6.6.6.6.6.L Y Y F Y Y Y Y ",
"Y Y Y Y Y Y Y Y Y Y Y Y fXfXpX7X6.6.6.6.6.6.&.N.^.^.~.U .         & o.6.6.6.6.6.6.4.m l Y Y Y H 0Xl.6.6.6.6.6.6.:.G Y F Y Y Y Y ",
"Y Y Y Y Y Y Y Y Y Y Y Y fXfXyXP.6.6.6.6.6.6.6.a./.^.~.` $         + s 6.6.6.6.6.6.6.#.l Y G J 2.6X0.6.6.6.6.6.6.9.L T F Y Y Y Y ",
"Y Y Y Y Y Y Y Y Y Y Y Y fXpX8Xc.6.6.6.6.6.6.6.i.F.`.^.~.E R R R R U ;.6.6.6.6.6.6.6.:.U D G >.5.h.6.6.6.6.6.6.6.6.1.H Y Y Y Y Y ",
"I Y Y Y Y Y Y Y fXfXfXdX%X Xv.6.5.6.6.6.6.6.8.d.^.^.^.^.&X*X:X=X:X|.I.0.6.6.6.6.6.l.{.&X~._ g.6.6.6.6.6.6.6.6.6.6.7.J F Y Y Y Y ",
"Y Y Y Y Y Y I Y fXfXdXyXL.K.w.6.6.6.6.6.6.6.8.B./.^.^./.}.-X#X;X<X<X).0.6.6.6.6.u.).-X-X~.s 6.6.6.6.6.6.6.6.6.6.6.7.K F Y Y Y Y ",
"Y Y Y Y Y Y Y Y fXfXpX7X8.u.y.6.6.6.6.6.6.6.6.B./././.Z.V.n.u.M.OX2XOXh.6.6.6.6.h.I.).).J.>.6.6.6.6.6.6.6.6.6.6.6.1.J F Y Y Y Y ",
"Y Y Y Y Y Y Y F fXfXyXP.6.6.6.6.6.6.6.6.6.6.6.S.S.x.x.u.u.6.6.6.V.;X{.h.6.6.6.6.u.u.u.u.c.6.6.6.6.6.6.6.6.6.6.0.5.;.G F Y Y Y Y ",
"Y Y Y Y Y Y H J %X3XXXl.6.6.6.6.6.6.6.6.6.6.c..Xn.6.6.6.6.6.6.6.c.#X#Xk.6.8.8.u.u.u.u.8.6.6.6.6.6.6.6.6.6.6.0.L.L T Y Y Y Y Y Y ",
"Y Y G G J A 2.7.R.%XXXh.6.6.6.4.4.6.8.6.6.u.).OXu.6.6.8.6.6.6.6.v.;X;X).m.K.I.).T.T.).I.v.u.6.6.6.6.6.6.6.6.k.XXG Y Y Y Y Y Y Y ",
"H J K ;.<.5.6.6.k.XXXXk.6.6.4.s s -.B.V.x.S.=X.X8.6.6.6.6.6.6.6.c.;X<X<X;X-X<X>X>X>X>X;X+XK.5.6.6.6.6.6.6.h.R.;XF F Y Y Y Y Y Y ",
"K L ;.1.6.6.6.6.8.U..Xk.6.6.9.a = u { /.(.[.>X+Xu.6.6.6.6.6.6.6.u.$XqXqXqXqXqXqXqXqXqXqXqX4Xa.&.4.6.0.0.c.Y.%X>XY Y Y Y Y Y Y Y ",
";.L K 2.6.6.6.6.6.c.U.h.8.6.w.p . % [ 1X1X1X1X=XV.8.u.6.6.6.6.6.u.9XaXsXsXsXsXsXsXsXsXsXsXsX5Xc r t f.R. X@X@X%XT F Y Y Y Y Y Y ",
"K K K :.6.6.6.6.6.0.m.q.6.6.h.C +   ` *X2X2X2X<X).l.6.6.6.6.6.6.0.0XfXfXfXfXfXfXfXfXfXfXfXfXrXQ + & / R.U.L.L.U.L H Y Y Y Y Y Y ",
"K K K ;.5.6.6.6.6.6.h.8.q.6.u.i.:   S &X2X2X2X<X).u.6.6.6.6.6.6.0.9XdXfXfXfXfXfXfXfXfXfXfXfXsX`.X : *.w.q.8.0.0.,.;.G Y Y Y Y Y ",
"H J K ;.,.6.6.6.6.6.8.q.u.8.0.s.0   < _.2X2X2X<X).u.6.6.6.6.6.6.6.6XuXiXiXiXiXiXiXiXiXiXiXiXiX3X2 s 4.4.6.6.6.6.6.1.J Y Y Y Y Y ",
"Y J J K x.6.6.6.6.6.8.0.m.v.b.J.5   @ ` 2X2X2X<X).u.6.6.6.6.6.6.6.s.{ } } } } } } } } } } } } Q f 3.6.6.6.6.6.6.5.w.C.| Y Y Y Y ",
"Y Y J J f.0.6.6.8.6.0.V. XXXXX{.8     P *X2X2X2X#Xv.6.6.6.6.6.6.8.n o                         * o.6.6.6.6.6.6.6.8.0.f.| Y Y Y Y ",
"Y Y Y H C.g.6.6.6.6.v. X@X3X%X3XU @   4 _.2X2X2X>X).q.6.6.6.6.6.w.t                     .     9 $.6.6.6.6.6.6.6.6.9.d.D.Y Y Y Y ",
"Y Y Y F D.d.0.6.7.w.U.XX@X3X%X>X' %   @ [ ,X1X<X<X;Xn.6.6.6.6.6.U.F.} } } } } } Q %   X U ] } { 9.6.6.6.6.6.6.6.6.8.s.D.Y Y Y Y ",
"Y Y Y Y , p @.5.4.@.m p | | ....> X     D ~.[.[.}.<XOXV.h.h.M.6XyXuXiXiXiXiXiXiXrX'     } rXiXuXoX6.6.6.6.6.6.6.6.5.@.u F F Y Y ",
"Y Y Y Y , 1 p @.+.M v i ........> @     4 [ ~.^.'.*X<X-X+X9XyXpXdXfXfXfXfXfXfXdXuX{.* . U rXfXfXtX8.6.6.6.6.6.6.6.6.+.3 F F Y Y ",
"Y Y Y Y , , 1 c M v v p | .. . ., $     @ Q ^.^.^.&X2X<X>XeXdXfXfXfXfXfXfXfXdXtX6XE.Z - 4 5XfXfXpXW.6.6.6.6.6.6.6.4.v 2 Y Y Y Y ",
"Y Y Y Y , , , 3 v v c u |  .| ~., >       S {  .~.^.=XOXT.+XyXiXaXaXpXpXpXpXtXP.8.q.0.X.y ].uXpXpX9X4.6.6.6.6.6.6.@.i , Y Y Y Y ",
"Y Y Y Y Y Y Y Y 3 v c 2 , 2 3 u u 3 : O   @ 6 8 B K B.j.8.u.n..X;X;XoXW.W.W.P.8.6.6.8.w.t.t.!.W.).E.>.4.6.6.6.6.y.K G Y Y Y Y Y ",
"Y Y Y Y Y Y Y Y , u p 3 3 v +.@.+.M b q & O q s q w p.8.6.6.0.x./.^.B.6.6.6.6.6.6.6.6.w.r.r.e.6.6.6.O.s 4.6.6.4.:.J T Y Y Y Y Y ",
"Y Y Y Y Y Y Y Y , 1 2 u M 4.4.6.6.5.#.O.b t e     q 1.6.6.6.6.8.b.S.Z.8.6.6.6.6.6.6.5.w.r.r.r.6.6.6.#.q s #.&.&.5.;.G Y Y Y Y Y ",
"Y Y Y Y Y Y Y Y , , 3 M 4.6.6.6.6.6.6.5.6.$.c =   q 4.6.6.6.6.6.8.g.h.8.6.6.8.6.6.6.8.w.Q.t.Q.z.j.j.2.p e O.4.6.6.1.J Y Y Y Y Y ",
"D D F R F F F F F F H 5.8.l.M.u.6.6.6.6.6.6.<.d . - #.6.6.6.6.6.6.6.6.6.6.6.6.8.6.6.6.8.n.T.J.(.G./.G.! o.4.6.6.6.,.L H F F Y Y ",
"F W F F F W F F Y F K 7.8.l.u.6.6.6.6.6.6.6.<.B # + s 6.6.6.6.6.6.6.6.6.6.6.6.6.6.6.6.6.h.Z./.^.^.^.^.) &.6.4.,.,.:.L K J G G Y ",
"F W F F F F F R Y Y K 7.q.0.q.6.6.6.6.6.6.6.,.V ; . q 3.6.6.6.6.6.6.6.6.6.6.6.6.6.6.6.6.6.x.G.^.^.^.^.C.4.6.4.$.,.:.K ;.;.K K H ",
"F D F F F E F F Y Y L 5.l.6.6.6.6.6.6.6.6.6.,.A 3 . - o.6.6.6.6.6.6.6.6.6.6.6.6.6.6.6.6.8.j.S.[.[.[.[.(.7.6.6.6.6.7.;.L K H G H ",
"F D F F F U F U Y Y K 2.M.q.6.6.6.6.6.6.6.6.4.5.M + o 0 p.y.8.6.8.6.8.y.6.6.6.6.6.6.6.u.8.c..X<X,X,X<X=XZ.4.6.6.6.6.5.<.;.J F G ",
"F W W F F F F F Y Y J :.W.l.6.6.6.6.6.6.6.6.6.6.$.-     F C.d.8.6.6.x.x.q.6.6.6.6.6.6.u.8.n.#X2X2X2X<X<X(.7.6.6.6.6.6.6.8.:.H Y ",
"F D D D U F Y Y Y Y G J 8XW.0.6.6.6.6.6.6.6.6.6.3.e     6 { G.B.u.b.B.V.h.6.6.6.6.6.6.8.v..X;X2X<X-X-X;XT.8.6.6.6.6.8.6.6.5.;.H ",
"F W F F Y Y Y Y Y Y Y G yX8XE.0.6.6.6.6.6.6.6.6.6.n O   : ) ^./././.Z.Z.x.6.6.6.6.6.6.u.S.=X*X*X{.K.c.I.V.5.6.6.6.6.5.5.6.8.:.K ",
"F W Y Y Y Y Y Y fXfXfXfX%XXXL.k.6.6.6.6.6.6.6.6.6.#.*   - K ~.^./.^.^./.b.8.6.6.6.6.6.4.2.~ ! K 1.6.6.8.j.8.6.6.6.6.6.1.6.5.:.H ",
"F D Y Y Y Y Y Y fXfXfXfX3X3X@XU.0.8.6.6.6.6.6.6.6.3.t     C { ^./.^./.G.d.8.6.6.6.6.6.6.4.3.4.4.6.6.6.6.6.8.4.6.6.6.6.1.6.6.2.H ",
"F D D Y Y Y Y Y fXfXfXfX3X3X3XXXs.p.w.6.6.6.6.6.6.6.o.q q m ] ^.^.^./.B.u.8.6.6.6.6.6.6.6.6.6.6.6.6.6.6.6.6.6.6.6.6.6.7.8.4.2.H ",
"F W F Y Y Y Y Y fXfXfXfX3X3X3X%XZ.f.s.6.6.6.6.6.6.6.@.e q . W ^.^.~./.A.u.6.6.6.6.6.6.6.6.6.6.6.6.6.6.6.6.8.8.6.6.6.6.4.6.6.<.H ",
"Y Y Y Y Y Y Y Y 3X3X3X3X3X3X3X%X X XR.k.6.6.6.6.6.6.$.9   . h | ^.^.~.J &.6.6.6.6.6.6.6.6.6.6.6.6.6.6.6.6.6.5.6.6.6.6.6.6.6.-.H ",
"Y Y Y Y Y Y Y Y 3X3X3X3X3X3X%X+X XXX Xn.6.4.6.6.6.6.4.n q 0 5 ] ^.^.^.T s &.6.6.6.6.6.6.3.#.$.9.8.6.6.6.6.4.4.6.6.6.6.6.6.4.Z F ",
"Y Y F F W F Y Y 3X3X3X3X3X3X%XR. X%X%XL.8.6.6.6.6.6.6.3.3.O.b ^ G./.^.' u s 4.6.6.6.6.6.O.r q a.j.6.6.6.6.6.6.6.6.6.4.8.6.=.B D ",
"Y Y F F G J K J %X%X@X@X@X3X%X X X%X|. X4.4.4.4.6.6.6.6.6.6.$.*.N.A.A.[ 6 0 O.4.6.6.6.4.#.t * l B.u.8.6.6.6.6.6.6.&.>.&.=.N j h ",
"Y Y Y G ;.5.8.5.T.T.n.l.U.+X3X@X].`.'.].C N B N Z 5.6.6.6.6.6.6.*.V A x 7 g N Z *.>.>.>.-.X.9 % d B Z 1.q.5.8.q.,.C z B l g h 7 ",
"Y Y F J 4.6.6.6.6.u.6.6.u.).3X%XXXH.`.H.N l l z C 5.6.6.6.6.6.6.3.t t r d 7 g z Z =.=.*.s.O.r o     - c p.d.b.Z.C l h h h h h h ",
"Y Y T ;.6.6.6.6.6.6.6.6.0.U.%X3X|.H.H.H.x g j N N =.6.6.6.6.6.6.6.o.t n f h h j N Z *.*.s.%.t =     . & T H.H.H.k h h h 7 h h h ",
"Y Y F ;.6.6.6.6.6.6.6.6.6.k.R.%X3X'.J.H.j h j z z B ,.6.6.6.6.6.6.#.a O.v g 7 k z N C N C.~ A l 8 8 8 8 U ..`._.7 h h h h h h h ",
"Y Y Y J u.u.6.6.6.6.6.6.6.q.v.XX| ] ' ( ' ' ' ( B l N 5.6.6.6.6.6.3.*.Z C l h g ' ( ) ) J.A.F.D.........Q ' ' ' ' ' ' ' h h h h ",
"Y Y Y G x.6.6.6.6.6.6.6.6.6.0.U.D.} ' ' ' ' ' ' B z j C 3.6.6.6.6.5.=.*.N x h h ' ( ( ( H.H.J.`.`.`.`.`.' ' ' ' Q ' ' ' h h h h ",
"Y Y Y Y A.y.6.4.6.0.6.6.6.6.8.L.D.} ' ' ' ' ' ' l N B z C >.5.6.6.&.=.Z B j h h ' ' ' ' `./.`.`.`.`.`.`.' ' ' ' ' ' ' ' h h 7 h ",
"Y Y Y Y ~.{ B.s.P.K.0.q.h.k.m. X| | [ ] ' ' ' ` h g z N C Z -.,.>.Z z l j h h 7 ' ' ' ' `.`.`.`.`.`.`.`.' ' ' ' ' ' ' / h h h h ",
"Y Y Y Y , , 1 2 i p o.#.B.C.C.| , , , , , , > $ h h j j l x x z z l h h h h h h $ $ $ $ $ $ $ $ ' ' ' ' $ $ $ $ $ $ $ $ 7 h h h ",
"Y Y Y Y , , , , , 1 3 u | | | .., , , , , , , $ h 7 h 7 h h h h h h h h h h h h $ $ $ $ $ $ $ $ ' ' ' ' $ $ $ $ $ $ $ $ 7 h h h ",
"Y Y Y Y , , , , , , , , ........, , , , , , , $ h h h h h h h h h h h 7 h h 7 h $ $ $ $ $ $ $ $ ' ' ' ' $ $ $ $ $ $ $ $ h h h h ",
"Y Y Y Y , , , , , , , , ..| ...., , , , , , , > h h D h h h 7 D h h h k h k h h $ $ $ > $ $ $ $ ] ' ' ' $ $ $ > $ $ $ $ h h h h ",
"Y Y Y Y Y Y Y Y , > , , , , , , , , , , Y Y Y Y F F Y Y Y Y Y Y I Y Y Y Y Y Y Y Y Y Y Y , , , , , , , , , , , , Y Y Y Y Y Y Y Y ",
"Y Y Y Y Y Y Y Y , , , , , , , , , , , , Y Y Y Y F F Y Y Y Y Y Y Y Y Y Y Y Y Y Y Y Y Y Y > , , , , , , , , , , , Y Y Y Y Y Y Y Y ",
"Y Y Y Y Y Y I I , , , , , , , , , , , , Y Y Y Y Y Y Y Y Y Y Y Y Y Y Y Y Y Y Y Y Y Y I D , , , , , , , , , , , , Y Y Y Y Y Y Y Y ",
"Y Y Y Y Y Y I I , , , , , , , , , , , , Y Y Y Y Y Y Y Y Y Y Y Y Y Y Y Y Y Y Y Y Y Y Y U , , , , , , , , , , , , Y Y Y Y Y Y Y Y "
};
