/* XPM */
static char *result[] = {
/* columns rows colors chars-per-pixel */
"64 64 13 1 ",
"  c #060608",
". c #412320",
"X c #59302C",
"o c #5C322D",
"O c #6D3B36",
"+ c gray36",
"@ c #434F65",
"# c #9A544C",
"$ c #6F7F9F",
"% c gray55",
"& c gray68",
"* c #A6B0C4",
"= c white",
/* pixels */
"*@@@$$$$$$$$$$$$$$$@@@$$$$$$$$$$$$$$$$$$$@@@$$$$$$$$$$$$$$$@@@**",
"*@@@$$$$$$$$$$$$$$$@@@$$$$$$$$$$$$$$$$$$$@@@$$$$$$$$$$$$$$$@@@**",
"*@@@$$$$$$$$$$$$$$$@@@$$$$$$$$$$$$$$$$$$$@@@$$$$$$$$$$$$$$$@@@**",
"$@@@$$$$$$$$$$$$$$$XXX...XXXXXXXXXXXXX...XXX$$$$$$$$$$$$$$$@@@$$",
"$@@@$$$$$$$$$$$$$$$XXX...XXXXXXXXXXXXX...XXX$$$$$$$$$$$$$$$@@@$$",
"$@@@$$$$$$$$$$$$$$$XXX...XXXXXXXXXXXXX...XXX$$$$$$$$$$$$$$$@@@$$",
"$XXXXXXXXX...XXXXXXXXX...XXXXXXXXXXXXX...XXXXXXXXX...XXXXXXXXX$$",
"$XXXXXXXXX...XXXXXXXXX...XXXXXXXXXXXXX...XXXXXXXXX...XXXXXXXXX$$",
"$XXXXXXXXX...XXXXXXXXX...XXXXXXXXXXXXX...XXXXXXXXX...XXXXXXXXX$$",
"$XXXXXXXXX...OOOOOOOOOoooOOOOOOOOOOOOOoooOOOOOOOOO...XXXXXXXXX$$",
"$XXXXXXXXX...OOOOOOOOOoooOOOOOOOOOOOOOoooOOOOOOOOO...XXXXXXXXX$$",
"$XXXXXXXXX...OOOOOOOOOoooOOOOOOOOOOOOOoooOOOOOOOOO...XXXXXXXXX$$",
"@OOOOOOOOOoooOOOOOOOOOoooOOOOOOOOOOOOOoooOOOOOOOOOoooOOOOOOOOO@@",
"@OOOOOOOOOoooOOOOOOOOOoooOOOOOOOOOOOOOoooOOOOOOOOOoooOOOOOOOOO@@",
"@OOOOOOOOOoooOOOOOOOOOoooOOOOOOOOOOOOOoooOOOOOOOOOoooOOOOOOOOO@@",
"*%%%%%%&&&oooOOOOOOOOOooo                OOOOOOOOOoooOOOOOOOOO**",
"*%%%%%%&&&oooOOOOOOOOOooo                OOOOOOOOOoooOOOOOOOOO**",
"*%%%%%%&&&oooOOOOOOOOOooo                OOOOOOOOOoooOOOOOOOOO**",
"*%%%%%%&&&oooOOOOOOOOOooo                OOOOOOOOOoooOOOOOOOOO**",
"$%%%&&&&&&oooOOOOOOOOO   ++++&&&&&&======   OOOOOOoooOOOOOOOOO$$",
"$%%%&&&&&&oooOOOOOOOOO   ++++&&&&&&======   OOOOOOoooOOOOOOOOO$$",
"$%%%&&&&&&oooOOOOOOOOO   ++++&&&&&&======   OOOOOOoooOOOOOOOOO$$",
"$OOOOOOOOOoooOOOOOO   +++&&&&         +++===   OOOoooOOOOOOOOO$$",
"$OOOOOOOOOoooOOOOOO   +++&&&&         +++===   OOOoooOOOOOOOOO$$",
"$OOOOOOOOOoooOOOOOO   +++&&&&         +++===   OOOoooOOOOOOOOO$$",
"$OOOOOOOOOoooOOOOOO   +++&&&&         +++===   OOOoooOOOOOOOOO$$",
"$OOOOOOOOOoooOOOOOO   +++&&&&         +++===   OOOoooOOOOOOOOO$$",
"$OOOOOOOOOoooOOOOOO   +++&&&&         +++===   OOOoooOOOOOOOOO$$",
"$OOOOOOOOOoooOOO   +++&&&&&&&&&&&&&&&&&&&&&&===   oooOOO&&&OOO$$",
"$OOOOOOOOOoooOOO   +++&&&&&&&&&&&&&&&&&&&&&&===   oooOOO&&&OOO$$",
"$OOOOOOOOOoooOOO   +++&&&&&&&&&&&&&&&&&&&&&&===   oooOOO&&&OOO$$",
"@OOOOOOOOOoooOOO   +++&&&&&&&&&&&&&&&&&&&&&&===   oooOOO&&&OOO@@",
"@OOOOOOOOOoooOOO   +++&&&&&&&&&&&&&&&&&&&&&&===   oooOOO&&&OOO@@",
"@OOOOOOOOOoooOOO   +++&&&&&&&&&&&&&&&&&&&&&&===   oooOOO&&&OOO@@",
"*OOOOOOOOOoooOOO   +++&&&&&&&&&&      &&&&&&===   oooOOO&&&OOO**",
"*OOOOOOOOOoooOOO   +++&&&&&&&&&&      &&&&&&===   oooOOO&&&OOO**",
"*OOOOOOOOOoooOOO   +++&&&&&&&&&&      &&&&&&===   oooOOO&&&OOO**",
"$OOOOOOOOOoooOOO   +++&&&&&&&&&&      &&&&&&&&&   oooOOO&&&OOO$$",
"$OOOOOOOOOoooOOO   +++&&&&&&&&&&      &&&&&&&&&   oooOOO&&&OOO$$",
"$OOOOOOOOOoooOOO   +++&&&&&&&&&&      &&&&&&&&&   oooOOO&&&OOO$$",
"$OOOOOOOOOoooOOO   +++&&&&&&&&&&      &&&&&&&&&   oooOOO&&&OOO$$",
"$OOOOOOOOOoooOOO   +++&&&&&&&&&&      &&&&&&&&&   oooOOO&&&OOO$$",
"$OOOOOOOOOoooOOO   +++&&&&&&&&&&      &&&&&&&&&   oooOOO&&&OOO$$",
"$OOOOOOOOOoooOOO   +++&&&&&&&&&&&&&&&&&&&&&&&&&   oooOOOOOOOOO$$",
"$OOOOOOOOOoooOOO   +++&&&&&&&&&&&&&&&&&&&&&&&&&   oooOOOOOOOOO$$",
"$OOOOOOOOOoooOOO   +++&&&&&&&&&&&&&&&&&&&&&&&&&   oooOOOOOOOOO$$",
"$OOOOOOOOOoooOOO   +++&&&&&&&&&&&&&&&&&&&&&&&&&   oooOOOOOOOOO$$",
"$OOOOOOOOOoooOOO   +++&&&&&&&&&&&&&&&&&&&&&&&&&   oooOOOOOOOOO$$",
"$OOOOOOOOOoooOOO   +++&&&&&&&&&&&&&&&&&&&&&&&&&   oooOOOOOOOOO$$",
"@OOOOOOOOOoooOOOOOO                            OOOoooOOOOOOOOO@@",
"@OOOOOOOOOoooOOOOOO                            OOOoooOOOOOOOOO@@",
"@OOOOOOOOOoooOOOOOO                            OOOoooOOOOOOOOO@@",
"*%%%%%%&&&oooOOOOOOOOOoooOOOOOOOOOOOOOoooOOOOOOOOOoooOOOOOOOOO**",
"*%%%%%%&&&oooOOOOOOOOOoooOOOOOOOOOOOOOoooOOOOOOOOOoooOOOOOOOOO**",
"*%%%%%%&&&oooOOOOOOOOOoooOOOOOOOOOOOOOoooOOOOOOOOOoooOOOOOOOOO**",
"*%%%%%%&&&oooOOOOOOOOOoooOOOOOOOOOOOOOoooOOOOOOOOOoooOOOOOOOOO**",
"$%%%&&&&&&oooOOOOOOOOOoooOOOOOOOOOOOOOoooOOOOOOOOOoooOOOOOOOOO$$",
"$%%%&&&&&&oooOOOOOOOOOoooOOOOOOOOOOOOOoooOOOOOOOOOoooOOOOOOOOO$$",
"$%%%&&&&&&oooOOOOOOOOOoooOOOOOOOOOOOOOoooOOOOOOOOOoooOOOOOOOOO$$",
"$OOOOOOOOOoooOOOOOOOOOoooOOOOOOOOOOOOOoooOOOOOOOOOoooOOOOOOOOO$$",
"$OOOOOOOOOoooOOOOOOOOOoooOOOOOOOOOOOOOoooOOOOOOOOOoooOOOOOOOOO$$",
"$OOOOOOOOOoooOOOOOOOOOoooOOOOOOOOOOOOOoooOOOOOOOOOoooOOOOOOOOO$$",
"$#########ooo#########ooo#############ooo#########ooo#########$$",
"$#########ooo#########ooo#############ooo#########ooo#########$$"
};
