/* XPM */
static char *result[] = {
/* columns rows colors chars-per-pixel */
"64 64 13 1 ",
"  c #060608",
". c #412320",
"X c #59302C",
"o c #5C322D",
"O c #6D3B36",
"+ c gray36",
"@ c #434F65",
"# c #9A544C",
"$ c #6F7F9F",
"% c gray55",
"& c gray68",
"* c #A6B0C4",
"= c white",
/* pixels */
"@@$$$$$$$$$$$$$$$$@@@$$$$$$$$$$$$$$$$$$$@@@$$$$$$$$$$$$$$$$@@@**",
"@@$$$$$$$$$$$$$$$$XXX...XXXXXXXXXXXXX...XXX$$$$$$$$$$$$$$$$@@@$$",
"@@$$$$$$$$$$$$$$$$XXX...XXXXXXXXXXXXX...XXX$$$$$$$$$$$$$$$$@@@$$",
"@@$$$$$$$$$$$$$$$$XXX...XXXXXXXXXXXXX...XXX$$$$$$$$$$$$$$$$@@@$$",
"XXXXXXXXX...XXXXXXXXX...XXXXXXXXXXXXX...XXXXXXXXXX...XXXXXXXXX$$",
"XXXXXXXXX...XXXXXXXXX...XXXXXXXXXXXXX...XXXXXXXXXX...XXXXXXXXX$$",
"XXXXXXXXX...XXXXXXXXX...XXXXXXXXXXXXX...XXXXXXXXXX...XXXXXXXXX$$",
"XXXXXXXXX...OOOOOOOOOoooOOOOOOOOOOOOOoooOOOOOOOOOO...XXXXXXXXX$$",
"XXXXXXXXX...OOOOOOOOOoooOOOOOOOOOOOOOoooOOOOOOOOOO...XXXXXXXXX$$",
"XXXXXXXXX...OOOOOOOOOoooOOOOOOOOOOOOOoooOOOOOOOOOO...XXXXXXXXX$$",
"OOOOOOOOOoooOOOOOOOOOoooOOOOOOOOOOOOOoooOOOOOOOOOOoooOOOOOOOOO@@",
"OOOOOOOOOoooOOOOOOOOOoooOOOOOOOOOOOOOoooOOOOOOOOOOoooOOOOOOOOO@@",
"OOOOOOOOOoooOOOOOOOOOoooOOOOOOOOOOOOOoooOOOOOOOOOOoooOOOOOOOOO@@",
"%%%%%%&&&oooOOOOOOOOOoooOOOOOOOOOOOOOoooOOOOOOOOOOoooOOOOOOOOO**",
"%%%%%%&&&oooOOOOOOOOOoooOOOOOOOOOOOOOoooOOOOOOOOOOoooOOOOOOOOO**",
"%%%%%%&&&oooOOOOOOOOOoooOOOOOOOOOOOOOoooOOOOOOOOOOoooOOOOOOOOO**",
"%%%%%%&&&oooOOOOOOOOOoooOOOOOOOOOOOOOoooOOOOOOOOOOoooOOOOOOOOO**",
"%%&&&&&&&oooOOOOOOOOOoooOOOOOOOOOOOOOoooOOOOOOOOOOoooOOOOOOOOO$$",
"%%&&&&&&&oooOOOOOOOOOoooOOOOOOOOOOOOOoooOOOOOOOOOOoooOOOOOOOOO$$",
"%%&&&&&&&oooOOOOOOOOOoooOOOOOOOOOOOOOoooOOOOOOOOOOoooOOOOOOOOO$$",
"OOOOOOOOOoooOOOOOOOOOooo       OOOOOOoooOOOOOOOOOOoooOOOOOOOOO$$",
"OOOOOOOOOoooOOOOOOOOOooo       OOOOOOoooOOOOOOOOOOoooOOOOOOOOO$$",
"OOOOOOOOOoooOOOOOOOOOooo       OOOOOOoooOOOOOOOOOOoooOOOOOOOOO$$",
"OOOOOOOOOoooOOOOOOOOO       ======   oooOOOOOOOOOOoooOOOOOOOOO$$",
"OOOOOOOOOoooOOOOOOOOO       ======   oooOOOOOOOOOOoooOOOOOOOOO$$",
"OOOOOOOOOoooOOOOOOOOO       ======   oooOOOOOOOOOOoooOOOOOOOOO$$",
"OOOOOOOOOoooOOOOOOOOO&&&    &&&&&&&&&oooOOOOOOOOOOoooOOO&&&OOO$$",
"OOOOOOOOOoooOOOOOOOOO&&&    &&&&&&&&&oooOOOOOOOOOOoooOOO&&&OOO$$",
"OOOOOOOOOoooOOOOOOOOO&&&    &&&&&&&&&oooOOOOOOOOOOoooOOO&&&OOO$$",
"OOOOOOOOOoooOOOOOOOOO+++&&&&&&&   &&&&&&OOOOOOOOOOoooOOO&&&OOO@@",
"OOOOOOOOOoooOOOOOOOOO+++&&&&&&&   &&&&&&OOOOOOOOOOoooOOO&&&OOO@@",
"OOOOOOOOOoooOOOOOOOOO+++&&&&&&&   &&&&&&OOOOOOOOOOoooOOO&&&OOO@@",
"OOOOOOOOOoooOOOOOOOOO   &&&&&&&&&&&&&   OOOOOOOOOOoooOOO&&&OOO**",
"OOOOOOOOOoooOOOOOOOOO   &&&&&&&&&&&&&   OOOOOOOOOOoooOOO&&&OOO**",
"OOOOOOOOOoooOOOOOOOOO   &&&&&&&&&&&&&   OOOOOOOOOOoooOOO&&&OOO**",
"OOOOOOOOOoooOOOOOOOOO   &&&&&&&&&&&&&   OOOOOOOOOOoooOOO&&&OOO**",
"OOOOOOOOOoooOOOOOOOOOooo++++&&&&&&&&&oooOOOOOOOOOOoooOOO&&&OOO$$",
"OOOOOOOOOoooOOOOOOOOOooo++++&&&&&&&&&oooOOOOOOOOOOoooOOO&&&OOO$$",
"OOOOOOOOOoooOOOOOOOOOooo++++&&&&&&&&&oooOOOOOOOOOOoooOOO&&&OOO$$",
"OOOOOOOOOoooOOOOOOOOOoooOOOO+++   OOOoooOOOOOOOOOOoooOOO&&&OOO$$",
"OOOOOOOOOoooOOOOOOOOOoooOOOO+++   OOOoooOOOOOOOOOOoooOOO&&&OOO$$",
"OOOOOOOOOoooOOOOOOOOOoooOOOO+++   OOOoooOOOOOOOOOOoooOOO&&&OOO$$",
"OOOOOOOOOoooOOOOOOOOOoooOOOOOOOOOOOOOoooOOOOOOOOOOoooOOOOOOOOO$$",
"OOOOOOOOOoooOOOOOOOOOoooOOOOOOOOOOOOOoooOOOOOOOOOOoooOOOOOOOOO$$",
"OOOOOOOOOoooOOOOOOOOOoooOOOOOOOOOOOOOoooOOOOOOOOOOoooOOOOOOOOO$$",
"OOOOOOOOOoooOOOOOOOOOoooOOOOOOOOOOOOOoooOOOOOOOOOOoooOOOOOOOOO$$",
"OOOOOOOOOoooOOOOOOOOOoooOOOOOOOOOOOOOoooOOOOOOOOOOoooOOOOOOOOO$$",
"OOOOOOOOOoooOOOOOOOOOoooOOOOOOOOOOOOOoooOOOOOOOOOOoooOOOOOOOOO$$",
"OOOOOOOOOoooOOOOOOOOOoooOOOOOOOOOOOOOoooOOOOOOOOOOoooOOOOOOOOO@@",
"OOOOOOOOOoooOOOOOOOOOoooOOOOOOOOOOOOOoooOOOOOOOOOOoooOOOOOOOOO@@",
"OOOOOOOOOoooOOOOOOOOOoooOOOOOOOOOOOOOoooOOOOOOOOOOoooOOOOOOOOO@@",
"%%%%%%&&&oooOOOOOOOOOoooOOOOOOOOOOOOOoooOOOOOOOOOOoooOOOOOOOOO**",
"%%%%%%&&&oooOOOOOOOOOoooOOOOOOOOOOOOOoooOOOOOOOOOOoooOOOOOOOOO**",
"%%%%%%&&&oooOOOOOOOOOoooOOOOOOOOOOOOOoooOOOOOOOOOOoooOOOOOOOOO**",
"%%%%%%&&&oooOOOOOOOOOoooOOOOOOOOOOOOOoooOOOOOOOOOOoooOOOOOOOOO**",
"%%&&&&&&&oooOOOOOOOOOoooOOOOOOOOOOOOOoooOOOOOOOOOOoooOOOOOOOOO$$",
"%%&&&&&&&oooOOOOOOOOOoooOOOOOOOOOOOOOoooOOOOOOOOOOoooOOOOOOOOO$$",
"%%&&&&&&&oooOOOOOOOOOoooOOOOOOOOOOOOOoooOOOOOOOOOOoooOOOOOOOOO$$",
"OOOOOOOOOoooOOOOOOOOOoooOOOOOOOOOOOOOoooOOOOOOOOOOoooOOOOOOOOO$$",
"OOOOOOOOOoooOOOOOOOOOoooOOOOOOOOOOOOOoooOOOOOOOOOOoooOOOOOOOOO$$",
"OOOOOOOOOoooOOOOOOOOOoooOOOOOOOOOOOOOoooOOOOOOOOOOoooOOOOOOOOO$$",
"#########ooo#########ooo#############ooo##########ooo#########$$",
"#########ooo#########ooo#############ooo##########ooo#########$$",
"#########ooo#########ooo#############ooo##########ooo#########$$"
};
