/* XPM */
static char *result[] = {
/* columns rows colors chars-per-pixel */
"64 64 10 1 ",
"  c #412320",
". c #59302C",
"X c #5C322D",
"o c #6D3B36",
"O c #434F65",
"+ c #9A544C",
"@ c #6F7F9F",
"# c gray55",
"$ c gray68",
"% c #A6B0C4",
/* pixels */
"OO@@@@@@@@@@@@@@@@....   .............   ...@@@@@@@@@@@@@@@@OOO@",
"OO@@@@@@@@@@@@@@@@....   .............   ...@@@@@@@@@@@@@@@@OOO@",
"OO@@@@@@@@@@@@@@@@....   .............   ...@@@@@@@@@@@@@@@@OOO@",
".........   ..........   .............   .........    .........@",
".........   ..........   .............   .........    .........@",
".........   ..........   .............   .........    .........@",
".........   ooooooooooXXXoooooooooooooXXXooooooooo    .........@",
".........   ooooooooooXXXoooooooooooooXXXooooooooo    .........@",
".........   ooooooooooXXXoooooooooooooXXXooooooooo    .........@",
".........   ooooooooooXXXoooooooooooooXXXooooooooo    .........@",
"oooooooooXXXooooooooooXXXoooooooooooooXXXoooooooooXXXXoooooooooO",
"oooooooooXXXooooooooooXXXoooooooooooooXXXoooooooooXXXXoooooooooO",
"oooooooooXXXooooooooooXXXoooooooooooooXXXoooooooooXXXXoooooooooO",
"######$$$XXXooooooooooXXXoooooooooooooXXXoooooooooXXXXooooooooo%",
"######$$$XXXooooooooooXXXoooooooooooooXXXoooooooooXXXXooooooooo%",
"######$$$XXXooooooooooXXXoooooooooooooXXXoooooooooXXXXooooooooo%",
"##$$$$$$$XXXooooooooooXXXoooooooooooooXXXoooooooooXXXXooooooooo@",
"##$$$$$$$XXXooooooooooXXXoooooooooooooXXXoooooooooXXXXooooooooo@",
"##$$$$$$$XXXooooooooooXXXoooooooooooooXXXoooooooooXXXXooooooooo@",
"oooooooooXXXooo$$$ooooXXXoooooooooooooXXXooo$$$oooXXXXooooooooo@",
"oooooooooXXXooo$$$ooooXXXoooooooooooooXXXooo$$$oooXXXXooooooooo@",
"oooooooooXXXooo$$$ooooXXXoooooooooooooXXXooo$$$oooXXXXooooooooo@",
"oooooooooXXXooooooooooXXXoooooooooooooXXXoooooooooXXXXooooooooo@",
"oooooooooXXXooooooooooXXXoooooooooooooXXXoooooooooXXXXooooooooo@",
"oooooooooXXXooooooooooXXXoooooooooooooXXXoooooooooXXXXooooooooo@",
"oooooooooXXXooooooooooXXXoooooooooooooXXXoooooooooXXXXooooooooo@",
"oooooooooXXXooooooooooXXXoooooooooooooXXXoooooooooXXXXooo$$$ooo@",
"oooooooooXXXooooooooooXXXoooooooooooooXXXoooooooooXXXXooo$$$ooo@",
"oooooooooXXXooooooooooXXXoooooooooooooXXXoooooooooXXXXooo$$$ooo@",
"oooooooooXXXooooooooooXXXoooooooooooooXXXoooooooooXXXXooo$$$oooO",
"oooooooooXXXooooooooooXXXoooooooooooooXXXoooooooooXXXXooo$$$oooO",
"oooooooooXXXooooooooooXXXoooooooooooooXXXoooooooooXXXXooo$$$oooO",
"oooooooooXXXooooooooooXXXoooooooooooooXXXoooooooooXXXXooo$$$ooo%",
"oooooooooXXXooooooooooXXXoooooooooooooXXXoooooooooXXXXooo$$$ooo%",
"oooooooooXXXooooooooooXXXoooooooooooooXXXoooooooooXXXXooo$$$ooo%",
"oooooooooXXXooooooooooXXXoooooooooooooXXXoooooooooXXXXooo$$$ooo@",
"oooooooooXXXooooooooooXXXoooooooooooooXXXoooooooooXXXXooo$$$ooo@",
"oooooooooXXXooooooooooXXXoooooooooooooXXXoooooooooXXXXooo$$$ooo@",
"oooooooooXXXooooooooooXXXoooooooooooooXXXoooooooooXXXXooo$$$ooo@",
"oooooooooXXXooooooooooXXXoooooooooooooXXXoooooooooXXXXooo$$$ooo@",
"oooooooooXXXooooooooooXXXoooooooooooooXXXoooooooooXXXXooo$$$ooo@",
"oooooooooXXXooooooooooXXXoooooooooooooXXXoooooooooXXXXooo$$$ooo@",
"oooooooooXXXooooooooooXXXoooooooooooooXXXoooooooooXXXXooooooooo@",
"oooooooooXXXooooooooooXXXoooooooooooooXXXoooooooooXXXXooooooooo@",
"oooooooooXXXooooooooooXXXoooooooooooooXXXoooooooooXXXXooooooooo@",
"oooooooooXXXoooooo$$$$XXXoooooooooooooXXXooo$$$oooXXXXooooooooo@",
"oooooooooXXXoooooo$$$$XXXoooooooooooooXXXooo$$$oooXXXXooooooooo@",
"oooooooooXXXoooooo$$$$XXXoooooooooooooXXXooo$$$oooXXXXooooooooo@",
"oooooooooXXXooooooooooXXXoooooooooooooXXXoooooooooXXXXoooooooooO",
"oooooooooXXXooooooooooXXXoooooooooooooXXXoooooooooXXXXoooooooooO",
"oooooooooXXXooooooooooXXXoooooooooooooXXXoooooooooXXXXoooooooooO",
"######$$$XXXooooooooooXXXoooooooooooooXXXoooooooooXXXXooooooooo%",
"######$$$XXXooooooooooXXXoooooooooooooXXXoooooooooXXXXooooooooo%",
"######$$$XXXooooooooooXXXoooooooooooooXXXoooooooooXXXXooooooooo%",
"##$$$$$$$XXXooooooooooXXXoooooooooooooXXXoooooooooXXXXooooooooo@",
"##$$$$$$$XXXooooooooooXXXoooooooooooooXXXoooooooooXXXXooooooooo@",
"##$$$$$$$XXXooooooooooXXXoooooooooooooXXXoooooooooXXXXooooooooo@",
"##$$$$$$$XXXooooooooooXXXoooooooooooooXXXoooooooooXXXXooooooooo@",
"oooooooooXXXooooooooooXXXoooooooooooooXXXoooooooooXXXXooooooooo@",
"oooooooooXXXooooooooooXXXoooooooooooooXXXoooooooooXXXXooooooooo@",
"oooooooooXXXooooooooooXXXoooooooooooooXXXoooooooooXXXXooooooooo@",
"+++++++++XXX++++++++++XXX+++++++++++++XXX+++++++++XXXX+++++++++@",
"+++++++++XXX++++++++++XXX+++++++++++++XXX+++++++++XXXX+++++++++@",
"+++++++++XXX++++++++++XXX+++++++++++++XXX+++++++++XXXX+++++++++@"
};
