/* XPM */
static char *result[] = {
/* columns rows colors chars-per-pixel */
"64 64 6 1 ",
"  c #412320",
". c #59302C",
"X c #434F65",
"o c #6F7F9F",
"O c #A6B0C4",
"+ c #060608",
/* pixels */
"XXXooooooooooooooooXXXoooooooooooooooooooXXXoooooooooooooooXXXOO",
"XXXooooooooooooooooXXXoooooooooooooooooooXXXoooooooooooooooXXXOO",
"XXXoooooooooooooooo+++++++++++++++++++++++++oooooooooooooooXXXoo",
"XXXoooooooooooooooo+++++++++++++++++++++++++oooooooooooooooXXXoo",
"XXXoooooooooooooooo+++++++++++++++++++++++++oooooooooooooooXXXoo",
"++++++++++++++++++++++++++++++++++++++++++++++++++++++++++++++oo",
"++++++++++++++++++++++++++++++++++++++++++++++++++++++++++++++oo",
"++++++++++++++++++++++++++++++++++++++++++++++++++++++++++++++oo",
"++++++++++++++++++++++++++++++++++++++++++++++++++++++++++++++oo",
"++++++++++++++++++++++++++++++++++++++++++++++++++++++++++++++oo",
"++++++++++++++++++++++++++++++++++++++++++++++++++++++++++++++oo",
"++++++++++++++++++++++++++++++++++++++++++++++++++++++++++++++XX",
"++++++++++++++++++++++++++++++++++++++++++++++++++++++++++++++XX",
"++++++++++++++++++++++++++++++++++++++++++++++++++++++++++++++XX",
"++++++++++++++++++++++++++++++++++++++++++++++++++++++++++++++OO",
"++++++++++++++++++++++++++++++++++++++++++++++++++++++++++++++OO",
"++++++++++++++++++++++++++++++++++++++++++++++++++++++++++++++OO",
"++++++++++++++++++++++++++++++++++++++++++++++++++++++++++++++oo",
"++++++++++++++++++++++++++++++++++++++++++++++++++++++++++++++oo",
"++++++++++++++++++++++++++++++++++++++++++++++++++++++++++++++oo",
"++++++++++++++++++++++++++++++++++++++++++++++++++++++++++++++oo",
"++++++++++++++++++++++++++++++++++++++++++++++++++++++++++++++oo",
"++++++++++++++++++++++++++++++++++++++++++++++++++++++++++++++oo",
"++++++++++++++++++++++++++++++++++++++++++++++++++++++++++++++oo",
"++++++++++++++++++++++++++++++++++++++++++++++++++++++++++++++oo",
"++++++++++++++++++++++++++++++++++++++++++++++++++++++++++++++oo",
"++++++++++++++++++++++++++++++++++++++++++++++++++++++++++++++oo",
"++++++++++++++++++++++++++++++++++++++++++++++++++++++++++++++oo",
"++++++++++++++++++++++++++++++++++++++++++++++++++++++++++++++oo",
"++++++++++++++++++++++++++++++++++++++++++++++++++++++++++++++oo",
"++++++++++++++++++++++++++++++++++++++++++++++++++++++++++++++XX",
"++++++++++++++++++++++++++++++++++++++++++++++++++++++++++++++XX",
"++++++++++++++++++++++++++++++++++++++++++++++++++++++++++++++XX",
"++++++++++++++++++++++++++++++++++++++++++++++++++++++++++++++OO",
"++++++++++++++++++++++++++++++++++++++++++++++++++++++++++++++OO",
"++++++++++++++++++++++++++++++++++++++++++++++++++++++++++++++OO",
"++++++++++++++++++++++++++++++++++++++++++++++++++++++++++++++oo",
"++++++++++++++++++++++++++++++++++++++++++++++++++++++++++++++oo",
"++++++++++++++++++++++++++++++++++++++++++++++++++++++++++++++oo",
"++++++++++++++++++++++++++++++++++++++++++++++++++++++++++++++oo",
"++++++++++++++++++++++++++++++++++++++++++++++++++++++++++++++oo",
"++++++++++++++++++++++++++++++++++++++++++++++++++++++++++++++oo",
"++++++++++++++++++++++++++++++++++++++++++++++++++++++++++++++oo",
"++++++++++++++++++++++++++++++++++++++++++++++++++++++++++++++oo",
"++++++++++++++++++++++++++++++++++++++++++++++++++++++++++++++oo",
"++++++++++++++++++++++++++++++++++++++++++++++++++++++++++++++oo",
"++++++++++++++++++++++++++++++++++++++++++++++++++++++++++++++oo",
"++++++++++++++++++++++++++++++++++++++++++++++++++++++++++++++oo",
"+++++++++++++++++++                         ++++++++++++++++++XX",
"+++++++++++++++++++                         ++++++++++++++++++XX",
"+++++++++++++++++++                         ++++++++++++++++++XX",
"+++++++++++++++++++                         ++++++++++++++++++XX",
"                                                              OO",
"                                                              OO",
"                                                              OO",
"                                                              oo",
"                                                              oo",
"                                                              oo",
"                   ...   ............    ...                  oo",
"                   ...   ............    ...                  oo",
"                   ...   ............    ...                  oo",
".........   ..........   ............    .........   .........oo",
".........   ..........   ............    .........   .........oo",
".........   ..........   ............    .........   .........oo"
};
