/* XPM */
static char *result[] = {
/* columns rows colors chars-per-pixel */
"64 64 9 1 ",
"  c black",
". c #412320",
"X c #59302C",
"o c #5C322D",
"O c #6D3B36",
"+ c #434F65",
"@ c #6F7F9F",
"# c gray55",
"$ c gray68",
/* pixels */
"+++@@@@@@@@@@@@@@@@                          @@@@@@@@@@@@@@@@+++",
"+++@@@@@@@@@@@@@@@@                          @@@@@@@@@@@@@@@@+++",
"+++@@@@@@@@@@@@@@@@                          @@@@@@@@@@@@@@@@+++",
"                                                                ",
"                                                                ",
"                                                                ",
"                                                                ",
"                                                                ",
"                                                                ",
"                                                                ",
"                                                                ",
"                                                                ",
"                                                                ",
"                   ..........................                   ",
"                   ..........................                   ",
"                   ..........................                   ",
"................................................................",
"................................................................",
"................................................................",
"................................................................",
"................................................................",
"................................................................",
"...................XXX....XXXXXXXXXXXX....XXX...................",
"...................XXX....XXXXXXXXXXXX....XXX...................",
"...................XXX....XXXXXXXXXXXX....XXX...................",
"...................XXX....XXXXXXXXXXXX....XXX...................",
"XXXXXXXXXX...XXXXXXXXX....XXXXXXXXXXXX....XXXXXXXXX...XXXXXXXXXX",
"XXXXXXXXXX...XXXXXXXXX....XXXXXXXXXXXX....XXXXXXXXX...XXXXXXXXXX",
"XXXXXXXXXX...XXXXXXXXX....XXXXXXXXXXXX....XXXXXXXXX...XXXXXXXXXX",
"XXXXXXXXXX...OOOOOOOOOooooOOOOOOOOOOOOooooOOOOOOOOO...XXXXXXXXXX",
"XXXXXXXXXX...OOOOOOOOOooooOOOOOOOOOOOOooooOOOOOOOOO...XXXXXXXXXX",
"XXXXXXXXXX...OOOOOOOOOooooOOOOOOOOOOOOooooOOOOOOOOO...XXXXXXXXXX",
"OOOOOOOOOOoooOOOOOOOOOooooOOOOOOOOOOOOooooOOOOOOOOOoooOOOOOOOOOO",
"OOOOOOOOOOoooOOOOOOOOOooooOOOOOOOOOOOOooooOOOOOOOOOoooOOOOOOOOOO",
"OOOOOOOOOOoooOOOOOOOOOooooOOOOOOOOOOOOooooOOOOOOOOOoooOOOOOOOOOO",
"######$$$$oooOOOOOOOOOooooOOOOOOOOOOOOooooOOOOOOOOOoooOOOOOOOOOO",
"######$$$$oooOOOOOOOOOooooOOOOOOOOOOOOooooOOOOOOOOOoooOOOOOOOOOO",
"######$$$$oooOOOOOOOOOooooOOOOOOOOOOOOooooOOOOOOOOOoooOOOOOOOOOO",
"###$$$$$$$oooOOOOOOOOOooooOOOOOOOOOOOOooooOOOOOOOOOoooOOOOOOOOOO",
"###$$$$$$$oooOOOOOOOOOooooOOOOOOOOOOOOooooOOOOOOOOOoooOOOOOOOOOO",
"###$$$$$$$oooOOOOOOOOOooooOOOOOOOOOOOOooooOOOOOOOOOoooOOOOOOOOOO",
"###$$$$$$$oooOOOOOOOOOooooOOOOOOOOOOOOooooOOOOOOOOOoooOOOOOOOOOO",
"OOOOOOOOOOoooOOOOOOOOOooooOOOOOOOOOOOOooooOOOOOOOOOoooOOOOOOOOOO",
"OOOOOOOOOOoooOOOOOOOOOooooOOOOOOOOOOOOooooOOOOOOOOOoooOOOOOOOOOO",
"OOOOOOOOOOoooOOOOOOOOOooooOOOOOOOOOOOOooooOOOOOOOOOoooOOOOOOOOOO",
"OOOOOOOOOOoooOOOOOOOOOooooOOOOOOOOOOOOooooOOOOOOOOOoooOOOO$$$OOO",
"OOOOOOOOOOoooOOOOOOOOOooooOOOOOOOOOOOOooooOOOOOOOOOoooOOOO$$$OOO",
"OOOOOOOOOOoooOOOOOOOOOooooOOOOOOOOOOOOooooOOOOOOOOOoooOOOO$$$OOO",
"OOOOOOOOOOoooOOOOOOOOOooooOOOOOOOOOOOOooooOOOOOOOOOoooOOOO$$$OOO",
"OOOOOOOOOOoooOOOOOOOOOooooOOOOOOOOOOOOooooOOOOOOOOOoooOOOO$$$OOO",
"OOOOOOOOOOoooOOOOOOOOOooooOOOOOOOOOOOOooooOOOOOOOOOoooOOOO$$$OOO",
"OOOOOOOOOOoooOOOOOOOOOooooOOOOOOOOOOOOooooOOOOOOOOOoooOOOO$$$OOO",
"OOOOOOOOOOoooOOOOOOOOOooooOOOOOOOOOOOOooooOOOOOOOOOoooOOOO$$$OOO",
"OOOOOOOOOOoooOOOOOOOOOooooOOOOOOOOOOOOooooOOOOOOOOOoooOOOO$$$OOO",
"OOOOOOOOOOoooOOOOOOOOOooooOOOOOOOOOOOOooooOOOOOOOOOoooOOOO$$$OOO",
"OOOOOOOOOOoooOOOOOOOOOooooOOOOOOOOOOOOooooOOOOOOOOOoooOOOO$$$OOO",
"OOOOOOOOOOoooOOOOOOOOOooooOOOOOOOOOOOOooooOOOOOOOOOoooOOOO$$$OOO",
"OOOOOOOOOOoooOOOOOOOOOooooOOOOOOOOOOOOooooOOOOOOOOOoooOOOO$$$OOO",
"OOOOOOOOOOoooOOOOOOOOOooooOOOOOOOOOOOOooooOOOOOOOOOoooOOOO$$$OOO",
"OOOOOOOOOOoooOOOOOOOOOooooOOOOOOOOOOOOooooOOOOOOOOOoooOOOO$$$OOO",
"OOOOOOOOOOoooOOOOOOOOOooooOOOOOOOOOOOOooooOOOOOOOOOoooOOOO$$$OOO",
"OOOOOOOOOOoooOOOOOOOOOooooOOOOOOOOOOOOooooOOOOOOOOOoooOOOOOOOOOO",
"OOOOOOOOOOoooOOOOOOOOOooooOOOOOOOOOOOOooooOOOOOOOOOoooOOOOOOOOOO",
"OOOOOOOOOOoooOOOOOOOOOooooOOOOOOOOOOOOooooOOOOOOOOOoooOOOOOOOOOO"
};
