/* XPM */
static char *result[] = {
/* columns rows colors chars-per-pixel */
"64 64 189 2 ",
"   c #000000",
".  c #0B0403",
"X  c #0E0806",
"o  c #04060A",
"O  c #110A07",
"+  c #180904",
"@  c #130C0A",
"#  c #1B120E",
"$  c #0A0E14",
"%  c #130F13",
"&  c #0C1017",
"*  c #0E1219",
"=  c #1D1412",
"-  c #12151D",
";  c #1A161A",
":  c #260C01",
">  c #371502",
",  c #241814",
"<  c #241915",
"1  c #251A1B",
"2  c #2B1E1A",
"3  c #301F1E",
"4  c #2E211D",
"5  c #31221D",
"6  c #121720",
"7  c #151A24",
"8  c #191D27",
"9  c #191F2A",
"0  c #201E24",
"q  c #1D212C",
"w  c #1F2531",
"e  c #2B2224",
"r  c #23232D",
"t  c #292429",
"y  c #342523",
"u  c #392624",
"i  c #362824",
"p  c #3B2A24",
"a  c #302528",
"s  c #352929",
"d  c #3B2D2B",
"f  c #3F302E",
"g  c #212633",
"h  c #232936",
"j  c #2D2A33",
"k  c #252D3B",
"l  c #2A2E3C",
"z  c #342D32",
"x  c #27303F",
"c  c #2A303E",
"v  c #363137",
"b  c #3C3234",
"n  c #36333D",
"m  c #3B343A",
"M  c #441C03",
"N  c #4A1F04",
"B  c #4E2104",
"V  c #532305",
"C  c #6A2F08",
"Z  c #6E3109",
"A  c #75340A",
"S  c #7B370B",
"D  c #7F390C",
"F  c #402E27",
"G  c #432E2C",
"H  c #44312D",
"J  c #49342E",
"K  c #443431",
"L  c #4B3632",
"P  c #4C3933",
"I  c #503734",
"U  c #523A35",
"Y  c #543D39",
"T  c #5A3E3B",
"R  c #564037",
"E  c #55413B",
"W  c #5B433B",
"Q  c #61433E",
"!  c #2B3342",
"~  c #2F3848",
"^  c #333642",
"/  c #3B3A45",
"(  c #333B4D",
")  c #3B3E4D",
"_  c #353E51",
"`  c #374153",
"'  c #3B4255",
"]  c #3B455A",
"[  c #3E495D",
"{  c #3F4A60",
"}  c #5D4640",
"|  c #5D4842",
" . c #414656",
".. c #414759",
"X. c #424B5E",
"o. c #644541",
"O. c #654C44",
"+. c #6A4B45",
"@. c #6E4D48",
"#. c #714E4A",
"$. c #6C5046",
"%. c #6C524A",
"&. c #74544C",
"*. c #79564F",
"=. c #73584F",
"-. c #79594F",
";. c #775550",
":. c #795751",
">. c #765951",
",. c #7B5B52",
"<. c #7E6056",
"1. c #434E63",
"2. c #4B4E62",
"3. c #455066",
"4. c #4A5167",
"5. c #465269",
"6. c #4A556C",
"7. c #4D586F",
"8. c #51566D",
"9. c #51586F",
"0. c #4B5770",
"q. c #4E5A73",
"w. c #525D75",
"e. c #525F79",
"r. c #585F78",
"t. c #55627C",
"y. c #59647D",
"u. c #6C6779",
"i. c #7F737E",
"p. c #813B0D",
"a. c #86410F",
"s. c #884512",
"d. c #8E4D16",
"f. c #93541A",
"g. c #97561A",
"h. c #96581C",
"j. c #A15A1B",
"k. c #8C502F",
"l. c #965828",
"z. c #955631",
"x. c #9A5836",
"c. c #A56726",
"v. c #A56135",
"b. c #BE7F31",
"n. c #CC6D22",
"m. c #DE7725",
"M. c #F77622",
"N. c #89534E",
"B. c #8A5452",
"V. c #805F55",
"C. c #8C5A5C",
"Z. c #826156",
"A. c #866559",
"S. c #89665A",
"D. c #8A685B",
"F. c #B86944",
"G. c #8E5E62",
"H. c #8F6166",
"J. c #91656C",
"K. c #926770",
"L. c #936A74",
"P. c #956E79",
"I. c #81747D",
"U. c #97717E",
"Y. c #98727F",
"T. c #A27466",
"R. c #A4766B",
"E. c #A4786F",
"W. c #A67A73",
"Q. c #F78028",
"!. c #F5A33D",
"~. c #EBB64C",
"^. c #FDCD53",
"/. c #576581",
"(. c #596682",
"). c #5B6985",
"_. c #5D6C89",
"`. c #606B86",
"'. c #6C6D85",
"]. c #616F8C",
"[. c #62718E",
"{. c #6D728D",
"}. c #7B7483",
"|. c #777589",
" X c #72758C",
".X c #657492",
"XX c #6B7793",
"oX c #6C7996",
"OX c #6D7C9C",
/* pixels */
"1.1.3.OXOXOXOXOXoXoXoXXX X X X X|.|.|.W W W E E E E R R P K K K G K K K G K G J J G G G G i.'.'. X{.{.XXoXoXOXOXOXOXOXOXOX5.3.3.",
"1.3.3.OXOXOXOXOXoX XXX X|.|.|.}.|.}.}.%.Q %.%.Q O.W E E E Y Y U I L I I I I I I I I I I I u.u.u.'.'.{.{.{.oXoXOXOXOXOXOXOX0.3.1.",
"3.3.3.OXOXOXOXoXoXXX X{.|. X}.i.I.I.I.=.=.=.=.=.=.=.%.O.o.} } W Q T T T T Q T T T T T Q U u.u.u.u.'.'.{.{.XXoX XOXOXOXOXoX1.1.1.",
"h h w 9 - % = ; 5 d f P E | O.%.=.=.<.<.<.<.<.=.=.=.=.%.%.@.O.+.o.o.o.o.o.o.o.o.o.Q o.Q Q Q U U I L G G u 3 1 = = @ $ - 9 ! ~ _ ",
"` ` ~ c q ; = 4 e s b E E | %.=.<.<.<.<.A.<.<.<.<.<.<.-.=.=.%.$.@.+.@.@.@.+.@.o.Q Q #.Q #.Q Q Q T I I G u 3 1 = % % * 9 ! ~ _ ] ",
"{ 3.1.' ^ g q 1 4 i f P E | %.=.=.<.<.<.D.D.D.A.A.<.<.<.-.-.-.&.#.#.#.#.#.#.#.#.#.#.#.#.Q Q Q Q T I G G u 3 1 = % ; 9 k ~ ] 1.{ ",
"6.t.w.6.[ ^ j e e a f K E | O.=.<.<.<.A.A.D.D.D.D.D.A.<.Z.,.-.-.;.;.#.;.#.#.#.;.&.#.#.#.N.Q Q Q T I G G u 3 < = 0 0 k ( { 3.5.5.",
"q.(.).y.7.[ c j e a s b P | | %.=.<.<.A.A.D.D.D.D.A.A.A.Z.Z.<.-.:.;.;.;.N.;.;.;.&.*.&.&.#.#.&.Q T I G G 3 3 1 0 0 h ~ { 3.q.e.0.",
"t.`.[.].t.6.' ^ j j s d K E E O.%.=.<.<.<.D.D.D.D.D.S.A.Z.<.<.-.:.:.:.:.:.*.:.*.*.*.&.&.&.Q Q Q T I G u u 0 e r ! / ] 4.r././.w.",
"w.`..X.X`.e.3.' ~ n z s f R E | O.%.=.<.<.<.A.A.A.A.A.A.Z.Z.<.-.:.,.,.:.:.:.V.*.N.:.*.&.V.Q Q Q U I G u 3 t j ^ ( [ 4.w.).].).e.",
"t.)..X[._.t.7.5.X.' n v b f K E W %.=.=.<.<.<.<.A.A.Z.Z.Z.Z.-.<.,.,.,.,.,.,.,.,.,.,.*.&.&.Q Q Q U J G y a z ^ ' 1.6.q./.].[.].r.",
"t.`..X[._.t.e.e.q.4. ./ v b b P E W O.%.=.<.<.<.Z.Z.V.V.<.<.<.<.:.,.,.,.,.,.V.,.V.-.*.&.-.Q Q R I J G s z ^  .1.8.w./.(.]..X_.e.",
"w.).[.[.).t.t.t.t.t.4.' n b f f P R E O.$.-.=.-.-.Z.V.-.<.-.-.-.:.>.>.>.>.,.,.,.-.*.-.&.Q Q Q R I G d d n  .2.w.t.t.y.).]..X_.t.",
"t.).[.[.).t.t.y.y.t.t.4.[ ` m b b R R E Q Q $.=.Q -.-.Q =.-.%.=.%.;.&.&.;.;.=.>.*.&.&.$.=.Q R R J G d v ) 1.q.t././.t.(.].[.).t.",
"t._.[._.).t.t.y.).).y.q.4.2.] ` b K J R R W W Q Q Q Q =.Q %.Q Q O.O.O.O.O.$.$.$.$.$.Q Q Q R R J G d v / ..6.t.(.(.t.t.)._.].).t.",
"w._.[._.).t.y.)._._.y.t.t.9.2. .) v F F R R R W W R W W W W Q W E E } } W W W W W W Q W R R J F d v ^ ) 3.q.t.).)./.t./._.].).t.",
"t.).[._.).t.t.)._._.)././.t.e.6. ./ v d d d H H H J J P J J J J J J J J J P P P I P P J H G p s v n ) X.6.e./.).)./.t.(.).[.).t.",
"t.).[.[.).t.t.).]._._.).(.(.t.e.4. ./ z a 5 5 5 p 5 5 p p p 5 p p p p 5 p p p f F F F d p i s z ^ ) X.4.w.y.(._.).t.t./._._.).e.",
"t.).[._.(.t.t.y._.U.P.L.L.L.).t.w.3.' l e , 4 2 2 2 2 2 4 2 2 2 4 4 4 4 5 5 4 4 5 5 5 4 4 e j n ) X.6.J.K.L.U.L.P./.t.(._.[._.e.",
"w.).[.[.(.t.J.L.L.L.L.L.L.P.L.L.J.6.] n e @ # # # # # = # # # # # @ # , # # = , , , , 1 1 j ^ ) 2.G.J.J.L.L.L.P.L.L.K.(._._.).t.",
"e._.[.[.(.K.J.H.J.J.J.J.K.P.L.L.K.H.[ ! q X X X X X @ O O @ O X X X O O O O @ @ # # # = 8 l ) 1.G.J.K.L.L.L.U.U.L.K.K.L._._._.e.",
"e.).[._.(.K.J.H.J.Q.T.Q.R.P.L.L.K.H.X.! 7     . . . .   .   . . o . . o . . X X . . X ; g ! ] G.J.L.L.L.L.L.M.L.K.K.K.L.P.[._.e.",
"e._.[.[./.J.J.J.T.R.T.T.Q.W.L.L.J.H.] ! 8                                             * w _ { H.J.L.L.L.E.E.R.J.J.J.J.L.P.[.).e.",
"t.).[._.L.K.J.R.W.W.Q.Q.Q.E.E.K.J.C.N.x 7                                           o - w _ G.H.J.L.L.E.E.Q.R.T.J.H.J.L.P.U._.e.",
"e._.[._.L.L.J.W.W.Q.Q.Q.^.W.E.K.J.C.N.x 7                   . N A +                   6 h _ G.H.K.L.E.E.R.Q.Q.Q.R.H.J.L.P.Y.).t.",
"e.).[._.L.J.L.E.W.W.^.^.E.W.E.L.J.C.N.x 7                 : V S p.V N +             o - h ` C.J.K.L.E.R.Q.Q.Q.^.R.R.K.L.P.P.).e.",
"e._.[.[.L.L.L.W.W.k.v.F.F.W.W.L.J.H.B.! 7             . V Z p.p.a.p.p.C M           o - h _ C.H.J.L.E.R.R.^.^.W.W.R.K.L.P.Y._.e.",
"t._.[.[.L.L.L.W.W.W.k.k.W.E.W.L.K.G.B.x 7             M p.p.a.j.g.f.p.p.A :           - h _ C.H.J.L.E.E.k.x.F.F.W.L.K.L.U.P._.t.",
"t._..X[._.L.L.L.W.W.l.x.W.W.P.L.K.H.] x 7             N p.p.g.n.m.j.d.p.D B           * h ( C.H.J.L.E.R.E.k.k.W.E.L.L.L.U.U._.t.",
"e._..X.X_.L.L.P.Y.W.Y.E.W.P.L.L.J.G.] x 7             N p.s.h.m.!.c.h.a.p.Z         o - h ( 1.H.J.L.L.E.E.x.x.W.P.L.L.P.Y..X_.e.",
"w._.[.[._.L.L.L.Y.P.L.L.L.L.L.L.J.H.] x 6             N p.s.h.b.~.c.h.p.p.Z         o - h ` 3.J.L.L.L.L.E.W.W.W.L.L.L.P.Y.[.).w.",
"q.t._.).y.t.L.L.Y.U.P.K.J.J.J.J.J.6.' k 6             N p.s.h.l.v.v.g.p.p.Z         o 7 h ` 4.t.L.L.P.L.L.L.P.P.P.L.K.L._._.t.q.",
"6.e.t.t.e.e.t.)._.P.L.K.J.J.e.t.e.5.] k 6             N p.p.d.l.z.h.d.p.p.Z         o - k ` 6.e./.L.L.L.L.I.L.P.L.K.K.e././.w.6.",
"5.7.q.q.0.0.t.(._.)./.t.t.t.t.t.e.6.] k -             N p.p.a.f.f.d.p.p.D >         o 7 k ] 5.e./././.L.L.L.P.P.K./.e.q.w.w.0.5.",
"5.0.q.e.q.q.e.(._._.)././.(.(.t.e.6.] h 6             > A p.p.D p.p.p.D Z +         o 7 k ` 6.e.e./.t.t././.)._.(.e.q.q.q.q.0.5.",
"6.e.t.t.t.t./.(._.).(.(.(.(.(.(.e.6.` h -               > M M M M M M M :           o 7 ! ] 5.e.e.t.e.e././.).).(./.e.e.t.t.e.0.",
"q.y._._.)././.)._._././.(.).(.(.e.0._ w *                                           o 7 ! _ 0.e.t.t.t.e././._._.).y.t.y.).).t.q.",
"e._..X[.)././.(._.)././.(.(.(.(.e.5.] w *                                           o 7 ! ] 5.e./././././.(.(._.).).y._.[.].(.t.",
"t._..X[.)././.)._._./././.(./.t.e.{ _ w *                                           o 7 ! ] 0.e./.(.(.(./.(._._.).y.)._.[.[._.t.",
"t._.[.[.)././.)._._./././.(./.e.q.{ _ w *                                           o 7 ! ] 6.e.(.(.).(./.)._._.).).y._.[.[.).t.",
"t._.[._.).t.t._._.).t.t./.(.(.t.q.{ _ w *                                           o 8 ! ] 6./.(.(.).(./.(._._.).y.t._._.[._.e.",
"t.).[._.y.t.t.)._.(.t.t.t./.(.t.q.0.` w * o                                         o 7 ! ] 6.e.(.(.(.(.(._._._._.t.t.).[.[._.e.",
"t.).[._.t.e.e.y./.t.e.e.t././.t.e.0._ w *                                           o 7 ! ] 5.e./.(.(.(.(._._._.).t.t.)._._.).e.",
"t.).[._.(.t.q.t.t.e.e.e.t.(./.t.e.{ _ w *                                           o 7 ! ] 5.q././.(././.)._._.).t.t.)._.[.).e.",
"t._.[._.(.e.q.e.t.q.t.t./.(./.t.e.3._ h *                                           o 7 ! ] 5.e.t./././.t./././.t.t.t.(.[.[.).e.",
"t._.[._.t.e.q.e.t.t.t./.(.(./.t.q.{ ( w *                                           o 9 ! [ 6.e././././.t.e.t.e.e.e.t.(._.[.).e.",
"e.).[._./.t.t.t.(.).).(.(.(./.e.5.] ! 9 $                                           o 9 ! [ 0.t./.(././.e.e.e.e.q.q.t.(._._._.e.",
"t._.[._./.t.t.)._._.).(.(.(.t.0.{ _ h 6 o                                           o 9 ! { 0.t.(.(././.t.t.e.e.e.e.t.)._.[.).e.",
"e.).[._./.t./._._._.(././.e.q.{ ` x 7 & o                                           o 7 ! ] 0.e./.(.(./.y.(.(.y.t.t.t.(._.[.).e.",
"t.).[._./.t.t.)._._././.q.5.{ ` ~ ! w w w q 7 q q 7 7 9 7 7 7 7 - * & $ & & & & * & - 9 k ` { q././.(.).(.)._._.).t.t.)._.[.).t.",
"e._.[._.(.t.t.)._.(./.q.5.{ ] [ { { 0.{ { { { { 5.{ 1.{ { { { { [ ] ] ] _ _ _ ] ] ] ` ` ( ( ] { q././.).(._._.[.).t.t.)._._.).e.",
"e.).[._.(.t.t.)._.(.e.5.{ ] { q./.).)./.t.q.e./.).).).)././././.).(.(./.e.q.e././././.e.q.{ ] [ { q.t./.(.)._.`.).t.t.).[.[.).e.",
"/.).[._./.t.t.).).(.q.3.{ 5.q.t./.(.(././.t././././.(././.q.e././././.t.e.e././.e.e././.t.q.{ ] { { 7.w.t.)._.).(././.(._.[.).e.",
"e._.[._.(.t.t.).(.t.0.3.0.(._._._.)._._.).).).).)._._._.(.e.q./._._.).).).).(.(.(.(.(.)._.).t.0.{ { { 6.q.t.).).(.t./.(.[.[.).e.",
"/._.[.].(./.t.).(.e.w.9.e./.).)././././././.(.(.(.(.(.)./.q.q./.).).).).(.(.(.(.(.(.(.).)._.(.e.q.{ 6.2.6.t.y.y./.t./.(._.].).e.",
"t._..X].)./.t.t.y.e.q.e.e.t.t.t./.q.0.0.0.e.t././.e.e.e.q.e./.e.e.e.e.e.e.q.0.0.0.0.0./.t./.e.e.e.q.7.6.4.9.t.y./.t./.).[.[._.e.",
"y._.{.[.).y.e.r.r.y.)._._._.[.[.[.(.q.q./._..X[._._.).).)._.).)._._.).).)._.)./.e.q.e.(._.]._.).(.(.(.y.y.9.8.t.e.t.t._.[.[.`.t.",
"y.[.[.[.y.r.8.e.y.].]..X.X.X.X.X[./.q.q.)..X.X.X.X.X.X.X[.[..X.X[.[.[..X[..X.X.X).e.q.(.[..X.X.X.X[..X[.`.).y.9.8.w.y._.[.[.).t.",
"t.).].).y.6.4.8.e.r.t.y.t././.t.e.0.0.0.e././.t././././.(./.t.(././.(./././.).(./.q.0.w./.(.(.(.(.).(.).`.y.t.t.8.8.y._.[.{.`.t.",
"t.y.y.y.8.8.8.e.w.w.0.0.0.0.q.q.q.q.0.0.0.0.0.0.0.q.e.e.q.0.3.3.0.0.e.q.0.0.0.0.6.6.6.0.0.0.0.0.5.0.6.7.7.w.q.0.4.4.9.u.].].).w.",
"7.t.w.9.w.y.].].].).)._.).(.).)._._.).).).).(.(.)._.[..X[.(.q.6.w.).[.[._.).(.(.(.(.(.).).(.(.(.(.(.(.(.)._.[._.y.t.9.y.u.(.y.t.",
"4.7.6.w.(.[..XoXoXOX.X.X.XoX.XoX.X.X.XoX.X.XoX.X.XOXOXOX.X_.w.7.w._..XOXOXoX.X.X.X.X.X.X.X.X.X.X.X.X.X.X.XoXOXOX.X`.y.y.y.y.y.6.",
"X.4.6.y.)._.].]..X.X.X[..X.X.X.X[..X[.[..X.X.X.X.X[.[..X[.(.q.6.q.t.]..X.X.X.X.X.X.X.X.X.X.X.X.X.X.X.X.X.X.XXXXX[.[.).y.t.w.8.4.",
"X.X.3.4.6.6.6.6.6.6.5.6.0.5.0.0.6.0.0.0.0.0.6.6.0.6.0.0.6.5.5.1.3.6.6.0.0.0.0.q.8.0.0.9.0.0.0.0.0.q.0.q.7.7.7.7.7.7.6.6.6.7.4.X."
};
