/* XPM */
static char *result[] = {
/* columns rows colors chars-per-pixel */
"64 64 5 1 ",
"  c black",
". c #412320",
"X c #59302C",
"o c #434F65",
"O c #6F7F9F",
/* pixels */
"oooOOOOOOOOOOOOOOOO                          OOOOOOOOOOOOOOOOooo",
"oooOOOOOOOOOOOOOOOO                          OOOOOOOOOOOOOOOOooo",
"oooOOOOOOOOOOOOOOOO                          OOOOOOOOOOOOOOOOooo",
"                                                                ",
"                                                                ",
"                                                                ",
"                                                                ",
"                                                                ",
"                                                                ",
"                                                                ",
"                                                                ",
"                                                                ",
"                                                                ",
"                                                                ",
"                                                                ",
"                                                                ",
"                                                                ",
"                                                                ",
"                                                                ",
"                                                                ",
"                                                                ",
"                                                                ",
"                                                                ",
"                                                                ",
"                                                                ",
"                                                                ",
"                                                                ",
"                                                                ",
"                                                                ",
"                                                                ",
"                                                                ",
"                                                                ",
"                                                                ",
"                                                                ",
"                                                                ",
"                                                                ",
"                                                                ",
"                                                                ",
"                                                                ",
"                                                                ",
"                                                                ",
"                                                                ",
"                                                                ",
"                                                                ",
"                                                                ",
"                                                                ",
"                                                                ",
"                                                                ",
"                   ..........................                   ",
"                   ..........................                   ",
"                   ..........................                   ",
"................................................................",
"................................................................",
"................................................................",
"................................................................",
"................................................................",
"................................................................",
"................................................................",
"...................XXX....XXXXXXXXXXXX....XXX...................",
"...................XXX....XXXXXXXXXXXX....XXX...................",
"...................XXX....XXXXXXXXXXXX....XXX...................",
"XXXXXXXXXX...XXXXXXXXX....XXXXXXXXXXXX....XXXXXXXXX...XXXXXXXXXX",
"XXXXXXXXXX...XXXXXXXXX....XXXXXXXXXXXX....XXXXXXXXX...XXXXXXXXXX",
"XXXXXXXXXX...XXXXXXXXX....XXXXXXXXXXXX....XXXXXXXXX...XXXXXXXXXX"
};
