/* XPM */
static char *result[] = {
/* columns rows colors chars-per-pixel */
"64 64 91 1 ",
"  c #010101",
". c #0B0505",
"X c #0E0807",
"o c #04060A",
"O c #0E0709",
"+ c #07090E",
"@ c #0C090C",
"# c #100907",
"$ c #120B0A",
"% c #1A0F0D",
"& c #070A10",
"* c #090C12",
"= c #130F13",
"- c #0C1017",
"; c #0E1119",
": c #141115",
"> c #1C1312",
", c #11151D",
"< c #1D171A",
"1 c #1C1A1F",
"2 c #221614",
"3 c #251916",
"4 c #251A1A",
"5 c #2C1D1B",
"6 c #301F1D",
"7 c #2F201D",
"8 c #32231E",
"9 c #131720",
"0 c #151A23",
"q c #191D26",
"w c #1A1F29",
"e c #1C212C",
"r c #1F2430",
"t c #2E2221",
"y c #392624",
"u c #352824",
"i c #372A28",
"p c #3D2C29",
"a c #202632",
"s c #242A37",
"d c #262D3A",
"f c #292F3C",
"g c #29303E",
"h c #432E2C",
"j c #45312E",
"k c #49332F",
"l c #463431",
"z c #4C3632",
"x c #4D3933",
"c c #503734",
"v c #513935",
"b c #543D39",
"n c #5B3E3B",
"m c #56413C",
"M c #5C423D",
"N c #61433E",
"B c #2B3242",
"V c #2F3848",
"C c #333B4B",
"Z c #353F51",
"A c #3C465A",
"S c #5E4842",
"D c #404B5F",
"F c #644541",
"G c #654C44",
"H c #6A4A45",
"J c #6F4D48",
"K c #704D49",
"L c #6C524A",
"P c #71564C",
"I c #72584E",
"U c #7B5D54",
"Y c #7F6156",
"T c #434F65",
"R c #445066",
"E c #6D6475",
"W c #6C697D",
"Q c #7F737E",
"! c #826357",
"~ c #866558",
"^ c #81747D",
"/ c #6C6D85",
"( c #6D728D",
") c #757386",
"_ c #7B7483",
"` c #72758C",
"' c #78778C",
"] c #7A788C",
"[ c #6D7691",
"{ c #6D7995",
"} c #6E7D9C",
/* pixels */
"TTT}}}}}{{[[```']]]mmmmmmmmmmlppjjjjhkjjkhkhhW//(([[{{}}}}}}}RRR",
"TTR}}}}{{{[(`')]_^_LNLNLLMmmmmmmxxxccvcccccccEWW///([{{}}}}}}RRR",
"TRR}}}}}{[(())Q_Q^QIUIPIPLLNNNMMMbnnnnNnnnNNnEEEW//(([{}}}}}}TRR",
"dsaq::>4tijxmSGLIIUUYILNLLMLGLLNGGFFFFFFFFFNNnnnczhpy63>%@*,wBVZ",
"CCVfa<<4tipmmSLPUUY!~NmxmjpmMNmmNFFHJHHJNJNNHNNnbckhy63>==;wBCZA",
"ZAACda14tuplmSGPIUY!~LxmkmmmmmmlkccNHHFJJJKKJNFNnckhy63>=9wBVZDT",
"fBgda9:=*=>>7tiipjpmmk888u8857773336hyhcNNNnnnnvckhy652>:qaBZADA",
"eeee1-+o. ..@XX@###%$$$$####XXXX#..#.#%65655665532%%$O.O*=9ersrB",
"0eee0,-oo  ..oXXXXXXX########X......X......#.........   oo&*;,,,",
"0ee00,-+oo . .....XXXXXX###..#......X..X#.........    ooo&*-,,99",
"eeeee,;**o.o .  ....XX.XXX.X............#.......  .  ooo&**;,,9,",
",eee,,;--+o o  .  ............................ . . .  oo@&*--,,;",
"00e0,,;;-*+o     ....X ... ......  ......... .      o .o&&&-&-;-",
"0000,,;--*+oo. o   .  ...... . ..... . ... .. .  .. ooo&&**&--;-",
"000,,;--**&+oo.  . . . . .  . .  .  .. .. .. . .   ooo&&**&-----",
"9909;---**&+++o        .  .    .  .   .  .          ooo&*&&&&--*",
"0999;-****&&+oo     o               .    .        o ooo&&o&&**-*",
"900;;--***&ooooo oo                              . oooo&o&o&&&*&",
",99,;-*&*$O#OOooo                                 o.OO#OO&ooo&&&",
";9;;-+=+OO##OO..o                                ...OOOOOO#&&&&&",
"&&@oo.                                               ..   .    o",
"ooo      .                                                   o  ",
"oooo . .                                                        ",
"oooo      .                                                  o  ",
"ooo o  .   .                                                 .  ",
"ooo .                                                           ",
"oooo. . .                                                       ",
"ooo  .                                                          ",
"ooo  o                                                          ",
"oooo  .   .                                                     ",
"o oooo                                                          ",
"ooo                                                             ",
"ooooo                                                           ",
"                                                                ",
" o     o                                                        ",
" oo o                                                           ",
"oo o                                                            ",
" oo o                                                           ",
"ooo                                                             ",
" oo                                                             ",
"ooo                                                             ",
"o o                                                             ",
"ooo                                                          o  ",
" o oo                                                           ",
"ooo                                                             ",
"ooo                                                             ",
"oooo o                                                        o ",
"oooo                                                           o",
"ooo  o                                                       o o",
"oooo o                                                         o",
"oooo                                                           o",
"ooooo                                                         oo",
"o&ooo o                                                     o oo",
"o&&ooo                                                       ooo",
"o&&oo                                                      o ooo",
"&**&ooo                                                     oo+o",
"&**@oooo                                                   ooo++",
"&**&oo      o                                            o oo+&+",
"&**&oo  o                                             o   oo@&&+",
"***&+ooo oo o o                                      o   ooo+&&&",
"***&&&&&o&oooooooooooo o o o o    o   o            o ooooo@++&-+",
"*****-*:---***&*&+++o&oo+o+ooo oo o o  o  oooooooooo++++++&&&&-+",
"&@*--;;;;;;--*-*-&&&&&+++++oooo ooooooooooooooo+++o+&&-*&--&**+*",
"&*&*****&&&&&&&&+++o++ooooooo ooo oo ooooooooooooo+o+++++@&@***+"
};
