/* XPM */
static char *result[] = {
/* columns rows colors chars-per-pixel */
"64 64 198 2 ",
"   c #000001",
".  c #0D0504",
"X  c #0E0806",
"o  c #05060B",
"O  c #06090E",
"+  c #160500",
"@  c #1A0701",
"#  c #110A07",
"$  c #130C0A",
"%  c #1C120E",
"&  c #070A10",
"*  c #0A0D14",
"=  c #130F13",
"-  c #0C1017",
";  c #0E121A",
":  c #1D1412",
">  c #11151E",
",  c #1A1619",
"<  c #230B01",
"1  c #290E01",
"2  c #2D1102",
"3  c #321202",
"4  c #3D1803",
"5  c #241814",
"6  c #241915",
"7  c #251A1B",
"8  c #2B1E1A",
"9  c #301F1E",
"0  c #2E211D",
"q  c #31221D",
"w  c #131720",
"e  c #151A24",
"r  c #191D26",
"t  c #191E29",
"y  c #201D22",
"u  c #1C222D",
"i  c #1E2531",
"p  c #2B2224",
"a  c #23232C",
"s  c #292429",
"d  c #342523",
"f  c #392624",
"g  c #3B2A24",
"h  c #302528",
"j  c #352929",
"k  c #3B2D2B",
"l  c #3F302E",
"z  c #212633",
"x  c #232936",
"c  c #2D2A33",
"v  c #252C3A",
"b  c #292E3C",
"n  c #342D32",
"m  c #2A303E",
"M  c #363137",
"N  c #3C3234",
"B  c #36333D",
"V  c #3B343A",
"C  c #471D04",
"Z  c #491E04",
"A  c #4E2104",
"S  c #532305",
"D  c #5A2706",
"F  c #5D2906",
"G  c #582A08",
"H  c #5B310B",
"J  c #5E341D",
"K  c #602A07",
"L  c #602C08",
"P  c #65380E",
"I  c #6A390E",
"U  c #6A3C13",
"Y  c #65391A",
"T  c #402E27",
"R  c #432E2C",
"E  c #44312D",
"W  c #49342E",
"Q  c #54312E",
"!  c #443431",
"~  c #4B3533",
"^  c #4C3933",
"/  c #4E3539",
"(  c #503734",
")  c #593533",
"_  c #523A35",
"`  c #53363A",
"'  c #543C3B",
"]  c #5B3D3B",
"[  c #673921",
"{  c #6C3C23",
"}  c #703F25",
"|  c #724012",
" . c #7A4918",
".. c #564037",
"X. c #55413B",
"o. c #5B433B",
"O. c #7C4729",
"+. c #61443E",
"@. c #2C3343",
"#. c #2F3748",
"$. c #2F3848",
"%. c #323644",
"&. c #333847",
"*. c #3B3A45",
"=. c #323A4C",
"-. c #3B3E4D",
";. c #353E51",
":. c #383F52",
">. c #563B41",
",. c #5A3E45",
"<. c #374053",
"1. c #3A4254",
"2. c #3C465A",
"3. c #3E495D",
"4. c #5C4245",
"5. c #5D4842",
"6. c #5E434A",
"7. c #414656",
"8. c #414759",
"9. c #414A5E",
"0. c #644442",
"q. c #694344",
"w. c #654B44",
"e. c #6A4B45",
"r. c #62464C",
"t. c #69474C",
"y. c #6C4B4B",
"u. c #714E4A",
"i. c #6C5046",
"p. c #6D524A",
"a. c #735147",
"s. c #73544C",
"d. c #79564E",
"f. c #73584F",
"g. c #79594F",
"h. c #674A53",
"j. c #6D4D54",
"k. c #6F5058",
"l. c #765452",
"z. c #795651",
"x. c #765951",
"c. c #7B5B53",
"v. c #71535C",
"b. c #78555D",
"n. c #7D5D59",
"m. c #7E6056",
"M. c #434E64",
"N. c #465066",
"B. c #495267",
"V. c #465269",
"C. c #49546B",
"Z. c #4E596F",
"A. c #4E5A72",
"S. c #515D75",
"D. c #535F78",
"F. c #795861",
"G. c #55627D",
"H. c #58647E",
"J. c #6D6576",
"K. c #6C697D",
"L. c #994F16",
"P. c #A45418",
"I. c #B65A19",
"U. c #BB5F1C",
"Y. c #844A2E",
"T. c #885920",
"R. c #B8792B",
"E. c #805F55",
"W. c #826156",
"Q. c #866559",
"!. c #89665A",
"~. c #8A685B",
"^. c #8F6065",
"/. c #8F636A",
"(. c #91656D",
"). c #926770",
"_. c #936A75",
"`. c #956D79",
"'. c #81747D",
"]. c #AE8936",
"[. c #BA963B",
"{. c #BF9A3D",
"}. c #576581",
"|. c #596783",
" X c #5B6985",
".X c #5E6C89",
"XX c #6C6D85",
"oX c #606E8C",
"OX c #62718E",
"+X c #6D728D",
"@X c #757386",
"#X c #7B7483",
"$X c #72758C",
"%X c #79788C",
"&X c #647390",
"*X c #6D7691",
"=X c #6D7995",
"-X c #6E7D9C",
/* pixels */
"M.N.M.-X-X-X-X-X=X=X=X*X$X$X$X%X%X%X%Xo.o.o.X.X.X.X.....~ ! E E E E R R W E W W W R R R R XXXX+X+X+X+X*X=X=X=X-X-X-X-X-X-XV.V.M.",
"M.M.N.-X-X-X-X=X=X=X*X$X$X@X@X@X#X%X#Xi.i.i.w.w.o.w.X.X.X.' ' _ _ / ^ / ( ( ( ( _ ) ` ( Q K.K.K.XXXX+X+X*X=X-X-X-X-X-X-X-XC.M.M.",
"N.N.N.-X-X-X-X=X=X=X+X+X@X@X#X#X'.'.'.f.f.f.f.f.p.p.p.w.w.5.4.o.o.4.] o.] o.] ] ] ] ] ] ' J.J.J.K.XXXX+X+X*X=X=X-X-X-X-X-XM.M.M.",
"v x i t , = : , 0 j E ^ X.5.w.p.f.f.f.m.f.m.f.m.f.f.f.f.p.e.e.w.0.0.0.0.+.q.+.q.+.+.+.+.+.o.] _ ` ~ R g d 9 7 : $ $ & > t @.#.;.",
";.;.$.b u , : 0 0 j N ! X.w.p.f.f.m.m.m.Q.m.Q.m.m.m.m.g.f.f.p.p.u.u.y.q.e.e.e.e.q.e.q.u.q.+.+.+._ ( Q k f 9 7 : = - ; u v #.;.2.",
"9.N.N.1.%.x u , 0 j l ..X.5.p.f.f.m.m.~.Q.~.Q.Q.~.m.m.m.g.g.d.d.u.u.u.u.u.u.u.u.u.u.e.e.e.q.+.+.] ) R R f 9 7 : = > u v =.2.3.M.",
"C.D.S.C.3.%.c p p j k ! 4.5.p.p.m.m.m.Q.~.~.~.~.~.~.m.m.W.c.g.g.l.l.u.d.z.u.u.d.u.u.u.a.e.u.+.+.] ( W T f 9 6 7 , a v =.2.V.V.V.",
"A. X XH.Z.3.@.c s p j n X.5.5.p.f.m.m.Q.Q.~.~.~.~.~.~.Q.W.m.m.g.z.z.l.d.z.z.u.d.d.d.u.u.a.e.e.+.o.( W T 9 9 7 7 a v #.3.V.S.S.A.",
"G. XOXoXH.B.1.@.c c j k ! ..X.w.f.f.f.m.m.~.~.~.~.!.!.Q.W.m.m.g.c.z.z.z.d.d.c.z.d.d.u.u.a.i.+.+.] ( R f 9 9 p s b &.2.C.D.H.H.S.",
"G.oX&X&X XG.B.2.<.B n k l ..X.5.w.f.f.m.m.m.Q.Q.!.!.Q.W.W.W.m.m.z.c.z.n.c.g.c.d.z.d.d.d.g.+.+.+.` ( R f h s c %.-.8.C.S.|.oX XD.",
"S.oX&X&X.XG.A.B.8.1.B n k N ..X.5.p.f.f.m.m.m.m.W.Q.Q.W.W.W.m.g.c.c.c.n.E.c.E.c.c.c.c.d.a.a.+.o._ W T f h c %.:.M.C.S.}.oXoX.XG.",
"G.H.OXOX.XH.S.S.Z.B.2.*.M k N N X.o.o.f.f.m.m.m.E.W.E.W.E.c.m.g.c.g.c.c.g.c.c.c.E.d.c.a.g.+.+.o._ Q T j n %.7.B.Z.A.D..XOXOXoXG.",
"G.oXOXoX XG.G.G.H.A.B.2.<.l l l ....X.o.i.f.f.g.g.m.g.g.m.g.g.f.x.x.d.x.x.c.g.c.d.d.g.a.p.+.o...~ E k j %.7.M.S.D.G.H. XoXOXoXG.",
"S. XOXoX XG.G.|.|.G.G.B.1.<.V N N ....X.+.+.i.f.a.a.f.f.g.g.f.f.p.p.f.f.f.d.f.g.d.s.a.a.i.+.....W R k B -.M.S.D.}.G.H. XoXOX XG.",
"G. XOXoX|.G.H.|..X|.G.Z.B.9.2.<.V ! l ..o.o.+.+.+.+.+.+.+.+.i.+.w.w.w.w.w.i.i.i.e.i.+.+.+.....W E k M *.8.C.G.}.|.H.H.|..XOX XG.",
"G. XOXoX|.G.G.|..X.XK.H.D.Z.B.7.*.M l T ........o.o.o.+.o.o.o.o.o.o.o.o.o.o.o.o.+.o.o.o.....E l k k %.1.M.A.}. X XG.G.H..X.X XG.",
"S. XOXoXH.G.G.|.oXoX|.|.H.H.S.C.7.*.M k k k T W W W W ^ W W W W W W W ^ W ^ ^ ( ( ^ ^ W E R g k n %.>.3.C.D.|. X|.}.}.}..XoX XD.",
"G. XOXOX XG.H. XoXoX X|.|.|.H.S.C.8.*.n h d f q g q q g T q q q g g g q g g g g T T T k g f j n %.-.9.V.S.D.|.oX|.}.}.}..XoX.XD.",
"G. XOXoX|.G.G. XoX`._._._._.|.H.S.M.:.c p 6 6 8 6 8 6 8 q 6 0 0 0 0 0 0 q q 0 0 q q q 0 0 p h %.<.M.C./.(._.`.`.`.}.D.}..XoX XD.",
"G.H.OXoX XG.(.(._._._._._.`._._.(.C.8.%.a $ % % % % 5 5 % 5 % % % $ % % % % 5 5 5 5 5 7 7 c @.:.9.^./.)._._.`._._.).).}..X.X}.S.",
"S.|..X.X}./././.(.(.(.(.)._._._.).^.3.@.r X X X # # # # # # # # X $ $ $ $ $ $ $ $ # $ = y z %.:.l.l.b.b.b.F.b.v.k.b.b.F.C.A.V.M.",
"2.M.C.V.9.h.t.t.t.U.a.L.5.>.>./ ` ~ i > O                                   .   . . o $ > a b q.t.h.j.t.h.j.I.j.j.t.j.j.v.V.V.:.",
"2.M.C.V.M.t.y.j.d.d.s.u.L.e.,.,.>.` z e *                                             O e x &.t.t.k.j.j.c.c.d.j.t.j.j.j.v.V.M.2.",
"2.M.V.V.j.j.j.c.c.c.U.I.P.w.0.,.' ` Q e O                                             - r v q.t.j.j.k.c.z.U.d.d.j.t.h.j.v.v.M.3.",
"2.N.C.N.k.j.j.E.c.U.U.I.].w.w.,.' ) Q e &                     3 A +                   * t v q.t.j.j.c.z.c.U.U.U.E.q.j.j.b.v.M.8.",
"2.M.C.N.j.j.j.c.E.n.{.[.i.p.w.,.,.] ) e *                 + 3 S G 4 3 .               - t v q.t.j.j.c.z.U.U.U.{.z.z.j.j.k.v.M.8.",
"2.M.C.N.k.j.k.c.n.[ } Y.O.y.y.6.6.] ) e *               3 C S G L L L A 2             * r v 0.t.t.j.x.d.d.[.[.x.E.z.j.j.v.v.M.2.",
"2.M.C.C.k.k.j.c.n.b.Y [ y.p.y.6.6.,.) e *             1 A D G U | I K K S +           & e i ] 6.t.r.s.u.J [ O.Y.z.j.j.k.v.v.M.3.",
"2.V.C.C.N.k.j.k.z.n.{ { i.y.6.6.,.] x e *             2 S D P L.P. .I K D 3           & > z ] +.r.r.u.u.s.J J l.z.k.j.k.v.v.V.2.",
"2.N.C.C.V.h.j.j.h.l.y.y.w.4.,.,.,.) z e *             1 S G | P.R. .| L D Z           & w z @.,.6.r.r.y.y.[ [ l.k.j.j.v.F.V.V.2.",
"2.M.C.C.M.h.t.h.h.r.6.,./ >.>./ >.Q u > &             1 A G P T.]. .| F D Z           O w z @.,.6.6.6.6.w.w.y.j.h.j.k.v.v.V.M.2.",
"1.3.M.M.3.2.h.h.h.6.,.>./ / / / / x u > O             1 A G P Y O.O.| L D Z           O > z m &.,.,.,.4.4.6.4.6.r.j.h.k.M.M.M.;.",
"<.2.2.M.2.<.2.3.3.6.,.>./ ! v m v x u ; o             1 A A H U O.I I F G C           & e i @.#.=.,.6.,.,.,.,.6.h.h.h.3.3.3.2.;.",
";.<.<.<.;.;.<.3.3.1.;.#.v v @.v v i t ; o             < C A A P U I K F D <           * e i @.#.=.=.;.,.,.,.6.6.6.3.2.2.<.3.;.;.",
"=.<.2.<.<.<.<.3.M.2.;.$.@.@.m v x i e * o             + 4 C C S D F F F Z .           & e i @.#.=.=.=.=.=.;.;.2.2.2.<.<.2.<.;.;.",
"<.<.3.3.2.<.2.3.3.<.=.#.@.v v x i u e & o               + < < 1 2 2 2 3 @             * e i @.#.=.#.=.#.=.;.;.;.2.2.2.2.3.3.2.;.",
"2.M.M.M.3.1.<.2.<.;.#.#.x i x i i t ; & o                                             * e i @.#.#.=.#.=.=.;.;.2.2.2.2.M.M.M.3.<.",
"2.N.V.V.M.2.<.<.;.#.@.i u u u u e w - O                                               * e i v #.#.=.=.#.#.=.;.;.<.2.2.M.N.V.M.2.",
"2.N.C.V.3.<.=.;.;.@.@.i u u e e w ; * o                                               & w i v @.#.@.@.@.@.#.#.=.<.<.2.3.V.V.N.2.",
"2.V.V.V.2.=.#.#.@.v i t e > ; ; - & O                                                 o ; r i v @.@.@.@.@.@.#.#.=.<.1.2.V.V.N.2.",
"2.V.V.M.<.=.@.$.@.x u u > > ; - * & o                                                 o * w r t i i v i v v v @.@.=.<.<.M.V.M.2.",
"2.N.N.M.<.#.@.v x u e > - - - O O o o                                                   O - w e u i i i i v v v @.=.=.<.2.M.M.2.",
"2.M.V.2.<.@.i i u r e ; - - O O o o                                                     O * ; w e t u i i i v v v $.$.=.2.M.M.2.",
"2.V.V.M.=.@.@.i u e > ; - - O O o   o                                                   O * ; w e t t t i i i i v $.=.<.2.M.M.2.",
"2.V.V.3.<.@.i i u e > > ; - O O o o o                                                   & * - w e t t t u u i i i @.$.=.2.M.M.2.",
"2.V.V.3.=.@.i i u e e > ; * * O o o                                                     O - ; w e e t t t t u i i @.$.<.2.V.M.2.",
"2.M.V.3.<.@.v i u u e e ; ; * O O                                                     o O - w e t t u i i i i i i #.$.<.2.M.M.2.",
"2.V.V.3.=.@.@.v u u r > > - & o o o                                                     O ; w e t t i i i i i i i @.$.<.3.M.M.2.",
"2.M.V.3.;.@.v i i i t w ; * & & o                                                     o O ; ; e t u i i i x x i v @.=.;.2.M.M.2.",
"2.V.V.3.<.@.@.v i i u e ; * & O o                   o   o       o                       O ; ; e t u i i i v v m m @.$.;.2.N.M.2.",
"2.M.V.3.<.@.@.v @.i u w ; & O O & & O & O o o O & & & * ; * ; ; ; w w w e ; ; ; ; ; - * * - ; e t i i v x v m m @.@.=.;.2.N.M.2.",
"2.V.V.3.<.@.@.@.i i u > - & & * * - * * * & & * ; ; ; e e e e e u i i i i i t u u u t e e ; ; ; e i i i x v @.@.@.$.=.;.2.M.M.2.",
"2.V.V.3.<.#.@.i i i t w - - - - ; ; * * * * * * ; ; > e e w e e t i i i i i t t t t e e t e w ; > e u i i v m m @.#.=.;.3.M.M.2.",
"2.M.V.3.<.#.@.v i u e ; > w w ; ; ; ; - ; * * ; ; > e e e e e t i z x z x i i t u t t t u u t e w w e u i i b m @.#.=.;.3.M.M.2.",
"2.V.V.3.<.#.@.v x u e e w w > ; > ; ; ; ; - ; ; > w e e t e e u i i z z i i u u u t e t t u u e t e u e i x m b @.@.=.;.3.M.M.2.",
"3.V.V.M.<.=.@.i z u u e e e w w > ; - * - * ; ; > > w t t t u t u i i i i u e e e e e e t t t t t t u u u x x b @.@.=.;.3.M.M.2.",
"8.M.C.M.1.&.@.b x v v z i u t t t e > ; > e e t e t t i i i i i i x x x i x i t t e e t u i i i i i x z x x x c x @.-.<.3.V.M.2.",
"8.B.C.M.:.%.b b b b m v v v x z i t w e e t u i i i i v x v x x x v v v v v x i i t e t i x x x v v @.@.@.m m b v #.:.2.3.V.M.2.",
"2.V.M.8.1.%.b b @.@.m b v v v z i u t u u i i i i i x v v v v x x x v v v v z i i i t t i x x x x v @.@.m %.@.m b %.-.2.9.B.M.8.",
"2.M.M.2.;.*.#.@.@.@.b v b v v x @.i i i i i i i x v @.@.@.v x z x @.@.v v v x x x x x i x x x x v v v b m @.@.@.@.%.-.2.M.N.M.2.",
":.2.2.:.;.1.2.8.3.:.;.2.2.;.;.;.;.;.=.=.=.=.-.=.;.2.3.3.2.1.=.@.=.2.2.M.3.2.;.;.;.;.;.;.;.;.;.;.;.;.;.;.<.2.8.3.<.:.1.8.9.M.9.7.",
"=.:.:.1.M.N.C.Z.C.C.A.C.C.C.C.C.C.C.C.C.C.C.V.C.C.C.A.A.C.M.2.;.2.M.C.A.A.C.V.C.V.V.M.N.M.N.N.N.N.N.V.M.B.C.C.C.B.M.9.2.8.9.7.1.",
"&.&.:.8.M.M.V.C.C.C.C.C.C.C.C.C.C.C.C.C.C.C.C.C.C.C.C.C.C.M.1.;.;.3.C.C.C.C.C.C.C.C.C.C.C.C.C.C.C.C.C.C.C.C.C.C.C.B.M.9.2.2.1.*.",
"#.=.&.=.;.:.;.:.:.:.;.;.;.;.;.;.;.;.;.<.;.<.<.;.<.<.<.<.;.=.=.=.=.;.;.;.1.;.;.;.:.:.:.:.;.;.1.:.:.:.;.;.1.<.<.<.<.<.;.;.;.;.-.&."
};
