/* XPM */
static char *result[] = {
/* columns rows colors chars-per-pixel */
"64 64 147 2 ",
"   c #010101",
".  c #0B0504",
"X  c #0E0906",
"o  c #04060A",
"O  c #0A0708",
"+  c #06090E",
"@  c #140400",
"#  c #1A0701",
"$  c #110A07",
"%  c #1E0801",
"&  c #150D0B",
"*  c #1A110E",
"=  c #070A10",
"-  c #0A0D13",
";  c #130F13",
":  c #0C1017",
">  c #0E121A",
",  c #151114",
"<  c #1D1413",
"1  c #11151D",
"2  c #1A161B",
"3  c #1D191D",
"4  c #230B01",
"5  c #2A0E01",
"6  c #2E1102",
"7  c #341402",
"8  c #391602",
"9  c #361B04",
"0  c #3D1F05",
"q  c #391E0E",
"w  c #211613",
"e  c #251916",
"r  c #281B17",
"t  c #231B1A",
"y  c #2B1D1B",
"u  c #321D1C",
"i  c #3E2106",
"p  c #3F220B",
"a  c #2D201C",
"s  c #3E2011",
"d  c #32221E",
"f  c #131720",
"g  c #151A23",
"h  c #1B1D25",
"j  c #191E29",
"k  c #211E23",
"l  c #2E1E21",
"z  c #321F20",
"x  c #1F2027",
"c  c #1C222D",
"v  c #1F2430",
"b  c #222027",
"n  c #2C2221",
"m  c #21232C",
"M  c #342423",
"N  c #3B2525",
"B  c #372824",
"V  c #3C2A25",
"C  c #352429",
"Z  c #39262B",
"A  c #372A28",
"S  c #3D2B2B",
"D  c #212633",
"F  c #232935",
"G  c #262D3B",
"H  c #282F3D",
"J  c #3E2B31",
"K  c #29303E",
"L  c #432307",
"P  c #492607",
"I  c #4B2C0C",
"U  c #5A2D09",
"Y  c #422212",
"T  c #4B2717",
"R  c #4B2914",
"E  c #4F2A19",
"W  c #533510",
"Q  c #622F09",
"!  c #65320A",
"~  c #6F360C",
"^  c #71350B",
"/  c #74380D",
"(  c #402D27",
")  c #422D2C",
"_  c #45322D",
"`  c #49342E",
"'  c #422D32",
"]  c #482E30",
"[  c #453135",
"{  c #4B3531",
"}  c #4D3932",
"|  c #443238",
" . c #493339",
".. c #513734",
"X. c #523B35",
"o. c #563C39",
"O. c #5A3E3B",
"+. c #724917",
"@. c #6B541E",
"#. c #56413C",
"$. c #5B423C",
"%. c #755D21",
"&. c #61433F",
"*. c #2B3341",
"=. c #2F3848",
"-. c #313747",
";. c #303847",
":. c #323A4B",
">. c #353E51",
",. c #573C41",
"<. c #593E43",
"1. c #374053",
"2. c #394255",
"3. c #3C4558",
"4. c #3F4A5F",
"5. c #5B4244",
"6. c #5D4842",
"7. c #5B4149",
"8. c #404A5F",
"9. c #644541",
"0. c #644B44",
"q. c #6A4A45",
"w. c #6F4D48",
"e. c #714D49",
"r. c #685047",
"t. c #6C524A",
"y. c #71564C",
"u. c #73584E",
"i. c #775B52",
"p. c #7F6156",
"a. c #434F64",
"s. c #455066",
"d. c #6D6475",
"f. c #6C6679",
"g. c #6C697D",
"h. c #7F737E",
"j. c #846558",
"k. c #6C6D85",
"l. c #6D728D",
"z. c #757386",
"x. c #7B7483",
"c. c #72758C",
"v. c #78778C",
"b. c #7A788C",
"n. c #6D7691",
"m. c #6D7995",
"M. c #6E7D9C",
/* pixels */
"a.a.a.M.M.M.M.M.m.m.n.n.n.v.c.v.b.b.b.#.#.$.#.#.#.#.#.#.} ` _ [ _ J ' _ _ _ ] ` ` ] ( ( ] g.k.z.l.l.n.n.m.m.M.M.M.M.M.M.M.s.s.s.",
"a.a.s.M.M.M.M.m.m.n.n.l.c.z.z.b.x.z.x.r.r.r.r.r.&.$.#.#.$.#.X.X.X.} ............X.X.X.....f.g.g.k.k.k.l.n.m.m.M.M.M.M.M.M.s.s.s.",
"a.a.s.M.M.M.M.m.m.n.l.l.z.z.x.h.h.h.h.u.u.u.y.y.y.y.r.&.&.&.$.$.5.O.#.O.O.&.O.O.&.O.O.&.O.d.d.d.g.k.k.l.n.n.m.m.M.M.M.M.M.a.a.a.",
"G G v j 1 , < t M A _ } #.6.0.t.u.i.p.p.p.y.r.t.r.r.&.r.r.r.r.r.0.9.9.9.&.9.9.9.&.&.&.&.&.O.O.o...{ ) S z z t < & & = f j *.=.>.",
">.>.-.H m 3 2 t n A J J 5.6.r.u.i.p.p.p.p.r.} } #._ ` #.&.&.&.$.&.&.&.&.w.q.w.9.&.e.&.&.9.9.&.O.o...] ) N y t < & : > c G =.>.3.",
"a.s.8.2.-.m h a a A _ #.#.6.r.u.i.p.p.p.j.r.@.} #.#.` #.#.#.} } ` X.O.&.w.e.e.e.e.e.e.e.w.9.&.&.O...` ) N d r < , f j *.:.3.4.4.",
"4.s.s.8.>.K b 3 k a B S { #.6.6.@.r.y.u.i.u.} } ` #.W ` #.( _ _ ` ] ` O.q.q.w.q.&.w.q.9.9.&.O.O...` ) N d r w < 2 h v =.>.a.a.4.",
":.2.3.2.-.K x 2 1 3 t a n A S [ #.#.#.#.#.#.#.#.#.#.#.` _ #.` } ` ` ` o.o.O.o.o.o.o.o.......` _ ) N d u e w * , 2 h v *.>.>.3.>.",
"K 1.2.1.1.K m x 3 < < e a a B V _ _ } #.} #.#._ W #.#.} } } } ` { { ] ` ` ` ` ` ` ` _ ( ( ( ( B z z r w < * , , g j D *.-.>.>.*.",
"-.1.8.8.1.;.K F x g 3 w 3 a d B V _ _ } } } #.} #.#.` #.} } } } { ` ` ` ` ` ` ` ` ` ` ` ( ( T B z y e w < , 2 h v F *.-.>.>.>.-.",
"-.2.8.2.1.:.K K G D x 3 < a a d B A ( } _ } } #.X.X.#.` } } } ` { { { { } } ` ` } ` _ ` ` ( ( ( u y e < < 2 h D G *.-.>.>.>.>.>.",
";.2.2.2.1.:.;.;.;.G D x 3 3 k a B B V _ _ } } } } } } } } } } } { { ` { ` ` } _ ` ` ` ( ` ( d d u y w < 2 j D H *.-.-.>.8.8.>.:.",
"-.2.8.2.1.:.;.;.1.;.K F x 3 a t a a B V ( _ V #.` ` ` #.} } _ _ ` ` ` ` ` { ` #.} ` ` _ ( V d d y r e 2 k D H -.:.:.:.>.>.3.>.:.",
"-.2.2.1.1.:.:.1.1.1.K K F c x 3 t a a B V V V ( ( _ ( ( _ ` _ _ _ _ _ _ _ _ _ } ( ` _ _ ( d d a y e e h b G -.:.:.:.:.>.3.3.>.:.",
";.1.2.2.:.;.K 1.1.1.K ;.K K D b k a a a B B B V V ( V ( _ V V V V V S V S V _ V ( V V V V d d a e t 3 k F *.:.>.>.:.:.>.2.2.>.:.",
":.1.2.2.1.;.1.1.1.1.1.;.1.K K F x t e r r a d d d d B d d d d d M d d B B B B B T B B d d a a e e 3 k D G =.:.2.>.:.:.:.2.2.2.:.",
"-.1.2.2.:.:.:.2.2.2.>.>.:.:.-.*.F b k e e e e r a r a a r a r a a a r a r a a a u y u y r e w w 3 h m G *.-.>.>.>.>.:.>.>.2.>.:.",
"-.1.3.2.1.:.:.:.2.2.>.>.>.>.:.=.H F k 2 , * * w < < * w w * * w * * < w w w w e e e e w w w < 2 h m G H -.>.>.>.>.>.:.>.>.2.>.:.",
"-.1.2.2.>.:.:.1.2.7.7.<.<.7.>.:.-.H m h , & & & & & & & & & & & & & & & & * * * * * * * , < 2 k m G H O.<.<.7.7.<.>.:.:.2.>.>.:.",
":.1.2.2.>.:.O.<.7.7.<.<.7.<.7.<.<.K F h , . . . . @ $ . $ $ X X X X X X X X $ $ $ $ $ $ - 2 h D G o.O.<.<.<.7.<.7.<.<.>.>.>.>.=.",
"-.>.>.>.>.,.,.o.O.,.,.<.<.<.<.<.<.o.F h -   .     .   . .   .   . .   . .   . . . . . O - 2 h D ] ] ] ]  . . .' ' [  . .=.=.*.F ",
"F H *.H G S Z ' ) ^ ) Q Z C l l z y 1 + o                                             o + ; g z Z ' ' ' J ' ^ ' ' J ' J J *.*.v ",
"F G *.H F ' ) ' ` ` _ ( ! S C M z z 1 = o                                             o = f g ) ' ' ' ' { { ` ) ' ' J J J *.*.v ",
"F G H *.' ' ) ] { { / ~ ! S V M z z r + o                                             o - f N ) ' ' ' ] ] / ` ` ) ) J Z ,.J *.v ",
"F *.*.G ' ' ' { { / / / @.S V C z z u - o                     # 5 .                   o - f ( ' ) ' ` ` ` / / / ] ' ' ' ' [ *.F ",
"F G *.G ' ' ' { } } %.%._ S S N Z z u - o                   # 7 7 4 4                 o - f Z ) ' ' ` ` / / / %.] ] ) ' [ [ G F ",
"v G *.G ' ' ' { ..q Y E T ) ) Z ) z u - o               % 6 7 7 8 8 8 5 #             o - f N Z ) ' ` ` ` %.%.` ` ` ' ' |  .G F ",
"F G *.*.' ' ' { }  .q q ) ( S Z z z u - o             @ 6 6 7 L P 0 8 8 7 .           o = 1 N N Z Z _ ) q q T E ` ' ' ' | [ G F ",
"G G *.G G ' ' ' } { Y s S ( Z C J z f - o             # 6 7 i U ! P L 8 7 #             = 1 z N Z Z ] ) _ q q {  .' ' ' | | G F ",
"F *.*.*.G ' ' J ' ' S S V C C C z z 1 = o             # 6 7 i Q +.I L 8 7 5           o = 1 h Z Z Z S ) _ s q _ ' ' ' | | *.*.v ",
"v G *.*.G J S J J Z Z C M l l l z z > + o             @ 6 7 i W @.I L 8 7 5             = 1 g C N Z Z Z S S S ) J ' ' ' | *.G v ",
"v G G G G F J J J Z C C l l l l l g : +               @ 6 7 i p R R L 8 7 5           o = > g j C C C C C C C Z J S ' ' G G G v ",
"v G v G v v v v G Z C n l y g g f 1 - +               @ 5 6 9 p Y L 0 8 7 5             = > g c c C C C Z C C Z J J | G G G v v ",
"c v v v v v v G v v v j f g f g f 1 - o o             @ 5 5 6 9 L L 8 8 7 @           o - 1 g j c c c C Z m C Z J v v v v v v v ",
"c v v v v v v G *.v c j g g g f f > - o               . 4 5 5 7 7 7 8 8 5             o = > h j c c c c c v v v v v v v v v v v ",
"v v G G G v v G v v v c g g f 1 > > + o                 . @ @ @ # # # # .               = 1 h j g c c g c c v v v G v G G v v v ",
"v G G G G v v v v v j g f 1 > > > - + o                                               o = 1 g j c c c c c c c v v G v G *.G v v ",
"G G *.*.G v v v v v g g > > > > - = o                                                 o = 1 g j g c c g g c c c v v G K G *.G G ",
"v K *.G G v v v c j f 1 : - = + + o o                                                   = > f g g c c c g j c c v v v G K *.K v ",
"G G *.G v c j j g f > : = = + o o o o                                                 o + - 1 1 g g g g g c g c c v v v G K K G ",
"G G K G v c j j g f > - = + o o o                                                       o o - > > 1 f f 1 f g g c c c v G K G F ",
"v G G G v j g f 1 > - + o o o o o                                                       o o = - : : > > 1 f f g g c c c F G G F ",
"G G *.G c j f 1 > - = o o o o                                                             o o = - : : > > 1 f f 1 g c c F G G F ",
"v *.G G c g f > , - = o o o   o o                                                         o + = - - : : > > > f g c c c F G G F ",
"F H H F c g > > : - = = o o o   o                                                         o o = - - : : : : > > 1 j c v F K G F ",
"F G H G c j f > - - = = o o   o                                                           o + = = - : - : : > > > g j c F G G F ",
"F G H G c j f f 1 - - = o o o                                                           o o = = : : : : > > > > 1 g j c F K G F ",
"F H H G c g g 1 1 - - = + o o     o                                                       o = - : : > > > > 1 > > j c v F G G v ",
"F H H G c j g f f > : = + o o o                                                         o o = = - : > > 1 1 1 1 1 c c c v G G v ",
"F G H F c j g g f > : - + o o o                                                           o = = : : 1 1 > f g f g g c c v G *.v ",
"F G H G c j g f f > > = o       o                 o o o o o o o + + + + + + o + + o o o o o = = : > 1 1 f f g h g c c c v G *.v ",
"G G H F c j g g > > : = o o o o o o o o o o o o o o + + - - = - : > > 1 > : - > > - - = = + o = = : > 1 f f g g g c c c G G *.v ",
"F G K F c j g g 1 - - = o o o o o o o o o   o o o + + = - = - - - > > > > > : - - - - - - - = = = - > > 1 f g h g g c v v G G v ",
"F G K F v j g g 1 1 = = + + + + + o o o o o o o + + = - - = - - 1 1 1 1 1 1 > : > - - - : : : = = = = > > f g g g c c c G *.*.v ",
"G H K G v j g g 1 - - = = = + o + o o o o o o + o + = - - - - - > 1 1 > > 1 > > > - : - : > : - - = - - > 1 f g g c c v v G G v ",
"F H K G v j g g 1 1 : - - = + + + + o o o o + + + + - - : - : > > > > > > - - = - - = - - : - : : : > > > > 1 g f c c v G K *.v ",
"F K K G v c h h , f f > > > : : : - + + = = = - - - : : > > > > > f f 1 > > > > - - - - > 1 > : > > 1 f 1 1 1 1 f c c v G K G F ",
"G K K G c h g 1 g g g g f f 1 > > : = = - - : > 1 > > 1 g f f 1 > f f f g f f > > - - - 1 1 1 1 g g g g g h h f f g v F G G G F ",
"F H H F D h g g h h g g g f f f > : - - > : > : 1 > f g g f f 1 f f f f f f > > > > : - > 1 1 1 f f g j h g h g g h c F G K G F ",
"D G G F c x h j g g g f g f 1 f 1 f f 1 1 1 1 1 1 f g g g g f > f f h g g f 1 f 1 1 1 1 1 1 f 1 f f f g g j j g g x c F F K G F ",
"m F F c v D F F v v v v v v v v v c c c c c c c c v v *.v v c c c v G G v v v v j c c c v j v v c c v v D F F F v m D F F K G m ",
"c m c F G G *.*.*.*.*.*.*.*.G *.K *.*.K *.K K K *.*.=.=.*.G v v v G *.*.=.*.*.*.*.G *.G *.*.G G G *.G G K K *.*.K G G F F F F m ",
"j c m F G G *.*.*.*.*.K H *.*.*.K K K *.K *.*.*.*.*.*.G H G v c v G G *.*.*.*.*.*.*.*.*.*.*.*.G *.*.*.*.K K *.*.*.K G F F F F b ",
"j j c c c v c v v v v c v v c v v v v v c c c v c v v v v c c c c c c v v v v c v v c v v j v v c v v v D c D c v c D c c v m x "
};
