/* XPM */
static char *result[] = {
/* columns rows colors chars-per-pixel */
"64 64 134 2 ",
"   c #010102",
".  c #0C0403",
"X  c #0E0906",
"o  c #04060A",
"O  c #0F0708",
"+  c #06090E",
"@  c #0D080B",
"#  c #120502",
"$  c #1B0701",
"%  c #130906",
"&  c #1D0A03",
"*  c #100708",
"=  c #140B0C",
"-  c #180E0D",
";  c #1A110E",
":  c #070A10",
">  c #0A0D13",
",  c #160E11",
"<  c #190F11",
"1  c #0C1017",
"2  c #0E121A",
"3  c #151114",
"4  c #1D1313",
"5  c #12151E",
"6  c #1A161B",
"7  c #1D191D",
"8  c #230C01",
"9  c #290F02",
"0  c #261103",
"q  c #2B1303",
"w  c #2A1D05",
"e  c #271208",
"r  c #2D1609",
"t  c #331603",
"y  c #351B05",
"u  c #3C1B04",
"i  c #331A0B",
"p  c #211613",
"a  c #251916",
"s  c #281B17",
"d  c #221619",
"f  c #241A1A",
"g  c #2A1D1B",
"h  c #301F1E",
"j  c #2B2007",
"k  c #2F2408",
"l  c #372208",
"z  c #3A2D0D",
"x  c #2D201C",
"c  c #32221E",
"v  c #131720",
"b  c #151A23",
"n  c #1A1D25",
"m  c #1A1F29",
"M  c #211E23",
"N  c #2D1D21",
"B  c #1F2027",
"V  c #1B212B",
"C  c #1F2430",
"Z  c #222027",
"A  c #2D2121",
"S  c #21232C",
"D  c #342521",
"F  c #392624",
"G  c #372824",
"H  c #3C2B25",
"J  c #362529",
"K  c #372A28",
"L  c #3E2D29",
"P  c #222632",
"I  c #242934",
"U  c #262C3A",
"Y  c #292E3C",
"T  c #2A303E",
"R  c #4A2E0B",
"E  c #4A3712",
"W  c #402D27",
"Q  c #432E2A",
"!  c #45322C",
"~  c #49342F",
"^  c #463331",
"/  c #4B3631",
"(  c #4D3932",
")  c #513734",
"_  c #523B35",
"`  c #553C39",
"'  c #5A3E3B",
"]  c #56413C",
"[  c #5B423C",
"{  c #61433F",
"}  c #2E3544",
"|  c #2F3749",
" . c #313747",
".. c #303847",
"X. c #323A4C",
"o. c #353E51",
"O. c #573C41",
"+. c #593E44",
"@. c #374053",
"#. c #394255",
"$. c #3C4558",
"%. c #3F4A5F",
"&. c #5C4244",
"*. c #5D4842",
"=. c #5B4149",
"-. c #404A5F",
";. c #644541",
":. c #644B44",
">. c #6A4A45",
",. c #6F4D48",
"<. c #714D49",
"1. c #685047",
"2. c #6C524A",
"3. c #71564C",
"4. c #73584E",
"5. c #7A5D54",
"6. c #7F6156",
"7. c #434F64",
"8. c #455066",
"9. c #6D6475",
"0. c #6C6679",
"q. c #7F737E",
"w. c #826357",
"e. c #846558",
"r. c #81747D",
"t. c #6C6D85",
"y. c #6D728D",
"u. c #757386",
"i. c #7B7483",
"p. c #72758C",
"a. c #7A788C",
"s. c #6D7691",
"d. c #6D7995",
"f. c #6E7D9C",
/* pixels */
"7.7.7.f.f.f.f.d.f.d.d.s.p.p.p.p.a.a.a.] ] [ ] ] ] ] ] ] ( ^ ^ ^ ^ Q ^ Q ^ Q ^ ~ Q Q Q Q Q r.t.t.t.y.y.d.s.d.d.f.f.f.f.f.f.8.8.8.",
"7.7.8.f.f.f.f.d.d.s.s.y.p.u.u.a.i.r.i.1.1.1.1.{ { 1.] ] ] ` ` ( ( ) ) ) ) ) ) ) ) ) ) ) ) 9.9.t.t.t.y.y.s.d.d.f.f.f.f.f.f.8.7.8.",
"7.7.8.f.f.f.f.d.d.s.p.y.u.u.i.q.r.r.r.3.4.4.3.3.3.2.{ 1.:.*.[ [ &.+.] ' ' { ' ' { ' { ) ' 9.9.9.0.t.t.y.y.s.d.d.f.f.f.f.f.%.8.7.",
"U U C m 5 3 4 a A K ! ( ` *.1.2.4.4.5.5.6.3.1.2.1.1.1.{ >.2.:.>.;.;.;.;.;.;.;.;.{ { { { { ' ' ' ) ) ^ J F h d 4 < , : 5 m } | o.",
"o.o. .T S 7 7 f S K K ] &.*.2.4.4.6.6.w.e.{ ( ( ] ] ! ] *.:.{ [ { ;.;.>.>.>.>.>.{ w.;.{ ,.{ { ' ` ) ~ Q J h s 4 , 1 2 m U | $.$.",
"7.8.-.#. .P M M A K L ( ] *.2.4.5.6.e.e.e.2.] E E ] ( E ] ( ( ( ~ ) ` { ,.<.<.<.{ w.{ w.,.{ { ' ' ) ~ Q F N d d < 5 m } | $.%.%.",
"%.8.8.-.X.T Z 7 x A G L ^ ] *.*.{ 3.3.3.5.4.] ] ] ! ] ] / ~ / ~ ~ Q Q { >.>.>.>.{ { { { { ;.' ' ) ~ Q F h N p < 6 n C | o.7.7.%.",
"X.#.$.#...Y B 7 3 6 7 x A K L ^ ~ ] ] [ [ [ ] ~ ] ] ] ! ( ( ( ~ ~ ~ ~ ` ` ` ` ' ' ' ' ) ) ) ~ Q Q F h h e d < < 6 n C } o.o.#.o.",
"..@.#.#.X.T P n 6 6 4 x x x G K L ] L ] ] ] ] ] ] ( ] ~ ] ( ! ] ~ ~ ~ ~ ~ ~ ~ ~ ~ ~ ~ Q Q W W W c h s p 4 < 3 3 b m P Y | X.X.| ",
"..#.$.$.#...Y P V B 7 4 6 x c G L L ] L ] ! ] ! ( ( ] ] ~ ! ] ! / ~ ~ ~ ~ ~ ~ / ~ ~ ~ Q Q W W c c g a p 4 3 6 n C I } | o.#.o.X.",
"..#.$.$.#.X.} T I C B 7 7 a x A G L L ! H ] ^ ] ] E ] ~ ] E ] W / / ) ~ ~ ~ ( ~ ~ ~ ~ Q ! W W W h s a 4 4 6 n P U } } X.#.#.#.X.",
"..#.$.$.@.X...X.} Y P B 7 7 x x G K L L E ^ ! ] _ _ ( ( ( / ! ] / ~ ~ ~ ( ~ ( ( ) ~ ) Q ! Q c c h s d 4 6 m I Y } | | o.$.$.o.X.",
"..#.#.#.@.X.X.X.X...T P B 7 x x x x G L L ! ! ~ ~ ~ ~ ~ ] ! ! ! ^ ^ ^ ^ ~ ~ / ~ ~ ~ ! ! Q W c c h s p 6 n P Y  .X.X.X.@.#.$.#.X.",
"..#.$.$.X.X.X.X.@.X.} T I C B 7 M x c G H H ! L ! ! ! ! ! ! ! ! Q ^ ! ! ! ~ ! ~ ! ~ ! Q W c c x g s d f S U } X.X.X.X.X.#.#.#...",
"..@.#.#.@.X.X.X.@.@...} T Y C B x a x x c G H H H L E L H H L H L H W W W W Q ! W W W H c c c x a 7 7 S I } X.X.@.X.X.@.#.#.@...",
"..@.#.#.X.X.X.@.@.@.@.@...T Y I B 7 7 x x x x c c c c D G c c c D D D D D G G c z F F c c c x s p f n S Y ..X.@.@.X.X.X.@.#.@.X.",
"X.o.$.#.o.X.X.o.#.#.o.X.X.X.X.T I Z M d p a a a x x s x x s x x x x x x s x x x x x x x s a p d 7 Z S U } | o.o.o.o.X.o.o.$.o.| ",
"X.o.#.#.o.| X.o.#.#.@.o.o.o.X.| T I M 6 4 ; 4 4 4 ; ; p p ; 4 4 ; 4 ; 4 4 p p a a a p p p 4 4 6 n S U T | o.o.o.o.X.| X.o.$.o.| ",
" .#.$.#.o.| X.o.#.=.=.=.=.=.o.X. .Y S b 3 X - - - - - - & - % % % - - - ; - ; ; ; ; ; ; ; 4 6 n M U T ' +.+.=.=.+.o.X.o.o.$.o.X.",
"} X.#.o.X.| O.O.+.+.+.+.+.=.+.+.O.} I n 1 . . . X . . # X X X X X X X . X X % % % % % = = 5 n P } ` ' +.+.+.=.+.=.+.+.o.o.o.X.| ",
"C C I P C N N f d f d N J J J J D J n 2 +     .                     .       .   .     X + > v n N h J J N J N N f N N N n b b b ",
"b b m b v d p < 4 t ; 9 - * O O O O                                                           * * * = * @ = 9 = < < < < d b b v ",
"b m n n v d d < e 4 - - 9 = * * O O                                                         o O * * = * , - - = = < < < 6 v v v ",
"b b n n f d p p p d t t 0 - = * O . .                                                       . O * , = , = 9 - - = = , < p d v v ",
"b b m b N d d d a u u t k - - = O * .                           .                           # = = = - = - 0 9 0 - = < < < d v v ",
"b m m m N d d p f a R l p < - = = = *                       . # # . .                       * * * = % - 9 9 0 j - - = < d d v v ",
"b m m m N d d f f & - e 8 4 < < < = =                   . # $ $ $ $ $ # .                 o . O * = % - - w w , - - = < 4 4 5 5 ",
"b m m m N g f d f f & & p p 4 < < - =                   # $ $ 0 9 9 8 & $               o   . = * O = = . # $ $ - = , < 3 d 5 5 ",
"b m V m m M d d f f 8 8 4 4 < < < = o                 . # $ 0 y u q 0 8 $ #                 * * = = = = = # # = < = , < 4 d 5 5 ",
"b m V V n N N d d s d d 4 4 < , - = o o               . $ 8 q u R y q 9 8 $                 o O * = @ = = # # = = = = , 6 5 5 5 ",
"b m V m m N d d d 4 < < - , , , = = o                 . $ & 0 l E y q 0 8 $             o   o O = * = O = = = , = = , < < 5 5 2 ",
"v b m m b v d d d p < < - = = = < o o                 . $ 8 0 q i y q 8 8 $               o o o O @ O @ @ * * * * = , , 2 2 5 2 ",
"v v n b v v v v 6 6 4 4 , - + > > + o                 . $ 8 0 q r w 9 9 8 $                 o o o @ = O * O = = O = = : > 3 2 2 ",
"2 2 5 5 5 2 2 5 2 2 1 > + + + + + o o                 . $ $ & 0 q q 8 8 8 .               o o o o o o @ @ @ O @ @ : + + > > > 1 ",
"2 2 2 5 2 2 2 5 2 1 > > + + + + + o o                   # $ $ $ 9 8 8 8 $                 o o o o + o o o + + + o : + : > > > 2 ",
"2 v v v v 2 2 2 2 1 > > + + o o o o                       . . . . # # #                   o   o o o o o + o o + : : : : > > > 2 ",
"v v b v 5 2 1 2 1 > : : o o o o o o                                                       o o o o o o o o o o + + + + : > > 1 2 ",
"5 b b b v 2 1 > > o o o   o o o                                                               o o o o o o o o o + + + + > 2 2 2 ",
"5 b b b v 1 1 > : o o o o                                                                   o   o o o o   o o o o + + + : 1 2 2 ",
"2 v b v 2 > : : o o                                                                                       o   o o o + + : 1 2 2 ",
"2 b v v 2 > : + o   o                                                                                     o   o o o o o + 1 1 2 ",
"2 v v 2 > : + o                                                                                     o       o   o o o o + > 1 2 ",
"2 2 v 2 : + o o o                                                                                             o   o o o + > 1 2 ",
"2 v v 2 : + o                                                                                             o       o o o + > 2 2 ",
"2 v 5 2 > + o o                                                                                                   o o o : > 2 2 ",
"2 2 v 2 > + o                                                                                                 o   o o o : 1 2 2 ",
"2 v v 2 : + o                                                                                         o   o     o o + + : 2 2 5 ",
"2 5 v 2 > o o o                                                                                             o     o o + > 2 2 5 ",
"2 2 v 2 > : o                                                                                             o o   o O o : > 2 v v ",
"2 v v 2 > : o o   o                                                                             o     o       o o o : : > 2 v v ",
"2 v v 2 > : o                                                                                       o   o o o o o o : : 2 2 v v ",
"2 2 5 2 > : o o o                                           o o o o o o o o   o o               o     o   o o o o : : > 2 2 v v ",
"2 v v 5 1 : + o                                         o     o   o o o o         o                 o   o o o o o : > > 1 5 b b ",
"v b b 2 2 > : o o o                                       o   o o o o o o o o o o   o   o                 o o + o : : > 1 5 v v ",
"v v b v 2 > : o o                                     o o   o o o o o o o o o   o       o                   o o : : > > 2 5 v v ",
"v b m v 2 > : o o                                         o o     o o o o o   o   o               o o   o o o o o : > 1 2 b m b ",
"v b m b 5 2 > o o o o         o           o           o o o o o o o o o + o   o   o       o o o   o o o o O o o + > 1 1 v b n b ",
"v m b v 2 > > o o o o o o o o   o           o   o o o o o o : o o : + + + + o o o o   o o o o o + + : + : : : + + > 1 5 v b b b ",
"b b m v 5 > : + + : + o + o o o o     o o o   o   o o + o : : o o + + + + + o + o o   o o o o o o + : : : > > > : > 5 5 b m m b ",
"b b b v 2 , 1 > : : + + + + o o : o o o o o o o o o : > > : : : : : : : : : o o o + o o o o o o + + + : : > > > > > 5 6 b b n b ",
"v b b 5 v v v v 5 5 2 5 5 5 1 1 2 2 2 2 2 2 2 2 5 v v b b 5 2 > 2 v b b 6 2 2 2 1 1 1 > > > 1 > > > 2 2 2 2 v 2 2 5 5 b b n n v ",
"5 v v 6 b m m V m V m m m m m m m m m m m m m V V V V C C m v 5 v b m m m m b b b b b b b b b b b b b v n b m m n b b b b b b v ",
"5 v v v b m V m C m m m m m V V C m V V V m m V m m V C m b b 5 v b n m m n m m m m m m m m V m m m V V m V V V V m b b b v v 6 ",
"2 2 2 v 5 5 b 5 v 5 v v b v v v 5 5 5 5 v v v v v v v v 5 5 5 5 5 5 v v v v v b v 6 v v v v 5 v 5 v 5 v v v v v v v v v v v v 2 "
};
