/* XPM */
static char *result[] = {
/* columns rows colors chars-per-pixel */
"64 64 13 1 ",
"  c #060608",
". c #412320",
"X c #59302C",
"o c #5C322D",
"O c #6D3B36",
"+ c gray36",
"@ c #434F65",
"# c #9A544C",
"$ c #6F7F9F",
"% c gray55",
"& c gray68",
"* c #A6B0C4",
"= c white",
/* pixels */
"@@$$$$$$$$$$$$$$$$XXXX...XXXXXXXXXXXXX...XXX$$$$$$$$$$$$$$$$@@@$",
"@@$$$$$$$$$$$$$$$$XXXX...XXXXXXXXXXXXX...XXX$$$$$$$$$$$$$$$$@@@$",
"@@$$$$$$$$$$$$$$$$XXXX...XXXXXXXXXXXXX...XXX$$$$$$$$$$$$$$$$@@@$",
"XXXXXXXXX...XXXXXXXXXX...XXXXXXXXXXXXX...XXXXXXXXX....XXXXXXXXX$",
"XXXXXXXXX...XXXXXXXXXX...XXXXXXXXXXXXX...XXXXXXXXX....XXXXXXXXX$",
"XXXXXXXXX...XXXXXXXXXX...XXXXXXXXXXXXX...XXXXXXXXX....XXXXXXXXX$",
"XXXXXXXXX...OOOOOOOOOOoooOOOOOOOOOOOOOoooOOOOOOOOO....XXXXXXXXX$",
"XXXXXXXXX...OOOOOOOOOOoooOOOOOOOOOOOOOoooOOOOOOOOO....XXXXXXXXX$",
"XXXXXXXXX...OOOOOOOOOOoooOOOOOOOOOOOOOoooOOOOOOOOO....XXXXXXXXX$",
"XXXXXXXXX...OOOOOOOOOOoooOOOOOOOOOOOOOoooOOOOOOOOO....XXXXXXXXX$",
"OOOOOOOOOoooOOOOOOOOOOoooOOOOOOOOOOOOOoooOOOOOOOOOooooOOOOOOOOO@",
"OOOOOOOOOoooOOOOOOOOOOoooOOOOOOOOOOOOOoooOOOOOOOOOooooOOOOOOOOO@",
"OOOOOOOOOoooOOOOOOOOOOoooOOOOOOOOOOOOOoooOOOOOOOOOooooOOOOOOOOO@",
"%%%%%%&&&oooOOOOOOOOOOooo                OOOOOOOOOooooOOOOOOOOO*",
"%%%%%%&&&oooOOOOOOOOOOooo                OOOOOOOOOooooOOOOOOOOO*",
"%%%%%%&&&oooOOOOOOOOOOooo                OOOOOOOOOooooOOOOOOOOO*",
"%%&&&&&&&oooOOOOOOOOOO   +++&&&&&&=======   OOOOOOooooOOOOOOOOO$",
"%%&&&&&&&oooOOOOOOOOOO   +++&&&&&&=======   OOOOOOooooOOOOOOOOO$",
"%%&&&&&&&oooOOOOOOOOOO   +++&&&&&&=======   OOOOOOooooOOOOOOOOO$",
"OOOOOOOOOoooOOOOOO    +++&&&          +++===   OOOooooOOOOOOOOO$",
"OOOOOOOOOoooOOOOOO    +++&&&          +++===   OOOooooOOOOOOOOO$",
"OOOOOOOOOoooOOOOOO    +++&&&          +++===   OOOooooOOOOOOOOO$",
"OOOOOOOOOoooOOOOOO    +++&&&          +++===   OOOooooOOOOOOOOO$",
"OOOOOOOOOoooOOOOOO    +++&&&          +++===   OOOooooOOOOOOOOO$",
"OOOOOOOOOoooOOOOOO    +++&&&          +++===   OOOooooOOOOOOOOO$",
"OOOOOOOOOoooOOOOOO    +++&&&          +++===   OOOooooOOOOOOOOO$",
"OOOOOOOOOoooOOO   ++++&&&&&&&&&&&&&&&&&&&&&&===   ooooOOO&&&OOO$",
"OOOOOOOOOoooOOO   ++++&&&&&&&&&&&&&&&&&&&&&&===   ooooOOO&&&OOO$",
"OOOOOOOOOoooOOO   ++++&&&&&&&&&&&&&&&&&&&&&&===   ooooOOO&&&OOO$",
"OOOOOOOOOoooOOO   ++++&&&&&&&&&&&&&&&&&&&&&&===   ooooOOO&&&OOO@",
"OOOOOOOOOoooOOO   ++++&&&&&&&&&&&&&&&&&&&&&&===   ooooOOO&&&OOO@",
"OOOOOOOOOoooOOO   ++++&&&&&&&&&&&&&&&&&&&&&&===   ooooOOO&&&OOO@",
"OOOOOOOOOoooOOO   ++++&&&&&&&&&       &&&&&&===   ooooOOO&&&OOO*",
"OOOOOOOOOoooOOO   ++++&&&&&&&&&       &&&&&&===   ooooOOO&&&OOO*",
"OOOOOOOOOoooOOO   ++++&&&&&&&&&       &&&&&&===   ooooOOO&&&OOO*",
"OOOOOOOOOoooOOO   ++++&&&&&&&&&       &&&&&&&&&   ooooOOO&&&OOO$",
"OOOOOOOOOoooOOO   ++++&&&&&&&&&       &&&&&&&&&   ooooOOO&&&OOO$",
"OOOOOOOOOoooOOO   ++++&&&&&&&&&       &&&&&&&&&   ooooOOO&&&OOO$",
"OOOOOOOOOoooOOO   ++++&&&&&&&&&       &&&&&&&&&   ooooOOO&&&OOO$",
"OOOOOOOOOoooOOO   ++++&&&&&&&&&       &&&&&&&&&   ooooOOO&&&OOO$",
"OOOOOOOOOoooOOO   ++++&&&&&&&&&       &&&&&&&&&   ooooOOO&&&OOO$",
"OOOOOOOOOoooOOO   ++++&&&&&&&&&       &&&&&&&&&   ooooOOO&&&OOO$",
"OOOOOOOOOoooOOO   ++++&&&&&&&&&&&&&&&&&&&&&&&&&   ooooOOOOOOOOO$",
"OOOOOOOOOoooOOO   ++++&&&&&&&&&&&&&&&&&&&&&&&&&   ooooOOOOOOOOO$",
"OOOOOOOOOoooOOO   ++++&&&&&&&&&&&&&&&&&&&&&&&&&   ooooOOOOOOOOO$",
"OOOOOOOOOoooOOO   ++++&&&&&&&&&&&&&&&&&&&&&&&&&   ooooOOOOOOOOO$",
"OOOOOOOOOoooOOO   ++++&&&&&&&&&&&&&&&&&&&&&&&&&   ooooOOOOOOOOO$",
"OOOOOOOOOoooOOO   ++++&&&&&&&&&&&&&&&&&&&&&&&&&   ooooOOOOOOOOO$",
"OOOOOOOOOoooOOOOOO                             OOOooooOOOOOOOOO@",
"OOOOOOOOOoooOOOOOO                             OOOooooOOOOOOOOO@",
"OOOOOOOOOoooOOOOOO                             OOOooooOOOOOOOOO@",
"%%%%%%&&&oooOOOOOOOOOOoooOOOOOOOOOOOOOoooOOOOOOOOOooooOOOOOOOOO*",
"%%%%%%&&&oooOOOOOOOOOOoooOOOOOOOOOOOOOoooOOOOOOOOOooooOOOOOOOOO*",
"%%%%%%&&&oooOOOOOOOOOOoooOOOOOOOOOOOOOoooOOOOOOOOOooooOOOOOOOOO*",
"%%&&&&&&&oooOOOOOOOOOOoooOOOOOOOOOOOOOoooOOOOOOOOOooooOOOOOOOOO$",
"%%&&&&&&&oooOOOOOOOOOOoooOOOOOOOOOOOOOoooOOOOOOOOOooooOOOOOOOOO$",
"%%&&&&&&&oooOOOOOOOOOOoooOOOOOOOOOOOOOoooOOOOOOOOOooooOOOOOOOOO$",
"%%&&&&&&&oooOOOOOOOOOOoooOOOOOOOOOOOOOoooOOOOOOOOOooooOOOOOOOOO$",
"OOOOOOOOOoooOOOOOOOOOOoooOOOOOOOOOOOOOoooOOOOOOOOOooooOOOOOOOOO$",
"OOOOOOOOOoooOOOOOOOOOOoooOOOOOOOOOOOOOoooOOOOOOOOOooooOOOOOOOOO$",
"OOOOOOOOOoooOOOOOOOOOOoooOOOOOOOOOOOOOoooOOOOOOOOOooooOOOOOOOOO$",
"#########ooo##########ooo#############ooo#########oooo#########$",
"#########ooo##########ooo#############ooo#########oooo#########$",
"#########ooo##########ooo#############ooo#########oooo#########$"
};
