/* XPM */
static char *result[] = {
/* columns rows colors chars-per-pixel */
"128 128 15 1 ",
"  c #060608",
". c #412320",
"X c #59302C",
"o c #5C322D",
"O c #6D3B36",
"+ c gray36",
"@ c #434F65",
"# c #9A544C",
"$ c #6F7F9F",
"% c gray55",
"& c #8895AF",
"* c gray68",
"= c #A6B0C4",
"- c white",
"; c None",
/* pixels */
";;;;;;;;;;;;;;;;;;;;;;;;;;;;;;;;;;;;;;;;;;;;;;;;;;;;;;;;;;;;;;;;;;;;;;;;;;;;;;;;;;;;;;;;;;;;;;;;;;;;;;;;;;;;;;;;;;;;;;;;;;;;;;;;",
";;;;;;;;;;;;;;;;;;;;;;;;;;;;;;;;;;;;;;;;;;;;;;;;;;;;;;;;;;;;;;;;;;;;;;;;;;;;;;;;;;;;;;;;;;;;;;;;;;;;;;;;;;;;;;;;;;;;;;;;;;;;;;;;",
";;;;;;;;;;;;;;;;;;;;;;;;;;;;;;;;;;;;;;;;;;;;;;;;;;;;;;;;;;;;;;;;;;;;;;;;;;;;;;;;;;;;;;;;;;;;;;;;;;;;;;;;;;;;;;;;;;;;;;;;;;;;;;;;",
";;;;;;;;;;;;;;;;;;;;;;;;;;;;;;;;;;;;;;;;;;;;;;;;;;;;;;;;;;;;;;;;;;;;;;;;;;;;;;;;;;;;;;;;;;;;;;;;;;;;;;;;;;;;;;;;;;;;;;;;;;;;;;;;",
";;;;;;;;;;;;;;;;;;;;;;;;;;;;;;;;;;;;;;;;;;;;;;;;;;;;;;;;;;;;;;;;;;;;;;;;;;;;;;;;;;;;;;;;;;;;;;;;;;;;;;;;;;;;;;;;;;;;;;;;;;;;;;;;",
";;;;;;;;;;;;;;;;;;;;;;;;;;;;;;;;;;;;;;;;;;;;;;;;;;;;;;;;;;;;;;;;;;;;;;;;;;;;;;;;;;;;;;;;;;;;;;;;;;;;;;;;;;;;;;;;;;;;;;;;;;;;;;;;",
";;;;;;;;;;;;;;;;;;;;;;;;;;;;;;;;;;;;;;;;;;;;;;;;;;;;;;;;;;;;;;;;;;;;;;;;;;;;;;;;;;;;;;;;;;;;;;;;;;;;;;;;;;;;;;;;;;;;;;;;;;;;;;;;",
";;;;;;;;;;;;;;;;;;;;;;;;;;;;;;;;;;;;;;;;;;;;;;;;;;;;;;;;;;;;;;;;;;;;;;;;;;;;;;;;;;;;;;;;;;;;;;;;;;;;;;;;;;;;;;;;;;;;;;;;;;;;;;;;",
";;;;;;;;;;;;;;;;;;;;;;;;;;;;;;;;;;;;;;;;;;;;;;;;;;;;;;;;;;;;;;;;;;;;;;;;;;;;;;;;;;;;;;;;;;;;;;;;;;;;;;;;;;;;;;;;;;;;;;;;;;;;;;;;",
";;;;;;;;;;;;;;;;;;;;;;;;;;;;;;;;;;;;;;;;;;;;;;;;;;;;;;;;;;;;;;;;;;;;;;;;;;;;;;;;;;;;;;;;;;;;;;;;;;;;;;;;;;;;;;;;;;;;;;;;;;;;;;;;",
";;;;;;;;;;;;;;;;;;;;;;;;;;;;;;;;;;;;;;;;;;;;;;;;;;;;;;;;;;;;;;;;;;;;;;;;;;;;;;;;;;;;;;;;;;;;;;;;;;;;;;;;;;;;;;;;;;;;;;;;;;;;;;;;",
";;;;;;;;;;;;;;;;;;;;;;;;;;;;;;;;;;;;;;;;;;;;;;;;;;;;;;;;;;;;;;;;;;;;;;;;;;;;;;;;;;;;;;;;;;;;;;;;;;;;;;;;;;;;;;;;;;;;;;;;;;;;;;;;",
";;;;;;;;;;;;;;;;;;;;;;;;;;;;;;;;;;;;;;;;;;;;;;;;;;;;;;;;;;;;;;;;;;;;;;;;;;;;;;;;;;;;;;;;;;;;;;;;;;;;;;;;;;;;;;;;;;;;;;;;;;;;;;;;",
";;;;;;;;;;;;;;;;;;;;;;;;;;;;;;;;;;;;;;;;;;;;;;;;;;;;;;;;;;;;;;;;;;;;;;;;;;;;;;;;;;;;;;;;;;;;;;;;;;;;;;;;;;;;;;;;;;;;;;;;;;;;;;;;",
";;;;;;;;;;;;;;;;;;;;;;;;;;;;;;;;;;;;;;;;;;;;;;;;;;;;;;;;;;;;;;;;;;;;;;;;;;;;;;;;;;;;;;;;;;;;;;;;;;;;;;;;;;;;;;;;;;;;;;;;;;;;;;;;",
";;;;;;;;;;;;;;;;;;;;;;;;;;;;;;;;;;;;;;;;;;;;;;;;;;;;;;;;;;;;;;;;;;;;;;;;;;;;;;;;;;;;;;;;;;;;;;;;;;;;;;;;;;;;;;;;;;;;;;;;;;;;;;;;",
";;;;;;;;;;;;;;;;;;;;;;;;;;;;;;;;;;;;;;;;;;;;;;;;;;;;&&&&&&&&&&&&&&&&&&&&&&&&;;;;;;;;;;;;;;;;;;;;;;;;;;;;;;;;;;;;;;;;;;;;;;;;;;;;",
";;;;;;;;;;;;;;;;;;;;;;;;;;;;;;;;;;;;;;;;;;;;;;;;;;;;&&&&&&&&&&&&&&&&&&&&&&&&;;;;;;;;;;;;;;;;;;;;;;;;;;;;;;;;;;;;;;;;;;;;;;;;;;;;",
";;;;;;;;;;;;;;;;;;;;;;;;;;;;;;;;;;;;;;;;;;;;;;;;;;;;&&&&&&&&&&&&&&&&&&&&&&&&;;;;;;;;;;;;;;;;;;;;;;;;;;;;;;;;;;;;;;;;;;;;;;;;;;;;",
";;;;;;;;;;;;;;;;;;;;;;;;;;;;;;;;;;;;;;;;;;;;;;;;;;;;&&&&&&&&&&&&&&&&&&&&&&&&;;;;;;;;;;;;;;;;;;;;;;;;;;;;;;;;;;;;;;;;;;;;;;;;;;;;",
";;;;;;;;;;;;;;;;;;;;;;;;;;;;;;;;;;;;;;;;;;;;;;;;;;;;&&&&&&&&&&&&&&&&&&&&&&&&;;;;;;;;;;;;;;;;;;;;;;;;;;;;;;;;;;;;;;;;;;;;;;;;;;;;",
";;;;;;;;;;;;;;;;;;;;;;;;;;;;;;;;;;;;;;;;;;;;;;;;;;;;&&&&&&&&&&&&&&&&&&&&&&&&;;;;;;;;;;;;;;;;;;;;;;;;;;;;;;;;;;;;;;;;;;;;;;;;;;;;",
";;;;;;;;;;;;;;;;;;;;;;;;;;;;;;;;;;;;;;;;;;;;;;;;;;;;&&&&&&&&&&&&&&&&&&&&&&&&;;;;;;;;;;;;;;;;;;;;;;;;;;;;;;;;;;;;;;;;;;;;;;;;;;;;",
";;;;;;;;;;;;;;;;;;;;;;;;;;;;;;;;;;;;;;;;;;;;;;;;;;;;&&&&&&&&&&&&&&&&&&&&&&&&;;;;;;;;;;;;;;;;;;;;;;;;;;;;;;;;;;;;;;;;;;;;;;;;;;;;",
";;;;;;;;;;;;;;;;;;;;;;;;;;;;&&&&&&&&&&&&&&&&&&&&@@@@&&&&&&&&&&&&&&&&&&&&&&&&@@@@&&&&&&&&&&&&&&&&&&&&;;;;;;;;;;;;;;;;;;;;;;;;;;;;",
";;;;;;;;;;;;;;;;;;;;;;;;;;;;&&&&&&&&&&&&&&&&&&&&@@@@&&&&&&&&&&&&&&&&&&&&&&&&@@@@&&&&&&&&&&&&&&&&&&&&;;;;;;;;;;;;;;;;;;;;;;;;;;;;",
";;;;;;;;;;;;;;;;;;;;;;;;;;;;&&&&&&&&&&&&&&&&&&&&@@@@&&&&&&&&&&&&&&&&&&&&&&&&@@@@&&&&&&&&&&&&&&&&&&&&;;;;;;;;;;;;;;;;;;;;;;;;;;;;",
";;;;;;;;;;;;;;;;;;;;;;;;;;;;&&&&&&&&&&&&&&&&&&&&@@@@&&&&&&&&&&&&&&&&&&&&&&&&@@@@&&&&&&&&&&&&&&&&&&&&;;;;;;;;;;;;;;;;;;;;;;;;;;;;",
";;;;;;;;;;;;;;;;;;;;;;;;;;;;&&&&&&&&&&&&&&&&&&&&@@@@========================@@@@&&&&&&&&&&&&&&&&&&&&;;;;;;;;;;;;;;;;;;;;;;;;;;;;",
";;;;;;;;;;;;;;;;;;;;;;;;;;;;&&&&&&&&&&&&&&&&&&&&@@@@========================@@@@&&&&&&&&&&&&&&&&&&&&;;;;;;;;;;;;;;;;;;;;;;;;;;;;",
";;;;;;;;;;;;;;;;;;;;;;;;;;;;&&&&&&&&&&&&&&&&&&&&@@@@========================@@@@&&&&&&&&&&&&&&&&&&&&;;;;;;;;;;;;;;;;;;;;;;;;;;;;",
";;;;;;;;;;;;;;;;;;;;;;;;;;;;&&&&&&&&&&&&&&&&&&&&@@@@========================@@@@&&&&&&&&&&&&&&&&&&&&;;;;;;;;;;;;;;;;;;;;;;;;;;;;",
"@@@@&&&&&&&&&&&&&&&&&&&&@@@@&&&&&&&&&&&&&&&&&&&&@@@@$$$$$$$$$$$$$$$$$$$$$$$$@@@@&&&&&&&&&&&&&&&&&&&&@@@@&&&&&&&&&&&&&&&&&&&&@@@@",
"@@@@&&&&&&&&&&&&&&&&&&&&@@@@&&&&&&&&&&&&&&&&&&&&@@@@$$$$$$$$$$$$$$$$$$$$$$$$@@@@&&&&&&&&&&&&&&&&&&&&@@@@&&&&&&&&&&&&&&&&&&&&@@@@",
"@@@@&&&&&&&&&&&&&&&&&&&&@@@@&&&&&&&&&&&&&&&&&&&&@@@@$$$$$$$$$$$$$$$$$$$$$$$$@@@@&&&&&&&&&&&&&&&&&&&&@@@@&&&&&&&&&&&&&&&&&&&&@@@@",
"@@@@&&&&&&&&&&&&&&&&&&&&@@@@&&&&&&&&&&&&&&&&&&&&@@@@$$$$$$$$$$$$$$$$$$$$$$$$@@@@&&&&&&&&&&&&&&&&&&&&@@@@&&&&&&&&&&&&&&&&&&&&@@@@",
"@@@@&&&&&&&&&&&&&&&&&&&&@@@@====================@@@@$$$$$$$$$$$$$$$$$$$$$$$$@@@@====================@@@@&&&&&&&&&&&&&&&&&&&&@@@@",
"@@@@&&&&&&&&&&&&&&&&&&&&@@@@====================@@@@$$$$$$$$$$$$$$$$$$$$$$$$@@@@====================@@@@&&&&&&&&&&&&&&&&&&&&@@@@",
"@@@@&&&&&&&&&&&&&&&&&&&&@@@@====================@@@@$$$$$$$$$$$$$$$$$$$$$$$$@@@@====================@@@@&&&&&&&&&&&&&&&&&&&&@@@@",
"@@@@&&&&&&&&&&&&&&&&&&&&@@@@====================@@@@$$$$$$$$$$$$$$$$$$$$$$$$@@@@====================@@@@&&&&&&&&&&&&&&&&&&&&@@@@",
"@@@@&&&&&&&&&&&&&&&&&&&&@@@@$$$$$$$$$$$$$$$$$$$$@@@@$$$$$$$$$$$$$$$$$$$$$$$$@@@@$$$$$$$$$$$$$$$$$$$$@@@@&&&&&&&&&&&&&&&&&&&&@@@@",
"@@@@&&&&&&&&&&&&&&&&&&&&@@@@$$$$$$$$$$$$$$$$$$$$@@@@$$$$$$$$$$$$$$$$$$$$$$$$@@@@$$$$$$$$$$$$$$$$$$$$@@@@&&&&&&&&&&&&&&&&&&&&@@@@",
"@@@@&&&&&&&&&&&&&&&&&&&&@@@@$$$$$$$$$$$$$$$$$$$$@@@@$$$$$$$$$$$$$$$$$$$$$$$$@@@@$$$$$$$$$$$$$$$$$$$$@@@@&&&&&&&&&&&&&&&&&&&&@@@@",
"@@@@&&&&&&&&&&&&&&&&&&&&@@@@$$$$$$$$$$$$$$$$$$$$@@@@$$$$$$$$$$$$$$$$$$$$$$$$@@@@$$$$$$$$$$$$$$$$$$$$@@@@&&&&&&&&&&&&&&&&&&&&@@@@",
"@@@@====================@@@@$$$$$$$$$$$$$$$$$$$$@@@@$$$$$$$$$$$$$$$$$$$$$$$$@@@@$$$$$$$$$$$$$$$$$$$$@@@@====================@@@@",
"@@@@====================@@@@$$$$$$$$$$$$$$$$$$$$@@@@$$$$$$$$$$$$$$$$$$$$$$$$@@@@$$$$$$$$$$$$$$$$$$$$@@@@====================@@@@",
"@@@@====================@@@@$$$$$$$$$$$$$$$$$$$$@@@@$$$$$$$$$$$$$$$$$$$$$$$$@@@@$$$$$$$$$$$$$$$$$$$$@@@@====================@@@@",
"@@@@====================@@@@$$$$$$$$$$$$$$$$$$$$@@@@$$$$$$$$$$$$$$$$$$$$$$$$@@@@$$$$$$$$$$$$$$$$$$$$@@@@====================@@@@",
"@@@@$$$$$$$$$$$$$$$$$$$$@@@@$$$$$$$$$$$$$$$$$$$$XXXX....XXXXXXXXXXXXXXXX....XXXX$$$$$$$$$$$$$$$$$$$$@@@@$$$$$$$$$$$$$$$$$$$$@@@@",
"@@@@$$$$$$$$$$$$$$$$$$$$@@@@$$$$$$$$$$$$$$$$$$$$XXXX....XXXXXXXXXXXXXXXX....XXXX$$$$$$$$$$$$$$$$$$$$@@@@$$$$$$$$$$$$$$$$$$$$@@@@",
"@@@@$$$$$$$$$$$$$$$$$$$$@@@@$$$$$$$$$$$$$$$$$$$$XXXX....XXXXXXXXXXXXXXXX....XXXX$$$$$$$$$$$$$$$$$$$$@@@@$$$$$$$$$$$$$$$$$$$$@@@@",
"@@@@$$$$$$$$$$$$$$$$$$$$@@@@$$$$$$$$$$$$$$$$$$$$XXXX....XXXXXXXXXXXXXXXX....XXXX$$$$$$$$$$$$$$$$$$$$@@@@$$$$$$$$$$$$$$$$$$$$@@@@",
"@@@@$$$$$$$$$$$$$$$$$$$$XXXXXXXXXXXX....XXXXXXXXXXXX....XXXXXXXXXXXXXXXX....XXXXXXXXXXXX....XXXXXXXXXXXX$$$$$$$$$$$$$$$$$$$$@@@@",
"@@@@$$$$$$$$$$$$$$$$$$$$XXXXXXXXXXXX....XXXXXXXXXXXX....XXXXXXXXXXXXXXXX....XXXXXXXXXXXX....XXXXXXXXXXXX$$$$$$$$$$$$$$$$$$$$@@@@",
"@@@@$$$$$$$$$$$$$$$$$$$$XXXXXXXXXXXX....XXXXXXXXXXXX....XXXXXXXXXXXXXXXX....XXXXXXXXXXXX....XXXXXXXXXXXX$$$$$$$$$$$$$$$$$$$$@@@@",
"@@@@$$$$$$$$$$$$$$$$$$$$XXXXXXXXXXXX....XXXXXXXXXXXX....XXXXXXXXXXXXXXXX....XXXXXXXXXXXX....XXXXXXXXXXXX$$$$$$$$$$$$$$$$$$$$@@@@",
"@@@@$$$$$$$$$$$$$$$$$$$$XXXXXXXXXXXX....OOOOOOOOOOOOooooOOOOOOOOOOOOOOOOooooOOOOOOOOOOOO....XXXXXXXXXXXX$$$$$$$$$$$$$$$$$$$$@@@@",
"@@@@$$$$$$$$$$$$$$$$$$$$XXXXXXXXXXXX....OOOOOOOOOOOOooooOOOOOOOOOOOOOOOOooooOOOOOOOOOOOO....XXXXXXXXXXXX$$$$$$$$$$$$$$$$$$$$@@@@",
"@@@@$$$$$$$$$$$$$$$$$$$$XXXXXXXXXXXX....OOOOOOOOOOOOooooOOOOOOOOOOOOOOOOooooOOOOOOOOOOOO....XXXXXXXXXXXX$$$$$$$$$$$$$$$$$$$$@@@@",
"@@@@$$$$$$$$$$$$$$$$$$$$XXXXXXXXXXXX....OOOOOOOOOOOOooooOOOOOOOOOOOOOOOOooooOOOOOOOOOOOO....XXXXXXXXXXXX$$$$$$$$$$$$$$$$$$$$@@@@",
"@@@@@@@@@@@@@@@@@@@@@@@@OOOOOOOOOOOOooooOOOOOOOOOOOOooooOOOOOOOOOOOOOOOOooooOOOOOOOOOOOOooooOOOOOOOOOOOO@@@@@@@@@@@@@@@@@@@@@@@@",
"@@@@@@@@@@@@@@@@@@@@@@@@OOOOOOOOOOOOooooOOOOOOOOOOOOooooOOOOOOOOOOOOOOOOooooOOOOOOOOOOOOooooOOOOOOOOOOOO@@@@@@@@@@@@@@@@@@@@@@@@",
"@@@@@@@@@@@@@@@@@@@@@@@@OOOOOOOOOOOOooooOOOOOOOOOOOOooooOOOOOOOOOOOOOOOOooooOOOOOOOOOOOOooooOOOOOOOOOOOO@@@@@@@@@@@@@@@@@@@@@@@@",
"@@@@@@@@@@@@@@@@@@@@@@@@OOOOOOOOOOOOooooOOOOOOOOOOOOooooOOOOOOOOOOOOOOOOooooOOOOOOOOOOOOooooOOOOOOOOOOOO@@@@@@@@@@@@@@@@@@@@@@@@",
"@@@@====================%%%%%%%%****ooooOOOOOOOOOOOOoooo                    OOOOOOOOOOOOooooOOOOOOOOOOOO====================@@@@",
"@@@@====================%%%%%%%%****ooooOOOOOOOOOOOOoooo                    OOOOOOOOOOOOooooOOOOOOOOOOOO====================@@@@",
"@@@@====================%%%%%%%%****ooooOOOOOOOOOOOOoooo                    OOOOOOOOOOOOooooOOOOOOOOOOOO====================@@@@",
"@@@@====================%%%%%%%%****ooooOOOOOOOOOOOOoooo                    OOOOOOOOOOOOooooOOOOOOOOOOOO====================@@@@",
"@@@@$$$$$$$$$$$$$$$$$$$$%%%%********ooooOOOOOOOOOOOO    ++++********--------    OOOOOOOOooooOOOOOOOOOOOO$$$$$$$$$$$$$$$$$$$$@@@@",
"@@@@$$$$$$$$$$$$$$$$$$$$%%%%********ooooOOOOOOOOOOOO    ++++********--------    OOOOOOOOooooOOOOOOOOOOOO$$$$$$$$$$$$$$$$$$$$@@@@",
"@@@@$$$$$$$$$$$$$$$$$$$$%%%%********ooooOOOOOOOOOOOO    ++++********--------    OOOOOOOOooooOOOOOOOOOOOO$$$$$$$$$$$$$$$$$$$$@@@@",
"@@@@$$$$$$$$$$$$$$$$$$$$%%%%********ooooOOOOOOOOOOOO    ++++********--------    OOOOOOOOooooOOOOOOOOOOOO$$$$$$$$$$$$$$$$$$$$@@@@",
"@@@@$$$$$$$$$$$$$$$$$$$$OOOOOOOOOOOOooooOOOOOOOO    ++++****            ++++----    OOOOooooOOOOOOOOOOOO$$$$$$$$$$$$$$$$$$$$@@@@",
"@@@@$$$$$$$$$$$$$$$$$$$$OOOOOOOOOOOOooooOOOOOOOO    ++++****            ++++----    OOOOooooOOOOOOOOOOOO$$$$$$$$$$$$$$$$$$$$@@@@",
"@@@@$$$$$$$$$$$$$$$$$$$$OOOOOOOOOOOOooooOOOOOOOO    ++++****            ++++----    OOOOooooOOOOOOOOOOOO$$$$$$$$$$$$$$$$$$$$@@@@",
"@@@@$$$$$$$$$$$$$$$$$$$$OOOOOOOOOOOOooooOOOOOOOO    ++++****            ++++----    OOOOooooOOOOOOOOOOOO$$$$$$$$$$$$$$$$$$$$@@@@",
"@@@@$$$$$$$$$$$$$$$$$$$$OOOOOOOOOOOOooooOOOOOOOO    ++++****            ++++----    OOOOooooOOOOOOOOOOOO$$$$$$$$$$$$$$$$$$$$@@@@",
"@@@@$$$$$$$$$$$$$$$$$$$$OOOOOOOOOOOOooooOOOOOOOO    ++++****            ++++----    OOOOooooOOOOOOOOOOOO$$$$$$$$$$$$$$$$$$$$@@@@",
"@@@@$$$$$$$$$$$$$$$$$$$$OOOOOOOOOOOOooooOOOOOOOO    ++++****            ++++----    OOOOooooOOOOOOOOOOOO$$$$$$$$$$$$$$$$$$$$@@@@",
"@@@@$$$$$$$$$$$$$$$$$$$$OOOOOOOOOOOOooooOOOOOOOO    ++++****            ++++----    OOOOooooOOOOOOOOOOOO$$$$$$$$$$$$$$$$$$$$@@@@",
"@@@@$$$$$$$$$$$$$$$$$$$$OOOOOOOOOOOOooooOOOO    ++++****************************----    ooooOOOO****OOOO$$$$$$$$$$$$$$$$$$$$@@@@",
"@@@@$$$$$$$$$$$$$$$$$$$$OOOOOOOOOOOOooooOOOO    ++++****************************----    ooooOOOO****OOOO$$$$$$$$$$$$$$$$$$$$@@@@",
"@@@@$$$$$$$$$$$$$$$$$$$$OOOOOOOOOOOOooooOOOO    ++++****************************----    ooooOOOO****OOOO$$$$$$$$$$$$$$$$$$$$@@@@",
"@@@@$$$$$$$$$$$$$$$$$$$$OOOOOOOOOOOOooooOOOO    ++++****************************----    ooooOOOO****OOOO$$$$$$$$$$$$$$$$$$$$@@@@",
"@@@@@@@@@@@@@@@@@@@@@@@@OOOOOOOOOOOOooooOOOO    ++++****************************----    ooooOOOO****OOOO@@@@@@@@@@@@@@@@@@@@@@@@",
"@@@@@@@@@@@@@@@@@@@@@@@@OOOOOOOOOOOOooooOOOO    ++++****************************----    ooooOOOO****OOOO@@@@@@@@@@@@@@@@@@@@@@@@",
"@@@@@@@@@@@@@@@@@@@@@@@@OOOOOOOOOOOOooooOOOO    ++++****************************----    ooooOOOO****OOOO@@@@@@@@@@@@@@@@@@@@@@@@",
"@@@@@@@@@@@@@@@@@@@@@@@@OOOOOOOOOOOOooooOOOO    ++++****************************----    ooooOOOO****OOOO@@@@@@@@@@@@@@@@@@@@@@@@",
"@@@@====================OOOOOOOOOOOOooooOOOO    ++++************        ********----    ooooOOOO****OOOO====================@@@@",
"@@@@====================OOOOOOOOOOOOooooOOOO    ++++************        ********----    ooooOOOO****OOOO====================@@@@",
"@@@@====================OOOOOOOOOOOOooooOOOO    ++++************        ********----    ooooOOOO****OOOO====================@@@@",
"@@@@====================OOOOOOOOOOOOooooOOOO    ++++************        ********----    ooooOOOO****OOOO====================@@@@",
"@@@@$$$$$$$$$$$$$$$$$$$$OOOOOOOOOOOOooooOOOO    ++++************        ************    ooooOOOO****OOOO$$$$$$$$$$$$$$$$$$$$@@@@",
"@@@@$$$$$$$$$$$$$$$$$$$$OOOOOOOOOOOOooooOOOO    ++++************        ************    ooooOOOO****OOOO$$$$$$$$$$$$$$$$$$$$@@@@",
"@@@@$$$$$$$$$$$$$$$$$$$$OOOOOOOOOOOOooooOOOO    ++++************        ************    ooooOOOO****OOOO$$$$$$$$$$$$$$$$$$$$@@@@",
"@@@@$$$$$$$$$$$$$$$$$$$$OOOOOOOOOOOOooooOOOO    ++++************        ************    ooooOOOO****OOOO$$$$$$$$$$$$$$$$$$$$@@@@",
"@@@@$$$$$$$$$$$$$$$$$$$$OOOOOOOOOOOOooooOOOO    ++++************        ************    ooooOOOO****OOOO$$$$$$$$$$$$$$$$$$$$@@@@",
"@@@@$$$$$$$$$$$$$$$$$$$$OOOOOOOOOOOOooooOOOO    ++++************        ************    ooooOOOO****OOOO$$$$$$$$$$$$$$$$$$$$@@@@",
"@@@@$$$$$$$$$$$$$$$$$$$$OOOOOOOOOOOOooooOOOO    ++++************        ************    ooooOOOO****OOOO$$$$$$$$$$$$$$$$$$$$@@@@",
"@@@@$$$$$$$$$$$$$$$$$$$$OOOOOOOOOOOOooooOOOO    ++++************        ************    ooooOOOO****OOOO$$$$$$$$$$$$$$$$$$$$@@@@",
"@@@@$$$$$$$$$$$$$$$$$$$$OOOOOOOOOOOOooooOOOO    ++++********************************    ooooOOOOOOOOOOOO$$$$$$$$$$$$$$$$$$$$@@@@",
"@@@@$$$$$$$$$$$$$$$$$$$$OOOOOOOOOOOOooooOOOO    ++++********************************    ooooOOOOOOOOOOOO$$$$$$$$$$$$$$$$$$$$@@@@",
"@@@@$$$$$$$$$$$$$$$$$$$$OOOOOOOOOOOOooooOOOO    ++++********************************    ooooOOOOOOOOOOOO$$$$$$$$$$$$$$$$$$$$@@@@",
"@@@@$$$$$$$$$$$$$$$$$$$$OOOOOOOOOOOOooooOOOO    ++++********************************    ooooOOOOOOOOOOOO$$$$$$$$$$$$$$$$$$$$@@@@",
"@@@@$$$$$$$$$$$$$$$$$$$$OOOOOOOOOOOOooooOOOO    ++++********************************    ooooOOOOOOOOOOOO$$$$$$$$$$$$$$$$$$$$@@@@",
"@@@@$$$$$$$$$$$$$$$$$$$$OOOOOOOOOOOOooooOOOO    ++++********************************    ooooOOOOOOOOOOOO$$$$$$$$$$$$$$$$$$$$@@@@",
"@@@@$$$$$$$$$$$$$$$$$$$$OOOOOOOOOOOOooooOOOO    ++++********************************    ooooOOOOOOOOOOOO$$$$$$$$$$$$$$$$$$$$@@@@",
"@@@@$$$$$$$$$$$$$$$$$$$$OOOOOOOOOOOOooooOOOO    ++++********************************    ooooOOOOOOOOOOOO$$$$$$$$$$$$$$$$$$$$@@@@",
"@@@@@@@@@@@@@@@@@@@@@@@@OOOOOOOOOOOOooooOOOOOOOO                                    OOOOooooOOOOOOOOOOOO@@@@@@@@@@@@@@@@@@@@@@@@",
"@@@@@@@@@@@@@@@@@@@@@@@@OOOOOOOOOOOOooooOOOOOOOO                                    OOOOooooOOOOOOOOOOOO@@@@@@@@@@@@@@@@@@@@@@@@",
"@@@@@@@@@@@@@@@@@@@@@@@@OOOOOOOOOOOOooooOOOOOOOO                                    OOOOooooOOOOOOOOOOOO@@@@@@@@@@@@@@@@@@@@@@@@",
"@@@@@@@@@@@@@@@@@@@@@@@@OOOOOOOOOOOOooooOOOOOOOO                                    OOOOooooOOOOOOOOOOOO@@@@@@@@@@@@@@@@@@@@@@@@",
"@@@@====================%%%%%%%%****ooooOOOOOOOOOOOOooooOOOOOOOOOOOOOOOOooooOOOOOOOOOOOOooooOOOOOOOOOOOO====================@@@@",
"@@@@====================%%%%%%%%****ooooOOOOOOOOOOOOooooOOOOOOOOOOOOOOOOooooOOOOOOOOOOOOooooOOOOOOOOOOOO====================@@@@",
"@@@@====================%%%%%%%%****ooooOOOOOOOOOOOOooooOOOOOOOOOOOOOOOOooooOOOOOOOOOOOOooooOOOOOOOOOOOO====================@@@@",
"@@@@====================%%%%%%%%****ooooOOOOOOOOOOOOooooOOOOOOOOOOOOOOOOooooOOOOOOOOOOOOooooOOOOOOOOOOOO====================@@@@",
"@@@@$$$$$$$$$$$$$$$$$$$$%%%%********ooooOOOOOOOOOOOOooooOOOOOOOOOOOOOOOOooooOOOOOOOOOOOOooooOOOOOOOOOOOO$$$$$$$$$$$$$$$$$$$$@@@@",
"@@@@$$$$$$$$$$$$$$$$$$$$%%%%********ooooOOOOOOOOOOOOooooOOOOOOOOOOOOOOOOooooOOOOOOOOOOOOooooOOOOOOOOOOOO$$$$$$$$$$$$$$$$$$$$@@@@",
"@@@@$$$$$$$$$$$$$$$$$$$$%%%%********ooooOOOOOOOOOOOOooooOOOOOOOOOOOOOOOOooooOOOOOOOOOOOOooooOOOOOOOOOOOO$$$$$$$$$$$$$$$$$$$$@@@@",
"@@@@$$$$$$$$$$$$$$$$$$$$%%%%********ooooOOOOOOOOOOOOooooOOOOOOOOOOOOOOOOooooOOOOOOOOOOOOooooOOOOOOOOOOOO$$$$$$$$$$$$$$$$$$$$@@@@",
"@@@@$$$$$$$$$$$$$$$$$$$$OOOOOOOOOOOOooooOOOOOOOOOOOOooooOOOOOOOOOOOOOOOOooooOOOOOOOOOOOOooooOOOOOOOOOOOO$$$$$$$$$$$$$$$$$$$$@@@@",
"@@@@$$$$$$$$$$$$$$$$$$$$OOOOOOOOOOOOooooOOOOOOOOOOOOooooOOOOOOOOOOOOOOOOooooOOOOOOOOOOOOooooOOOOOOOOOOOO$$$$$$$$$$$$$$$$$$$$@@@@",
"@@@@$$$$$$$$$$$$$$$$$$$$OOOOOOOOOOOOooooOOOOOOOOOOOOooooOOOOOOOOOOOOOOOOooooOOOOOOOOOOOOooooOOOOOOOOOOOO$$$$$$$$$$$$$$$$$$$$@@@@",
"@@@@$$$$$$$$$$$$$$$$$$$$OOOOOOOOOOOOooooOOOOOOOOOOOOooooOOOOOOOOOOOOOOOOooooOOOOOOOOOOOOooooOOOOOOOOOOOO$$$$$$$$$$$$$$$$$$$$@@@@",
"@@@@$$$$$$$$$$$$$$$$$$$$############oooo############oooo################oooo############oooo############$$$$$$$$$$$$$$$$$$$$@@@@",
"@@@@$$$$$$$$$$$$$$$$$$$$############oooo############oooo################oooo############oooo############$$$$$$$$$$$$$$$$$$$$@@@@",
"@@@@$$$$$$$$$$$$$$$$$$$$############oooo############oooo################oooo############oooo############$$$$$$$$$$$$$$$$$$$$@@@@",
"@@@@$$$$$$$$$$$$$$$$$$$$############oooo############oooo################oooo############oooo############$$$$$$$$$$$$$$$$$$$$@@@@"
};
