/* XPM */
static char *result[] = {
/* columns rows colors chars-per-pixel */
"64 64 8 1 ",
"  c #040406",
". c #060608",
"X c #AC3232",
"o c #DF7126",
"O c #847E87",
"+ c #9BADB7",
"@ c white",
"# c None",
/* pixels */
"############################....################################",
"############################....################################",
"############################....################################",
"############################....################################",
"####################........XXXX....############################",
"####################........XXXX....############################",
"####################........XXXX....############################",
"####################........XXXX....############################",
"####################....XXXXOOOO................################",
"####################....XXXXOOOO................################",
"####################....XXXXOOOO................################",
"####################....XXXXOOOO................################",
"####################....OOOOOOOO++++++++++++++++....############",
"####################....OOOOOOOO++++++++++++++++....############",
"####################....OOOOOOOO++++++++++++++++....############",
"####################....OOOOOOOO++++++++++++++++....############",
"################....OOOO++++@@@@@@@@@@@@@@@@@@@@....############",
"################....OOOO++++@@@@@@@@@@@@@@@@@@@@....############",
"################....OOOO++++@@@@@@@@@@@@@@@@@@@@....############",
"################....OOOO++++@@@@@@@@@@@@@@@@@@@@....############",
"################....++++++++@@@@....................############",
"################....++++++++@@@@....................############",
"################....++++++++@@@@....................############",
"################....++++++++@@@@....................############",
"################....++++++++@@@@@@@@@@@@....@@@@....############",
"################....++++++++@@@@@@@@@@@@....@@@@....############",
"################....++++++++@@@@@@@@@@@@....@@@@....############",
"################....++++++++@@@@@@@@@@@@....@@@@....############",
"################....OOOO++++++++++++@@@@@@@@@@@@....############",
"################....OOOO++++++++++++@@@@@@@@@@@@....############",
"################....OOOO++++++++++++@@@@@@@@@@@@....############",
"################....OOOO++++++++++++@@@@@@@@@@@@....############",
"####################....OOOOOOOOXXXXXXXXooooXXXX....############",
"####################....OOOOOOOOXXXXXXXXooooXXXX....############",
"####################....OOOOOOOOXXXXXXXXooooXXXX....############",
"####################....OOOOOOOOXXXXXXXXooooXXXX....############",
"################XXXX....XXXXXXXXOOOOOOOOOOOOOOOO....############",
"################XXXX....XXXXXXXXOOOOOOOOOOOOOOOO....############",
"################XXXX....XXXXXXXXOOOOOOOOOOOOOOOO....############",
"################XXXX....XXXXXXXXOOOOOOOOOOOOOOOO....############",
"########XXXXXXXXXXXX....OOOOOOOO++++++++++++++++OOOO....########",
"########XXXXXXXXXXXX....OOOOOOOO++++++++++++++++OOOO....########",
"########XXXXXXXXXXXX....OOOOOOOO++++++++++++++++OOOO....########",
"########XXXXXXXXXXXX....OOOOOOOO++++++++++++++++OOOO....########",
"############XXXX....OOOOOOOO....................OOOO....########",
"############XXXX....OOOOOOOO....................OOOO....########",
"############XXXX....OOOOOOOO....................OOOO....########",
"############XXXX....OOOOOOOO....................OOOO....########",
"################............####################        ########",
"################............####################        ########",
"################............####################        ########",
"################............####################        ########",
"################################################################",
"################################################################",
"################################################################",
"################################################################",
"################################################################",
"################################################################",
"################################################################",
"################################################################",
"################################################################",
"################################################################",
"################################################################",
"################################################################"
};
