/* XPM */
static char *result[] = {
/* columns rows colors chars-per-pixel */
"64 64 3 1 ",
"  c #181425",
". c #514047",
"X c gray64",
/* pixels */
"................................................................",
"................................................................",
"................................................................",
"................................................................",
"................................................................",
"................................................................",
"................................................................",
"................................................................",
"................................................................",
"................................................................",
"................................................................",
"................................................................",
"................................................................",
"................................................................",
"................................................................",
"................................................................",
"........            ........................            ........",
"........            ........................            ........",
"........            ........................            ........",
"........            ........................            ........",
"....                    ................                    ....",
"....                    ................                    ....",
"....                    ................                    ....",
"....                    ................                    ....",
"....        XXXX        ................        XXXX        ....",
"....        XXXX        ................        XXXX        ....",
"....        XXXX        ................        XXXX        ....",
"....        XXXX        ................        XXXX        ....",
"........            ........................            ........",
"........            ........................            ........",
"........            ........................            ........",
"........            ........................            ........",
"................................................................",
"................................................................",
"................................................................",
"................................................................",
"................................................................",
"................................................................",
"................................................................",
"................................................................",
"................................................................",
"................................................................",
"................................................................",
"................................................................",
"................................................................",
"................................................................",
"................................................................",
"................................................................",
"........            ........................            ........",
"........            ........................            ........",
"........            ........................            ........",
"........            ........................            ........",
"....                    ................                    ....",
"....                    ................                    ....",
"....                    ................                    ....",
"....                    ................                    ....",
"....        XXXX        ................        XXXX        ....",
"....        XXXX        ................        XXXX        ....",
"....        XXXX        ................        XXXX        ....",
"....        XXXX        ................        XXXX        ....",
"........            ........................            ........",
"........            ........................            ........",
"........            ........................            ........",
"........            ........................            ........"
};
