/* XPM */
static char *result[] = {
/* columns rows colors chars-per-pixel */
"64 64 5 1 ",
"  c #181425",
". c #514047",
"X c gray47",
"o c gray64",
"O c white",
/* pixels */
"................................................................",
"................................................................",
"................................................................",
"................................................................",
"............OOOO................................OOOO............",
"............OOOO................................OOOO............",
"............OOOO................................OOOO............",
"............OOOO................................OOOO............",
"............OOOO................................OOOO............",
"............OOOO................................OOOO............",
"............OOOO................................OOOO............",
"............OOOO................................OOOO............",
"........OOOOooooXXXX............XXXX........OOOOooooXXXX........",
"........OOOOooooXXXX............XXXX........OOOOooooXXXX........",
"........OOOOooooXXXX............XXXX........OOOOooooXXXX........",
"........OOOOooooXXXX............XXXX........OOOOooooXXXX........",
"XXXX....oooooooooooo....XXXX........XXXX....oooooooooooo....XXXX",
"XXXX....oooooooooooo....XXXX........XXXX....oooooooooooo....XXXX",
"XXXX....oooooooooooo....XXXX........XXXX....oooooooooooo....XXXX",
"XXXX....oooooooooooo....XXXX........XXXX....oooooooooooo....XXXX",
"....    ooooooooXXXX    ................    ooooooooXXXX    ....",
"....    ooooooooXXXX    ................    ooooooooXXXX    ....",
"....    ooooooooXXXX    ................    ooooooooXXXX    ....",
"....    ooooooooXXXX    ................    ooooooooXXXX    ....",
"....        XXXX        ................        XXXX        ....",
"....        XXXX        ................        XXXX        ....",
"....        XXXX        ................        XXXX        ....",
"....        XXXX        ................        XXXX        ....",
"........            ........................            ........",
"........            ........................            ........",
"........            ........................            ........",
"........            ........................            ........",
"................................................................",
"................................................................",
"................................................................",
"................................................................",
"............OOOO................................OOOO............",
"............OOOO................................OOOO............",
"............OOOO................................OOOO............",
"............OOOO................................OOOO............",
"............OOOO................................OOOO............",
"............OOOO................................OOOO............",
"............OOOO................................OOOO............",
"............OOOO................................OOOO............",
"........OOOOooooXXXX........XXXX............OOOOooooXXXX........",
"........OOOOooooXXXX........XXXX............OOOOooooXXXX........",
"........OOOOooooXXXX........XXXX............OOOOooooXXXX........",
"........OOOOooooXXXX........XXXX............OOOOooooXXXX........",
"XXXX....oooooooooooo....XXXX........XXXX....oooooooooooo....XXXX",
"XXXX....oooooooooooo....XXXX........XXXX....oooooooooooo....XXXX",
"XXXX....oooooooooooo....XXXX........XXXX....oooooooooooo....XXXX",
"XXXX....oooooooooooo....XXXX........XXXX....oooooooooooo....XXXX",
"....    ooooooooXXXX    ................    ooooooooXXXX    ....",
"....    ooooooooXXXX    ................    ooooooooXXXX    ....",
"....    ooooooooXXXX    ................    ooooooooXXXX    ....",
"....    ooooooooXXXX    ................    ooooooooXXXX    ....",
"....        XXXX        ................        XXXX        ....",
"....        XXXX        ................        XXXX        ....",
"....        XXXX        ................        XXXX        ....",
"....        XXXX        ................        XXXX        ....",
"........            ........................            ........",
"........            ........................            ........",
"........            ........................            ........",
"........            ........................            ........"
};
