/* XPM */
static char *result[] = {
/* columns rows colors chars-per-pixel */
"64 64 179 2 ",
"   c #040406",
".  c #060608",
"X  c #08070C",
"o  c #07080A",
"O  c #0A0A0C",
"+  c #120709",
"@  c #0C0B12",
"#  c #120E11",
"$  c #120E1D",
"%  c #131214",
"&  c #191317",
"*  c #14121C",
"=  c #1B1518",
"-  c #1C1B1D",
";  c #2A0B0D",
":  c #21191D",
">  c #3A191C",
",  c #161222",
"<  c #181425",
"1  c #261525",
"2  c #291625",
"3  c #271E22",
"4  c #291F24",
"5  c #232526",
"6  c #2B2226",
"7  c #262629",
"8  c #2A2A2B",
"9  c #32272C",
"0  c #34282D",
"q  c #3E2829",
"w  c #282E31",
"e  c #372B30",
"r  c #3C2E33",
"t  c #2C3236",
"y  c #333334",
"u  c #3F3137",
"i  c #38363A",
"p  c #3E3D3E",
"a  c #441213",
"s  c #4B1415",
"d  c #4A191B",
"f  c #631B1B",
"g  c #4C1D24",
"h  c #4E1B28",
"j  c #521C28",
"k  c #472023",
"l  c #4A2529",
"z  c #413339",
"x  c #4C3439",
"c  c #49393F",
"v  c #692428",
"b  c #772328",
"n  c #3D3D42",
"m  c #413F42",
"M  c #4C3C42",
"N  c #503F46",
"B  c #663E44",
"V  c #683E44",
"C  c #753C42",
"Z  c #394145",
"A  c #464647",
"S  c #44484D",
"D  c #4A4A4A",
"F  c #514047",
"G  c #434B50",
"H  c #4B5256",
"J  c #545255",
"K  c #59565C",
"L  c #5A5A5A",
"P  c #635E65",
"I  c #6A5C63",
"U  c #596369",
"Y  c #5B6469",
"T  c #626262",
"R  c #69646C",
"E  c #6E6E6E",
"W  c #746E76",
"Q  c #68747A",
"!  c #737373",
"~  c #777478",
"^  c #7A747C",
"/  c #787878",
"(  c #852626",
")  c #83272D",
"_  c #932A2B",
"`  c #9E2E2E",
"'  c #9F2F30",
"]  c #8B3538",
"[  c #9D3436",
"{  c #A02E2E",
"}  c #A22F31",
"|  c #A43132",
" . c #AC3232",
".. c #AA3B3C",
"X. c #B64231",
"o. c #D76A2A",
"O. c #D86A28",
"+. c #DF7126",
"@. c #DF7128",
"#. c #D16C3B",
"$. c #D8723A",
"%. c #A93E40",
"&. c #944C51",
"*. c #995459",
"=. c #AD4647",
"-. c #A64649",
";. c #A5484B",
":. c #B04A4A",
">. c #A25156",
",. c #A0555A",
"<. c #A55E5D",
"1. c #9D5B60",
"2. c #896167",
"3. c #92646A",
"4. c #936B73",
"5. c #8C757E",
"6. c #907077",
"7. c #B76565",
"8. c #A76B71",
"9. c #A3747A",
"0. c #B27A7A",
"q. c #BD7A7A",
"w. c #D97547",
"e. c #C2765C",
"r. c #E17D48",
"t. c #7B7780",
"y. c #7E7981",
"u. c #847E87",
"i. c #8A7A82",
"p. c #847F88",
"a. c #79878F",
"s. c #7F8E96",
"d. c #868686",
"f. c #86848D",
"g. c #8B8B8B",
"h. c #978E8E",
"j. c #848E97",
"k. c #83929B",
"l. c #8D929B",
"z. c #969696",
"x. c #9C9C9C",
"c. c #BF8080",
"v. c #A1939B",
"b. c #8A9BA3",
"n. c #8F9FA9",
"m. c #959CA5",
"M. c #94A3AC",
"N. c #96A6B0",
"B. c #9CA7B1",
"V. c #9BADB7",
"C. c #9DAFB8",
"Z. c #A3A3A3",
"A. c #ACA7A9",
"S. c #A6B5BE",
"D. c #B5B2B6",
"F. c #C48887",
"G. c #C39191",
"H. c #E5A48E",
"J. c #ABBAC2",
"K. c #B1BEC5",
"L. c #BCC6CB",
"P. c #CDCDCD",
"I. c #DFC6C6",
"U. c #C4CDD3",
"Y. c #CAD2D7",
"T. c LightGray",
"R. c #DBDBDB",
"E. c #E2CDCD",
"W. c #F2D5CD",
"Q. c #E6D3D3",
"!. c #E5E5E5",
"~. c #E7EAEC",
"^. c #EBEBEB",
"/. c #F5EFEF",
"(. c #EEF0F2",
"). c #F3F4F4",
"_. c #F9F4F4",
"`. c #F6F7F8",
"'. c #FFFFFF",
/* pixels */
"F F F F F F F F F F F F '.'.'.'.F F F M : . . & 9 c M M : . o 3 M F F F F F F F F F F F F F F F '.'.'.'.F F F F F F F F F F F F ",
"F F F F F F F F F F F F '.'.'.'.F F F c : . . . X & 9 x > . . : c F F F F F F F F F F F F F F F '.'.'.'.F F F F F F F F F F F F ",
"F F F F F F F F F F F F '.'.'.'.F F F M : . . . . . . d ( f ; - M F F F F F F F F F F F F F F F '.'.'.'.F F F F F F F F F F F F ",
"F F F F F F F F F F F F '.'.'.'.F F F c : . . ; ; . . s { | _ v c F F F F F F F F F F F F F F F '.'.'.'.F F F F F F F F F F F F ",
"F F F F F F F F F F F F '.'.'.'.F F F M : . . a b f ; a {  . ._ l c M F F F F F F F F F F F F F '.'.'.'.F F F F F F F F F F F F ",
"F F F F F F F F F F F F '.'.'.'.F F F M : . . s { { _ v [  . .{ s % 6 c F F F F F F F F F F F F '.'.'.'.F F F F F F F F F F F F ",
"F F F F F F F F F F F F '.'.'.'.F F F c : . . s {  . .-.3.,...{ s   . 3 M F F F F F F F F F F F '.'.'.'.F F F F F F F F F F F F ",
"F F F F F F F F F F F N '.'.'.'.F F F c : . . k [  . .-.5.5.4.&.d . . : M F F F F F F F F F F F '.'.'.'.F F F F F F F F F F F F ",
"F F F F F F F F '.'.'.'.Z.Z.Z.z.L E ! E : . . i 2.>...-.5.u.u.^ r . . : c F F F F F F F '.'.'.'.Z.Z.Z.Z./ / / / F F F F F F F F ",
"F F F F F F F F '.'.'.'.Z.Z.Z.z.y 8 J T 6 . . i ^ i.4.1.5.u.u.^ i   . = c F F F F F F F '.'.'.'.Z.Z.Z.Z./ / / / F F F F F F F F ",
"F F F F F F F F '.'.'.'.Z.Z.Z.z.y . O n P A < i ^ u.u.u.u.u.y.t.i o . o 4 z M F F F F F '.'.'.'.Z.Z.Z.Z./ / / / F F F F F F F F ",
"F F F F F F F F '.'.'.'.Z.Z.Z.z.y o o i ~ ^ R L ^ u.u.u.u.u.f.y.A o o  . . .6 z M F F F '.'.'.'.Z.Z.Z.Z./ / / / F F F F F F F F ",
"F F F F F F F F Z.Z.Z.Z.Z.Z.Z.z.A . . i  . . .f.l. . . .u.u.u.f.j.Y t  . . .o % 6 z M F Z.Z.Z.Z.Z.Z.Z.Z.Z.Z.Z.Z.F F F F F F F F ",
"F F F F F F F F Z.Z.Z.Z.Z.Z.Z.z.A . . n  . . . . . . . . .u.u. . . .k. . . . .o . # 4 z z.Z.Z.Z.Z.Z.Z.Z. . . . .F F F F F F F F ",
"F F F F F F F F Z.Z.Z.Z.Z.Z.Z.z.A . . G  . . . . . . . . .D. . . . .C. . . . . .. o  . . . . . . . . . . . . . . .F F F F F F F ",
"F F F F F F F F Z.Z.Z.Z.Z.Z.Z.z.A . . G n. . . . . . . . . . . . . .C. . . . . . .O  . . . . . . . . . . . . . . .F F F F F F F ",
"F F F F F F F F Z.Z.Z.Z.Z.Z.Z.z.S o . G M.V.V. . . . . . . . . . .U.S.V.C. . . .| Q  . . . . . . . . . . . . . . .F F F F F F F ",
"F F F F F F F F Z.Z.Z.Z. . . .z.A . . G n.V.V.V.V.C. . . . . . . .| ~.U.S.C. . . .V.k.Q Z % . A z.Z.Z.Z.Z.Z. . . . .F F F F F F ",
"F F F F F F F F Z.Z.Z. . . . . . . .. G n.V.V.V.V.V.V. . . . . . . .'.'.^.U. . . .V.V.V.k.Q Z G z.Z.Z.Z.Z.Z. . . . .F F F F F F ",
"F F F F F F F F Z.Z.Z. . . . . . . . . .n.V.V.V.V.V.C. . . . . . . .'.'.'.'. . . .V.V.C.V.V.b./ z.Z.Z.Z.Z.Z.Z. . . . .F F F F F ",
"F F F F / / / / Z.Z.Z. . . . . . . . . . .V.V.C.C.C.V.K.). . . . .T._.'.'. . . . .Y. . . . .C.b.L / z.Z./ / /  . . . ./ F F F F ",
"F F F F / / / / Z.Z.Z.Z. . . . . . . . . . . . . . . .K.).'.'.~.! D  . . . . . . .'. . . . .C.n.G 5 D d./ / / /  . . ./ F F F F ",
"F F F F / / / / Z.Z.Z.Z.Z.Z. . . . . . . . . . . . . .K.).'.'.~.! .  . . . . . . .'. . . . .S.b.G . . D E / / /  . . ./ F F F F ",
"F F F F / / / / Z.Z.Z.Z.Z.Z.Z. . . . . . . . . . . . .K.). . . .d.%  . . . . .| ).'. . . . ./.U.H . . A E / / /  . . ./ F F F F ",
"F F F F < < < < < < < < / / / /  . . . . . . .g. . . .K.`. . . . . . . . . . . .g.P. . . . .'.|  . .. y , < < <  . . . .F F F F ",
"F F F F < < < < < < < < / / / / <  . . . . . . . . . .J.(. . . . . . . . . . . .o p  . . . .'. . . .. y , < < <  . . . .F F F F ",
"F F F F < < < < < < < < / / ~ ~ <  . . . . . . . . . .C.L. . . . . .'._.R.Z.J % . .  . . . ./. . . .. y , < < < <  . . .F F F F ",
"F F F F < < < 2 1 < < < / / / ^ 1  . . . . . . . . . .V.V. . . . . .'.'.'.'.R.z.5 .  . . . .d. . . ..  . . . .< <  . . .F F F F ",
"F F F F F F F B b l 1 < < < < h b  . . . . . . . . . .C.C.V. . . . .`.'.'.'.'.!.Y .  . . .. .  . . ..  . . . .< F  . . .F F F F ",
"F F F F F F F V  . . . .2 < < h ' |  . . . . . . . .l.m.V.C.V.C.V.S.U.~.'.'.'.^.!    . . .- .  . . ..  . . . . .F F F F F F F F ",
"F F F  . . . . . . . . .) j 2 j }  . ._ > . . i ^ u.u.f.l.m.V.C.V.V.V.L.`.'.'.^.!    . . .A.T  . . .. O  . . . . .F F F F F F F ",
"F F  . . . . . . . . . . .} ) v '  . .` s X . z ^ u.u.u.u.p.l.m.B.V.V.K.).'.'.).g.=  . . .'.!.Z.8 . . @ <  . . . . .F F F F F F ",
"F F  . . . . . . . . . . . ...7.|  . .` s . . d *.4.u.f.u.u.u.i.9.x.B.K.).'.'.'.!.Z. . . .'.'.^.T . . ! M M  . . . .F F F F F F ",
"F F  . . .F F F F B ] |  . . . . . . .` s . . s ' %.,.4.i.u.u.5.-.=.8.A.^.'.'.'.'.'. . . .'.'.^.! . . ! M N F  . . .F F F F F F ",
"F F F F F F F F F F F C 7. . . . . . .` s . . s `  . .%.,.6.i.5.-. . .-.G.Q._.'.'.'. . . .'.'.^.!  . . .M N F F F F F F F F F F ",
"F F F F F F F F F F F V q. . .|  . . .` s .   g [  . . . .%.,.4.;. . . . . . . ._.'. . . .'.'.^.!  . . . .F F F F F F F F F F F ",
"F F F F F F  . . .F F V q. . .` b ` | { s X . u 2.>... . . . .;.4.,. . . . . . .H.W. . . .'.'.^.!  . . . .N F F F F F F F F F F ",
"F F F F F  . . . .F F B c. . .[ s a b _ g . . i ~ u.4.>... . .-.5.i. . . . . . .O.r.H.W._.'.'.~. . . . . . . .N F F F F F F F F ",
"F F F F F  . . . .F F F E.c.:.{ s . + x I m - i ^ u.u.i.4.*...-.5.u.u. . . . . .O.+.+.w.F.E._. . . . . . . . . . .F F F F F F F ",
"F F F F F  . . . .F F F './.I.0.s . . i ^ t.R J ^ u.u.u.u. . . .i.u.u.u.d.i.6.<.#.@.+.O.X.:.F. . . . .!  . . . . .F F F F F F F ",
"F F F F F F F F ^.`.'.'.Z.Z.v.h.q . . i / u.u.y.u.u. . . . . . .m.l.f.u. . . . . .e.$.o. . . . . . . .A E /  . . .F F F F F F F ",
"F  . . . .F F F R.R.^._.Z.Z.Z.z.y .  . . .d.u.u.u. . . . . . . .B.B.m.l. . . . . . . . . . . .' s . o A E /  . . .F F F F F F F ",
"F  . . . .F F F R.T.T.R.z.x.Z.z.y  . . . .W u.u. . . . . . . . .N.C.C.V. . . . . . . . . . . .' s . . A E / / / F F F F F F F F ",
"F  . . . .F F F R.T.T.T.d.g.z.z.y  . . . .8 J W  . . . . . . .W M.V.V.V.V.V.M. . . . . . . . . . .. . D E / / / F F F F F F F F ",
"F F F F F F F F g.d.d.d.d.d.d.d.E  . . . . . .8  . . . . . . .7 U s.N.C.V.C.V.V.n.l.f.u.u.u. . . . .. A z.Z.Z.Z.F F F F F F F F ",
"F F F F F F F M g.d.d.d.d.d.d.d.d. . . . . . .X  . . . . . . .. o w U k.N.V.V.C.V.V.M.l.f.u. . . . .o A z.Z.Z.Z.F F F F F F F F ",
"F F F F F F F F g.d.d.g.d.d.d.d.d.d.d. . . . .. X .  . . . . . . . . .w U s.N.C.C.C.V.V.N.l.f. . . . . . . .Z.Z.F F F F F F F F ",
"F F F F F F F M g.d.d.d.d.d.d.d.d.d.d.f.z u 0 - O  . . . . . . . . . . .   .|  .M.V.V.V.C.V. . . . . . . . .Z.Z.F F F F F F F F ",
"F F F F F F F F z.g.d.d.d.d.d.d.d.d.d.d.z z z u 0  . . . . . . . . . . ..  . . . . .M.V.V.V. . . . . . . . . .Z.F F F F F F F F ",
"F F F F F F F F Z.M.z.g.d.d.d.d.d.d.d.d.z z z  . . . . .r z z z z  . . .#  . . . . . . .M.V. . . . . . . . . .Z.F F F F F F F F ",
"F F F F F F F F Z.Z.Z.x.g.d.d.g.d.d.d.d.z z  . . . . . .u z z z z z z u e 6  . . . . . . .a. . . . . . . . . .Z.F F F F F F F F ",
"F F F F F F F F Z.Z.Z.v.g.d.d.d.d.d.d.d.z z  . . . . .z z z z z z z z z z u e  . . . . . .5  . . . . . . .= A a.F F F F F F F F ",
"F F F F / / / / Z.Z.Z.Z.g.d.d.d.T T T T T T  . . .z z  . . .z z z z z z z z z u J p  . . .o o n ^  . . . .. . y E / / / F F F F ",
"F F F F / / / / Z.Z.Z.x.g.d.d.d.T T T T T T T T z z z  . . .z z z z z z u z z z Y T  . . .O . i ^ d.u.^ i . . y E / / / F F F F ",
"F F F F / / / / Z.Z.Z.Z.z.g.d.d.T T T T T T T T z z z  . . .z z z z z z z z z z T T  . . .K e n ^ u.u.^ i . . y E / / / F F F F ",
"F F F F / / / / Z.Z.Z.Z.Z.Z.x.g.T T T T T T T T z z z  . . .z z |  . .z z  . . .T T T T d.d.~ L W u.u.^ i . . y E / / / F F F F ",
"F F F F < < < < - < < < / / / ! , $ $ $ $ $ $ $  . . . . . .z z  . . .z z  . . .$ $ $ $ $ $ $ $ m P t.^ i . . @ - < < < N N F F ",
"F F F F < < < < < < < < / / / / < , , , $ $ $ $  . . . . . .z z  . . . .z  . . .$ $ $ $ $ $ $ $ 8 & n K t . . X , < < < N N F F ",
"F F F F < < < < < < < < / / / / < < < - , $ $  . . . . . . .z z  . . . .z  . . .$ $ $ $ $ $ $ $ 8     # * . . @ , < < < F F F F ",
"F F F F < < < < < < < < / / / / < < < < < , ,  . . . . . . .z z  . . . . . . .z $ $ $ $ $ $ $ $ y X       .   X , < < < F F F F ",
"F F F F F F F F < < < < < < < < < < < < F  . . . . .z  . . .z z  . . . . . . .z z z z z $ $ $ $ $ @ . .       X M F F F F F F F ",
"F F F F F F F F < < < < < < < < < < < < F  . . . . . . . . .z z  . . . . . . .z z z z z $ $ $ $ $ $ $ @ X     X M F F F F F F F ",
"F F F F F F F F < < < < < < < < < < < < F  . . . . . . . . . . . . . .z  . . .z z z z z $ $ $ $ $ $ $ $ $ @ X X M N F F F F F F ",
"F F F F F F F F < < < < < < < < < < < < F F  . . . . . . . . . . . . . . . . .z z z z z $ $ $ $ $ $ $ $ $ $ $ @ M N F F F F F F "
};
