/* XPM */
static char *result[] = {
/* columns rows colors chars-per-pixel */
"64 64 4 1 ",
"  c #181425",
". c #514047",
"X c gray64",
"o c white",
/* pixels */
"................................................................",
"................................................................",
"................................................................",
"................................................................",
"................................................................",
"................................................................",
"................................................................",
"................................................................",
"................................................................",
"................................................................",
"................................................................",
"................................................................",
"................................................................",
"................................................................",
"................................................................",
"................................................................",
"........    XXXX    ........................    XXXX    ........",
"........    XXXX    ........................    XXXX    ........",
"........    XXXX    ........................    XXXX    ........",
"........    XXXX    ........................    XXXX    ........",
"....    ooooooooXXXX    ................    ooooooooXXXX    ....",
"....    ooooooooXXXX    ................    ooooooooXXXX    ....",
"....    ooooooooXXXX    ................    ooooooooXXXX    ....",
"....    ooooooooXXXX    ................    ooooooooXXXX    ....",
"....        XXXX        ................        XXXX        ....",
"....        XXXX        ................        XXXX        ....",
"....        XXXX        ................        XXXX        ....",
"....        XXXX        ................        XXXX        ....",
"........            ........................            ........",
"........            ........................            ........",
"........            ........................            ........",
"........            ........................            ........",
"................................................................",
"................................................................",
"................................................................",
"................................................................",
"................................................................",
"................................................................",
"................................................................",
"................................................................",
"................................................................",
"................................................................",
"................................................................",
"................................................................",
"................................................................",
"................................................................",
"................................................................",
"................................................................",
"........    XXXX    ........................    XXXX    ........",
"........    XXXX    ........................    XXXX    ........",
"........    XXXX    ........................    XXXX    ........",
"........    XXXX    ........................    XXXX    ........",
"....    ooooooooXXXX    ................    ooooooooXXXX    ....",
"....    ooooooooXXXX    ................    ooooooooXXXX    ....",
"....    ooooooooXXXX    ................    ooooooooXXXX    ....",
"....    ooooooooXXXX    ................    ooooooooXXXX    ....",
"....        XXXX        ................        XXXX        ....",
"....        XXXX        ................        XXXX        ....",
"....        XXXX        ................        XXXX        ....",
"....        XXXX        ................        XXXX        ....",
"........            ........................            ........",
"........            ........................            ........",
"........            ........................            ........",
"........            ........................            ........"
};
